<?xml version="1.0" standalone="no"?>
<!DOCTYPE svg PUBLIC "-//W3C//DTD SVG 1.1//EN" "http://www.w3.org/Graphics/SVG/1.1/DTD/svg11.dtd" >
<svg xmlns="http://www.w3.org/2000/svg" xmlns:xlink="http://www.w3.org/1999/xlink" version="1.1">
<metadata>
Created by FontForge 20170731 at Thu Apr  6 12:13:32 2017
 By Aleksey,,,
Copyright, 2017 tptq-arabic.com All rights reserved. For exclusive use on TPTQ Arabic Web Font servers.
</metadata>
<defs>
<font id="KanunAR+LT-Hairline" horiz-adv-x="0" >
  <font-face 
    font-family="Kanun AR+LT Hairline"
    font-weight="100"
    font-stretch="normal"
    units-per-em="1000"
    panose-1="2 0 0 0 0 0 0 0 0 0"
    ascent="780"
    descent="-220"
    x-height="535"
    cap-height="755"
    bbox="-263 -544 2421 1247"
    underline-thickness="50"
    underline-position="-200"
    unicode-range="U+000D-1F6CF"
  />
<missing-glyph horiz-adv-x="306" 
 />
    <glyph glyph-name="fi" unicode="fi" horiz-adv-x="534" 
d="M109 535v70q0 76 28.5 117t92.5 41q27 0 50 -7v-17q-20 9 -50 9q-53 0 -78.5 -35.5t-25.5 -98.5v-79h140v-15h-140v-520h-17v520h-65v15h65zM440 755v-109h-16v109h16zM440 535v-535h-16v535h16z" />
    <glyph glyph-name="fl" unicode="fl" horiz-adv-x="582" 
d="M109 535v70q0 76 28.5 117t92.5 41q27 0 50 -7v-17q-20 9 -50 9q-53 0 -78.5 -35.5t-25.5 -98.5v-79h140v-15h-140v-520h-17v520h-65v15h65zM440 755v-652q0 -45 17.5 -70t50.5 -25q13 0 31.5 4t27.5 8v-15q-10 -5 -27 -8.5t-32 -3.5q-39 0 -61.5 27t-22.5 84v651h16z
" />
    <glyph glyph-name="uniFC43" unicode="&#xfedf;&#xfef0;" horiz-adv-x="790" arabic-form="isolated" 
d="M690 704v-499q0 -72 -8.5 -112.5t-41.5 -66t-102 -26.5q88 -32 88 -112t-79 -125.5t-219 -45.5q-148 0 -218 57t-70 178q0 41 7 79t14.5 61.5t10.5 29.5h15q-3 -6 -10.5 -29.5t-14.5 -61t-7 -78.5q0 -112 66.5 -166t206.5 -54q133 0 208 41t75 114q0 53 -38 77.5
t-120 42.5v15q30 -7 77 -7q69 0 100.5 23.5t38 60.5t6.5 108v496h15z" />
    <glyph glyph-name="uniFC86" unicode="&#xfee0;&#xfef0;" horiz-adv-x="842" arabic-form="final" 
d="M859 13v-10l-17 -3q-75 0 -112 20t-49 73q-10 -45 -43 -68.5t-100 -24.5q88 -32 88 -112t-79 -125.5t-219 -45.5q-148 0 -218 57t-70 178q0 41 7 79t14.5 61.5t10.5 29.5h15q-3 -6 -10.5 -29.5t-14.5 -61t-7 -78.5q0 -112 66.5 -166t206.5 -54q133 0 208 41t75 114
q0 53 -38 77.5t-120 42.5v15q30 -7 77 -7q67 0 98 22t39 58t8 99v12v1v496h15v-545q0 -59 14.5 -89.5t46.5 -42t91 -11.5z" />
    <glyph glyph-name="uniFDF2" unicode="&#x627;&#xfedf;&#xfee0;&#xfeea;" horiz-adv-x="1279" arabic-form="isolated" 
d="M949 704h15v-499q0 -73 -9.5 -114t-46 -66t-114.5 -25q-75 0 -112 20.5t-49 73.5q-12 -47 -48.5 -70.5t-112.5 -23.5q-49 0 -77 13t-41.5 44.5t-16.5 88.5q-17 -20 -54.5 -31.5t-92.5 -11.5q-79 0 -114.5 30t-35.5 85q0 42 28.5 75t91.5 65t176 72v70h15v-322
q0 -67 10 -101t35.5 -47.5t75.5 -13.5q71 0 104.5 22t42 58t8.5 100v11v1v496h15v-545q0 -59 14.5 -89.5t46.5 -42t91 -11.5q74 0 107.5 23.5t40.5 60.5t7 108v496zM1179 704v-704h-15v704h15zM284 132q38 13 52 36v10v236q-107 -39 -167 -69t-87 -60t-27 -68q0 -50 33 -74
t103 -24q55 0 93 13z" />
    <glyph glyph-name="uniFEF5" unicode="&#xfedf;&#xfe82;" horiz-adv-x="560" arabic-form="isolated" 
d="M448.5 199.5q21.5 -36.5 21.5 -82.5q0 -65 -45 -91t-139 -26q-108 0 -150 3.5t-65 14.5v16q210 188 280 257h-1q-74 78 -310 287l8 14q208 -183 313 -290q48 48 67 94.5t19 120.5v188h15v-188q0 -79 -21 -128.5t-69 -98.5q55 -54 76.5 -90.5zM411.5 38q43.5 22 43.5 82
q0 39 -20.5 73t-72.5 87q-85 -80 -275 -251q15 -7 57.5 -10t141.5 -3q82 0 125.5 22zM157 687q-28 8 -41 8t-24.5 -3.5t-19 -7.5t-9.5 -5v16q10 6 25 11t28 5q11 0 22 -2.5t21 -5.5q11 -3 23.5 -6t26.5 -3q16 0 28 2.5t18 5.5t7 4v-16q-1 -1 -7 -4t-18 -5.5t-30 -2.5t-50 9z
" />
    <glyph glyph-name="uniFEF6" unicode="&#xfee0;&#xfe82;" horiz-adv-x="626" arabic-form="final" 
d="M643 13v-10l-17 -3q-82 0 -120 24.5t-45 89.5q-17 -46 -65.5 -70.5t-134.5 -34t-231 -9.5v16q142 0 228 10h-2q0 107 -7.5 185.5t-35 168t-84.5 190.5l11 12q57 -101 85.5 -188t37 -169.5t8.5 -196.5q104 13 146 50.5t42 112.5v513h15v-545q0 -59 14.5 -89.5t46.5 -42
t91 -11.5zM161 696q-28 8 -41 8t-24.5 -3.5t-19 -7.5t-9.5 -5v16q10 6 25 11t28 5q11 0 22 -2.5t21 -5.5q11 -3 23.5 -6t26.5 -3q16 0 28 2.5t18 5.5t7 4v-16q-1 -1 -7 -4t-18 -5.5t-30 -2.5t-50 9z" />
    <glyph glyph-name="uniFEF7" unicode="&#xfedf;&#xfe84;" horiz-adv-x="560" arabic-form="isolated" 
d="M448.5 199.5q21.5 -36.5 21.5 -82.5q0 -65 -45 -91t-139 -26q-108 0 -150 3.5t-65 14.5v16q210 188 280 257h-1q-74 78 -310 287l8 14q208 -183 313 -290q48 48 67 94.5t19 120.5v188h15v-188q0 -79 -21 -128.5t-69 -98.5q55 -54 76.5 -90.5zM411.5 38q43.5 22 43.5 82
q0 39 -20.5 73t-72.5 87q-85 -80 -275 -251q15 -7 57.5 -10t141.5 -3q82 0 125.5 22zM198 690q33 4 39 5v-16l-22 -3q-64 -8 -141 -15v16l38 4q-27 17 -27 60q0 38 21 56.5t53 18.5q15 0 31.5 -7t16.5 -8v-16q0 1 -16 8t-32 7q-59 0 -59 -59q0 -30 12.5 -42.5t35.5 -12.5
q17 0 50 4z" />
    <glyph glyph-name="uniFEF8" unicode="&#xfee0;&#xfe84;" horiz-adv-x="626" arabic-form="final" 
d="M643 13v-10l-17 -3q-82 0 -120 24.5t-45 89.5q-17 -46 -65.5 -70.5t-134.5 -34t-231 -9.5v16q142 0 228 10h-2q0 107 -7.5 185.5t-35 168t-84.5 190.5l11 12q57 -101 85.5 -188t37 -169.5t8.5 -196.5q104 13 146 50.5t42 112.5v513h15v-545q0 -59 14.5 -89.5t46.5 -42
t91 -11.5zM202 699q33 4 39 5v-16l-22 -3q-64 -8 -141 -15v16l38 4q-27 17 -27 60q0 38 21 56.5t53 18.5q15 0 31.5 -7t16.5 -8v-16q0 1 -16 8t-32 7q-59 0 -59 -59q0 -30 12.5 -42.5t35.5 -12.5q17 0 50 4z" />
    <glyph glyph-name="uniFEF9" unicode="&#xfedf;&#xfe88;" horiz-adv-x="560" arabic-form="isolated" 
d="M448.5 199.5q21.5 -36.5 21.5 -82.5q0 -65 -45 -91t-139 -26q-108 0 -150 3.5t-65 14.5v16q210 188 280 257h-1q-74 78 -310 287l8 14q208 -183 313 -290q48 48 67 94.5t19 120.5v188h15v-188q0 -79 -21 -128.5t-69 -98.5q55 -54 76.5 -90.5zM411.5 38q43.5 22 43.5 82
q0 39 -20.5 73t-72.5 87q-85 -80 -275 -251q15 -7 57.5 -10t141.5 -3q82 0 125.5 22zM195 -237q33 4 39 5v-16l-22 -3q-64 -8 -141 -15v16l38 4q-27 17 -27 60q0 38 21 56.5t53 18.5q15 0 31.5 -7t16.5 -8v-16q0 1 -16 8t-32 7q-59 0 -59 -59q0 -30 12.5 -42.5t35.5 -12.5
q17 0 50 4z" />
    <glyph glyph-name="uniFEFA" unicode="&#xfee0;&#xfe88;" horiz-adv-x="626" arabic-form="final" 
d="M643 13v-10l-17 -3q-82 0 -120 24.5t-45 89.5q-17 -46 -65.5 -70.5t-134.5 -34t-231 -9.5v16q142 0 228 10h-2q0 107 -7.5 185.5t-35 168t-84.5 190.5l11 12q57 -101 85.5 -188t37 -169.5t8.5 -196.5q104 13 146 50.5t42 112.5v513h15v-545q0 -59 14.5 -89.5t46.5 -42
t91 -11.5zM255 -237q33 4 39 5v-16l-22 -3q-64 -8 -141 -15v16l38 4q-27 17 -27 60q0 38 21 56.5t53 18.5q15 0 31.5 -7t16.5 -8v-16q0 1 -16 8t-32 7q-59 0 -59 -59q0 -30 12.5 -42.5t35.5 -12.5q17 0 50 4z" />
    <glyph glyph-name="uniFEFB" unicode="&#xfedf;&#xfe8e;" horiz-adv-x="560" arabic-form="isolated" 
d="M448.5 199.5q21.5 -36.5 21.5 -82.5q0 -65 -45 -91t-139 -26q-108 0 -150 3.5t-65 14.5v16q210 188 280 257h-1q-74 78 -310 287l8 14q208 -183 313 -290q48 48 67 94.5t19 120.5v188h15v-188q0 -79 -21 -128.5t-69 -98.5q55 -54 76.5 -90.5zM411.5 38q43.5 22 43.5 82
q0 39 -20.5 73t-72.5 87q-85 -80 -275 -251q15 -7 57.5 -10t141.5 -3q82 0 125.5 22z" />
    <glyph glyph-name="uniFEFC" unicode="&#xfee0;&#xfe8e;" horiz-adv-x="626" arabic-form="final" 
d="M643 13v-10l-17 -3q-82 0 -120 24.5t-45 89.5q-17 -46 -65.5 -70.5t-134.5 -34t-231 -9.5v16q142 0 228 10h-2q0 107 -7.5 185.5t-35 168t-84.5 190.5l11 12q57 -101 85.5 -188t37 -169.5t8.5 -196.5q104 13 146 50.5t42 112.5v513h15v-545q0 -59 14.5 -89.5t46.5 -42
t91 -11.5z" />
    <glyph glyph-name="uni066E.init" unicode="&#x66e;" horiz-adv-x="222" 
d="M-17 3v10l17 3q82 0 119.5 41.5t37.5 131.5q0 60 -16 146h15q16 -77 16 -146q0 -103 -44.5 -146t-127.5 -43z" />
    <glyph glyph-name="uni066E.medi" unicode="&#x66e;" horiz-adv-x="325" 
d="M342 13v-10l-17 -3q-77 0 -113.5 21t-46.5 74q-11 -53 -50 -74t-115 -21l-16 3l-1 10l17 3q59 0 92.5 12t49.5 43t16 89v120h15v-121q0 -59 14.5 -89.5t46.5 -42t91 -11.5z" />
    <glyph glyph-name="uni066E.fina" unicode="&#x66e;" horiz-adv-x="915" 
d="M932 13v-10l-17 -3q-80 0 -117 24t-45 86q-14 -45 -52.5 -68.5t-109.5 -32.5t-194 -9q-135 0 -212 17t-111 56t-34 108q0 33 4.5 62t9 46.5t6.5 21.5h15q-2 -5 -6.5 -23.5t-9 -47t-4.5 -57.5q0 -63 32.5 -99t106 -52t203.5 -16q145 0 218.5 13.5t103 48.5t29.5 104v98h15
v-116q0 -61 14.5 -92.5t46.5 -43.5t91 -12z" />
    <glyph glyph-name="uni066F.fina" unicode="&#x66f;" horiz-adv-x="766" 
d="M783 11v-7l-17 -4h-104q-9 -85 -41.5 -131t-96.5 -64.5t-174 -18.5q-120 0 -186.5 22t-95 72.5t-28.5 140.5q0 42 7.5 82.5t15 67t10.5 33.5h16q-3 -8 -11 -37t-15.5 -69t-7.5 -74q0 -85 27 -132.5t90.5 -68.5t177.5 -21q106 0 167 17t92 59.5t38 121.5h-155
q-84 0 -121 31.5t-37 99.5q0 55 21.5 98t59 67t84.5 24q77 0 121.5 -60t44.5 -161v-22q0 -23 -2 -61h103zM649 16q1 15 1 48v35q0 94 -40 149.5t-111 55.5q-43 0 -77 -22t-53.5 -61.5t-19.5 -89.5q0 -60 32.5 -87.5t110.5 -27.5h157z" />
    <glyph glyph-name="uni06A1.init" unicode="&#x6a1;" horiz-adv-x="398" 
d="M306.5 419q41.5 -57 41.5 -154v-44q0 -91 -21 -137.5t-74 -65t-156 -18.5h-97l-17 3v10l17 3h96q98 0 147.5 16.5t69.5 57.5t20 122v9q-18 -24 -56 -37t-92 -13q-79 0 -113.5 30t-34.5 96q0 52 20.5 92.5t55.5 63.5t79 23q73 0 114.5 -57zM333 244v21q0 89 -37.5 142
t-103.5 53q-40 0 -72 -21t-50 -58t-18 -84q0 -58 30 -84t103 -26q114 0 148 57z" />
    <glyph glyph-name="uni06A1.medi" unicode="&#x6a1;" horiz-adv-x="452" 
d="M469 13l-3 -10l-15 -3q-135 0 -225 38h-1q-87 -38 -224 -38l-18 3v10l18 3q128 0 206 30q-74 31 -105 71.5t-31 108.5q0 84 41.5 129t113.5 45t113.5 -45t41.5 -129q0 -68 -31 -108.5t-106 -70.5q38 -14 92 -22.5t115 -8.5zM97.5 153q11.5 -29 41.5 -52t87 -47
q57 24 87 47t41.5 52t11.5 73q0 78 -37.5 118t-102.5 40t-102.5 -40t-37.5 -118q0 -44 11.5 -73z" />
    <glyph glyph-name="uni06A1.fina" unicode="&#x6a1;" horiz-adv-x="882" 
d="M899 13v-10l-18 -3q-134 0 -224 38q-54 -21 -116.5 -29.5t-177.5 -8.5q-123 0 -192.5 19t-100 64t-30.5 128q0 28 4.5 56.5t9 48t6.5 24.5h15q-2 -6 -6.5 -26t-9 -48t-4.5 -51q0 -78 29.5 -121t95.5 -60.5t184 -17.5q104 0 164 6.5t109 23.5q-74 32 -105 73t-31 111
q0 85 41.5 130t113.5 45t113.5 -45t41.5 -130q0 -69 -31 -110.5t-106 -72.5q38 -14 92 -22.5t115 -8.5zM527.5 155.5q11.5 -29.5 41.5 -53t87 -48.5q57 25 87 48.5t41.5 53t11.5 74.5q0 79 -37.5 119t-102.5 40t-102.5 -40t-37.5 -119q0 -45 11.5 -74.5z" />
    <glyph glyph-name="uniFB57" unicode="&#x67e;" horiz-adv-x="915" arabic-form="final" 
d="M932 13v-10l-17 -3q-80 0 -117 24t-45 86q-14 -45 -52.5 -68.5t-109.5 -32.5t-194 -9q-135 0 -212 17t-111 56t-34 108q0 33 4.5 62t9 46.5t6.5 21.5h15q-2 -5 -6.5 -23.5t-9 -47t-4.5 -57.5q0 -63 32.5 -99t106 -52t203.5 -16q145 0 218.5 13.5t103 48.5t29.5 104v98h15
v-116q0 -61 14.5 -92.5t46.5 -43.5t91 -12zM325 -137l25 23l26 -23l-26 -25zM421 -137l26 23l25 -23l-25 -25zM377 -210l22 21l23 -21l-23 -22z" />
    <glyph glyph-name="uniFB58" unicode="&#x67e;" horiz-adv-x="222" arabic-form="initial" 
d="M-17 3v10l17 3q82 0 119.5 41.5t37.5 131.5q0 60 -16 146h15q16 -77 16 -146q0 -103 -44.5 -146t-127.5 -43zM2 -127l25 23l26 -23l-26 -25zM98 -127l26 23l25 -23l-25 -25zM54 -200l22 21l23 -21l-23 -22z" />
    <glyph glyph-name="uniFB59" unicode="&#x67e;" horiz-adv-x="325" arabic-form="medial" 
d="M342 13v-10l-17 -3q-77 0 -113.5 21t-46.5 74q-11 -53 -50 -74t-115 -21l-16 3l-1 10l17 3q59 0 92.5 12t49.5 43t16 89v120h15v-121q0 -59 14.5 -89.5t46.5 -42t91 -11.5zM92 -137l25 23l26 -23l-26 -25zM188 -137l26 23l25 -23l-25 -25zM144 -210l22 21l23 -21l-23 -22
z" />
    <glyph glyph-name="uniFB6B" unicode="&#x6a4;" horiz-adv-x="882" arabic-form="final" 
d="M899 13v-10l-18 -3q-134 0 -224 38q-54 -21 -116.5 -29.5t-177.5 -8.5q-123 0 -192.5 19t-100 64t-30.5 128q0 28 4.5 56.5t9 48t6.5 24.5h15q-2 -6 -6.5 -26t-9 -48t-4.5 -51q0 -78 29.5 -121t95.5 -60.5t184 -17.5q104 0 164 6.5t109 23.5q-74 32 -105 73t-31 111
q0 85 41.5 130t113.5 45t113.5 -45t41.5 -130q0 -69 -31 -110.5t-106 -72.5q38 -14 92 -22.5t115 -8.5zM527.5 155.5q11.5 -29.5 41.5 -53t87 -48.5q57 25 87 48.5t41.5 53t11.5 74.5q0 79 -37.5 119t-102.5 40t-102.5 -40t-37.5 -119q0 -45 11.5 -74.5zM632 616l22 21
l23 -21l-23 -22zM580 543l25 24l26 -24l-26 -24zM676 543l26 24l25 -24l-25 -24z" />
    <glyph glyph-name="uniFB6C" unicode="&#x6a4;" horiz-adv-x="398" arabic-form="initial" 
d="M306.5 419q41.5 -57 41.5 -154v-44q0 -91 -21 -137.5t-74 -65t-156 -18.5h-97l-17 3v10l17 3h96q98 0 147.5 16.5t69.5 57.5t20 122v9q-18 -24 -56 -37t-92 -13q-79 0 -113.5 30t-34.5 96q0 52 20.5 92.5t55.5 63.5t79 23q73 0 114.5 -57zM333 244v21q0 89 -37.5 142
t-103.5 53q-40 0 -72 -21t-50 -58t-18 -84q0 -58 30 -84t103 -26q114 0 148 57zM168 687l22 21l23 -21l-23 -22zM116 614l25 24l26 -24l-26 -24zM212 614l26 24l25 -24l-25 -24z" />
    <glyph glyph-name="uniFB6D" unicode="&#x6a4;" horiz-adv-x="452" arabic-form="medial" 
d="M469 13l-3 -10l-15 -3q-135 0 -225 38h-1q-87 -38 -224 -38l-18 3v10l18 3q128 0 206 30q-74 31 -105 71.5t-31 108.5q0 84 41.5 129t113.5 45t113.5 -45t41.5 -129q0 -68 -31 -108.5t-106 -70.5q38 -14 92 -22.5t115 -8.5zM97.5 153q11.5 -29 41.5 -52t87 -47
q57 24 87 47t41.5 52t11.5 73q0 78 -37.5 118t-102.5 40t-102.5 -40t-37.5 -118q0 -44 11.5 -73zM202 611l22 21l23 -21l-23 -22zM150 538l25 24l26 -24l-26 -24zM246 538l26 24l25 -24l-25 -24z" />
    <glyph glyph-name="uniFB7B" unicode="&#x686;" horiz-adv-x="660" arabic-form="final" 
d="M677 13v-10l-17 -3q-69 0 -106.5 20.5t-53 67t-16.5 133.5q-174 -64 -262.5 -108.5t-127.5 -94t-39 -120.5q0 -113 60.5 -168.5t187.5 -55.5q79 0 140.5 13t99 28.5t37.5 17.5v-16q-1 0 -27.5 -14.5t-98 -29.5t-152.5 -15q-133 0 -197.5 58.5t-64.5 175.5v9
q0 81 48 135.5t151.5 102.5t313.5 122q-47 11 -84 25.5t-92 38.5q-62 27 -99.5 39t-80.5 12q-40 0 -70.5 -11t-49 -23.5t-18.5 -14.5v16q0 2 18 14.5t49 23.5t72 11q44 0 80.5 -11.5t95.5 -37.5q55 -25 100 -41.5t104 -29.5l-1 -17l-78 -28q1 -84 14.5 -128.5t48 -63.5
t98.5 -19zM249 -17l25 23l26 -23l-26 -25zM371 -42l-26 25l26 23l25 -23zM323 -69l23 -21l-23 -22l-22 22z" />
    <glyph glyph-name="uniFB7C" unicode="&#x686;" horiz-adv-x="669" arabic-form="initial" 
d="M289.5 328q44.5 -16 106.5 -49q56 -29 98 -47t95 -27l-2 -17q-63 -26 -150 -66q-81 -39 -133 -59q-95 -37 -153 -50t-150 -13l-18 3l2 10l16 3q90 0 150.5 14t151.5 50q30 12 68.5 29.5t55.5 25.5q62 30 134 60q-43 10 -80.5 26t-85.5 42q-66 33 -109.5 49t-97.5 16
q-39 0 -69 -12t-48 -25.5t-18 -15.5v18q0 2 17.5 15t48.5 24.5t72 11.5q54 0 98.5 -16zM312 -72l25 23l26 -23l-26 -25zM408 -72l26 23l25 -23l-25 -25zM364 -145l22 21l23 -21l-23 -22z" />
    <glyph glyph-name="uniFB7D" unicode="&#x686;" horiz-adv-x="675" arabic-form="medial" 
d="M692 13v-10l-17 -3q-68 0 -103.5 15t-49 47t-15.5 92l-53 -25q-115 -52 -150 -66q-95 -37 -153 -50t-150 -13l-18 3l2 10l16 3q90 0 150.5 14t151.5 50q30 12 68.5 29.5t55.5 25.5q62 30 134 60q-43 10 -80.5 26t-85.5 42q-66 33 -109.5 49t-97.5 16q-39 0 -69 -12
t-48 -25.5t-18 -15.5v18q0 2 17.5 15t48.5 24.5t72 11.5q54 0 98.5 -16t106.5 -49q56 -29 98 -47t95 -27l-2 -17q-23 -9 -65 -27q1 -59 13 -89t44 -43t96 -13zM337 -49l26 -23l-26 -25l-25 25zM434 -49l25 -23l-25 -25l-26 25zM386 -124l23 -21l-23 -22l-22 22z" />
    <glyph glyph-name="uniFB8B" unicode="&#x698;" horiz-adv-x="359" arabic-form="final" 
d="M376 13v-10l-17 -3q-85 0 -117 62v-6q0 -86 -26 -153t-72.5 -104.5t-106.5 -37.5q-27 0 -46.5 4t-29 8.5t-11.5 5.5v16q12 -6 34.5 -12t52.5 -6q54 0 97.5 34.5t68 98t24.5 146.5q0 37 -18 174h15q2 -20 4 -30q2 -19 4.5 -39.5t4.5 -40.5q8 -48 36.5 -76t85.5 -28z
M193 441l22 21l23 -21l-23 -22zM141 368l25 24l26 -24l-26 -24zM237 368l26 24l25 -24l-25 -24z" />
    <glyph glyph-name="uniFB8F" unicode="&#x6a9;" horiz-adv-x="822" arabic-form="final" 
d="M839 13v-10l-17 -3q-45 0 -75 9t-55.5 32.5t-56.5 67.5q-7 -37 -28 -60t-68.5 -36t-129.5 -13h-84q-116 0 -176.5 13.5t-84.5 46.5t-24 97q0 21 3.5 42t7 34t4.5 17h15l-4.5 -18t-7 -34t-3.5 -40q0 -58 22.5 -88t79.5 -42t168 -12h83q84 0 129.5 13t63 35.5t22.5 59.5h1
l-71 101q-133 192 -157 217v17l381 250v-18l-365 -242q36 -48 103.5 -141.5t123.5 -177.5q32 -49 58.5 -73t54 -32.5t70.5 -8.5z" />
    <glyph glyph-name="uniFB90" unicode="&#x6a9;" horiz-adv-x="429" arabic-form="initial" 
d="M414 692l-374 -249q128 -60 196 -104t96 -87t28 -99q0 -84 -65 -118.5t-159 -34.5h-135l-18 3v10l18 3h135q84 0 146.5 29.5t62.5 107.5q0 51 -27 91.5t-96 85t-199 103.5v15l391 262v-18z" />
    <glyph glyph-name="uniFB91" unicode="&#x6a9;" horiz-adv-x="493" arabic-form="medial" 
d="M510 13v-10l-17 -3q-45 0 -75 9t-55.5 32.5t-56.5 67.5q-7 -37 -28 -60t-68.5 -36t-129.5 -13h-79l-18 3v10l18 3h78q84 0 129.5 13t63 35.5t22.5 59.5h1l-71 101q-133 192 -157 217v17l381 250v-18l-365 -242q11 -15 85 -119l142 -200q32 -49 58.5 -73t54 -32.5
t70.5 -8.5z" />
    <glyph glyph-name="uniFB93" unicode="&#x6af;" horiz-adv-x="822" arabic-form="final" 
d="M839 13v-10l-17 -3q-45 0 -75 9t-55.5 32.5t-56.5 67.5q-7 -37 -28 -60t-68.5 -36t-129.5 -13h-84q-116 0 -176.5 13.5t-84.5 46.5t-24 97q0 21 3.5 42t7 34t4.5 17h15l-4.5 -18t-7 -34t-3.5 -40q0 -58 22.5 -88t79.5 -42t168 -12h83q84 0 129.5 13t63 35.5t22.5 59.5h1
l-71 101q-133 192 -157 217v17l381 250v-18l-365 -242q36 -48 103.5 -141.5t123.5 -177.5q32 -49 58.5 -73t54 -32.5t70.5 -8.5zM382 597l356 237v-18l-356 -237v18z" />
    <glyph glyph-name="uniFB94" unicode="&#x6af;" horiz-adv-x="429" arabic-form="initial" 
d="M414 692l-374 -249q128 -60 196 -104t96 -87t28 -99q0 -84 -65 -118.5t-159 -34.5h-135l-18 3v10l18 3h135q84 0 146.5 29.5t62.5 107.5q0 51 -27 91.5t-96 85t-199 103.5v15l391 262v-18zM9 590l356 237v-18l-356 -237v18z" />
    <glyph glyph-name="uniFB95" unicode="&#x6af;" horiz-adv-x="493" arabic-form="medial" 
d="M510 13v-10l-17 -3q-45 0 -75 9t-55.5 32.5t-56.5 67.5q-7 -37 -28 -60t-68.5 -36t-129.5 -13h-79l-18 3v10l18 3h78q84 0 129.5 13t63 35.5t22.5 59.5h1l-71 101q-133 192 -157 217v17l381 250v-18l-365 -242q11 -15 85 -119l142 -200q32 -49 58.5 -73t54 -32.5
t70.5 -8.5zM53 599l356 237v-18l-356 -237v18z" />
    <glyph glyph-name="uniFB9F" unicode="&#x6ba;" horiz-adv-x="699" arabic-form="final" 
d="M716 13v-10l-17 -3q-47 0 -74.5 11.5t-40.5 38.5v-11q0 -97 -27 -154t-88 -83t-164 -26q-99 0 -156.5 24.5t-83 77t-25.5 139.5q0 51 9.5 94t21 73t11.5 27h15q-3 -7 -13 -34.5t-19.5 -71t-9.5 -88.5q0 -82 24 -131t78.5 -71.5t147.5 -22.5q97 0 154.5 22.5t83.5 73
t26 136.5q0 91 -16 216h15q8 -56 13 -124q6 -57 31.5 -78.5t86.5 -21.5z" />
    <glyph glyph-name="uniFBE8" unicode="&#x649;" horiz-adv-x="222" arabic-form="initial" 
d="M-17 3v10l17 3q82 0 119.5 41.5t37.5 131.5q0 60 -16 146h15q16 -77 16 -146q0 -103 -44.5 -146t-127.5 -43z" />
    <glyph glyph-name="uniFBE9" unicode="&#x649;" horiz-adv-x="325" arabic-form="medial" 
d="M342 13v-10l-17 -3q-77 0 -113.5 21t-46.5 74q-11 -53 -50 -74t-115 -21l-16 3l-1 10l17 3q59 0 92.5 12t49.5 43t16 89v120h15v-121q0 -59 14.5 -89.5t46.5 -42t91 -11.5z" />
    <glyph glyph-name="uniFBFD" unicode="&#x6cc;" horiz-adv-x="672" arabic-form="final" 
d="M689 13v-10l-18 -3h-86l-58 3q47 -14 73 -41.5t26 -73.5q0 -80 -79 -125.5t-219 -45.5q-148 0 -218 57t-70 178q0 41 7 79t14.5 61.5t10.5 29.5h15q-3 -6 -10.5 -29.5t-14.5 -61t-7 -78.5q0 -112 66.5 -166t206.5 -54q133 0 208 41t75 114q0 53 -38 77.5t-120 42.5v15
q72 -7 203 -7h15z" />
    <glyph glyph-name="uniFBFE" unicode="&#x6cc;" horiz-adv-x="222" arabic-form="initial" 
d="M-17 3v10l17 3q82 0 119.5 41.5t37.5 131.5q0 60 -16 146h15q16 -77 16 -146q0 -103 -44.5 -146t-127.5 -43zM5 -120l24 23l24 -23l-24 -24zM96 -120l25 23l23 -23l-23 -24z" />
    <glyph glyph-name="uniFBFF" unicode="&#x6cc;" horiz-adv-x="325" arabic-form="medial" 
d="M342 13v-10l-17 -3q-77 0 -113.5 21t-46.5 74q-11 -53 -50 -74t-115 -21l-16 3l-1 10l17 3q59 0 92.5 12t49.5 43t16 89v120h15v-121q0 -59 14.5 -89.5t46.5 -42t91 -11.5zM91 -137l25 24l26 -24l-26 -25zM187 -137l26 24l25 -24l-25 -25z" />
    <glyph glyph-name="uniFC03" unicode="&#xfc03;" horiz-adv-x="758" arabic-form="isolated" 
d="M664 44q-44 -43 -126 -44q88 -32 88 -112t-79 -125.5t-219 -45.5q-148 0 -218 57t-70 178q0 41 7 79t14.5 61.5t10.5 29.5h15q-3 -6 -10.5 -29.5t-14.5 -61t-7 -78.5q0 -112 66.5 -166t206.5 -54q133 0 208 41t75 114q0 53 -38 77.5t-120 42.5v15q37 -7 83 -7
q82 0 119.5 41.5t37.5 131.5q0 60 -16 146h15q16 -77 16 -146q0 -102 -44 -145zM716 451q33 4 39 5v-16l-22 -3q-64 -8 -141 -15v16l38 4q-27 17 -27 60q0 38 21 56.5t53 18.5q15 0 31.5 -7t16.5 -8v-16q0 1 -16 8t-32 7q-59 0 -59 -59q0 -30 12.5 -42.5t35.5 -12.5
q17 0 50 4z" />
    <glyph glyph-name="uniFC04" unicode="&#xfc04;" horiz-adv-x="758" arabic-form="isolated" 
d="M664 44q-44 -43 -126 -44q88 -32 88 -112t-79 -125.5t-219 -45.5q-148 0 -218 57t-70 178q0 41 7 79t14.5 61.5t10.5 29.5h15q-3 -6 -10.5 -29.5t-14.5 -61t-7 -78.5q0 -112 66.5 -166t206.5 -54q133 0 208 41t75 114q0 53 -38 77.5t-120 42.5v15q37 -7 83 -7
q82 0 119.5 41.5t37.5 131.5q0 60 -16 146h15q16 -77 16 -146q0 -102 -44 -145zM716 451q33 4 39 5v-16l-22 -3q-64 -8 -141 -15v16l38 4q-27 17 -27 60q0 38 21 56.5t53 18.5q15 0 31.5 -7t16.5 -8v-16q0 1 -16 8t-32 7q-59 0 -59 -59q0 -30 12.5 -42.5t35.5 -12.5
q17 0 50 4zM275 -420l25 24l26 -24l-26 -25zM371 -420l26 24l25 -24l-25 -25z" />
    <glyph glyph-name="uniFC09" unicode="&#xfc09;" horiz-adv-x="758" arabic-form="isolated" 
d="M664 44q-44 -43 -126 -44q88 -32 88 -112t-79 -125.5t-219 -45.5q-148 0 -218 57t-70 178q0 41 7 79t14.5 61.5t10.5 29.5h15q-3 -6 -10.5 -29.5t-14.5 -61t-7 -78.5q0 -112 66.5 -166t206.5 -54q133 0 208 41t75 114q0 53 -38 77.5t-120 42.5v15q37 -7 83 -7
q82 0 119.5 41.5t37.5 131.5q0 60 -16 146h15q16 -77 16 -146q0 -102 -44 -145zM609 -302l24 23l24 -23l-24 -24z" />
    <glyph glyph-name="uniFC0A" unicode="&#xfc0a;" horiz-adv-x="758" arabic-form="isolated" 
d="M664 44q-44 -43 -126 -44q88 -32 88 -112t-79 -125.5t-219 -45.5q-148 0 -218 57t-70 178q0 41 7 79t14.5 61.5t10.5 29.5h15q-3 -6 -10.5 -29.5t-14.5 -61t-7 -78.5q0 -112 66.5 -166t206.5 -54q133 0 208 41t75 114q0 53 -38 77.5t-120 42.5v15q37 -7 83 -7
q82 0 119.5 41.5t37.5 131.5q0 60 -16 146h15q16 -77 16 -146q0 -102 -44 -145zM609 -302l24 23l24 -23l-24 -24zM275 -420l25 24l26 -24l-26 -25zM371 -420l26 24l25 -24l-25 -25z" />
    <glyph glyph-name="uniFC0F" unicode="&#xfc0f;" horiz-adv-x="758" arabic-form="isolated" 
d="M664 44q-44 -43 -126 -44q88 -32 88 -112t-79 -125.5t-219 -45.5q-148 0 -218 57t-70 178q0 41 7 79t14.5 61.5t10.5 29.5h15q-3 -6 -10.5 -29.5t-14.5 -61t-7 -78.5q0 -112 66.5 -166t206.5 -54q133 0 208 41t75 114q0 53 -38 77.5t-120 42.5v15q37 -7 83 -7
q82 0 119.5 41.5t37.5 131.5q0 60 -16 146h15q16 -77 16 -146q0 -102 -44 -145zM610 478l25 24l26 -24l-26 -25zM706 478l26 24l25 -24l-25 -25z" />
    <glyph glyph-name="uniFC10" unicode="&#xfc10;" horiz-adv-x="758" arabic-form="isolated" 
d="M664 44q-44 -43 -126 -44q88 -32 88 -112t-79 -125.5t-219 -45.5q-148 0 -218 57t-70 178q0 41 7 79t14.5 61.5t10.5 29.5h15q-3 -6 -10.5 -29.5t-14.5 -61t-7 -78.5q0 -112 66.5 -166t206.5 -54q133 0 208 41t75 114q0 53 -38 77.5t-120 42.5v15q37 -7 83 -7
q82 0 119.5 41.5t37.5 131.5q0 60 -16 146h15q16 -77 16 -146q0 -102 -44 -145zM610 478l25 24l26 -24l-26 -25zM706 478l26 24l25 -24l-25 -25zM275 -420l25 24l26 -24l-26 -25zM371 -420l26 24l25 -24l-25 -25z" />
    <glyph glyph-name="uniFC13" unicode="&#xfc13;" horiz-adv-x="758" arabic-form="isolated" 
d="M664 44q-44 -43 -126 -44q88 -32 88 -112t-79 -125.5t-219 -45.5q-148 0 -218 57t-70 178q0 41 7 79t14.5 61.5t10.5 29.5h15q-3 -6 -10.5 -29.5t-14.5 -61t-7 -78.5q0 -112 66.5 -166t206.5 -54q133 0 208 41t75 114q0 53 -38 77.5t-120 42.5v15q37 -7 83 -7
q82 0 119.5 41.5t37.5 131.5q0 60 -16 146h15q16 -77 16 -146q0 -102 -44 -145zM660 546l22 21l23 -21l-23 -22zM608 473l25 24l26 -24l-26 -24zM704 473l26 24l25 -24l-25 -24z" />
    <glyph glyph-name="uniFC14" unicode="&#xfc14;" horiz-adv-x="758" arabic-form="isolated" 
d="M664 44q-44 -43 -126 -44q88 -32 88 -112t-79 -125.5t-219 -45.5q-148 0 -218 57t-70 178q0 41 7 79t14.5 61.5t10.5 29.5h15q-3 -6 -10.5 -29.5t-14.5 -61t-7 -78.5q0 -112 66.5 -166t206.5 -54q133 0 208 41t75 114q0 53 -38 77.5t-120 42.5v15q37 -7 83 -7
q82 0 119.5 41.5t37.5 131.5q0 60 -16 146h15q16 -77 16 -146q0 -102 -44 -145zM660 546l22 21l23 -21l-23 -22zM608 473l25 24l26 -24l-26 -24zM704 473l26 24l25 -24l-25 -24zM275 -420l25 24l26 -24l-26 -25zM371 -420l26 24l25 -24l-25 -25z" />
    <glyph glyph-name="uniFC31" unicode="&#xfc31;" horiz-adv-x="788" arabic-form="isolated" 
d="M696.5 414q41.5 -57 41.5 -154v-44q0 -83 -18.5 -129t-64.5 -66t-133 -21q104 -32 104 -112t-79 -125.5t-219 -45.5q-148 0 -218 57t-70 178q0 41 7 79t14.5 61.5t10.5 29.5h15q-3 -6 -10.5 -29.5t-14.5 -61t-7 -78.5q0 -112 66.5 -166t206.5 -54q133 0 208 41t75 114
q0 52 -45 77t-133 40v16q23 -5 88 -5q79 0 122 16t61.5 57t18.5 118v9q-18 -24 -56 -37t-92 -13q-79 0 -113.5 30t-34.5 96q0 52 20.5 92.5t55.5 63.5t79 23q73 0 114.5 -57zM723 239v21q0 89 -37.5 142t-103.5 53q-40 0 -72 -21t-50 -58t-18 -84q0 -58 30 -84t103 -26
q114 0 148 57zM558 604l24 23l24 -23l-24 -24z" />
    <glyph glyph-name="uniFC32" unicode="&#xfc32;" horiz-adv-x="788" arabic-form="isolated" 
d="M696.5 414q41.5 -57 41.5 -154v-44q0 -83 -18.5 -129t-64.5 -66t-133 -21q104 -32 104 -112t-79 -125.5t-219 -45.5q-148 0 -218 57t-70 178q0 41 7 79t14.5 61.5t10.5 29.5h15q-3 -6 -10.5 -29.5t-14.5 -61t-7 -78.5q0 -112 66.5 -166t206.5 -54q133 0 208 41t75 114
q0 52 -45 77t-133 40v16q23 -5 88 -5q79 0 122 16t61.5 57t18.5 118v9q-18 -24 -56 -37t-92 -13q-79 0 -113.5 30t-34.5 96q0 52 20.5 92.5t55.5 63.5t79 23q73 0 114.5 -57zM723 239v21q0 89 -37.5 142t-103.5 53q-40 0 -72 -21t-50 -58t-18 -84q0 -58 30 -84t103 -26
q114 0 148 57zM274 -420l25 24l26 -24l-26 -25zM370 -420l26 24l25 -24l-25 -25zM558 604l24 23l24 -23l-24 -24z" />
    <glyph glyph-name="uniFC35" unicode="&#xfc35;" horiz-adv-x="788" arabic-form="isolated" 
d="M696.5 414q41.5 -57 41.5 -154v-44q0 -83 -18.5 -129t-64.5 -66t-133 -21q104 -32 104 -112t-79 -125.5t-219 -45.5q-148 0 -218 57t-70 178q0 41 7 79t14.5 61.5t10.5 29.5h15q-3 -6 -10.5 -29.5t-14.5 -61t-7 -78.5q0 -112 66.5 -166t206.5 -54q133 0 208 41t75 114
q0 52 -45 77t-133 40v16q23 -5 88 -5q79 0 122 16t61.5 57t18.5 118v9q-18 -24 -56 -37t-92 -13q-79 0 -113.5 30t-34.5 96q0 52 20.5 92.5t55.5 63.5t79 23q73 0 114.5 -57zM723 239v21q0 89 -37.5 142t-103.5 53q-40 0 -72 -21t-50 -58t-18 -84q0 -58 30 -84t103 -26
q114 0 148 57zM508 614l25 24l26 -24l-26 -25zM604 614l26 24l25 -24l-25 -25z" />
    <glyph glyph-name="uniFC36" unicode="&#xfc36;" horiz-adv-x="788" arabic-form="isolated" 
d="M696.5 414q41.5 -57 41.5 -154v-44q0 -83 -18.5 -129t-64.5 -66t-133 -21q104 -32 104 -112t-79 -125.5t-219 -45.5q-148 0 -218 57t-70 178q0 41 7 79t14.5 61.5t10.5 29.5h15q-3 -6 -10.5 -29.5t-14.5 -61t-7 -78.5q0 -112 66.5 -166t206.5 -54q133 0 208 41t75 114
q0 52 -45 77t-133 40v16q23 -5 88 -5q79 0 122 16t61.5 57t18.5 118v9q-18 -24 -56 -37t-92 -13q-79 0 -113.5 30t-34.5 96q0 52 20.5 92.5t55.5 63.5t79 23q73 0 114.5 -57zM723 239v21q0 89 -37.5 142t-103.5 53q-40 0 -72 -21t-50 -58t-18 -84q0 -58 30 -84t103 -26
q114 0 148 57zM508 614l25 24l26 -24l-26 -25zM604 614l26 24l25 -24l-25 -25zM274 -420l25 24l26 -24l-26 -25zM370 -420l26 24l25 -24l-25 -25z" />
    <glyph glyph-name="uniFC3D" unicode="&#xfc3d;" horiz-adv-x="817" arabic-form="isolated" 
d="M802 692l-374 -249q128 -60 196 -104t96 -87t28 -99q0 -69 -52.5 -110.5t-157.5 -42.5q88 -32 88 -112t-79 -125.5t-219 -45.5q-148 0 -218 57t-70 178q0 41 7 79t14.5 61.5t10.5 29.5h15q-3 -6 -10.5 -29.5t-14.5 -61t-7 -78.5q0 -112 66.5 -166t206.5 -54q133 0 208 41
t75 114q0 53 -38 77.5t-120 42.5v15q30 -7 77 -7q105 0 154 37t49 100q0 51 -27 91.5t-96 85t-199 103.5v15l391 262v-18z" />
    <glyph glyph-name="uniFC3E" unicode="&#xfc3e;" horiz-adv-x="817" arabic-form="isolated" 
d="M802 692l-374 -249q128 -60 196 -104t96 -87t28 -99q0 -69 -52.5 -110.5t-157.5 -42.5q88 -32 88 -112t-79 -125.5t-219 -45.5q-148 0 -218 57t-70 178q0 41 7 79t14.5 61.5t10.5 29.5h15q-3 -6 -10.5 -29.5t-14.5 -61t-7 -78.5q0 -112 66.5 -166t206.5 -54q133 0 208 41
t75 114q0 53 -38 77.5t-120 42.5v15q30 -7 77 -7q105 0 154 37t49 100q0 51 -27 91.5t-96 85t-199 103.5v15l391 262v-18zM254 -420l25 24l26 -24l-26 -25zM350 -420l26 24l25 -24l-25 -25z" />
    <glyph glyph-name="uniFC44" unicode="&#xfc44;" horiz-adv-x="790" arabic-form="isolated" 
d="M690 704v-499q0 -72 -8.5 -112.5t-41.5 -66t-102 -26.5q88 -32 88 -112t-79 -125.5t-219 -45.5q-148 0 -218 57t-70 178q0 41 7 79t14.5 61.5t10.5 29.5h15q-3 -6 -10.5 -29.5t-14.5 -61t-7 -78.5q0 -112 66.5 -166t206.5 -54q133 0 208 41t75 114q0 53 -38 77.5
t-120 42.5v15q30 -7 77 -7q69 0 100.5 23.5t38 60.5t6.5 108v496h15zM254 -420l25 24l26 -24l-26 -25zM350 -420l26 24l25 -24l-25 -25z" />
    <glyph glyph-name="uniFC4F" unicode="&#xfc4f;" horiz-adv-x="758" arabic-form="isolated" 
d="M664 44q-44 -43 -126 -44q88 -32 88 -112t-79 -125.5t-219 -45.5q-148 0 -218 57t-70 178q0 41 7 79t14.5 61.5t10.5 29.5h15q-3 -6 -10.5 -29.5t-14.5 -61t-7 -78.5q0 -112 66.5 -166t206.5 -54q133 0 208 41t75 114q0 53 -38 77.5t-120 42.5v15q37 -7 83 -7
q82 0 119.5 41.5t37.5 131.5q0 60 -16 146h15q16 -77 16 -146q0 -102 -44 -145zM660 468l24 23l24 -23l-24 -24z" />
    <glyph glyph-name="uniFC50" unicode="&#xfc50;" horiz-adv-x="758" arabic-form="isolated" 
d="M664 44q-44 -43 -126 -44q88 -32 88 -112t-79 -125.5t-219 -45.5q-148 0 -218 57t-70 178q0 41 7 79t14.5 61.5t10.5 29.5h15q-3 -6 -10.5 -29.5t-14.5 -61t-7 -78.5q0 -112 66.5 -166t206.5 -54q133 0 208 41t75 114q0 53 -38 77.5t-120 42.5v15q37 -7 83 -7
q82 0 119.5 41.5t37.5 131.5q0 60 -16 146h15q16 -77 16 -146q0 -102 -44 -145zM660 468l24 23l24 -23l-24 -24zM275 -420l25 24l26 -24l-26 -25zM371 -420l26 24l25 -24l-25 -25z" />
    <glyph glyph-name="uniFC59" unicode="&#xfc59;" horiz-adv-x="758" arabic-form="isolated" 
d="M664 44q-44 -43 -126 -44q88 -32 88 -112t-79 -125.5t-219 -45.5q-148 0 -218 57t-70 178q0 41 7 79t14.5 61.5t10.5 29.5h15q-3 -6 -10.5 -29.5t-14.5 -61t-7 -78.5q0 -112 66.5 -166t206.5 -54q133 0 208 41t75 114q0 53 -38 77.5t-120 42.5v15q37 -7 83 -7
q82 0 119.5 41.5t37.5 131.5q0 60 -16 146h15q16 -77 16 -146q0 -102 -44 -145zM559 -291l25 24l26 -24l-26 -25zM655 -291l26 24l25 -24l-25 -25z" />
    <glyph glyph-name="uniFC5A" unicode="&#xfc5a;" horiz-adv-x="758" arabic-form="isolated" 
d="M664 44q-44 -43 -126 -44q88 -32 88 -112t-79 -125.5t-219 -45.5q-148 0 -218 57t-70 178q0 41 7 79t14.5 61.5t10.5 29.5h15q-3 -6 -10.5 -29.5t-14.5 -61t-7 -78.5q0 -112 66.5 -166t206.5 -54q133 0 208 41t75 114q0 53 -38 77.5t-120 42.5v15q37 -7 83 -7
q82 0 119.5 41.5t37.5 131.5q0 60 -16 146h15q16 -77 16 -146q0 -102 -44 -145zM559 -291l25 24l26 -24l-26 -25zM655 -291l26 24l25 -24l-25 -25zM275 -420l25 24l26 -24l-26 -25zM371 -420l26 24l25 -24l-25 -25z" />
    <glyph glyph-name="uniFC64" unicode="&#xfc64;" horiz-adv-x="665" arabic-form="final" 
d="M682 13v-10l-17 -3q-93 0 -130.5 35.5t-37.5 118.5v36q-12 -36 -48 -53t-101 -17q-46 0 -72.5 12t-41.5 34q8 -62 8 -110q0 -86 -26 -153t-72.5 -104.5t-106.5 -37.5q-27 0 -46.5 4t-29 8.5t-11.5 5.5v16q12 -6 34.5 -12t52.5 -6q54 0 97.5 34.5t68 98t24.5 146.5
q0 45 -4 79t-13 95h15q11 -35 19.5 -52.5t32.5 -29.5t71 -12q56 0 87.5 12t46.5 43t15 89h15v-126q0 -52 14.5 -81.5t47.5 -43t91 -13.5zM536 396q33 4 39 5v-16l-22 -3q-64 -8 -141 -15v16l38 4q-27 17 -27 60q0 38 21 56.5t53 18.5q15 0 31.5 -7t16.5 -8v-16q0 1 -16 8
t-32 7q-59 0 -59 -59q0 -30 12.5 -42.5t35.5 -12.5q17 0 50 4z" />
    <glyph glyph-name="uniFC65" unicode="&#xfc65;" horiz-adv-x="665" arabic-form="final" 
d="M682 13v-10l-17 -3q-93 0 -130.5 35.5t-37.5 118.5v36q-12 -36 -48 -53t-101 -17q-46 0 -72.5 12t-41.5 34q8 -62 8 -110q0 -86 -26 -153t-72.5 -104.5t-106.5 -37.5q-27 0 -46.5 4t-29 8.5t-11.5 5.5v16q12 -6 34.5 -12t52.5 -6q54 0 97.5 34.5t68 98t24.5 146.5
q0 45 -4 79t-13 95h15q11 -35 19.5 -52.5t32.5 -29.5t71 -12q56 0 87.5 12t46.5 43t15 89h15v-126q0 -52 14.5 -81.5t47.5 -43t91 -13.5zM536 396q33 4 39 5v-16l-22 -3q-64 -8 -141 -15v16l38 4q-27 17 -27 60q0 38 21 56.5t53 18.5q15 0 31.5 -7t16.5 -8v-16q0 1 -16 8
t-32 7q-59 0 -59 -59q0 -30 12.5 -42.5t35.5 -12.5q17 0 50 4zM193 363l24 23l24 -23l-24 -24z" />
    <glyph glyph-name="uniFC67" unicode="&#xfc67;" horiz-adv-x="1002" arabic-form="final" 
d="M1019 13v-10l-17 -3q-93 0 -130.5 35.5t-37.5 118.5v36q-12 -36 -48 -53t-101 -17q-82 0 -112 43q11 -71 11 -124q0 -97 -27 -154t-88 -83t-164 -26q-99 0 -156.5 24.5t-83 77t-25.5 139.5q0 48 9.5 89t21 69.5t11.5 25.5h15q-3 -7 -13 -33t-19.5 -67t-9.5 -84
q0 -82 24 -131t78.5 -71.5t147.5 -22.5q97 0 154.5 23t83.5 74.5t26 138.5q0 91 -22 202h15q11 -35 19.5 -52.5t32.5 -29.5t71 -12q56 0 87.5 12t46.5 43t15 89h15v-126q0 -52 14.5 -81.5t47.5 -43t91 -13.5zM297 343l24 23l24 -23l-24 -24zM873 396q33 4 39 5v-16l-22 -3
q-64 -8 -141 -15v16l38 4q-27 17 -27 60q0 38 21 56.5t53 18.5q15 0 31.5 -7t16.5 -8v-16q0 1 -16 8t-32 7q-59 0 -59 -59q0 -30 12.5 -42.5t35.5 -12.5q17 0 50 4z" />
    <glyph glyph-name="uniFC68" unicode="&#xfc68;" horiz-adv-x="881" arabic-form="final" 
d="M615 299q36 -21 57 -52.5t49 -86.5l16 -32q23 -46 39 -68t40 -33t65 -11l17 -3v-10l-17 -3q-44 0 -71.5 12.5t-45.5 37t-40 69.5l-17 35q-25 53 -47.5 84t-55 48.5t-80.5 17.5q-46 0 -85.5 -21.5t-63 -56t-23.5 -73.5q0 -40 32.5 -64t111.5 -46q61 -18 94.5 -34.5
t50 -42.5t16.5 -70q0 -86 -83.5 -132.5t-234.5 -46.5q-154 0 -226.5 62.5t-72.5 194.5q0 39 8.5 76.5t17.5 61.5t12 30h15q-3 -7 -12 -33t-17.5 -63.5t-8.5 -71.5q0 -124 69 -182.5t214 -58.5q144 0 224 42.5t80 120.5q0 38 -15.5 61.5t-47 39t-88.5 31.5q-84 24 -119 51
t-35 73q0 44 25.5 83t68.5 62t93 23q55 0 91 -21zM557 436q33 4 39 5v-16l-22 -3q-64 -8 -141 -15v16l38 4q-27 17 -27 60q0 38 21 56.5t53 18.5q15 0 31.5 -7t16.5 -8v-16q0 1 -16 8t-32 7q-59 0 -59 -59q0 -30 12.5 -42.5t35.5 -12.5q17 0 50 4z" />
    <glyph glyph-name="uniFC69" unicode="&#xfc69;" horiz-adv-x="881" arabic-form="final" 
d="M615 299q36 -21 57 -52.5t49 -86.5l16 -32q23 -46 39 -68t40 -33t65 -11l17 -3v-10l-17 -3q-44 0 -71.5 12.5t-45.5 37t-40 69.5l-17 35q-25 53 -47.5 84t-55 48.5t-80.5 17.5q-46 0 -85.5 -21.5t-63 -56t-23.5 -73.5q0 -40 32.5 -64t111.5 -46q61 -18 94.5 -34.5
t50 -42.5t16.5 -70q0 -86 -83.5 -132.5t-234.5 -46.5q-154 0 -226.5 62.5t-72.5 194.5q0 39 8.5 76.5t17.5 61.5t12 30h15q-3 -7 -12 -33t-17.5 -63.5t-8.5 -71.5q0 -124 69 -182.5t214 -58.5q144 0 224 42.5t80 120.5q0 38 -15.5 61.5t-47 39t-88.5 31.5q-84 24 -119 51
t-35 73q0 44 25.5 83t68.5 62t93 23q55 0 91 -21zM557 436q33 4 39 5v-16l-22 -3q-64 -8 -141 -15v16l38 4q-27 17 -27 60q0 38 21 56.5t53 18.5q15 0 31.5 -7t16.5 -8v-16q0 1 -16 8t-32 7q-59 0 -59 -59q0 -30 12.5 -42.5t35.5 -12.5q17 0 50 4zM260 -420l25 24l26 -24
l-26 -25zM356 -420l26 24l25 -24l-25 -25z" />
    <glyph glyph-name="uniFC6A" unicode="&#xfc6a;" horiz-adv-x="665" arabic-form="final" 
d="M682 13v-10l-17 -3q-93 0 -130.5 35.5t-37.5 118.5v36q-12 -36 -48 -53t-101 -17q-46 0 -72.5 12t-41.5 34q8 -62 8 -110q0 -86 -26 -153t-72.5 -104.5t-106.5 -37.5q-27 0 -46.5 4t-29 8.5t-11.5 5.5v16q12 -6 34.5 -12t52.5 -6q54 0 97.5 34.5t68 98t24.5 146.5
q0 45 -4 79t-13 95h15q11 -35 19.5 -52.5t32.5 -29.5t71 -12q56 0 87.5 12t46.5 43t15 89h15v-126q0 -52 14.5 -81.5t47.5 -43t91 -13.5zM477 -128l24 23l24 -23l-24 -24z" />
    <glyph glyph-name="uniFC6B" unicode="&#xfc6b;" horiz-adv-x="665" arabic-form="final" 
d="M682 13v-10l-17 -3q-93 0 -130.5 35.5t-37.5 118.5v36q-12 -36 -48 -53t-101 -17q-46 0 -72.5 12t-41.5 34q8 -62 8 -110q0 -86 -26 -153t-72.5 -104.5t-106.5 -37.5q-27 0 -46.5 4t-29 8.5t-11.5 5.5v16q12 -6 34.5 -12t52.5 -6q54 0 97.5 34.5t68 98t24.5 146.5
q0 45 -4 79t-13 95h15q11 -35 19.5 -52.5t32.5 -29.5t71 -12q56 0 87.5 12t46.5 43t15 89h15v-126q0 -52 14.5 -81.5t47.5 -43t91 -13.5zM477 -128l24 23l24 -23l-24 -24zM193 363l24 23l24 -23l-24 -24z" />
    <glyph glyph-name="uniFC6D" unicode="&#xfc6d;" horiz-adv-x="1002" arabic-form="final" 
d="M1019 13v-10l-17 -3q-93 0 -130.5 35.5t-37.5 118.5v36q-12 -36 -48 -53t-101 -17q-82 0 -112 43q11 -71 11 -124q0 -97 -27 -154t-88 -83t-164 -26q-99 0 -156.5 24.5t-83 77t-25.5 139.5q0 48 9.5 89t21 69.5t11.5 25.5h15q-3 -7 -13 -33t-19.5 -67t-9.5 -84
q0 -82 24 -131t78.5 -71.5t147.5 -22.5q97 0 154.5 23t83.5 74.5t26 138.5q0 91 -22 202h15q11 -35 19.5 -52.5t32.5 -29.5t71 -12q56 0 87.5 12t46.5 43t15 89h15v-126q0 -52 14.5 -81.5t47.5 -43t91 -13.5zM814 -128l24 23l24 -23l-24 -24zM297 343l24 23l24 -23l-24 -24z
" />
    <glyph glyph-name="uniFC6E" unicode="&#xfc6e;" horiz-adv-x="881" arabic-form="final" 
d="M615 299q36 -21 57 -52.5t49 -86.5l16 -32q23 -46 39 -68t40 -33t65 -11l17 -3v-10l-17 -3q-44 0 -71.5 12.5t-45.5 37t-40 69.5l-17 35q-25 53 -47.5 84t-55 48.5t-80.5 17.5q-46 0 -85.5 -21.5t-63 -56t-23.5 -73.5q0 -40 32.5 -64t111.5 -46q61 -18 94.5 -34.5
t50 -42.5t16.5 -70q0 -86 -83.5 -132.5t-234.5 -46.5q-154 0 -226.5 62.5t-72.5 194.5q0 39 8.5 76.5t17.5 61.5t12 30h15q-3 -7 -12 -33t-17.5 -63.5t-8.5 -71.5q0 -124 69 -182.5t214 -58.5q144 0 224 42.5t80 120.5q0 38 -15.5 61.5t-47 39t-88.5 31.5q-84 24 -119 51
t-35 73q0 44 25.5 83t68.5 62t93 23q55 0 91 -21zM755 -171l24 23l24 -23l-24 -24z" />
    <glyph glyph-name="uniFC6F" unicode="&#xfc6f;" horiz-adv-x="881" arabic-form="final" 
d="M615 299q36 -21 57 -52.5t49 -86.5l16 -32q23 -46 39 -68t40 -33t65 -11l17 -3v-10l-17 -3q-44 0 -71.5 12.5t-45.5 37t-40 69.5l-17 35q-25 53 -47.5 84t-55 48.5t-80.5 17.5q-46 0 -85.5 -21.5t-63 -56t-23.5 -73.5q0 -40 32.5 -64t111.5 -46q61 -18 94.5 -34.5
t50 -42.5t16.5 -70q0 -86 -83.5 -132.5t-234.5 -46.5q-154 0 -226.5 62.5t-72.5 194.5q0 39 8.5 76.5t17.5 61.5t12 30h15q-3 -7 -12 -33t-17.5 -63.5t-8.5 -71.5q0 -124 69 -182.5t214 -58.5q144 0 224 42.5t80 120.5q0 38 -15.5 61.5t-47 39t-88.5 31.5q-84 24 -119 51
t-35 73q0 44 25.5 83t68.5 62t93 23q55 0 91 -21zM755 -171l24 23l24 -23l-24 -24zM260 -420l25 24l26 -24l-26 -25zM356 -420l26 24l25 -24l-25 -25z" />
    <glyph glyph-name="uniFC70" unicode="&#xfc70;" horiz-adv-x="665" arabic-form="final" 
d="M682 13v-10l-17 -3q-93 0 -130.5 35.5t-37.5 118.5v36q-12 -36 -48 -53t-101 -17q-46 0 -72.5 12t-41.5 34q8 -62 8 -110q0 -86 -26 -153t-72.5 -104.5t-106.5 -37.5q-27 0 -46.5 4t-29 8.5t-11.5 5.5v16q12 -6 34.5 -12t52.5 -6q54 0 97.5 34.5t68 98t24.5 146.5
q0 45 -4 79t-13 95h15q11 -35 19.5 -52.5t32.5 -29.5t71 -12q56 0 87.5 12t46.5 43t15 89h15v-126q0 -52 14.5 -81.5t47.5 -43t91 -13.5zM430 423l25 24l26 -24l-26 -25zM526 423l26 24l25 -24l-25 -25z" />
    <glyph glyph-name="uniFC71" unicode="&#xfc71;" horiz-adv-x="665" arabic-form="final" 
d="M682 13v-10l-17 -3q-93 0 -130.5 35.5t-37.5 118.5v36q-12 -36 -48 -53t-101 -17q-46 0 -72.5 12t-41.5 34q8 -62 8 -110q0 -86 -26 -153t-72.5 -104.5t-106.5 -37.5q-27 0 -46.5 4t-29 8.5t-11.5 5.5v16q12 -6 34.5 -12t52.5 -6q54 0 97.5 34.5t68 98t24.5 146.5
q0 45 -4 79t-13 95h15q11 -35 19.5 -52.5t32.5 -29.5t71 -12q56 0 87.5 12t46.5 43t15 89h15v-126q0 -52 14.5 -81.5t47.5 -43t91 -13.5zM193 363l24 23l24 -23l-24 -24zM430 423l25 24l26 -24l-26 -25zM526 423l26 24l25 -24l-25 -25z" />
    <glyph glyph-name="uniFC73" unicode="&#xfc73;" horiz-adv-x="1002" arabic-form="final" 
d="M1019 13v-10l-17 -3q-93 0 -130.5 35.5t-37.5 118.5v36q-12 -36 -48 -53t-101 -17q-82 0 -112 43q11 -71 11 -124q0 -97 -27 -154t-88 -83t-164 -26q-99 0 -156.5 24.5t-83 77t-25.5 139.5q0 48 9.5 89t21 69.5t11.5 25.5h15q-3 -7 -13 -33t-19.5 -67t-9.5 -84
q0 -82 24 -131t78.5 -71.5t147.5 -22.5q97 0 154.5 23t83.5 74.5t26 138.5q0 91 -22 202h15q11 -35 19.5 -52.5t32.5 -29.5t71 -12q56 0 87.5 12t46.5 43t15 89h15v-126q0 -52 14.5 -81.5t47.5 -43t91 -13.5zM297 343l24 23l24 -23l-24 -24zM767 423l25 24l26 -24l-26 -25z
M863 423l26 24l25 -24l-25 -25z" />
    <glyph glyph-name="uniFC74" unicode="&#xfc74;" horiz-adv-x="881" arabic-form="final" 
d="M615 299q36 -21 57 -52.5t49 -86.5l16 -32q23 -46 39 -68t40 -33t65 -11l17 -3v-10l-17 -3q-44 0 -71.5 12.5t-45.5 37t-40 69.5l-17 35q-25 53 -47.5 84t-55 48.5t-80.5 17.5q-46 0 -85.5 -21.5t-63 -56t-23.5 -73.5q0 -40 32.5 -64t111.5 -46q61 -18 94.5 -34.5
t50 -42.5t16.5 -70q0 -86 -83.5 -132.5t-234.5 -46.5q-154 0 -226.5 62.5t-72.5 194.5q0 39 8.5 76.5t17.5 61.5t12 30h15q-3 -7 -12 -33t-17.5 -63.5t-8.5 -71.5q0 -124 69 -182.5t214 -58.5q144 0 224 42.5t80 120.5q0 38 -15.5 61.5t-47 39t-88.5 31.5q-84 24 -119 51
t-35 73q0 44 25.5 83t68.5 62t93 23q55 0 91 -21zM451 463l25 24l26 -24l-26 -25zM547 463l26 24l25 -24l-25 -25z" />
    <glyph glyph-name="uniFC75" unicode="&#xfc75;" horiz-adv-x="881" arabic-form="final" 
d="M615 299q36 -21 57 -52.5t49 -86.5l16 -32q23 -46 39 -68t40 -33t65 -11l17 -3v-10l-17 -3q-44 0 -71.5 12.5t-45.5 37t-40 69.5l-17 35q-25 53 -47.5 84t-55 48.5t-80.5 17.5q-46 0 -85.5 -21.5t-63 -56t-23.5 -73.5q0 -40 32.5 -64t111.5 -46q61 -18 94.5 -34.5
t50 -42.5t16.5 -70q0 -86 -83.5 -132.5t-234.5 -46.5q-154 0 -226.5 62.5t-72.5 194.5q0 39 8.5 76.5t17.5 61.5t12 30h15q-3 -7 -12 -33t-17.5 -63.5t-8.5 -71.5q0 -124 69 -182.5t214 -58.5q144 0 224 42.5t80 120.5q0 38 -15.5 61.5t-47 39t-88.5 31.5q-84 24 -119 51
t-35 73q0 44 25.5 83t68.5 62t93 23q55 0 91 -21zM451 463l25 24l26 -24l-26 -25zM547 463l26 24l25 -24l-25 -25zM260 -420l25 24l26 -24l-26 -25zM356 -420l26 24l25 -24l-25 -25z" />
    <glyph glyph-name="uniFC76" unicode="&#xfc76;" horiz-adv-x="665" arabic-form="final" 
d="M682 13v-10l-17 -3q-93 0 -130.5 35.5t-37.5 118.5v36q-12 -36 -48 -53t-101 -17q-46 0 -72.5 12t-41.5 34q8 -62 8 -110q0 -86 -26 -153t-72.5 -104.5t-106.5 -37.5q-27 0 -46.5 4t-29 8.5t-11.5 5.5v16q12 -6 34.5 -12t52.5 -6q54 0 97.5 34.5t68 98t24.5 146.5
q0 45 -4 79t-13 95h15q11 -35 19.5 -52.5t32.5 -29.5t71 -12q56 0 87.5 12t46.5 43t15 89h15v-126q0 -52 14.5 -81.5t47.5 -43t91 -13.5zM480 491l22 21l23 -21l-23 -22zM428 418l25 24l26 -24l-26 -24zM524 418l26 24l25 -24l-25 -24z" />
    <glyph glyph-name="uniFC77" unicode="&#xfc77;" horiz-adv-x="665" arabic-form="final" 
d="M682 13v-10l-17 -3q-93 0 -130.5 35.5t-37.5 118.5v36q-12 -36 -48 -53t-101 -17q-46 0 -72.5 12t-41.5 34q8 -62 8 -110q0 -86 -26 -153t-72.5 -104.5t-106.5 -37.5q-27 0 -46.5 4t-29 8.5t-11.5 5.5v16q12 -6 34.5 -12t52.5 -6q54 0 97.5 34.5t68 98t24.5 146.5
q0 45 -4 79t-13 95h15q11 -35 19.5 -52.5t32.5 -29.5t71 -12q56 0 87.5 12t46.5 43t15 89h15v-126q0 -52 14.5 -81.5t47.5 -43t91 -13.5zM193 363l24 23l24 -23l-24 -24zM480 491l22 21l23 -21l-23 -22zM428 418l25 24l26 -24l-26 -24zM524 418l26 24l25 -24l-25 -24z" />
    <glyph glyph-name="uniFC79" unicode="&#xfc79;" horiz-adv-x="1002" arabic-form="final" 
d="M1019 13v-10l-17 -3q-93 0 -130.5 35.5t-37.5 118.5v36q-12 -36 -48 -53t-101 -17q-82 0 -112 43q11 -71 11 -124q0 -97 -27 -154t-88 -83t-164 -26q-99 0 -156.5 24.5t-83 77t-25.5 139.5q0 48 9.5 89t21 69.5t11.5 25.5h15q-3 -7 -13 -33t-19.5 -67t-9.5 -84
q0 -82 24 -131t78.5 -71.5t147.5 -22.5q97 0 154.5 23t83.5 74.5t26 138.5q0 91 -22 202h15q11 -35 19.5 -52.5t32.5 -29.5t71 -12q56 0 87.5 12t46.5 43t15 89h15v-126q0 -52 14.5 -81.5t47.5 -43t91 -13.5zM297 343l24 23l24 -23l-24 -24zM817 491l22 21l23 -21l-23 -22z
M765 418l25 24l26 -24l-26 -24zM861 418l26 24l25 -24l-25 -24z" />
    <glyph glyph-name="uniFC7A" unicode="&#xfc7a;" horiz-adv-x="881" arabic-form="final" 
d="M615 299q36 -21 57 -52.5t49 -86.5l16 -32q23 -46 39 -68t40 -33t65 -11l17 -3v-10l-17 -3q-44 0 -71.5 12.5t-45.5 37t-40 69.5l-17 35q-25 53 -47.5 84t-55 48.5t-80.5 17.5q-46 0 -85.5 -21.5t-63 -56t-23.5 -73.5q0 -40 32.5 -64t111.5 -46q61 -18 94.5 -34.5
t50 -42.5t16.5 -70q0 -86 -83.5 -132.5t-234.5 -46.5q-154 0 -226.5 62.5t-72.5 194.5q0 39 8.5 76.5t17.5 61.5t12 30h15q-3 -7 -12 -33t-17.5 -63.5t-8.5 -71.5q0 -124 69 -182.5t214 -58.5q144 0 224 42.5t80 120.5q0 38 -15.5 61.5t-47 39t-88.5 31.5q-84 24 -119 51
t-35 73q0 44 25.5 83t68.5 62t93 23q55 0 91 -21zM501 531l22 21l23 -21l-23 -22zM449 458l25 24l26 -24l-26 -24zM545 458l26 24l25 -24l-25 -24z" />
    <glyph glyph-name="uniFC7B" unicode="&#xfc7b;" horiz-adv-x="881" arabic-form="final" 
d="M615 299q36 -21 57 -52.5t49 -86.5l16 -32q23 -46 39 -68t40 -33t65 -11l17 -3v-10l-17 -3q-44 0 -71.5 12.5t-45.5 37t-40 69.5l-17 35q-25 53 -47.5 84t-55 48.5t-80.5 17.5q-46 0 -85.5 -21.5t-63 -56t-23.5 -73.5q0 -40 32.5 -64t111.5 -46q61 -18 94.5 -34.5
t50 -42.5t16.5 -70q0 -86 -83.5 -132.5t-234.5 -46.5q-154 0 -226.5 62.5t-72.5 194.5q0 39 8.5 76.5t17.5 61.5t12 30h15q-3 -7 -12 -33t-17.5 -63.5t-8.5 -71.5q0 -124 69 -182.5t214 -58.5q144 0 224 42.5t80 120.5q0 38 -15.5 61.5t-47 39t-88.5 31.5q-84 24 -119 51
t-35 73q0 44 25.5 83t68.5 62t93 23q55 0 91 -21zM501 531l22 21l23 -21l-23 -22zM449 458l25 24l26 -24l-26 -24zM545 458l26 24l25 -24l-25 -24zM260 -420l25 24l26 -24l-26 -25zM356 -420l26 24l25 -24l-25 -25z" />
    <glyph glyph-name="uniFC83" unicode="&#xfc83;" horiz-adv-x="1003" arabic-form="final" 
d="M1020 13v-10l-17 -3q-50 0 -81.5 9t-57.5 32t-59 68q-19 -53 -67 -81t-138 -28q-46 0 -65 1q44 -15 67.5 -42t23.5 -71q0 -80 -79 -125.5t-219 -45.5q-148 0 -218 57t-70 178q0 41 7 79t14.5 61.5t10.5 29.5h15q-3 -6 -10.5 -29.5t-14.5 -61t-7 -78.5q0 -112 66.5 -166
t206.5 -54q133 0 208 41t75 114q0 53 -38 77.5t-120 42.5v15q56 -7 147 -7q88 0 133.5 27.5t62.5 78.5q-10 14 -24 34t-31 45q-150 217 -174 241v17l381 250v-18l-365 -242q39 -53 227 -319q35 -50 61.5 -73.5t55.5 -32t76 -8.5z" />
    <glyph glyph-name="uniFC84" unicode="&#xfc84;" horiz-adv-x="1003" arabic-form="final" 
d="M1020 13v-10l-17 -3q-50 0 -81.5 9t-57.5 32t-59 68q-19 -53 -67 -81t-138 -28q-46 0 -65 1q44 -15 67.5 -42t23.5 -71q0 -80 -79 -125.5t-219 -45.5q-148 0 -218 57t-70 178q0 41 7 79t14.5 61.5t10.5 29.5h15q-3 -6 -10.5 -29.5t-14.5 -61t-7 -78.5q0 -112 66.5 -166
t206.5 -54q133 0 208 41t75 114q0 53 -38 77.5t-120 42.5v15q56 -7 147 -7q88 0 133.5 27.5t62.5 78.5q-10 14 -24 34t-31 45q-150 217 -174 241v17l381 250v-18l-365 -242q39 -53 227 -319q35 -50 61.5 -73.5t55.5 -32t76 -8.5zM254 -420l25 24l26 -24l-26 -25zM350 -420
l26 24l25 -24l-25 -25z" />
    <glyph glyph-name="uniFC87" unicode="&#xfc87;" horiz-adv-x="842" arabic-form="final" 
d="M859 13v-10l-17 -3q-75 0 -112 20t-49 73q-10 -45 -43 -68.5t-100 -24.5q88 -32 88 -112t-79 -125.5t-219 -45.5q-148 0 -218 57t-70 178q0 41 7 79t14.5 61.5t10.5 29.5h15q-3 -6 -10.5 -29.5t-14.5 -61t-7 -78.5q0 -112 66.5 -166t206.5 -54q133 0 208 41t75 114
q0 53 -38 77.5t-120 42.5v15q30 -7 77 -7q67 0 98 22t39 58t8 99v12v1v496h15v-545q0 -59 14.5 -89.5t46.5 -42t91 -11.5zM254 -420l25 24l26 -24l-26 -25zM350 -420l26 24l25 -24l-25 -25z" />
    <glyph glyph-name="uniFC8A" unicode="&#xfc8a;" horiz-adv-x="665" arabic-form="final" 
d="M682 13v-10l-17 -3q-93 0 -130.5 35.5t-37.5 118.5v36q-12 -36 -48 -53t-101 -17q-46 0 -72.5 12t-41.5 34q8 -62 8 -110q0 -86 -26 -153t-72.5 -104.5t-106.5 -37.5q-27 0 -46.5 4t-29 8.5t-11.5 5.5v16q12 -6 34.5 -12t52.5 -6q54 0 97.5 34.5t68 98t24.5 146.5
q0 45 -4 79t-13 95h15q11 -35 19.5 -52.5t32.5 -29.5t71 -12q56 0 87.5 12t46.5 43t15 89h15v-126q0 -52 14.5 -81.5t47.5 -43t91 -13.5zM480 413l24 23l24 -23l-24 -24z" />
    <glyph glyph-name="uniFC8B" unicode="&#xfc8b;" horiz-adv-x="665" arabic-form="final" 
d="M682 13v-10l-17 -3q-93 0 -130.5 35.5t-37.5 118.5v36q-12 -36 -48 -53t-101 -17q-46 0 -72.5 12t-41.5 34q8 -62 8 -110q0 -86 -26 -153t-72.5 -104.5t-106.5 -37.5q-27 0 -46.5 4t-29 8.5t-11.5 5.5v16q12 -6 34.5 -12t52.5 -6q54 0 97.5 34.5t68 98t24.5 146.5
q0 45 -4 79t-13 95h15q11 -35 19.5 -52.5t32.5 -29.5t71 -12q56 0 87.5 12t46.5 43t15 89h15v-126q0 -52 14.5 -81.5t47.5 -43t91 -13.5zM480 413l24 23l24 -23l-24 -24zM193 363l24 23l24 -23l-24 -24z" />
    <glyph glyph-name="uniFC8D" unicode="&#xfc8d;" horiz-adv-x="1002" arabic-form="final" 
d="M1019 13v-10l-17 -3q-93 0 -130.5 35.5t-37.5 118.5v36q-12 -36 -48 -53t-101 -17q-82 0 -112 43q11 -71 11 -124q0 -97 -27 -154t-88 -83t-164 -26q-99 0 -156.5 24.5t-83 77t-25.5 139.5q0 48 9.5 89t21 69.5t11.5 25.5h15q-3 -7 -13 -33t-19.5 -67t-9.5 -84
q0 -82 24 -131t78.5 -71.5t147.5 -22.5q97 0 154.5 23t83.5 74.5t26 138.5q0 91 -22 202h15q11 -35 19.5 -52.5t32.5 -29.5t71 -12q56 0 87.5 12t46.5 43t15 89h15v-126q0 -52 14.5 -81.5t47.5 -43t91 -13.5zM297 343l24 23l24 -23l-24 -24zM817 413l24 23l24 -23l-24 -24z
" />
    <glyph glyph-name="uniFC8E" unicode="&#xfc8e;" horiz-adv-x="881" arabic-form="final" 
d="M615 299q36 -21 57 -52.5t49 -86.5l16 -32q23 -46 39 -68t40 -33t65 -11l17 -3v-10l-17 -3q-44 0 -71.5 12.5t-45.5 37t-40 69.5l-17 35q-25 53 -47.5 84t-55 48.5t-80.5 17.5q-46 0 -85.5 -21.5t-63 -56t-23.5 -73.5q0 -40 32.5 -64t111.5 -46q61 -18 94.5 -34.5
t50 -42.5t16.5 -70q0 -86 -83.5 -132.5t-234.5 -46.5q-154 0 -226.5 62.5t-72.5 194.5q0 39 8.5 76.5t17.5 61.5t12 30h15q-3 -7 -12 -33t-17.5 -63.5t-8.5 -71.5q0 -124 69 -182.5t214 -58.5q144 0 224 42.5t80 120.5q0 38 -15.5 61.5t-47 39t-88.5 31.5q-84 24 -119 51
t-35 73q0 44 25.5 83t68.5 62t93 23q55 0 91 -21zM501 453l24 23l24 -23l-24 -24z" />
    <glyph glyph-name="uniFC8F" unicode="&#xfc8f;" horiz-adv-x="881" arabic-form="final" 
d="M615 299q36 -21 57 -52.5t49 -86.5l16 -32q23 -46 39 -68t40 -33t65 -11l17 -3v-10l-17 -3q-44 0 -71.5 12.5t-45.5 37t-40 69.5l-17 35q-25 53 -47.5 84t-55 48.5t-80.5 17.5q-46 0 -85.5 -21.5t-63 -56t-23.5 -73.5q0 -40 32.5 -64t111.5 -46q61 -18 94.5 -34.5
t50 -42.5t16.5 -70q0 -86 -83.5 -132.5t-234.5 -46.5q-154 0 -226.5 62.5t-72.5 194.5q0 39 8.5 76.5t17.5 61.5t12 30h15q-3 -7 -12 -33t-17.5 -63.5t-8.5 -71.5q0 -124 69 -182.5t214 -58.5q144 0 224 42.5t80 120.5q0 38 -15.5 61.5t-47 39t-88.5 31.5q-84 24 -119 51
t-35 73q0 44 25.5 83t68.5 62t93 23q55 0 91 -21zM501 453l24 23l24 -23l-24 -24zM260 -420l25 24l26 -24l-26 -25zM356 -420l26 24l25 -24l-25 -25z" />
    <glyph glyph-name="uniFC91" unicode="&#xfc91;" horiz-adv-x="665" arabic-form="final" 
d="M682 13v-10l-17 -3q-93 0 -130.5 35.5t-37.5 118.5v36q-12 -36 -48 -53t-101 -17q-46 0 -72.5 12t-41.5 34q8 -62 8 -110q0 -86 -26 -153t-72.5 -104.5t-106.5 -37.5q-27 0 -46.5 4t-29 8.5t-11.5 5.5v16q12 -6 34.5 -12t52.5 -6q54 0 97.5 34.5t68 98t24.5 146.5
q0 45 -4 79t-13 95h15q11 -35 19.5 -52.5t32.5 -29.5t71 -12q56 0 87.5 12t46.5 43t15 89h15v-126q0 -52 14.5 -81.5t47.5 -43t91 -13.5zM427 -117l25 24l26 -24l-26 -25zM523 -117l26 24l25 -24l-25 -25z" />
    <glyph glyph-name="uniFC92" unicode="&#xfc92;" horiz-adv-x="665" arabic-form="final" 
d="M682 13v-10l-17 -3q-93 0 -130.5 35.5t-37.5 118.5v36q-12 -36 -48 -53t-101 -17q-46 0 -72.5 12t-41.5 34q8 -62 8 -110q0 -86 -26 -153t-72.5 -104.5t-106.5 -37.5q-27 0 -46.5 4t-29 8.5t-11.5 5.5v16q12 -6 34.5 -12t52.5 -6q54 0 97.5 34.5t68 98t24.5 146.5
q0 45 -4 79t-13 95h15q11 -35 19.5 -52.5t32.5 -29.5t71 -12q56 0 87.5 12t46.5 43t15 89h15v-126q0 -52 14.5 -81.5t47.5 -43t91 -13.5zM427 -117l25 24l26 -24l-26 -25zM523 -117l26 24l25 -24l-25 -25zM193 363l24 23l24 -23l-24 -24z" />
    <glyph glyph-name="uniFC94" unicode="&#xfc94;" horiz-adv-x="1002" arabic-form="final" 
d="M1019 13v-10l-17 -3q-93 0 -130.5 35.5t-37.5 118.5v36q-12 -36 -48 -53t-101 -17q-82 0 -112 43q11 -71 11 -124q0 -97 -27 -154t-88 -83t-164 -26q-99 0 -156.5 24.5t-83 77t-25.5 139.5q0 48 9.5 89t21 69.5t11.5 25.5h15q-3 -7 -13 -33t-19.5 -67t-9.5 -84
q0 -82 24 -131t78.5 -71.5t147.5 -22.5q97 0 154.5 23t83.5 74.5t26 138.5q0 91 -22 202h15q11 -35 19.5 -52.5t32.5 -29.5t71 -12q56 0 87.5 12t46.5 43t15 89h15v-126q0 -52 14.5 -81.5t47.5 -43t91 -13.5zM297 343l24 23l24 -23l-24 -24zM764 -117l25 24l26 -24l-26 -25z
M860 -117l26 24l25 -24l-25 -25z" />
    <glyph glyph-name="uniFC95" unicode="&#xfc95;" horiz-adv-x="881" arabic-form="final" 
d="M615 299q36 -21 57 -52.5t49 -86.5l16 -32q23 -46 39 -68t40 -33t65 -11l17 -3v-10l-17 -3q-44 0 -71.5 12.5t-45.5 37t-40 69.5l-17 35q-25 53 -47.5 84t-55 48.5t-80.5 17.5q-46 0 -85.5 -21.5t-63 -56t-23.5 -73.5q0 -40 32.5 -64t111.5 -46q61 -18 94.5 -34.5
t50 -42.5t16.5 -70q0 -86 -83.5 -132.5t-234.5 -46.5q-154 0 -226.5 62.5t-72.5 194.5q0 39 8.5 76.5t17.5 61.5t12 30h15q-3 -7 -12 -33t-17.5 -63.5t-8.5 -71.5q0 -124 69 -182.5t214 -58.5q144 0 224 42.5t80 120.5q0 38 -15.5 61.5t-47 39t-88.5 31.5q-84 24 -119 51
t-35 73q0 44 25.5 83t68.5 62t93 23q55 0 91 -21zM705 -160l25 24l26 -24l-26 -25zM801 -160l26 24l25 -24l-25 -25z" />
    <glyph glyph-name="uniFC96" unicode="&#xfc96;" horiz-adv-x="881" arabic-form="final" 
d="M615 299q36 -21 57 -52.5t49 -86.5l16 -32q23 -46 39 -68t40 -33t65 -11l17 -3v-10l-17 -3q-44 0 -71.5 12.5t-45.5 37t-40 69.5l-17 35q-25 53 -47.5 84t-55 48.5t-80.5 17.5q-46 0 -85.5 -21.5t-63 -56t-23.5 -73.5q0 -40 32.5 -64t111.5 -46q61 -18 94.5 -34.5
t50 -42.5t16.5 -70q0 -86 -83.5 -132.5t-234.5 -46.5q-154 0 -226.5 62.5t-72.5 194.5q0 39 8.5 76.5t17.5 61.5t12 30h15q-3 -7 -12 -33t-17.5 -63.5t-8.5 -71.5q0 -124 69 -182.5t214 -58.5q144 0 224 42.5t80 120.5q0 38 -15.5 61.5t-47 39t-88.5 31.5q-84 24 -119 51
t-35 73q0 44 25.5 83t68.5 62t93 23q55 0 91 -21zM705 -160l25 24l26 -24l-26 -25zM801 -160l26 24l25 -24l-25 -25zM260 -420l25 24l26 -24l-26 -25zM356 -420l26 24l25 -24l-25 -25z" />
    <glyph glyph-name="uniFCFB" unicode="&#xfcfb;" horiz-adv-x="1309" arabic-form="isolated" 
d="M1252.5 211.5q6.5 -36.5 6.5 -67.5q0 -73 -31.5 -108.5t-99.5 -35.5q-56 0 -85 17.5t-37 52.5q-9 -35 -39 -52.5t-86 -17.5q-47 0 -74 13t-43.5 36t-39.5 70l-17 35q-27 53 -48.5 83.5t-54 48.5t-80.5 18q-46 0 -85.5 -21.5t-63 -56t-23.5 -73.5q0 -40 32.5 -64
t111.5 -46q61 -18 94.5 -34.5t50 -42.5t16.5 -70q0 -86 -83.5 -132.5t-234.5 -46.5q-154 0 -226.5 62.5t-72.5 194.5q0 39 8.5 76.5t17.5 61.5t12 30h15q-3 -7 -12 -33t-17.5 -63.5t-8.5 -71.5q0 -124 69 -182.5t214 -58.5q144 0 224 42.5t80 120.5q0 38 -15.5 61.5t-47 39
t-88.5 31.5q-85 25 -119.5 51.5t-34.5 72.5q0 44 25.5 83t68.5 62t93 23q55 0 90.5 -21t56.5 -52t50 -87l16 -32q24 -48 38.5 -69t38.5 -32t67 -11q64 0 91 25t27 85v124h15v-124q0 -61 24.5 -85.5t89.5 -24.5q62 0 89 31t27 97q0 32 -4.5 57.5t-10 46.5t-7.5 30h15
q9 -30 15.5 -66.5z" />
    <glyph glyph-name="uniFCFC" unicode="&#xfcfc;" horiz-adv-x="1309" arabic-form="isolated" 
d="M1252.5 211.5q6.5 -36.5 6.5 -67.5q0 -73 -31.5 -108.5t-99.5 -35.5q-56 0 -85 17.5t-37 52.5q-9 -35 -39 -52.5t-86 -17.5q-47 0 -74 13t-43.5 36t-39.5 70l-17 35q-27 53 -48.5 83.5t-54 48.5t-80.5 18q-46 0 -85.5 -21.5t-63 -56t-23.5 -73.5q0 -40 32.5 -64
t111.5 -46q61 -18 94.5 -34.5t50 -42.5t16.5 -70q0 -86 -83.5 -132.5t-234.5 -46.5q-154 0 -226.5 62.5t-72.5 194.5q0 39 8.5 76.5t17.5 61.5t12 30h15q-3 -7 -12 -33t-17.5 -63.5t-8.5 -71.5q0 -124 69 -182.5t214 -58.5q144 0 224 42.5t80 120.5q0 38 -15.5 61.5t-47 39
t-88.5 31.5q-85 25 -119.5 51.5t-34.5 72.5q0 44 25.5 83t68.5 62t93 23q55 0 90.5 -21t56.5 -52t50 -87l16 -32q24 -48 38.5 -69t38.5 -32t67 -11q64 0 91 25t27 85v124h15v-124q0 -61 24.5 -85.5t89.5 -24.5q62 0 89 31t27 97q0 32 -4.5 57.5t-10 46.5t-7.5 30h15
q9 -30 15.5 -66.5zM269 -420l25 24l26 -24l-26 -25zM365 -420l26 24l25 -24l-25 -25z" />
    <glyph glyph-name="uniFCFD" unicode="&#xfcfd;" horiz-adv-x="1309" arabic-form="isolated" 
d="M1252.5 211.5q6.5 -36.5 6.5 -67.5q0 -73 -31.5 -108.5t-99.5 -35.5q-56 0 -85 17.5t-37 52.5q-9 -35 -39 -52.5t-86 -17.5q-47 0 -74 13t-43.5 36t-39.5 70l-17 35q-27 53 -48.5 83.5t-54 48.5t-80.5 18q-46 0 -85.5 -21.5t-63 -56t-23.5 -73.5q0 -40 32.5 -64
t111.5 -46q61 -18 94.5 -34.5t50 -42.5t16.5 -70q0 -86 -83.5 -132.5t-234.5 -46.5q-154 0 -226.5 62.5t-72.5 194.5q0 39 8.5 76.5t17.5 61.5t12 30h15q-3 -7 -12 -33t-17.5 -63.5t-8.5 -71.5q0 -124 69 -182.5t214 -58.5q144 0 224 42.5t80 120.5q0 38 -15.5 61.5t-47 39
t-88.5 31.5q-85 25 -119.5 51.5t-34.5 72.5q0 44 25.5 83t68.5 62t93 23q55 0 90.5 -21t56.5 -52t50 -87l16 -32q24 -48 38.5 -69t38.5 -32t67 -11q64 0 91 25t27 85v124h15v-124q0 -61 24.5 -85.5t89.5 -24.5q62 0 89 31t27 97q0 32 -4.5 57.5t-10 46.5t-7.5 30h15
q9 -30 15.5 -66.5zM982 461l22 21l23 -21l-23 -22zM930 388l25 24l26 -24l-26 -24zM1026 388l26 24l25 -24l-25 -24z" />
    <glyph glyph-name="uniFCFE" unicode="&#xfcfe;" horiz-adv-x="1309" arabic-form="isolated" 
d="M1252.5 211.5q6.5 -36.5 6.5 -67.5q0 -73 -31.5 -108.5t-99.5 -35.5q-56 0 -85 17.5t-37 52.5q-9 -35 -39 -52.5t-86 -17.5q-47 0 -74 13t-43.5 36t-39.5 70l-17 35q-27 53 -48.5 83.5t-54 48.5t-80.5 18q-46 0 -85.5 -21.5t-63 -56t-23.5 -73.5q0 -40 32.5 -64
t111.5 -46q61 -18 94.5 -34.5t50 -42.5t16.5 -70q0 -86 -83.5 -132.5t-234.5 -46.5q-154 0 -226.5 62.5t-72.5 194.5q0 39 8.5 76.5t17.5 61.5t12 30h15q-3 -7 -12 -33t-17.5 -63.5t-8.5 -71.5q0 -124 69 -182.5t214 -58.5q144 0 224 42.5t80 120.5q0 38 -15.5 61.5t-47 39
t-88.5 31.5q-85 25 -119.5 51.5t-34.5 72.5q0 44 25.5 83t68.5 62t93 23q55 0 90.5 -21t56.5 -52t50 -87l16 -32q24 -48 38.5 -69t38.5 -32t67 -11q64 0 91 25t27 85v124h15v-124q0 -61 24.5 -85.5t89.5 -24.5q62 0 89 31t27 97q0 32 -4.5 57.5t-10 46.5t-7.5 30h15
q9 -30 15.5 -66.5zM982 461l22 21l23 -21l-23 -22zM930 388l25 24l26 -24l-26 -24zM1026 388l26 24l25 -24l-25 -24zM269 -420l25 24l26 -24l-26 -25zM365 -420l26 24l25 -24l-25 -25z" />
    <glyph glyph-name="uniFD05" unicode="&#xfd05;" horiz-adv-x="1422" arabic-form="isolated" 
d="M1280.5 359q42.5 -26 67 -74.5t24.5 -114.5q0 -64 -21 -101t-68.5 -53t-130.5 -16h-291q-41 0 -63 11.5t-34.5 31.5t-39.5 76l-17 35q-27 53 -48.5 83.5t-54 48.5t-80.5 18q-46 0 -85.5 -21.5t-63 -56t-23.5 -73.5q0 -40 32.5 -64t111.5 -46q61 -18 94.5 -34.5t50 -42.5
t16.5 -70q0 -86 -83.5 -132.5t-234.5 -46.5q-154 0 -226.5 62.5t-72.5 194.5q0 39 8.5 76.5t17.5 61.5t12 30h15q-3 -7 -12 -33t-17.5 -63.5t-8.5 -71.5q0 -124 69 -182.5t214 -58.5q144 0 224 42.5t80 120.5q0 38 -15.5 61.5t-47 39t-88.5 31.5q-85 25 -119.5 51.5
t-34.5 72.5q0 44 25.5 83t68.5 62t93 23q55 0 90.5 -21t56.5 -52t50 -87l16 -32q8 -15 12 -25q19 -38 30 -54t27 -24q71 135 132 213.5t119.5 112.5t125.5 34q55 0 97.5 -26zM1273.5 30.5q44.5 14.5 64 47.5t19.5 91q0 61 -22.5 106t-62 69.5t-89.5 24.5q-95 0 -180.5 -81
t-181.5 -268q15 -4 40 -4h290q78 0 122.5 14.5z" />
    <glyph glyph-name="uniFD06" unicode="&#xfd06;" horiz-adv-x="1422" arabic-form="isolated" 
d="M1280.5 359q42.5 -26 67 -74.5t24.5 -114.5q0 -64 -21 -101t-68.5 -53t-130.5 -16h-291q-41 0 -63 11.5t-34.5 31.5t-39.5 76l-17 35q-27 53 -48.5 83.5t-54 48.5t-80.5 18q-46 0 -85.5 -21.5t-63 -56t-23.5 -73.5q0 -40 32.5 -64t111.5 -46q61 -18 94.5 -34.5t50 -42.5
t16.5 -70q0 -86 -83.5 -132.5t-234.5 -46.5q-154 0 -226.5 62.5t-72.5 194.5q0 39 8.5 76.5t17.5 61.5t12 30h15q-3 -7 -12 -33t-17.5 -63.5t-8.5 -71.5q0 -124 69 -182.5t214 -58.5q144 0 224 42.5t80 120.5q0 38 -15.5 61.5t-47 39t-88.5 31.5q-85 25 -119.5 51.5
t-34.5 72.5q0 44 25.5 83t68.5 62t93 23q55 0 90.5 -21t56.5 -52t50 -87l16 -32q8 -15 12 -25q19 -38 30 -54t27 -24q71 135 132 213.5t119.5 112.5t125.5 34q55 0 97.5 -26zM1273.5 30.5q44.5 14.5 64 47.5t19.5 91q0 61 -22.5 106t-62 69.5t-89.5 24.5q-95 0 -180.5 -81
t-181.5 -268q15 -4 40 -4h290q78 0 122.5 14.5zM269 -420l25 24l26 -24l-26 -25zM365 -420l26 24l25 -24l-25 -25z" />
    <glyph glyph-name="uniFD07" unicode="&#xfd07;" horiz-adv-x="1422" arabic-form="isolated" 
d="M1280.5 359q42.5 -26 67 -74.5t24.5 -114.5q0 -64 -21 -101t-68.5 -53t-130.5 -16h-291q-41 0 -63 11.5t-34.5 31.5t-39.5 76l-17 35q-27 53 -48.5 83.5t-54 48.5t-80.5 18q-46 0 -85.5 -21.5t-63 -56t-23.5 -73.5q0 -40 32.5 -64t111.5 -46q61 -18 94.5 -34.5t50 -42.5
t16.5 -70q0 -86 -83.5 -132.5t-234.5 -46.5q-154 0 -226.5 62.5t-72.5 194.5q0 39 8.5 76.5t17.5 61.5t12 30h15q-3 -7 -12 -33t-17.5 -63.5t-8.5 -71.5q0 -124 69 -182.5t214 -58.5q144 0 224 42.5t80 120.5q0 38 -15.5 61.5t-47 39t-88.5 31.5q-85 25 -119.5 51.5
t-34.5 72.5q0 44 25.5 83t68.5 62t93 23q55 0 90.5 -21t56.5 -52t50 -87l16 -32q8 -15 12 -25q19 -38 30 -54t27 -24q71 135 132 213.5t119.5 112.5t125.5 34q55 0 97.5 -26zM1273.5 30.5q44.5 14.5 64 47.5t19.5 91q0 61 -22.5 106t-62 69.5t-89.5 24.5q-95 0 -180.5 -81
t-181.5 -268q15 -4 40 -4h290q78 0 122.5 14.5zM1159 518l24 23l24 -23l-24 -24z" />
    <glyph glyph-name="uniFD08" unicode="&#xfd08;" horiz-adv-x="1422" arabic-form="isolated" 
d="M1280.5 359q42.5 -26 67 -74.5t24.5 -114.5q0 -64 -21 -101t-68.5 -53t-130.5 -16h-291q-41 0 -63 11.5t-34.5 31.5t-39.5 76l-17 35q-27 53 -48.5 83.5t-54 48.5t-80.5 18q-46 0 -85.5 -21.5t-63 -56t-23.5 -73.5q0 -40 32.5 -64t111.5 -46q61 -18 94.5 -34.5t50 -42.5
t16.5 -70q0 -86 -83.5 -132.5t-234.5 -46.5q-154 0 -226.5 62.5t-72.5 194.5q0 39 8.5 76.5t17.5 61.5t12 30h15q-3 -7 -12 -33t-17.5 -63.5t-8.5 -71.5q0 -124 69 -182.5t214 -58.5q144 0 224 42.5t80 120.5q0 38 -15.5 61.5t-47 39t-88.5 31.5q-85 25 -119.5 51.5
t-34.5 72.5q0 44 25.5 83t68.5 62t93 23q55 0 90.5 -21t56.5 -52t50 -87l16 -32q8 -15 12 -25q19 -38 30 -54t27 -24q71 135 132 213.5t119.5 112.5t125.5 34q55 0 97.5 -26zM1273.5 30.5q44.5 14.5 64 47.5t19.5 91q0 61 -22.5 106t-62 69.5t-89.5 24.5q-95 0 -180.5 -81
t-181.5 -268q15 -4 40 -4h290q78 0 122.5 14.5zM269 -420l25 24l26 -24l-26 -25zM365 -420l26 24l25 -24l-25 -25zM1159 518l24 23l24 -23l-24 -24z" />
    <glyph glyph-name="uniFD0D" unicode="&#xfd0d;" horiz-adv-x="1087" arabic-form="isolated" 
d="M1030.5 211.5q6.5 -36.5 6.5 -67.5q0 -73 -31.5 -108.5t-99.5 -35.5q-57 0 -85.5 17.5t-36.5 53.5q-10 -36 -44 -53.5t-97 -17.5q-81 0 -113.5 35.5t-32.5 118.5v36q-12 -36 -48 -53t-101 -17q-46 0 -72.5 12t-41.5 34q8 -62 8 -110q0 -86 -26 -153t-72.5 -104.5
t-106.5 -37.5q-27 0 -46.5 4t-29 8.5t-11.5 5.5v16q12 -6 34.5 -12t52.5 -6q54 0 97.5 34.5t68 98t24.5 146.5q0 45 -4 79t-13 95h15q11 -35 19.5 -52.5t32.5 -29.5t71 -12q56 0 87.5 12t46.5 43t15 89h15v-126q0 -77 29 -107.5t102 -30.5t103.5 25t30.5 85v124h15v-124
q0 -61 24.5 -85.5t89.5 -24.5q62 0 89 31t27 97q0 32 -4.5 57.5t-10 46.5t-7.5 30h15q9 -30 15.5 -66.5zM760 461l22 21l23 -21l-23 -22zM708 388l25 24l26 -24l-26 -24zM804 388l26 24l25 -24l-25 -24z" />
    <glyph glyph-name="uniFD0E" unicode="&#xfd0e;" horiz-adv-x="1087" arabic-form="isolated" 
d="M1030.5 211.5q6.5 -36.5 6.5 -67.5q0 -73 -31.5 -108.5t-99.5 -35.5q-57 0 -85.5 17.5t-36.5 53.5q-10 -36 -44 -53.5t-97 -17.5q-81 0 -113.5 35.5t-32.5 118.5v36q-12 -36 -48 -53t-101 -17q-46 0 -72.5 12t-41.5 34q8 -62 8 -110q0 -86 -26 -153t-72.5 -104.5
t-106.5 -37.5q-27 0 -46.5 4t-29 8.5t-11.5 5.5v16q12 -6 34.5 -12t52.5 -6q54 0 97.5 34.5t68 98t24.5 146.5q0 45 -4 79t-13 95h15q11 -35 19.5 -52.5t32.5 -29.5t71 -12q56 0 87.5 12t46.5 43t15 89h15v-126q0 -77 29 -107.5t102 -30.5t103.5 25t30.5 85v124h15v-124
q0 -61 24.5 -85.5t89.5 -24.5q62 0 89 31t27 97q0 32 -4.5 57.5t-10 46.5t-7.5 30h15q9 -30 15.5 -66.5z" />
    <glyph glyph-name="uniFD0F" unicode="&#xfd0f;" horiz-adv-x="1204" arabic-form="isolated" 
d="M1062.5 359q42.5 -26 67 -74.5t24.5 -114.5q0 -64 -21 -101t-68.5 -53t-130.5 -16h-291q-81 0 -113.5 35.5t-32.5 118.5v36q-12 -36 -48 -53t-101 -17q-46 0 -72.5 12t-41.5 34q8 -62 8 -110q0 -86 -26 -153t-72.5 -104.5t-106.5 -37.5q-27 0 -46.5 4t-29 8.5t-11.5 5.5
v16q12 -6 34.5 -12t52.5 -6q54 0 97.5 34.5t68 98t24.5 146.5q0 45 -4 79t-13 95h15q11 -35 19.5 -52.5t32.5 -29.5t71 -12q56 0 87.5 12t46.5 43t15 89h15v-126q0 -60 17 -91t58 -41q71 136 132 215.5t120 113.5t126 34q55 0 97.5 -26zM1055.5 30.5q44.5 14.5 64 47.5
t19.5 91q0 61 -22.5 106t-62 69.5t-89.5 24.5q-96 0 -181.5 -81t-181.5 -269q18 -3 41 -3h290q78 0 122.5 14.5z" />
    <glyph glyph-name="uniFD10" unicode="&#xfd10;" horiz-adv-x="1204" arabic-form="isolated" 
d="M1062.5 359q42.5 -26 67 -74.5t24.5 -114.5q0 -64 -21 -101t-68.5 -53t-130.5 -16h-291q-81 0 -113.5 35.5t-32.5 118.5v36q-12 -36 -48 -53t-101 -17q-46 0 -72.5 12t-41.5 34q8 -62 8 -110q0 -86 -26 -153t-72.5 -104.5t-106.5 -37.5q-27 0 -46.5 4t-29 8.5t-11.5 5.5
v16q12 -6 34.5 -12t52.5 -6q54 0 97.5 34.5t68 98t24.5 146.5q0 45 -4 79t-13 95h15q11 -35 19.5 -52.5t32.5 -29.5t71 -12q56 0 87.5 12t46.5 43t15 89h15v-126q0 -60 17 -91t58 -41q71 136 132 215.5t120 113.5t126 34q55 0 97.5 -26zM1055.5 30.5q44.5 14.5 64 47.5
t19.5 91q0 61 -22.5 106t-62 69.5t-89.5 24.5q-96 0 -181.5 -81t-181.5 -269q18 -3 41 -3h290q78 0 122.5 14.5zM921 518l24 23l24 -23l-24 -24z" />
    <glyph glyph-name="uniFD17" unicode="&#xfd17;" horiz-adv-x="1411" arabic-form="final" 
d="M1428 13v-10l-17 -3q-74 0 -112 17t-48 50q-18 -67 -123 -67q-56 0 -85 17.5t-37 52.5q-9 -35 -39 -52.5t-86 -17.5q-47 0 -74 13t-43.5 36t-39.5 70l-17 35q-27 53 -48.5 83.5t-54 48.5t-80.5 18q-46 0 -85.5 -21.5t-63 -56t-23.5 -73.5q0 -40 32.5 -64t111.5 -46
q61 -18 94.5 -34.5t50 -42.5t16.5 -70q0 -86 -83.5 -132.5t-234.5 -46.5q-154 0 -226.5 62.5t-72.5 194.5q0 39 8.5 76.5t17.5 61.5t12 30h15q-3 -7 -12 -33t-17.5 -63.5t-8.5 -71.5q0 -124 69 -182.5t214 -58.5q144 0 224 42.5t80 120.5q0 38 -15.5 61.5t-47 39t-88.5 31.5
q-85 25 -119.5 51.5t-34.5 72.5q0 44 25.5 83t68.5 62t93 23q55 0 90.5 -21t56.5 -52t50 -87l16 -32q24 -48 38.5 -69t38.5 -32t67 -11q64 0 91 25t27 85v124h15v-124q0 -61 24.5 -85.5t89.5 -24.5q62 0 89 22.5t27 77.5v134h15v-134q0 -38 14 -59.5t46.5 -31t91.5 -9.5z
" />
    <glyph glyph-name="uniFD18" unicode="&#xfd18;" horiz-adv-x="1411" arabic-form="final" 
d="M1428 13v-10l-17 -3q-74 0 -112 17t-48 50q-18 -67 -123 -67q-56 0 -85 17.5t-37 52.5q-9 -35 -39 -52.5t-86 -17.5q-47 0 -74 13t-43.5 36t-39.5 70l-17 35q-27 53 -48.5 83.5t-54 48.5t-80.5 18q-46 0 -85.5 -21.5t-63 -56t-23.5 -73.5q0 -40 32.5 -64t111.5 -46
q61 -18 94.5 -34.5t50 -42.5t16.5 -70q0 -86 -83.5 -132.5t-234.5 -46.5q-154 0 -226.5 62.5t-72.5 194.5q0 39 8.5 76.5t17.5 61.5t12 30h15q-3 -7 -12 -33t-17.5 -63.5t-8.5 -71.5q0 -124 69 -182.5t214 -58.5q144 0 224 42.5t80 120.5q0 38 -15.5 61.5t-47 39t-88.5 31.5
q-85 25 -119.5 51.5t-34.5 72.5q0 44 25.5 83t68.5 62t93 23q55 0 90.5 -21t56.5 -52t50 -87l16 -32q24 -48 38.5 -69t38.5 -32t67 -11q64 0 91 25t27 85v124h15v-124q0 -61 24.5 -85.5t89.5 -24.5q62 0 89 22.5t27 77.5v134h15v-134q0 -38 14 -59.5t46.5 -31t91.5 -9.5z
M269 -420l25 24l26 -24l-26 -25zM365 -420l26 24l25 -24l-25 -25z" />
    <glyph glyph-name="uniFD19" unicode="&#xfd19;" horiz-adv-x="1411" arabic-form="final" 
d="M1428 13v-10l-17 -3q-74 0 -112 17t-48 50q-18 -67 -123 -67q-56 0 -85 17.5t-37 52.5q-9 -35 -39 -52.5t-86 -17.5q-47 0 -74 13t-43.5 36t-39.5 70l-17 35q-27 53 -48.5 83.5t-54 48.5t-80.5 18q-46 0 -85.5 -21.5t-63 -56t-23.5 -73.5q0 -40 32.5 -64t111.5 -46
q61 -18 94.5 -34.5t50 -42.5t16.5 -70q0 -86 -83.5 -132.5t-234.5 -46.5q-154 0 -226.5 62.5t-72.5 194.5q0 39 8.5 76.5t17.5 61.5t12 30h15q-3 -7 -12 -33t-17.5 -63.5t-8.5 -71.5q0 -124 69 -182.5t214 -58.5q144 0 224 42.5t80 120.5q0 38 -15.5 61.5t-47 39t-88.5 31.5
q-85 25 -119.5 51.5t-34.5 72.5q0 44 25.5 83t68.5 62t93 23q55 0 90.5 -21t56.5 -52t50 -87l16 -32q24 -48 38.5 -69t38.5 -32t67 -11q64 0 91 25t27 85v124h15v-124q0 -61 24.5 -85.5t89.5 -24.5q62 0 89 22.5t27 77.5v134h15v-134q0 -38 14 -59.5t46.5 -31t91.5 -9.5z
M982 461l22 21l23 -21l-23 -22zM930 388l25 24l26 -24l-26 -24zM1026 388l26 24l25 -24l-25 -24z" />
    <glyph glyph-name="uniFD1A" unicode="&#xfd1a;" horiz-adv-x="1411" arabic-form="final" 
d="M1428 13v-10l-17 -3q-74 0 -112 17t-48 50q-18 -67 -123 -67q-56 0 -85 17.5t-37 52.5q-9 -35 -39 -52.5t-86 -17.5q-47 0 -74 13t-43.5 36t-39.5 70l-17 35q-27 53 -48.5 83.5t-54 48.5t-80.5 18q-46 0 -85.5 -21.5t-63 -56t-23.5 -73.5q0 -40 32.5 -64t111.5 -46
q61 -18 94.5 -34.5t50 -42.5t16.5 -70q0 -86 -83.5 -132.5t-234.5 -46.5q-154 0 -226.5 62.5t-72.5 194.5q0 39 8.5 76.5t17.5 61.5t12 30h15q-3 -7 -12 -33t-17.5 -63.5t-8.5 -71.5q0 -124 69 -182.5t214 -58.5q144 0 224 42.5t80 120.5q0 38 -15.5 61.5t-47 39t-88.5 31.5
q-85 25 -119.5 51.5t-34.5 72.5q0 44 25.5 83t68.5 62t93 23q55 0 90.5 -21t56.5 -52t50 -87l16 -32q24 -48 38.5 -69t38.5 -32t67 -11q64 0 91 25t27 85v124h15v-124q0 -61 24.5 -85.5t89.5 -24.5q62 0 89 22.5t27 77.5v134h15v-134q0 -38 14 -59.5t46.5 -31t91.5 -9.5z
M982 461l22 21l23 -21l-23 -22zM930 388l25 24l26 -24l-26 -24zM1026 388l26 24l25 -24l-25 -24zM269 -420l25 24l26 -24l-26 -25zM365 -420l26 24l25 -24l-25 -25z" />
    <glyph glyph-name="uniFD21" unicode="&#xfd21;" horiz-adv-x="1507" arabic-form="final" 
d="M1524 13v-10l-17 -3q-69 0 -105.5 17t-49.5 53q-21 -38 -68.5 -54t-131.5 -16h-291q-41 0 -63 11.5t-34.5 31.5t-39.5 76l-17 35q-27 53 -48.5 83.5t-54 48.5t-80.5 18q-46 0 -85.5 -21.5t-63 -56t-23.5 -73.5q0 -40 32.5 -64t111.5 -46q61 -18 94.5 -34.5t50 -42.5
t16.5 -70q0 -86 -83.5 -132.5t-234.5 -46.5q-154 0 -226.5 62.5t-72.5 194.5q0 39 8.5 76.5t17.5 61.5t12 30h15q-3 -7 -12 -33t-17.5 -63.5t-8.5 -71.5q0 -124 69 -182.5t214 -58.5q144 0 224 42.5t80 120.5q0 38 -15.5 61.5t-47 39t-88.5 31.5q-85 25 -119.5 51.5
t-34.5 72.5q0 44 25.5 83t68.5 62t93 23q55 0 90.5 -21t56.5 -52t50 -87l16 -32q8 -15 12 -25q19 -38 30 -54t27 -24q71 135 132 213.5t119.5 112.5t125.5 34q55 0 97.5 -26t67 -74.5t24.5 -114.5q0 -50 -11 -80q9 -39 42.5 -56.5t103.5 -17.5zM1273.5 30.5
q44.5 14.5 64 47.5t19.5 91q0 61 -22.5 106t-62 69.5t-89.5 24.5q-95 0 -180.5 -81t-181.5 -268q15 -4 40 -4h290q78 0 122.5 14.5z" />
    <glyph glyph-name="uniFD22" unicode="&#xfd22;" horiz-adv-x="1507" arabic-form="final" 
d="M1524 13v-10l-17 -3q-69 0 -105.5 17t-49.5 53q-21 -38 -68.5 -54t-131.5 -16h-291q-41 0 -63 11.5t-34.5 31.5t-39.5 76l-17 35q-27 53 -48.5 83.5t-54 48.5t-80.5 18q-46 0 -85.5 -21.5t-63 -56t-23.5 -73.5q0 -40 32.5 -64t111.5 -46q61 -18 94.5 -34.5t50 -42.5
t16.5 -70q0 -86 -83.5 -132.5t-234.5 -46.5q-154 0 -226.5 62.5t-72.5 194.5q0 39 8.5 76.5t17.5 61.5t12 30h15q-3 -7 -12 -33t-17.5 -63.5t-8.5 -71.5q0 -124 69 -182.5t214 -58.5q144 0 224 42.5t80 120.5q0 38 -15.5 61.5t-47 39t-88.5 31.5q-85 25 -119.5 51.5
t-34.5 72.5q0 44 25.5 83t68.5 62t93 23q55 0 90.5 -21t56.5 -52t50 -87l16 -32q8 -15 12 -25q19 -38 30 -54t27 -24q71 135 132 213.5t119.5 112.5t125.5 34q55 0 97.5 -26t67 -74.5t24.5 -114.5q0 -50 -11 -80q9 -39 42.5 -56.5t103.5 -17.5zM1273.5 30.5
q44.5 14.5 64 47.5t19.5 91q0 61 -22.5 106t-62 69.5t-89.5 24.5q-95 0 -180.5 -81t-181.5 -268q15 -4 40 -4h290q78 0 122.5 14.5zM269 -420l25 24l26 -24l-26 -25zM365 -420l26 24l25 -24l-25 -25z" />
    <glyph glyph-name="uniFD23" unicode="&#xfd23;" horiz-adv-x="1507" arabic-form="final" 
d="M1524 13v-10l-17 -3q-69 0 -105.5 17t-49.5 53q-21 -38 -68.5 -54t-131.5 -16h-291q-41 0 -63 11.5t-34.5 31.5t-39.5 76l-17 35q-27 53 -48.5 83.5t-54 48.5t-80.5 18q-46 0 -85.5 -21.5t-63 -56t-23.5 -73.5q0 -40 32.5 -64t111.5 -46q61 -18 94.5 -34.5t50 -42.5
t16.5 -70q0 -86 -83.5 -132.5t-234.5 -46.5q-154 0 -226.5 62.5t-72.5 194.5q0 39 8.5 76.5t17.5 61.5t12 30h15q-3 -7 -12 -33t-17.5 -63.5t-8.5 -71.5q0 -124 69 -182.5t214 -58.5q144 0 224 42.5t80 120.5q0 38 -15.5 61.5t-47 39t-88.5 31.5q-85 25 -119.5 51.5
t-34.5 72.5q0 44 25.5 83t68.5 62t93 23q55 0 90.5 -21t56.5 -52t50 -87l16 -32q8 -15 12 -25q19 -38 30 -54t27 -24q71 135 132 213.5t119.5 112.5t125.5 34q55 0 97.5 -26t67 -74.5t24.5 -114.5q0 -50 -11 -80q9 -39 42.5 -56.5t103.5 -17.5zM1273.5 30.5
q44.5 14.5 64 47.5t19.5 91q0 61 -22.5 106t-62 69.5t-89.5 24.5q-95 0 -180.5 -81t-181.5 -268q15 -4 40 -4h290q78 0 122.5 14.5zM1159 518l24 23l24 -23l-24 -24z" />
    <glyph glyph-name="uniFD24" unicode="&#xfd24;" horiz-adv-x="1507" arabic-form="final" 
d="M1524 13v-10l-17 -3q-69 0 -105.5 17t-49.5 53q-21 -38 -68.5 -54t-131.5 -16h-291q-41 0 -63 11.5t-34.5 31.5t-39.5 76l-17 35q-27 53 -48.5 83.5t-54 48.5t-80.5 18q-46 0 -85.5 -21.5t-63 -56t-23.5 -73.5q0 -40 32.5 -64t111.5 -46q61 -18 94.5 -34.5t50 -42.5
t16.5 -70q0 -86 -83.5 -132.5t-234.5 -46.5q-154 0 -226.5 62.5t-72.5 194.5q0 39 8.5 76.5t17.5 61.5t12 30h15q-3 -7 -12 -33t-17.5 -63.5t-8.5 -71.5q0 -124 69 -182.5t214 -58.5q144 0 224 42.5t80 120.5q0 38 -15.5 61.5t-47 39t-88.5 31.5q-85 25 -119.5 51.5
t-34.5 72.5q0 44 25.5 83t68.5 62t93 23q55 0 90.5 -21t56.5 -52t50 -87l16 -32q8 -15 12 -25q19 -38 30 -54t27 -24q71 135 132 213.5t119.5 112.5t125.5 34q55 0 97.5 -26t67 -74.5t24.5 -114.5q0 -50 -11 -80q9 -39 42.5 -56.5t103.5 -17.5zM1273.5 30.5
q44.5 14.5 64 47.5t19.5 91q0 61 -22.5 106t-62 69.5t-89.5 24.5q-95 0 -180.5 -81t-181.5 -268q15 -4 40 -4h290q78 0 122.5 14.5zM269 -420l25 24l26 -24l-26 -25zM365 -420l26 24l25 -24l-25 -25zM1159 518l24 23l24 -23l-24 -24z" />
    <glyph glyph-name="uniFD29" unicode="&#xfd29;" horiz-adv-x="1189" arabic-form="final" 
d="M1206 13v-10l-17 -3q-74 0 -112 17t-48 50q-18 -67 -123 -67q-56 0 -85 17t-37 49q-21 -66 -141 -66q-81 0 -113.5 35.5t-32.5 118.5v36q-12 -36 -48 -53t-101 -17q-46 0 -72.5 12t-41.5 34q8 -62 8 -110q0 -86 -26 -153t-72.5 -104.5t-106.5 -37.5q-27 0 -46.5 4
t-29 8.5t-11.5 5.5v16q12 -6 34.5 -12t52.5 -6q54 0 97.5 34.5t68 98t24.5 146.5q0 45 -4 79t-13 95h15q11 -35 19.5 -52.5t32.5 -29.5t71 -12q56 0 87.5 12t46.5 43t15 89h15v-126q0 -77 29 -107.5t102 -30.5t103.5 22.5t30.5 77.5v134h15v-134q0 -56 24.5 -78t89.5 -22
q62 0 89 22.5t27 77.5v134h15v-134q0 -38 14 -59.5t46.5 -31t91.5 -9.5zM760 461l22 21l23 -21l-23 -22zM708 388l25 24l26 -24l-26 -24zM804 388l26 24l25 -24l-25 -24z" />
    <glyph glyph-name="uniFD2A" unicode="&#xfd2a;" horiz-adv-x="1189" arabic-form="final" 
d="M1206 13v-10l-17 -3q-74 0 -112 17t-48 50q-18 -67 -123 -67q-56 0 -85 17t-37 49q-21 -66 -141 -66q-81 0 -113.5 35.5t-32.5 118.5v36q-12 -36 -48 -53t-101 -17q-46 0 -72.5 12t-41.5 34q8 -62 8 -110q0 -86 -26 -153t-72.5 -104.5t-106.5 -37.5q-27 0 -46.5 4
t-29 8.5t-11.5 5.5v16q12 -6 34.5 -12t52.5 -6q54 0 97.5 34.5t68 98t24.5 146.5q0 45 -4 79t-13 95h15q11 -35 19.5 -52.5t32.5 -29.5t71 -12q56 0 87.5 12t46.5 43t15 89h15v-126q0 -77 29 -107.5t102 -30.5t103.5 22.5t30.5 77.5v134h15v-134q0 -56 24.5 -78t89.5 -22
q62 0 89 22.5t27 77.5v134h15v-134q0 -38 14 -59.5t46.5 -31t91.5 -9.5z" />
    <glyph glyph-name="uniFD2B" unicode="&#xfd2b;" horiz-adv-x="1291" arabic-form="final" 
d="M1308 13v-10l-17 -3q-70 0 -107 17.5t-49 54.5q-21 -38 -69 -55t-132 -17h-291q-81 0 -113.5 35.5t-32.5 118.5v36q-12 -36 -48 -53t-101 -17q-46 0 -72.5 12t-41.5 34q8 -62 8 -110q0 -86 -26 -153t-72.5 -104.5t-106.5 -37.5q-27 0 -46.5 4t-29 8.5t-11.5 5.5v16
q12 -6 34.5 -12t52.5 -6q54 0 97.5 34.5t68 98t24.5 146.5q0 45 -4 79t-13 95h15q11 -35 19.5 -52.5t32.5 -29.5t71 -12q56 0 87.5 12t46.5 43t15 89h15v-126q0 -60 17 -91t58 -41q71 136 132 215.5t120 113.5t126 34q55 0 97.5 -26t67 -74.5t24.5 -114.5q0 -46 -10 -77
q8 -40 42 -58.5t105 -18.5zM1055.5 30.5q44.5 14.5 64 47.5t19.5 91q0 61 -22.5 106t-62 69.5t-89.5 24.5q-96 0 -181.5 -81t-181.5 -269q18 -3 41 -3h290q78 0 122.5 14.5z" />
    <glyph glyph-name="uniFD2C" unicode="&#xfd2c;" horiz-adv-x="1291" arabic-form="final" 
d="M1308 13v-10l-17 -3q-70 0 -107 17.5t-49 54.5q-21 -38 -69 -55t-132 -17h-291q-81 0 -113.5 35.5t-32.5 118.5v36q-12 -36 -48 -53t-101 -17q-46 0 -72.5 12t-41.5 34q8 -62 8 -110q0 -86 -26 -153t-72.5 -104.5t-106.5 -37.5q-27 0 -46.5 4t-29 8.5t-11.5 5.5v16
q12 -6 34.5 -12t52.5 -6q54 0 97.5 34.5t68 98t24.5 146.5q0 45 -4 79t-13 95h15q11 -35 19.5 -52.5t32.5 -29.5t71 -12q56 0 87.5 12t46.5 43t15 89h15v-126q0 -60 17 -91t58 -41q71 136 132 215.5t120 113.5t126 34q55 0 97.5 -26t67 -74.5t24.5 -114.5q0 -46 -10 -77
q8 -40 42 -58.5t105 -18.5zM1055.5 30.5q44.5 14.5 64 47.5t19.5 91q0 61 -22.5 106t-62 69.5t-89.5 24.5q-96 0 -181.5 -81t-181.5 -269q18 -3 41 -3h290q78 0 122.5 14.5zM921 518l24 23l24 -23l-24 -24z" />
    <glyph glyph-name="uniFE82" unicode="&#x622;" horiz-adv-x="270" arabic-form="final" 
d="M155.5 25q-36.5 25 -46 66t-9.5 114v454h14v-451q0 -71 7 -108t40.5 -60.5t108.5 -23.5l17 -3v-10l-17 -3q-78 0 -114.5 25zM98 772q-28 8 -41 8t-24.5 -3.5t-19 -7.5t-9.5 -5v16q10 6 25 11t28 5q11 0 22 -2.5t21 -5.5q11 -3 23.5 -6t26.5 -3q16 0 28 2.5t18 5.5t7 4
v-16q-1 -1 -7 -4t-18 -5.5t-30 -2.5t-50 9z" />
    <glyph glyph-name="uniFE84" unicode="&#x623;" horiz-adv-x="270" arabic-form="final" 
d="M155.5 25q-36.5 25 -46 66t-9.5 114v454h14v-451q0 -71 7 -108t40.5 -60.5t108.5 -23.5l17 -3v-10l-17 -3q-78 0 -114.5 25zM139 775q33 4 39 5v-16l-22 -3q-64 -8 -141 -15v16l38 4q-27 17 -27 60q0 38 21 56.5t53 18.5q15 0 31.5 -7t16.5 -8v-16q0 1 -16 8t-32 7
q-59 0 -59 -59q0 -30 12.5 -42.5t35.5 -12.5q17 0 50 4z" />
    <glyph glyph-name="uniFE86" unicode="&#x624;" horiz-adv-x="466" arabic-form="final" 
d="M483 10v-7l-17 -3h-77q-12 -114 -70.5 -176.5t-163.5 -62.5q-37 0 -63.5 6.5t-41.5 14.5t-15 9v16q22 -14 54 -22t67 -8q99 0 152.5 59.5t65.5 163.5h-155q-84 0 -121 31.5t-37 99.5q0 55 21.5 98t59 67t84.5 24q77 0 121.5 -62.5t44.5 -168.5v-24q0 -17 -2 -49h76z
M375 16q2 18 2 28v45q0 98 -40 156.5t-111 58.5q-43 0 -77 -22t-53.5 -61.5t-19.5 -89.5q0 -60 32.5 -87.5t110.5 -27.5h156zM258 436q33 4 39 5v-16l-22 -3q-64 -8 -141 -15v16l38 4q-27 17 -27 60q0 38 21 56.5t53 18.5q15 0 31.5 -7t16.5 -8v-16q0 1 -16 8t-32 7
q-59 0 -59 -59q0 -30 12.5 -42.5t35.5 -12.5q17 0 50 4z" />
    <glyph glyph-name="uniFE88" unicode="&#x625;" horiz-adv-x="267" arabic-form="final" 
d="M169 13.5q-36 13.5 -52.5 46.5t-16.5 93v551h15v-545q0 -59 14.5 -89.5t46.5 -42t91 -11.5l17 -3v-10l-17 -3q-62 0 -98 13.5zM171 -227q33 4 39 5v-16l-22 -3q-64 -8 -141 -15v16l38 4q-27 17 -27 60q0 38 21 56.5t53 18.5q15 0 31.5 -7t16.5 -8v-16q0 1 -16 8t-32 7
q-59 0 -59 -59q0 -30 12.5 -42.5t35.5 -12.5q17 0 50 4z" />
    <glyph glyph-name="uniFE8A" unicode="&#x626;" horiz-adv-x="672" arabic-form="final" 
d="M689 13v-10l-18 -3h-86l-58 3q47 -14 73 -41.5t26 -73.5q0 -80 -79 -125.5t-219 -45.5q-148 0 -218 57t-70 178q0 41 7 79t14.5 61.5t10.5 29.5h15q-3 -6 -10.5 -29.5t-14.5 -61t-7 -78.5q0 -112 66.5 -166t206.5 -54q133 0 208 41t75 114q0 53 -38 77.5t-120 42.5v15
q72 -7 203 -7h15zM111 238q33 4 39 5v-16l-22 -3q-64 -8 -141 -15v16l38 4q-27 17 -27 60q0 38 21 56.5t53 18.5q15 0 31.5 -7t16.5 -8v-16q0 1 -16 8t-32 7q-59 0 -59 -59q0 -30 12.5 -42.5t35.5 -12.5q17 0 50 4z" />
    <glyph glyph-name="uniFE8B" unicode="&#x626;" horiz-adv-x="222" arabic-form="initial" 
d="M-17 3v10l17 3q82 0 119.5 41.5t37.5 131.5q0 60 -16 146h15q16 -77 16 -146q0 -103 -44.5 -146t-127.5 -43zM180 451q33 4 39 5v-16l-22 -3q-64 -8 -141 -15v16l38 4q-27 17 -27 60q0 38 21 56.5t53 18.5q15 0 31.5 -7t16.5 -8v-16q0 1 -16 8t-32 7q-59 0 -59 -59
q0 -30 12.5 -42.5t35.5 -12.5q17 0 50 4z" />
    <glyph glyph-name="uniFE8C" unicode="&#x626;" horiz-adv-x="325" arabic-form="medial" 
d="M342 13v-10l-17 -3q-77 0 -113.5 21t-46.5 74q-11 -53 -50 -74t-115 -21l-16 3l-1 10l17 3q59 0 92.5 12t49.5 43t16 89v120h15v-121q0 -59 14.5 -89.5t46.5 -42t91 -11.5zM197 396q33 4 39 5v-16l-22 -3q-64 -8 -141 -15v16l38 4q-27 17 -27 60q0 38 21 56.5t53 18.5
q15 0 31.5 -7t16.5 -8v-16q0 1 -16 8t-32 7q-59 0 -59 -59q0 -30 12.5 -42.5t35.5 -12.5q17 0 50 4z" />
    <glyph glyph-name="uniFE8E" unicode="&#x627;" horiz-adv-x="267" arabic-form="final" 
d="M169 13.5q-36 13.5 -52.5 46.5t-16.5 93v551h15v-545q0 -59 14.5 -89.5t46.5 -42t91 -11.5l17 -3v-10l-17 -3q-62 0 -98 13.5z" />
    <glyph glyph-name="uniFE90" unicode="&#x628;" horiz-adv-x="915" arabic-form="final" 
d="M932 13v-10l-17 -3q-80 0 -117 24t-45 86q-14 -45 -52.5 -68.5t-109.5 -32.5t-194 -9q-135 0 -212 17t-111 56t-34 108q0 33 4.5 62t9 46.5t6.5 21.5h15q-2 -5 -6.5 -23.5t-9 -47t-4.5 -57.5q0 -63 32.5 -99t106 -52t203.5 -16q145 0 218.5 13.5t103 48.5t29.5 104v98h15
v-116q0 -61 14.5 -92.5t46.5 -43.5t91 -12zM374 -148l24 23l24 -23l-24 -24z" />
    <glyph glyph-name="uniFE91" unicode="&#x628;" horiz-adv-x="222" arabic-form="initial" 
d="M-17 3v10l17 3q82 0 119.5 41.5t37.5 131.5q0 60 -16 146h15q16 -77 16 -146q0 -103 -44.5 -146t-127.5 -43zM51 -138l24 23l24 -23l-24 -24z" />
    <glyph glyph-name="uniFE92" unicode="&#x628;" horiz-adv-x="325" arabic-form="medial" 
d="M342 13v-10l-17 -3q-77 0 -113.5 21t-46.5 74q-11 -53 -50 -74t-115 -21l-16 3l-1 10l17 3q59 0 92.5 12t49.5 43t16 89v120h15v-121q0 -59 14.5 -89.5t46.5 -42t91 -11.5zM141 -148l24 23l24 -23l-24 -24z" />
    <glyph glyph-name="uniFE94" unicode="&#x629;" horiz-adv-x="472" arabic-form="final" 
d="M489 13v-10l-17 -3q-49 0 -77 13t-41.5 44.5t-16.5 88.5q-17 -20 -54.5 -31.5t-92.5 -11.5q-79 0 -114.5 30t-35.5 85q0 42 28.5 75t91.5 65t176 72v70h15v-322q0 -67 10 -101t35.5 -47.5t75.5 -13.5zM284 132q38 13 52 36v10v236q-107 -39 -167 -69t-87 -60t-27 -68
q0 -50 33 -74t103 -24q55 0 93 13zM141 624l25 24l26 -24l-26 -25zM237 624l26 24l25 -24l-25 -25z" />
    <glyph glyph-name="uniFE96" unicode="&#x62a;" horiz-adv-x="915" arabic-form="final" 
d="M932 13v-10l-17 -3q-80 0 -117 24t-45 86q-14 -45 -52.5 -68.5t-109.5 -32.5t-194 -9q-135 0 -212 17t-111 56t-34 108q0 33 4.5 62t9 46.5t6.5 21.5h15q-2 -5 -6.5 -23.5t-9 -47t-4.5 -57.5q0 -63 32.5 -99t106 -52t203.5 -16q145 0 218.5 13.5t103 48.5t29.5 104v98h15
v-116q0 -61 14.5 -92.5t46.5 -43.5t91 -12zM340 429l25 24l26 -24l-26 -25zM436 429l26 24l25 -24l-25 -25z" />
    <glyph glyph-name="uniFE97" unicode="&#x62a;" horiz-adv-x="222" arabic-form="initial" 
d="M-17 3v10l17 3q82 0 119.5 41.5t37.5 131.5q0 60 -16 146h15q16 -77 16 -146q0 -103 -44.5 -146t-127.5 -43zM74 478l25 24l26 -24l-26 -25zM170 478l26 24l25 -24l-25 -25z" />
    <glyph glyph-name="uniFE98" unicode="&#x62a;" horiz-adv-x="325" arabic-form="medial" 
d="M342 13v-10l-17 -3q-77 0 -113.5 21t-46.5 74q-11 -53 -50 -74t-115 -21l-16 3l-1 10l17 3q59 0 92.5 12t49.5 43t16 89v120h15v-121q0 -59 14.5 -89.5t46.5 -42t91 -11.5zM91 423l25 24l26 -24l-26 -25zM187 423l26 24l25 -24l-25 -25z" />
    <glyph glyph-name="uniFE9A" unicode="&#x62b;" horiz-adv-x="915" arabic-form="final" 
d="M932 13v-10l-17 -3q-80 0 -117 24t-45 86q-14 -45 -52.5 -68.5t-109.5 -32.5t-194 -9q-135 0 -212 17t-111 56t-34 108q0 33 4.5 62t9 46.5t6.5 21.5h15q-2 -5 -6.5 -23.5t-9 -47t-4.5 -57.5q0 -63 32.5 -99t106 -52t203.5 -16q145 0 218.5 13.5t103 48.5t29.5 104v98h15
v-116q0 -61 14.5 -92.5t46.5 -43.5t91 -12zM390 497l22 21l23 -21l-23 -22zM338 424l25 24l26 -24l-26 -24zM434 424l26 24l25 -24l-25 -24z" />
    <glyph glyph-name="uniFE9B" unicode="&#x62b;" horiz-adv-x="222" arabic-form="initial" 
d="M-17 3v10l17 3q82 0 119.5 41.5t37.5 131.5q0 60 -16 146h15q16 -77 16 -146q0 -103 -44.5 -146t-127.5 -43zM124 546l22 21l23 -21l-23 -22zM72 473l25 24l26 -24l-26 -24zM168 473l26 24l25 -24l-25 -24z" />
    <glyph glyph-name="uniFE9C" unicode="&#x62b;" horiz-adv-x="325" arabic-form="medial" 
d="M342 13v-10l-17 -3q-77 0 -113.5 21t-46.5 74q-11 -53 -50 -74t-115 -21l-16 3l-1 10l17 3q59 0 92.5 12t49.5 43t16 89v120h15v-121q0 -59 14.5 -89.5t46.5 -42t91 -11.5zM141 491l22 21l23 -21l-23 -22zM89 418l25 24l26 -24l-26 -24zM185 418l26 24l25 -24l-25 -24z
" />
    <glyph glyph-name="uniFE9E" unicode="&#x62c;" horiz-adv-x="660" arabic-form="final" 
d="M677 13v-10l-17 -3q-69 0 -106.5 20.5t-53 67t-16.5 133.5q-174 -64 -262.5 -108.5t-127.5 -94t-39 -120.5q0 -113 60.5 -168.5t187.5 -55.5q79 0 140.5 13t99 28.5t37.5 17.5v-16q-1 0 -27.5 -14.5t-98 -29.5t-152.5 -15q-133 0 -197.5 58.5t-64.5 175.5v9
q0 81 48 135.5t151.5 102.5t313.5 122q-47 11 -84 25.5t-92 38.5q-62 27 -99.5 39t-80.5 12q-40 0 -70.5 -11t-49 -23.5t-18.5 -14.5v16q0 2 18 14.5t49 23.5t72 11q44 0 80.5 -11.5t95.5 -37.5q55 -25 100 -41.5t104 -29.5l-1 -17l-78 -28q1 -84 14.5 -128.5t48 -63.5
t98.5 -19zM307 -63l24 23l24 -23l-24 -24z" />
    <glyph glyph-name="uniFE9F" unicode="&#x62c;" horiz-adv-x="669" arabic-form="initial" 
d="M289.5 328q44.5 -16 106.5 -49q56 -29 98 -47t95 -27l-2 -17q-63 -26 -150 -66q-81 -39 -133 -59q-95 -37 -153 -50t-150 -13l-18 3l2 10l16 3q90 0 150.5 14t151.5 50q30 12 68.5 29.5t55.5 25.5q62 30 134 60q-43 10 -80.5 26t-85.5 42q-66 33 -109.5 49t-97.5 16
q-39 0 -69 -12t-48 -25.5t-18 -15.5v18q0 2 17.5 15t48.5 24.5t72 11.5q54 0 98.5 -16zM361 -83l24 23l24 -23l-24 -24z" />
    <glyph glyph-name="uniFEA0" unicode="&#x62c;" horiz-adv-x="675" arabic-form="medial" 
d="M692 13v-10l-17 -3q-68 0 -103.5 15t-49 47t-15.5 92l-53 -25q-115 -52 -150 -66q-95 -37 -153 -50t-150 -13l-18 3l2 10l16 3q90 0 150.5 14t151.5 50q30 12 68.5 29.5t55.5 25.5q62 30 134 60q-43 10 -80.5 26t-85.5 42q-66 33 -109.5 49t-97.5 16q-39 0 -69 -12
t-48 -25.5t-18 -15.5v18q0 2 17.5 15t48.5 24.5t72 11.5q54 0 98.5 -16t106.5 -49q56 -29 98 -47t95 -27l-2 -17q-23 -9 -65 -27q1 -59 13 -89t44 -43t96 -13zM385 -60l24 -23l-24 -24l-24 24z" />
    <glyph glyph-name="uniFEA2" unicode="&#x62d;" horiz-adv-x="660" arabic-form="final" 
d="M677 13v-10l-17 -3q-69 0 -106.5 20.5t-53 67t-16.5 133.5q-174 -64 -262.5 -108.5t-127.5 -94t-39 -120.5q0 -113 60.5 -168.5t187.5 -55.5q79 0 140.5 13t99 28.5t37.5 17.5v-16q-1 0 -27.5 -14.5t-98 -29.5t-152.5 -15q-133 0 -197.5 58.5t-64.5 175.5v9
q0 81 48 135.5t151.5 102.5t313.5 122q-47 11 -84 25.5t-92 38.5q-62 27 -99.5 39t-80.5 12q-40 0 -70.5 -11t-49 -23.5t-18.5 -14.5v16q0 2 18 14.5t49 23.5t72 11q44 0 80.5 -11.5t95.5 -37.5q55 -25 100 -41.5t104 -29.5l-1 -17l-78 -28q1 -84 14.5 -128.5t48 -63.5
t98.5 -19z" />
    <glyph glyph-name="uniFEA3" unicode="&#x62d;" horiz-adv-x="669" arabic-form="initial" 
d="M289.5 328q44.5 -16 106.5 -49q56 -29 98 -47t95 -27l-2 -17q-63 -26 -150 -66q-81 -39 -133 -59q-95 -37 -153 -50t-150 -13l-18 3l2 10l16 3q90 0 150.5 14t151.5 50q30 12 68.5 29.5t55.5 25.5q62 30 134 60q-43 10 -80.5 26t-85.5 42q-66 33 -109.5 49t-97.5 16
q-39 0 -69 -12t-48 -25.5t-18 -15.5v18q0 2 17.5 15t48.5 24.5t72 11.5q54 0 98.5 -16z" />
    <glyph glyph-name="uniFEA4" unicode="&#x62d;" horiz-adv-x="675" arabic-form="medial" 
d="M692 13v-10l-17 -3q-68 0 -103.5 15t-49 47t-15.5 92l-53 -25q-115 -52 -150 -66q-95 -37 -153 -50t-150 -13l-18 3l2 10l16 3q90 0 150.5 14t151.5 50q30 12 68.5 29.5t55.5 25.5q62 30 134 60q-43 10 -80.5 26t-85.5 42q-66 33 -109.5 49t-97.5 16q-39 0 -69 -12
t-48 -25.5t-18 -15.5v18q0 2 17.5 15t48.5 24.5t72 11.5q54 0 98.5 -16t106.5 -49q56 -29 98 -47t95 -27l-2 -17q-23 -9 -65 -27q1 -59 13 -89t44 -43t96 -13z" />
    <glyph glyph-name="uniFEA6" unicode="&#x62e;" horiz-adv-x="660" arabic-form="final" 
d="M677 13v-10l-17 -3q-69 0 -106.5 20.5t-53 67t-16.5 133.5q-174 -64 -262.5 -108.5t-127.5 -94t-39 -120.5q0 -113 60.5 -168.5t187.5 -55.5q79 0 140.5 13t99 28.5t37.5 17.5v-16q-1 0 -27.5 -14.5t-98 -29.5t-152.5 -15q-133 0 -197.5 58.5t-64.5 175.5v9
q0 81 48 135.5t151.5 102.5t313.5 122q-47 11 -84 25.5t-92 38.5q-62 27 -99.5 39t-80.5 12q-40 0 -70.5 -11t-49 -23.5t-18.5 -14.5v16q0 2 18 14.5t49 23.5t72 11q44 0 80.5 -11.5t95.5 -37.5q55 -25 100 -41.5t104 -29.5l-1 -17l-78 -28q1 -84 14.5 -128.5t48 -63.5
t98.5 -19zM298 554l24 23l24 -23l-24 -24z" />
    <glyph glyph-name="uniFEA7" unicode="&#x62e;" horiz-adv-x="669" arabic-form="initial" 
d="M289.5 328q44.5 -16 106.5 -49q56 -29 98 -47t95 -27l-2 -17q-63 -26 -150 -66q-81 -39 -133 -59q-95 -37 -153 -50t-150 -13l-18 3l2 10l16 3q90 0 150.5 14t151.5 50q30 12 68.5 29.5t55.5 25.5q62 30 134 60q-43 10 -80.5 26t-85.5 42q-66 33 -109.5 49t-97.5 16
q-39 0 -69 -12t-48 -25.5t-18 -15.5v18q0 2 17.5 15t48.5 24.5t72 11.5q54 0 98.5 -16zM298 516l24 23l24 -23l-24 -24z" />
    <glyph glyph-name="uniFEA8" unicode="&#x62e;" horiz-adv-x="675" arabic-form="medial" 
d="M692 13v-10l-17 -3q-68 0 -103.5 15t-49 47t-15.5 92l-53 -25q-115 -52 -150 -66q-95 -37 -153 -50t-150 -13l-18 3l2 10l16 3q90 0 150.5 14t151.5 50q30 12 68.5 29.5t55.5 25.5q62 30 134 60q-43 10 -80.5 26t-85.5 42q-66 33 -109.5 49t-97.5 16q-39 0 -69 -12
t-48 -25.5t-18 -15.5v18q0 2 17.5 15t48.5 24.5t72 11.5q54 0 98.5 -16t106.5 -49q56 -29 98 -47t95 -27l-2 -17q-23 -9 -65 -27q1 -59 13 -89t44 -43t96 -13zM298 516l24 23l24 -23l-24 -24z" />
    <glyph glyph-name="uniFEAA" unicode="&#x62f;" horiz-adv-x="539" arabic-form="final" 
d="M556 13v-10l-17 -3q-49 0 -78.5 15t-53.5 57q-16 -36 -64.5 -54t-143.5 -18q-55 0 -92.5 4.5t-55 9t-21.5 6.5v16q4 -2 22 -6.5t56 -9t92 -4.5q95 0 141 18.5t58 53.5q-16 34 -30 77l-98 289h16l97 -284q23 -67 42.5 -99t44.5 -43.5t68 -11.5z" />
    <glyph glyph-name="uniFEAC" unicode="&#x630;" horiz-adv-x="539" arabic-form="final" 
d="M556 13v-10l-17 -3q-49 0 -78.5 15t-53.5 57q-16 -36 -64.5 -54t-143.5 -18q-55 0 -92.5 4.5t-55 9t-21.5 6.5v16q4 -2 22 -6.5t56 -9t92 -4.5q95 0 141 18.5t58 53.5q-16 34 -30 77l-98 289h16l97 -284q23 -67 42.5 -99t44.5 -43.5t68 -11.5zM255 587l24 23l24 -23
l-24 -24z" />
    <glyph glyph-name="uniFEAE" unicode="&#x631;" horiz-adv-x="359" arabic-form="final" 
d="M376 13v-10l-17 -3q-85 0 -117 62v-6q0 -86 -26 -153t-72.5 -104.5t-106.5 -37.5q-27 0 -46.5 4t-29 8.5t-11.5 5.5v16q12 -6 34.5 -12t52.5 -6q54 0 97.5 34.5t68 98t24.5 146.5q0 37 -18 174h15q2 -20 4 -30q2 -19 4.5 -39.5t4.5 -40.5q8 -48 36.5 -76t85.5 -28z" />
    <glyph glyph-name="uniFEB0" unicode="&#x632;" horiz-adv-x="359" arabic-form="final" 
d="M376 13v-10l-17 -3q-85 0 -117 62v-6q0 -86 -26 -153t-72.5 -104.5t-106.5 -37.5q-27 0 -46.5 4t-29 8.5t-11.5 5.5v16q12 -6 34.5 -12t52.5 -6q54 0 97.5 34.5t68 98t24.5 146.5q0 37 -18 174h15q2 -20 4 -30q2 -19 4.5 -39.5t4.5 -40.5q8 -48 36.5 -76t85.5 -28z
M193 363l24 23l24 -23l-24 -24z" />
    <glyph glyph-name="uniFEB2" unicode="&#x633;" horiz-adv-x="1241" arabic-form="final" 
d="M1258 13v-10l-17 -3q-72 0 -108.5 17t-46.5 51q-19 -68 -128 -68q-56 0 -85 17t-37 49q-21 -66 -131 -66q-57 0 -83.5 8t-37.5 23q-1 -94 -28 -149.5t-87.5 -80.5t-163.5 -25q-99 0 -156.5 23.5t-83 74t-25.5 133.5q0 51 9.5 94t21 73t11.5 27h15q-3 -7 -13 -34.5
t-19.5 -71t-9.5 -88.5q0 -78 24 -125t78.5 -68.5t147.5 -21.5q99 0 156 23t82.5 74.5t25.5 140.5q-2 72 -29 210h15q20 -102 28 -166q4 -36 31 -47t91 -11q66 0 95 22.5t29 77.5v124h15v-124q0 -56 24.5 -78t89.5 -22q64 0 92.5 23t28.5 77v124h15v-124q0 -38 13.5 -59.5
t45 -31t88.5 -9.5z" />
    <glyph glyph-name="uniFEB3" unicode="&#x633;" horiz-adv-x="742" arabic-form="initial" 
d="M685.5 211.5q6.5 -36.5 6.5 -67.5q0 -79 -30.5 -111.5t-100.5 -32.5q-56 0 -85 17t-37 49q-21 -66 -141 -66q-117 0 -138 68q-10 -33 -48 -50.5t-112 -17.5l-17 3v10l17 3q59 0 91.5 9.5t46.5 31t14 59.5v124h15v-124q0 -55 30.5 -77.5t100.5 -22.5q73 0 103.5 22.5
t30.5 77.5v124h15v-124q0 -56 24.5 -78t89.5 -22q64 0 90 28t26 100q0 32 -4.5 57.5t-10 46.5t-7.5 30h15q9 -30 15.5 -66.5z" />
    <glyph glyph-name="uniFEB4" unicode="&#x633;" horiz-adv-x="850" arabic-form="medial" 
d="M867 13v-10l-17 -3q-73 0 -111.5 21t-47.5 62q-18 -83 -124 -83q-57 0 -85.5 19.5t-36.5 58.5q-10 -39 -43.5 -58.5t-96.5 -19.5q-62 0 -96 20.5t-43 60.5q-10 -41 -49 -61t-117 -20l-17 3v10l17 3q61 0 95 11.5t48.5 37t14.5 71.5v104h15v-104q0 -65 32 -92.5t100 -27.5
q72 0 102.5 27t30.5 93v104h15v-104q0 -67 24.5 -93.5t89.5 -26.5q61 0 88.5 28t27.5 92v104h15v-104q0 -65 34.5 -92.5t117.5 -27.5z" />
    <glyph glyph-name="uniFEB6" unicode="&#x634;" horiz-adv-x="1241" arabic-form="final" 
d="M1258 13v-10l-17 -3q-72 0 -108.5 17t-46.5 51q-19 -68 -128 -68q-56 0 -85 17t-37 49q-21 -66 -131 -66q-57 0 -83.5 8t-37.5 23q-1 -94 -28 -149.5t-87.5 -80.5t-163.5 -25q-99 0 -156.5 23.5t-83 74t-25.5 133.5q0 51 9.5 94t21 73t11.5 27h15q-3 -7 -13 -34.5
t-19.5 -71t-9.5 -88.5q0 -78 24 -125t78.5 -68.5t147.5 -21.5q99 0 156 23t82.5 74.5t25.5 140.5q-2 72 -29 210h15q20 -102 28 -166q4 -36 31 -47t91 -11q66 0 95 22.5t29 77.5v124h15v-124q0 -56 24.5 -78t89.5 -22q64 0 92.5 23t28.5 77v124h15v-124q0 -38 13.5 -59.5
t45 -31t88.5 -9.5zM813 451l22 21l23 -21l-23 -22zM761 378l25 24l26 -24l-26 -24zM857 378l26 24l25 -24l-25 -24z" />
    <glyph glyph-name="uniFEB7" unicode="&#x634;" horiz-adv-x="742" arabic-form="initial" 
d="M685.5 211.5q6.5 -36.5 6.5 -67.5q0 -79 -30.5 -111.5t-100.5 -32.5q-56 0 -85 17t-37 49q-21 -66 -141 -66q-117 0 -138 68q-10 -33 -48 -50.5t-112 -17.5l-17 3v10l17 3q59 0 91.5 9.5t46.5 31t14 59.5v124h15v-124q0 -55 30.5 -77.5t100.5 -22.5q73 0 103.5 22.5
t30.5 77.5v124h15v-124q0 -56 24.5 -78t89.5 -22q64 0 90 28t26 100q0 32 -4.5 57.5t-10 46.5t-7.5 30h15q9 -30 15.5 -66.5zM415 451l22 21l23 -21l-23 -22zM363 378l25 24l26 -24l-26 -24zM459 378l26 24l25 -24l-25 -24z" />
    <glyph glyph-name="uniFEB8" unicode="&#x634;" horiz-adv-x="850" arabic-form="medial" 
d="M867 13v-10l-17 -3q-73 0 -111.5 21t-47.5 62q-18 -83 -124 -83q-57 0 -85.5 19.5t-36.5 58.5q-10 -39 -43.5 -58.5t-96.5 -19.5q-62 0 -96 20.5t-43 60.5q-10 -41 -49 -61t-117 -20l-17 3v10l17 3q61 0 95 11.5t48.5 37t14.5 71.5v104h15v-104q0 -65 32 -92.5t100 -27.5
q72 0 102.5 27t30.5 93v104h15v-104q0 -67 24.5 -93.5t89.5 -26.5q61 0 88.5 28t27.5 92v104h15v-104q0 -65 34.5 -92.5t117.5 -27.5zM421 451l22 21l23 -21l-23 -22zM369 378l25 24l26 -24l-26 -24zM465 378l26 24l25 -24l-25 -24z" />
    <glyph glyph-name="uniFEBA" unicode="&#x635;" horiz-adv-x="1343" arabic-form="final" 
d="M1360 13v-10l-17 -3q-70 0 -107 17.5t-49 54.5q-21 -38 -69 -55t-132 -17h-291q-52 0 -76.5 8t-34.5 23q-1 -94 -28 -149.5t-87.5 -80.5t-163.5 -25q-99 0 -156.5 23.5t-83 74t-25.5 133.5q0 51 9.5 94t21 73t11.5 27h15q-3 -7 -13 -34.5t-19.5 -71t-9.5 -88.5
q0 -78 24 -125t78.5 -68.5t147.5 -21.5q99 0 156 23t82.5 74.5t25.5 140.5q-2 75 -29 220h15q21 -111 28 -176q3 -26 15.5 -38t38.5 -17q72 137 133.5 217t120.5 114.5t126 34.5q55 0 97.5 -26t67 -74.5t24.5 -114.5q0 -46 -10 -77q8 -40 42 -58.5t105 -18.5zM1107.5 30.5
q44.5 14.5 64 47.5t19.5 91q0 61 -22.5 106t-62 69.5t-89.5 24.5q-96 0 -181.5 -81.5t-181.5 -270.5q12 -1 41 -1h290q78 0 122.5 14.5z" />
    <glyph glyph-name="uniFEBB" unicode="&#x635;" horiz-adv-x="874" arabic-form="initial" 
d="M732.5 359q42.5 -26 67 -74.5t24.5 -114.5q0 -64 -21 -101t-68.5 -53t-131.5 -16h-299q-120 0 -138 81q-10 -41 -49 -61t-117 -20l-17 3v10l17 3q61 0 95 11.5t48.5 37t14.5 71.5v104h15v-104q0 -52 20.5 -80t62.5 -36q71 137 132.5 216.5t120.5 114t126 34.5
q55 0 97.5 -26zM725.5 30.5q44.5 14.5 64 47.5t19.5 91q0 61 -22.5 106t-62 69.5t-89.5 24.5q-96 0 -181.5 -81t-181.5 -270q20 -2 32 -2h299q78 0 122.5 14.5z" />
    <glyph glyph-name="uniFEBC" unicode="&#x635;" horiz-adv-x="961" arabic-form="medial" 
d="M978 13v-10l-17 -3q-70 0 -107 17.5t-49 54.5q-21 -39 -69 -55.5t-133 -16.5h-299q-120 0 -138 81q-10 -41 -49 -61t-117 -20l-17 3v10l17 3q61 0 95 11.5t48.5 37t14.5 71.5v104h15v-104q0 -52 20.5 -80t62.5 -36q71 137 132.5 216.5t120.5 114t126 34.5q55 0 97.5 -26
t67 -74.5t24.5 -114.5q0 -46 -10 -77q8 -40 42 -58.5t105 -18.5zM725.5 30.5q44.5 14.5 64 47.5t19.5 91q0 61 -22.5 106t-62 69.5t-89.5 24.5q-96 0 -181.5 -81t-181.5 -270q20 -2 32 -2h299q78 0 122.5 14.5z" />
    <glyph glyph-name="uniFEBE" unicode="&#x636;" horiz-adv-x="1343" arabic-form="final" 
d="M1360 13v-10l-17 -3q-70 0 -107 17.5t-49 54.5q-21 -38 -69 -55t-132 -17h-291q-52 0 -76.5 8t-34.5 23q-1 -94 -28 -149.5t-87.5 -80.5t-163.5 -25q-99 0 -156.5 23.5t-83 74t-25.5 133.5q0 51 9.5 94t21 73t11.5 27h15q-3 -7 -13 -34.5t-19.5 -71t-9.5 -88.5
q0 -78 24 -125t78.5 -68.5t147.5 -21.5q99 0 156 23t82.5 74.5t25.5 140.5q-2 75 -29 220h15q21 -111 28 -176q3 -26 15.5 -38t38.5 -17q72 137 133.5 217t120.5 114.5t126 34.5q55 0 97.5 -26t67 -74.5t24.5 -114.5q0 -46 -10 -77q8 -40 42 -58.5t105 -18.5zM1107.5 30.5
q44.5 14.5 64 47.5t19.5 91q0 61 -22.5 106t-62 69.5t-89.5 24.5q-96 0 -181.5 -81.5t-181.5 -270.5q12 -1 41 -1h290q78 0 122.5 14.5zM985 518l24 23l24 -23l-24 -24z" />
    <glyph glyph-name="uniFEBF" unicode="&#x636;" horiz-adv-x="874" arabic-form="initial" 
d="M732.5 359q42.5 -26 67 -74.5t24.5 -114.5q0 -64 -21 -101t-68.5 -53t-131.5 -16h-299q-120 0 -138 81q-10 -41 -49 -61t-117 -20l-17 3v10l17 3q61 0 95 11.5t48.5 37t14.5 71.5v104h15v-104q0 -52 20.5 -80t62.5 -36q71 137 132.5 216.5t120.5 114t126 34.5
q55 0 97.5 -26zM725.5 30.5q44.5 14.5 64 47.5t19.5 91q0 61 -22.5 106t-62 69.5t-89.5 24.5q-96 0 -181.5 -81t-181.5 -270q20 -2 32 -2h299q78 0 122.5 14.5zM601 518l24 23l24 -23l-24 -24z" />
    <glyph glyph-name="uniFEC0" unicode="&#x636;" horiz-adv-x="961" arabic-form="medial" 
d="M978 13v-10l-17 -3q-70 0 -107 17.5t-49 54.5q-21 -39 -69 -55.5t-133 -16.5h-299q-120 0 -138 81q-10 -41 -49 -61t-117 -20l-17 3v10l17 3q61 0 95 11.5t48.5 37t14.5 71.5v104h15v-104q0 -52 20.5 -80t62.5 -36q71 137 132.5 216.5t120.5 114t126 34.5q55 0 97.5 -26
t67 -74.5t24.5 -114.5q0 -46 -10 -77q8 -40 42 -58.5t105 -18.5zM725.5 30.5q44.5 14.5 64 47.5t19.5 91q0 61 -22.5 106t-62 69.5t-89.5 24.5q-96 0 -181.5 -81t-181.5 -270q20 -2 32 -2h299q78 0 122.5 14.5zM601 518l24 23l24 -23l-24 -24z" />
    <glyph glyph-name="uniFEC2" unicode="&#x637;" horiz-adv-x="865" arabic-form="final" 
d="M882 13v-10l-17 -3q-70 0 -107 17.5t-49 54.5q-21 -38 -69 -55t-132 -17h-188q-122 0 -177 4.5t-91 15.5v16q41 -12 107 -16q25 47 64 114v570h15v-538q0 -6 -1 -9q78 124 149 176t153 52q55 0 97.5 -26t67 -74.5t24.5 -114.5q0 -46 -10 -77q8 -40 42 -58.5t105 -18.5z
M629.5 30.5q44.5 14.5 64 47.5t19.5 91q0 61 -22.5 106t-62 69.5t-89.5 24.5q-96 0 -181.5 -81t-181.5 -269q56 -3 144 -3h187q78 0 122.5 14.5z" />
    <glyph glyph-name="uniFEC3" unicode="&#x637;" horiz-adv-x="670" arabic-form="initial" 
d="M528.5 359q42.5 -26 67 -74.5t24.5 -114.5q0 -64 -21 -101t-68.5 -53t-130.5 -16h-400l-17 4v9l17 3h50q29 58 65 118v570h15v-538q0 -6 -1 -9q78 124 149 176t153 52q55 0 97.5 -26zM521.5 30.5q44.5 14.5 64 47.5t19.5 91q0 61 -22.5 106t-62 69.5t-89.5 24.5
q-96 0 -181.5 -82t-182.5 -271h332q78 0 122.5 14.5z" />
    <glyph glyph-name="uniFEC4" unicode="&#x637;" horiz-adv-x="757" arabic-form="medial" 
d="M774 13v-10l-17 -3q-70 0 -107 17.5t-49 54.5q-21 -38 -69 -55t-132 -17h-400l-17 4v9l17 3h50q29 58 65 118v570h15v-538q0 -6 -1 -9q78 124 149 176t153 52q55 0 97.5 -26t67 -74.5t24.5 -114.5q0 -46 -10 -77q8 -40 42 -58.5t105 -18.5zM521.5 30.5q44.5 14.5 64 47.5
t19.5 91q0 61 -22.5 106t-62 69.5t-89.5 24.5q-96 0 -181.5 -82t-182.5 -271h332q78 0 122.5 14.5z" />
    <glyph glyph-name="uniFEC6" unicode="&#x638;" horiz-adv-x="865" arabic-form="final" 
d="M882 13v-10l-17 -3q-70 0 -107 17.5t-49 54.5q-21 -38 -69 -55t-132 -17h-188q-122 0 -177 4.5t-91 15.5v16q41 -12 107 -16q25 47 64 114v570h15v-538q0 -6 -1 -9q78 124 149 176t153 52q55 0 97.5 -26t67 -74.5t24.5 -114.5q0 -46 -10 -77q8 -40 42 -58.5t105 -18.5z
M629.5 30.5q44.5 14.5 64 47.5t19.5 91q0 61 -22.5 106t-62 69.5t-89.5 24.5q-96 0 -181.5 -81t-181.5 -269q56 -3 144 -3h187q78 0 122.5 14.5zM505 518l24 23l24 -23l-24 -24z" />
    <glyph glyph-name="uniFEC7" unicode="&#x638;" horiz-adv-x="670" arabic-form="initial" 
d="M528.5 359q42.5 -26 67 -74.5t24.5 -114.5q0 -64 -21 -101t-68.5 -53t-130.5 -16h-400l-17 4v9l17 3h50q29 58 65 118v570h15v-538q0 -6 -1 -9q78 124 149 176t153 52q55 0 97.5 -26zM521.5 30.5q44.5 14.5 64 47.5t19.5 91q0 61 -22.5 106t-62 69.5t-89.5 24.5
q-96 0 -181.5 -82t-182.5 -271h332q78 0 122.5 14.5zM397 518l24 23l24 -23l-24 -24z" />
    <glyph glyph-name="uniFEC8" unicode="&#x638;" horiz-adv-x="757" arabic-form="medial" 
d="M774 13v-10l-17 -3q-70 0 -107 17.5t-49 54.5q-21 -38 -69 -55t-132 -17h-400l-17 4v9l17 3h50q29 58 65 118v570h15v-538q0 -6 -1 -9q78 124 149 176t153 52q55 0 97.5 -26t67 -74.5t24.5 -114.5q0 -46 -10 -77q8 -40 42 -58.5t105 -18.5zM521.5 30.5q44.5 14.5 64 47.5
t19.5 91q0 61 -22.5 106t-62 69.5t-89.5 24.5q-96 0 -181.5 -82t-182.5 -271h332q78 0 122.5 14.5zM397 518l24 23l24 -23l-24 -24z" />
    <glyph glyph-name="uniFECA" unicode="&#x639;" horiz-adv-x="518" arabic-form="final" 
d="M146.5 -3.5q-38.5 -26.5 -65 -65t-26.5 -91.5q0 -83 51.5 -129t181.5 -46q65 0 116.5 8.5t83.5 18.5t32 11v-16q-1 0 -24 -9.5t-82 -19t-127 -9.5q-136 0 -191.5 49t-55.5 142q0 54 24 93.5t61.5 67.5t103.5 67l26 16q-33 33 -97.5 117.5t-80.5 114.5l2 22q29 26 82 43
t120 17q89 0 130.5 -28.5t41.5 -84.5q0 -44 -30 -84t-58.5 -61.5t-84.5 -60.5q33 -38 73.5 -50.5t123.5 -12.5h41l17 -3v-10l-17 -3h-43q-61 0 -97 6t-61 20.5t-51 44.5q-81 -48 -119.5 -74.5zM92 324q17 -29 83 -116.5t94 -114.5q68 43 118.5 89.5t50.5 101.5q0 50 -38 74
t-119 24q-63 0 -112.5 -16.5t-76.5 -37.5v-4z" />
    <glyph glyph-name="uniFECB" unicode="&#x639;" horiz-adv-x="490" arabic-form="initial" 
d="M445 50v-16q-97 -20 -186 -27t-259 -7l-17 3v10l17 3l147 1q-40 16 -67 57t-27 110q0 95 50 147.5t139 52.5q33 0 63 -8.5t48 -18t23 -12.5v-16q-5 3 -23.5 12.5t-48.5 18t-62 8.5q-81 0 -127.5 -48.5t-46.5 -135.5q0 -77 39.5 -119.5t121.5 -42.5q76 0 216 28z" />
    <glyph glyph-name="uniFECC" unicode="&#x639;" horiz-adv-x="488" arabic-form="medial" 
d="M505 13v-10l-17 -3h-48q-86 0 -126.5 11t-76.5 45q-44 -25 -96.5 -40.5t-122.5 -15.5h-18l-17 3v10l17 3h20q113 0 205 52q-33 34 -97.5 119t-80.5 114l2 22q29 26 82 43t120 17q89 0 130.5 -28.5t41.5 -84.5q0 -44 -29.5 -83.5t-59 -62.5t-82.5 -59q32 -30 70.5 -39.5
t119.5 -9.5h46zM62 309q17 -29 83 -116.5t94 -114.5q68 43 118.5 89.5t50.5 101.5q0 50 -38 74t-119 24q-63 0 -112.5 -16.5t-76.5 -37.5v-4z" />
    <glyph glyph-name="uniFECE" unicode="&#x63a;" horiz-adv-x="518" arabic-form="final" 
d="M146.5 -3.5q-38.5 -26.5 -65 -65t-26.5 -91.5q0 -83 51.5 -129t181.5 -46q65 0 116.5 8.5t83.5 18.5t32 11v-16q-1 0 -24 -9.5t-82 -19t-127 -9.5q-136 0 -191.5 49t-55.5 142q0 54 24 93.5t61.5 67.5t103.5 67l26 16q-33 33 -97.5 117.5t-80.5 114.5l2 22q29 26 82 43
t120 17q89 0 130.5 -28.5t41.5 -84.5q0 -44 -30 -84t-58.5 -61.5t-84.5 -60.5q33 -38 73.5 -50.5t123.5 -12.5h41l17 -3v-10l-17 -3h-43q-61 0 -97 6t-61 20.5t-51 44.5q-81 -48 -119.5 -74.5zM92 324q17 -29 83 -116.5t94 -114.5q68 43 118.5 89.5t50.5 101.5q0 50 -38 74
t-119 24q-63 0 -112.5 -16.5t-76.5 -37.5v-4zM258 531l24 23l24 -23l-24 -24z" />
    <glyph glyph-name="uniFECF" unicode="&#x63a;" horiz-adv-x="490" arabic-form="initial" 
d="M445 50v-16q-97 -20 -186 -27t-259 -7l-17 3v10l17 3l147 1q-40 16 -67 57t-27 110q0 95 50 147.5t139 52.5q33 0 63 -8.5t48 -18t23 -12.5v-16q-5 3 -23.5 12.5t-48.5 18t-62 8.5q-81 0 -127.5 -48.5t-46.5 -135.5q0 -77 39.5 -119.5t121.5 -42.5q76 0 216 28zM218 517
l24 23l24 -23l-24 -24z" />
    <glyph glyph-name="uniFED0" unicode="&#x63a;" horiz-adv-x="488" arabic-form="medial" 
d="M505 13v-10l-17 -3h-48q-86 0 -126.5 11t-76.5 45q-44 -25 -96.5 -40.5t-122.5 -15.5h-18l-17 3v10l17 3h20q113 0 205 52q-33 34 -97.5 119t-80.5 114l2 22q29 26 82 43t120 17q89 0 130.5 -28.5t41.5 -84.5q0 -44 -29.5 -83.5t-59 -62.5t-82.5 -59q32 -30 70.5 -39.5
t119.5 -9.5h46zM62 309q17 -29 83 -116.5t94 -114.5q68 43 118.5 89.5t50.5 101.5q0 50 -38 74t-119 24q-63 0 -112.5 -16.5t-76.5 -37.5v-4zM224 516l24 23l24 -23l-24 -24z" />
    <glyph glyph-name="uniFED2" unicode="&#x641;" horiz-adv-x="882" arabic-form="final" 
d="M899 13v-10l-18 -3q-134 0 -224 38q-54 -21 -116.5 -29.5t-177.5 -8.5q-123 0 -192.5 19t-100 64t-30.5 128q0 28 4.5 56.5t9 48t6.5 24.5h15q-2 -6 -6.5 -26t-9 -48t-4.5 -51q0 -78 29.5 -121t95.5 -60.5t184 -17.5q104 0 164 6.5t109 23.5q-74 32 -105 73t-31 111
q0 85 41.5 130t113.5 45t113.5 -45t41.5 -130q0 -69 -31 -110.5t-106 -72.5q38 -14 92 -22.5t115 -8.5zM527.5 155.5q11.5 -29.5 41.5 -53t87 -48.5q57 25 87 48.5t41.5 53t11.5 74.5q0 79 -37.5 119t-102.5 40t-102.5 -40t-37.5 -119q0 -45 11.5 -74.5zM632 538l24 23
l24 -23l-24 -24z" />
    <glyph glyph-name="uniFED3" unicode="&#x641;" horiz-adv-x="398" arabic-form="initial" 
d="M306.5 419q41.5 -57 41.5 -154v-44q0 -91 -21 -137.5t-74 -65t-156 -18.5h-97l-17 3v10l17 3h96q98 0 147.5 16.5t69.5 57.5t20 122v9q-18 -24 -56 -37t-92 -13q-79 0 -113.5 30t-34.5 96q0 52 20.5 92.5t55.5 63.5t79 23q73 0 114.5 -57zM333 244v21q0 89 -37.5 142
t-103.5 53q-40 0 -72 -21t-50 -58t-18 -84q0 -58 30 -84t103 -26q114 0 148 57zM168 609l24 23l24 -23l-24 -24z" />
    <glyph glyph-name="uniFED4" unicode="&#x641;" horiz-adv-x="452" arabic-form="medial" 
d="M469 13l-3 -10l-15 -3q-135 0 -225 38h-1q-87 -38 -224 -38l-18 3v10l18 3q128 0 206 30q-74 31 -105 71.5t-31 108.5q0 84 41.5 129t113.5 45t113.5 -45t41.5 -129q0 -68 -31 -108.5t-106 -70.5q38 -14 92 -22.5t115 -8.5zM97.5 153q11.5 -29 41.5 -52t87 -47
q57 24 87 47t41.5 52t11.5 73q0 78 -37.5 118t-102.5 40t-102.5 -40t-37.5 -118q0 -44 11.5 -73zM202 533l24 23l24 -23l-24 -24z" />
    <glyph glyph-name="uniFED6" unicode="&#x642;" horiz-adv-x="766" arabic-form="final" 
d="M783 11v-7l-17 -4h-104q-9 -85 -41.5 -131t-96.5 -64.5t-174 -18.5q-120 0 -186.5 22t-95 72.5t-28.5 140.5q0 42 7.5 82.5t15 67t10.5 33.5h16q-3 -8 -11 -37t-15.5 -69t-7.5 -74q0 -85 27 -132.5t90.5 -68.5t177.5 -21q106 0 167 17t92 59.5t38 121.5h-155
q-84 0 -121 31.5t-37 99.5q0 55 21.5 98t59 67t84.5 24q77 0 121.5 -60t44.5 -161v-22q0 -23 -2 -61h103zM649 16q1 15 1 48v35q0 94 -40 149.5t-111 55.5q-43 0 -77 -22t-53.5 -61.5t-19.5 -89.5q0 -60 32.5 -87.5t110.5 -27.5h157zM425 463l25 24l26 -24l-26 -25zM521 463
l26 24l25 -24l-25 -25z" />
    <glyph glyph-name="uniFED7" unicode="&#x642;" horiz-adv-x="398" arabic-form="initial" 
d="M306.5 419q41.5 -57 41.5 -154v-44q0 -91 -21 -137.5t-74 -65t-156 -18.5h-97l-17 3v10l17 3h96q98 0 147.5 16.5t69.5 57.5t20 122v9q-18 -24 -56 -37t-92 -13q-79 0 -113.5 30t-34.5 96q0 52 20.5 92.5t55.5 63.5t79 23q73 0 114.5 -57zM333 244v21q0 89 -37.5 142
t-103.5 53q-40 0 -72 -21t-50 -58t-18 -84q0 -58 30 -84t103 -26q114 0 148 57zM118 619l25 24l26 -24l-26 -25zM214 619l26 24l25 -24l-25 -25z" />
    <glyph glyph-name="uniFED8" unicode="&#x642;" horiz-adv-x="452" arabic-form="medial" 
d="M469 13l-3 -10l-15 -3q-135 0 -225 38h-1q-87 -38 -224 -38l-18 3v10l18 3q128 0 206 30q-74 31 -105 71.5t-31 108.5q0 84 41.5 129t113.5 45t113.5 -45t41.5 -129q0 -68 -31 -108.5t-106 -70.5q38 -14 92 -22.5t115 -8.5zM97.5 153q11.5 -29 41.5 -52t87 -47
q57 24 87 47t41.5 52t11.5 73q0 78 -37.5 118t-102.5 40t-102.5 -40t-37.5 -118q0 -44 11.5 -73zM152 543l25 24l26 -24l-26 -25zM248 543l26 24l25 -24l-25 -25z" />
    <glyph glyph-name="uniFEDA" unicode="&#x643;" horiz-adv-x="865" arabic-form="final" 
d="M882 13v-10l-17 -3q-84 0 -121 25.5t-44 95.5q-16 -46 -56 -72t-107 -37.5t-172 -11.5q-122 0 -192.5 18.5t-101.5 60t-31 114.5q0 30 5 56.5t10 42t7 19.5h15q-2 -5 -7 -22t-10 -43.5t-5 -52.5q0 -67 29.5 -105t96 -55t184.5 -17q128 0 199 16.5t102.5 58.5t31.5 119
v494h15v-494v-3v-48q0 -59 14.5 -89.5t46.5 -42t91 -11.5zM457 294q-32 -18 -104 -18q-56 0 -86 10v16q30 -10 85 -10q65 0 93.5 13.5t28.5 42.5q0 27 -15 38.5t-59 26.5q-46 16 -62 28.5t-16 38.5q0 19 12.5 33t43 28t93.5 37v-17q-58 -21 -86 -34t-38 -23.5t-10 -23.5
q0 -19 12.5 -27.5t57.5 -24.5q33 -12 48.5 -20t24.5 -22t9 -38q0 -36 -32 -54z" />
    <glyph glyph-name="uniFEDB" unicode="&#x643;" horiz-adv-x="429" arabic-form="initial" 
d="M414 692l-374 -249q128 -60 196 -104t96 -87t28 -99q0 -84 -65 -118.5t-159 -34.5h-135l-18 3v10l18 3h135q84 0 146.5 29.5t62.5 107.5q0 51 -27 91.5t-96 85t-199 103.5v15l391 262v-18z" />
    <glyph glyph-name="uniFEDC" unicode="&#x643;" horiz-adv-x="493" arabic-form="medial" 
d="M510 13v-10l-17 -3q-45 0 -75 9t-55.5 32.5t-56.5 67.5q-7 -37 -28 -60t-68.5 -36t-129.5 -13h-79l-18 3v10l18 3h78q84 0 129.5 13t63 35.5t22.5 59.5h1l-71 101q-133 192 -157 217v17l381 250v-18l-365 -242q11 -15 85 -119l142 -200q32 -49 58.5 -73t54 -32.5
t70.5 -8.5z" />
    <glyph glyph-name="uniFEDE" unicode="&#x644;" horiz-adv-x="694" arabic-form="final" 
d="M711 13v-10l-17 -3q-65 0 -100.5 14.5t-51.5 51.5q-1 -96 -26.5 -152.5t-81 -82t-149.5 -25.5q-90 0 -143.5 24t-77.5 73.5t-24 130.5q0 44 9.5 83t21 66.5t11.5 24.5h15q-3 -7 -13 -32t-19.5 -63t-9.5 -78q0 -76 22 -122.5t72 -68.5t135 -22q92 0 144.5 24t75.5 79
t23 150v629h15v-545q0 -59 14.5 -89.5t46.5 -42t91 -11.5z" />
    <glyph glyph-name="uniFEDF" unicode="&#x644;" horiz-adv-x="270" arabic-form="initial" 
d="M-17 3v10l17 3q74 0 107.5 23.5t40.5 60.5t7 108v496h15v-499q0 -73 -9.5 -114t-46 -66t-114.5 -25z" />
    <glyph glyph-name="uniFEE0" unicode="&#x644;" horiz-adv-x="322" arabic-form="medial" 
d="M339 13v-10l-17 -3q-75 0 -112 20.5t-49 73.5q-12 -47 -48.5 -70.5t-112.5 -23.5l-17 3v10l17 3q71 0 104.5 22t42 58t8.5 100v11v1v496h15v-545q0 -59 14.5 -89.5t46.5 -42t91 -11.5z" />
    <glyph glyph-name="uniFEE2" unicode="&#x645;" horiz-adv-x="660" arabic-form="final" 
d="M677 13v-10l-17 -3q-65 0 -97.5 20t-46.5 68q-21 -43 -62 -65.5t-108 -22.5q-56 0 -90.5 14t-51.5 43l-51 -22q-54 -22 -71 -33t-17 -29v-305h-15v305q0 31 25 44q33 19 122 54q-10 26 -10 64q0 57 22 100.5t59.5 66.5t80.5 23q66 0 104 -41t56 -112l15 -59
q11 -41 26 -61.5t40.5 -28t69.5 -7.5zM452 39.5q39 23.5 59 67.5l-16 59q-19 69 -53 106t-93 37q-39 0 -72.5 -21t-54 -60.5t-20.5 -92.5q0 -61 33.5 -90t110.5 -29q67 0 106 23.5z" />
    <glyph glyph-name="uniFEE3" unicode="&#x645;" horiz-adv-x="515" arabic-form="initial" 
d="M424.5 274q40.5 -51 40.5 -139q0 -64 -39 -99.5t-130 -35.5q-126 0 -156 83q-18 -51 -52.5 -67t-86.5 -16l-18 3v10l18 3q35 0 58.5 5.5t43.5 27t31 66.5l14 59q17 73 59 112t106 39q71 0 111.5 -51zM414.5 45q35.5 29 35.5 90q0 83 -37 128.5t-100 45.5q-58 0 -96 -36
t-55 -104l-15 -60q11 -41 42.5 -67t106.5 -26q83 0 118.5 29z" />
    <glyph glyph-name="uniFEE4" unicode="&#x645;" horiz-adv-x="630" arabic-form="medial" 
d="M647 13v-10l-17 -3q-65 0 -97.5 20t-46.5 68q-21 -43 -62 -65.5t-108 -22.5q-68 0 -105 21t-48 64q-13 -48 -52 -66.5t-111 -18.5l-16 3l-1 10l17 3q56 0 88.5 10t49.5 35.5t19 73.5q0 57 22 100.5t59.5 66.5t80.5 23q66 0 104 -41t56 -112l15 -59q11 -41 26 -61.5
t40.5 -28t69.5 -7.5zM422 39.5q39 23.5 59 67.5l-16 59q-19 70 -53 106.5t-93 36.5q-39 0 -72.5 -21t-54 -60.5t-20.5 -92.5q0 -61 33.5 -90t110.5 -29q67 0 106 23.5z" />
    <glyph glyph-name="uniFEE6" unicode="&#x646;" horiz-adv-x="699" arabic-form="final" 
d="M716 13v-10l-17 -3q-47 0 -74.5 11.5t-40.5 38.5v-11q0 -97 -27 -154t-88 -83t-164 -26q-99 0 -156.5 24.5t-83 77t-25.5 139.5q0 51 9.5 94t21 73t11.5 27h15q-3 -7 -13 -34.5t-19.5 -71t-9.5 -88.5q0 -82 24 -131t78.5 -71.5t147.5 -22.5q97 0 154.5 22.5t83.5 73
t26 136.5q0 91 -16 216h15q8 -56 13 -124q6 -57 31.5 -78.5t86.5 -21.5zM294 398l24 23l24 -23l-24 -24z" />
    <glyph glyph-name="uniFEE7" unicode="&#x646;" horiz-adv-x="222" arabic-form="initial" 
d="M-17 3v10l17 3q82 0 119.5 41.5t37.5 131.5q0 60 -16 146h15q16 -77 16 -146q0 -103 -44.5 -146t-127.5 -43zM124 468l24 23l24 -23l-24 -24z" />
    <glyph glyph-name="uniFEE8" unicode="&#x646;" horiz-adv-x="325" arabic-form="medial" 
d="M342 13v-10l-17 -3q-77 0 -113.5 21t-46.5 74q-11 -53 -50 -74t-115 -21l-16 3l-1 10l17 3q59 0 92.5 12t49.5 43t16 89v120h15v-121q0 -59 14.5 -89.5t46.5 -42t91 -11.5zM141 413l24 23l24 -23l-24 -24z" />
    <glyph glyph-name="uniFEE9" unicode="&#x647;" horiz-adv-x="432" arabic-form="isolated" 
d="M79 35q39 -35 132 -35t132 35t39 108q0 120 -44.5 178.5t-126.5 58.5t-126.5 -58.5t-44.5 -178.5q0 -73 39 -108zM95.5 309q40.5 55 115.5 55t115.5 -55t40.5 -166q0 -65 -35.5 -96t-120.5 -31t-120.5 31t-35.5 96q0 111 40.5 166z" />
    <glyph glyph-name="uniFEEA" unicode="&#x647;" horiz-adv-x="472" arabic-form="final" 
d="M489 13v-10l-17 -3q-49 0 -77 13t-41.5 44.5t-16.5 88.5q-17 -20 -54.5 -31.5t-92.5 -11.5q-79 0 -114.5 30t-35.5 85q0 42 28.5 75t91.5 65t176 72v70h15v-322q0 -67 10 -101t35.5 -47.5t75.5 -13.5zM284 132q38 13 52 36v10v236q-107 -39 -167 -69t-87 -60t-27 -68
q0 -50 33 -74t103 -24q55 0 93 13z" />
    <glyph glyph-name="uniFEEB" unicode="&#x647;" horiz-adv-x="596" arabic-form="initial" 
d="M458 303.5q88 -66.5 88 -162.5q0 -141 -155 -141q-46 0 -89 10.5t-77 27.5q-45 -21 -96.5 -29.5t-128.5 -8.5l-17 3v10l17 3q127 0 207 32q-50 29 -84 70t-34 102q0 73 31 121t94 53l-47 12l5 16q198 -52 286 -118.5zM226 56q56 29 89.5 66t33.5 99q0 73 -29 116t-92 43
q-64 0 -94 -45.5t-30 -113.5q0 -101 122 -165zM531 139q0 74 -50.5 124t-157.5 95q41 -44 41 -137q0 -62 -33.5 -103.5t-85.5 -69.5q68 -32 146 -32q140 0 140 123z" />
    <glyph glyph-name="uniFEEC" unicode="&#x647;" horiz-adv-x="497" arabic-form="medial" 
d="M514 13v-10l-17 -3h-137q40 -14 57 -39.5t17 -63.5q0 -67 -42 -104t-117 -37q-189 0 -192 244h-82l-18 3v10l18 3h82v40q0 139 38.5 206.5t116.5 67.5q66 0 103 -51t37 -142q0 -48 -12.5 -77.5t-42.5 -43.5h174zM132.5 250q-34.5 -64 -34.5 -194v-40h140q62 0 93.5 24
t31.5 95q0 84 -33 131.5t-92 47.5q-71 0 -105.5 -64zM379.5 -25q-39.5 25 -141.5 25h-140q3 -228 178 -228q68 0 105.5 33t37.5 92q0 53 -39.5 78z" />
    <glyph glyph-name="uniFEEE" unicode="&#x648;" horiz-adv-x="466" arabic-form="final" 
d="M483 10v-7l-17 -3h-77q-12 -114 -70.5 -176.5t-163.5 -62.5q-37 0 -63.5 6.5t-41.5 14.5t-15 9v16q22 -14 54 -22t67 -8q99 0 152.5 59.5t65.5 163.5h-155q-84 0 -121 31.5t-37 99.5q0 55 21.5 98t59 67t84.5 24q77 0 121.5 -62.5t44.5 -168.5v-24q0 -17 -2 -49h76z
M375 16q2 18 2 28v45q0 98 -40 156.5t-111 58.5q-43 0 -77 -22t-53.5 -61.5t-19.5 -89.5q0 -60 32.5 -87.5t110.5 -27.5h156z" />
    <glyph glyph-name="uniFEF0" unicode="&#x649;" horiz-adv-x="672" arabic-form="final" 
d="M689 13v-10l-18 -3h-86l-58 3q47 -14 73 -41.5t26 -73.5q0 -80 -79 -125.5t-219 -45.5q-148 0 -218 57t-70 178q0 41 7 79t14.5 61.5t10.5 29.5h15q-3 -6 -10.5 -29.5t-14.5 -61t-7 -78.5q0 -112 66.5 -166t206.5 -54q133 0 208 41t75 114q0 53 -38 77.5t-120 42.5v15
q72 -7 203 -7h15z" />
    <glyph glyph-name="uniFEF2" unicode="&#x64a;" horiz-adv-x="672" arabic-form="final" 
d="M689 13v-10l-18 -3h-86l-58 3q47 -14 73 -41.5t26 -73.5q0 -80 -79 -125.5t-219 -45.5q-148 0 -218 57t-70 178q0 41 7 79t14.5 61.5t10.5 29.5h15q-3 -6 -10.5 -29.5t-14.5 -61t-7 -78.5q0 -112 66.5 -166t206.5 -54q133 0 208 41t75 114q0 53 -38 77.5t-120 42.5v15
q72 -7 203 -7h15zM254 -420l25 24l26 -24l-26 -25zM350 -420l26 24l25 -24l-25 -25z" />
    <glyph glyph-name="uniFEF3" unicode="&#x64a;" horiz-adv-x="222" arabic-form="initial" 
d="M-17 3v10l17 3q82 0 119.5 41.5t37.5 131.5q0 60 -16 146h15q16 -77 16 -146q0 -103 -44.5 -146t-127.5 -43zM5 -120l24 23l24 -23l-24 -24zM96 -120l25 23l23 -23l-23 -24z" />
    <glyph glyph-name="uniFEF4" unicode="&#x64a;" horiz-adv-x="325" arabic-form="medial" 
d="M342 13v-10l-17 -3q-77 0 -113.5 21t-46.5 74q-11 -53 -50 -74t-115 -21l-16 3l-1 10l17 3q59 0 92.5 12t49.5 43t16 89v120h15v-121q0 -59 14.5 -89.5t46.5 -42t91 -11.5zM91 -137l25 24l26 -24l-26 -25zM187 -137l26 24l25 -24l-25 -25z" />
    <glyph glyph-name=".notdef" horiz-adv-x="306" 
 />
    <glyph glyph-name=".null" 
 />
    <glyph glyph-name="nonmarkingreturn" unicode="&#xd;" horiz-adv-x="261" 
 />
    <glyph glyph-name="space" unicode=" " horiz-adv-x="200" 
 />
    <glyph glyph-name="exclam" unicode="!" horiz-adv-x="245" 
d="M114 704h15v-514h-15v514zM100 35l23 21l22 -21l-22 -23z" />
    <glyph glyph-name="quotedbl" unicode="&#x22;" horiz-adv-x="384" 
d="M85 488l-3 267h16l3 -267h-16zM285 488l-3 267h16l3 -267h-16z" />
    <glyph glyph-name="numbersign" unicode="#" horiz-adv-x="580" 
d="M148 196l-25 -196h-16l25 196h-82v16h84l45 341h-89v16h91l25 186h15l-24 -186h214l25 186h15l-24 -186h103v-16h-105l-45 -341h110v-16h-112l-25 -196h-16l25 196h-214zM364 212l45 341h-214l-45 -341h214z" />
    <glyph glyph-name="dollar" unicode="$" horiz-adv-x="571" 
d="M161 16.5q47 -11.5 99 -11.5h15v375l-9 1q-99 12 -151.5 52.5t-52.5 120.5q0 88 57.5 144.5t155.5 63.5v103h16v-102h9q119 0 197 -54v-19q-47 33 -93 45.5t-104 12.5h-9v-355l23 -2q99 -12 150 -55.5t51 -131.5q0 -95 -58 -150.5t-166 -62.5v-123h-16v122h-15
q-54 0 -99 10.5t-98 36.5v18q51 -27 98 -38.5zM275 395v352q-70 -5 -114 -34t-63.5 -71t-19.5 -88q0 -72 48 -109t138 -48zM291 6q104 7 156 60.5t52 137.5q0 76 -44.5 118t-138.5 53l-25 3v-372z" />
    <glyph glyph-name="percent" unicode="%" horiz-adv-x="842" 
d="M333 397q-40 -49 -120 -49q-79 0 -119 48.5t-40 140.5v38q0 93 40 144t119 51t119.5 -51t40.5 -144v-38q0 -91 -40 -140zM213 755q-143 0 -143 -180v-38q0 -85 36.5 -129.5t108.5 -44.5q142 0 142 174v38q0 180 -144 180zM668 755l-472 -755h-18l473 755h17zM748 34
q-40 -49 -120 -49q-79 0 -119 48.5t-40 140.5v38q0 93 40 144t119 51t119.5 -51t40.5 -144v-38q0 -91 -40 -140zM628 392q-143 0 -143 -180v-38q0 -85 36.5 -129.5t108.5 -44.5q142 0 142 174v38q0 180 -144 180z" />
    <glyph glyph-name="ampersand" unicode="&#x26;" horiz-adv-x="706" 
d="M133 503q-28 40 -28 92q0 44 21.5 84t65.5 65t108 25q89 0 135 -47t46 -119q0 -52 -29.5 -90t-104.5 -83l-76 -46l265 -243q57 90 57 208h16q0 -124 -62 -218l143 -131h-19l-132 119q-44 -63 -109 -98.5t-138 -35.5q-56 0 -108 21.5t-84.5 64.5t-32.5 103q0 104 106 167
l73 44l-29 27q-56 51 -84 91zM408.5 488.5q25.5 20.5 41 48.5t15.5 66q0 61 -40.5 106t-124.5 45q-59 0 -99.5 -23t-60 -59t-19.5 -76q0 -48 26 -85t80 -86l34 -31l79 48q43 26 68.5 46.5zM425.5 34q61.5 34 103.5 95l-272 247l-71 -43q-103 -62 -103 -156q0 -49 26.5 -89.5
t74.5 -64t108 -23.5q72 0 133.5 34z" />
    <glyph glyph-name="quotesingle" unicode="'" horiz-adv-x="184" 
d="M85 488l-3 267h16l3 -267h-16z" />
    <glyph glyph-name="parenleft" unicode="(" horiz-adv-x="320" 
d="M105 -33q8 -22 33 -34.5t74 -12.5h51v-15h-50q-45 0 -73.5 9t-44 34.5t-15.5 74.5v668q0 51 15.5 77.5t44 35.5t73.5 9h50v-15h-51q-49 0 -74 -12.5t-33 -34.5t-8 -56v-672q0 -34 8 -56z" />
    <glyph glyph-name="parenright" unicode=")" horiz-adv-x="320" 
d="M-97 695q0 34 -8 56t-33 34.5t-74 12.5h-51v15h50q45 0 73.5 -9t44 -35.5t15.5 -77.5v-668q0 -49 -15.5 -74.5t-44 -34.5t-73.5 -9h-50v15h51q49 0 74 12.5t33 34.5t8 56v672z" />
    <glyph glyph-name="asterisk" unicode="*" horiz-adv-x="518" 
d="M251 755h16v-192l182 54l5 -13l-185 -54l138 -185l-11 -9l-137 184l-137 -184l-11 9l138 185l-185 54l5 13l182 -54v192z" />
    <glyph glyph-name="plus" unicode="+" horiz-adv-x="544" 
d="M262 394v210h15v-210h212v-15h-212v-209h-15v209h-207v15h207z" />
    <glyph glyph-name="comma" unicode="," horiz-adv-x="264" 
d="M120 102l-39 -235h-16l39 235h16z" />
    <glyph glyph-name="hyphen" unicode="-" horiz-adv-x="434" 
d="M361 283v-14h-288v14h288z" />
    <glyph glyph-name="period" unicode="." horiz-adv-x="190" 
d="M60 34l25 24l25 -24l-25 -25z" />
    <glyph glyph-name="slash" unicode="/" horiz-adv-x="425" 
d="M393 798l-346 -961h-17l347 961h16z" />
    <glyph glyph-name="zero" unicode="0" horiz-adv-x="617" 
d="M308 763q223 0 223 -259v-261q0 -117 -54 -185t-169 -68q-116 0 -168.5 65t-52.5 188v261q0 259 221 259zM308 5q95 0 151 57t56 174v275q0 237 -207 237q-105 0 -155 -59t-50 -178v-275q0 -231 205 -231z" />
    <glyph glyph-name="one" unicode="1" horiz-adv-x="369" 
d="M239 755h16v-755h-16v738l-207 -99v16z" />
    <glyph glyph-name="two" unicode="2" horiz-adv-x="509" 
d="M57 709q72 54 175 54q208 0 208 -187q0 -68 -27.5 -121t-91.5 -130l-258 -310h387v-15h-405v16l266 321q59 71 86 123t27 117q0 171 -192 171q-48 0 -89.5 -11.5t-85.5 -45.5v18z" />
    <glyph glyph-name="three" unicode="3" horiz-adv-x="543" 
d="M401.5 453.5q-55.5 -47.5 -127.5 -61.5q87 -11 142.5 -63t55.5 -135q0 -61 -31 -107t-88.5 -71.5t-133.5 -25.5q-91 0 -163 39v17q78 -41 163 -41q108 0 172.5 50.5t64.5 138.5q0 63 -35.5 106t-89.5 63t-109 20h-51v15h50q42 0 93.5 19.5t89 61.5t37.5 106
q0 72 -50.5 117.5t-141.5 45.5q-103 0 -186 -68v17q76 66 188 66q98 0 152 -50t54 -129q0 -83 -55.5 -130.5z" />
    <glyph glyph-name="four" unicode="4" horiz-adv-x="536" 
d="M36 184v15l267 556h19l-268 -556h333v248h16v-248h97v-15h-97v-184h-16v184h-351z" />
    <glyph glyph-name="five" unicode="5" horiz-adv-x="554" 
d="M157 1.5q-52 11.5 -88 28.5v17q34 -16 83 -29t99 -13q73 0 125.5 28.5t79 78.5t26.5 112q0 93 -57 144.5t-152 51.5q-47 0 -87.5 -12t-97.5 -41v388h371v-15h-355v-350q47 22 85.5 33.5t87.5 11.5q104 0 162.5 -58.5t58.5 -154.5q0 -70 -31 -122.5t-86.5 -81
t-126.5 -28.5q-45 0 -97 11.5z" />
    <glyph glyph-name="six" unicode="6" horiz-adv-x="589" 
d="M174 20.5q-55 30.5 -85.5 84t-30.5 119.5q0 57 26 111l202 420h17l-173 -359q32 30 75.5 46t94.5 16q71 0 126 -30.5t85.5 -84t30.5 -119.5t-30.5 -119.5t-85.5 -84t-126 -30.5t-126 30.5zM182.5 414.5q-51.5 -28.5 -80 -78.5t-28.5 -112t28.5 -112t80 -78.5t117.5 -28.5
t117.5 28.5t80 78.5t28.5 112t-28.5 112t-80 78.5t-117.5 28.5t-117.5 -28.5z" />
    <glyph glyph-name="seven" unicode="7" horiz-adv-x="475" 
d="M431 740h-405v15h421v-15l-313 -740h-18z" />
    <glyph glyph-name="eight" unicode="8" horiz-adv-x="609" 
d="M134 43.5q-64 53.5 -64 148.5q0 78 44 131.5t120 71.5q-68 16 -106.5 61.5t-38.5 116.5q0 88 59 139t158 51t158 -51t59 -139q0 -71 -38.5 -117t-107.5 -61q75 -18 118 -71.5t43 -131.5q0 -95 -64 -148.5t-170 -53.5t-170 53.5zM160 701.5q-55 -46.5 -55 -128.5
q0 -79 52 -123.5t140 -46.5h9q92 0 146.5 44.5t54.5 125.5q0 82 -55 128.5t-146 46.5t-146 -46.5zM192 363q-50 -24 -78 -68t-28 -103q0 -88 59.5 -137.5t158.5 -49.5t158.5 49.5t59.5 137.5q0 89 -59.5 142t-156.5 53q-64 0 -114 -24z" />
    <glyph glyph-name="nine" unicode="9" horiz-adv-x="589" 
d="M415 732.5q55 -30.5 85.5 -84t30.5 -119.5q0 -57 -26 -111l-202 -418h-17l172 356q-32 -29 -75.5 -45t-93.5 -16q-71 0 -126 30.5t-85.5 84t-30.5 119.5t30.5 119.5t85.5 84t126 30.5t126 -30.5zM406.5 338.5q51.5 28.5 80 78.5t28.5 112t-28.5 112t-80 78.5t-117.5 28.5
t-117.5 -28.5t-80 -78.5t-28.5 -112t28.5 -112t80 -78.5t117.5 -28.5t117.5 28.5z" />
    <glyph glyph-name="colon" unicode=":" horiz-adv-x="313" 
d="M127 42l25 24l25 -24l-25 -25zM127 335l25 24l25 -24l-25 -25z" />
    <glyph glyph-name="semicolon" unicode=";" horiz-adv-x="215" 
d="M125 534v-109h-15v109h15zM121 102l-39 -235h-16l39 235h16z" />
    <glyph glyph-name="less" unicode="&#x3c;" horiz-adv-x="519" 
d="M40 398l401 254v-17l-386 -245l386 -256v-17l-401 263v18z" />
    <glyph glyph-name="equal" unicode="=" horiz-adv-x="610" 
d="M520 504v-15h-434v15h434zM520 254v-15h-434v15h434z" />
    <glyph glyph-name="greater" unicode="&#x3e;" horiz-adv-x="519" 
d="M78 134l386 256l-386 245v17l401 -254v-18l-401 -263v17z" />
    <glyph glyph-name="question" unicode="?" horiz-adv-x="463" 
d="M232 207h-15v47q0 32 10.5 55.5t26.5 39.5t44 39q32 26 51.5 47.5t33 55t13.5 80.5q0 87 -44 135t-123 48q-84 0 -124.5 -51t-45.5 -123q-1 -8 -1 -22h-16q0 15 1 22q6 85 53 137t134 52q92 0 137 -56.5t45 -142.5q0 -50 -14.5 -85.5t-35 -57.5t-53.5 -49
q-27 -23 -42 -37.5t-25 -35.5t-10 -50v-48zM232 109v-109h-15v109h15z" />
    <glyph glyph-name="at" unicode="@" horiz-adv-x="728" 
d="M610 237q-28 -67 -89.5 -109.5t-136.5 -42.5q-71 0 -110.5 41t-39.5 115q0 84 50.5 118t148.5 34h177v32q0 210 -244 210q-142 0 -206.5 -65.5t-64.5 -170.5v-231q0 -297 276 -297h91v-16h-90q-137 0 -215 73t-78 243v216q0 262 285 262q262 0 262 -219v-330h-16v137z
M610 378h-182q-88 0 -133 -32.5t-45 -103.5q0 -61 32.5 -101.5t98.5 -40.5q53 0 105 27.5t86.5 71.5t37.5 92v87z" />
    <glyph glyph-name="A" unicode="A" horiz-adv-x="642" 
d="M48 0h-17l281 755h16l286 -755h-17l-88 233v-2h-375zM504 246l-184 485l-181 -485h365z" />
    <glyph glyph-name="B" unicode="B" horiz-adv-x="625" 
d="M113 755h186q124 0 181 -48t57 -133q0 -77 -50.5 -123.5t-121.5 -64.5q85 -10 139 -55.5t54 -130.5q0 -89 -62 -144.5t-196 -55.5h-187v755zM129 394h174q48 0 98.5 19t85 60t34.5 103q0 78 -57 121t-163 43h-172v-346zM129 15h171q113 0 178 47t65 138q0 90 -67.5 134.5
t-172.5 44.5h-174v-364z" />
    <glyph glyph-name="C" unicode="C" horiz-adv-x="576" 
d="M360 748q-136 0 -202 -80t-66 -241v-106q0 -154 63 -235t200 -81q48 0 97 11t90 35v-19q-79 -42 -186 -42q-144 0 -212 83t-68 255v92q0 343 283 343q109 0 185 -50v-19q-79 54 -184 54z" />
    <glyph glyph-name="D" unicode="D" horiz-adv-x="670" 
d="M292 755q143 0 223 -84.5t80 -250.5v-92q0 -165 -80 -246.5t-223 -81.5h-179v755h179zM128 15h164q127 0 207.5 72.5t80.5 233.5v106q0 150 -75.5 231.5t-212.5 81.5h-164v-725z" />
    <glyph glyph-name="E" unicode="E" horiz-adv-x="578" 
d="M113 0v755h403v-15h-387v-347h358v-15h-358v-363h397v-15h-413z" />
    <glyph glyph-name="F" unicode="F" horiz-adv-x="554" 
d="M129 378v-378h-16v755h403v-15h-387v-347h358v-15h-358z" />
    <glyph glyph-name="G" unicode="G" horiz-adv-x="653" 
d="M477 1q-58 -11 -112 -11q-146 0 -218 84t-72 254v92q0 170 74.5 256.5t218.5 86.5q61 0 116.5 -15t86.5 -35v-19q-36 25 -89.5 39.5t-112.5 14.5q-137 0 -207.5 -80.5t-70.5 -240.5v-106q0 -153 67.5 -234.5t205.5 -81.5q46 0 99.5 9t93.5 28v325h-222v16h238v-351
q-38 -20 -96 -31z" />
    <glyph glyph-name="H" unicode="H" horiz-adv-x="708" 
d="M579 0v385h-450v-385h-16v755h16v-355h450v355h16v-755h-16z" />
    <glyph glyph-name="I" unicode="I" horiz-adv-x="242" 
d="M113 0v755h16v-755h-16z" />
    <glyph glyph-name="J" unicode="J" horiz-adv-x="465" 
d="M50 740v15h308v-585q0 -47 -20.5 -88t-63.5 -66.5t-105 -25.5q-34 0 -69 7.5t-59 19.5v18q23 -14 58.5 -22t69.5 -8q71 0 122.5 41t51.5 128v566h-293z" />
    <glyph glyph-name="K" unicode="K" horiz-adv-x="600" 
d="M296 394l252 361h20l-260 -366l266 -389h-18l-260 379h-167v-379h-16v755h16v-361h167z" />
    <glyph glyph-name="L" unicode="L" horiz-adv-x="527" 
d="M113 0v755h16v-740h388v-15h-404z" />
    <glyph glyph-name="M" unicode="M" horiz-adv-x="817" 
d="M129 0h-16v755h16l279 -487l280 487h16v-755h-16v719l-272 -469h-16l-271 471v-721z" />
    <glyph glyph-name="N" unicode="N" horiz-adv-x="718" 
d="M589 0l-460 725v-725h-16v755h16l460 -728v728h16v-755h-16z" />
    <glyph glyph-name="O" unicode="O" horiz-adv-x="695" 
d="M146 676.5q70 87.5 202 87.5q135 0 203 -90.5t68 -253.5v-115q0 -108 -37.5 -179t-99 -103.5t-135.5 -32.5t-135.5 32.5t-98.5 103.5t-37 179v115q0 169 70 256.5zM122.5 145q30.5 -66 88 -103t136.5 -37q76 0 134 36t90 102.5t32 154.5v129q0 144 -64.5 233t-192.5 89
q-129 0 -191.5 -90.5t-62.5 -231.5v-129q0 -87 30.5 -153z" />
    <glyph glyph-name="P" unicode="P" horiz-adv-x="612" 
d="M507 380q-62 -56 -185 -56h-193v-324h-16v755h205q124 0 187.5 -58t63.5 -155q0 -106 -62 -162zM129 339h194q125 0 177.5 54t52.5 149q0 91 -59.5 144.5t-173.5 53.5h-191v-401z" />
    <glyph glyph-name="Q" unicode="Q" horiz-adv-x="695" 
d="M146 676.5q70 87.5 202 87.5q135 0 203 -90.5t68 -253.5v-115q0 -95 -29.5 -161t-80.5 -104l85 -125h-18l-79 116q-64 -41 -150 -41q-74 0 -135.5 32.5t-98.5 103.5t-37 179v115q0 169 70 256.5zM500 54q49 37 76 100t27 144v129q0 144 -64.5 233t-192.5 89
q-129 0 -191.5 -90.5t-62.5 -231.5v-129q0 -87 30.5 -153t88 -103t136.5 -37q80 0 140 40l-125 186h18z" />
    <glyph glyph-name="R" unicode="R" horiz-adv-x="646" 
d="M592 0h-19l-163 332q-35 -8 -88 -8h-193v-324h-16v755h205q124 0 187.5 -58t63.5 -155q0 -81 -36 -133t-108 -72zM129 339h194q125 0 177.5 54t52.5 149q0 91 -59.5 144.5t-173.5 53.5h-191v-401z" />
    <glyph glyph-name="S" unicode="S" horiz-adv-x="579" 
d="M164 16.5q47 -11.5 99 -11.5q120 0 179.5 54.5t59.5 144.5q0 76 -44.5 118t-138.5 53l-50 6q-99 12 -151.5 52.5t-52.5 120.5q0 62 29 109.5t83 73.5t126 26q119 0 197 -54v-19q-47 33 -93 45.5t-104 12.5q-79 0 -128.5 -28.5t-71.5 -72.5t-22 -93q0 -72 48 -109t138 -48
l50 -6q99 -12 150 -55.5t51 -131.5q0 -101 -66.5 -157.5t-188.5 -56.5q-54 0 -99 10.5t-98 36.5v18q51 -27 98 -38.5z" />
    <glyph glyph-name="T" unicode="T" horiz-adv-x="608" 
d="M319 740v-740h-16v740h-293v15h588v-15h-279z" />
    <glyph glyph-name="U" unicode="U" horiz-adv-x="727" 
d="M622 308q0 -114 -27 -183.5t-84.5 -102t-150.5 -32.5t-148.5 32t-81 101.5t-25.5 184.5v447h16v-454q0 -102 22.5 -166.5t74.5 -97t142 -32.5q139 0 192.5 76t53.5 220v454h16v-447z" />
    <glyph glyph-name="V" unicode="V" horiz-adv-x="640" 
d="M313 0l-286 755h17l277 -732l272 732h17l-281 -755h-16z" />
    <glyph glyph-name="W" unicode="W" horiz-adv-x="904" 
d="M662 0l-105 374l-101 355l-220 -729h-16l-176 755h17l167 -727l220 727h17l204 -727l179 727h17l-187 -755h-16z" />
    <glyph glyph-name="X" unicode="X" horiz-adv-x="575" 
d="M44 755h22l221 -346l222 346h22l-234 -361l256 -394h-22l-244 379l-243 -379h-22l256 394z" />
    <glyph glyph-name="Y" unicode="Y" horiz-adv-x="565" 
d="M290 0h-16v340l-237 415h19l226 -398l232 398h18l-242 -414v-341z" />
    <glyph glyph-name="Z" unicode="Z" horiz-adv-x="565" 
d="M58 15h468v-15h-487v15l469 725h-469v15h487v-15z" />
    <glyph glyph-name="bracketleft" unicode="[" horiz-adv-x="254" 
d="M211 813v-15h-90v-872h90v-15h-106v902h106z" />
    <glyph glyph-name="backslash" unicode="\" horiz-adv-x="425" 
d="M378 -163l-346 961h16l347 -961h-17z" />
    <glyph glyph-name="bracketright" unicode="]" horiz-adv-x="254" 
d="M43 -89v15h90v872h-90v15h106v-902h-106z" />
    <glyph glyph-name="asciicircum" unicode="^" horiz-adv-x="642" 
d="M316 737l-241 -340h-19l252 358h16l262 -358h-20z" />
    <glyph glyph-name="underscore" unicode="_" horiz-adv-x="508" 
d="M34 -69h440v-15h-440v15z" />
    <glyph glyph-name="grave" unicode="`" horiz-adv-x="500" 
d="M355 622h-15l-89 153h16z" />
    <glyph glyph-name="a" unicode="a" horiz-adv-x="511" 
d="M406 98q-26 -53 -78 -80.5t-118 -27.5q-70 0 -113.5 39.5t-43.5 107.5q0 149 204 149h149v65q0 87 -37.5 133t-121.5 46q-51 0 -93.5 -12t-79.5 -44v20q63 51 173 51q92 0 133.5 -48t41.5 -144v-353h-16v98zM406 271h-145q-102 0 -147 -35t-45 -99q0 -61 41 -96.5
t102 -35.5q64 0 119 31t75 94v141z" />
    <glyph glyph-name="b" unicode="b" horiz-adv-x="561" 
d="M110 755v-338q21 56 71.5 92t115.5 36q96 0 146 -69t50 -180v-57q0 -117 -49.5 -183t-144.5 -66q-67 0 -117.5 35.5t-71.5 95.5v-121h-16v755h16zM110 173q5 -42 29 -80.5t65.5 -63t94.5 -24.5q72 0 125 51t53 178v67q0 92 -42 160.5t-137 68.5q-53 0 -94 -24t-65 -63
t-29 -81v-189z" />
    <glyph glyph-name="c" unicode="c" horiz-adv-x="475" 
d="M429 491q-55 39 -149 39q-81 0 -138.5 -48t-57.5 -177v-76q0 -91 46.5 -157.5t152.5 -66.5q78 0 145 43v-16q-28 -20 -67 -31t-82 -11q-103 0 -157 67t-54 177v66q0 117 53.5 181t157.5 64q38 0 78.5 -9t71.5 -27v-18z" />
    <glyph glyph-name="d" unicode="d" horiz-adv-x="561" 
d="M467 755v-755h-16v121q-19 -57 -70 -94t-117 -37q-96 0 -146 69t-50 180v57q0 117 49.5 183t144.5 66q68 0 118 -36.5t71 -97.5v344h16zM84 234q0 -92 42 -160.5t137 -68.5q57 0 99.5 26.5t64.5 68.5t24 86v162q-2 44 -25.5 86t-65.5 69t-98 27q-72 0 -125 -51t-53 -178
v-67z" />
    <glyph glyph-name="e" unicode="e" horiz-adv-x="525" 
d="M85 261v-32q0 -98 40 -161t158 -63q44 0 85 8.5t83 36.5v-16q-67 -44 -169 -44q-116 0 -164.5 64t-48.5 180v66q0 245 201 245q98 0 145 -58.5t47 -176.5v-49h-377zM446 276v31q0 110 -39 166.5t-136 56.5q-80 0 -133 -47.5t-53 -177.5v-29h361z" />
    <glyph glyph-name="f" unicode="f" horiz-adv-x="289" 
d="M109 535v70q0 76 28.5 117t92.5 41q27 0 50 -7v-17q-20 9 -50 9q-53 0 -78.5 -35.5t-25.5 -98.5v-79h140v-15h-140v-520h-17v520h-65v15h65z" />
    <glyph glyph-name="g" unicode="g" horiz-adv-x="562" 
d="M418.5 -188.5q-49.5 -45.5 -147.5 -45.5q-83 0 -168 34v17q81 -36 167 -36q96 0 139 43.5t43 134.5v166q-19 -56 -69.5 -95.5t-118.5 -39.5q-96 0 -146 69t-50 180v57q0 116 49.5 182.5t142.5 66.5q69 0 120 -36.5t72 -97.5v124h16v-575q0 -103 -49.5 -148.5zM84 234
q0 -92 42 -160.5t137 -68.5q56 0 99 28t66.5 71.5t23.5 88.5v155q-2 44 -26 86t-66.5 69t-98.5 27q-72 0 -124.5 -51t-52.5 -178v-67z" />
    <glyph glyph-name="h" unicode="h" horiz-adv-x="570" 
d="M111 755v-356q23 68 74.5 107t124.5 39q95 0 133 -52.5t38 -162.5v-330h-16v323q0 74 -14.5 119t-48 66.5t-92.5 21.5q-78 0 -129.5 -47t-69.5 -126v-357h-17v755h17z" />
    <glyph glyph-name="i" unicode="i" horiz-adv-x="204" 
d="M110 755v-109h-16v109h16zM110 535v-535h-16v535h16z" />
    <glyph glyph-name="j" unicode="j" horiz-adv-x="212" 
d="M118 755v-109h-16v109h16zM77.5 -191q-40.5 -43 -100.5 -43q-25 0 -46 7v17q18 -8 49 -8q53 0 87.5 41t34.5 113v599h16v-599q0 -84 -40.5 -127z" />
    <glyph glyph-name="k" unicode="k" horiz-adv-x="471" 
d="M110 755v-460h122l179 240h21l-188 -245l210 -290h-19l-201 280h-124v-280h-16v755h16z" />
    <glyph glyph-name="l" unicode="l" horiz-adv-x="249" 
d="M107 755v-652q0 -45 17.5 -70t50.5 -25q13 0 31.5 4t27.5 8v-15q-10 -5 -27 -8.5t-32 -3.5q-39 0 -61.5 27t-22.5 84v651h16z" />
    <glyph glyph-name="m" unicode="m" horiz-adv-x="920" 
d="M815 323q0 108 -39.5 157.5t-127.5 49.5q-74 0 -117 -44t-62 -124q1 -10 1 -32v-330h-16v323q0 110 -35 158.5t-122 48.5q-77 0 -123 -46t-64 -127v-357h-16v535h16v-134q22 69 68 106.5t119 37.5q80 0 119.5 -37t49.5 -112q43 149 182 149q97 0 140 -53.5t43 -161.5
v-330h-16v323z" />
    <glyph glyph-name="n" unicode="n" horiz-adv-x="569" 
d="M110 535v-136q23 68 74.5 107t124.5 39q95 0 133 -52.5t38 -162.5v-330h-16v323q0 74 -14.5 119t-48 66.5t-92.5 21.5q-78 0 -129.5 -47t-69.5 -126v-357h-16v535h16z" />
    <glyph glyph-name="o" unicode="o" horiz-adv-x="541" 
d="M270 545q100 0 151 -60t51 -181v-74q0 -240 -202 -240q-201 0 -201 240v74q0 241 201 241zM132 61q47 -55 138 -55q93 0 139.5 55.5t46.5 163.5v84q0 111 -49 166.5t-137 55.5q-89 0 -137 -55.5t-48 -166.5v-84q0 -109 47 -164z" />
    <glyph glyph-name="p" unicode="p" horiz-adv-x="561" 
d="M110 535v-118q21 56 71.5 92t115.5 36q96 0 146 -69t50 -180v-57q0 -117 -49.5 -183t-144.5 -66q-67 0 -117.5 35.5t-71.5 95.5v-343h-16v757h16zM110 173q5 -42 29 -80.5t65.5 -63t94.5 -24.5q72 0 125 51t53 178v67q0 92 -42 160.5t-137 68.5q-53 0 -94 -24t-65 -63
t-29 -81v-189z" />
    <glyph glyph-name="q" unicode="q" horiz-adv-x="561" 
d="M467 535v-757h-16v343q-19 -57 -70 -94t-117 -37q-96 0 -146 69t-50 180v57q0 117 49.5 183t144.5 66q68 0 118 -36.5t71 -97.5v124h16zM84 234q0 -92 42 -160.5t137 -68.5q57 0 99.5 26.5t64.5 68.5t24 86v162q-2 44 -25.5 86t-65.5 69t-98 27q-72 0 -125 -51t-53 -178
v-67z" />
    <glyph glyph-name="r" unicode="r" horiz-adv-x="334" 
d="M110 535v-134q24 67 75 105.5t124 38.5v-16l-10 1q-73 0 -121 -48t-68 -122v-360h-16v535h16z" />
    <glyph glyph-name="s" unicode="s" horiz-adv-x="487" 
d="M232 5q86 0 135.5 36.5t49.5 99.5q0 113 -151 125l-53 4q-76 5 -115 36t-39 95q0 65 54.5 104.5t139.5 39.5q93 0 157 -36v-17q-41 23 -78 30.5t-79 7.5q-81 0 -129.5 -35t-48.5 -93q0 -60 34 -85.5t101 -31.5l60 -5q83 -7 123 -42.5t40 -99.5q0 -70 -57.5 -109
t-142.5 -39q-45 0 -89 10t-78 29v16q80 -40 166 -40z" />
    <glyph glyph-name="t" unicode="t" horiz-adv-x="338" 
d="M135 535v165h17v-165h157v-15h-157v-388q0 -126 118 -126q30 0 50 9v-17q-23 -7 -50 -7q-135 0 -135 142v387h-111v15h111z" />
    <glyph glyph-name="u" unicode="u" horiz-adv-x="569" 
d="M459 0v135q-23 -68 -74.5 -106.5t-124.5 -38.5q-95 0 -133 52.5t-38 162.5v330h16v-323q0 -74 14.5 -119t48 -66.5t92.5 -21.5q78 0 129.5 47t69.5 126v357h16v-535h-16z" />
    <glyph glyph-name="v" unicode="v" horiz-adv-x="520" 
d="M253 0l-226 535h17l217 -515l212 515h17l-221 -535h-16z" />
    <glyph glyph-name="w" unicode="w" horiz-adv-x="817" 
d="M595 0l-188 512l-182 -512h-16l-176 535h17l167 -513l182 513h17l186 -513l163 513h17l-171 -535h-16z" />
    <glyph glyph-name="x" unicode="x" horiz-adv-x="466" 
d="M45 535h19l168 -243l170 243h19l-179 -256l196 -279h-19l-186 267l-186 -267h-19l196 279z" />
    <glyph glyph-name="y" unicode="y" horiz-adv-x="520" 
d="M189 -222h-18l84 222l-225 535h17l217 -515l212 515h17l-221 -535z" />
    <glyph glyph-name="z" unicode="z" horiz-adv-x="459" 
d="M57 15h361v-15h-379v16l359 504h-351v15h368v-15z" />
    <glyph glyph-name="braceleft" unicode="{" horiz-adv-x="342" 
d="M131.5 335.5q-24.5 23.5 -76.5 25.5h-26v15h26q52 1 76.5 25t24.5 81v211q0 71 35 95.5t91 24.5h20v-15h-20q-61 0 -85.5 -23.5t-24.5 -79.5v-213q0 -46 -15.5 -74t-50.5 -40q35 -11 50.5 -39t15.5 -74v-223q0 -56 24.5 -79.5t85.5 -23.5h20v-15h-20q-56 0 -91 24.5
t-35 95.5v221q0 57 -24.5 80.5z" />
    <glyph glyph-name="bar" unicode="|" horiz-adv-x="227" 
d="M105 -93v891h17v-891h-17z" />
    <glyph glyph-name="braceright" unicode="}" horiz-adv-x="342" 
d="M151 -61.5q-35 -24.5 -91 -24.5h-20v15h20q61 0 85.5 23.5t24.5 79.5v223q0 46 15.5 74t50.5 39q-35 12 -50.5 40t-15.5 74v213q0 56 -24.5 79.5t-85.5 23.5h-20v15h20q56 0 91 -24.5t35 -95.5v-211q0 -58 24 -81.5t76 -24.5h27v-15h-20q-56 0 -81.5 -23.5t-25.5 -82.5
v-221q0 -71 -35 -95.5z" />
    <glyph glyph-name="asciitilde" unicode="~" horiz-adv-x="643" 
d="M90 249q25 22 59 37t68 15q26 0 52 -8t62 -24q33 -14 55 -21.5t43 -7.5q30 0 63.5 17t64.5 45v-16q-24 -25 -59 -43t-69 -18q-23 0 -46 7.5t-63 23.5q-37 15 -59.5 22.5t-44.5 7.5q-29 0 -63.5 -14.5t-62.5 -38.5v16z" />
    <glyph glyph-name="DEL" horiz-adv-x="252" 
 />
    <glyph glyph-name="exclamdown" unicode="&#xa1;" horiz-adv-x="212" 
d="M114 535v-109h-16v109h16zM114 -220h-16v548h16v-548z" />
    <glyph glyph-name="cent" unicode="&#xa2;" horiz-adv-x="499" 
d="M432 491q-55 39 -149 39h-8v-525h11q78 0 145 43v-16q-28 -20 -67 -31t-82 -11h-7v-113h-14v114q-93 7 -141.5 73t-48.5 170v66q0 110 48.5 173.5t141.5 70.5v114h14v-113h7q38 0 78.5 -9t71.5 -27v-18zM261 529q-74 -6 -124 -55.5t-50 -168.5v-76q0 -86 41 -150.5
t133 -72.5v523z" />
    <glyph glyph-name="sterling" unicode="&#xa3;" horiz-adv-x="576" 
d="M54 0v15h110v356h-110v15h110v133q0 111 52.5 180.5t153.5 69.5q61 0 92 -16t34 -17v-20q-62 37 -131 37q-92 0 -138.5 -67.5t-46.5 -167.5v-132h263v-15h-263v-356h355v-15h-481z" />
    <glyph glyph-name="currency" unicode="&#xa4;" horiz-adv-x="608" 
d="M302 178q39 0 74 12t61 34l79 -89l12 10l-80 90q50 52 50 132v38q0 82 -50 135l80 91l-12 10l-79 -90q-26 24 -61 36.5t-74 12.5q-77 0 -132 -47l-77 88l-12 -10l78 -89q-25 -25 -38.5 -60t-13.5 -77v-38q0 -84 51 -135l-77 -87l12 -10l77 87q53 -44 132 -44zM458 274
q-24 -40 -65 -61t-91 -21t-90.5 20.5t-64.5 60.5t-24 94v38q0 54 24 95t65 63t90 22q50 0 91 -22t65 -63t24 -95v-38q0 -53 -24 -93z" />
    <glyph glyph-name="yen" unicode="&#xa5;" horiz-adv-x="597" 
d="M312 340h199v-15h-199v-155h199v-15h-199v-155h-16v155h-219v15h219v155h-219v15h219l-237 415h19l226 -398l232 398h18l-242 -414v-1z" />
    <glyph glyph-name="brokenbar" unicode="&#xa6;" horiz-adv-x="225" 
d="M104 441v357h17v-357h-17zM104 -93v357h17v-357h-17z" />
    <glyph glyph-name="section" unicode="&#xa7;" horiz-adv-x="585" 
d="M472.5 111.5q40.5 -37.5 40.5 -106.5q0 -92 -67 -139.5t-179 -47.5q-117 0 -195 54v19q45 -32 92 -45t100 -13q104 0 168.5 42.5t64.5 127.5q0 75 -49.5 108t-139.5 44l-48 6q-84 11 -135.5 44t-51.5 90q0 55 48 96.5t126 51.5q-76 16 -124 56.5t-48 108.5
q0 78 63.5 119.5t168.5 41.5q117 0 195 -54v-19q-47 33 -93 45.5t-100 12.5q-117 0 -167.5 -44.5t-50.5 -103.5q0 -70 59.5 -107t135.5 -47l47 -6q85 -11 133.5 -48.5t48.5 -97.5q0 -62 -47.5 -96t-112.5 -42q77 -13 117.5 -50.5zM192.5 418q-46.5 -18 -75 -50t-28.5 -71
q0 -100 195 -125l20 -3q80 4 137.5 34.5t57.5 92.5q0 52 -44 89t-125 47l-40 5q-51 -1 -97.5 -19z" />
    <glyph glyph-name="dieresis" unicode="&#xa8;" horiz-adv-x="478" 
d="M150 735v-99h-16v99h16zM338 735v-99h-16v99h16z" />
    <glyph glyph-name="copyright" unicode="&#xa9;" horiz-adv-x="915" 
d="M653 716q90 -53 143 -143t53 -196t-53 -196t-143 -142.5t-196 -52.5t-196 52.5t-142.5 142.5t-52.5 196t52.5 196t142.5 143t196 53t196 -53zM645.5 51q86.5 51 137.5 137.5t51 188.5t-51 189t-137.5 138t-188.5 51t-188.5 -51t-137 -138t-50.5 -189t50.5 -189
t137 -137.5t188.5 -50.5t188.5 51zM463 619q-188 0 -188 -207v-70q0 -100 45 -152t140 -52q77 0 133 30v-17q-56 -28 -132 -28q-103 0 -152.5 55.5t-49.5 167.5v61q0 227 204 227q79 0 131 -33v-18q-57 36 -131 36z" />
    <glyph glyph-name="ordfeminine" unicode="&#xaa;" horiz-adv-x="445" 
d="M335 471q-19 -34 -55.5 -51.5t-79.5 -17.5q-54 0 -84.5 26t-30.5 73q0 98 146 98h104v40q0 58 -27 86.5t-90 28.5q-71 0 -118 -37v18q46 34 120 34q70 0 100.5 -31.5t30.5 -97.5v-231h-16v62zM335 585h-102q-132 0 -132 -84q0 -40 28 -62.5t73 -22.5q44 0 82 20.5
t51 62.5v86zM355 329v-16h-267v16h267z" />
    <glyph glyph-name="guillemotleft" unicode="&#xab;" horiz-adv-x="424" 
d="M188 66h-17l-115 216l118 208h17l-118 -207zM358 66h-17l-115 216l118 208h17l-118 -207z" />
    <glyph glyph-name="logicalnot" unicode="&#xac;" horiz-adv-x="698" 
d="M608 426v-316h-17v300h-525v16h542z" />
    <glyph glyph-name="registered" unicode="&#xae;" horiz-adv-x="699" 
d="M489 731.5q64 -37.5 101.5 -101.5t37.5 -139q0 -76 -37.5 -140t-101.5 -101.5t-140 -37.5t-139.5 37.5t-101 101.5t-37.5 140q0 75 37.5 139t101 101.5t139.5 37.5t140 -37.5zM481.5 261.5q60.5 35.5 96 96.5t35.5 133q0 71 -35.5 132t-96 96.5t-132.5 35.5t-132 -35.5
t-95.5 -96.5t-35.5 -132q0 -72 35 -133t95.5 -96.5t132.5 -35.5t132.5 35.5zM485 312h-19l-76 158q-17 -3 -36 -3h-90v-155h-15v362h103q60 0 90.5 -27.5t30.5 -73.5q0 -79 -68 -100zM264 482h90q56 0 79.5 23.5t23.5 66.5q0 41 -27 64.5t-78 23.5h-88v-178z" />
    <glyph glyph-name="macron" unicode="&#xaf;" horiz-adv-x="506" 
d="M377 673v-15h-265v15h265z" />
    <glyph glyph-name="degree" unicode="&#xb0;" horiz-adv-x="491" 
d="M376 398q-49 -50 -131 -50t-130.5 49.5t-48.5 139.5v38q0 90 49 142.5t130 52.5q82 0 131 -52.5t49 -142.5v-38q0 -89 -49 -139zM368 702q-41 53 -123 53q-80 0 -121.5 -52t-41.5 -128v-38q0 -82 45.5 -128t117.5 -46q80 0 122 48t42 126v38q0 74 -41 127z" />
    <glyph glyph-name="plusminus" unicode="&#xb1;" horiz-adv-x="598" 
d="M289 394v210h15v-210h212v-15h-212v-209h-15v209h-207v15h207zM516 45v-15h-434v15h434z" />
    <glyph glyph-name="uni00B2" unicode="&#xb2;" horiz-adv-x="287" 
d="M47 790q36 27 87 27q101 0 101 -91q0 -32 -13.5 -58.5t-42.5 -61.5l-118 -142h180v-14h-199v12l128 155q26 31 38 55t12 53q0 40 -22.5 58.5t-67.5 18.5q-21 0 -41 -6t-42 -23v17z" />
    <glyph glyph-name="uni00B3" unicode="&#xb3;" horiz-adv-x="300" 
d="M220 669.5q-23 -22.5 -55 -31.5q38 -7 61.5 -31.5t23.5 -61.5q0 -45 -34 -72.5t-90 -27.5q-44 0 -78 18v16q39 -20 78 -20q49 0 79 23t30 63q0 43 -32.5 64t-74.5 21h-25v14h25q20 0 43.5 9t40 28t16.5 47q0 34 -23.5 54t-64.5 20q-47 0 -88 -33v16q36 32 90 32
q47 0 74 -24.5t27 -63.5q0 -37 -23 -59.5z" />
    <glyph glyph-name="acute" unicode="&#xb4;" horiz-adv-x="500" 
d="M286 622h-15l88 153h16z" />
    <glyph glyph-name="uni00B5" unicode="&#xb5;" horiz-adv-x="600" 
d="M477 0v135q-23 -68 -74.5 -106.5t-124.5 -38.5q-64 0 -101 23t-54 71v-306h-16v757h16v-323q0 -74 14.5 -119t48 -66.5t92.5 -21.5q78 0 129.5 47t69.5 126v357h16v-535h-16z" />
    <glyph glyph-name="paragraph" unicode="&#xb6;" horiz-adv-x="634" 
d="M328 0v303h-33q-122 0 -184.5 58t-62.5 160q0 104 63.5 169t187.5 65h44v-755h-15zM506 0v755h14v-755h-14zM328 318v422h-28q-114 0 -175 -60t-61 -159q0 -105 66 -154t166 -49h32z" />
    <glyph glyph-name="periodcentered" unicode="&#xb7;" horiz-adv-x="181" 
d="M98 438v-109h-15v109h15z" />
    <glyph glyph-name="cedilla" unicode="&#xb8;" horiz-adv-x="442" 
d="M205 5v-43h10q54 0 84 -22t30 -66q0 -46 -32.5 -71t-92.5 -25h-18v15h9q118 0 118 79q0 75 -104 75h-20v58h16z" />
    <glyph glyph-name="uni00B9" unicode="&#xb9;" horiz-adv-x="220" 
d="M133 812h12v-362h-15v344l-96 -46v15z" />
    <glyph glyph-name="ordmasculine" unicode="&#xba;" horiz-adv-x="463" 
d="M123 715q37 40 107 40q71 0 108.5 -40t37.5 -120v-48q0 -79 -37.5 -119t-108.5 -40q-70 0 -107 40t-37 119v48q0 80 37 120zM134.5 439q32.5 -36 95.5 -36q64 0 97 36t33 105v55q0 70 -34.5 106t-95.5 36q-62 0 -95 -36t-33 -106v-55q0 -69 32.5 -105zM366 315v-16h-267
v16h267z" />
    <glyph glyph-name="guillemotright" unicode="&#xbb;" horiz-adv-x="414" 
d="M80 490l118 -208l-115 -216h-17l115 217l-118 207h17zM240 490l118 -208l-115 -216h-17l115 217l-118 207h17z" />
    <glyph glyph-name="onequarter" unicode="&#xbc;" horiz-adv-x="690" 
d="M140 755h12v-362h-15v344l-96 -46v15zM606 754l-505 -754h-20l507 754h18zM419 85v14l124 263h16l-125 -263h151v116h15v-116h46v-14h-46v-85h-15v85h-166z" />
    <glyph glyph-name="onehalf" unicode="&#xbd;" horiz-adv-x="758" 
d="M140 755h12v-362h-15v344l-96 -46v15zM606 754l-505 -754h-20l507 754h18zM512 340q36 27 87 27q101 0 101 -91q0 -32 -13.5 -58.5t-42.5 -61.5l-118 -142h180v-14h-199v12l128 155q26 31 38 55t12 53q0 40 -22.5 58.5t-67.5 18.5q-21 0 -41 -6t-42 -23v17z" />
    <glyph glyph-name="threequarters" unicode="&#xbe;" horiz-adv-x="724" 
d="M232 620.5q-23 -22.5 -55 -31.5q38 -7 61.5 -31.5t23.5 -61.5q0 -45 -34 -72.5t-90 -27.5q-44 0 -78 18v16q39 -20 78 -20q49 0 79 23t30 63q0 43 -32.5 64t-74.5 21h-25v14h25q20 0 43.5 9t40 28t16.5 47q0 34 -23.5 54t-64.5 20q-47 0 -88 -33v16q36 32 90 32
q47 0 74 -24.5t27 -63.5q0 -37 -23 -59.5zM640 754l-505 -754h-20l507 754h18zM453 85v14l124 263h16l-125 -263h151v116h15v-116h46v-14h-46v-85h-15v85h-166z" />
    <glyph glyph-name="questiondown" unicode="&#xbf;" horiz-adv-x="458" 
d="M228 426v109h15v-109h-15zM228 328h15v-47q0 -32 -10.5 -55.5t-26.5 -39.5t-44 -39q-32 -26 -51.5 -47.5t-33 -55t-13.5 -80.5q0 -87 44 -135t123 -48q84 0 124.5 51t45.5 123q1 8 1 22h16q0 -15 -1 -22q-6 -85 -53 -137t-134 -52q-92 0 -137 56.5t-45 142.5
q0 50 14.5 85.5t35 57.5t53.5 49q27 23 42 37.5t25 35.5t10 50v48z" />
    <glyph glyph-name="Agrave" unicode="&#xc0;" horiz-adv-x="642" 
d="M320 827h-15l-77 133h15zM48 0h-17l281 755h16l286 -755h-17l-88 233v-2h-375zM504 246l-184 485l-181 -485h365z" />
    <glyph glyph-name="Aacute" unicode="&#xc1;" horiz-adv-x="642" 
d="M338 827h-15l77 133h15zM48 0h-17l281 755h16l286 -755h-17l-88 233v-2h-375zM504 246l-184 485l-181 -485h365z" />
    <glyph glyph-name="Acircumflex" unicode="&#xc2;" horiz-adv-x="642" 
d="M437 827l-114 123l-112 -123h-16l120 133h16l122 -133h-16zM48 0h-17l281 755h16l286 -755h-17l-88 233v-2h-375zM504 246l-184 485l-181 -485h365z" />
    <glyph glyph-name="Atilde" unicode="&#xc3;" horiz-adv-x="642" 
d="M176 847q16 15 37 25.5t42 10.5q15 0 32 -5.5t40 -16.5q42 -19 61 -19t37.5 11.5t39.5 30.5v-17q-15 -17 -36.5 -29t-42.5 -12q-14 0 -28.5 5t-41.5 16q-23 10 -36 15t-25 5q-17 0 -35.5 -9t-43.5 -26v15zM48 0h-17l281 755h16l286 -755h-17l-88 233v-2h-375zM504 246
l-184 485l-181 -485h365z" />
    <glyph glyph-name="Adieresis" unicode="&#xc4;" horiz-adv-x="642" 
d="M235 945v-99h-16v99h16zM423 945v-99h-16v99h16zM48 0h-17l281 755h16l286 -755h-17l-88 233v-2h-375zM504 246l-184 485l-181 -485h365z" />
    <glyph glyph-name="Aring" unicode="&#xc5;" horiz-adv-x="642" 
d="M248 834.5q-29 26.5 -29 72.5t29.5 74t72.5 28q44 0 73.5 -28t29.5 -74t-29.5 -72.5t-73.5 -26.5t-73 26.5zM260 970q-25 -24 -25 -63t24.5 -61.5t61.5 -22.5t62 22.5t25 61.5t-25 63t-62 24q-36 0 -61 -24zM48 0h-17l281 755h16l286 -755h-17l-88 233v-2h-375zM504 246
l-184 485l-181 -485h365z" />
    <glyph glyph-name="AE" unicode="&#xc6;" horiz-adv-x="896" 
d="M834 755v-15h-387v-347h358v-15h-358v-363h397v-15h-413v231h-279l-125 -231h-18l409 755h416zM431 246v494h-4l-267 -494h271z" />
    <glyph glyph-name="Ccedilla" unicode="&#xc7;" horiz-adv-x="576" 
d="M138.5 79.5q-62.5 82.5 -62.5 248.5v92q0 343 283 343q109 0 185 -50v-19q-79 54 -184 54q-136 0 -202 -80t-66 -241v-106q0 -154 63 -235t200 -81q48 0 97 11t90 35v-19q-79 -42 -186 -42h-6v-33h10q54 0 84 -22t30 -66q0 -46 -32.5 -71t-92.5 -25h-18v15h9
q118 0 118 79q0 75 -104 75h-20v49q-133 6 -195.5 88.5z" />
    <glyph glyph-name="Egrave" unicode="&#xc8;" horiz-adv-x="578" 
d="M338 827h-15l-77 133h15zM113 0v755h403v-15h-387v-347h358v-15h-358v-363h397v-15h-413z" />
    <glyph glyph-name="Eacute" unicode="&#xc9;" horiz-adv-x="578" 
d="M301 827h-15l77 133h15zM113 0v755h403v-15h-387v-347h358v-15h-358v-363h397v-15h-413z" />
    <glyph glyph-name="Ecircumflex" unicode="&#xca;" horiz-adv-x="578" 
d="M437 827l-114 123l-112 -123h-16l120 133h16l122 -133h-16zM113 0v755h403v-15h-387v-347h358v-15h-358v-363h397v-15h-413z" />
    <glyph glyph-name="Edieresis" unicode="&#xcb;" horiz-adv-x="578" 
d="M234 945v-99h-16v99h16zM422 945v-99h-16v99h16zM113 0v755h403v-15h-387v-347h358v-15h-358v-363h397v-15h-413z" />
    <glyph glyph-name="Igrave" unicode="&#xcc;" horiz-adv-x="242" 
d="M134 827h-15l-77 133h15zM113 0v755h16v-755h-16z" />
    <glyph glyph-name="Iacute" unicode="&#xcd;" horiz-adv-x="242" 
d="M135 827h-15l77 133h15zM113 0v755h16v-755h-16z" />
    <glyph glyph-name="Icircumflex" unicode="&#xce;" horiz-adv-x="242" 
d="M237 827l-114 123l-112 -123h-16l120 133h16l122 -133h-16zM113 0v755h16v-755h-16z" />
    <glyph glyph-name="Idieresis" unicode="&#xcf;" horiz-adv-x="242" 
d="M36 945v-99h-16v99h16zM224 945v-99h-16v99h16zM113 0v755h16v-755h-16z" />
    <glyph glyph-name="Eth" unicode="&#xd0;" horiz-adv-x="672" 
d="M115 396v359h179q143 0 223 -84.5t80 -250.5v-92q0 -165 -80 -246.5t-223 -81.5h-179v381h-82v15h82zM130 15h164q127 0 207.5 72.5t80.5 233.5v106q0 150 -75.5 231.5t-212.5 81.5h-164v-344h163v-15h-163v-366z" />
    <glyph glyph-name="Ntilde" unicode="&#xd1;" horiz-adv-x="718" 
d="M221 847q16 15 37 25.5t42 10.5q15 0 32 -5.5t40 -16.5q42 -19 61 -19t37.5 11.5t39.5 30.5v-17q-15 -17 -36.5 -29t-42.5 -12q-14 0 -28.5 5t-41.5 16q-23 10 -36 15t-25 5q-17 0 -35.5 -9t-43.5 -26v15zM589 0l-460 725v-725h-16v755h16l460 -728v728h16v-755h-16z" />
    <glyph glyph-name="Ograve" unicode="&#xd2;" horiz-adv-x="695" 
d="M350 827h-15l-77 133h15zM146 676.5q70 87.5 202 87.5q135 0 203 -90.5t68 -253.5v-115q0 -108 -37.5 -179t-99 -103.5t-135.5 -32.5t-135.5 32.5t-98.5 103.5t-37 179v115q0 169 70 256.5zM122.5 145q30.5 -66 88 -103t136.5 -37q76 0 134 36t90 102.5t32 154.5v129
q0 144 -64.5 233t-192.5 89q-129 0 -191.5 -90.5t-62.5 -231.5v-129q0 -87 30.5 -153z" />
    <glyph glyph-name="Oacute" unicode="&#xd3;" horiz-adv-x="695" 
d="M345 827h-15l77 133h15zM146 676.5q70 87.5 202 87.5q135 0 203 -90.5t68 -253.5v-115q0 -108 -37.5 -179t-99 -103.5t-135.5 -32.5t-135.5 32.5t-98.5 103.5t-37 179v115q0 169 70 256.5zM122.5 145q30.5 -66 88 -103t136.5 -37q76 0 134 36t90 102.5t32 154.5v129
q0 144 -64.5 233t-192.5 89q-129 0 -191.5 -90.5t-62.5 -231.5v-129q0 -87 30.5 -153z" />
    <glyph glyph-name="Ocircumflex" unicode="&#xd4;" horiz-adv-x="695" 
d="M467 827l-114 123l-112 -123h-16l120 133h16l122 -133h-16zM146 676.5q70 87.5 202 87.5q135 0 203 -90.5t68 -253.5v-115q0 -108 -37.5 -179t-99 -103.5t-135.5 -32.5t-135.5 32.5t-98.5 103.5t-37 179v115q0 169 70 256.5zM122.5 145q30.5 -66 88 -103t136.5 -37
q76 0 134 36t90 102.5t32 154.5v129q0 144 -64.5 233t-192.5 89q-129 0 -191.5 -90.5t-62.5 -231.5v-129q0 -87 30.5 -153z" />
    <glyph glyph-name="Otilde" unicode="&#xd5;" horiz-adv-x="695" 
d="M204 847q16 15 37 25.5t42 10.5q15 0 32 -5.5t40 -16.5q42 -19 61 -19t37.5 11.5t39.5 30.5v-17q-15 -17 -36.5 -29t-42.5 -12q-14 0 -28.5 5t-41.5 16q-23 10 -36 15t-25 5q-17 0 -35.5 -9t-43.5 -26v15zM146 676.5q70 87.5 202 87.5q135 0 203 -90.5t68 -253.5v-115
q0 -108 -37.5 -179t-99 -103.5t-135.5 -32.5t-135.5 32.5t-98.5 103.5t-37 179v115q0 169 70 256.5zM122.5 145q30.5 -66 88 -103t136.5 -37q76 0 134 36t90 102.5t32 154.5v129q0 144 -64.5 233t-192.5 89q-129 0 -191.5 -90.5t-62.5 -231.5v-129q0 -87 30.5 -153z" />
    <glyph glyph-name="Odieresis" unicode="&#xd6;" horiz-adv-x="695" 
d="M263 945v-99h-16v99h16zM451 945v-99h-16v99h16zM146 676.5q70 87.5 202 87.5q135 0 203 -90.5t68 -253.5v-115q0 -108 -37.5 -179t-99 -103.5t-135.5 -32.5t-135.5 32.5t-98.5 103.5t-37 179v115q0 169 70 256.5zM122.5 145q30.5 -66 88 -103t136.5 -37q76 0 134 36
t90 102.5t32 154.5v129q0 144 -64.5 233t-192.5 89q-129 0 -191.5 -90.5t-62.5 -231.5v-129q0 -87 30.5 -153z" />
    <glyph glyph-name="multiply" unicode="&#xd7;" horiz-adv-x="477" 
d="M227 381l-148 149l11 11l148 -149l150 150l11 -11l-150 -150l147 -147l-10 -11l-148 147l-146 -146l-11 11z" />
    <glyph glyph-name="Oslash" unicode="&#xd8;" horiz-adv-x="695" 
d="M146 676.5q70 87.5 202 87.5q130 0 199 -86l54 77h19l-63 -90q62 -87 62 -245v-115q0 -108 -37.5 -179t-99 -103.5t-135.5 -32.5q-60 0 -112.5 21.5t-89.5 64.5l-52 -75h-17l60 87q-60 81 -60 217v115q0 169 70 256.5zM147 103l389 559q-68 87 -190 87
q-129 0 -191.5 -90.5t-62.5 -231.5v-129q0 -119 55 -195zM155 91q33 -42 82 -64t110 -22q76 0 134 36t90 102.5t32 154.5v129q0 135 -57 222z" />
    <glyph glyph-name="Ugrave" unicode="&#xd9;" horiz-adv-x="727" 
d="M385 827h-15l-77 133h15zM622 308q0 -114 -27 -183.5t-84.5 -102t-150.5 -32.5t-148.5 32t-81 101.5t-25.5 184.5v447h16v-454q0 -102 22.5 -166.5t74.5 -97t142 -32.5q139 0 192.5 76t53.5 220v454h16v-447z" />
    <glyph glyph-name="Uacute" unicode="&#xda;" horiz-adv-x="727" 
d="M359 827h-15l77 133h15zM622 308q0 -114 -27 -183.5t-84.5 -102t-150.5 -32.5t-148.5 32t-81 101.5t-25.5 184.5v447h16v-454q0 -102 22.5 -166.5t74.5 -97t142 -32.5q139 0 192.5 76t53.5 220v454h16v-447z" />
    <glyph glyph-name="Ucircumflex" unicode="&#xdb;" horiz-adv-x="727" 
d="M490 827l-114 123l-112 -123h-16l120 133h16l122 -133h-16zM622 308q0 -114 -27 -183.5t-84.5 -102t-150.5 -32.5t-148.5 32t-81 101.5t-25.5 184.5v447h16v-454q0 -102 22.5 -166.5t74.5 -97t142 -32.5q139 0 192.5 76t53.5 220v454h16v-447z" />
    <glyph glyph-name="Udieresis" unicode="&#xdc;" horiz-adv-x="727" 
d="M278 945v-99h-16v99h16zM466 945v-99h-16v99h16zM622 308q0 -114 -27 -183.5t-84.5 -102t-150.5 -32.5t-148.5 32t-81 101.5t-25.5 184.5v447h16v-454q0 -102 22.5 -166.5t74.5 -97t142 -32.5q139 0 192.5 76t53.5 220v454h16v-447z" />
    <glyph glyph-name="Yacute" unicode="&#xdd;" horiz-adv-x="565" 
d="M252 827h-15l77 133h15zM290 0h-16v340l-237 415h19l226 -398l232 398h18l-242 -414v-341z" />
    <glyph glyph-name="Thorn" unicode="&#xde;" horiz-adv-x="618" 
d="M318 635q124 0 187.5 -58t63.5 -155q0 -106 -62 -162t-185 -56h-193v-204h-16v755h16v-120h189zM129 219h194q125 0 177.5 54t52.5 149q0 91 -59.5 144.5t-173.5 53.5h-191v-401z" />
    <glyph glyph-name="germandbls" unicode="&#xdf;" horiz-adv-x="576" 
d="M280 15q59 0 108 20t78.5 61t29.5 101v40q0 51 -30 92t-77.5 63.5t-98.5 22.5h-56v15h54q52 0 95 23.5t68 63t25 84.5q0 64 -43.5 108t-129.5 44q-103 0 -148 -62t-45 -156v-535h-16v535q0 106 51 170t156 64q89 0 140 -46t51 -122q0 -62 -39.5 -111.5t-113.5 -67.5
q49 -7 88.5 -33t62 -64.5t22.5 -81.5v-40q0 -59 -26.5 -105t-78.5 -72t-126 -26h-59v15h58z" />
    <glyph glyph-name="agrave" unicode="&#xe0;" horiz-adv-x="511" 
d="M259 622h-15l-89 153h16zM406 98q-26 -53 -78 -80.5t-118 -27.5q-70 0 -113.5 39.5t-43.5 107.5q0 149 204 149h149v65q0 87 -37.5 133t-121.5 46q-51 0 -93.5 -12t-79.5 -44v20q63 51 173 51q92 0 133.5 -48t41.5 -144v-353h-16v98zM406 271h-145q-102 0 -147 -35
t-45 -99q0 -61 41 -96.5t102 -35.5q64 0 119 31t75 94v141z" />
    <glyph glyph-name="aacute" unicode="&#xe1;" horiz-adv-x="511" 
d="M244 622h-15l88 153h16zM406 98q-26 -53 -78 -80.5t-118 -27.5q-70 0 -113.5 39.5t-43.5 107.5q0 149 204 149h149v65q0 87 -37.5 133t-121.5 46q-51 0 -93.5 -12t-79.5 -44v20q63 51 173 51q92 0 133.5 -48t41.5 -144v-353h-16v98zM406 271h-145q-102 0 -147 -35
t-45 -99q0 -61 41 -96.5t102 -35.5q64 0 119 31t75 94v141z" />
    <glyph glyph-name="acircumflex" unicode="&#xe2;" horiz-adv-x="511" 
d="M382 622l-141 142l-143 -142h-17l152 153h16l150 -153h-17zM406 98q-26 -53 -78 -80.5t-118 -27.5q-70 0 -113.5 39.5t-43.5 107.5q0 149 204 149h149v65q0 87 -37.5 133t-121.5 46q-51 0 -93.5 -12t-79.5 -44v20q63 51 173 51q92 0 133.5 -48t41.5 -144v-353h-16v98z
M406 271h-145q-102 0 -147 -35t-45 -99q0 -61 41 -96.5t102 -35.5q64 0 119 31t75 94v141z" />
    <glyph glyph-name="atilde" unicode="&#xe3;" horiz-adv-x="511" 
d="M108 657q16 15 37 25.5t42 10.5q15 0 32 -5.5t40 -16.5q42 -19 61 -19t37.5 11.5t39.5 30.5v-17q-15 -17 -36.5 -29t-42.5 -12q-14 0 -28.5 5t-41.5 16q-23 10 -36 15t-25 5q-17 0 -35.5 -9t-43.5 -26v15zM406 98q-26 -53 -78 -80.5t-118 -27.5q-70 0 -113.5 39.5
t-43.5 107.5q0 149 204 149h149v65q0 87 -37.5 133t-121.5 46q-51 0 -93.5 -12t-79.5 -44v20q63 51 173 51q92 0 133.5 -48t41.5 -144v-353h-16v98zM406 271h-145q-102 0 -147 -35t-45 -99q0 -61 41 -96.5t102 -35.5q64 0 119 31t75 94v141z" />
    <glyph glyph-name="adieresis" unicode="&#xe4;" horiz-adv-x="511" 
d="M161 735v-99h-16v99h16zM349 735v-99h-16v99h16zM406 98q-26 -53 -78 -80.5t-118 -27.5q-70 0 -113.5 39.5t-43.5 107.5q0 149 204 149h149v65q0 87 -37.5 133t-121.5 46q-51 0 -93.5 -12t-79.5 -44v20q63 51 173 51q92 0 133.5 -48t41.5 -144v-353h-16v98zM406 271h-145
q-102 0 -147 -35t-45 -99q0 -61 41 -96.5t102 -35.5q64 0 119 31t75 94v141z" />
    <glyph glyph-name="aring" unicode="&#xe5;" horiz-adv-x="511" 
d="M174 620.5q-29 26.5 -29 72.5t29.5 74t72.5 28q44 0 73.5 -28t29.5 -74t-29.5 -72.5t-73.5 -26.5t-73 26.5zM186 756q-25 -24 -25 -63t24.5 -61.5t61.5 -22.5t62 22.5t25 61.5t-25 63t-62 24q-36 0 -61 -24zM406 98q-26 -53 -78 -80.5t-118 -27.5q-70 0 -113.5 39.5
t-43.5 107.5q0 149 204 149h149v65q0 87 -37.5 133t-121.5 46q-51 0 -93.5 -12t-79.5 -44v20q63 51 173 51q92 0 133.5 -48t41.5 -144v-353h-16v98zM406 271h-145q-102 0 -147 -35t-45 -99q0 -61 41 -96.5t102 -35.5q64 0 119 31t75 94v141z" />
    <glyph glyph-name="ae" unicode="&#xe6;" horiz-adv-x="862" 
d="M705 13.5q41 8.5 83 36.5v-16q-67 -44 -169 -44q-86 0 -134 35t-66 100q-21 -59 -79.5 -97t-129.5 -38q-70 0 -113.5 39.5t-43.5 107.5q0 149 204 149h149v65q0 87 -37.5 133t-121.5 46q-51 0 -93.5 -12t-79.5 -44v20q63 51 173 51q78 0 119.5 -35t51.5 -104
q38 139 189 139q98 0 145 -58.5t47 -176.5v-39h-377v-42q0 -98 40 -161t158 -63q44 0 85 8.5zM422 286h361v21q0 110 -39 166.5t-136 56.5q-80 0 -133 -47.5t-53 -177.5v-19zM406 234v37h-145q-102 0 -147 -35t-45 -99q0 -61 41 -96.5t102 -35.5q42 0 84 17t73.5 50.5
t42.5 81.5q-6 38 -6 80z" />
    <glyph glyph-name="ccedilla" unicode="&#xe7;" horiz-adv-x="475" 
d="M114 66.5q-46 65.5 -46 167.5v66q0 117 53.5 181t157.5 64q38 0 78.5 -9t71.5 -27v-18q-55 39 -149 39q-81 0 -138.5 -48t-57.5 -177v-76q0 -91 46.5 -157.5t152.5 -66.5q78 0 145 43v-16q-28 -20 -67 -31t-82 -11l-14 1v-29h10q54 0 84 -22t30 -66q0 -46 -32.5 -71
t-92.5 -25h-18v15h9q118 0 118 79q0 75 -104 75h-20v45q-89 9 -135 74.5z" />
    <glyph glyph-name="egrave" unicode="&#xe8;" horiz-adv-x="525" 
d="M292 622h-15l-89 153h16zM85 261v-32q0 -98 40 -161t158 -63q44 0 85 8.5t83 36.5v-16q-67 -44 -169 -44q-116 0 -164.5 64t-48.5 180v66q0 245 201 245q98 0 145 -58.5t47 -176.5v-49h-377zM446 276v31q0 110 -39 166.5t-136 56.5q-80 0 -133 -47.5t-53 -177.5v-29h361z
" />
    <glyph glyph-name="eacute" unicode="&#xe9;" horiz-adv-x="525" 
d="M267 622h-15l88 153h16zM85 229q0 -98 40 -161t158 -63q44 0 85 8.5t83 36.5v-16q-67 -44 -169 -44q-116 0 -164.5 64t-48.5 180v66q0 245 201 245q98 0 145 -58.5t47 -176.5v-49h-377v-32zM446 276v31q0 110 -39 166.5t-136 56.5q-80 0 -133 -47.5t-53 -177.5v-29h361z
" />
    <glyph glyph-name="ecircumflex" unicode="&#xea;" horiz-adv-x="525" 
d="M411 622l-141 142l-143 -142h-17l152 153h16l150 -153h-17zM85 261v-32q0 -98 40 -161t158 -63q44 0 85 8.5t83 36.5v-16q-67 -44 -169 -44q-116 0 -164.5 64t-48.5 180v66q0 245 201 245q98 0 145 -58.5t47 -176.5v-49h-377zM446 276v31q0 110 -39 166.5t-136 56.5
q-80 0 -133 -47.5t-53 -177.5v-29h361z" />
    <glyph glyph-name="edieresis" unicode="&#xeb;" horiz-adv-x="525" 
d="M182 735v-99h-16v99h16zM370 735v-99h-16v99h16zM85 229q0 -98 40 -161t158 -63q44 0 85 8.5t83 36.5v-16q-67 -44 -169 -44q-116 0 -164.5 64t-48.5 180v66q0 245 201 245q98 0 145 -58.5t47 -176.5v-49h-377v-32zM446 276v31q0 110 -39 166.5t-136 56.5
q-80 0 -133 -47.5t-53 -177.5v-29h361z" />
    <glyph glyph-name="igrave" unicode="&#xec;" horiz-adv-x="204" 
d="M116 622h-15l-89 153h16zM110 535v-535h-16v535h16z" />
    <glyph glyph-name="iacute" unicode="&#xed;" horiz-adv-x="204" 
d="M111 622h-15l88 153h16zM110 535v-535h-16v535h16z" />
    <glyph glyph-name="icircumflex" unicode="&#xee;" horiz-adv-x="204" 
d="M243 622l-141 142l-143 -142h-17l152 153h16l150 -153h-17zM110 535v-535h-16v535h16z" />
    <glyph glyph-name="idieresis" unicode="&#xef;" horiz-adv-x="204" 
d="M17 735v-99h-16v99h16zM205 735v-99h-16v99h16zM110 535v-535h-16v535h16z" />
    <glyph glyph-name="eth" unicode="&#xf0;" horiz-adv-x="554" 
d="M300 729q99 -70 135.5 -169.5t36.5 -252.5v-73q0 -128 -50.5 -188.5t-151.5 -60.5q-104 0 -152.5 62.5t-48.5 186.5v56q0 122 48.5 185.5t141.5 63.5q79 0 123 -41t70 -103q-7 123 -46.5 196.5t-114.5 124.5l-83 -123l-13 8l83 124q-29 18 -59 34l8 14q22 -11 60 -35
l49 73l13 -9zM126.5 63q41.5 -62 144.5 -62q185 0 185 228v66q0 48 -20 101t-65 90.5t-115 37.5q-85 0 -128 -60t-43 -169v-66q0 -104 41.5 -166z" />
    <glyph glyph-name="ntilde" unicode="&#xf1;" horiz-adv-x="569" 
d="M141 657q16 15 37 25.5t42 10.5q15 0 32 -5.5t40 -16.5q42 -19 61 -19t37.5 11.5t39.5 30.5v-17q-15 -17 -36.5 -29t-42.5 -12q-14 0 -28.5 5t-41.5 16q-23 10 -36 15t-25 5q-17 0 -35.5 -9t-43.5 -26v15zM110 535v-136q23 68 74.5 107t124.5 39q95 0 133 -52.5
t38 -162.5v-330h-16v323q0 74 -14.5 119t-48 66.5t-92.5 21.5q-78 0 -129.5 -47t-69.5 -126v-357h-16v535h16z" />
    <glyph glyph-name="ograve" unicode="&#xf2;" horiz-adv-x="541" 
d="M285 622h-15l-89 153h16zM270 545q100 0 151 -60t51 -181v-74q0 -240 -202 -240q-201 0 -201 240v74q0 241 201 241zM132 61q47 -55 138 -55q93 0 139.5 55.5t46.5 163.5v84q0 111 -49 166.5t-137 55.5q-89 0 -137 -55.5t-48 -166.5v-84q0 -109 47 -164z" />
    <glyph glyph-name="oacute" unicode="&#xf3;" horiz-adv-x="541" 
d="M282 622h-15l88 153h16zM270 545q100 0 151 -60t51 -181v-74q0 -240 -202 -240q-201 0 -201 240v74q0 241 201 241zM132 61q47 -55 138 -55q93 0 139.5 55.5t46.5 163.5v84q0 111 -49 166.5t-137 55.5q-89 0 -137 -55.5t-48 -166.5v-84q0 -109 47 -164z" />
    <glyph glyph-name="ocircumflex" unicode="&#xf4;" horiz-adv-x="541" 
d="M414 617l-141 142l-143 -142h-17l152 153h16l150 -153h-17zM270 545q100 0 151 -60t51 -181v-74q0 -240 -202 -240q-201 0 -201 240v74q0 241 201 241zM132 61q47 -55 138 -55q93 0 139.5 55.5t46.5 163.5v84q0 111 -49 166.5t-137 55.5q-89 0 -137 -55.5t-48 -166.5v-84
q0 -109 47 -164z" />
    <glyph glyph-name="otilde" unicode="&#xf5;" horiz-adv-x="541" 
d="M133 657q16 15 37 25.5t42 10.5q15 0 32 -5.5t40 -16.5q42 -19 61 -19t37.5 11.5t39.5 30.5v-17q-15 -17 -36.5 -29t-42.5 -12q-14 0 -28.5 5t-41.5 16q-23 10 -36 15t-25 5q-17 0 -35.5 -9.5t-43.5 -25.5v15zM270 545q100 0 151 -60t51 -181v-74q0 -240 -202 -240
q-201 0 -201 240v74q0 241 201 241zM132 61q47 -55 138 -55q93 0 139.5 55.5t46.5 163.5v84q0 111 -49 166.5t-137 55.5q-89 0 -137 -55.5t-48 -166.5v-84q0 -109 47 -164z" />
    <glyph glyph-name="odieresis" unicode="&#xf6;" horiz-adv-x="541" 
d="M190 735v-99h-16v99h16zM378 735v-99h-16v99h16zM270 545q100 0 151 -60t51 -181v-74q0 -240 -202 -240q-201 0 -201 240v74q0 241 201 241zM132 61q47 -55 138 -55q93 0 139.5 55.5t46.5 163.5v84q0 111 -49 166.5t-137 55.5q-89 0 -137 -55.5t-48 -166.5v-84
q0 -109 47 -164z" />
    <glyph glyph-name="divide" unicode="&#xf7;" horiz-adv-x="604" 
d="M310 624v-109h-16v109h16zM519 394v-15h-434v15h434zM310 256v-109h-16v109h16z" />
    <glyph glyph-name="oslash" unicode="&#xf8;" horiz-adv-x="541" 
d="M270 545q94 0 145 -54l38 54h19l-46 -67q46 -61 46 -174v-74q0 -240 -202 -240q-96 0 -145 53l-37 -53h-19l45 66q-45 58 -45 174v74q0 241 201 241zM124 70l282 407q-48 54 -136 54q-89 0 -137 -55.5t-48 -166.5v-84q0 -101 39 -155zM135 58q46 -52 135 -52
q93 0 139.5 55.5t46.5 163.5v84q0 98 -40 155z" />
    <glyph glyph-name="ugrave" unicode="&#xf9;" horiz-adv-x="569" 
d="M315 622h-15l-89 153h16zM459 0v135q-23 -68 -74.5 -106.5t-124.5 -38.5q-95 0 -133 52.5t-38 162.5v330h16v-323q0 -74 14.5 -119t48 -66.5t92.5 -21.5q78 0 129.5 47t69.5 126v357h16v-535h-16z" />
    <glyph glyph-name="uacute" unicode="&#xfa;" horiz-adv-x="569" 
d="M276 622h-15l88 153h16zM459 0v135q-23 -68 -74.5 -106.5t-124.5 -38.5q-95 0 -133 52.5t-38 162.5v330h16v-323q0 -74 14.5 -119t48 -66.5t92.5 -21.5q78 0 129.5 47t69.5 126v357h16v-535h-16z" />
    <glyph glyph-name="ucircumflex" unicode="&#xfb;" horiz-adv-x="569" 
d="M420 622l-141 142l-143 -142h-17l152 153h16l150 -153h-17zM459 0v135q-23 -68 -74.5 -106.5t-124.5 -38.5q-95 0 -133 52.5t-38 162.5v330h16v-323q0 -74 14.5 -119t48 -66.5t92.5 -21.5q78 0 129.5 47t69.5 126v357h16v-535h-16z" />
    <glyph glyph-name="udieresis" unicode="&#xfc;" horiz-adv-x="569" 
d="M200 735v-99h-16v99h16zM388 735v-99h-16v99h16zM459 0v135q-23 -68 -74.5 -106.5t-124.5 -38.5q-95 0 -133 52.5t-38 162.5v330h16v-323q0 -74 14.5 -119t48 -66.5t92.5 -21.5q78 0 129.5 47t69.5 126v357h16v-535h-16z" />
    <glyph glyph-name="yacute" unicode="&#xfd;" horiz-adv-x="520" 
d="M269 622h-15l88 153h16zM189 -222h-18l84 222l-225 535h17l217 -515l212 515h17l-221 -535z" />
    <glyph glyph-name="thorn" unicode="&#xfe;" horiz-adv-x="561" 
d="M110 755v-338q21 56 71.5 92t115.5 36q96 0 146 -69t50 -180v-57q0 -117 -49.5 -183t-144.5 -66q-67 0 -117.5 35.5t-71.5 95.5v-343h-16v977h16zM110 173q5 -42 29 -80.5t65.5 -63t94.5 -24.5q72 0 125 51t53 178v67q0 92 -42 160.5t-137 68.5q-53 0 -94 -24t-65 -63
t-29 -81v-189z" />
    <glyph glyph-name="ydieresis" unicode="&#xff;" horiz-adv-x="520" 
d="M181 736v-99h-16v99h16zM369 736v-99h-16v99h16zM189 -222h-18l84 222l-225 535h17l217 -515l212 515h17l-221 -535z" />
    <glyph glyph-name="dotlessi" unicode="&#x131;" horiz-adv-x="204" 
d="M110 535v-535h-16v535h16z" />
    <glyph glyph-name="Lslash" unicode="&#x141;" horiz-adv-x="533" 
d="M342 471v-15l-207 -112v-329h388v-15h-404v335l-99 -53v15l99 53v405h16v-396z" />
    <glyph glyph-name="lslash" unicode="&#x142;" horiz-adv-x="313" 
d="M36 301v17l97 58v379h16v-370l117 71v-16l-117 -71v-266q0 -45 17.5 -70t50.5 -25q13 0 31.5 4t27.5 8v-15q-10 -5 -27 -8.5t-32 -3.5q-39 0 -61.5 27t-22.5 84v255z" />
    <glyph glyph-name="OE" unicode="&#x152;" horiz-adv-x="1068" 
d="M603 0v191q-26 -102 -95.5 -151.5t-160.5 -49.5q-74 0 -135.5 32.5t-98.5 103.5t-37 179v115q0 169 70 256.5t202 87.5q105 0 168.5 -55t86.5 -159v205h403v-15h-387v-347h358v-15h-358v-363h397v-15h-413zM122.5 145q30.5 -66 88 -103t136.5 -37q76 0 134 36t90 102.5
t32 154.5v129q0 144 -64.5 233t-192.5 89q-129 0 -191.5 -90.5t-62.5 -231.5v-129q0 -87 30.5 -153z" />
    <glyph glyph-name="oe" unicode="&#x153;" horiz-adv-x="912" 
d="M472 218q1 -93 42.5 -153t155.5 -60q44 0 85 8.5t83 36.5v-16q-67 -44 -169 -44q-173 0 -205 155q-33 -155 -194 -155q-201 0 -201 240v74q0 241 201 241q163 0 194 -158q33 158 193 158q98 0 145 -58.5t47 -176.5v-49h-377v-43zM132 61q47 -55 138 -55q93 0 139.5 55.5
t46.5 163.5v84q0 111 -49 166.5t-137 55.5q-89 0 -137 -55.5t-48 -166.5v-84q0 -109 47 -164zM833 307q0 110 -39 166.5t-136 56.5q-79 0 -131 -45t-55 -169v-40h361v31z" />
    <glyph glyph-name="Scaron" unicode="&#x160;" horiz-adv-x="579" 
d="M179 960l112 -123l114 123h16l-122 -133h-16l-120 133h16zM164 16.5q47 -11.5 99 -11.5q120 0 179.5 54.5t59.5 144.5q0 76 -44.5 118t-138.5 53l-50 6q-99 12 -151.5 52.5t-52.5 120.5q0 62 29 109.5t83 73.5t126 26q119 0 197 -54v-19q-47 33 -93 45.5t-104 12.5
q-79 0 -128.5 -28.5t-71.5 -72.5t-22 -93q0 -72 48 -109t138 -48l50 -6q99 -12 150 -55.5t51 -131.5q0 -101 -66.5 -157.5t-188.5 -56.5q-54 0 -99 10.5t-98 36.5v18q51 -27 98 -38.5z" />
    <glyph glyph-name="scaron" unicode="&#x161;" horiz-adv-x="487" 
d="M98 775l141 -142l143 142h17l-152 -153h-16l-150 153h17zM232 5q86 0 135.5 36.5t49.5 99.5q0 113 -151 125l-53 4q-76 5 -115 36t-39 95q0 65 54.5 104.5t139.5 39.5q93 0 157 -36v-17q-41 23 -78 30.5t-79 7.5q-81 0 -129.5 -35t-48.5 -93q0 -60 34 -85.5t101 -31.5
l60 -5q83 -7 123 -42.5t40 -99.5q0 -70 -57.5 -109t-142.5 -39q-45 0 -89 10t-78 29v16q80 -40 166 -40z" />
    <glyph glyph-name="Ydieresis" unicode="&#x178;" horiz-adv-x="565" 
d="M200 945v-99h-16v99h16zM388 945v-99h-16v99h16zM290 0h-16v340l-237 415h19l226 -398l232 398h18l-242 -414v-341z" />
    <glyph glyph-name="Zcaron" unicode="&#x17d;" horiz-adv-x="565" 
d="M174 960l112 -123l114 123h16l-122 -133h-16l-120 133h16zM58 15h468v-15h-487v15l469 725h-469v15h487v-15z" />
    <glyph glyph-name="zcaron" unicode="&#x17e;" horiz-adv-x="459" 
d="M101 775l141 -142l143 142h17l-152 -153h-16l-150 153h17zM57 15h361v-15h-379v16l359 504h-351v15h368v-15z" />
    <glyph glyph-name="florin" unicode="&#x192;" horiz-adv-x="524" 
d="M440 406v-15h-221v-445q0 -60 -8.5 -97t-39.5 -60t-95 -23q-32 0 -68.5 10.5t-61.5 22.5v16q23 -14 62.5 -24t70.5 -10q52 0 79 19t36 54.5t9 94.5v442h-142v15h142v153q0 104 47 157t136 53q40 0 69 -9t58 -24v-19q-31 18 -60 27.5t-66 9.5q-86 0 -127 -52.5t-41 -146.5
v-149h221z" />
    <glyph glyph-name="circumflex" unicode="&#x2c6;" horiz-adv-x="500" 
d="M392 622l-141 142l-143 -142h-17l152 153h16l150 -153h-17z" />
    <glyph glyph-name="caron" unicode="&#x2c7;" horiz-adv-x="563" 
d="M138 775l141 -142l143 142h17l-152 -153h-16l-150 153h17z" />
    <glyph glyph-name="breve" unicode="&#x2d8;" horiz-adv-x="531" 
d="M364.5 659q-33.5 -36 -99.5 -36q-67 0 -99.5 36.5t-32.5 96.5h16q0 -59 30 -88.5t87 -29.5q116 0 116 118h16q0 -61 -33.5 -97z" />
    <glyph glyph-name="dotaccent" unicode="&#x2d9;" horiz-adv-x="427" 
d="M233 735v-99h-16v99h16z" />
    <glyph glyph-name="ring" unicode="&#x2da;" horiz-adv-x="475" 
d="M165 612.5q-29 26.5 -29 72.5t29.5 74t72.5 28q44 0 73.5 -28t29.5 -74t-29.5 -72.5t-73.5 -26.5t-73 26.5zM177 748q-25 -24 -25 -63t24.5 -61.5t61.5 -22.5t62 22.5t25 61.5t-25 63t-62 24q-36 0 -61 -24z" />
    <glyph glyph-name="ogonek" unicode="&#x2db;" horiz-adv-x="442" 
d="M401 2q-70 -18 -102.5 -52t-32.5 -73q0 -34 23.5 -59t78.5 -25h53v-15h-53q-58 0 -88 26t-30 70q0 53 40.5 87.5t104.5 52.5z" />
    <glyph glyph-name="tilde" unicode="&#x2dc;" horiz-adv-x="489" 
d="M103 657q16 15 37 25.5t42 10.5q15 0 32 -5.5t40 -16.5q42 -19 61 -19t37.5 11.5t39.5 30.5v-17q-15 -17 -36.5 -29t-42.5 -12q-14 0 -28.5 5t-41.5 16q-23 10 -36 15t-25 5q-17 0 -35.5 -9.5t-43.5 -25.5v15z" />
    <glyph glyph-name="hungarumlaut" unicode="&#x2dd;" horiz-adv-x="574" 
d="M168 622h-15l88 153h16zM318 622h-15l88 153h16z" />
    <glyph glyph-name="pi" unicode="&#x3c0;" horiz-adv-x="566" 
d="M110 520v-520h-16v535h378v-535h-16v520h-346z" />
    <glyph glyph-name="uni060C" unicode="&#x60c;" horiz-adv-x="194" 
d="M60 0l39 235h15l-39 -235h-15z" />
    <glyph glyph-name="uni060D" unicode="&#x60d;" horiz-adv-x="299" 
d="M28 -77l267 779h15l-267 -779h-15z" />
    <glyph glyph-name="uni061B" unicode="&#x61b;" horiz-adv-x="240" 
d="M91 203l39 235h15l-39 -235h-15zM86 42l25 24l25 -24l-25 -25z" />
    <glyph glyph-name="uni061E" unicode="&#x61e;" horiz-adv-x="664" 
d="M90 -113l25 24l25 -24l-25 -25zM313 347l25 24l25 -24l-25 -25zM524 -113l25 24l25 -24l-25 -25z" />
    <glyph glyph-name="uni061F" unicode="&#x61f;" horiz-adv-x="395" 
d="M249 216q0 46 -8 70.5t-24 40.5t-55 43q-53 37 -79.5 61t-39 51t-12.5 65q0 74 46.5 117t131.5 43q72 0 140 -34v-16q-34 16 -65.5 25t-69.5 9q-168 0 -168 -143q0 -35 12.5 -60.5t38.5 -48t74 -55.5q39 -27 58 -46.5t27 -46.5t8 -75v-43h-15v43zM238 35l23 21l22 -21
l-22 -23z" />
    <glyph glyph-name="uni0621" unicode="&#x621;" horiz-adv-x="403" 
d="M342 51l21 3v-15q-85 -16 -323 -42v16l114 12q-38 11 -61 41.5t-23 96.5q0 77 42.5 120.5t109.5 43.5q26 0 47.5 -6.5t34.5 -13.5t16 -9v-16q-3 2 -16 9t-34.5 13t-47.5 6q-64 0 -100.5 -39t-36.5 -108q0 -61 25 -94.5t89 -33.5q45 0 143 16z" />
    <glyph glyph-name="uni0622" unicode="&#x622;" horiz-adv-x="215" 
d="M100 659h15v-659h-15v659zM99 772q-28 8 -41 8t-24.5 -3.5t-19 -7.5t-9.5 -5v16q10 6 25 11t28 5q11 0 22 -2.5t21 -5.5q11 -3 23.5 -6t26.5 -3q16 0 28 2.5t18 5.5t7 4v-16q-1 -1 -7 -4t-18 -5.5t-30 -2.5t-50 9z" />
    <glyph glyph-name="uni0623" unicode="&#x623;" horiz-adv-x="215" 
d="M100 659h15v-659h-15v659zM140 775q33 4 39 5v-16l-22 -3q-64 -8 -141 -15v16l38 4q-27 17 -27 60q0 38 21 56.5t53 18.5q15 0 31.5 -7t16.5 -8v-16q0 1 -16 8t-32 7q-59 0 -59 -59q0 -30 12.5 -42.5t35.5 -12.5q17 0 50 4z" />
    <glyph glyph-name="uni0624" unicode="&#x624;" horiz-adv-x="432" 
d="M347.5 260q44.5 -60 44.5 -161v-24q0 -148 -59 -231t-178 -83q-37 0 -63.5 6.5t-41.5 14.5t-15 9v16q22 -14 54 -22t67 -8q108 0 162 73.5t59 199.5q-17 -24 -58 -37t-100 -13q-84 0 -121 31.5t-37 99.5q0 55 21.5 98t59 67t84.5 24q77 0 121.5 -60zM377 73v26
q0 94 -40 149.5t-111 55.5q-43 0 -77 -22t-53.5 -61.5t-19.5 -89.5q0 -60 32.5 -87.5t110.5 -27.5q124 0 158 57zM258 436q33 4 39 5v-16l-22 -3q-64 -8 -141 -15v16l38 4q-27 17 -27 60q0 38 21 56.5t53 18.5q15 0 31.5 -7t16.5 -8v-16q0 1 -16 8t-32 7q-59 0 -59 -59
q0 -30 12.5 -42.5t35.5 -12.5q17 0 50 4z" />
    <glyph glyph-name="uni0625" unicode="&#x625;" horiz-adv-x="215" 
d="M100 704h15v-704h-15v704zM151 -237q33 4 39 5v-16l-22 -3q-64 -8 -141 -15v16l38 4q-27 17 -27 60q0 38 21 56.5t53 18.5q15 0 31.5 -7t16.5 -8v-16q0 1 -16 8t-32 7q-59 0 -59 -59q0 -30 12.5 -42.5t35.5 -12.5q17 0 50 4z" />
    <glyph glyph-name="uni0626" unicode="&#x626;" horiz-adv-x="711" 
d="M594 389.5q19 -4.5 29 -9t12 -6.5v-16q-3 2 -14 6.5t-29.5 9t-41.5 4.5q-60 0 -111.5 -22.5t-82 -60t-30.5 -78.5q0 -31 13 -52t45.5 -37.5t91.5 -33.5q76 -22 113 -38.5t54.5 -42t17.5 -68.5q0 -92 -80 -135.5t-250 -43.5q-109 0 -172 23.5t-91 77t-28 146.5
q0 41 8.5 80.5t17.5 65t12 32.5h15q-3 -8 -12 -35.5t-17.5 -67t-8.5 -75.5q0 -87 26.5 -137t85.5 -72t163 -22q163 0 239.5 39.5t76.5 123.5q0 38 -16 60t-50.5 37t-103.5 35q-65 18 -100.5 36.5t-50 42.5t-14.5 61q0 46 32.5 87t87.5 65.5t119 24.5q25 0 44 -4.5zM117 307
q33 4 39 5v-16l-22 -3q-64 -8 -141 -15v16l38 4q-27 17 -27 60q0 38 21 56.5t53 18.5q15 0 31.5 -7t16.5 -8v-16q0 1 -16 8t-32 7q-59 0 -59 -59q0 -30 12.5 -42.5t35.5 -12.5q17 0 50 4z" />
    <glyph glyph-name="uni0627" unicode="&#x627;" horiz-adv-x="215" 
d="M100 704h15v-704h-15v704z" />
    <glyph glyph-name="uni0628" unicode="&#x628;" horiz-adv-x="813" 
d="M732 74q-31 -40 -108.5 -57t-226.5 -17q-135 0 -212 17t-111 56t-34 108q0 33 4.5 62t9 46.5t6.5 21.5h15q-2 -5 -6.5 -23.5t-9 -47t-4.5 -57.5q0 -63 32.5 -99t106 -52t203.5 -16q145 0 218.5 14.5t103 51t29.5 107.5q0 68 -16 146h15q16 -76 16 -144q0 -77 -31 -117z
M373 -148l24 23l24 -23l-24 -24z" />
    <glyph glyph-name="uni0629" unicode="&#x629;" horiz-adv-x="432" 
d="M79 35q39 -35 132 -35t132 35t39 108q0 120 -44.5 178.5t-126.5 58.5t-126.5 -58.5t-44.5 -178.5q0 -73 39 -108zM95.5 309q40.5 55 115.5 55t115.5 -55t40.5 -166q0 -65 -35.5 -96t-120.5 -31t-120.5 31t-35.5 96q0 111 40.5 166zM137 523l25 24l26 -24l-26 -25z
M233 523l26 24l25 -24l-25 -25z" />
    <glyph glyph-name="uni062A" unicode="&#x62a;" horiz-adv-x="813" 
d="M732 74q-31 -40 -108.5 -57t-226.5 -17q-135 0 -212 17t-111 56t-34 108q0 33 4.5 62t9 46.5t6.5 21.5h15q-2 -5 -6.5 -23.5t-9 -47t-4.5 -57.5q0 -63 32.5 -99t106 -52t203.5 -16q145 0 218.5 14.5t103 51t29.5 107.5q0 68 -16 146h15q16 -76 16 -144q0 -77 -31 -117z
M330 437l25 24l26 -24l-26 -25zM426 437l26 24l25 -24l-25 -25z" />
    <glyph glyph-name="uni062B" unicode="&#x62b;" horiz-adv-x="813" 
d="M732 74q-31 -40 -108.5 -57t-226.5 -17q-135 0 -212 17t-111 56t-34 108q0 33 4.5 62t9 46.5t6.5 21.5h15q-2 -5 -6.5 -23.5t-9 -47t-4.5 -57.5q0 -63 32.5 -99t106 -52t203.5 -16q145 0 218.5 14.5t103 51t29.5 107.5q0 68 -16 146h15q16 -76 16 -144q0 -77 -31 -117z
M380 505l22 21l23 -21l-23 -22zM328 432l25 24l26 -24l-26 -24zM424 432l26 24l25 -24l-25 -24z" />
    <glyph glyph-name="uni062C" unicode="&#x62c;" horiz-adv-x="607" 
d="M443.5 -313q61.5 13 99 28.5t37.5 17.5v-16q-1 0 -27.5 -14.5t-98 -29.5t-152.5 -15q-133 0 -197.5 58.5t-64.5 175.5v9q0 81 48 135.5t151.5 102.5t313.5 122q-47 11 -84 25.5t-92 38.5q-62 27 -99.5 39t-80.5 12q-40 0 -70.5 -11t-49 -23.5t-18.5 -14.5v16q0 2 18 14.5
t49 23.5t72 11q44 0 80.5 -11.5t95.5 -37.5q55 -25 100 -41.5t104 -29.5l-1 -17q-221 -80 -324.5 -128t-150.5 -99.5t-47 -129.5q0 -113 60.5 -168.5t187.5 -55.5q79 0 140.5 13zM307 -63l24 23l24 -23l-24 -24z" />
    <glyph glyph-name="uni062D" unicode="&#x62d;" horiz-adv-x="607" 
d="M443.5 -313q61.5 13 99 28.5t37.5 17.5v-16q-1 0 -27.5 -14.5t-98 -29.5t-152.5 -15q-133 0 -197.5 58.5t-64.5 175.5v9q0 81 48 135.5t151.5 102.5t313.5 122q-47 11 -84 25.5t-92 38.5q-62 27 -99.5 39t-80.5 12q-40 0 -70.5 -11t-49 -23.5t-18.5 -14.5v16q0 2 18 14.5
t49 23.5t72 11q44 0 80.5 -11.5t95.5 -37.5q55 -25 100 -41.5t104 -29.5l-1 -17q-221 -80 -324.5 -128t-150.5 -99.5t-47 -129.5q0 -113 60.5 -168.5t187.5 -55.5q79 0 140.5 13z" />
    <glyph glyph-name="uni062E" unicode="&#x62e;" horiz-adv-x="607" 
d="M443.5 -313q61.5 13 99 28.5t37.5 17.5v-16q-1 0 -27.5 -14.5t-98 -29.5t-152.5 -15q-133 0 -197.5 58.5t-64.5 175.5v9q0 81 48 135.5t151.5 102.5t313.5 122q-47 11 -84 25.5t-92 38.5q-62 27 -99.5 39t-80.5 12q-40 0 -70.5 -11t-49 -23.5t-18.5 -14.5v16q0 2 18 14.5
t49 23.5t72 11q44 0 80.5 -11.5t95.5 -37.5q55 -25 100 -41.5t104 -29.5l-1 -17q-221 -80 -324.5 -128t-150.5 -99.5t-47 -129.5q0 -113 60.5 -168.5t187.5 -55.5q79 0 140.5 13zM298 554l24 23l24 -23l-24 -24z" />
    <glyph glyph-name="uni062F" unicode="&#x62f;" horiz-adv-x="466" 
d="M107 4.5q-37 4.5 -55 9t-22 6.5v16q4 -2 22.5 -6.5t56 -9t89.5 -4.5q101 0 152 30t51 99q0 71 -49 135.5t-171 149.5l7 14q86 -60 135.5 -108t71 -93t21.5 -97q0 -78 -55 -112t-164 -34q-53 0 -90 4.5z" />
    <glyph glyph-name="uni0630" unicode="&#x630;" horiz-adv-x="466" 
d="M107 4.5q-37 4.5 -55 9t-22 6.5v16q4 -2 22.5 -6.5t56 -9t89.5 -4.5q101 0 152 30t51 99q0 71 -49 135.5t-171 149.5l7 14q86 -60 135.5 -108t71 -93t21.5 -97q0 -78 -55 -112t-164 -34q-53 0 -90 4.5zM164 577l24 23l24 -23l-24 -24z" />
    <glyph glyph-name="uni0631" unicode="&#x631;" horiz-adv-x="292" 
d="M216 -97q-26 -67 -72.5 -104.5t-106.5 -37.5q-27 0 -46.5 4t-29 8.5t-11.5 5.5v16q12 -6 34.5 -12t52.5 -6q54 0 97.5 34.5t68 98t24.5 146.5q0 50 -6 92.5t-19 91.5h15q12 -46 18.5 -88t6.5 -96q0 -86 -26 -153z" />
    <glyph glyph-name="uni0632" unicode="&#x632;" horiz-adv-x="292" 
d="M216 -97q-26 -67 -72.5 -104.5t-106.5 -37.5q-27 0 -46.5 4t-29 8.5t-11.5 5.5v16q12 -6 34.5 -12t52.5 -6q54 0 97.5 34.5t68 98t24.5 146.5q0 50 -6 92.5t-19 91.5h15q12 -46 18.5 -88t6.5 -96q0 -86 -26 -153zM184 373l24 23l24 -23l-24 -24z" />
    <glyph glyph-name="uni0633" unicode="&#x633;" horiz-adv-x="1142" 
d="M1077 254.5q5 -18.5 10 -48t5 -62.5q0 -79 -30.5 -111.5t-100.5 -32.5q-109 0 -125 66q-21 -66 -131 -66q-57 0 -83.5 8t-37.5 23q-1 -94 -28 -149.5t-87.5 -80.5t-163.5 -25q-99 0 -156.5 23.5t-83 74t-25.5 133.5q0 51 9.5 94t21 73t11.5 27h15q-3 -7 -13 -34.5
t-19.5 -71t-9.5 -88.5q0 -78 24 -125t78.5 -68.5t147.5 -21.5q99 0 156 23t82.5 74.5t25.5 140.5q-2 72 -29 210h15q20 -102 28 -166q4 -36 31 -47t91 -11q66 0 95 22.5t29 77.5v124h15v-124q0 -56 25.5 -78t91.5 -22q64 0 90 28t26 100q0 29 -5 58.5t-10 50t-7 25.5h15
q2 -5 7 -23.5z" />
    <glyph glyph-name="uni0634" unicode="&#x634;" horiz-adv-x="1142" 
d="M1077 254.5q5 -18.5 10 -48t5 -62.5q0 -79 -30.5 -111.5t-100.5 -32.5q-109 0 -125 66q-21 -66 -131 -66q-57 0 -83.5 8t-37.5 23q-1 -94 -28 -149.5t-87.5 -80.5t-163.5 -25q-99 0 -156.5 23.5t-83 74t-25.5 133.5q0 51 9.5 94t21 73t11.5 27h15q-3 -7 -13 -34.5
t-19.5 -71t-9.5 -88.5q0 -78 24 -125t78.5 -68.5t147.5 -21.5q99 0 156 23t82.5 74.5t25.5 140.5q-2 72 -29 210h15q20 -102 28 -166q4 -36 31 -47t91 -11q66 0 95 22.5t29 77.5v124h15v-124q0 -56 25.5 -78t91.5 -22q64 0 90 28t26 100q0 29 -5 58.5t-10 50t-7 25.5h15
q2 -5 7 -23.5zM813 451l22 21l23 -21l-23 -22zM761 378l25 24l26 -24l-26 -24zM857 378l26 24l25 -24l-25 -24z" />
    <glyph glyph-name="uni0635" unicode="&#x635;" horiz-adv-x="1256" 
d="M1114.5 359q42.5 -26 67 -74.5t24.5 -114.5q0 -64 -21 -101t-68.5 -53t-130.5 -16h-291q-52 0 -76.5 8t-34.5 23q-1 -94 -28 -149.5t-87.5 -80.5t-163.5 -25q-99 0 -156.5 23.5t-83 74t-25.5 133.5q0 51 9.5 94t21 73t11.5 27h15q-3 -7 -13 -34.5t-19.5 -71t-9.5 -88.5
q0 -78 24 -125t78.5 -68.5t147.5 -21.5q99 0 156 23t82.5 74.5t25.5 140.5q-2 75 -29 220h15q21 -111 28 -176q3 -26 15.5 -38t38.5 -17q72 137 133.5 217t120.5 114.5t126 34.5q55 0 97.5 -26zM1107.5 30.5q44.5 14.5 64 47.5t19.5 91q0 61 -22.5 106t-62 69.5t-89.5 24.5
q-96 0 -181.5 -81.5t-181.5 -270.5q12 -1 41 -1h290q78 0 122.5 14.5z" />
    <glyph glyph-name="uni0636" unicode="&#x636;" horiz-adv-x="1256" 
d="M1114.5 359q42.5 -26 67 -74.5t24.5 -114.5q0 -64 -21 -101t-68.5 -53t-130.5 -16h-291q-52 0 -76.5 8t-34.5 23q-1 -94 -28 -149.5t-87.5 -80.5t-163.5 -25q-99 0 -156.5 23.5t-83 74t-25.5 133.5q0 51 9.5 94t21 73t11.5 27h15q-3 -7 -13 -34.5t-19.5 -71t-9.5 -88.5
q0 -78 24 -125t78.5 -68.5t147.5 -21.5q99 0 156 23t82.5 74.5t25.5 140.5q-2 75 -29 220h15q21 -111 28 -176q3 -26 15.5 -38t38.5 -17q72 137 133.5 217t120.5 114.5t126 34.5q55 0 97.5 -26zM1107.5 30.5q44.5 14.5 64 47.5t19.5 91q0 61 -22.5 106t-62 69.5t-89.5 24.5
q-96 0 -181.5 -81.5t-181.5 -270.5q12 -1 41 -1h290q78 0 122.5 14.5zM985 518l24 23l24 -23l-24 -24z" />
    <glyph glyph-name="uni0637" unicode="&#x637;" horiz-adv-x="778" 
d="M636.5 359q42.5 -26 67 -74.5t24.5 -114.5q0 -64 -21 -101t-68.5 -53t-130.5 -16h-188q-122 0 -177 4.5t-91 15.5v16q41 -12 107 -16q25 47 64 114v570h15v-538q0 -6 -1 -9q78 124 149 176t153 52q55 0 97.5 -26zM629.5 30.5q44.5 14.5 64 47.5t19.5 91q0 61 -22.5 106
t-62 69.5t-89.5 24.5q-96 0 -181.5 -81t-181.5 -269q56 -3 144 -3h187q78 0 122.5 14.5z" />
    <glyph glyph-name="uni0638" unicode="&#x638;" horiz-adv-x="778" 
d="M636.5 359q42.5 -26 67 -74.5t24.5 -114.5q0 -64 -21 -101t-68.5 -53t-130.5 -16h-188q-122 0 -177 4.5t-91 15.5v16q41 -12 107 -16q25 47 64 114v570h15v-538q0 -6 -1 -9q78 124 149 176t153 52q55 0 97.5 -26zM629.5 30.5q44.5 14.5 64 47.5t19.5 91q0 61 -22.5 106
t-62 69.5t-89.5 24.5q-96 0 -181.5 -81t-181.5 -269q56 -3 144 -3h187q78 0 122.5 14.5zM505 518l24 23l24 -23l-24 -24z" />
    <glyph glyph-name="uni0639" unicode="&#x639;" horiz-adv-x="544" 
d="M426.5 -326q53.5 10 85.5 22t32 14v-16q-1 0 -26.5 -11.5t-88.5 -23t-136 -11.5q-253 0 -253 202q0 86 61.5 147.5t182.5 111.5q-109 1 -159 45.5t-50 130.5q0 88 52.5 139t141.5 51q32 0 60.5 -8.5t46.5 -18t22 -12.5v-16q-5 3 -23 12.5t-46.5 18t-59.5 8.5
q-83 0 -131 -45.5t-48 -128.5q0 -77 44.5 -118t142.5 -41q32 0 76 11.5t114 32.5v-16q-155 -44 -245.5 -90.5t-128.5 -98.5t-38 -116q0 -95 60 -140t188 -45q70 0 123.5 10z" />
    <glyph glyph-name="uni063A" unicode="&#x63a;" horiz-adv-x="544" 
d="M426.5 -326q53.5 10 85.5 22t32 14v-16q-1 0 -26.5 -11.5t-88.5 -23t-136 -11.5q-253 0 -253 202q0 86 61.5 147.5t182.5 111.5q-109 1 -159 45.5t-50 130.5q0 88 52.5 139t141.5 51q32 0 60.5 -8.5t46.5 -18t22 -12.5v-16q-5 3 -23 12.5t-46.5 18t-59.5 8.5
q-83 0 -131 -45.5t-48 -128.5q0 -77 44.5 -118t142.5 -41q32 0 76 11.5t114 32.5v-16q-155 -44 -245.5 -90.5t-128.5 -98.5t-38 -116q0 -95 60 -140t188 -45q70 0 123.5 10zM225 608l24 23l24 -23l-24 -24z" />
    <glyph glyph-name="uni0640" unicode="&#x640;" horiz-adv-x="193" 
d="M-17 13l17 3h193l17 -3v-10l-17 -3h-193l-17 3v10z" />
    <glyph glyph-name="uni0641" unicode="&#x641;" horiz-adv-x="823" 
d="M731.5 429q41.5 -57 41.5 -154v-44q0 -99 -32.5 -147.5t-113 -66t-243.5 -17.5q-136 0 -209 18.5t-104 63.5t-31 129q0 28 4.5 56.5t9 48t6.5 24.5h15q-2 -6 -6.5 -26t-9 -48t-4.5 -51q0 -79 29.5 -121.5t99.5 -60t201 -17.5q156 0 233.5 16t108.5 59t31 131v9
q-18 -24 -56 -37t-92 -13q-79 0 -113.5 30t-34.5 96q0 52 20.5 92.5t55.5 63.5t79 23q73 0 114.5 -57zM758 254v21q0 89 -37.5 142t-103.5 53q-40 0 -72 -21t-50 -58t-18 -84q0 -58 30 -84t103 -26q114 0 148 57zM593 619l24 23l24 -23l-24 -24z" />
    <glyph glyph-name="uni0642" unicode="&#x642;" horiz-adv-x="715" 
d="M620.5 260q44.5 -60 44.5 -161v-22q0 -118 -28.5 -180t-95 -86.5t-191.5 -24.5q-120 0 -186.5 22t-95 72.5t-28.5 140.5q0 42 7.5 82.5t15 67t10.5 33.5h16q-3 -8 -11 -37t-15.5 -69t-7.5 -74q0 -85 27 -132.5t90.5 -68.5t177.5 -21q116 0 179.5 21t91 74t29.5 153
q-17 -23 -58.5 -36.5t-99.5 -13.5q-84 0 -121 31.5t-37 99.5q0 55 21.5 98t59 67t84.5 24q77 0 121.5 -60zM650 73v26q0 94 -40 149.5t-111 55.5q-43 0 -77 -22t-53.5 -61.5t-19.5 -89.5q0 -60 32.5 -87.5t110.5 -27.5q124 0 158 57zM425 463l25 24l26 -24l-26 -25zM521 463
l26 24l25 -24l-25 -25z" />
    <glyph glyph-name="uni0643" unicode="&#x643;" horiz-adv-x="813" 
d="M713 210q0 -82 -33 -127t-107.5 -64t-207.5 -19q-122 0 -192.5 18.5t-101.5 60t-31 114.5q0 30 5 56.5t10 42t7 19.5h15q-2 -5 -7 -22t-10 -43.5t-5 -52.5q0 -67 29.5 -105t96 -55t184.5 -17q128 0 199 16.5t102.5 58.5t31.5 119v494h15v-494zM471 561q-58 -21 -86 -34
t-38 -23.5t-10 -23.5q0 -19 12.5 -27.5t57.5 -24.5q33 -12 48.5 -20t24.5 -22t9 -38q0 -36 -32 -54t-104 -18q-56 0 -86 10v16q30 -10 85 -10q65 0 93.5 13.5t28.5 42.5q0 27 -15 38.5t-59 26.5q-46 16 -62 28.5t-16 38.5q0 19 12.5 33t43 28t93.5 37v-17z" />
    <glyph glyph-name="uni0644" unicode="&#x644;" horiz-adv-x="642" 
d="M542 75q0 -100 -25 -158.5t-81 -84.5t-151 -26q-90 0 -143.5 24t-77.5 73.5t-24 130.5q0 44 9.5 83t21 66.5t11.5 24.5h15q-3 -7 -13 -32t-19.5 -63t-9.5 -78q0 -76 22 -122.5t72 -68.5t135 -22q92 0 144.5 24t75.5 79t23 150v629h15v-629z" />
    <glyph glyph-name="uni0645" unicode="&#x645;" horiz-adv-x="520" 
d="M425 277q43 -50 45 -140q0 -77 -37 -107t-119 -30h-186q-31 0 -42.5 -11.5t-11.5 -36.5l1 -284h-15v283q0 37 18 51t54 14h62q-22 18 -33.5 50.5t-11.5 69.5q0 53 21.5 96.5t59.5 69t85 25.5q67 0 110 -50zM423 42.5q32 26.5 32 94.5q-3 85 -42 129.5t-98 44.5
q-40 0 -74.5 -20.5t-55.5 -60.5t-21 -94q0 -42 15.5 -75t41.5 -45h93q77 0 109 26.5z" />
    <glyph glyph-name="uni0646" unicode="&#x646;" horiz-adv-x="634" 
d="M535 310h15q34 -127 34 -221q0 -97 -27 -154t-88 -83t-164 -26q-99 0 -156.5 24.5t-83 77t-25.5 139.5q0 48 9.5 89t21 69.5t11.5 25.5h15q-3 -7 -13 -33t-19.5 -67t-9.5 -84q0 -82 24 -131t78.5 -71.5t147.5 -22.5q97 0 154.5 22.5t83.5 73t26 136.5q0 101 -34 236z
M290 448l24 23l24 -23l-24 -24z" />
    <glyph glyph-name="uni0647" unicode="&#x647;" horiz-adv-x="432" 
d="M79 35q39 -35 132 -35t132 35t39 108q0 120 -44.5 178.5t-126.5 58.5t-126.5 -58.5t-44.5 -178.5q0 -73 39 -108zM95.5 309q40.5 55 115.5 55t115.5 -55t40.5 -166q0 -65 -35.5 -96t-120.5 -31t-120.5 31t-35.5 96q0 111 40.5 166z" />
    <glyph glyph-name="uni0648" unicode="&#x648;" horiz-adv-x="432" 
d="M347.5 260q44.5 -60 44.5 -161v-24q0 -148 -59 -231t-178 -83q-37 0 -63.5 6.5t-41.5 14.5t-15 9v16q22 -14 54 -22t67 -8q108 0 162 73.5t59 199.5q-17 -24 -58 -37t-100 -13q-84 0 -121 31.5t-37 99.5q0 55 21.5 98t59 67t84.5 24q77 0 121.5 -60zM377 73v26
q0 94 -40 149.5t-111 55.5q-43 0 -77 -22t-53.5 -61.5t-19.5 -89.5q0 -60 32.5 -87.5t110.5 -27.5q124 0 158 57z" />
    <glyph glyph-name="uni0649" unicode="&#x649;" horiz-adv-x="711" 
d="M594 389.5q19 -4.5 29 -9t12 -6.5v-16q-3 2 -14 6.5t-29.5 9t-41.5 4.5q-60 0 -111.5 -22.5t-82 -60t-30.5 -78.5q0 -31 13 -52t45.5 -37.5t91.5 -33.5q76 -22 113 -38.5t54.5 -42t17.5 -68.5q0 -92 -80 -135.5t-250 -43.5q-109 0 -172 23.5t-91 77t-28 146.5
q0 41 8.5 80.5t17.5 65t12 32.5h15q-3 -8 -12 -35.5t-17.5 -67t-8.5 -75.5q0 -87 26.5 -137t85.5 -72t163 -22q163 0 239.5 39.5t76.5 123.5q0 38 -16 60t-50.5 37t-103.5 35q-65 18 -100.5 36.5t-50 42.5t-14.5 61q0 46 32.5 87t87.5 65.5t119 24.5q25 0 44 -4.5z" />
    <glyph glyph-name="uni064A" unicode="&#x64a;" horiz-adv-x="711" 
d="M594 389.5q19 -4.5 29 -9t12 -6.5v-16q-3 2 -14 6.5t-29.5 9t-41.5 4.5q-60 0 -111.5 -22.5t-82 -60t-30.5 -78.5q0 -31 13 -52t45.5 -37.5t91.5 -33.5q76 -22 113 -38.5t54.5 -42t17.5 -68.5q0 -92 -80 -135.5t-250 -43.5q-109 0 -172 23.5t-91 77t-28 146.5
q0 41 8.5 80.5t17.5 65t12 32.5h15q-3 -8 -12 -35.5t-17.5 -67t-8.5 -75.5q0 -87 26.5 -137t85.5 -72t163 -22q163 0 239.5 39.5t76.5 123.5q0 38 -16 60t-50.5 37t-103.5 35q-65 18 -100.5 36.5t-50 42.5t-14.5 61q0 46 32.5 87t87.5 65.5t119 24.5q25 0 44 -4.5zM257 -371
l25 24l26 -24l-26 -25zM353 -371l26 24l25 -24l-25 -25z" />
    <glyph glyph-name="uni064B" unicode="&#x64b;" 
d="M18 607l204 21v-14l-204 -22v15zM17 701l204 21v-14l-204 -22v15z" />
    <glyph glyph-name="uni064C" unicode="&#x64c;" 
d="M211 591q12 -18 12 -53q0 -52 -20 -79t-70 -27t-65.5 19t-15.5 62q0 8 -3 11t-11 3q-6 0 -10.5 -1t-5.5 -2v15q2 1 8 2.5t13 1.5q13 0 18.5 -6.5t5.5 -23.5q0 -26 4 -39t18.5 -19.5t44.5 -6.5q37 0 53 15.5t20 45.5q-15 -10 -41 -10q-30 0 -40.5 11.5t-10.5 38.5
q0 60 55 60q29 0 41 -18zM208 524v14q0 26 -7.5 40.5t-30.5 14.5q-21 0 -30.5 -10.5t-9.5 -33.5q0 -19 6.5 -26.5t29.5 -7.5q26 0 42 9z" />
    <glyph glyph-name="uni064D" unicode="&#x64d;" 
d="M-13 -529l204 21v-14l-204 -22v15zM-14 -423l204 21v-14l-204 -22v15z" />
    <glyph glyph-name="uni064E" unicode="&#x64e;" 
d="M5 496l204 21v-14l-204 -22v15z" />
    <glyph glyph-name="uni064F" unicode="&#x64f;" 
d="M199 434q12 -17 12 -49q0 -39 -11 -61t-34.5 -32.5t-66.5 -16.5l-3 17q52 8 72.5 19.5t25.5 41.5q-16 -9 -40 -9q-30 0 -40.5 12t-10.5 40q0 26 14 40.5t41 14.5q29 0 41 -17zM196 369v16q0 23 -8 36.5t-30 13.5q-40 0 -40 -39q0 -20 6.5 -28t29.5 -8q26 0 42 9z" />
    <glyph glyph-name="uni0650" unicode="&#x650;" 
d="M-4 -415l204 21v-14l-204 -22v15z" />
    <glyph glyph-name="uni0651" unicode="&#x651;" 
d="M229.5 684q2.5 -19 2.5 -33q0 -28 -11 -47t-44 -19q-37 0 -48 22q-13 -22 -50 -22q-26 0 -41 13t-15 47q0 13 3 26.5t5.5 21.5t3.5 10h15q-2 -5 -7 -23t-5 -35q0 -25 9.5 -34.5t33.5 -9.5q41 0 41 36v42h15v-42q0 -21 9.5 -28.5t31.5 -7.5q24 0 31.5 12.5t7.5 37.5
q0 15 -2 33t-3 24l14 1q1 -6 3.5 -25z" />
    <glyph glyph-name="uni0652" unicode="&#x652;" 
d="M74 634q0 30 13 44t41 14q55 0 55 -57q0 -30 -14 -44t-43 -14q-52 0 -52 57zM158.5 602.5q9.5 9.5 9.5 32.5t-9 32t-31 9t-30.5 -9.5t-8.5 -32.5q0 -22 8.5 -31.5t28.5 -9.5q23 0 32.5 9.5z" />
    <glyph glyph-name="uni0653" unicode="&#x653;" 
d="M108 497q-28 8 -41 8t-24.5 -3.5t-19 -7.5t-9.5 -5v16q10 6 25 11t28 5q11 0 22 -2.5t21 -5.5q11 -3 23.5 -6t26.5 -3q16 0 28 2.5t18 5.5t7 4v-16q-1 -1 -7 -4t-18 -5.5t-30 -2.5t-50 9z" />
    <glyph glyph-name="uni0654" unicode="&#x654;" 
d="M163 453q33 4 39 5v-16l-22 -3q-64 -8 -141 -15v16l38 4q-27 17 -27 60q0 38 21 56.5t53 18.5q15 0 31.5 -7t16.5 -8v-16q0 1 -16 8t-32 7q-59 0 -59 -59q0 -30 12.5 -42.5t35.5 -12.5q17 0 50 4z" />
    <glyph glyph-name="uni0655" unicode="&#x655;" 
d="M163 69q33 4 39 5v-16l-22 -3q-64 -8 -141 -15v16l38 4q-27 17 -27 60q0 38 21 56.5t53 18.5q15 0 31.5 -7t16.5 -8v-16q0 1 -16 8t-32 7q-59 0 -59 -59q0 -30 12.5 -42.5t35.5 -12.5q17 0 50 4z" />
    <glyph glyph-name="uni0656" unicode="&#x656;" 
d="M54 69h15v-145h-15v145z" />
    <glyph glyph-name="uni0657" unicode="&#x657;" 
d="M206.5 852q10.5 -12 10.5 -40q0 -26 -14 -40.5t-41 -14.5q-29 0 -41 17t-12 49q0 39 11 61t34.5 32.5t66.5 16.5l3 -17q-52 -8 -72.5 -19.5t-25.5 -41.5q16 9 40 9q30 0 40.5 -12zM202 812q0 20 -6.5 28t-29.5 8q-26 0 -42 -9v-16q0 -23 8 -36.5t30 -13.5q40 0 40 39z
" />
    <glyph glyph-name="uni0660" unicode="&#x660;" horiz-adv-x="264" 
d="M90 208l42 41l42 -41l-42 -42z" />
    <glyph glyph-name="uni0661" unicode="&#x661;" horiz-adv-x="215" 
d="M100 619h15v-619h-15v619z" />
    <glyph glyph-name="uni0662" unicode="&#x662;" horiz-adv-x="442" 
d="M160 127q-49 166 -64.5 228t-15.5 107q0 67 49 108.5t130 41.5q72 0 133 -24v-16q-39 13 -68 18.5t-65 5.5q-75 0 -119.5 -37t-44.5 -97q0 -43 16.5 -108.5t72.5 -256.5l15 -52.5t13 -44.5h-15z" />
    <glyph glyph-name="uni0663" unicode="&#x663;" horiz-adv-x="577" 
d="M514.5 594.5q4.5 -19.5 8.5 -45t4 -46.5q0 -65 -25.5 -95.5t-82.5 -30.5q-35 0 -59.5 14t-33.5 38q-16 -52 -103 -52q-60 0 -86 26l79 -402l-15 -1l-121 619h15l35 -177q9 -25 30 -37t63 -12q55 0 74.5 19t19.5 68v86h15l1 -86q0 -46 21.5 -66.5t64.5 -20.5q49 0 71 26
t22 82q0 22 -4 48.5t-8.5 46t-5.5 24.5l15 -1q1 -5 5.5 -24.5z" />
    <glyph glyph-name="uni0664" unicode="&#x664;" horiz-adv-x="483" 
d="M331 20.5q38 4.5 62 9.5t30 7v-16q-81 -21 -175 -21q-67 0 -105.5 13.5t-55.5 43t-17 78.5q0 117 210 171q-74 1 -116 14.5t-60.5 41.5t-18.5 76q0 45 29.5 75.5t90.5 54.5t170 51v-16q-105 -28 -161.5 -49.5t-85 -48.5t-28.5 -66q0 -48 20 -73t70 -35t148 -10v-16
q-131 -30 -192 -71t-61 -99q0 -45 14 -70.5t50 -37t103 -11.5q41 0 79 4.5z" />
    <glyph glyph-name="uni0665" unicode="&#x665;" horiz-adv-x="516" 
d="M153 15.5q-39 18.5 -56 58.5t-17 109q0 129 47.5 201t132.5 72q83 0 129.5 -72t46.5 -201q0 -69 -17 -109t-55 -58.5t-104 -18.5q-68 0 -107 18.5zM355.5 29.5q34.5 16.5 50 53t15.5 100.5q0 121 -42.5 189t-118.5 68q-78 0 -121.5 -68t-43.5 -189q0 -64 15.5 -100.5
t51.5 -53t98 -16.5q61 0 95.5 16.5z" />
    <glyph glyph-name="uni0666" unicode="&#x666;" horiz-adv-x="452" 
d="M348 0q-3 46 -13 263t-15 336q-19 -5 -60.5 -9.5t-92.5 -4.5q-36 0 -62 2.5t-39 5t-16 3.5v16q0 -1 34.5 -6t81.5 -5q43 0 80 3.5t59 7t28 4.5l29 -616h-14z" />
    <glyph glyph-name="uni0667" unicode="&#x667;" horiz-adv-x="507" 
d="M40 619h15l198 -603h4l195 603h15l-201 -619h-22z" />
    <glyph glyph-name="uni0668" unicode="&#x668;" horiz-adv-x="507" 
d="M266 619l201 -619h-15l-195 603h-4l-198 -603h-15l204 619h22z" />
    <glyph glyph-name="uni0669" unicode="&#x669;" horiz-adv-x="488" 
d="M374 0l-15 342q-20 -13 -59 -24.5t-95 -11.5q-84 0 -119.5 29.5t-35.5 97.5q0 84 45 139t120 55q146 0 155 -208l18 -418zM297.5 333.5q38.5 11.5 61.5 24.5l-3 59q-8 195 -141 195q-69 0 -109.5 -50t-40.5 -129q0 -62 31 -86.5t110 -24.5q53 0 91.5 11.5z" />
    <glyph glyph-name="uni066A" unicode="&#x66a;" horiz-adv-x="623" 
d="M504 619l-390 -619h-18l391 619h17zM80 458l42 41l42 -41l-42 -42zM449 153l42 41l42 -41l-42 -42z" />
    <glyph glyph-name="uni066B" unicode="&#x66b;" horiz-adv-x="214" 
d="M134 235l-39 -235h-15l39 235h15z" />
    <glyph glyph-name="uni066C" unicode="&#x66c;" horiz-adv-x="214" 
d="M80 -5l39 235h15l-39 -235h-15z" />
    <glyph glyph-name="uni066D" unicode="&#x66d;" horiz-adv-x="440" 
d="M159 482l-125 80l149 -5l36 140l39 -140l149 5l-126 -80l55 -140l-117 94l-115 -94z" />
    <glyph glyph-name="uni066E" unicode="&#x66e;" horiz-adv-x="813" 
d="M732 74q-31 -40 -108.5 -57t-226.5 -17q-135 0 -212 17t-111 56t-34 108q0 33 4.5 62t9 46.5t6.5 21.5h15q-2 -5 -6.5 -23.5t-9 -47t-4.5 -57.5q0 -63 32.5 -99t106 -52t203.5 -16q145 0 218.5 14.5t103 51t29.5 107.5q0 68 -16 146h15q16 -76 16 -144q0 -77 -31 -117z
" />
    <glyph glyph-name="uni066F" unicode="&#x66f;" horiz-adv-x="715" 
d="M620.5 260q44.5 -60 44.5 -161v-22q0 -118 -28.5 -180t-95 -86.5t-191.5 -24.5q-120 0 -186.5 22t-95 72.5t-28.5 140.5q0 42 7.5 82.5t15 67t10.5 33.5h16q-3 -8 -11 -37t-15.5 -69t-7.5 -74q0 -85 27 -132.5t90.5 -68.5t177.5 -21q116 0 179.5 21t91 74t29.5 153
q-17 -23 -58.5 -36.5t-99.5 -13.5q-84 0 -121 31.5t-37 99.5q0 55 21.5 98t59 67t84.5 24q77 0 121.5 -60zM650 73v26q0 94 -40 149.5t-111 55.5q-43 0 -77 -22t-53.5 -61.5t-19.5 -89.5q0 -60 32.5 -87.5t110.5 -27.5q124 0 158 57z" />
    <glyph glyph-name="uni0670" unicode="&#x670;" 
d="M54 643h15v-145h-15v145z" />
    <glyph glyph-name="uni067E" unicode="&#x67e;" horiz-adv-x="813" 
d="M732 74q-31 -40 -108.5 -57t-226.5 -17q-135 0 -212 17t-111 56t-34 108q0 33 4.5 62t9 46.5t6.5 21.5h15q-2 -5 -6.5 -23.5t-9 -47t-4.5 -57.5q0 -63 32.5 -99t106 -52t203.5 -16q145 0 218.5 14.5t103 51t29.5 107.5q0 68 -16 146h15q16 -76 16 -144q0 -77 -31 -117z
M324 -137l25 23l26 -23l-26 -25zM420 -137l26 23l25 -23l-25 -25zM376 -210l22 21l23 -21l-23 -22z" />
    <glyph glyph-name="uni0686" unicode="&#x686;" horiz-adv-x="607" 
d="M443.5 -313q61.5 13 99 28.5t37.5 17.5v-16q-1 0 -27.5 -14.5t-98 -29.5t-152.5 -15q-133 0 -197.5 58.5t-64.5 175.5v9q0 81 48 135.5t151.5 102.5t313.5 122q-47 11 -84 25.5t-92 38.5q-62 27 -99.5 39t-80.5 12q-40 0 -70.5 -11t-49 -23.5t-18.5 -14.5v16q0 2 18 14.5
t49 23.5t72 11q44 0 80.5 -11.5t95.5 -37.5q55 -25 100 -41.5t104 -29.5l-1 -17q-221 -80 -324.5 -128t-150.5 -99.5t-47 -129.5q0 -113 60.5 -168.5t187.5 -55.5q79 0 140.5 13zM249 -37l25 23l26 -23l-26 -25zM345 -37l26 23l25 -23l-25 -25zM301 -110l22 21l23 -21
l-23 -22z" />
    <glyph glyph-name="uni0698" unicode="&#x698;" horiz-adv-x="292" 
d="M216 -97q-26 -67 -72.5 -104.5t-106.5 -37.5q-27 0 -46.5 4t-29 8.5t-11.5 5.5v16q12 -6 34.5 -12t52.5 -6q54 0 97.5 34.5t68 98t24.5 146.5q0 50 -6 92.5t-19 91.5h15q12 -46 18.5 -88t6.5 -96q0 -86 -26 -153zM184 451l22 21l23 -21l-23 -22zM132 378l25 24l26 -24
l-26 -24zM228 378l26 24l25 -24l-25 -24z" />
    <glyph glyph-name="uni06A1" unicode="&#x6a1;" horiz-adv-x="823" 
d="M731.5 429q41.5 -57 41.5 -154v-44q0 -99 -32.5 -147.5t-113 -66t-243.5 -17.5q-136 0 -209 18.5t-104 63.5t-31 129q0 28 4.5 56.5t9 48t6.5 24.5h15q-2 -6 -6.5 -26t-9 -48t-4.5 -51q0 -79 29.5 -121.5t99.5 -60t201 -17.5q156 0 233.5 16t108.5 59t31 131v9
q-18 -24 -56 -37t-92 -13q-79 0 -113.5 30t-34.5 96q0 52 20.5 92.5t55.5 63.5t79 23q73 0 114.5 -57zM758 254v21q0 89 -37.5 142t-103.5 53q-40 0 -72 -21t-50 -58t-18 -84q0 -58 30 -84t103 -26q114 0 148 57z" />
    <glyph glyph-name="uni06A4" unicode="&#x6a4;" horiz-adv-x="823" 
d="M731.5 429q41.5 -57 41.5 -154v-44q0 -99 -32.5 -147.5t-113 -66t-243.5 -17.5q-136 0 -209 18.5t-104 63.5t-31 129q0 28 4.5 56.5t9 48t6.5 24.5h15q-2 -6 -6.5 -26t-9 -48t-4.5 -51q0 -79 29.5 -121.5t99.5 -60t201 -17.5q156 0 233.5 16t108.5 59t31 131v9
q-18 -24 -56 -37t-92 -13q-79 0 -113.5 30t-34.5 96q0 52 20.5 92.5t55.5 63.5t79 23q73 0 114.5 -57zM758 254v21q0 89 -37.5 142t-103.5 53q-40 0 -72 -21t-50 -58t-18 -84q0 -58 30 -84t103 -26q114 0 148 57zM593 697l22 21l23 -21l-23 -22zM541 624l25 24l26 -24
l-26 -24zM637 624l26 24l25 -24l-25 -24z" />
    <glyph glyph-name="uni06A9" unicode="&#x6a9;" horiz-adv-x="753" 
d="M738 692l-374 -249q128 -60 196 -104t96 -87t28 -99q0 -84 -68 -118.5t-166 -34.5h-125q-116 0 -176.5 13.5t-84.5 46.5t-24 97q0 21 3.5 42t7 34t4.5 17h15l-4.5 -18t-7 -34t-3.5 -40q0 -58 22.5 -88t79.5 -42t168 -12h125q88 0 153.5 29.5t65.5 107.5q0 51 -27 91.5
t-96 85t-199 103.5v15l391 262v-18z" />
    <glyph glyph-name="uni06AF" unicode="&#x6af;" horiz-adv-x="753" 
d="M738 692l-374 -249q128 -60 196 -104t96 -87t28 -99q0 -84 -68 -118.5t-166 -34.5h-125q-116 0 -176.5 13.5t-84.5 46.5t-24 97q0 21 3.5 42t7 34t4.5 17h15l-4.5 -18t-7 -34t-3.5 -40q0 -58 22.5 -88t79.5 -42t168 -12h125q88 0 153.5 29.5t65.5 107.5q0 51 -27 91.5
t-96 85t-199 103.5v15l391 262v-18zM333 590l356 237v-18l-356 -237v18z" />
    <glyph glyph-name="uni06BA" unicode="&#x6ba;" horiz-adv-x="634" 
d="M535 310h15q34 -127 34 -221q0 -97 -27 -154t-88 -83t-164 -26q-99 0 -156.5 24.5t-83 77t-25.5 139.5q0 48 9.5 89t21 69.5t11.5 25.5h15q-3 -7 -13 -33t-19.5 -67t-9.5 -84q0 -82 24 -131t78.5 -71.5t147.5 -22.5q97 0 154.5 22.5t83.5 73t26 136.5q0 101 -34 236z" />
    <glyph glyph-name="uni06CC" unicode="&#x6cc;" horiz-adv-x="711" 
d="M594 389.5q19 -4.5 29 -9t12 -6.5v-16q-3 2 -14 6.5t-29.5 9t-41.5 4.5q-60 0 -111.5 -22.5t-82 -60t-30.5 -78.5q0 -31 13 -52t45.5 -37.5t91.5 -33.5q76 -22 113 -38.5t54.5 -42t17.5 -68.5q0 -92 -80 -135.5t-250 -43.5q-109 0 -172 23.5t-91 77t-28 146.5
q0 41 8.5 80.5t17.5 65t12 32.5h15q-3 -8 -12 -35.5t-17.5 -67t-8.5 -75.5q0 -87 26.5 -137t85.5 -72t163 -22q163 0 239.5 39.5t76.5 123.5q0 38 -16 60t-50.5 37t-103.5 35q-65 18 -100.5 36.5t-50 42.5t-14.5 61q0 46 32.5 87t87.5 65.5t119 24.5q25 0 44 -4.5z" />
    <glyph glyph-name="uni06D4" unicode="&#x6d4;" horiz-adv-x="230" 
d="M90 42l25 24l25 -24l-25 -25z" />
    <glyph glyph-name="uni06F0" unicode="&#x6f0;" horiz-adv-x="264" 
d="M90 208l42 41l42 -41l-42 -42z" />
    <glyph glyph-name="uni06F1" unicode="&#x6f1;" horiz-adv-x="215" 
d="M100 619h15v-619h-15v619z" />
    <glyph glyph-name="uni06F2" unicode="&#x6f2;" horiz-adv-x="442" 
d="M160 127q-49 166 -64.5 228t-15.5 107q0 67 49 108.5t130 41.5q72 0 133 -24v-16q-39 13 -68 18.5t-65 5.5q-75 0 -119.5 -37t-44.5 -97q0 -43 16.5 -108.5t72.5 -256.5l15 -52.5t13 -44.5h-15z" />
    <glyph glyph-name="uni06F3" unicode="&#x6f3;" horiz-adv-x="577" 
d="M514.5 594.5q4.5 -19.5 8.5 -45t4 -46.5q0 -65 -25.5 -95.5t-82.5 -30.5q-35 0 -59.5 14t-33.5 38q-16 -52 -103 -52q-60 0 -86 26l79 -402l-15 -1l-121 619h15l35 -177q9 -25 30 -37t63 -12q55 0 74.5 19t19.5 68v86h15l1 -86q0 -46 21.5 -66.5t64.5 -20.5q49 0 71 26
t22 82q0 22 -4 48.5t-8.5 46t-5.5 24.5l15 -1q1 -5 5.5 -24.5z" />
    <glyph glyph-name="uni06F4" unicode="&#x6f4;" horiz-adv-x="548" 
d="M498 382v-16q-91 -17 -192 -17q-117 0 -163 23l73 -371l-15 -1l-121 619h15l45 -228q45 -26 167 -26h18q-59 30 -59 120q0 139 138 139q36 0 67 -11v-16q-28 11 -67 11q-123 0 -123 -125q0 -46 22.5 -79.5t75.5 -33.5q37 0 119 12z" />
    <glyph glyph-name="uni06F5" unicode="&#x6f5;" horiz-adv-x="582" 
d="M502 178q0 -86 -29 -132t-89 -46q-76 0 -93 73q-17 -73 -92 -73q-119 0 -119 178q0 136 59 246t145 195h17q201 -205 201 -441zM461.5 58q25.5 42 25.5 120q0 127 -55 232.5t-140 197.5q-86 -91 -141.5 -197t-55.5 -233q0 -78 25.5 -120t77.5 -42q38 0 56 15t24 46.5
t6 92.5h15q0 -60 6 -92t24 -47t55 -15q52 0 77.5 42z" />
    <glyph glyph-name="uni06F6" unicode="&#x6f6;" horiz-adv-x="416" 
d="M75 0q41 141 68.5 198t76.5 82.5t156 39.5v16q-9 -1 -50 -6t-72 -5q-145 0 -145 132q0 146 148 146q28 0 50.5 -2t46.5 -11v16q-46 13 -97 13q-84 0 -123.5 -43t-39.5 -119q0 -145 149 -148q-41 -14 -70 -42.5t-56 -91t-57 -175.5h15z" />
    <glyph glyph-name="uni06F7" unicode="&#x6f7;" horiz-adv-x="507" 
d="M40 619h15l198 -603h4l195 603h15l-201 -619h-22z" />
    <glyph glyph-name="uni06F8" unicode="&#x6f8;" horiz-adv-x="507" 
d="M266 619l201 -619h-15l-195 603h-4l-198 -603h-15l204 619h22z" />
    <glyph glyph-name="uni06F9" unicode="&#x6f9;" horiz-adv-x="488" 
d="M374 0l-15 342q-20 -13 -59 -24.5t-95 -11.5q-84 0 -119.5 29.5t-35.5 97.5q0 84 45 139t120 55q146 0 155 -208l18 -418zM297.5 333.5q38.5 11.5 61.5 24.5l-3 59q-8 195 -141 195q-69 0 -109.5 -50t-40.5 -129q0 -62 31 -86.5t110 -24.5q53 0 91.5 11.5z" />
    <glyph glyph-name="uni200C" unicode="&#x200c;" 
d="M-92 1043l62 64l-61 59l27 30l64 -62l63 61l28 -28l-65 -60l65 -64l-28 -27l-63 59l-64 -60z" />
    <glyph glyph-name="uni200D" unicode="&#x200d;" 
d="M-117 1121h235v-94h-39v55h-157v-55h-39v94z" />
    <glyph glyph-name="uni200E" unicode="&#x200e;" 
d="M26 1034l51 51h-174v37h174l-51 47l29 28l92 -91l-94 -96z" />
    <glyph glyph-name="uni200F" unicode="&#x200f;" 
d="M-144 1106l93 91l28 -28l-51 -47h175v-37h-175l51 -51l-26 -24z" />
    <glyph glyph-name="uni2012" unicode="&#x2012;" horiz-adv-x="526" 
d="M0 396h526v-15h-526v15z" />
    <glyph glyph-name="endash" unicode="&#x2013;" horiz-adv-x="500" 
d="M30 277h440v-15h-440v15z" />
    <glyph glyph-name="emdash" unicode="&#x2014;" horiz-adv-x="1000" 
d="M30 276h939v-15h-939v15z" />
    <glyph glyph-name="quoteleft" unicode="&#x2018;" horiz-adv-x="187" 
d="M125 755l-39 -235h-16l39 235h16z" />
    <glyph glyph-name="quoteright" unicode="&#x2019;" horiz-adv-x="187" 
d="M125 755l-39 -235h-16l39 235h16z" />
    <glyph glyph-name="quotesinglbase" unicode="&#x201a;" horiz-adv-x="191" 
d="M111 118l-39 -235h-16l39 235h16z" />
    <glyph glyph-name="quotedblleft" unicode="&#x201c;" horiz-adv-x="387" 
d="M125 755l-39 -235h-16l39 235h16zM325 755l-39 -235h-16l39 235h16z" />
    <glyph glyph-name="quotedblright" unicode="&#x201d;" horiz-adv-x="387" 
d="M125 755l-39 -235h-16l39 235h16zM325 755l-39 -235h-16l39 235h16z" />
    <glyph glyph-name="quotedblbase" unicode="&#x201e;" horiz-adv-x="392" 
d="M109 108l-39 -235h-16l39 235h16zM310 108l-39 -235h-16l39 235h16z" />
    <glyph glyph-name="dagger" unicode="&#x2020;" horiz-adv-x="604" 
d="M293 526l-6 229h23l-5 -229l233 4v-17l-233 3l5 -516h-23l6 516l-227 -3v17z" />
    <glyph glyph-name="daggerdbl" unicode="&#x2021;" horiz-adv-x="604" 
d="M293 526l-6 229h23l-5 -229l233 4v-17l-233 3v-270l233 4v-17l-233 3l5 -236h-23l6 236l-227 -3v17l227 -4v270l-227 -3v17z" />
    <glyph glyph-name="bullet" unicode="&#x2022;" horiz-adv-x="487" 
d="M320.5 436.5q35.5 -20.5 56 -56t20.5 -77.5t-20.5 -77t-56 -55.5t-77.5 -20.5t-77 20.5t-55.5 55.5t-20.5 77t20.5 77.5t55.5 56t77 20.5t77.5 -20.5z" />
    <glyph glyph-name="ellipsis" unicode="&#x2026;" horiz-adv-x="692" 
d="M85 42l25 24l25 -24l-25 -25zM325 42l25 24l25 -24l-25 -25zM555 42l25 24l25 -24l-25 -25z" />
    <glyph glyph-name="uni202A" unicode="&#x202a;" 
d="M35 1034l49 51h-84v37h84l-49 47l29 28l88 -91l-90 -96zM-91 1122h46v-37h-46v37z" />
    <glyph glyph-name="uni202B" unicode="&#x202b;" 
d="M-152 1106l88 91l29 -28l-50 -47h85v-37h-85l50 -51l-27 -24zM45 1122h46v-37h-46v37z" />
    <glyph glyph-name="uni202C" unicode="&#x202c;" 
d="M-17 1177l-52 -47l-26 25l96 92l95 -90l-29 -27l-50 47v-172h-34v172z" />
    <glyph glyph-name="uni202D" unicode="&#x202d;" 
d="M-34 1034l48 51h-170v37h170l-48 47l30 28l91 -91l-93 -96zM66 1034l64 72l-64 63l29 28l89 -91l-92 -96z" />
    <glyph glyph-name="uni202E" unicode="&#x202e;" 
d="M-165 1106l88 91l30 -28l-69 -63l69 -72l-28 -24zM-69 1106l89 91l28 -28l-47 -47h173v-37h-173l47 -51l-26 -24z" />
    <glyph glyph-name="perthousand" unicode="&#x2030;" horiz-adv-x="1203" 
d="M333 397q-40 -49 -120 -49q-79 0 -119 48.5t-40 140.5v38q0 93 40 144t119 51t119.5 -51t40.5 -144v-38q0 -91 -40 -140zM106.5 407.5q36.5 -44.5 108.5 -44.5q142 0 142 174v38q0 180 -144 180q-143 0 -143 -180v-38q0 -85 36.5 -129.5zM668 755l-472 -755h-18l473 755
h17zM748 34q-40 -49 -120 -49q-79 0 -119 48.5t-40 140.5v38q0 93 40 144t119 51t119.5 -51t40.5 -144v-38q0 -91 -40 -140zM1110 34q-40 -49 -120 -49q-79 0 -119 48.5t-40 140.5v38q0 93 40 144t119 51t119.5 -51t40.5 -144v-38q0 -91 -40 -140zM521.5 44.5
q36.5 -44.5 108.5 -44.5q142 0 142 174v38q0 180 -144 180q-143 0 -143 -180v-38q0 -85 36.5 -129.5zM883.5 44.5q36.5 -44.5 108.5 -44.5q142 0 142 174v38q0 180 -144 180q-143 0 -143 -180v-38q0 -85 36.5 -129.5z" />
    <glyph glyph-name="guilsinglleft" unicode="&#x2039;" horiz-adv-x="254" 
d="M188 66h-17l-115 216l118 208h17l-118 -207z" />
    <glyph glyph-name="guilsinglright" unicode="&#x203a;" horiz-adv-x="254" 
d="M80 490l118 -208l-115 -216h-17l115 217l-118 207h17z" />
    <glyph glyph-name="fraction" unicode="&#x2044;" horiz-adv-x="60" 
d="M293 754l-505 -754h-20l507 754h18z" />
    <glyph glyph-name="Euro" unicode="&#x20ac;" horiz-adv-x="681" 
d="M440 748q-124 0 -182 -66.5t-66 -205.5h298v-15h-299v-155h299v-15h-299q5 -143 60 -214.5t184 -71.5q48 0 97 11t90 35v-19q-79 -42 -186 -42q-134 0 -194.5 73t-66.5 228h-119v15h119v114q0 27 1 41h-120v15h120q9 145 71.5 216t191.5 71q109 0 185 -50v-19
q-79 54 -184 54z" />
    <glyph glyph-name="trademark" unicode="&#x2122;" horiz-adv-x="730" 
d="M189 741v-348h-15v348h-136v14h281v-14h-130zM363 393h-15v362h15l129 -230l131 230h15v-362h-15v331l-124 -217h-13l-123 217v-331z" />
    <glyph glyph-name="uni2126" unicode="&#x2126;" horiz-adv-x="715" 
d="M449 0v15q48 19 85.5 64t58 107.5t20.5 131.5v109q0 144 -64.5 233t-192.5 89q-129 0 -191.5 -90.5t-62.5 -231.5v-109q0 -109 43 -193t121 -110v-15h-210v15h173q-65 34 -104 114.5t-39 195.5v95q0 169 70 256.5t202 87.5q136 0 203.5 -90.5t67.5 -253.5v-95
q0 -110 -40 -192t-104 -118h174v-15h-210z" />
    <glyph glyph-name="arrowleft" unicode="&#x2190;" horiz-adv-x="701" 
d="M701 396v-15h-620l243 -227h-23l-249 235l251 235h20l-243 -228h621z" />
    <glyph glyph-name="arrowup" unicode="&#x2191;" horiz-adv-x="546" 
d="M281 54h-15v620l-228 -242v20l235 251l235 -249v-23l-227 242v-619z" />
    <glyph glyph-name="arrowright" unicode="&#x2192;" horiz-adv-x="701" 
d="M620 396l-242 228h20l251 -235l-249 -235h-23l242 227h-619v15h620z" />
    <glyph glyph-name="arrowdown" unicode="&#x2193;" horiz-adv-x="546" 
d="M508 326v-23l-235 -249l-235 251v20l228 -243v621h15v-620z" />
    <glyph glyph-name="uni2196" unicode="&#x2196;" horiz-adv-x="597" 
d="M100 274l-14 14l-12 343l343 -9l16 -17l-333 11l439 -438l-11 -10l-439 438z" />
    <glyph glyph-name="uni2197" unicode="&#x2197;" horiz-adv-x="597" 
d="M69 168l-11 10l438 438l-332 -11l16 17l343 9l-12 -343l-14 -14l10 332z" />
    <glyph glyph-name="uni2198" unicode="&#x2198;" horiz-adv-x="597" 
d="M506 192l-10 333l14 -14l12 -343l-343 9l-16 17l332 -12l-438 439l11 10z" />
    <glyph glyph-name="uni2199" unicode="&#x2199;" horiz-adv-x="597" 
d="M529 631l11 -10l-439 -439l333 12l-16 -17l-343 -9l12 343l14 14l-11 -333z" />
    <glyph glyph-name="partialdiff" unicode="&#x2202;" horiz-adv-x="553" 
d="M116.5 475.5q48.5 63.5 141.5 63.5q79 0 123 -41t70 -103q-6 103 -34.5 170.5t-76 110.5t-122.5 83l8 14q98 -50 151.5 -116t73.5 -149t20 -201v-73q0 -128 -50.5 -188.5t-151.5 -60.5q-104 0 -152.5 62.5t-48.5 186.5v56q0 122 48.5 185.5zM125.5 63q41.5 -62 144.5 -62
q185 0 185 228v66q0 48 -20 101t-65 90.5t-115 37.5q-85 0 -128 -60t-43 -169v-66q0 -104 41.5 -166z" />
    <glyph glyph-name="uni2206" unicode="&#x2206;" horiz-adv-x="643" 
d="M327 755l286 -755h-583l281 755h16zM590 15l-271 716l-267 -716h538z" />
    <glyph glyph-name="product" unicode="&#x220f;" horiz-adv-x="636" 
d="M520 740v-962h-16v962h-370v-962h-16v962h-57v15h505v-15h-46z" />
    <glyph glyph-name="summation" unicode="&#x2211;" horiz-adv-x="627" 
d="M39 -207l249 483l-249 465v14h550v-15h-533l250 -464l-251 -483h534v-15h-550v15z" />
    <glyph glyph-name="minus" unicode="&#x2212;" horiz-adv-x="606" 
d="M520 394v-15h-434v15h434z" />
    <glyph glyph-name="radical" unicode="&#x221a;" horiz-adv-x="535" 
d="M52 536l202 -514l238 757h16l-245 -779h-15l-213 536h17z" />
    </font>
</defs>
</svg>
