<?xml version="1.0" standalone="no"?>
<!DOCTYPE svg PUBLIC "-//W3C//DTD SVG 1.1//EN" "http://www.w3.org/Graphics/SVG/1.1/DTD/svg11.dtd" >
<svg xmlns="http://www.w3.org/2000/svg" xmlns:xlink="http://www.w3.org/1999/xlink" version="1.1">
<metadata>
Created by FontForge 20170731 at Thu Apr  6 12:13:23 2017
 By Aleksey,,,
Copyright, 2017 tptq-arabic.com All rights reserved. For exclusive use on TPTQ Arabic Web Font servers.
</metadata>
<defs>
<font id="KanunAR+LT-Heavy" horiz-adv-x="0" >
  <font-face 
    font-family="Kanun AR+LT Heavy"
    font-weight="800"
    font-stretch="normal"
    units-per-em="1000"
    panose-1="2 0 0 0 0 0 0 0 0 0"
    ascent="780"
    descent="-220"
    x-height="549"
    cap-height="755"
    bbox="-290 -512 2421 1247"
    underline-thickness="50"
    underline-position="-200"
    unicode-range="U+000D-1F6CF"
  />
<missing-glyph horiz-adv-x="306" 
 />
    <glyph glyph-name="fi" unicode="fi" horiz-adv-x="688" 
d="M624 771v-141h-165v141h165zM97 549v39q0 88 52.5 135t143.5 47q24 0 51.5 -3t46.5 -8v-118q-37 7 -51 7q-40 0 -60 -16.5t-20 -59.5v-23h119v-123h-119v-426h-163v426h-62v123h62zM623 549v-549h-163v549h163z" />
    <glyph glyph-name="fl" unicode="fl" horiz-adv-x="735" 
d="M97 549v39q0 88 52.5 135t143.5 47q24 0 51.5 -3t46.5 -8v-118q-37 7 -51 7q-40 0 -60 -16.5t-20 -59.5v-23h119v-123h-119v-426h-163v426h-62v123h62zM623 755v-554q0 -48 10.5 -65.5t41.5 -17.5q29 0 49 9v-130q-45 -12 -95 -12q-169 0 -169 160v610h163z" />
    <glyph glyph-name="uniFC43" unicode="&#xfedf;&#xfef0;" horiz-adv-x="832" arabic-form="isolated" 
d="M678 58q34 -39 34 -97q0 -77 -41 -134.5t-118.5 -89t-184.5 -31.5q-173 0 -256 76.5t-85 237.5q0 49 8 93.5t17 72.5t12 35h129q-3 -7 -12 -34t-17 -66t-8 -76q2 -58 23.5 -91.5t69.5 -48.5t131 -15q109 0 168 20t59 52q0 24 -31 33.5t-109 15.5v176q22 -4 59 -4
q46 0 70 6t33.5 21.5t9.5 44.5v493l130 1v-460q0 -174 -91 -231z" />
    <glyph glyph-name="uniFC86" unicode="&#xfee0;&#xfef0;" horiz-adv-x="866" arabic-form="final" 
d="M883 180v-177l-17 -3q-116 0 -145 98q-20 -26 -43 -40q34 -39 34 -97q0 -77 -41 -134.5t-118.5 -89t-184.5 -31.5q-173 0 -256 76.5t-85 237.5q0 49 8 93.5t17 72.5t12 35h129q-3 -7 -12 -34t-17 -66t-8 -76q2 -58 23.5 -91.5t69.5 -48.5t131 -15q109 0 168 20t59 52
q0 24 -31 33.5t-109 15.5v176q22 -4 59 -4q46 0 70 6t33.5 21.5t9.5 44.5v493l130 1v-460v-15q4 -52 26.5 -71.5t70.5 -19.5z" />
    <glyph glyph-name="uniFDF2" unicode="&#x627;&#xfedf;&#xfee0;&#xfeea;" horiz-adv-x="1402" arabic-form="isolated" 
d="M939 748l137 1v-460q0 -155 -56 -222t-169 -67h-1q-109 0 -141 86q-52 -86 -182 -86h-1q-99 1 -148 44t-62 131q-26 -89 -129 -89q-85 0 -122.5 49.5t-37.5 140.5q0 61 24 106.5t86 82.5t174 66v58h122v-313q0 -39 7.5 -58t27 -27t58.5 -8h1q36 0 54.5 6.5t26 23.5
t7.5 49v486l137 1v-451q0 -66 22.5 -90.5t75.5 -24.5h1q36 0 54.5 6.5t26 23.5t7.5 49v486zM1339 748v-748h-137v748h137zM311 284v104q-100 -23 -141 -42t-41 -41q0 -18 21.5 -26.5t67.5 -8.5q67 0 93 14z" />
    <glyph glyph-name="uniFEF5" unicode="&#xfedf;&#xfe82;" horiz-adv-x="578" arabic-form="isolated" 
d="M505 448.5q-19 -42.5 -64 -80.5q46 -41 64.5 -81t18.5 -91q0 -69 -21 -111.5t-71.5 -63.5t-139.5 -21q-106 0 -164 6t-82 22l9 166q20 17 94 77q25 21 108 90q-68 49 -255 176l62 129q145 -97 296 -216q28 31 28 84v215h136v-195q0 -63 -19 -105.5zM400 258.5
q-16 18.5 -52 40.5l-109 -84l-40 -31q24 -1 100 -1q57 0 87 8t30 29q0 20 -16 38.5zM155 724q-27 9 -46 9q-22 0 -36.5 -4t-21.5 -8.5t-8 -5.5v89q12 7 29 13t32 6q18 0 50 -8q3 -1 20 -5t40 -4q20 0 34.5 3.5t21.5 7l9 4.5v-89q-2 -1 -9 -5.5t-22.5 -8.5t-37.5 -4
q-23 0 -55 10z" />
    <glyph glyph-name="uniFEF6" unicode="&#xfee0;&#xfe82;" horiz-adv-x="658" arabic-form="final" 
d="M675 180v-177l-17 -3q-84 0 -134 31t-71 94q-24 -65 -123.5 -95t-306.5 -30v183q116 0 187 7q-5 86 -33.5 177.5t-96.5 197.5l119 74q51 -88 78.5 -151.5t41.5 -128.5t17 -150q52 15 75 37t23 53v449h137v-464q0 -41 7.5 -62.5t25.5 -30t54 -8.5zM192 710q-27 9 -46 9
q-22 0 -36.5 -4t-21.5 -8.5t-8 -5.5v89q12 7 29 13t32 6q18 0 50 -8q3 -1 20 -5t40 -4q20 0 34.5 3.5t21.5 7l9 4.5v-89q-2 -1 -9 -5.5t-22.5 -8.5t-37.5 -4q-23 0 -55 10z" />
    <glyph glyph-name="uniFEF7" unicode="&#xfedf;&#xfe84;" horiz-adv-x="578" arabic-form="isolated" 
d="M505 448.5q-19 -42.5 -64 -80.5q46 -41 64.5 -81t18.5 -91q0 -69 -21 -111.5t-71.5 -63.5t-139.5 -21q-106 0 -164 6t-82 22l9 166q20 17 94 77q25 21 108 90q-68 49 -255 176l62 129q145 -97 296 -216q28 31 28 84v215h136v-195q0 -63 -19 -105.5zM400 258.5
q-16 18.5 -52 40.5l-109 -84l-40 -31q24 -1 100 -1q57 0 87 8t30 29q0 20 -16 38.5zM227 802q31 3 37 3v-76q-61 -8 -213 -19v75l28 2q-11 17 -11 41q0 47 30 73.5t74 26.5q20 0 42.5 -7t22.5 -8v-74q-5 2 -24.5 6.5t-40.5 4.5q-48 0 -48 -26q0 -15 8.5 -20t33.5 -5
q30 0 61 3z" />
    <glyph glyph-name="uniFEF8" unicode="&#xfee0;&#xfe84;" horiz-adv-x="658" arabic-form="final" 
d="M675 180v-177l-17 -3q-84 0 -134 31t-71 94q-24 -65 -123.5 -95t-306.5 -30v183q116 0 187 7q-5 86 -33.5 177.5t-96.5 197.5l119 74q51 -88 78.5 -151.5t41.5 -128.5t17 -150q52 15 75 37t23 53v449h137v-464q0 -41 7.5 -62.5t25.5 -30t54 -8.5zM264 788q31 3 37 3v-76
q-61 -8 -213 -19v75l28 2q-11 17 -11 41q0 47 30 73.5t74 26.5q20 0 42.5 -7t22.5 -8v-74q-5 2 -24.5 6.5t-40.5 4.5q-48 0 -48 -26q0 -15 8.5 -20t33.5 -5q30 0 61 3z" />
    <glyph glyph-name="uniFEF9" unicode="&#xfedf;&#xfe88;" horiz-adv-x="578" arabic-form="isolated" 
d="M505 448.5q-19 -42.5 -64 -80.5q46 -41 64.5 -81t18.5 -91q0 -69 -21 -111.5t-71.5 -63.5t-139.5 -21q-106 0 -164 6t-82 22l9 166q20 17 94 77q25 21 108 90q-68 49 -255 176l62 129q145 -97 296 -216q28 31 28 84v215h136v-195q0 -63 -19 -105.5zM400 258.5
q-16 18.5 -52 40.5l-109 -84l-40 -31q24 -1 100 -1q57 0 87 8t30 29q0 20 -16 38.5zM226 -185q31 3 37 3v-76q-61 -8 -213 -19v75l28 2q-11 17 -11 41q0 47 30 73.5t74 26.5q20 0 42.5 -7t22.5 -8v-74q-5 2 -24.5 6.5t-40.5 4.5q-48 0 -48 -26q0 -15 8.5 -20t33.5 -5
q30 0 61 3z" />
    <glyph glyph-name="uniFEFA" unicode="&#xfee0;&#xfe88;" horiz-adv-x="658" arabic-form="final" 
d="M675 180v-177l-17 -3q-84 0 -134 31t-71 94q-24 -65 -123.5 -95t-306.5 -30v183q116 0 187 7q-5 86 -33.5 177.5t-96.5 197.5l119 74q51 -88 78.5 -151.5t41.5 -128.5t17 -150q52 15 75 37t23 53v449h137v-464q0 -41 7.5 -62.5t25.5 -30t54 -8.5zM305 -185q31 3 37 3v-76
q-61 -8 -213 -19v75l28 2q-11 17 -11 41q0 47 30 73.5t74 26.5q20 0 42.5 -7t22.5 -8v-74q-5 2 -24.5 6.5t-40.5 4.5q-48 0 -48 -26q0 -15 8.5 -20t33.5 -5q30 0 61 3z" />
    <glyph glyph-name="uniFEFB" unicode="&#xfedf;&#xfe8e;" horiz-adv-x="578" arabic-form="isolated" 
d="M505 448.5q-19 -42.5 -64 -80.5q46 -41 64.5 -81t18.5 -91q0 -69 -21 -111.5t-71.5 -63.5t-139.5 -21q-106 0 -164 6t-82 22l9 166q20 17 94 77q25 21 108 90q-68 49 -255 176l62 129q145 -97 296 -216q28 31 28 84v215h136v-195q0 -63 -19 -105.5zM400 258.5
q-16 18.5 -52 40.5l-109 -84l-40 -31q24 -1 100 -1q57 0 87 8t30 29q0 20 -16 38.5z" />
    <glyph glyph-name="uniFEFC" unicode="&#xfee0;&#xfe8e;" horiz-adv-x="658" arabic-form="final" 
d="M675 180v-177l-17 -3q-84 0 -134 31t-71 94q-24 -65 -123.5 -95t-306.5 -30v183q116 0 187 7q-5 86 -33.5 177.5t-96.5 197.5l119 74q51 -88 78.5 -151.5t41.5 -128.5t17 -150q52 15 75 37t23 53v449h137v-464q0 -41 7.5 -62.5t25.5 -30t54 -8.5z" />
    <glyph glyph-name="uni066E.init" unicode="&#x66e;" horiz-adv-x="269" 
d="M-17 3v177l17 3q60 0 84.5 28t24.5 91q0 54 -16 132h124q16 -80 16 -153q0 -128 -62 -204.5t-171 -76.5z" />
    <glyph glyph-name="uni066E.medi" unicode="&#x66e;" horiz-adv-x="359" 
d="M376 180v-177l-17 -3q-76 0 -120 26.5t-59 81.5q-15 -55 -59.5 -81.5t-120.5 -26.5l-17 3v177l17 3q46 0 71 8.5t36.5 31t11.5 65.5l1 -1l-1 99h127v-98q0 -43 10.5 -65.5t34.5 -31t68 -8.5z" />
    <glyph glyph-name="uni066E.fina" unicode="&#x66e;" horiz-adv-x="962" 
d="M979 180v-177l-17 -3q-76 0 -120 27.5t-58 85.5q-18 -41 -60 -66t-115 -36t-188 -11q-157 0 -241.5 25t-118.5 82t-34 160q0 37 5 70.5t10 54t7 25.5h124q-2 -5 -6.5 -21.5t-9 -41t-4.5 -48.5q0 -50 23.5 -76t83.5 -36.5t176 -10.5q122 0 181 8.5t82.5 32.5t23.5 75v87
h127v-96q0 -44 10.5 -66.5t34.5 -31.5t67 -9z" />
    <glyph glyph-name="uni066F.fina" unicode="&#x66f;" horiz-adv-x="809" 
d="M826 177v-174l-17 -3h-69q-20 -128 -104.5 -186.5t-251.5 -58.5q-136 0 -213.5 34.5t-110.5 106.5t-33 193q0 52 8 98t16.5 74t11.5 35h130q-3 -7 -12 -34t-17 -66.5t-8 -77.5q0 -68 22.5 -106.5t75 -56t147.5 -17.5q93 0 143.5 7.5t72 23.5t26.5 43h-131q-87 0 -130 49
t-43 133q0 66 23.5 121.5t71 89t114.5 33.5q92 0 142 -70.5t57 -184.5h62zM459 181.5q20 -6.5 75 -6.5h110v8q0 36 -26.5 63.5t-80.5 27.5q-45 0 -71.5 -20t-26.5 -49q0 -17 20 -23.5z" />
    <glyph glyph-name="uni06A1.init" unicode="&#x6a1;" horiz-adv-x="465" 
d="M380 545q49 -76 49 -193v-56q0 -152 -70.5 -224t-221.5 -72h-137l-17 3v177l17 3h150q90 0 130.5 21.5t40.5 68.5v27q-33 -62 -127 -62q-80 0 -120.5 44.5t-40.5 116.5q0 60 22.5 110.5t68 81t109.5 30.5q98 0 147 -76zM289 368.5q23 3.5 31 12.5q-1 31 -25.5 54
t-72.5 23q-41 0 -65.5 -15.5t-24.5 -40.5q0 -21 18.5 -29t68.5 -8q47 0 70 3.5z" />
    <glyph glyph-name="uni06A1.medi" unicode="&#x6a1;" horiz-adv-x="506" 
d="M523 180v-177l-18 -3q-163 0 -255 49q-92 -49 -249 -49l-18 3v177l18 3q64 0 109 3q-50 46 -50 132q0 102 51.5 159.5t141.5 57.5q91 0 142.5 -57t51.5 -160q0 -85 -50 -132q45 -3 108 -3zM164 293q0 -26 20 -44t68 -32q49 14 69.5 31.5t20.5 44.5q0 73 -89 73t-89 -73z
" />
    <glyph glyph-name="uni06A1.fina" unicode="&#x6a1;" horiz-adv-x="953" 
d="M970 180v-177l-18 -3q-165 0 -259 52q-53 -28 -124.5 -40t-167.5 -12q-142 0 -223.5 29.5t-116 89.5t-34.5 158q0 39 4.5 75t9.5 59t7 29h126q-1 -5 -5.5 -23t-8.5 -45.5t-4 -55.5q0 -46 23.5 -75t81 -43.5t158.5 -14.5q61 0 139 2q-52 46 -52 133q0 102 52 159.5
t142 57.5q91 0 142 -57t51 -160q0 -86 -50 -132q46 -3 109 -3zM611 293q0 -26 20 -44t67 -32q49 14 70 32t21 44q0 73 -89 73t-89 -73z" />
    <glyph glyph-name="uniFB57" unicode="&#x67e;" horiz-adv-x="962" arabic-form="final" 
d="M979 180v-177l-17 -3q-76 0 -120 27.5t-58 85.5q-18 -41 -60 -66t-115 -36t-188 -11q-157 0 -241.5 25t-118.5 82t-34 160q0 37 5 70.5t10 54t7 25.5h124q-2 -5 -6.5 -21.5t-9 -41t-4.5 -48.5q0 -50 23.5 -76t83.5 -36.5t176 -10.5q122 0 181 8.5t82.5 32.5t23.5 75v87
h127v-96q0 -44 10.5 -66.5t34.5 -31.5t67 -9zM388 -215l-79 80l79 80l65 -65l65 65l79 -80l-79 -80l-65 65zM453 -184l70 -69l-70 -69l-68 69z" />
    <glyph glyph-name="uniFB58" unicode="&#x67e;" horiz-adv-x="269" arabic-form="initial" 
d="M-17 3v177l17 3q60 0 84.5 28t24.5 91q0 54 -16 132h124q16 -80 16 -153q0 -128 -62 -204.5t-171 -76.5zM10 -222l-79 80l79 80l65 -65l65 65l79 -80l-79 -80l-65 65zM75 -191l70 -69l-70 -69l-68 69z" />
    <glyph glyph-name="uniFB59" unicode="&#x67e;" horiz-adv-x="359" arabic-form="medial" 
d="M376 180v-177l-17 -3q-76 0 -120 26.5t-59 81.5q-15 -55 -59.5 -81.5t-120.5 -26.5l-17 3v177l17 3q46 0 71 8.5t36.5 31t11.5 65.5l1 -1l-1 99h127v-98q0 -43 10.5 -65.5t34.5 -31t68 -8.5zM115 -222l-79 80l79 80l65 -65l65 65l79 -80l-79 -80l-65 65zM180 -191l70 -69
l-70 -69l-68 69z" />
    <glyph glyph-name="uniFB6B" unicode="&#x6a4;" horiz-adv-x="953" arabic-form="final" 
d="M970 180v-177l-18 -3q-165 0 -259 52q-53 -28 -124.5 -40t-167.5 -12q-142 0 -223.5 29.5t-116 89.5t-34.5 158q0 39 4.5 75t9.5 59t7 29h126q-1 -5 -5.5 -23t-8.5 -45.5t-4 -55.5q0 -46 23.5 -75t81 -43.5t158.5 -14.5q61 0 139 2q-52 46 -52 133q0 102 52 159.5
t142 57.5q91 0 142 -57t51 -160q0 -86 -50 -132q46 -3 109 -3zM611 293q0 -26 20 -44t67 -32q49 14 70 32t21 44q0 73 -89 73t-89 -73zM700 726l-68 69l68 70l70 -70zM764 594l-65 66l-65 -66l-78 81l78 79l65 -64l65 64l79 -79z" />
    <glyph glyph-name="uniFB6C" unicode="&#x6a4;" horiz-adv-x="465" arabic-form="initial" 
d="M380 545q49 -76 49 -193v-56q0 -152 -70.5 -224t-221.5 -72h-137l-17 3v177l17 3h150q90 0 130.5 21.5t40.5 68.5v27q-33 -62 -127 -62q-80 0 -120.5 44.5t-40.5 116.5q0 60 22.5 110.5t68 81t109.5 30.5q98 0 147 -76zM289 368.5q23 3.5 31 12.5q-1 31 -25.5 54
t-72.5 23q-41 0 -65.5 -15.5t-24.5 -40.5q0 -21 18.5 -29t68.5 -8q47 0 70 3.5zM227 810l-68 69l68 70l70 -70zM291 678l-65 66l-65 -66l-78 81l78 79l65 -64l65 64l79 -79z" />
    <glyph glyph-name="uniFB6D" unicode="&#x6a4;" horiz-adv-x="506" arabic-form="medial" 
d="M523 180v-177l-18 -3q-163 0 -255 49q-92 -49 -249 -49l-18 3v177l18 3q64 0 109 3q-50 46 -50 132q0 102 51.5 159.5t141.5 57.5q91 0 142.5 -57t51.5 -160q0 -85 -50 -132q45 -3 108 -3zM164 293q0 -26 20 -44t68 -32q49 14 69.5 31.5t20.5 44.5q0 73 -89 73t-89 -73z
M253 726l-68 69l68 70l70 -70zM317 594l-65 66l-65 -66l-78 81l78 79l65 -64l65 64l79 -79z" />
    <glyph glyph-name="uniFB7B" unicode="&#x686;" horiz-adv-x="692" arabic-form="final" 
d="M709 180v-177l-17 -3q-65 0 -101 18t-51 54.5t-18 97.5q-144 -48 -224 -83t-119 -70t-39 -78q0 -58 51 -84.5t168 -26.5q80 0 143 10t102.5 22t39.5 14l1 -173q-43 -17 -61.5 -23.5t-83.5 -18t-152 -11.5q-166 0 -243.5 72.5t-77.5 209.5v9q0 83 41.5 143t128.5 106.5
t232 89.5q-139 38 -217 38q-41 0 -75.5 -11t-56.5 -24t-22 -15v161q0 2 19.5 17t54.5 27.5t84 12.5q47 0 92 -11.5t118 -35.5q74 -25 124.5 -38.5t108.5 -18.5l-10 -168l-39 -13q23 -16 82 -16zM510 9l-61 -61l-49 49l-50 -49l-61 61l61 61l50 -49l49 49zM400 -28l53 -53
l-53 -53l-53 53z" />
    <glyph glyph-name="uniFB7C" unicode="&#x686;" horiz-adv-x="692" arabic-form="initial" 
d="M330.5 460q46.5 -13 115.5 -41q62 -25 111.5 -41t110.5 -23v-150q-33 -14 -137 -64q-135 -62 -160 -72q-100 -42 -183.5 -55.5t-185.5 -13.5l-18 3l-1 177l19 3q128 0 202.5 8t149.5 26q23 5 55 14.5t46 13.5l26 8l-28 9q-73 26 -123 38t-111 12q-43 0 -78 -11
t-57.5 -23.5t-22.5 -14.5v149q0 2 22 18t59.5 29.5t86.5 13.5q55 0 101.5 -13zM363 -143l-79 80l79 80l65 -65l65 65l79 -80l-79 -80l-65 65zM428 -112l70 -69l-70 -69l-68 69z" />
    <glyph glyph-name="uniFB7D" unicode="&#x686;" horiz-adv-x="732" arabic-form="medial" 
d="M749 180v-177l-17 -3q-70 0 -110 15t-58 46.5t-23 84.5l-49 -23q-84 -39 -121 -54q-100 -42 -183.5 -55.5t-185.5 -13.5l-18 3l-1 177l19 3q128 0 202.5 8t149.5 26q23 5 55 14.5t46 13.5l26 8l-28 9q-73 26 -123 38t-111 12q-43 0 -78 -11t-57.5 -23.5t-22.5 -14.5v149
q0 2 22 18t59.5 29.5t86.5 13.5q55 0 101.5 -13t115.5 -41q62 -25 111.5 -41t110.5 -23v-150l-28 -12q30 -10 92 -10zM493 17l79 -80l-79 -80l-65 65l-65 -65l-79 80l79 80l65 -65zM428 -112l70 -69l-70 -69l-68 69z" />
    <glyph glyph-name="uniFB8B" unicode="&#x698;" horiz-adv-x="385" arabic-form="final" 
d="M402 180v-177l-17 -3q-61 0 -96 35q-13 -84 -49 -147.5t-90 -98.5t-120 -35q-30 0 -51.5 5.5t-32.5 11.5t-13 8v170q40 -12 83 -12q69 0 111.5 51t42.5 151q0 45 -4.5 86t-13.5 104h131q7 -54 11 -110q6 -19 26.5 -27.5t64.5 -8.5zM219 520l-68 69l68 70l70 -70zM283 388
l-65 66l-65 -66l-78 81l78 79l65 -64l65 64l79 -79z" />
    <glyph glyph-name="uniFB8F" unicode="&#x6a9;" horiz-adv-x="900" arabic-form="final" 
d="M917 180v-177l-17 -3q-64 0 -106.5 11t-78.5 38t-79 79q-13 -62 -63.5 -95t-153.5 -33h-76q-124 0 -192.5 25t-96 79t-27.5 147q0 29 4 55.5t8.5 43.5t5.5 21h125l-5 -15t-8 -30.5t-4 -38.5q0 -43 17.5 -64.5t61 -30.5t128.5 -9h78q71 0 99 7.5t32 25.5q-30 35 -54.5 62
t-41.5 46q-59 64 -63 69l1 133l427 235v-163l-291 -149q70 -81 140 -155q44 -47 73 -70t60.5 -32t79.5 -9z" />
    <glyph glyph-name="uniFB90" unicode="&#x6a9;" horiz-adv-x="446" arabic-form="initial" 
d="M448 598l-261 -134q118 -38 169.5 -92.5t51.5 -143.5q0 -111 -63.5 -169.5t-173.5 -58.5h-170l-18 3v177l18 3h183q47 0 81.5 9.5t34.5 33.5q0 23 -22 43t-80.5 41.5t-167.5 47.5v168l418 234v-162z" />
    <glyph glyph-name="uniFB91" unicode="&#x6a9;" horiz-adv-x="568" arabic-form="medial" 
d="M585 180v-177l-17 -3q-64 0 -106.5 11t-78 37.5t-78.5 78.5q-11 -63 -58.5 -95t-145.5 -32h-100l-18 3v177l18 3h98q76 0 105 7.5t33 25.5l-70 78l-88 99v133l427 235v-163l-289 -148l138 -156q45 -47 74 -70t60 -32t79 -9z" />
    <glyph glyph-name="uniFB93" unicode="&#x6af;" horiz-adv-x="900" arabic-form="final" 
d="M917 180v-177l-17 -3q-64 0 -106.5 11t-78.5 38t-79 79q-13 -62 -63.5 -95t-153.5 -33h-76q-124 0 -192.5 25t-96 79t-27.5 147q0 29 4 55.5t8.5 43.5t5.5 21h125l-5 -15t-8 -30.5t-4 -38.5q0 -43 17.5 -64.5t61 -30.5t128.5 -9h78q71 0 99 7.5t32 25.5q-30 35 -54.5 62
t-41.5 46q-59 64 -63 69l1 133l427 235v-163l-291 -149q70 -81 140 -155q44 -47 73 -70t60.5 -32t79.5 -9zM393 655l416 234v-66l-416 -233v65z" />
    <glyph glyph-name="uniFB94" unicode="&#x6af;" horiz-adv-x="446" arabic-form="initial" 
d="M448 598l-261 -134q118 -38 169.5 -92.5t51.5 -143.5q0 -111 -63.5 -169.5t-173.5 -58.5h-170l-18 3v177l18 3h183q47 0 81.5 9.5t34.5 33.5q0 23 -22 43t-80.5 41.5t-167.5 47.5v168l418 234v-162zM8 653l409 231v-66l-409 -230v65z" />
    <glyph glyph-name="uniFB95" unicode="&#x6af;" horiz-adv-x="568" arabic-form="medial" 
d="M585 180v-177l-17 -3q-64 0 -106.5 11t-78 37.5t-78.5 78.5q-11 -63 -58.5 -95t-145.5 -32h-100l-18 3v177l18 3h98q76 0 105 7.5t33 25.5l-70 78l-88 99v133l427 235v-163l-289 -148l138 -156q45 -47 74 -70t60 -32t79 -9zM71 651l416 234v-66l-416 -233v65z" />
    <glyph glyph-name="uniFB9F" unicode="&#x6ba;" horiz-adv-x="766" arabic-form="final" 
d="M783 180v-177l-17 -3q-66 0 -101 27q-17 -128 -97 -193t-228 -65q-165 0 -239 79.5t-74 249.5q0 53 8.5 98t19 76t10.5 28h129q-3 -7 -12 -34.5t-17.5 -69t-8.5 -84.5q0 -60 18.5 -94.5t61 -50t115.5 -15.5q72 0 113 17.5t59 53t18 94.5q0 53 -4 100t-12 112h131
q4 -34 10 -100q3 -19 12 -28.5t29 -13.5t59 -4z" />
    <glyph glyph-name="uniFBE8" unicode="&#x649;" horiz-adv-x="269" arabic-form="initial" 
d="M-17 3v177l17 3q60 0 84.5 28t24.5 91q0 54 -16 132h124q16 -80 16 -153q0 -128 -62 -204.5t-171 -76.5z" />
    <glyph glyph-name="uniFBE9" unicode="&#x649;" horiz-adv-x="359" arabic-form="medial" 
d="M376 180v-177l-17 -3q-76 0 -120 26.5t-59 81.5q-15 -55 -59.5 -81.5t-120.5 -26.5l-17 3v177l17 3q46 0 71 8.5t36.5 31t11.5 65.5l1 -1l-1 99h127v-98q0 -43 10.5 -65.5t34.5 -31t68 -8.5z" />
    <glyph glyph-name="uniFBFD" unicode="&#x6cc;" horiz-adv-x="755" arabic-form="final" 
d="M772 180v-177l-17 -3h-50q7 -28 7 -53q0 -72 -41 -126.5t-118.5 -84.5t-184.5 -30q-173 0 -256 76t-85 238q0 49 8 93.5t17 72.5t12 35h129q-3 -7 -12 -34t-17 -66t-8 -76q2 -58 24 -91.5t70.5 -48.5t131.5 -15q108 0 165 18.5t57 49.5q0 25 -31 36.5t-106 17.5v178
q74 -7 238 -7h50z" />
    <glyph glyph-name="uniFBFE" unicode="&#x6cc;" horiz-adv-x="269" arabic-form="initial" 
d="M171 76.5q-62 -76.5 -171 -76.5l-17 3v177l17 3q60 0 84.5 28t24.5 91q0 54 -16 132h124q16 -80 16 -153q0 -128 -62 -204.5zM134 -59l71 -72l-71 -73l-60 60l-60 -60l-70 73l70 72l60 -59z" />
    <glyph glyph-name="uniFBFF" unicode="&#x6cc;" horiz-adv-x="359" arabic-form="medial" 
d="M376 180v-177l-17 -3q-76 0 -120 26.5t-59 81.5q-15 -55 -59.5 -81.5t-120.5 -26.5l-17 3v177l17 3q46 0 71 8.5t36.5 31t11.5 65.5l1 -1l-1 99h127v-98q0 -43 10.5 -65.5t34.5 -31t68 -8.5zM242 -215l-63 63l-63 -63l-74 77l74 76l63 -62l63 62l75 -76z" />
    <glyph glyph-name="uniFC03" unicode="&#xfc03;" horiz-adv-x="812" arabic-form="isolated" 
d="M750 148.5q-26 -56.5 -75 -88.5q37 -39 37 -99q0 -120 -90.5 -187.5t-253.5 -67.5q-173 0 -256 76t-85 238q0 49 8 93.5t17 72.5t12 35h129q-3 -7 -12 -34.5t-17 -67.5t-8 -78q2 -57 24 -89.5t69.5 -47t130.5 -14.5q109 0 166.5 18.5t57.5 49.5q0 24 -31.5 36t-105.5 17
v176q22 -4 63 -4q66 0 94 27.5t28 88.5q0 55 -16 135h124q16 -82 16 -156q0 -73 -26 -129.5zM765 577q31 3 37 3v-76q-61 -8 -213 -19v75l28 2q-11 17 -11 41q0 47 30 73.5t74 26.5q20 0 42.5 -7t22.5 -8v-74q-5 2 -24.5 6.5t-40.5 4.5q-48 0 -48 -26q0 -15 8.5 -20t33.5 -5
q30 0 61 3z" />
    <glyph glyph-name="uniFC04" unicode="&#xfc04;" horiz-adv-x="812" arabic-form="isolated" 
d="M750 148.5q-26 -56.5 -75 -88.5q37 -39 37 -99q0 -120 -90.5 -187.5t-253.5 -67.5q-173 0 -256 76t-85 238q0 49 8 93.5t17 72.5t12 35h129q-3 -7 -12 -34.5t-17 -67.5t-8 -78q2 -57 24 -89.5t69.5 -47t130.5 -14.5q109 0 166.5 18.5t57.5 49.5q0 24 -31.5 36t-105.5 17
v176q22 -4 63 -4q66 0 94 27.5t28 88.5q0 55 -16 135h124q16 -82 16 -156q0 -73 -26 -129.5zM765 577q31 3 37 3v-76q-61 -8 -213 -19v75l28 2q-11 17 -11 41q0 47 30 73.5t74 26.5q20 0 42.5 -7t22.5 -8v-74q-5 2 -24.5 6.5t-40.5 4.5q-48 0 -48 -26q0 -15 8.5 -20t33.5 -5
q30 0 61 3zM430 -498l-63 63l-63 -63l-74 77l74 76l63 -62l63 62l75 -76z" />
    <glyph glyph-name="uniFC09" unicode="&#xfc09;" horiz-adv-x="812" arabic-form="isolated" 
d="M750 148.5q-26 -56.5 -75 -88.5q37 -39 37 -99q0 -120 -90.5 -187.5t-253.5 -67.5q-173 0 -256 76t-85 238q0 49 8 93.5t17 72.5t12 35h129q-3 -7 -12 -34.5t-17 -67.5t-8 -78q2 -57 24 -89.5t69.5 -47t130.5 -14.5q109 0 166.5 18.5t57.5 49.5q0 24 -31.5 36t-105.5 17
v176q22 -4 63 -4q66 0 94 27.5t28 88.5q0 55 -16 135h124q16 -82 16 -156q0 -73 -26 -129.5zM581 -377l90 86l89 -86l-89 -88z" />
    <glyph glyph-name="uniFC0A" unicode="&#xfc0a;" horiz-adv-x="812" arabic-form="isolated" 
d="M750 148.5q-26 -56.5 -75 -88.5q37 -39 37 -99q0 -120 -90.5 -187.5t-253.5 -67.5q-173 0 -256 76t-85 238q0 49 8 93.5t17 72.5t12 35h129q-3 -7 -12 -34.5t-17 -67.5t-8 -78q2 -57 24 -89.5t69.5 -47t130.5 -14.5q109 0 166.5 18.5t57.5 49.5q0 24 -31.5 36t-105.5 17
v176q22 -4 63 -4q66 0 94 27.5t28 88.5q0 55 -16 135h124q16 -82 16 -156q0 -73 -26 -129.5zM581 -377l90 86l89 -86l-89 -88zM430 -498l-63 63l-63 -63l-74 77l74 76l63 -62l63 62l75 -76z" />
    <glyph glyph-name="uniFC0F" unicode="&#xfc0f;" horiz-adv-x="812" arabic-form="isolated" 
d="M750 148.5q-26 -56.5 -75 -88.5q37 -39 37 -99q0 -120 -90.5 -187.5t-253.5 -67.5q-173 0 -256 76t-85 238q0 49 8 93.5t17 72.5t12 35h129q-3 -7 -12 -34.5t-17 -67.5t-8 -78q2 -57 24 -89.5t69.5 -47t130.5 -14.5q109 0 166.5 18.5t57.5 49.5q0 24 -31.5 36t-105.5 17
v176q22 -4 63 -4q66 0 94 27.5t28 88.5q0 55 -16 135h124q16 -82 16 -156q0 -73 -26 -129.5zM764 494l-66 65l-65 -65l-79 80l79 80l65 -65l66 65l78 -80z" />
    <glyph glyph-name="uniFC10" unicode="&#xfc10;" horiz-adv-x="812" arabic-form="isolated" 
d="M750 148.5q-26 -56.5 -75 -88.5q37 -39 37 -99q0 -120 -90.5 -187.5t-253.5 -67.5q-173 0 -256 76t-85 238q0 49 8 93.5t17 72.5t12 35h129q-3 -7 -12 -34.5t-17 -67.5t-8 -78q2 -57 24 -89.5t69.5 -47t130.5 -14.5q109 0 166.5 18.5t57.5 49.5q0 24 -31.5 36t-105.5 17
v176q22 -4 63 -4q66 0 94 27.5t28 88.5q0 55 -16 135h124q16 -82 16 -156q0 -73 -26 -129.5zM764 494l-66 65l-65 -65l-79 80l79 80l65 -65l66 65l78 -80zM430 -498l-63 63l-63 -63l-74 77l74 76l63 -62l63 62l75 -76z" />
    <glyph glyph-name="uniFC13" unicode="&#xfc13;" horiz-adv-x="812" arabic-form="isolated" 
d="M750 148.5q-26 -56.5 -75 -88.5q37 -39 37 -99q0 -120 -90.5 -187.5t-253.5 -67.5q-173 0 -256 76t-85 238q0 49 8 93.5t17 72.5t12 35h129q-3 -7 -12 -34.5t-17 -67.5t-8 -78q2 -57 24 -89.5t69.5 -47t130.5 -14.5q109 0 166.5 18.5t57.5 49.5q0 24 -31.5 36t-105.5 17
v176q22 -4 63 -4q66 0 94 27.5t28 88.5q0 55 -16 135h124q16 -82 16 -156q0 -73 -26 -129.5zM699 625l-68 69l68 70l70 -70zM763 493l-65 66l-65 -66l-78 81l78 79l65 -64l65 64l79 -79z" />
    <glyph glyph-name="uniFC14" unicode="&#xfc14;" horiz-adv-x="812" arabic-form="isolated" 
d="M750 148.5q-26 -56.5 -75 -88.5q37 -39 37 -99q0 -120 -90.5 -187.5t-253.5 -67.5q-173 0 -256 76t-85 238q0 49 8 93.5t17 72.5t12 35h129q-3 -7 -12 -34.5t-17 -67.5t-8 -78q2 -57 24 -89.5t69.5 -47t130.5 -14.5q109 0 166.5 18.5t57.5 49.5q0 24 -31.5 36t-105.5 17
v176q22 -4 63 -4q66 0 94 27.5t28 88.5q0 55 -16 135h124q16 -82 16 -156q0 -73 -26 -129.5zM699 625l-68 69l68 70l70 -70zM763 493l-65 66l-65 -66l-78 81l78 79l65 -64l65 64l79 -79zM430 -498l-63 63l-63 -63l-74 77l74 76l63 -62l63 62l75 -76z" />
    <glyph glyph-name="uniFC31" unicode="&#xfc31;" horiz-adv-x="861" arabic-form="isolated" 
d="M778 535.5q47 -73.5 47 -186.5v-52q0 -101 -33.5 -162.5t-104.5 -87.5q25 -34 25 -86q0 -77 -41 -134.5t-118.5 -89t-184.5 -31.5q-173 0 -257 76.5t-84 237.5q0 49 8 93.5t17 72.5t12 35h129q-3 -7 -12 -34t-17 -66t-8 -76q2 -58 23.5 -91.5t69.5 -48.5t131 -15
q109 0 168 19t59 50q0 18 -16 28t-48 15t-94 9v162q24 -4 81 -4q100 0 145 23t45 76v33q-31 -69 -128 -69q-77 0 -113.5 43t-36.5 114q0 59 22 109.5t66 80.5t107 30q94 0 141 -73.5zM689 357.5q22 4.5 30 14.5q-1 31 -24 53.5t-69 22.5q-39 0 -62 -15.5t-23 -38.5t17.5 -32
t64.5 -9q44 0 66 4.5zM548 762l89 86l89 -86l-89 -88z" />
    <glyph glyph-name="uniFC32" unicode="&#xfc32;" horiz-adv-x="861" arabic-form="isolated" 
d="M778 535.5q47 -73.5 47 -186.5v-52q0 -101 -33.5 -162.5t-104.5 -87.5q25 -34 25 -86q0 -77 -41 -134.5t-118.5 -89t-184.5 -31.5q-173 0 -257 76.5t-84 237.5q0 49 8 93.5t17 72.5t12 35h129q-3 -7 -12 -34t-17 -66t-8 -76q2 -58 23.5 -91.5t69.5 -48.5t131 -15
q109 0 168 19t59 50q0 18 -16 28t-48 15t-94 9v162q24 -4 81 -4q100 0 145 23t45 76v33q-31 -69 -128 -69q-77 0 -113.5 43t-36.5 114q0 59 22 109.5t66 80.5t107 30q94 0 141 -73.5zM689 357.5q22 4.5 30 14.5q-1 31 -24 53.5t-69 22.5q-39 0 -62 -15.5t-23 -38.5t17.5 -32
t64.5 -9q44 0 66 4.5zM430 -498l-63 63l-63 -63l-74 77l74 76l63 -62l63 62l75 -76zM548 762l89 86l89 -86l-89 -88z" />
    <glyph glyph-name="uniFC35" unicode="&#xfc35;" horiz-adv-x="861" arabic-form="isolated" 
d="M778 535.5q47 -73.5 47 -186.5v-52q0 -101 -33.5 -162.5t-104.5 -87.5q25 -34 25 -86q0 -77 -41 -134.5t-118.5 -89t-184.5 -31.5q-173 0 -257 76.5t-84 237.5q0 49 8 93.5t17 72.5t12 35h129q-3 -7 -12 -34t-17 -66t-8 -76q2 -58 23.5 -91.5t69.5 -48.5t131 -15
q109 0 168 19t59 50q0 18 -16 28t-48 15t-94 9v162q24 -4 81 -4q100 0 145 23t45 76v33q-31 -69 -128 -69q-77 0 -113.5 43t-36.5 114q0 59 22 109.5t66 80.5t107 30q94 0 141 -73.5zM689 357.5q22 4.5 30 14.5q-1 31 -24 53.5t-69 22.5q-39 0 -62 -15.5t-23 -38.5t17.5 -32
t64.5 -9q44 0 66 4.5zM702 671l-66 65l-65 -65l-79 80l79 80l65 -65l66 65l78 -80z" />
    <glyph glyph-name="uniFC36" unicode="&#xfc36;" horiz-adv-x="861" arabic-form="isolated" 
d="M778 535.5q47 -73.5 47 -186.5v-52q0 -101 -33.5 -162.5t-104.5 -87.5q25 -34 25 -86q0 -77 -41 -134.5t-118.5 -89t-184.5 -31.5q-173 0 -257 76.5t-84 237.5q0 49 8 93.5t17 72.5t12 35h129q-3 -7 -12 -34t-17 -66t-8 -76q2 -58 23.5 -91.5t69.5 -48.5t131 -15
q109 0 168 19t59 50q0 18 -16 28t-48 15t-94 9v162q24 -4 81 -4q100 0 145 23t45 76v33q-31 -69 -128 -69q-77 0 -113.5 43t-36.5 114q0 59 22 109.5t66 80.5t107 30q94 0 141 -73.5zM689 357.5q22 4.5 30 14.5q-1 31 -24 53.5t-69 22.5q-39 0 -62 -15.5t-23 -38.5t17.5 -32
t64.5 -9q44 0 66 4.5zM702 671l-66 65l-65 -65l-79 80l79 80l65 -65l66 65l78 -80zM430 -498l-63 63l-63 -63l-74 77l74 76l63 -62l63 62l75 -76z" />
    <glyph glyph-name="uniFC3D" unicode="&#xfc3d;" horiz-adv-x="867" arabic-form="isolated" 
d="M869 598l-258 -133q117 -38 167.5 -93t50.5 -144q0 -74 -36 -122t-101 -68q20 -32 20 -77q0 -77 -41 -134.5t-118.5 -89t-184.5 -31.5q-173 0 -256 76.5t-85 237.5q0 49 8 93.5t17 72.5t12 35h129q-3 -7 -12 -34t-17 -66t-8 -76q2 -58 23.5 -91.5t69.5 -48.5t131 -15
q109 0 168 20t59 52q0 24 -31 33.5t-109 15.5v176q26 -4 82 -4q93 0 132 8.5t39 34.5q0 23 -22 43t-80.5 41.5t-166.5 47.5v168l418 234v-162z" />
    <glyph glyph-name="uniFC3E" unicode="&#xfc3e;" horiz-adv-x="867" arabic-form="isolated" 
d="M869 598l-258 -133q117 -38 167.5 -93t50.5 -144q0 -74 -36 -122t-101 -68q20 -32 20 -77q0 -77 -41 -134.5t-118.5 -89t-184.5 -31.5q-173 0 -256 76.5t-85 237.5q0 49 8 93.5t17 72.5t12 35h129q-3 -7 -12 -34t-17 -66t-8 -76q2 -58 23.5 -91.5t69.5 -48.5t131 -15
q109 0 168 20t59 52q0 24 -31 33.5t-109 15.5v176q26 -4 82 -4q93 0 132 8.5t39 34.5q0 23 -22 43t-80.5 41.5t-166.5 47.5v168l418 234v-162zM430 -498l-63 63l-63 -63l-74 77l74 76l63 -62l63 62l75 -76z" />
    <glyph glyph-name="uniFC44" unicode="&#xfc44;" horiz-adv-x="832" arabic-form="isolated" 
d="M678 58q34 -39 34 -97q0 -77 -41 -134.5t-118.5 -89t-184.5 -31.5q-173 0 -256 76.5t-85 237.5q0 49 8 93.5t17 72.5t12 35h129q-3 -7 -12 -34t-17 -66t-8 -76q2 -58 23.5 -91.5t69.5 -48.5t131 -15q109 0 168 20t59 52q0 24 -31 33.5t-109 15.5v176q22 -4 59 -4
q46 0 70 6t33.5 21.5t9.5 44.5v493l130 1v-460q0 -174 -91 -231zM430 -498l-63 63l-63 -63l-74 77l74 76l63 -62l63 62l75 -76z" />
    <glyph glyph-name="uniFC4F" unicode="&#xfc4f;" horiz-adv-x="812" arabic-form="isolated" 
d="M750 148.5q-26 -56.5 -75 -88.5q37 -39 37 -99q0 -120 -90.5 -187.5t-253.5 -67.5q-173 0 -256 76t-85 238q0 49 8 93.5t17 72.5t12 35h129q-3 -7 -12 -34.5t-17 -67.5t-8 -78q2 -57 24 -89.5t69.5 -47t130.5 -14.5q109 0 166.5 18.5t57.5 49.5q0 24 -31.5 36t-105.5 17
v176q22 -4 63 -4q66 0 94 27.5t28 88.5q0 55 -16 135h124q16 -82 16 -156q0 -73 -26 -129.5zM610 585l89 86l89 -86l-89 -88z" />
    <glyph glyph-name="uniFC50" unicode="&#xfc50;" horiz-adv-x="812" arabic-form="isolated" 
d="M750 148.5q-26 -56.5 -75 -88.5q37 -39 37 -99q0 -120 -90.5 -187.5t-253.5 -67.5q-173 0 -256 76t-85 238q0 49 8 93.5t17 72.5t12 35h129q-3 -7 -12 -34.5t-17 -67.5t-8 -78q2 -57 24 -89.5t69.5 -47t130.5 -14.5q109 0 166.5 18.5t57.5 49.5q0 24 -31.5 36t-105.5 17
v176q22 -4 63 -4q66 0 94 27.5t28 88.5q0 55 -16 135h124q16 -82 16 -156q0 -73 -26 -129.5zM610 585l89 86l89 -86l-89 -88zM430 -498l-63 63l-63 -63l-74 77l74 76l63 -62l63 62l75 -76z" />
    <glyph glyph-name="uniFC59" unicode="&#xfc59;" horiz-adv-x="812" arabic-form="isolated" 
d="M750 148.5q-26 -56.5 -75 -88.5q37 -39 37 -99q0 -120 -90.5 -187.5t-253.5 -67.5q-173 0 -256 76t-85 238q0 49 8 93.5t17 72.5t12 35h129q-3 -7 -12 -34.5t-17 -67.5t-8 -78q2 -57 24 -89.5t69.5 -47t130.5 -14.5q109 0 166.5 18.5t57.5 49.5q0 24 -31.5 36t-105.5 17
v176q22 -4 63 -4q66 0 94 27.5t28 88.5q0 55 -16 135h124q16 -82 16 -156q0 -73 -26 -129.5zM732 -441l-63 63l-63 -63l-74 77l74 76l63 -62l63 62l75 -76z" />
    <glyph glyph-name="uniFC5A" unicode="&#xfc5a;" horiz-adv-x="812" arabic-form="isolated" 
d="M750 148.5q-26 -56.5 -75 -88.5q37 -39 37 -99q0 -120 -90.5 -187.5t-253.5 -67.5q-173 0 -256 76t-85 238q0 49 8 93.5t17 72.5t12 35h129q-3 -7 -12 -34.5t-17 -67.5t-8 -78q2 -57 24 -89.5t69.5 -47t130.5 -14.5q109 0 166.5 18.5t57.5 49.5q0 24 -31.5 36t-105.5 17
v176q22 -4 63 -4q66 0 94 27.5t28 88.5q0 55 -16 135h124q16 -82 16 -156q0 -73 -26 -129.5zM732 -441l-63 63l-63 -63l-74 77l74 76l63 -62l63 62l75 -76zM430 -498l-63 63l-63 -63l-74 77l74 76l63 -62l63 62l75 -76z" />
    <glyph glyph-name="uniFC64" unicode="&#xfc64;" horiz-adv-x="690" arabic-form="final" 
d="M707 180v-177l-17 -3q-96 0 -149.5 42.5t-68.5 130.5q-29 -60 -107 -60q-48 0 -71 30v-8q0 -113 -33.5 -199.5t-93.5 -134t-137 -47.5q-30 0 -51.5 5.5t-32.5 11.5t-13 8v171q33 -13 83 -13q69 0 111.5 51t42.5 151q0 85 -18 197h127q5 -24 21.5 -35.5t63.5 -11.5
q57 0 79.5 18.5t22.5 72.5v-1h123v-103q0 -52 22.5 -72.5t78.5 -20.5zM594 522q31 3 37 3v-76q-61 -8 -213 -19v75l28 2q-11 17 -11 41q0 47 30 73.5t74 26.5q20 0 42.5 -7t22.5 -8v-74q-5 2 -24.5 6.5t-40.5 4.5q-48 0 -48 -26q0 -15 8.5 -20t33.5 -5q30 0 61 3z" />
    <glyph glyph-name="uniFC65" unicode="&#xfc65;" horiz-adv-x="690" arabic-form="final" 
d="M707 180v-177l-17 -3q-96 0 -149.5 42.5t-68.5 130.5q-29 -60 -107 -60q-48 0 -71 30v-8q0 -113 -33.5 -199.5t-93.5 -134t-137 -47.5q-30 0 -51.5 5.5t-32.5 11.5t-13 8v171q33 -13 83 -13q69 0 111.5 51t42.5 151q0 85 -18 197h127q5 -24 21.5 -35.5t63.5 -11.5
q57 0 79.5 18.5t22.5 72.5v-1h123v-103q0 -52 22.5 -72.5t78.5 -20.5zM594 522q31 3 37 3v-76q-61 -8 -213 -19v75l28 2q-11 17 -11 41q0 47 30 73.5t74 26.5q20 0 42.5 -7t22.5 -8v-74q-5 2 -24.5 6.5t-40.5 4.5q-48 0 -48 -26q0 -15 8.5 -20t33.5 -5q30 0 61 3zM124 487
l89 86l89 -86l-89 -88z" />
    <glyph glyph-name="uniFC67" unicode="&#xfc67;" horiz-adv-x="1054" arabic-form="final" 
d="M1071 180v-177l-17 -3q-97 0 -151 42.5t-69 130.5q-28 -60 -105 -60q-48 0 -71 31q1 -15 1 -48q0 -170 -78.5 -253.5t-244.5 -83.5q-110 0 -178 34.5t-99.5 106.5t-31.5 188q0 53 8.5 98t19 76t10.5 28h122q-3 -7 -12 -34.5t-17.5 -69t-8.5 -84.5q0 -60 19 -94.5t62 -50
t118 -15.5q104 0 146.5 38t42.5 123q0 61 -5 114t-15 120h126q5 -25 21.5 -36.5t63.5 -11.5q57 0 79 18.5t22 71.5h124v-103q0 -52 22 -72.5t79 -20.5zM250 456l89 86l89 -86l-89 -88zM959 522q31 3 37 3v-76q-61 -8 -213 -19v75l28 2q-11 17 -11 41q0 47 30 73.5t74 26.5
q20 0 42.5 -7t22.5 -8v-74q-5 2 -24.5 6.5t-40.5 4.5q-48 0 -48 -26q0 -15 8.5 -20t33.5 -5q30 0 61 3z" />
    <glyph glyph-name="uniFC68" unicode="&#xfc68;" horiz-adv-x="971" arabic-form="final" 
d="M715 437q44 -21 71.5 -54.5t55.5 -84.5l21 -39q23 -43 45.5 -59.5t62.5 -16.5l17 -3v-177l-17 -3q-69 0 -109 28.5t-70 87.5l-24 45q-23 45 -44.5 70t-52.5 38t-80 13q-36 0 -68 -8t-51.5 -21.5t-19.5 -28.5q0 -16 23 -25.5t80 -23.5q40 -9 76 -19q67 -19 99.5 -59
t32.5 -113q0 -129 -95 -203.5t-280 -74.5q-186 0 -273.5 79t-87.5 246q0 48 7.5 95t15.5 77t11 38h129q-3 -8 -11 -35.5t-15.5 -67t-7.5 -75.5q0 -65 23.5 -102.5t76.5 -54t146 -16.5q126 0 189.5 19.5t63.5 49.5q0 12 -11 19t-37 13.5t-85 18.5q-70 14 -107.5 38.5
t-52.5 61.5t-15 96q0 67 34 125t93 92.5t131 34.5q66 0 110 -21zM671 601q31 3 37 3v-76q-61 -8 -213 -19v75l28 2q-11 17 -11 41q0 47 30 73.5t74 26.5q20 0 42.5 -7t22.5 -8v-74q-5 2 -24.5 6.5t-40.5 4.5q-48 0 -48 -26q0 -15 8.5 -20t33.5 -5q30 0 61 3z" />
    <glyph glyph-name="uniFC69" unicode="&#xfc69;" horiz-adv-x="971" arabic-form="final" 
d="M715 437q44 -21 71.5 -54.5t55.5 -84.5l21 -39q23 -43 45.5 -59.5t62.5 -16.5l17 -3v-177l-17 -3q-69 0 -109 28.5t-70 87.5l-24 45q-23 45 -44.5 70t-52.5 38t-80 13q-36 0 -68 -8t-51.5 -21.5t-19.5 -28.5q0 -16 23 -25.5t80 -23.5q40 -9 76 -19q67 -19 99.5 -59
t32.5 -113q0 -129 -95 -203.5t-280 -74.5q-186 0 -273.5 79t-87.5 246q0 48 7.5 95t15.5 77t11 38h129q-3 -8 -11 -35.5t-15.5 -67t-7.5 -75.5q0 -65 23.5 -102.5t76.5 -54t146 -16.5q126 0 189.5 19.5t63.5 49.5q0 12 -11 19t-37 13.5t-85 18.5q-70 14 -107.5 38.5
t-52.5 61.5t-15 96q0 67 34 125t93 92.5t131 34.5q66 0 110 -21zM671 601q31 3 37 3v-76q-61 -8 -213 -19v75l28 2q-11 17 -11 41q0 47 30 73.5t74 26.5q20 0 42.5 -7t22.5 -8v-74q-5 2 -24.5 6.5t-40.5 4.5q-48 0 -48 -26q0 -15 8.5 -20t33.5 -5q30 0 61 3zM464 -502
l-63 63l-63 -63l-74 77l74 76l63 -62l63 62l75 -76z" />
    <glyph glyph-name="uniFC6A" unicode="&#xfc6a;" horiz-adv-x="690" arabic-form="final" 
d="M707 180v-177l-17 -3q-96 0 -149.5 42.5t-68.5 130.5q-29 -60 -107 -60q-48 0 -71 30v-8q0 -113 -33.5 -199.5t-93.5 -134t-137 -47.5q-30 0 -51.5 5.5t-32.5 11.5t-13 8v171q33 -13 83 -13q69 0 111.5 51t42.5 151q0 85 -18 197h127q5 -24 21.5 -35.5t63.5 -11.5
q57 0 79.5 18.5t22.5 72.5v-1h123v-103q0 -52 22.5 -72.5t78.5 -20.5zM426 -127l90 86l89 -86l-89 -88z" />
    <glyph glyph-name="uniFC6B" unicode="&#xfc6b;" horiz-adv-x="690" arabic-form="final" 
d="M707 180v-177l-17 -3q-96 0 -149.5 42.5t-68.5 130.5q-29 -60 -107 -60q-48 0 -71 30v-8q0 -113 -33.5 -199.5t-93.5 -134t-137 -47.5q-30 0 -51.5 5.5t-32.5 11.5t-13 8v171q33 -13 83 -13q69 0 111.5 51t42.5 151q0 85 -18 197h127q5 -24 21.5 -35.5t63.5 -11.5
q57 0 79.5 18.5t22.5 72.5v-1h123v-103q0 -52 22.5 -72.5t78.5 -20.5zM426 -127l90 86l89 -86l-89 -88zM124 487l89 86l89 -86l-89 -88z" />
    <glyph glyph-name="uniFC6D" unicode="&#xfc6d;" horiz-adv-x="1054" arabic-form="final" 
d="M1071 180v-177l-17 -3q-97 0 -151 42.5t-69 130.5q-28 -60 -105 -60q-48 0 -71 31q1 -15 1 -48q0 -170 -78.5 -253.5t-244.5 -83.5q-110 0 -178 34.5t-99.5 106.5t-31.5 188q0 53 8.5 98t19 76t10.5 28h122q-3 -7 -12 -34.5t-17.5 -69t-8.5 -84.5q0 -60 19 -94.5t62 -50
t118 -15.5q104 0 146.5 38t42.5 123q0 61 -5 114t-15 120h126q5 -25 21.5 -36.5t63.5 -11.5q57 0 79 18.5t22 71.5h124v-103q0 -52 22 -72.5t79 -20.5zM791 -124l90 86l89 -86l-89 -88zM250 456l89 86l89 -86l-89 -88z" />
    <glyph glyph-name="uniFC6E" unicode="&#xfc6e;" horiz-adv-x="971" arabic-form="final" 
d="M715 437q44 -21 71.5 -54.5t55.5 -84.5l21 -39q23 -43 45.5 -59.5t62.5 -16.5l17 -3v-177l-17 -3q-69 0 -109 28.5t-70 87.5l-24 45q-23 45 -44.5 70t-52.5 38t-80 13q-36 0 -68 -8t-51.5 -21.5t-19.5 -28.5q0 -16 23 -25.5t80 -23.5q40 -9 76 -19q67 -19 99.5 -59
t32.5 -113q0 -129 -95 -203.5t-280 -74.5q-186 0 -273.5 79t-87.5 246q0 48 7.5 95t15.5 77t11 38h129q-3 -8 -11 -35.5t-15.5 -67t-7.5 -75.5q0 -65 23.5 -102.5t76.5 -54t146 -16.5q126 0 189.5 19.5t63.5 49.5q0 12 -11 19t-37 13.5t-85 18.5q-70 14 -107.5 38.5
t-52.5 61.5t-15 96q0 67 34 125t93 92.5t131 34.5q66 0 110 -21zM820 -152l90 86l89 -86l-89 -88z" />
    <glyph glyph-name="uniFC6F" unicode="&#xfc6f;" horiz-adv-x="971" arabic-form="final" 
d="M715 437q44 -21 71.5 -54.5t55.5 -84.5l21 -39q23 -43 45.5 -59.5t62.5 -16.5l17 -3v-177l-17 -3q-69 0 -109 28.5t-70 87.5l-24 45q-23 45 -44.5 70t-52.5 38t-80 13q-36 0 -68 -8t-51.5 -21.5t-19.5 -28.5q0 -16 23 -25.5t80 -23.5q40 -9 76 -19q67 -19 99.5 -59
t32.5 -113q0 -129 -95 -203.5t-280 -74.5q-186 0 -273.5 79t-87.5 246q0 48 7.5 95t15.5 77t11 38h129q-3 -8 -11 -35.5t-15.5 -67t-7.5 -75.5q0 -65 23.5 -102.5t76.5 -54t146 -16.5q126 0 189.5 19.5t63.5 49.5q0 12 -11 19t-37 13.5t-85 18.5q-70 14 -107.5 38.5
t-52.5 61.5t-15 96q0 67 34 125t93 92.5t131 34.5q66 0 110 -21zM820 -152l90 86l89 -86l-89 -88zM464 -502l-63 63l-63 -63l-74 77l74 76l63 -62l63 62l75 -76z" />
    <glyph glyph-name="uniFC70" unicode="&#xfc70;" horiz-adv-x="690" arabic-form="final" 
d="M707 180v-177l-17 -3q-96 0 -149.5 42.5t-68.5 130.5q-29 -60 -107 -60q-48 0 -71 30v-8q0 -113 -33.5 -199.5t-93.5 -134t-137 -47.5q-30 0 -51.5 5.5t-32.5 11.5t-13 8v171q33 -13 83 -13q69 0 111.5 51t42.5 151q0 85 -18 197h127q5 -24 21.5 -35.5t63.5 -11.5
q57 0 79.5 18.5t22.5 72.5v-1h123v-103q0 -52 22.5 -72.5t78.5 -20.5zM593 439l-66 65l-65 -65l-79 80l79 80l65 -65l66 65l78 -80z" />
    <glyph glyph-name="uniFC71" unicode="&#xfc71;" horiz-adv-x="690" arabic-form="final" 
d="M707 180v-177l-17 -3q-96 0 -149.5 42.5t-68.5 130.5q-29 -60 -107 -60q-48 0 -71 30v-8q0 -113 -33.5 -199.5t-93.5 -134t-137 -47.5q-30 0 -51.5 5.5t-32.5 11.5t-13 8v171q33 -13 83 -13q69 0 111.5 51t42.5 151q0 85 -18 197h127q5 -24 21.5 -35.5t63.5 -11.5
q57 0 79.5 18.5t22.5 72.5v-1h123v-103q0 -52 22.5 -72.5t78.5 -20.5zM124 487l89 86l89 -86l-89 -88zM593 439l-66 65l-65 -65l-79 80l79 80l65 -65l66 65l78 -80z" />
    <glyph glyph-name="uniFC73" unicode="&#xfc73;" horiz-adv-x="1054" arabic-form="final" 
d="M1071 180v-177l-17 -3q-97 0 -151 42.5t-69 130.5q-28 -60 -105 -60q-48 0 -71 31q1 -15 1 -48q0 -170 -78.5 -253.5t-244.5 -83.5q-110 0 -178 34.5t-99.5 106.5t-31.5 188q0 53 8.5 98t19 76t10.5 28h122q-3 -7 -12 -34.5t-17.5 -69t-8.5 -84.5q0 -60 19 -94.5t62 -50
t118 -15.5q104 0 146.5 38t42.5 123q0 61 -5 114t-15 120h126q5 -25 21.5 -36.5t63.5 -11.5q57 0 79 18.5t22 71.5h124v-103q0 -52 22 -72.5t79 -20.5zM250 456l89 86l89 -86l-89 -88zM958 439l-66 65l-65 -65l-79 80l79 80l65 -65l66 65l78 -80z" />
    <glyph glyph-name="uniFC74" unicode="&#xfc74;" horiz-adv-x="971" arabic-form="final" 
d="M715 437q44 -21 71.5 -54.5t55.5 -84.5l21 -39q23 -43 45.5 -59.5t62.5 -16.5l17 -3v-177l-17 -3q-69 0 -109 28.5t-70 87.5l-24 45q-23 45 -44.5 70t-52.5 38t-80 13q-36 0 -68 -8t-51.5 -21.5t-19.5 -28.5q0 -16 23 -25.5t80 -23.5q40 -9 76 -19q67 -19 99.5 -59
t32.5 -113q0 -129 -95 -203.5t-280 -74.5q-186 0 -273.5 79t-87.5 246q0 48 7.5 95t15.5 77t11 38h129q-3 -8 -11 -35.5t-15.5 -67t-7.5 -75.5q0 -65 23.5 -102.5t76.5 -54t146 -16.5q126 0 189.5 19.5t63.5 49.5q0 12 -11 19t-37 13.5t-85 18.5q-70 14 -107.5 38.5
t-52.5 61.5t-15 96q0 67 34 125t93 92.5t131 34.5q66 0 110 -21zM670 518l-66 65l-65 -65l-79 80l79 80l65 -65l66 65l78 -80z" />
    <glyph glyph-name="uniFC75" unicode="&#xfc75;" horiz-adv-x="971" arabic-form="final" 
d="M715 437q44 -21 71.5 -54.5t55.5 -84.5l21 -39q23 -43 45.5 -59.5t62.5 -16.5l17 -3v-177l-17 -3q-69 0 -109 28.5t-70 87.5l-24 45q-23 45 -44.5 70t-52.5 38t-80 13q-36 0 -68 -8t-51.5 -21.5t-19.5 -28.5q0 -16 23 -25.5t80 -23.5q40 -9 76 -19q67 -19 99.5 -59
t32.5 -113q0 -129 -95 -203.5t-280 -74.5q-186 0 -273.5 79t-87.5 246q0 48 7.5 95t15.5 77t11 38h129q-3 -8 -11 -35.5t-15.5 -67t-7.5 -75.5q0 -65 23.5 -102.5t76.5 -54t146 -16.5q126 0 189.5 19.5t63.5 49.5q0 12 -11 19t-37 13.5t-85 18.5q-70 14 -107.5 38.5
t-52.5 61.5t-15 96q0 67 34 125t93 92.5t131 34.5q66 0 110 -21zM670 518l-66 65l-65 -65l-79 80l79 80l65 -65l66 65l78 -80zM464 -502l-63 63l-63 -63l-74 77l74 76l63 -62l63 62l75 -76z" />
    <glyph glyph-name="uniFC76" unicode="&#xfc76;" horiz-adv-x="690" arabic-form="final" 
d="M707 180v-177l-17 -3q-96 0 -149.5 42.5t-68.5 130.5q-29 -60 -107 -60q-48 0 -71 30v-8q0 -113 -33.5 -199.5t-93.5 -134t-137 -47.5q-30 0 -51.5 5.5t-32.5 11.5t-13 8v171q33 -13 83 -13q69 0 111.5 51t42.5 151q0 85 -18 197h127q5 -24 21.5 -35.5t63.5 -11.5
q57 0 79.5 18.5t22.5 72.5v-1h123v-103q0 -52 22.5 -72.5t78.5 -20.5zM528 570l-68 69l68 70l70 -70zM592 438l-65 66l-65 -66l-78 81l78 79l65 -64l65 64l79 -79z" />
    <glyph glyph-name="uniFC77" unicode="&#xfc77;" horiz-adv-x="690" arabic-form="final" 
d="M707 180v-177l-17 -3q-96 0 -149.5 42.5t-68.5 130.5q-29 -60 -107 -60q-48 0 -71 30v-8q0 -113 -33.5 -199.5t-93.5 -134t-137 -47.5q-30 0 -51.5 5.5t-32.5 11.5t-13 8v171q33 -13 83 -13q69 0 111.5 51t42.5 151q0 85 -18 197h127q5 -24 21.5 -35.5t63.5 -11.5
q57 0 79.5 18.5t22.5 72.5v-1h123v-103q0 -52 22.5 -72.5t78.5 -20.5zM124 487l89 86l89 -86l-89 -88zM528 570l-68 69l68 70l70 -70zM592 438l-65 66l-65 -66l-78 81l78 79l65 -64l65 64l79 -79z" />
    <glyph glyph-name="uniFC79" unicode="&#xfc79;" horiz-adv-x="1054" arabic-form="final" 
d="M1071 180v-177l-17 -3q-97 0 -151 42.5t-69 130.5q-28 -60 -105 -60q-48 0 -71 31q1 -15 1 -48q0 -170 -78.5 -253.5t-244.5 -83.5q-110 0 -178 34.5t-99.5 106.5t-31.5 188q0 53 8.5 98t19 76t10.5 28h122q-3 -7 -12 -34.5t-17.5 -69t-8.5 -84.5q0 -60 19 -94.5t62 -50
t118 -15.5q104 0 146.5 38t42.5 123q0 61 -5 114t-15 120h126q5 -25 21.5 -36.5t63.5 -11.5q57 0 79 18.5t22 71.5h124v-103q0 -52 22 -72.5t79 -20.5zM250 456l89 86l89 -86l-89 -88zM893 570l-68 69l68 70l70 -70zM957 438l-65 66l-65 -66l-78 81l78 79l65 -64l65 64
l79 -79z" />
    <glyph glyph-name="uniFC7A" unicode="&#xfc7a;" horiz-adv-x="971" arabic-form="final" 
d="M715 437q44 -21 71.5 -54.5t55.5 -84.5l21 -39q23 -43 45.5 -59.5t62.5 -16.5l17 -3v-177l-17 -3q-69 0 -109 28.5t-70 87.5l-24 45q-23 45 -44.5 70t-52.5 38t-80 13q-36 0 -68 -8t-51.5 -21.5t-19.5 -28.5q0 -16 23 -25.5t80 -23.5q40 -9 76 -19q67 -19 99.5 -59
t32.5 -113q0 -129 -95 -203.5t-280 -74.5q-186 0 -273.5 79t-87.5 246q0 48 7.5 95t15.5 77t11 38h129q-3 -8 -11 -35.5t-15.5 -67t-7.5 -75.5q0 -65 23.5 -102.5t76.5 -54t146 -16.5q126 0 189.5 19.5t63.5 49.5q0 12 -11 19t-37 13.5t-85 18.5q-70 14 -107.5 38.5
t-52.5 61.5t-15 96q0 67 34 125t93 92.5t131 34.5q66 0 110 -21zM605 649l-68 69l68 70l70 -70zM669 517l-65 66l-65 -66l-78 81l78 79l65 -64l65 64l79 -79z" />
    <glyph glyph-name="uniFC7B" unicode="&#xfc7b;" horiz-adv-x="971" arabic-form="final" 
d="M715 437q44 -21 71.5 -54.5t55.5 -84.5l21 -39q23 -43 45.5 -59.5t62.5 -16.5l17 -3v-177l-17 -3q-69 0 -109 28.5t-70 87.5l-24 45q-23 45 -44.5 70t-52.5 38t-80 13q-36 0 -68 -8t-51.5 -21.5t-19.5 -28.5q0 -16 23 -25.5t80 -23.5q40 -9 76 -19q67 -19 99.5 -59
t32.5 -113q0 -129 -95 -203.5t-280 -74.5q-186 0 -273.5 79t-87.5 246q0 48 7.5 95t15.5 77t11 38h129q-3 -8 -11 -35.5t-15.5 -67t-7.5 -75.5q0 -65 23.5 -102.5t76.5 -54t146 -16.5q126 0 189.5 19.5t63.5 49.5q0 12 -11 19t-37 13.5t-85 18.5q-70 14 -107.5 38.5
t-52.5 61.5t-15 96q0 67 34 125t93 92.5t131 34.5q66 0 110 -21zM605 649l-68 69l68 70l70 -70zM669 517l-65 66l-65 -66l-78 81l78 79l65 -64l65 64l79 -79zM464 -502l-63 63l-63 -63l-74 77l74 76l63 -62l63 62l75 -76z" />
    <glyph glyph-name="uniFC83" unicode="&#xfc83;" horiz-adv-x="1096" arabic-form="final" 
d="M1113 180v-177l-17 -3q-68 0 -110 10.5t-77 38t-79 81.5q-13 -37 -48.5 -61.5t-87.5 -34.5q18 -30 18 -73q0 -77 -41 -134.5t-118.5 -89t-184.5 -31.5q-173 0 -257 76.5t-84 237.5q0 49 8 93.5t17 72.5t12 35h129q-3 -7 -12 -34t-17 -66t-8 -76q2 -58 23.5 -91.5
t69.5 -48.5t131 -15q109 0 168 20t59 52q0 24 -31 33.5t-109 15.5v176q48 -4 135 -4q90 0 124 7.5t39 25.5l-70 78l-88 99v133l427 235v-163l-291 -149q70 -81 140 -155q46 -49 73.5 -71t58.5 -31t81 -9z" />
    <glyph glyph-name="uniFC84" unicode="&#xfc84;" horiz-adv-x="1096" arabic-form="final" 
d="M1113 180v-177l-17 -3q-68 0 -110 10.5t-77 38t-79 81.5q-13 -37 -48.5 -61.5t-87.5 -34.5q18 -30 18 -73q0 -77 -41 -134.5t-118.5 -89t-184.5 -31.5q-173 0 -257 76.5t-84 237.5q0 49 8 93.5t17 72.5t12 35h129q-3 -7 -12 -34t-17 -66t-8 -76q2 -58 23.5 -91.5
t69.5 -48.5t131 -15q109 0 168 20t59 52q0 24 -31 33.5t-109 15.5v176q48 -4 135 -4q90 0 124 7.5t39 25.5l-70 78l-88 99v133l427 235v-163l-291 -149q70 -81 140 -155q46 -49 73.5 -71t58.5 -31t81 -9zM430 -502l-63 63l-63 -63l-74 77l74 76l63 -62l63 62l75 -76z" />
    <glyph glyph-name="uniFC87" unicode="&#xfc87;" horiz-adv-x="866" arabic-form="final" 
d="M883 180v-177l-17 -3q-116 0 -145 98q-20 -26 -43 -40q34 -39 34 -97q0 -77 -41 -134.5t-118.5 -89t-184.5 -31.5q-173 0 -256 76.5t-85 237.5q0 49 8 93.5t17 72.5t12 35h129q-3 -7 -12 -34t-17 -66t-8 -76q2 -58 23.5 -91.5t69.5 -48.5t131 -15q109 0 168 20t59 52
q0 24 -31 33.5t-109 15.5v176q22 -4 59 -4q46 0 70 6t33.5 21.5t9.5 44.5v493l130 1v-460v-15q4 -52 26.5 -71.5t70.5 -19.5zM430 -498l-63 63l-63 -63l-74 77l74 76l63 -62l63 62l75 -76z" />
    <glyph glyph-name="uniFC8A" unicode="&#xfc8a;" horiz-adv-x="690" arabic-form="final" 
d="M707 180v-177l-17 -3q-96 0 -149.5 42.5t-68.5 130.5q-29 -60 -107 -60q-48 0 -71 30v-8q0 -113 -33.5 -199.5t-93.5 -134t-137 -47.5q-30 0 -51.5 5.5t-32.5 11.5t-13 8v171q33 -13 83 -13q69 0 111.5 51t42.5 151q0 85 -18 197h127q5 -24 21.5 -35.5t63.5 -11.5
q57 0 79.5 18.5t22.5 72.5v-1h123v-103q0 -52 22.5 -72.5t78.5 -20.5zM439 530l89 86l89 -86l-89 -88z" />
    <glyph glyph-name="uniFC8B" unicode="&#xfc8b;" horiz-adv-x="690" arabic-form="final" 
d="M707 180v-177l-17 -3q-96 0 -149.5 42.5t-68.5 130.5q-29 -60 -107 -60q-48 0 -71 30v-8q0 -113 -33.5 -199.5t-93.5 -134t-137 -47.5q-30 0 -51.5 5.5t-32.5 11.5t-13 8v171q33 -13 83 -13q69 0 111.5 51t42.5 151q0 85 -18 197h127q5 -24 21.5 -35.5t63.5 -11.5
q57 0 79.5 18.5t22.5 72.5v-1h123v-103q0 -52 22.5 -72.5t78.5 -20.5zM439 530l89 86l89 -86l-89 -88zM124 487l89 86l89 -86l-89 -88z" />
    <glyph glyph-name="uniFC8D" unicode="&#xfc8d;" horiz-adv-x="1054" arabic-form="final" 
d="M1071 180v-177l-17 -3q-97 0 -151 42.5t-69 130.5q-28 -60 -105 -60q-48 0 -71 31q1 -15 1 -48q0 -170 -78.5 -253.5t-244.5 -83.5q-110 0 -178 34.5t-99.5 106.5t-31.5 188q0 53 8.5 98t19 76t10.5 28h122q-3 -7 -12 -34.5t-17.5 -69t-8.5 -84.5q0 -60 19 -94.5t62 -50
t118 -15.5q104 0 146.5 38t42.5 123q0 61 -5 114t-15 120h126q5 -25 21.5 -36.5t63.5 -11.5q57 0 79 18.5t22 71.5h124v-103q0 -52 22 -72.5t79 -20.5zM250 456l89 86l89 -86l-89 -88zM804 530l89 86l89 -86l-89 -88z" />
    <glyph glyph-name="uniFC8E" unicode="&#xfc8e;" horiz-adv-x="971" arabic-form="final" 
d="M715 437q44 -21 71.5 -54.5t55.5 -84.5l21 -39q23 -43 45.5 -59.5t62.5 -16.5l17 -3v-177l-17 -3q-69 0 -109 28.5t-70 87.5l-24 45q-23 45 -44.5 70t-52.5 38t-80 13q-36 0 -68 -8t-51.5 -21.5t-19.5 -28.5q0 -16 23 -25.5t80 -23.5q40 -9 76 -19q67 -19 99.5 -59
t32.5 -113q0 -129 -95 -203.5t-280 -74.5q-186 0 -273.5 79t-87.5 246q0 48 7.5 95t15.5 77t11 38h129q-3 -8 -11 -35.5t-15.5 -67t-7.5 -75.5q0 -65 23.5 -102.5t76.5 -54t146 -16.5q126 0 189.5 19.5t63.5 49.5q0 12 -11 19t-37 13.5t-85 18.5q-70 14 -107.5 38.5
t-52.5 61.5t-15 96q0 67 34 125t93 92.5t131 34.5q66 0 110 -21zM516 609l89 86l89 -86l-89 -88z" />
    <glyph glyph-name="uniFC8F" unicode="&#xfc8f;" horiz-adv-x="971" arabic-form="final" 
d="M715 437q44 -21 71.5 -54.5t55.5 -84.5l21 -39q23 -43 45.5 -59.5t62.5 -16.5l17 -3v-177l-17 -3q-69 0 -109 28.5t-70 87.5l-24 45q-23 45 -44.5 70t-52.5 38t-80 13q-36 0 -68 -8t-51.5 -21.5t-19.5 -28.5q0 -16 23 -25.5t80 -23.5q40 -9 76 -19q67 -19 99.5 -59
t32.5 -113q0 -129 -95 -203.5t-280 -74.5q-186 0 -273.5 79t-87.5 246q0 48 7.5 95t15.5 77t11 38h129q-3 -8 -11 -35.5t-15.5 -67t-7.5 -75.5q0 -65 23.5 -102.5t76.5 -54t146 -16.5q126 0 189.5 19.5t63.5 49.5q0 12 -11 19t-37 13.5t-85 18.5q-70 14 -107.5 38.5
t-52.5 61.5t-15 96q0 67 34 125t93 92.5t131 34.5q66 0 110 -21zM516 609l89 86l89 -86l-89 -88zM464 -502l-63 63l-63 -63l-74 77l74 76l63 -62l63 62l75 -76z" />
    <glyph glyph-name="uniFC91" unicode="&#xfc91;" horiz-adv-x="690" arabic-form="final" 
d="M707 180v-177l-17 -3q-96 0 -149.5 42.5t-68.5 130.5q-29 -60 -107 -60q-48 0 -71 30v-8q0 -113 -33.5 -199.5t-93.5 -134t-137 -47.5q-30 0 -51.5 5.5t-32.5 11.5t-13 8v171q33 -13 83 -13q69 0 111.5 51t42.5 151q0 85 -18 197h127q5 -24 21.5 -35.5t63.5 -11.5
q57 0 79.5 18.5t22.5 72.5v-1h123v-103q0 -52 22.5 -72.5t78.5 -20.5zM577 -191l-63 63l-63 -63l-74 77l74 76l63 -62l63 62l75 -76z" />
    <glyph glyph-name="uniFC92" unicode="&#xfc92;" horiz-adv-x="690" arabic-form="final" 
d="M707 180v-177l-17 -3q-96 0 -149.5 42.5t-68.5 130.5q-29 -60 -107 -60q-48 0 -71 30v-8q0 -113 -33.5 -199.5t-93.5 -134t-137 -47.5q-30 0 -51.5 5.5t-32.5 11.5t-13 8v171q33 -13 83 -13q69 0 111.5 51t42.5 151q0 85 -18 197h127q5 -24 21.5 -35.5t63.5 -11.5
q57 0 79.5 18.5t22.5 72.5v-1h123v-103q0 -52 22.5 -72.5t78.5 -20.5zM577 -191l-63 63l-63 -63l-74 77l74 76l63 -62l63 62l75 -76zM124 487l89 86l89 -86l-89 -88z" />
    <glyph glyph-name="uniFC94" unicode="&#xfc94;" horiz-adv-x="1054" arabic-form="final" 
d="M1071 180v-177l-17 -3q-97 0 -151 42.5t-69 130.5q-28 -60 -105 -60q-48 0 -71 31q1 -15 1 -48q0 -170 -78.5 -253.5t-244.5 -83.5q-110 0 -178 34.5t-99.5 106.5t-31.5 188q0 53 8.5 98t19 76t10.5 28h122q-3 -7 -12 -34.5t-17.5 -69t-8.5 -84.5q0 -60 19 -94.5t62 -50
t118 -15.5q104 0 146.5 38t42.5 123q0 61 -5 114t-15 120h126q5 -25 21.5 -36.5t63.5 -11.5q57 0 79 18.5t22 71.5h124v-103q0 -52 22 -72.5t79 -20.5zM250 456l89 86l89 -86l-89 -88zM942 -188l-63 63l-63 -63l-74 77l74 76l63 -62l63 62l75 -76z" />
    <glyph glyph-name="uniFC95" unicode="&#xfc95;" horiz-adv-x="971" arabic-form="final" 
d="M715 437q44 -21 71.5 -54.5t55.5 -84.5l21 -39q23 -43 45.5 -59.5t62.5 -16.5l17 -3v-177l-17 -3q-69 0 -109 28.5t-70 87.5l-24 45q-23 45 -44.5 70t-52.5 38t-80 13q-36 0 -68 -8t-51.5 -21.5t-19.5 -28.5q0 -16 23 -25.5t80 -23.5q40 -9 76 -19q67 -19 99.5 -59
t32.5 -113q0 -129 -95 -203.5t-280 -74.5q-186 0 -273.5 79t-87.5 246q0 48 7.5 95t15.5 77t11 38h129q-3 -8 -11 -35.5t-15.5 -67t-7.5 -75.5q0 -65 23.5 -102.5t76.5 -54t146 -16.5q126 0 189.5 19.5t63.5 49.5q0 12 -11 19t-37 13.5t-85 18.5q-70 14 -107.5 38.5
t-52.5 61.5t-15 96q0 67 34 125t93 92.5t131 34.5q66 0 110 -21zM971 -216l-63 63l-63 -63l-74 77l74 76l63 -62l63 62l75 -76z" />
    <glyph glyph-name="uniFC96" unicode="&#xfc96;" horiz-adv-x="971" arabic-form="final" 
d="M715 437q44 -21 71.5 -54.5t55.5 -84.5l21 -39q23 -43 45.5 -59.5t62.5 -16.5l17 -3v-177l-17 -3q-69 0 -109 28.5t-70 87.5l-24 45q-23 45 -44.5 70t-52.5 38t-80 13q-36 0 -68 -8t-51.5 -21.5t-19.5 -28.5q0 -16 23 -25.5t80 -23.5q40 -9 76 -19q67 -19 99.5 -59
t32.5 -113q0 -129 -95 -203.5t-280 -74.5q-186 0 -273.5 79t-87.5 246q0 48 7.5 95t15.5 77t11 38h129q-3 -8 -11 -35.5t-15.5 -67t-7.5 -75.5q0 -65 23.5 -102.5t76.5 -54t146 -16.5q126 0 189.5 19.5t63.5 49.5q0 12 -11 19t-37 13.5t-85 18.5q-70 14 -107.5 38.5
t-52.5 61.5t-15 96q0 67 34 125t93 92.5t131 34.5q66 0 110 -21zM971 -216l-63 63l-63 -63l-74 77l74 76l63 -62l63 62l75 -76zM464 -502l-63 63l-63 -63l-74 77l74 76l63 -62l63 62l75 -76z" />
    <glyph glyph-name="uniFCFB" unicode="&#xfcfb;" horiz-adv-x="1470" arabic-form="isolated" 
d="M1426.5 319q7.5 -43 7.5 -90q0 -114 -51 -171.5t-141 -57.5q-116 0 -144 92q-14 -44 -50 -68t-93 -24q-62 0 -96.5 27.5t-66.5 88.5l-24 45q-23 45 -44.5 70t-52.5 38t-80 13q-36 0 -68 -8t-51.5 -21.5t-19.5 -28.5q0 -16 23 -25.5t80 -23.5q40 -9 76 -19
q67 -19 99.5 -59t32.5 -113q0 -83 -41.5 -145.5t-126 -97.5t-207.5 -35q-186 0 -273.5 79t-87.5 246q0 48 7.5 95t15.5 77t11 38h129q-3 -8 -11 -35.5t-15.5 -67t-7.5 -75.5q0 -65 23.5 -102.5t76.5 -54t146 -16.5q126 0 189.5 19.5t63.5 49.5q0 12 -11 19t-37 13.5
t-85 18.5q-70 14 -107.5 38.5t-52.5 61.5t-15 96q0 67 34 125t93 92.5t131 34.5q66 0 110 -21t71.5 -54.5t55.5 -84.5l21 -39q23 -44 41.5 -60t56.5 -16q47 0 65.5 16t18.5 56v94h123v-97q0 -39 15.5 -54t56.5 -15q37 0 52 16.5t15 55.5q0 22 -4.5 50.5t-8.5 47t-5 24.5h123
q7 -15 14.5 -58z" />
    <glyph glyph-name="uniFCFC" unicode="&#xfcfc;" horiz-adv-x="1470" arabic-form="isolated" 
d="M1426.5 319q7.5 -43 7.5 -90q0 -114 -51 -171.5t-141 -57.5q-116 0 -144 92q-14 -44 -50 -68t-93 -24q-62 0 -96.5 27.5t-66.5 88.5l-24 45q-23 45 -44.5 70t-52.5 38t-80 13q-36 0 -68 -8t-51.5 -21.5t-19.5 -28.5q0 -16 23 -25.5t80 -23.5q40 -9 76 -19
q67 -19 99.5 -59t32.5 -113q0 -83 -41.5 -145.5t-126 -97.5t-207.5 -35q-186 0 -273.5 79t-87.5 246q0 48 7.5 95t15.5 77t11 38h129q-3 -8 -11 -35.5t-15.5 -67t-7.5 -75.5q0 -65 23.5 -102.5t76.5 -54t146 -16.5q126 0 189.5 19.5t63.5 49.5q0 12 -11 19t-37 13.5
t-85 18.5q-70 14 -107.5 38.5t-52.5 61.5t-15 96q0 67 34 125t93 92.5t131 34.5q66 0 110 -21t71.5 -54.5t55.5 -84.5l21 -39q23 -44 41.5 -60t56.5 -16q47 0 65.5 16t18.5 56v94h123v-97q0 -39 15.5 -54t56.5 -15q37 0 52 16.5t15 55.5q0 22 -4.5 50.5t-8.5 47t-5 24.5h123
q7 -15 14.5 -58zM450 -512l-63 63l-63 -63l-74 77l74 76l63 -62l63 62l75 -76z" />
    <glyph glyph-name="uniFCFD" unicode="&#xfcfd;" horiz-adv-x="1470" arabic-form="isolated" 
d="M1426.5 319q7.5 -43 7.5 -90q0 -114 -51 -171.5t-141 -57.5q-116 0 -144 92q-14 -44 -50 -68t-93 -24q-62 0 -96.5 27.5t-66.5 88.5l-24 45q-23 45 -44.5 70t-52.5 38t-80 13q-36 0 -68 -8t-51.5 -21.5t-19.5 -28.5q0 -16 23 -25.5t80 -23.5q40 -9 76 -19
q67 -19 99.5 -59t32.5 -113q0 -83 -41.5 -145.5t-126 -97.5t-207.5 -35q-186 0 -273.5 79t-87.5 246q0 48 7.5 95t15.5 77t11 38h129q-3 -8 -11 -35.5t-15.5 -67t-7.5 -75.5q0 -65 23.5 -102.5t76.5 -54t146 -16.5q126 0 189.5 19.5t63.5 49.5q0 12 -11 19t-37 13.5
t-85 18.5q-70 14 -107.5 38.5t-52.5 61.5t-15 96q0 67 34 125t93 92.5t131 34.5q66 0 110 -21t71.5 -54.5t55.5 -84.5l21 -39q23 -44 41.5 -60t56.5 -16q47 0 65.5 16t18.5 56v94h123v-97q0 -39 15.5 -54t56.5 -15q37 0 52 16.5t15 55.5q0 22 -4.5 50.5t-8.5 47t-5 24.5h123
q7 -15 14.5 -58zM1104 540l-68 69l68 70l70 -70zM1168 408l-65 66l-65 -66l-78 81l78 79l65 -64l65 64l79 -79z" />
    <glyph glyph-name="uniFCFE" unicode="&#xfcfe;" horiz-adv-x="1470" arabic-form="isolated" 
d="M1426.5 319q7.5 -43 7.5 -90q0 -114 -51 -171.5t-141 -57.5q-116 0 -144 92q-14 -44 -50 -68t-93 -24q-62 0 -96.5 27.5t-66.5 88.5l-24 45q-23 45 -44.5 70t-52.5 38t-80 13q-36 0 -68 -8t-51.5 -21.5t-19.5 -28.5q0 -16 23 -25.5t80 -23.5q40 -9 76 -19
q67 -19 99.5 -59t32.5 -113q0 -83 -41.5 -145.5t-126 -97.5t-207.5 -35q-186 0 -273.5 79t-87.5 246q0 48 7.5 95t15.5 77t11 38h129q-3 -8 -11 -35.5t-15.5 -67t-7.5 -75.5q0 -65 23.5 -102.5t76.5 -54t146 -16.5q126 0 189.5 19.5t63.5 49.5q0 12 -11 19t-37 13.5
t-85 18.5q-70 14 -107.5 38.5t-52.5 61.5t-15 96q0 67 34 125t93 92.5t131 34.5q66 0 110 -21t71.5 -54.5t55.5 -84.5l21 -39q23 -44 41.5 -60t56.5 -16q47 0 65.5 16t18.5 56v94h123v-97q0 -39 15.5 -54t56.5 -15q37 0 52 16.5t15 55.5q0 22 -4.5 50.5t-8.5 47t-5 24.5h123
q7 -15 14.5 -58zM1104 540l-68 69l68 70l70 -70zM1168 408l-65 66l-65 -66l-78 81l78 79l65 -64l65 64l79 -79zM450 -512l-63 63l-63 -63l-74 77l74 76l63 -62l63 62l75 -76z" />
    <glyph glyph-name="uniFD05" unicode="&#xfd05;" horiz-adv-x="1557" arabic-form="isolated" 
d="M1411.5 476.5q52.5 -33.5 81 -95t28.5 -144.5q0 -114 -64 -175.5t-185 -61.5h-293q-51 0 -84.5 14t-54.5 38t-44 64l-27 48q-23 44 -44.5 69t-53.5 38.5t-80 13.5q-37 0 -69.5 -8.5t-52.5 -23t-20 -29.5q0 -16 23.5 -25.5t81.5 -23.5q44 -10 77 -19q67 -19 99.5 -59
t32.5 -113q0 -83 -41.5 -145.5t-126 -97.5t-207.5 -35q-186 0 -273.5 79t-87.5 246q0 48 7.5 95t15.5 77t11 38h129q-3 -8 -11 -35.5t-15.5 -67t-7.5 -75.5q0 -65 23.5 -102.5t76.5 -54t146 -16.5q126 0 189.5 19.5t63.5 49.5q0 12 -11 19t-37 13.5t-85 18.5
q-71 14 -109.5 38.5t-53.5 61.5t-15 96q0 67 34.5 126t94.5 94t132 35q66 0 110.5 -21.5t72 -54.5t55.5 -84l24 -42q3 -5 15 -26t22 -31q68 113 129 180.5t122.5 97.5t131.5 30q72 0 124.5 -33.5zM1381.5 196q29.5 13 29.5 46q0 41 -34.5 70t-96.5 29q-84 0 -149.5 -38
t-126.5 -120h274q74 0 103.5 13z" />
    <glyph glyph-name="uniFD06" unicode="&#xfd06;" horiz-adv-x="1557" arabic-form="isolated" 
d="M1411.5 476.5q52.5 -33.5 81 -95t28.5 -144.5q0 -114 -64 -175.5t-185 -61.5h-293q-51 0 -84.5 14t-54.5 38t-44 64l-27 48q-23 44 -44.5 69t-53.5 38.5t-80 13.5q-37 0 -69.5 -8.5t-52.5 -23t-20 -29.5q0 -16 23.5 -25.5t81.5 -23.5q44 -10 77 -19q67 -19 99.5 -59
t32.5 -113q0 -83 -41.5 -145.5t-126 -97.5t-207.5 -35q-186 0 -273.5 79t-87.5 246q0 48 7.5 95t15.5 77t11 38h129q-3 -8 -11 -35.5t-15.5 -67t-7.5 -75.5q0 -65 23.5 -102.5t76.5 -54t146 -16.5q126 0 189.5 19.5t63.5 49.5q0 12 -11 19t-37 13.5t-85 18.5
q-71 14 -109.5 38.5t-53.5 61.5t-15 96q0 67 34.5 126t94.5 94t132 35q66 0 110.5 -21.5t72 -54.5t55.5 -84l24 -42q3 -5 15 -26t22 -31q68 113 129 180.5t122.5 97.5t131.5 30q72 0 124.5 -33.5zM1381.5 196q29.5 13 29.5 46q0 41 -34.5 70t-96.5 29q-84 0 -149.5 -38
t-126.5 -120h274q74 0 103.5 13zM464 -502l-63 63l-63 -63l-74 77l74 76l63 -62l63 62l75 -76z" />
    <glyph glyph-name="uniFD07" unicode="&#xfd07;" horiz-adv-x="1557" arabic-form="isolated" 
d="M1411.5 476.5q52.5 -33.5 81 -95t28.5 -144.5q0 -114 -64 -175.5t-185 -61.5h-293q-51 0 -84.5 14t-54.5 38t-44 64l-27 48q-23 44 -44.5 69t-53.5 38.5t-80 13.5q-37 0 -69.5 -8.5t-52.5 -23t-20 -29.5q0 -16 23.5 -25.5t81.5 -23.5q44 -10 77 -19q67 -19 99.5 -59
t32.5 -113q0 -83 -41.5 -145.5t-126 -97.5t-207.5 -35q-186 0 -273.5 79t-87.5 246q0 48 7.5 95t15.5 77t11 38h129q-3 -8 -11 -35.5t-15.5 -67t-7.5 -75.5q0 -65 23.5 -102.5t76.5 -54t146 -16.5q126 0 189.5 19.5t63.5 49.5q0 12 -11 19t-37 13.5t-85 18.5
q-71 14 -109.5 38.5t-53.5 61.5t-15 96q0 67 34.5 126t94.5 94t132 35q66 0 110.5 -21.5t72 -54.5t55.5 -84l24 -42q3 -5 15 -26t22 -31q68 113 129 180.5t122.5 97.5t131.5 30q72 0 124.5 -33.5zM1381.5 196q29.5 13 29.5 46q0 41 -34.5 70t-96.5 29q-84 0 -149.5 -38
t-126.5 -120h274q74 0 103.5 13zM1198 661l89 86l89 -86l-89 -88z" />
    <glyph glyph-name="uniFD08" unicode="&#xfd08;" horiz-adv-x="1557" arabic-form="isolated" 
d="M1411.5 476.5q52.5 -33.5 81 -95t28.5 -144.5q0 -114 -64 -175.5t-185 -61.5h-293q-51 0 -84.5 14t-54.5 38t-44 64l-27 48q-23 44 -44.5 69t-53.5 38.5t-80 13.5q-37 0 -69.5 -8.5t-52.5 -23t-20 -29.5q0 -16 23.5 -25.5t81.5 -23.5q44 -10 77 -19q67 -19 99.5 -59
t32.5 -113q0 -83 -41.5 -145.5t-126 -97.5t-207.5 -35q-186 0 -273.5 79t-87.5 246q0 48 7.5 95t15.5 77t11 38h129q-3 -8 -11 -35.5t-15.5 -67t-7.5 -75.5q0 -65 23.5 -102.5t76.5 -54t146 -16.5q126 0 189.5 19.5t63.5 49.5q0 12 -11 19t-37 13.5t-85 18.5
q-71 14 -109.5 38.5t-53.5 61.5t-15 96q0 67 34.5 126t94.5 94t132 35q66 0 110.5 -21.5t72 -54.5t55.5 -84l24 -42q3 -5 15 -26t22 -31q68 113 129 180.5t122.5 97.5t131.5 30q72 0 124.5 -33.5zM1381.5 196q29.5 13 29.5 46q0 41 -34.5 70t-96.5 29q-84 0 -149.5 -38
t-126.5 -120h274q74 0 103.5 13zM464 -502l-63 63l-63 -63l-74 77l74 76l63 -62l63 62l75 -76zM1198 661l89 86l89 -86l-89 -88z" />
    <glyph glyph-name="uniFD0D" unicode="&#xfd0d;" horiz-adv-x="1164" arabic-form="isolated" 
d="M1120.5 319q7.5 -43 7.5 -90q0 -114 -48.5 -171.5t-134.5 -57.5q-113 0 -141 92q-15 -44 -52.5 -68t-97.5 -24q-83 0 -128 43.5t-54 132.5q-30 -63 -107 -63q-48 0 -71 29v-7q0 -113 -33.5 -199.5t-93.5 -134t-137 -47.5q-30 0 -51.5 5.5t-32.5 11.5t-13 8v171
q33 -13 83 -13q69 0 111.5 51t42.5 151q0 85 -18 197h127q5 -24 21.5 -35.5t63.5 -11.5q57 0 79.5 18.5t22.5 71.5h119v-109q0 -48 18.5 -67.5t64.5 -19.5t65 15.5t19 54.5v96h120v-98q0 -38 15.5 -53t53.5 -15q37 0 52.5 16.5t15.5 55.5q0 22 -4.5 50.5t-8.5 47t-5 24.5
h115q7 -15 14.5 -58zM811 540l-68 69l68 70l70 -70zM875 408l-65 66l-65 -66l-78 81l78 79l65 -64l65 64l79 -79z" />
    <glyph glyph-name="uniFD0E" unicode="&#xfd0e;" horiz-adv-x="1164" arabic-form="isolated" 
d="M1120.5 319q7.5 -43 7.5 -90q0 -114 -48.5 -171.5t-134.5 -57.5q-113 0 -141 92q-15 -44 -52.5 -68t-97.5 -24q-83 0 -128 43.5t-54 132.5q-30 -63 -107 -63q-48 0 -71 29v-7q0 -113 -33.5 -199.5t-93.5 -134t-137 -47.5q-30 0 -51.5 5.5t-32.5 11.5t-13 8v171
q33 -13 83 -13q69 0 111.5 51t42.5 151q0 85 -18 197h127q5 -24 21.5 -35.5t63.5 -11.5q57 0 79.5 18.5t22.5 71.5h119v-109q0 -48 18.5 -67.5t64.5 -19.5t65 15.5t19 54.5v96h120v-98q0 -38 15.5 -53t53.5 -15q37 0 52.5 16.5t15.5 55.5q0 22 -4.5 50.5t-8.5 47t-5 24.5
h115q7 -15 14.5 -58z" />
    <glyph glyph-name="uniFD0F" unicode="&#xfd0f;" horiz-adv-x="1291" arabic-form="isolated" 
d="M1145.5 476.5q52.5 -33.5 81 -95t28.5 -144.5q0 -114 -64 -175.5t-185 -61.5h-346q-85 0 -131.5 41.5t-59.5 128.5q-30 -57 -104 -57q-48 0 -71 29v-7q0 -113 -33.5 -199.5t-93.5 -134t-137 -47.5q-30 0 -51.5 5.5t-32.5 11.5t-13 8v174q11 -6 32.5 -11t50.5 -5
q69 0 111.5 51t42.5 151q0 85 -18 197h127q5 -24 21.5 -35.5t63.5 -11.5q51 0 74 14.5t27 54.5v21h124v-116q0 -34 9 -52t30 -24q71 119 133.5 189.5t125 102t134.5 31.5t124.5 -33.5zM1115.5 196q29.5 13 29.5 46q0 41 -34.5 70t-96.5 29q-84 0 -150 -38t-126 -120h274
q74 0 103.5 13z" />
    <glyph glyph-name="uniFD10" unicode="&#xfd10;" horiz-adv-x="1291" arabic-form="isolated" 
d="M1145.5 476.5q52.5 -33.5 81 -95t28.5 -144.5q0 -114 -64 -175.5t-185 -61.5h-346q-85 0 -131.5 41.5t-59.5 128.5q-30 -57 -104 -57q-48 0 -71 29v-7q0 -113 -33.5 -199.5t-93.5 -134t-137 -47.5q-30 0 -51.5 5.5t-32.5 11.5t-13 8v174q11 -6 32.5 -11t50.5 -5
q69 0 111.5 51t42.5 151q0 85 -18 197h127q5 -24 21.5 -35.5t63.5 -11.5q51 0 74 14.5t27 54.5v21h124v-116q0 -34 9 -52t30 -24q71 119 133.5 189.5t125 102t134.5 31.5t124.5 -33.5zM1115.5 196q29.5 13 29.5 46q0 41 -34.5 70t-96.5 29q-84 0 -150 -38t-126 -120h274
q74 0 103.5 13zM932 661l89 86l89 -86l-89 -88z" />
    <glyph glyph-name="uniFD17" unicode="&#xfd17;" horiz-adv-x="1544" arabic-form="final" 
d="M1561 180v-177l-17 -3q-71 0 -114 23t-58 72q-15 -45 -51.5 -70t-90.5 -25t-86.5 22.5t-45.5 68.5q-14 -44 -50.5 -67.5t-92.5 -23.5q-62 0 -96.5 27.5t-66.5 88.5l-24 45q-23 45 -44.5 70t-52.5 38t-80 13q-36 0 -68 -8t-51.5 -21.5t-19.5 -28.5q0 -16 23 -25.5
t80 -23.5q40 -9 76 -19q67 -19 99.5 -59t32.5 -113q0 -83 -41.5 -145.5t-126 -97.5t-207.5 -35q-186 0 -273.5 79t-87.5 246q0 48 7.5 95t15.5 77t11 38h129q-3 -8 -11 -35.5t-15.5 -67t-7.5 -75.5q0 -65 23.5 -102.5t76.5 -54t146 -16.5q126 0 189.5 19.5t63.5 49.5
q0 12 -11 19t-37 13.5t-85 18.5q-70 14 -107.5 38.5t-52.5 61.5t-15 96q0 67 34 125t93 92.5t131 34.5q66 0 110 -21t71.5 -54.5t55.5 -84.5l21 -39q24 -45 42 -60.5t56 -15.5q47 0 65.5 16t18.5 56v94h123v-97q0 -39 15.5 -54t56.5 -15q37 0 51.5 15t14.5 52v99h123v-99
q0 -37 25 -52t90 -15z" />
    <glyph glyph-name="uniFD18" unicode="&#xfd18;" horiz-adv-x="1544" arabic-form="final" 
d="M1561 180v-177l-17 -3q-71 0 -114 23t-58 72q-15 -45 -51.5 -70t-90.5 -25t-86.5 22.5t-45.5 68.5q-14 -44 -50.5 -67.5t-92.5 -23.5q-62 0 -96.5 27.5t-66.5 88.5l-24 45q-23 45 -44.5 70t-52.5 38t-80 13q-36 0 -68 -8t-51.5 -21.5t-19.5 -28.5q0 -16 23 -25.5
t80 -23.5q40 -9 76 -19q67 -19 99.5 -59t32.5 -113q0 -83 -41.5 -145.5t-126 -97.5t-207.5 -35q-186 0 -273.5 79t-87.5 246q0 48 7.5 95t15.5 77t11 38h129q-3 -8 -11 -35.5t-15.5 -67t-7.5 -75.5q0 -65 23.5 -102.5t76.5 -54t146 -16.5q126 0 189.5 19.5t63.5 49.5
q0 12 -11 19t-37 13.5t-85 18.5q-70 14 -107.5 38.5t-52.5 61.5t-15 96q0 67 34 125t93 92.5t131 34.5q66 0 110 -21t71.5 -54.5t55.5 -84.5l21 -39q24 -45 42 -60.5t56 -15.5q47 0 65.5 16t18.5 56v94h123v-97q0 -39 15.5 -54t56.5 -15q37 0 51.5 15t14.5 52v99h123v-99
q0 -37 25 -52t90 -15zM450 -512l-63 63l-63 -63l-74 77l74 76l63 -62l63 62l75 -76z" />
    <glyph glyph-name="uniFD19" unicode="&#xfd19;" horiz-adv-x="1544" arabic-form="final" 
d="M1561 180v-177l-17 -3q-71 0 -114 23t-58 72q-15 -45 -51.5 -70t-90.5 -25t-86.5 22.5t-45.5 68.5q-14 -44 -50.5 -67.5t-92.5 -23.5q-62 0 -96.5 27.5t-66.5 88.5l-24 45q-23 45 -44.5 70t-52.5 38t-80 13q-36 0 -68 -8t-51.5 -21.5t-19.5 -28.5q0 -16 23 -25.5
t80 -23.5q40 -9 76 -19q67 -19 99.5 -59t32.5 -113q0 -83 -41.5 -145.5t-126 -97.5t-207.5 -35q-186 0 -273.5 79t-87.5 246q0 48 7.5 95t15.5 77t11 38h129q-3 -8 -11 -35.5t-15.5 -67t-7.5 -75.5q0 -65 23.5 -102.5t76.5 -54t146 -16.5q126 0 189.5 19.5t63.5 49.5
q0 12 -11 19t-37 13.5t-85 18.5q-70 14 -107.5 38.5t-52.5 61.5t-15 96q0 67 34 125t93 92.5t131 34.5q66 0 110 -21t71.5 -54.5t55.5 -84.5l21 -39q24 -45 42 -60.5t56 -15.5q47 0 65.5 16t18.5 56v94h123v-97q0 -39 15.5 -54t56.5 -15q37 0 51.5 15t14.5 52v99h123v-99
q0 -37 25 -52t90 -15zM1104 540l-68 69l68 70l70 -70zM1168 408l-65 66l-65 -66l-78 81l78 79l65 -64l65 64l79 -79z" />
    <glyph glyph-name="uniFD1A" unicode="&#xfd1a;" horiz-adv-x="1544" arabic-form="final" 
d="M1561 180v-177l-17 -3q-71 0 -114 23t-58 72q-15 -45 -51.5 -70t-90.5 -25t-86.5 22.5t-45.5 68.5q-14 -44 -50.5 -67.5t-92.5 -23.5q-62 0 -96.5 27.5t-66.5 88.5l-24 45q-23 45 -44.5 70t-52.5 38t-80 13q-36 0 -68 -8t-51.5 -21.5t-19.5 -28.5q0 -16 23 -25.5
t80 -23.5q40 -9 76 -19q67 -19 99.5 -59t32.5 -113q0 -83 -41.5 -145.5t-126 -97.5t-207.5 -35q-186 0 -273.5 79t-87.5 246q0 48 7.5 95t15.5 77t11 38h129q-3 -8 -11 -35.5t-15.5 -67t-7.5 -75.5q0 -65 23.5 -102.5t76.5 -54t146 -16.5q126 0 189.5 19.5t63.5 49.5
q0 12 -11 19t-37 13.5t-85 18.5q-70 14 -107.5 38.5t-52.5 61.5t-15 96q0 67 34 125t93 92.5t131 34.5q66 0 110 -21t71.5 -54.5t55.5 -84.5l21 -39q24 -45 42 -60.5t56 -15.5q47 0 65.5 16t18.5 56v94h123v-97q0 -39 15.5 -54t56.5 -15q37 0 51.5 15t14.5 52v99h123v-99
q0 -37 25 -52t90 -15zM1104 540l-68 69l68 70l70 -70zM1168 408l-65 66l-65 -66l-78 81l78 79l65 -64l65 64l79 -79zM450 -512l-63 63l-63 -63l-74 77l74 76l63 -62l63 62l75 -76z" />
    <glyph glyph-name="uniFD21" unicode="&#xfd21;" horiz-adv-x="1583" arabic-form="final" 
d="M1600 180v-177l-17 -3q-60 0 -91 13.5t-43 40.5q-65 -54 -177 -54h-293q-51 0 -84.5 14t-54.5 38t-44 64l-27 48q-23 44 -44.5 69t-53.5 38.5t-80 13.5q-37 0 -69.5 -8.5t-52.5 -23t-20 -29.5q0 -16 23.5 -25.5t81.5 -23.5q44 -10 77 -19q67 -19 99.5 -59t32.5 -113
q0 -83 -41.5 -145.5t-126 -97.5t-207.5 -35q-186 0 -273.5 79t-87.5 246q0 48 7.5 95t15.5 77t11 38h129q-3 -8 -11 -35.5t-15.5 -67t-7.5 -75.5q0 -65 23.5 -102.5t76.5 -54t146 -16.5q126 0 189.5 19.5t63.5 49.5q0 12 -11 19t-37 13.5t-85 18.5q-71 14 -109.5 38.5
t-53.5 61.5t-15 96q0 67 34.5 126t94.5 94t132 35q66 0 110.5 -21.5t72 -54.5t55.5 -84l24 -42q3 -5 15 -26t22 -31q68 113 129 180.5t122.5 97.5t131.5 30q72 0 124.5 -33.5t81 -95t28.5 -144.5q0 -26 -3 -49q25 -5 65 -5zM1381.5 196q29.5 13 29.5 46q0 41 -34.5 70
t-96.5 29q-84 0 -149.5 -38t-126.5 -120h274q74 0 103.5 13z" />
    <glyph glyph-name="uniFD22" unicode="&#xfd22;" horiz-adv-x="1583" arabic-form="final" 
d="M1600 180v-177l-17 -3q-60 0 -91 13.5t-43 40.5q-65 -54 -177 -54h-293q-51 0 -84.5 14t-54.5 38t-44 64l-27 48q-23 44 -44.5 69t-53.5 38.5t-80 13.5q-37 0 -69.5 -8.5t-52.5 -23t-20 -29.5q0 -16 23.5 -25.5t81.5 -23.5q44 -10 77 -19q67 -19 99.5 -59t32.5 -113
q0 -83 -41.5 -145.5t-126 -97.5t-207.5 -35q-186 0 -273.5 79t-87.5 246q0 48 7.5 95t15.5 77t11 38h129q-3 -8 -11 -35.5t-15.5 -67t-7.5 -75.5q0 -65 23.5 -102.5t76.5 -54t146 -16.5q126 0 189.5 19.5t63.5 49.5q0 12 -11 19t-37 13.5t-85 18.5q-71 14 -109.5 38.5
t-53.5 61.5t-15 96q0 67 34.5 126t94.5 94t132 35q66 0 110.5 -21.5t72 -54.5t55.5 -84l24 -42q3 -5 15 -26t22 -31q68 113 129 180.5t122.5 97.5t131.5 30q72 0 124.5 -33.5t81 -95t28.5 -144.5q0 -26 -3 -49q25 -5 65 -5zM1381.5 196q29.5 13 29.5 46q0 41 -34.5 70
t-96.5 29q-84 0 -149.5 -38t-126.5 -120h274q74 0 103.5 13zM464 -502l-63 63l-63 -63l-74 77l74 76l63 -62l63 62l75 -76z" />
    <glyph glyph-name="uniFD23" unicode="&#xfd23;" horiz-adv-x="1583" arabic-form="final" 
d="M1600 180v-177l-17 -3q-60 0 -91 13.5t-43 40.5q-65 -54 -177 -54h-293q-51 0 -84.5 14t-54.5 38t-44 64l-27 48q-23 44 -44.5 69t-53.5 38.5t-80 13.5q-37 0 -69.5 -8.5t-52.5 -23t-20 -29.5q0 -16 23.5 -25.5t81.5 -23.5q44 -10 77 -19q67 -19 99.5 -59t32.5 -113
q0 -83 -41.5 -145.5t-126 -97.5t-207.5 -35q-186 0 -273.5 79t-87.5 246q0 48 7.5 95t15.5 77t11 38h129q-3 -8 -11 -35.5t-15.5 -67t-7.5 -75.5q0 -65 23.5 -102.5t76.5 -54t146 -16.5q126 0 189.5 19.5t63.5 49.5q0 12 -11 19t-37 13.5t-85 18.5q-71 14 -109.5 38.5
t-53.5 61.5t-15 96q0 67 34.5 126t94.5 94t132 35q66 0 110.5 -21.5t72 -54.5t55.5 -84l24 -42q3 -5 15 -26t22 -31q68 113 129 180.5t122.5 97.5t131.5 30q72 0 124.5 -33.5t81 -95t28.5 -144.5q0 -26 -3 -49q25 -5 65 -5zM1381.5 196q29.5 13 29.5 46q0 41 -34.5 70
t-96.5 29q-84 0 -149.5 -38t-126.5 -120h274q74 0 103.5 13zM1198 661l89 86l89 -86l-89 -88z" />
    <glyph glyph-name="uniFD24" unicode="&#xfd24;" horiz-adv-x="1583" arabic-form="final" 
d="M1600 180v-177l-17 -3q-60 0 -91 13.5t-43 40.5q-65 -54 -177 -54h-293q-51 0 -84.5 14t-54.5 38t-44 64l-27 48q-23 44 -44.5 69t-53.5 38.5t-80 13.5q-37 0 -69.5 -8.5t-52.5 -23t-20 -29.5q0 -16 23.5 -25.5t81.5 -23.5q44 -10 77 -19q67 -19 99.5 -59t32.5 -113
q0 -83 -41.5 -145.5t-126 -97.5t-207.5 -35q-186 0 -273.5 79t-87.5 246q0 48 7.5 95t15.5 77t11 38h129q-3 -8 -11 -35.5t-15.5 -67t-7.5 -75.5q0 -65 23.5 -102.5t76.5 -54t146 -16.5q126 0 189.5 19.5t63.5 49.5q0 12 -11 19t-37 13.5t-85 18.5q-71 14 -109.5 38.5
t-53.5 61.5t-15 96q0 67 34.5 126t94.5 94t132 35q66 0 110.5 -21.5t72 -54.5t55.5 -84l24 -42q3 -5 15 -26t22 -31q68 113 129 180.5t122.5 97.5t131.5 30q72 0 124.5 -33.5t81 -95t28.5 -144.5q0 -26 -3 -49q25 -5 65 -5zM1381.5 196q29.5 13 29.5 46q0 41 -34.5 70
t-96.5 29q-84 0 -149.5 -38t-126.5 -120h274q74 0 103.5 13zM464 -502l-63 63l-63 -63l-74 77l74 76l63 -62l63 62l75 -76zM1198 661l89 86l89 -86l-89 -88z" />
    <glyph glyph-name="uniFD29" unicode="&#xfd29;" horiz-adv-x="1243" arabic-form="final" 
d="M1260 180v-177l-17 -3q-70 0 -112.5 23t-57.5 72q-14 -46 -49 -70.5t-86 -24.5q-55 0 -87.5 22.5t-46.5 69.5q-14 -45 -52 -68.5t-98 -23.5q-83 0 -128 43.5t-54 132.5q-30 -63 -107 -63q-48 0 -71 29v-7q0 -113 -33.5 -199.5t-93.5 -134t-137 -47.5q-30 0 -51.5 5.5
t-32.5 11.5t-13 8v171q33 -13 83 -13q69 0 111.5 51t42.5 151q0 85 -18 197h127q5 -24 21.5 -35.5t63.5 -11.5q57 0 79.5 18.5t22.5 71.5h119v-109q0 -48 18.5 -67.5t64.5 -19.5t65 15.5t19 54.5v96h120v-98q0 -38 15.5 -53t53.5 -15q37 0 52 15t15 52v99h121v-99
q0 -37 24.5 -52t89.5 -15zM811 540l-68 69l68 70l70 -70zM875 408l-65 66l-65 -66l-78 81l78 79l65 -64l65 64l79 -79z" />
    <glyph glyph-name="uniFD2A" unicode="&#xfd2a;" horiz-adv-x="1243" arabic-form="final" 
d="M1260 180v-177l-17 -3q-70 0 -112.5 23t-57.5 72q-14 -46 -49 -70.5t-86 -24.5q-55 0 -87.5 22.5t-46.5 69.5q-14 -45 -52 -68.5t-98 -23.5q-83 0 -128 43.5t-54 132.5q-30 -63 -107 -63q-48 0 -71 29v-7q0 -113 -33.5 -199.5t-93.5 -134t-137 -47.5q-30 0 -51.5 5.5
t-32.5 11.5t-13 8v171q33 -13 83 -13q69 0 111.5 51t42.5 151q0 85 -18 197h127q5 -24 21.5 -35.5t63.5 -11.5q57 0 79.5 18.5t22.5 71.5h119v-109q0 -48 18.5 -67.5t64.5 -19.5t65 15.5t19 54.5v96h120v-98q0 -38 15.5 -53t53.5 -15q37 0 52 15t15 52v99h121v-99
q0 -37 24.5 -52t89.5 -15z" />
    <glyph glyph-name="uniFD2B" unicode="&#xfd2b;" horiz-adv-x="1316" arabic-form="final" 
d="M1333 180v-177l-17 -3q-60 0 -90.5 13.5t-43.5 39.5q-64 -53 -176 -53h-346q-85 0 -131.5 41.5t-59.5 128.5q-30 -57 -104 -57q-48 0 -71 29v-7q0 -113 -33.5 -199.5t-93.5 -134t-137 -47.5q-30 0 -51.5 5.5t-32.5 11.5t-13 8v174q11 -6 32.5 -11t50.5 -5q69 0 111.5 51
t42.5 151q0 85 -18 197h127q5 -24 21.5 -35.5t63.5 -11.5q51 0 74 14.5t27 54.5v21h124v-116q0 -34 9 -52t30 -24q71 119 133.5 189.5t125 102t134.5 31.5t124.5 -33.5t81 -95t28.5 -144.5q0 -26 -3 -49q23 -5 64 -5zM1115.5 196q29.5 13 29.5 46q0 41 -34.5 70t-96.5 29
q-84 0 -150 -38t-126 -120h274q74 0 103.5 13z" />
    <glyph glyph-name="uniFD2C" unicode="&#xfd2c;" horiz-adv-x="1316" arabic-form="final" 
d="M1333 180v-177l-17 -3q-60 0 -90.5 13.5t-43.5 39.5q-64 -53 -176 -53h-346q-85 0 -131.5 41.5t-59.5 128.5q-30 -57 -104 -57q-48 0 -71 29v-7q0 -113 -33.5 -199.5t-93.5 -134t-137 -47.5q-30 0 -51.5 5.5t-32.5 11.5t-13 8v174q11 -6 32.5 -11t50.5 -5q69 0 111.5 51
t42.5 151q0 85 -18 197h127q5 -24 21.5 -35.5t63.5 -11.5q51 0 74 14.5t27 54.5v21h124v-116q0 -34 9 -52t30 -24q71 119 133.5 189.5t125 102t134.5 31.5t124.5 -33.5t81 -95t28.5 -144.5q0 -26 -3 -49q23 -5 64 -5zM1115.5 196q29.5 13 29.5 46q0 41 -34.5 70t-96.5 29
q-84 0 -150 -38t-126 -120h274q74 0 103.5 13zM932 661l89 86l89 -86l-89 -88z" />
    <glyph glyph-name="uniFE82" unicode="&#x622;" horiz-adv-x="294" arabic-form="final" 
d="M116.5 64.5q-53.5 64.5 -53.5 195.5v443h130v-412q0 -44 8.5 -67t29.5 -32t63 -9l17 -3v-177l-17 -3q-124 0 -177.5 64.5zM124 775q-27 9 -46 9q-22 0 -36.5 -4t-21.5 -8.5t-8 -5.5v89q12 7 29 13t32 6q18 0 50 -8q3 -1 20 -5t40 -4q20 0 34.5 3.5t21.5 7l9 4.5v-89
q-2 -1 -9 -5.5t-22.5 -8.5t-37.5 -4q-23 0 -55 10z" />
    <glyph glyph-name="uniFE84" unicode="&#x623;" horiz-adv-x="294" arabic-form="final" 
d="M116.5 64.5q-53.5 64.5 -53.5 195.5v443h130v-412q0 -44 8.5 -67t29.5 -32t63 -9l17 -3v-177l-17 -3q-124 0 -177.5 64.5zM196 853q31 3 37 3v-76q-61 -8 -213 -19v75l28 2q-11 17 -11 41q0 47 30 73.5t74 26.5q20 0 42.5 -7t22.5 -8v-74q-5 2 -24.5 6.5t-40.5 4.5
q-48 0 -48 -26q0 -15 8.5 -20t33.5 -5q30 0 61 3z" />
    <glyph glyph-name="uniFE86" unicode="&#x624;" horiz-adv-x="515" arabic-form="final" 
d="M532 177v-174l-17 -3h-71q-24 -116 -96 -183t-180 -67q-55 0 -96 14.5t-56 32.5v158q21 -12 58.5 -22t82.5 -10q76 0 126 23t67 66h-129q-89 0 -132 48t-43 135q0 67 23.5 124t70.5 91.5t114 34.5q95 0 144.5 -71.5t55.5 -190.5h61zM165 185.5q20 -7.5 76 -7.5h109v5
q0 40 -26.5 69t-80.5 29q-44 0 -71 -19.5t-27 -48.5q0 -20 20 -27.5zM313 588q31 3 37 3v-76q-61 -8 -213 -19v75l28 2q-11 17 -11 41q0 47 30 73.5t74 26.5q20 0 42.5 -7t22.5 -8v-74q-5 2 -24.5 6.5t-40.5 4.5q-48 0 -48 -26q0 -15 8.5 -20t33.5 -5q30 0 61 3z" />
    <glyph glyph-name="uniFE88" unicode="&#x625;" horiz-adv-x="290" arabic-form="final" 
d="M115.5 64.5q-52.5 64.5 -52.5 195.5v488h137v-457q0 -39 5.5 -61t24.5 -34.5t60 -12.5l17 -3v-177l-17 -3q-122 0 -174.5 64.5zM222 -182q31 3 37 3v-76q-61 -8 -213 -19v75l28 2q-11 17 -11 41q0 47 30 73.5t74 26.5q20 0 42.5 -7t22.5 -8v-74q-5 2 -24.5 6.5t-40.5 4.5
q-48 0 -48 -26q0 -15 8.5 -20t33.5 -5q30 0 61 3z" />
    <glyph glyph-name="uniFE8A" unicode="&#x626;" horiz-adv-x="755" arabic-form="final" 
d="M772 180v-177l-17 -3h-50q7 -28 7 -53q0 -72 -41 -126.5t-118.5 -84.5t-184.5 -30q-173 0 -256 76t-85 238q0 49 8 93.5t17 72.5t12 35h129q-3 -7 -12 -34t-17 -66t-8 -76q2 -58 24 -91.5t70.5 -48.5t131.5 -15q108 0 165 18.5t57 49.5q0 25 -31 36.5t-106 17.5v178
q74 -7 238 -7h50zM195 372q31 3 37 3v-76q-61 -8 -213 -19v75l28 2q-11 17 -11 41q0 47 30 73.5t74 26.5q20 0 42.5 -7t22.5 -8v-74q-5 2 -24.5 6.5t-40.5 4.5q-48 0 -48 -26q0 -15 8.5 -20t33.5 -5q30 0 61 3z" />
    <glyph glyph-name="uniFE8B" unicode="&#x626;" horiz-adv-x="269" arabic-form="initial" 
d="M-17 3v177l17 3q60 0 84.5 28t24.5 91q0 54 -16 132h124q16 -80 16 -153q0 -128 -62 -204.5t-171 -76.5zM225 586q31 3 37 3v-76q-61 -8 -213 -19v75l28 2q-11 17 -11 41q0 47 30 73.5t74 26.5q20 0 42.5 -7t22.5 -8v-74q-5 2 -24.5 6.5t-40.5 4.5q-48 0 -48 -26
q0 -15 8.5 -20t33.5 -5q30 0 61 3z" />
    <glyph glyph-name="uniFE8C" unicode="&#x626;" horiz-adv-x="359" arabic-form="medial" 
d="M376 180v-177l-17 -3q-76 0 -120 26.5t-59 81.5q-15 -55 -59.5 -81.5t-120.5 -26.5l-17 3v177l17 3q46 0 71 8.5t36.5 31t11.5 65.5l1 -1l-1 99h127v-98q0 -43 10.5 -65.5t34.5 -31t68 -8.5zM249 544q31 3 37 3v-76q-61 -8 -213 -19v75l28 2q-11 17 -11 41q0 47 30 73.5
t74 26.5q20 0 42.5 -7t22.5 -8v-74q-5 2 -24.5 6.5t-40.5 4.5q-48 0 -48 -26q0 -15 8.5 -20t33.5 -5q30 0 61 3z" />
    <glyph glyph-name="uniFE8E" unicode="&#x627;" horiz-adv-x="290" arabic-form="final" 
d="M115.5 64.5q-52.5 64.5 -52.5 195.5v488h137v-457q0 -39 5.5 -61t24.5 -34.5t60 -12.5l17 -3v-177l-17 -3q-122 0 -174.5 64.5z" />
    <glyph glyph-name="uniFE90" unicode="&#x628;" horiz-adv-x="962" arabic-form="final" 
d="M979 180v-177l-17 -3q-76 0 -120 27.5t-58 85.5q-18 -41 -60 -66t-115 -36t-188 -11q-157 0 -241.5 25t-118.5 82t-34 160q0 37 5 70.5t10 54t7 25.5h124q-2 -5 -6.5 -21.5t-9 -41t-4.5 -48.5q0 -50 23.5 -76t83.5 -36.5t176 -10.5q122 0 181 8.5t82.5 32.5t23.5 75v87
h127v-96q0 -44 10.5 -66.5t34.5 -31.5t67 -9zM364 -144l90 86l89 -86l-89 -88z" />
    <glyph glyph-name="uniFE91" unicode="&#x628;" horiz-adv-x="269" arabic-form="initial" 
d="M-17 3v177l17 3q60 0 84.5 28t24.5 91q0 54 -16 132h124q16 -80 16 -153q0 -128 -62 -204.5t-171 -76.5zM-14 -151l90 86l89 -86l-89 -88z" />
    <glyph glyph-name="uniFE92" unicode="&#x628;" horiz-adv-x="359" arabic-form="medial" 
d="M376 180v-177l-17 -3q-76 0 -120 26.5t-59 81.5q-15 -55 -59.5 -81.5t-120.5 -26.5l-17 3v177l17 3q46 0 71 8.5t36.5 31t11.5 65.5l1 -1l-1 99h127v-98q0 -43 10.5 -65.5t34.5 -31t68 -8.5zM91 -151l90 86l89 -86l-89 -88z" />
    <glyph glyph-name="uniFE94" unicode="&#x629;" horiz-adv-x="526" arabic-form="final" 
d="M543 180v-177l-17 -3q-99 1 -148 44t-62 131q-26 -89 -129 -89q-85 0 -122.5 49.5t-37.5 140.5q0 61 24 106.5t86 82.5t174 66v58h122v-313q0 -39 7.5 -58t27 -27t58.5 -8zM311 284v104q-100 -23 -141 -42t-41 -41q0 -18 21.5 -26.5t67.5 -8.5q67 0 93 14zM318 640
l-66 65l-65 -65l-79 80l79 80l65 -65l66 65l78 -80z" />
    <glyph glyph-name="uniFE96" unicode="&#x62a;" horiz-adv-x="962" arabic-form="final" 
d="M979 180v-177l-17 -3q-76 0 -120 27.5t-58 85.5q-18 -41 -60 -66t-115 -36t-188 -11q-157 0 -241.5 25t-118.5 82t-34 160q0 37 5 70.5t10 54t7 25.5h124q-2 -5 -6.5 -21.5t-9 -41t-4.5 -48.5q0 -50 23.5 -76t83.5 -36.5t176 -10.5q122 0 181 8.5t82.5 32.5t23.5 75v87
h127v-96q0 -44 10.5 -66.5t34.5 -31.5t67 -9zM509 425l-66 65l-65 -65l-79 80l79 80l65 -65l66 65l78 -80z" />
    <glyph glyph-name="uniFE97" unicode="&#x62a;" horiz-adv-x="269" arabic-form="initial" 
d="M-17 3v177l17 3q60 0 84.5 28t24.5 91q0 54 -16 132h124q16 -80 16 -153q0 -128 -62 -204.5t-171 -76.5zM224 503l-66 65l-65 -65l-79 80l79 80l65 -65l66 65l78 -80z" />
    <glyph glyph-name="uniFE98" unicode="&#x62a;" horiz-adv-x="359" arabic-form="medial" 
d="M376 180v-177l-17 -3q-76 0 -120 26.5t-59 81.5q-15 -55 -59.5 -81.5t-120.5 -26.5l-17 3v177l17 3q46 0 71 8.5t36.5 31t11.5 65.5l1 -1l-1 99h127v-98q0 -43 10.5 -65.5t34.5 -31t68 -8.5zM248 461l-66 65l-65 -65l-79 80l79 80l65 -65l66 65l78 -80z" />
    <glyph glyph-name="uniFE9A" unicode="&#x62b;" horiz-adv-x="962" arabic-form="final" 
d="M979 180v-177l-17 -3q-76 0 -120 27.5t-58 85.5q-18 -41 -60 -66t-115 -36t-188 -11q-157 0 -241.5 25t-118.5 82t-34 160q0 37 5 70.5t10 54t7 25.5h124q-2 -5 -6.5 -21.5t-9 -41t-4.5 -48.5q0 -50 23.5 -76t83.5 -36.5t176 -10.5q122 0 181 8.5t82.5 32.5t23.5 75v87
h127v-96q0 -44 10.5 -66.5t34.5 -31.5t67 -9zM444 556l-68 69l68 70l70 -70zM508 424l-65 66l-65 -66l-78 81l78 79l65 -64l65 64l79 -79z" />
    <glyph glyph-name="uniFE9B" unicode="&#x62b;" horiz-adv-x="269" arabic-form="initial" 
d="M-17 3v177l17 3q60 0 84.5 28t24.5 91q0 54 -16 132h124q16 -80 16 -153q0 -128 -62 -204.5t-171 -76.5zM159 634l-68 69l68 70l70 -70zM223 502l-65 66l-65 -66l-78 81l78 79l65 -64l65 64l79 -79z" />
    <glyph glyph-name="uniFE9C" unicode="&#x62b;" horiz-adv-x="359" arabic-form="medial" 
d="M376 180v-177l-17 -3q-76 0 -120 26.5t-59 81.5q-15 -55 -59.5 -81.5t-120.5 -26.5l-17 3v177l17 3q46 0 71 8.5t36.5 31t11.5 65.5l1 -1l-1 99h127v-98q0 -43 10.5 -65.5t34.5 -31t68 -8.5zM183 592l-68 69l68 70l70 -70zM247 460l-65 66l-65 -66l-78 81l78 79l65 -64
l65 64l79 -79z" />
    <glyph glyph-name="uniFE9E" unicode="&#x62c;" horiz-adv-x="692" arabic-form="final" 
d="M709 180v-177l-17 -3q-65 0 -101 18t-51 54.5t-18 97.5q-144 -48 -224 -83t-119 -70t-39 -78q0 -58 51 -84.5t168 -26.5q80 0 143 10t102.5 22t39.5 14l1 -173q-43 -17 -61.5 -23.5t-83.5 -18t-152 -11.5q-166 0 -243.5 72.5t-77.5 209.5v9q0 83 41.5 143t128.5 106.5
t232 89.5q-139 38 -217 38q-41 0 -75.5 -11t-56.5 -24t-22 -15v161q0 2 19.5 17t54.5 27.5t84 12.5q47 0 92 -11.5t118 -35.5q74 -25 124.5 -38.5t108.5 -18.5l-10 -168l-39 -13q23 -16 82 -16zM299 -22l90 86l89 -86l-89 -88z" />
    <glyph glyph-name="uniFE9F" unicode="&#x62c;" horiz-adv-x="692" arabic-form="initial" 
d="M330.5 460q46.5 -13 115.5 -41q62 -25 111.5 -41t110.5 -23v-150q-33 -14 -137 -64q-135 -62 -160 -72q-100 -42 -183.5 -55.5t-185.5 -13.5l-18 3l-1 177l19 3q128 0 202.5 8t149.5 26q23 5 55 14.5t46 13.5l26 8l-28 9q-73 26 -123 38t-111 12q-43 0 -78 -11
t-57.5 -23.5t-22.5 -14.5v149q0 2 22 18t59.5 29.5t86.5 13.5q55 0 101.5 -13zM339 -72l90 86l89 -86l-89 -88z" />
    <glyph glyph-name="uniFEA0" unicode="&#x62c;" horiz-adv-x="732" arabic-form="medial" 
d="M749 180v-177l-17 -3q-70 0 -110 15t-58 46.5t-23 84.5l-49 -23q-84 -39 -121 -54q-100 -42 -183.5 -55.5t-185.5 -13.5l-18 3l-1 177l19 3q128 0 202.5 8t149.5 26q23 5 55 14.5t46 13.5l26 8l-28 9q-73 26 -123 38t-111 12q-43 0 -78 -11t-57.5 -23.5t-22.5 -14.5v149
q0 2 22 18t59.5 29.5t86.5 13.5q55 0 101.5 -13t115.5 -41q62 -25 111.5 -41t110.5 -23v-150l-28 -12q30 -10 92 -10zM429 14l89 -86l-89 -88l-90 88z" />
    <glyph glyph-name="uniFEA2" unicode="&#x62d;" horiz-adv-x="692" arabic-form="final" 
d="M709 180v-177l-17 -3q-65 0 -101 18t-51 54.5t-18 97.5q-144 -48 -224 -83t-119 -70t-39 -78q0 -58 51 -84.5t168 -26.5q80 0 143 10t102.5 22t39.5 14l1 -173q-43 -17 -61.5 -23.5t-83.5 -18t-152 -11.5q-166 0 -243.5 72.5t-77.5 209.5v9q0 83 41.5 143t128.5 106.5
t232 89.5q-139 38 -217 38q-41 0 -75.5 -11t-56.5 -24t-22 -15v161q0 2 19.5 17t54.5 27.5t84 12.5q47 0 92 -11.5t118 -35.5q74 -25 124.5 -38.5t108.5 -18.5l-10 -168l-39 -13q23 -16 82 -16z" />
    <glyph glyph-name="uniFEA3" unicode="&#x62d;" horiz-adv-x="692" arabic-form="initial" 
d="M330.5 460q46.5 -13 115.5 -41q62 -25 111.5 -41t110.5 -23v-150q-33 -14 -137 -64q-135 -62 -160 -72q-100 -42 -183.5 -55.5t-185.5 -13.5l-18 3l-1 177l19 3q128 0 202.5 8t149.5 26q23 5 55 14.5t46 13.5l26 8l-28 9q-73 26 -123 38t-111 12q-43 0 -78 -11
t-57.5 -23.5t-22.5 -14.5v149q0 2 22 18t59.5 29.5t86.5 13.5q55 0 101.5 -13z" />
    <glyph glyph-name="uniFEA4" unicode="&#x62d;" horiz-adv-x="732" arabic-form="medial" 
d="M749 180v-177l-17 -3q-70 0 -110 15t-58 46.5t-23 84.5l-49 -23q-84 -39 -121 -54q-100 -42 -183.5 -55.5t-185.5 -13.5l-18 3l-1 177l19 3q128 0 202.5 8t149.5 26q23 5 55 14.5t46 13.5l26 8l-28 9q-73 26 -123 38t-111 12q-43 0 -78 -11t-57.5 -23.5t-22.5 -14.5v149
q0 2 22 18t59.5 29.5t86.5 13.5q55 0 101.5 -13t115.5 -41q62 -25 111.5 -41t110.5 -23v-150l-28 -12q30 -10 92 -10z" />
    <glyph glyph-name="uniFEA6" unicode="&#x62e;" horiz-adv-x="692" arabic-form="final" 
d="M709 180v-177l-17 -3q-65 0 -101 18t-51 54.5t-18 97.5q-144 -48 -224 -83t-119 -70t-39 -78q0 -58 51 -84.5t168 -26.5q80 0 143 10t102.5 22t39.5 14l1 -173q-43 -17 -61.5 -23.5t-83.5 -18t-152 -11.5q-166 0 -243.5 72.5t-77.5 209.5v9q0 83 41.5 143t128.5 106.5
t232 89.5q-139 38 -217 38q-41 0 -75.5 -11t-56.5 -24t-22 -15v161q0 2 19.5 17t54.5 27.5t84 12.5q47 0 92 -11.5t118 -35.5q74 -25 124.5 -38.5t108.5 -18.5l-10 -168l-39 -13q23 -16 82 -16zM261 644l89 86l89 -86l-89 -88z" />
    <glyph glyph-name="uniFEA7" unicode="&#x62e;" horiz-adv-x="692" arabic-form="initial" 
d="M330.5 460q46.5 -13 115.5 -41q62 -25 111.5 -41t110.5 -23v-150q-33 -14 -137 -64q-135 -62 -160 -72q-100 -42 -183.5 -55.5t-185.5 -13.5l-18 3l-1 177l19 3q128 0 202.5 8t149.5 26q23 5 55 14.5t46 13.5l26 8l-28 9q-73 26 -123 38t-111 12q-43 0 -78 -11
t-57.5 -23.5t-22.5 -14.5v149q0 2 22 18t59.5 29.5t86.5 13.5q55 0 101.5 -13zM237 622l89 86l89 -86l-89 -88z" />
    <glyph glyph-name="uniFEA8" unicode="&#x62e;" horiz-adv-x="732" arabic-form="medial" 
d="M749 180v-177l-17 -3q-70 0 -110 15t-58 46.5t-23 84.5l-49 -23q-84 -39 -121 -54q-100 -42 -183.5 -55.5t-185.5 -13.5l-18 3l-1 177l19 3q128 0 202.5 8t149.5 26q23 5 55 14.5t46 13.5l26 8l-28 9q-73 26 -123 38t-111 12q-43 0 -78 -11t-57.5 -23.5t-22.5 -14.5v149
q0 2 22 18t59.5 29.5t86.5 13.5q55 0 101.5 -13t115.5 -41q62 -25 111.5 -41t110.5 -23v-150l-28 -12q30 -10 92 -10zM237 622l89 86l89 -86l-89 -88z" />
    <glyph glyph-name="uniFEAA" unicode="&#x62f;" horiz-adv-x="570" arabic-form="final" 
d="M587 180v-177l-17 -3q-71 0 -114.5 25t-72.5 78q-16 -52 -61.5 -79.5t-126.5 -27.5q-52 0 -89.5 7.5t-58 16.5t-20.5 10l1 178q0 -1 21 -8t60.5 -13t97.5 -6q99 0 131 30l-14 44l-99 298h148l86 -272q13 -43 24.5 -63t30.5 -27.5t56 -7.5z" />
    <glyph glyph-name="uniFEAC" unicode="&#x630;" horiz-adv-x="570" arabic-form="final" 
d="M587 180v-177l-17 -3q-71 0 -114.5 25t-72.5 78q-16 -52 -61.5 -79.5t-126.5 -27.5q-52 0 -89.5 7.5t-58 16.5t-20.5 10l1 178q0 -1 21 -8t60.5 -13t97.5 -6q99 0 131 30l-14 44l-99 298h148l86 -272q13 -43 24.5 -63t30.5 -27.5t56 -7.5zM210 705l89 86l89 -86l-89 -88z
" />
    <glyph glyph-name="uniFEAE" unicode="&#x631;" horiz-adv-x="385" arabic-form="final" 
d="M402 180v-177l-17 -3q-61 0 -96 35q-13 -84 -49 -147.5t-90 -98.5t-120 -35q-30 0 -51.5 5.5t-32.5 11.5t-13 8v170q40 -12 83 -12q69 0 111.5 51t42.5 151q0 45 -4.5 86t-13.5 104h131q7 -54 11 -110q6 -19 26.5 -27.5t64.5 -8.5z" />
    <glyph glyph-name="uniFEB0" unicode="&#x632;" horiz-adv-x="385" arabic-form="final" 
d="M402 180v-177l-17 -3q-61 0 -96 35q-13 -84 -49 -147.5t-90 -98.5t-120 -35q-30 0 -51.5 5.5t-32.5 11.5t-13 8v170q40 -12 83 -12q69 0 111.5 51t42.5 151q0 45 -4.5 86t-13.5 104h131q7 -54 11 -110q6 -19 26.5 -27.5t64.5 -8.5zM130 480l89 86l89 -86l-89 -88z" />
    <glyph glyph-name="uniFEB2" unicode="&#x633;" horiz-adv-x="1317" arabic-form="final" 
d="M1334 180v-177l-17 -3q-70 0 -112 22t-57 69q-15 -44 -49 -67.5t-84 -23.5q-54 0 -87 21.5t-47 66.5q-14 -43 -49 -65.5t-90 -22.5q-53 0 -81 23q-18 -128 -96.5 -191t-224.5 -63q-112 0 -180.5 33.5t-100.5 104t-32 184.5q0 55 8.5 101.5t19 78.5t10.5 29h129
q-3 -7 -12 -34.5t-17.5 -69t-8.5 -84.5q0 -60 18.5 -94.5t61 -50t115.5 -15.5t114.5 17.5t59.5 53.5t18 95q-1 54 -7 103t-20 128h130q8 -47 12 -73l6 -37q5 -33 21.5 -44.5t59.5 -11.5q44 0 62 15.5t18 54.5v96h127v-98q0 -38 14 -53t50 -15t50.5 15t14.5 52v99h127v-99
q0 -37 23.5 -52t85.5 -15z" />
    <glyph glyph-name="uniFEB3" unicode="&#x633;" horiz-adv-x="826" arabic-form="initial" 
d="M782.5 319q7.5 -43 7.5 -90q0 -114 -50 -171.5t-139 -57.5q-56 0 -90.5 21.5t-48.5 66.5q-31 -88 -144 -88q-62 0 -98.5 21.5t-49.5 67.5q-16 -46 -57.5 -67.5t-112.5 -21.5l-17 3v177l17 3q48 0 72.5 5.5t34 20t9.5 41.5v99h127v-95q0 -40 18.5 -55.5t64.5 -15.5
q44 0 61.5 15.5t17.5 54.5v96h128v-98q0 -38 14.5 -53t51.5 -15q35 0 49 16.5t14 55.5q0 22 -4 49t-9 47t-6 26h125q7 -15 14.5 -58z" />
    <glyph glyph-name="uniFEB4" unicode="&#x633;" horiz-adv-x="898" arabic-form="medial" 
d="M915 180v-177l-17 -3q-70 0 -112 22t-57 69q-15 -44 -49 -67.5t-84 -23.5q-54 0 -87.5 21.5t-47.5 65.5q-14 -42 -50.5 -64.5t-92.5 -22.5q-62 0 -98.5 21.5t-49.5 67.5q-16 -46 -57.5 -67.5t-112.5 -21.5l-17 3v177l17 3q48 0 72.5 5.5t34 20t9.5 41.5v99h127v-95
q0 -40 18.5 -55.5t64.5 -15.5q44 0 61.5 15.5t17.5 54.5v96h128v-98q0 -38 14 -53t50 -15t50.5 15t14.5 52v99h127v-99q0 -37 23.5 -52t85.5 -15z" />
    <glyph glyph-name="uniFEB6" unicode="&#x634;" horiz-adv-x="1317" arabic-form="final" 
d="M1334 180v-177l-17 -3q-70 0 -112 22t-57 69q-15 -44 -49 -67.5t-84 -23.5q-54 0 -87 21.5t-47 66.5q-14 -43 -49 -65.5t-90 -22.5q-53 0 -81 23q-18 -128 -96.5 -191t-224.5 -63q-112 0 -180.5 33.5t-100.5 104t-32 184.5q0 55 8.5 101.5t19 78.5t10.5 29h129
q-3 -7 -12 -34.5t-17.5 -69t-8.5 -84.5q0 -60 18.5 -94.5t61 -50t115.5 -15.5t114.5 17.5t59.5 53.5t18 95q-1 54 -7 103t-20 128h130q8 -47 12 -73l6 -37q5 -33 21.5 -44.5t59.5 -11.5q44 0 62 15.5t18 54.5v96h127v-98q0 -38 14 -53t50 -15t50.5 15t14.5 52v99h127v-99
q0 -37 23.5 -52t85.5 -15zM888 540l-68 69l68 70l70 -70zM952 408l-65 66l-65 -66l-78 81l78 79l65 -64l65 64l79 -79z" />
    <glyph glyph-name="uniFEB7" unicode="&#x634;" horiz-adv-x="826" arabic-form="initial" 
d="M782.5 319q7.5 -43 7.5 -90q0 -114 -50 -171.5t-139 -57.5q-56 0 -90.5 21.5t-48.5 66.5q-31 -88 -144 -88q-62 0 -98.5 21.5t-49.5 67.5q-16 -46 -57.5 -67.5t-112.5 -21.5l-17 3v177l17 3q48 0 72.5 5.5t34 20t9.5 41.5v99h127v-95q0 -40 18.5 -55.5t64.5 -15.5
q44 0 61.5 15.5t17.5 54.5v96h128v-98q0 -38 14.5 -53t51.5 -15q35 0 49 16.5t14 55.5q0 22 -4 49t-9 47t-6 26h125q7 -15 14.5 -58zM469 540l-68 69l68 70l70 -70zM533 408l-65 66l-65 -66l-78 81l78 79l65 -64l65 64l79 -79z" />
    <glyph glyph-name="uniFEB8" unicode="&#x634;" horiz-adv-x="898" arabic-form="medial" 
d="M915 180v-177l-17 -3q-70 0 -112 22t-57 69q-15 -44 -49 -67.5t-84 -23.5q-54 0 -87.5 21.5t-47.5 65.5q-14 -42 -50.5 -64.5t-92.5 -22.5q-62 0 -98.5 21.5t-49.5 67.5q-16 -46 -57.5 -67.5t-112.5 -21.5l-17 3v177l17 3q48 0 72.5 5.5t34 20t9.5 41.5v99h127v-95
q0 -40 18.5 -55.5t64.5 -15.5q44 0 61.5 15.5t17.5 54.5v96h128v-98q0 -38 14 -53t50 -15t50.5 15t14.5 52v99h127v-99q0 -37 23.5 -52t85.5 -15zM469 540l-68 69l68 70l70 -70zM533 408l-65 66l-65 -66l-78 81l78 79l65 -64l65 64l79 -79z" />
    <glyph glyph-name="uniFEBA" unicode="&#x635;" horiz-adv-x="1384" arabic-form="final" 
d="M1401 180v-177l-17 -3q-62 0 -93 14t-43 43q-65 -57 -180 -57h-304q-70 0 -102 32q-16 -132 -95 -197.5t-227 -65.5q-111 0 -180 33.5t-101 104t-32 184.5q0 55 8.5 101.5t19 78.5t10.5 29h129q-3 -7 -12 -34.5t-17.5 -69t-8.5 -84.5q0 -60 18.5 -94.5t61 -50
t115.5 -15.5t114.5 17.5t59.5 53.5t18 95q-1 53 -7 101t-20 127h130q9 -52 12 -71l6 -36q3 -22 9 -33.5t20 -17.5q71 119 133 189.5t123.5 101.5t133.5 31q71 0 123.5 -34.5t81 -97t28.5 -144.5q0 -24 -3 -45q23 -6 71 -6zM1174.5 196q28.5 13 28.5 46q0 41 -33.5 70
t-93.5 29q-84 0 -149.5 -38t-126.5 -120h274q72 0 100.5 13z" />
    <glyph glyph-name="uniFEBB" unicode="&#x635;" horiz-adv-x="929" arabic-form="initial" 
d="M783.5 476q52.5 -34 81 -96.5t28.5 -145.5q0 -113 -63.5 -173.5t-184.5 -60.5h-324q-134 0 -163 93q-15 -45 -55 -69t-103 -24l-17 3v177l17 3q42 0 63.5 7t30.5 24t9 50v85h128v-84q0 -39 7 -56t29 -23q70 119 133 190t125.5 102.5t134.5 31.5q71 0 123.5 -34zM752 196
q28 13 28 46q0 41 -33.5 70t-93.5 29q-84 0 -149.5 -38t-126.5 -120h274q73 0 101 13z" />
    <glyph glyph-name="uniFEBC" unicode="&#x635;" horiz-adv-x="963" arabic-form="medial" 
d="M980 180v-177l-17 -3q-62 0 -93 14.5t-43 43.5q-64 -58 -182 -58h-324q-134 0 -163 93q-15 -45 -55 -69t-103 -24l-17 3v177l17 3q42 0 63.5 7t30.5 24t9 50v85h128v-84q0 -39 7 -56t29 -23q70 119 133 190t125.5 102.5t134.5 31.5q71 0 123.5 -34t81 -96.5t28.5 -145.5
q0 -22 -3 -45q24 -6 73 -6zM752 196q28 13 28 46q0 41 -33.5 70t-93.5 29q-84 0 -149.5 -38t-126.5 -120h274q73 0 101 13z" />
    <glyph glyph-name="uniFEBE" unicode="&#x636;" horiz-adv-x="1384" arabic-form="final" 
d="M1401 180v-177l-17 -3q-62 0 -93 14t-43 43q-65 -57 -180 -57h-304q-70 0 -102 32q-16 -132 -95 -197.5t-227 -65.5q-111 0 -180 33.5t-101 104t-32 184.5q0 55 8.5 101.5t19 78.5t10.5 29h129q-3 -7 -12 -34.5t-17.5 -69t-8.5 -84.5q0 -60 18.5 -94.5t61 -50
t115.5 -15.5t114.5 17.5t59.5 53.5t18 95q-1 53 -7 101t-20 127h130q9 -52 12 -71l6 -36q3 -22 9 -33.5t20 -17.5q71 119 133 189.5t123.5 101.5t133.5 31q71 0 123.5 -34.5t81 -97t28.5 -144.5q0 -24 -3 -45q23 -6 71 -6zM1174.5 196q28.5 13 28.5 46q0 41 -33.5 70
t-93.5 29q-84 0 -149.5 -38t-126.5 -120h274q72 0 100.5 13zM1001 661l89 86l89 -86l-89 -88z" />
    <glyph glyph-name="uniFEBF" unicode="&#x636;" horiz-adv-x="929" arabic-form="initial" 
d="M783.5 476q52.5 -34 81 -96.5t28.5 -145.5q0 -113 -63.5 -173.5t-184.5 -60.5h-324q-134 0 -163 93q-15 -45 -55 -69t-103 -24l-17 3v177l17 3q42 0 63.5 7t30.5 24t9 50v85h128v-84q0 -39 7 -56t29 -23q70 119 133 190t125.5 102.5t134.5 31.5q71 0 123.5 -34zM752 196
q28 13 28 46q0 41 -33.5 70t-93.5 29q-84 0 -149.5 -38t-126.5 -120h274q73 0 101 13zM578 661l89 86l89 -86l-89 -88z" />
    <glyph glyph-name="uniFEC0" unicode="&#x636;" horiz-adv-x="963" arabic-form="medial" 
d="M980 180v-177l-17 -3q-62 0 -93 14.5t-43 43.5q-64 -58 -182 -58h-324q-134 0 -163 93q-15 -45 -55 -69t-103 -24l-17 3v177l17 3q42 0 63.5 7t30.5 24t9 50v85h128v-84q0 -39 7 -56t29 -23q70 119 133 190t125.5 102.5t134.5 31.5q71 0 123.5 -34t81 -96.5t28.5 -145.5
q0 -22 -3 -45q24 -6 73 -6zM752 196q28 13 28 46q0 41 -33.5 70t-93.5 29q-84 0 -149.5 -38t-126.5 -120h274q73 0 101 13zM578 661l89 86l89 -86l-89 -88z" />
    <glyph glyph-name="uniFEC2" unicode="&#x637;" horiz-adv-x="794" arabic-form="final" 
d="M811 180v-177l-17 -3q-57 0 -87.5 12t-43.5 36q-61 -48 -171 -48h-231q-107 0 -160.5 8.5t-90.5 25.5v178q39 -19 104 -24q37 62 49 79v481h137v-249q0 -40 -21 -86q53 51 107.5 74t117.5 23q110 0 172.5 -75t62.5 -201q0 -25 -3 -48q21 -3 58 -3zM596.5 195.5
q30.5 12.5 30.5 46.5q0 41 -33 70t-95 29q-86 0 -150 -37t-126 -121h23h252q68 0 98.5 12.5z" />
    <glyph glyph-name="uniFEC3" unicode="&#x637;" horiz-adv-x="694" arabic-form="initial" 
d="M595.5 436q62.5 -74 62.5 -199q0 -115 -63 -176t-185 -61h-410l-17 4v176l17 3h29q33 54 52 84v481h138v-249q0 -39 -21 -86q53 51 107.5 74t117.5 23q110 0 172.5 -74zM515 195.5q30 12.5 30 46.5q0 41 -33 70t-94 29q-87 0 -151 -37t-127 -121h276q69 0 99 12.5z" />
    <glyph glyph-name="uniFEC4" unicode="&#x637;" horiz-adv-x="716" arabic-form="medial" 
d="M733 180v-177l-17 -3q-58 0 -88.5 13t-44.5 38q-61 -51 -173 -51h-410l-17 4v176l17 3h29q33 54 52 84v481h138v-249q0 -39 -21 -86q53 51 107.5 74t117.5 23q110 0 172.5 -74t62.5 -199q0 -26 -3 -50q19 -4 61 -4zM515 195.5q30 12.5 30 46.5q0 41 -33 70t-94 29
q-87 0 -151 -37t-127 -121h276q69 0 99 12.5z" />
    <glyph glyph-name="uniFEC6" unicode="&#x638;" horiz-adv-x="794" arabic-form="final" 
d="M811 180v-177l-17 -3q-57 0 -87.5 12t-43.5 36q-61 -48 -171 -48h-231q-107 0 -160.5 8.5t-90.5 25.5v178q39 -19 104 -24q37 62 49 79v481h137v-249q0 -40 -21 -86q53 51 107.5 74t117.5 23q110 0 172.5 -75t62.5 -201q0 -25 -3 -48q21 -3 58 -3zM596.5 195.5
q30.5 12.5 30.5 46.5q0 41 -33 70t-95 29q-86 0 -150 -37t-126 -121h23h252q68 0 98.5 12.5zM406 659l89 86l89 -86l-89 -88z" />
    <glyph glyph-name="uniFEC7" unicode="&#x638;" horiz-adv-x="694" arabic-form="initial" 
d="M595.5 436q62.5 -74 62.5 -199q0 -115 -63 -176t-185 -61h-410l-17 4v176l17 3h29q33 54 52 84v481h138v-249q0 -39 -21 -86q53 51 107.5 74t117.5 23q110 0 172.5 -74zM515 195.5q30 12.5 30 46.5q0 41 -33 70t-94 29q-87 0 -151 -37t-127 -121h276q69 0 99 12.5z
M328 656l89 86l89 -86l-89 -88z" />
    <glyph glyph-name="uniFEC8" unicode="&#x638;" horiz-adv-x="716" arabic-form="medial" 
d="M733 180v-177l-17 -3q-58 0 -88.5 13t-44.5 38q-61 -51 -173 -51h-410l-17 4v176l17 3h29q33 54 52 84v481h138v-249q0 -39 -21 -86q53 51 107.5 74t117.5 23q110 0 172.5 -74t62.5 -199q0 -26 -3 -50q19 -4 61 -4zM515 195.5q30 12.5 30 46.5q0 41 -33 70t-94 29
q-87 0 -151 -37t-127 -121h276q69 0 99 12.5zM328 656l89 86l89 -86l-89 -88z" />
    <glyph glyph-name="uniFECA" unicode="&#x639;" horiz-adv-x="610" arabic-form="final" 
d="M627 180v-177l-17 -3h-25q-69 0 -113 5t-81.5 22t-71.5 50q-98 -41 -141 -76.5t-43 -80.5q0 -44 47 -69.5t164 -25.5q66 0 118.5 7t84.5 15.5t32 9.5l1 -170q-40 -13 -98.5 -25.5t-162.5 -12.5q-144 0 -219 62t-75 187q0 67 18 113.5t58 82.5t110 71q-39 40 -78.5 86.5
t-50.5 66.5l32 161q42 22 100 32.5t138 10.5q106 0 155.5 -40t49.5 -125q0 -53 -18.5 -94t-68.5 -79q29 -1 110 -1h28zM428 348.5q-27 10.5 -93 10.5q-84 0 -128 -14q94 -96 138 -129q57 25 83.5 48.5t26.5 48.5t-27 35.5z" />
    <glyph glyph-name="uniFECB" unicode="&#x639;" horiz-adv-x="517" arabic-form="initial" 
d="M491 212v-179q-89 -19 -210.5 -26t-279.5 -7l-17 3l-1 177l18 3h65q-22 44 -22 96q0 115 65 175t182 60q35 0 65 -8.5t49.5 -19t19.5 -11.5l-1 -160q-5 3 -25 11t-51.5 16t-66.5 8q-56 0 -90 -21t-34 -59q0 -84 145 -81q51 0 189 23z" />
    <glyph glyph-name="uniFECC" unicode="&#x639;" horiz-adv-x="566" arabic-form="medial" 
d="M583 180v-177l-17 -3h-25q-100 0 -156 12t-104 53q-52 -39 -114.5 -52t-148.5 -13h-18l-17 3v177l17 3h27h111q-34 37 -61.5 70.5t-36.5 49.5l32 161q42 22 100 32.5t138 10.5q106 0 155.5 -40t49.5 -125q0 -49 -15.5 -85.5t-58.5 -73.5h97h28zM384 333.5
q-27 10.5 -93 10.5q-84 0 -128 -14q94 -96 138 -129q57 25 83.5 48.5t26.5 48.5t-27 35.5z" />
    <glyph glyph-name="uniFECE" unicode="&#x63a;" horiz-adv-x="610" arabic-form="final" 
d="M627 180v-177l-17 -3h-25q-69 0 -113 5t-81.5 22t-71.5 50q-98 -41 -141 -76.5t-43 -80.5q0 -44 47 -69.5t164 -25.5q66 0 118.5 7t84.5 15.5t32 9.5l1 -170q-40 -13 -98.5 -25.5t-162.5 -12.5q-144 0 -219 62t-75 187q0 67 18 113.5t58 82.5t110 71q-39 40 -78.5 86.5
t-50.5 66.5l32 161q42 22 100 32.5t138 10.5q106 0 155.5 -40t49.5 -125q0 -53 -18.5 -94t-68.5 -79q29 -1 110 -1h28zM428 348.5q-27 10.5 -93 10.5q-84 0 -128 -14q94 -96 138 -129q57 25 83.5 48.5t26.5 48.5t-27 35.5zM248 672l89 86l89 -86l-89 -88z" />
    <glyph glyph-name="uniFECF" unicode="&#x63a;" horiz-adv-x="517" arabic-form="initial" 
d="M491 212v-179q-89 -19 -210.5 -26t-279.5 -7l-17 3l-1 177l18 3h65q-22 44 -22 96q0 115 65 175t182 60q35 0 65 -8.5t49.5 -19t19.5 -11.5l-1 -160q-5 3 -25 11t-51.5 16t-66.5 8q-56 0 -90 -21t-34 -59q0 -84 145 -81q51 0 189 23zM183 665l89 86l89 -86l-89 -88z" />
    <glyph glyph-name="uniFED0" unicode="&#x63a;" horiz-adv-x="566" arabic-form="medial" 
d="M583 180v-177l-17 -3h-25q-100 0 -156 12t-104 53q-52 -39 -114.5 -52t-148.5 -13h-18l-17 3v177l17 3h27h111q-34 37 -61.5 70.5t-36.5 49.5l32 161q42 22 100 32.5t138 10.5q106 0 155.5 -40t49.5 -125q0 -49 -15.5 -85.5t-58.5 -73.5h97h28zM384 333.5
q-27 10.5 -93 10.5q-84 0 -128 -14q94 -96 138 -129q57 25 83.5 48.5t26.5 48.5t-27 35.5zM212 661l89 86l89 -86l-89 -88z" />
    <glyph glyph-name="uniFED2" unicode="&#x641;" horiz-adv-x="953" arabic-form="final" 
d="M970 180v-177l-18 -3q-165 0 -259 52q-53 -28 -124.5 -40t-167.5 -12q-142 0 -223.5 29.5t-116 89.5t-34.5 158q0 39 4.5 75t9.5 59t7 29h126q-1 -5 -5.5 -23t-8.5 -45.5t-4 -55.5q0 -46 23.5 -75t81 -43.5t158.5 -14.5q61 0 139 2q-52 46 -52 133q0 102 52 159.5
t142 57.5q91 0 142 -57t51 -160q0 -86 -50 -132q46 -3 109 -3zM611 293q0 -26 20 -44t67 -32q49 14 70 32t21 44q0 73 -89 73t-89 -73zM611 686l89 86l89 -86l-89 -88z" />
    <glyph glyph-name="uniFED3" unicode="&#x641;" horiz-adv-x="465" arabic-form="initial" 
d="M380 545q49 -76 49 -193v-56q0 -152 -70.5 -224t-221.5 -72h-137l-17 3v177l17 3h150q90 0 130.5 21.5t40.5 68.5v27q-33 -62 -127 -62q-80 0 -120.5 44.5t-40.5 116.5q0 60 22.5 110.5t68 81t109.5 30.5q98 0 147 -76zM289 368.5q23 3.5 31 12.5q-1 31 -25.5 54
t-72.5 23q-41 0 -65.5 -15.5t-24.5 -40.5q0 -21 18.5 -29t68.5 -8q47 0 70 3.5zM138 770l89 86l89 -86l-89 -88z" />
    <glyph glyph-name="uniFED4" unicode="&#x641;" horiz-adv-x="506" arabic-form="medial" 
d="M523 180v-177l-18 -3q-163 0 -255 49q-92 -49 -249 -49l-18 3v177l18 3q64 0 109 3q-50 46 -50 132q0 102 51.5 159.5t141.5 57.5q91 0 142.5 -57t51.5 -160q0 -85 -50 -132q45 -3 108 -3zM164 293q0 -26 20 -44t68 -32q49 14 69.5 31.5t20.5 44.5q0 73 -89 73t-89 -73z
M164 686l89 86l89 -86l-89 -88z" />
    <glyph glyph-name="uniFED6" unicode="&#x642;" horiz-adv-x="809" arabic-form="final" 
d="M826 177v-174l-17 -3h-69q-20 -128 -104.5 -186.5t-251.5 -58.5q-136 0 -213.5 34.5t-110.5 106.5t-33 193q0 52 8 98t16.5 74t11.5 35h130q-3 -7 -12 -34t-17 -66.5t-8 -77.5q0 -68 22.5 -106.5t75 -56t147.5 -17.5q93 0 143.5 7.5t72 23.5t26.5 43h-131q-87 0 -130 49
t-43 133q0 66 23.5 121.5t71 89t114.5 33.5q92 0 142 -70.5t57 -184.5h62zM459 181.5q20 -6.5 75 -6.5h110v8q0 36 -26.5 63.5t-80.5 27.5q-45 0 -71.5 -20t-26.5 -49q0 -17 20 -23.5zM606 498l-66 65l-65 -65l-79 80l79 80l65 -65l66 65l78 -80z" />
    <glyph glyph-name="uniFED7" unicode="&#x642;" horiz-adv-x="465" arabic-form="initial" 
d="M380 545q49 -76 49 -193v-56q0 -152 -70.5 -224t-221.5 -72h-137l-17 3v177l17 3h150q90 0 130.5 21.5t40.5 68.5v27q-33 -62 -127 -62q-80 0 -120.5 44.5t-40.5 116.5q0 60 22.5 110.5t68 81t109.5 30.5q98 0 147 -76zM289 368.5q23 3.5 31 12.5q-1 31 -25.5 54
t-72.5 23q-41 0 -65.5 -15.5t-24.5 -40.5q0 -21 18.5 -29t68.5 -8q47 0 70 3.5zM292 679l-66 65l-65 -65l-79 80l79 80l65 -65l66 65l78 -80z" />
    <glyph glyph-name="uniFED8" unicode="&#x642;" horiz-adv-x="506" arabic-form="medial" 
d="M523 180v-177l-18 -3q-163 0 -255 49q-92 -49 -249 -49l-18 3v177l18 3q64 0 109 3q-50 46 -50 132q0 102 51.5 159.5t141.5 57.5q91 0 142.5 -57t51.5 -160q0 -85 -50 -132q45 -3 108 -3zM164 293q0 -26 20 -44t68 -32q49 14 69.5 31.5t20.5 44.5q0 73 -89 73t-89 -73z
M318 595l-66 65l-65 -65l-79 80l79 80l65 -65l66 65l78 -80z" />
    <glyph glyph-name="uniFEDA" unicode="&#x643;" horiz-adv-x="893" arabic-form="final" 
d="M910 180v-177l-17 -3q-118 0 -145 100q-41 -53 -123.5 -76.5t-223.5 -23.5q-148 0 -228.5 25t-113 82t-32.5 160q0 34 4 64t8.5 48.5t6.5 23.5h125q-1 -4 -5.5 -17.5t-8.5 -35t-4 -44.5q0 -50 22 -76t77.5 -36.5t162.5 -10.5q100 0 151 7t71.5 25t20.5 52v481h137v-450
q0 -66 22.5 -90.5t75.5 -24.5zM510 328.5q-34 -27.5 -115 -27.5q-35 0 -58 3.5t-46 12.5v91q21 -6 44 -8.5t59 -2.5q85 0 85 12q0 3 -10.5 6t-19.5 4.5t-13 2.5l-51 11q-27 7 -38 27.5t-11 56.5q0 43 43 73.5t151 63.5v-93q-78 -22 -103 -31.5t-25 -16.5q0 -3 13.5 -6
t27 -5.5t20.5 -3.5q45 -7 63 -27t18 -60q0 -55 -34 -82.5z" />
    <glyph glyph-name="uniFEDB" unicode="&#x643;" horiz-adv-x="446" arabic-form="initial" 
d="M448 598l-261 -134q118 -38 169.5 -92.5t51.5 -143.5q0 -111 -63.5 -169.5t-173.5 -58.5h-170l-18 3v177l18 3h183q47 0 81.5 9.5t34.5 33.5q0 23 -22 43t-80.5 41.5t-167.5 47.5v168l418 234v-162z" />
    <glyph glyph-name="uniFEDC" unicode="&#x643;" horiz-adv-x="568" arabic-form="medial" 
d="M585 180v-177l-17 -3q-64 0 -106.5 11t-78 37.5t-78.5 78.5q-11 -63 -58.5 -95t-145.5 -32h-100l-18 3v177l18 3h98q76 0 105 7.5t33 25.5l-70 78l-88 99v133l427 235v-163l-289 -148l138 -156q45 -47 74 -70t60 -32t79 -9z" />
    <glyph glyph-name="uniFEDE" unicode="&#x644;" horiz-adv-x="710" arabic-form="final" 
d="M727 180v-177l-17 -3q-67 0 -106 33q-20 -117 -92.5 -175.5t-202.5 -58.5q-148 0 -215 73.5t-67 234.5q0 53 8.5 98t19 76t10.5 28h129q-3 -7 -12 -33t-17.5 -65t-8.5 -76q0 -84 36.5 -118t126.5 -34q59 0 93 15.5t48.5 48t14.5 87.5v614h137v-450q0 -66 22.5 -90.5
t75.5 -24.5z" />
    <glyph glyph-name="uniFEDF" unicode="&#x644;" horiz-adv-x="289" arabic-form="initial" 
d="M-17 3v177l18 3q36 0 54.5 6.5t26 23.5t7.5 49v486l137 1v-460q0 -155 -56 -222t-169 -67z" />
    <glyph glyph-name="uniFEE0" unicode="&#x644;" horiz-adv-x="324" arabic-form="medial" 
d="M341 180v-177l-17 -3q-109 0 -141 86q-52 -86 -182 -86l-18 3v177l18 3q36 0 54.5 6.5t26 23.5t7.5 49v486l137 1v-451q0 -66 22.5 -90.5t75.5 -24.5z" />
    <glyph glyph-name="uniFEE2" unicode="&#x645;" horiz-adv-x="712" arabic-form="final" 
d="M729 180v-177l-17 -3q-64 0 -101 26.5t-61 74.5q-19 -48 -61.5 -76.5t-110.5 -28.5q-86 0 -135 49q-52 -13 -71 -20.5t-19 -16.5l1 -340h-131v342q0 63 24 108t68 63q34 14 74 24q1 74 31 130t79 86t106 30q53 0 90 -23t59 -54.5t46 -79.5l28 -53q15 -30 33.5 -44
t50.5 -14zM309 186q21 -8 73 -8q101 0 125 22q-21 43 -48.5 63t-71.5 20q-39 0 -69 -20t-30 -49q0 -20 21 -28z" />
    <glyph glyph-name="uniFEE3" unicode="&#x645;" horiz-adv-x="549" arabic-form="initial" 
d="M422.5 422q43.5 -29 67 -82.5t23.5 -123.5q0 -105 -54.5 -162.5t-158.5 -57.5q-121 0 -159 87q-22 -43 -56 -63t-84 -20l-18 3v177l18 3q35 0 55 13t41 57l20 41q32 64 80.5 110.5t125.5 46.5q56 0 99.5 -29zM380.5 187.5q22.5 8.5 22.5 27.5q-2 29 -25 48.5t-67 19.5
q-46 0 -78 -19.5t-47 -54.5q22 -30 113 -30q59 0 81.5 8.5z" />
    <glyph glyph-name="uniFEE4" unicode="&#x645;" horiz-adv-x="616" arabic-form="medial" 
d="M633 180v-177l-17 -3q-64 0 -101 26.5t-60 74.5q-19 -48 -61.5 -76.5t-111.5 -28.5q-107 0 -156 76q-12 -35 -41 -53.5t-84 -18.5l-18 3v177l18 3q68 0 92 14v3q0 75 29.5 132t79 88t107.5 31q53 0 90 -23t58.5 -54.5t46.5 -79.5l28 -53q16 -31 34 -44.5t50 -13.5z
M213.5 186q21.5 -8 72.5 -8q101 0 125 22q-21 43 -48.5 63t-70.5 20q-40 0 -70 -20t-30 -49q0 -20 21.5 -28z" />
    <glyph glyph-name="uniFEE6" unicode="&#x646;" horiz-adv-x="766" arabic-form="final" 
d="M783 180v-177l-17 -3q-66 0 -101 27q-17 -128 -97 -193t-228 -65q-165 0 -239 79.5t-74 249.5q0 53 8.5 98t19 76t10.5 28h129q-3 -7 -12 -34.5t-17.5 -69t-8.5 -84.5q0 -60 18.5 -94.5t61 -50t115.5 -15.5q72 0 113 17.5t59 53t18 94.5q0 53 -4 100t-12 112h131
q4 -34 10 -100q3 -19 12 -28.5t29 -13.5t59 -4zM271 476l89 86l89 -86l-89 -88z" />
    <glyph glyph-name="uniFEE7" unicode="&#x646;" horiz-adv-x="269" arabic-form="initial" 
d="M-17 3v177l17 3q60 0 84.5 28t24.5 91q0 54 -16 132h124q16 -80 16 -153q0 -128 -62 -204.5t-171 -76.5zM70 594l89 86l89 -86l-89 -88z" />
    <glyph glyph-name="uniFEE8" unicode="&#x646;" horiz-adv-x="359" arabic-form="medial" 
d="M376 180v-177l-17 -3q-76 0 -120 26.5t-59 81.5q-15 -55 -59.5 -81.5t-120.5 -26.5l-17 3v177l17 3q46 0 71 8.5t36.5 31t11.5 65.5l1 -1l-1 99h127v-98q0 -43 10.5 -65.5t34.5 -31t68 -8.5zM94 552l89 86l89 -86l-89 -88z" />
    <glyph glyph-name="uniFEE9" unicode="&#x647;" horiz-adv-x="501" arabic-form="isolated" 
d="M78.5 53q51.5 -53 160.5 -53q116 0 171 53t55 165q0 133 -57.5 207.5t-159.5 74.5q-104 0 -162.5 -74.5t-58.5 -207.5q0 -112 51.5 -165zM167 306.5q28 24.5 79 24.5q50 0 78 -24.5t28 -69.5q0 -29 -23.5 -41.5t-82.5 -12.5t-83 12t-24 42q0 45 28 69.5z" />
    <glyph glyph-name="uniFEEA" unicode="&#x647;" horiz-adv-x="526" arabic-form="final" 
d="M543 180v-177l-17 -3q-99 1 -148 44t-62 131q-26 -89 -129 -89q-85 0 -122.5 49.5t-37.5 140.5q0 61 24 106.5t86 82.5t174 66v58h122v-313q0 -39 7.5 -58t27 -27t58.5 -8zM311 284v104q-100 -23 -141 -42t-41 -41q0 -18 21.5 -26.5t67.5 -8.5q67 0 93 14z" />
    <glyph glyph-name="uniFEEB" unicode="&#x647;" horiz-adv-x="651" arabic-form="initial" 
d="M440 480q98 -50 136.5 -110.5t38.5 -139.5q0 -114 -52.5 -172t-148.5 -58q-114 0 -199 50q-32 -23 -79 -36.5t-136 -13.5l-17 3v177l17 3h77q-22 49 -22 118q0 148 93 187l21 79q173 -37 271 -87zM165 247.5q18 -21.5 61 -37.5q80 27 80 83q0 36 -19 57.5t-60 21.5
t-60.5 -21t-19.5 -54q0 -28 18 -49.5zM487 195.5q19 12.5 19 39.5q0 68 -111 109q3 -22 3 -47q0 -64 -37 -111q33 -3 67 -3q40 0 59 12.5z" />
    <glyph glyph-name="uniFEEC" unicode="&#x647;" horiz-adv-x="549" arabic-form="medial" 
d="M566 180v-177l-17 -3h-44q8 -26 8 -52q0 -92 -56 -145.5t-154 -53.5q-117 0 -178 62.5t-69 188.5h-55l-18 3v177l18 3h54q6 144 65 223t159 79q86 0 132 -64.5t46 -160.5q0 -43 -8 -77h100zM189.5 282.5q-26.5 -33.5 -30.5 -105.5h64q45 0 71 3t42 15t16 38
q0 38 -20.5 60.5t-64.5 22.5q-51 0 -77.5 -33.5zM381.5 -69.5q26.5 13.5 26.5 35.5q0 28 -29 40.5t-104 12.5h-115q7 -52 42.5 -77t107.5 -25q45 0 71.5 13.5z" />
    <glyph glyph-name="uniFEEE" unicode="&#x648;" horiz-adv-x="515" arabic-form="final" 
d="M532 177v-174l-17 -3h-71q-24 -116 -96 -183t-180 -67q-55 0 -96 14.5t-56 32.5v158q21 -12 58.5 -22t82.5 -10q76 0 126 23t67 66h-129q-89 0 -132 48t-43 135q0 67 23.5 124t70.5 91.5t114 34.5q95 0 144.5 -71.5t55.5 -190.5h61zM165 185.5q20 -7.5 76 -7.5h109v5
q0 40 -26.5 69t-80.5 29q-44 0 -71 -19.5t-27 -48.5q0 -20 20 -27.5z" />
    <glyph glyph-name="uniFEF0" unicode="&#x649;" horiz-adv-x="755" arabic-form="final" 
d="M772 180v-177l-17 -3h-50q7 -28 7 -53q0 -72 -41 -126.5t-118.5 -84.5t-184.5 -30q-173 0 -256 76t-85 238q0 49 8 93.5t17 72.5t12 35h129q-3 -7 -12 -34t-17 -66t-8 -76q2 -58 24 -91.5t70.5 -48.5t131.5 -15q108 0 165 18.5t57 49.5q0 25 -31 36.5t-106 17.5v178
q74 -7 238 -7h50z" />
    <glyph glyph-name="uniFEF2" unicode="&#x64a;" horiz-adv-x="755" arabic-form="final" 
d="M772 180v-177l-17 -3h-50q7 -28 7 -53q0 -72 -41 -126.5t-118.5 -84.5t-184.5 -30q-173 0 -256 76t-85 238q0 49 8 93.5t17 72.5t12 35h129q-3 -7 -12 -34t-17 -66t-8 -76q2 -58 24 -91.5t70.5 -48.5t131.5 -15q108 0 165 18.5t57 49.5q0 25 -31 36.5t-106 17.5v178
q74 -7 238 -7h50zM430 -502l-63 63l-63 -63l-74 77l74 76l63 -62l63 62l75 -76z" />
    <glyph glyph-name="uniFEF3" unicode="&#x64a;" horiz-adv-x="269" arabic-form="initial" 
d="M171 76.5q-62 -76.5 -171 -76.5l-17 3v177l17 3q60 0 84.5 28t24.5 91q0 54 -16 132h124q16 -80 16 -153q0 -128 -62 -204.5zM134 -59l71 -72l-71 -73l-60 60l-60 -60l-70 73l70 72l60 -59z" />
    <glyph glyph-name="uniFEF4" unicode="&#x64a;" horiz-adv-x="359" arabic-form="medial" 
d="M376 180v-177l-17 -3q-76 0 -120 26.5t-59 81.5q-15 -55 -59.5 -81.5t-120.5 -26.5l-17 3v177l17 3q46 0 71 8.5t36.5 31t11.5 65.5l1 -1l-1 99h127v-98q0 -43 10.5 -65.5t34.5 -31t68 -8.5zM242 -215l-63 63l-63 -63l-74 77l74 76l63 -62l63 62l75 -76z" />
    <glyph glyph-name=".notdef" horiz-adv-x="306" 
 />
    <glyph glyph-name=".null" 
 />
    <glyph glyph-name="nonmarkingreturn" unicode="&#xd;" horiz-adv-x="261" 
 />
    <glyph glyph-name="space" unicode=" " horiz-adv-x="200" 
 />
    <glyph glyph-name="exclam" unicode="!" horiz-adv-x="273" 
d="M68 748h137v-526h-137v526zM46 76l90 89l91 -89l-91 -91z" />
    <glyph glyph-name="quotedbl" unicode="&#x22;" horiz-adv-x="477" 
d="M67 488l-16 267h161l-16 -267h-129zM281 488l-16 267h161l-16 -267h-129z" />
    <glyph glyph-name="numbersign" unicode="#" horiz-adv-x="637" 
d="M238 163l-21 -163h-128l21 163h-71v121h87l25 193h-74v121h90l21 157h127l-21 -157h106l21 157h127l-21 -157h71v-121h-87l-25 -193h74v-121h-89l-21 -163h-128l21 163h-105zM359 284l25 193h-106l-25 -193h106z" />
    <glyph glyph-name="dollar" unicode="$" horiz-adv-x="622" 
d="M262 130v181l-35 5q-184 26 -184 215q0 102 60 160t159 72v102h107v-99q55 -3 106 -16t83 -35v-157q-41 29 -90 46t-99 22v-179l18 -2q102 -13 152 -70.5t50 -148.5q0 -102 -60 -159.5t-160 -71.5v-120h-107v115q-117 5 -206 54v157q95 -60 206 -71zM262 616
q-52 -19 -52 -74q0 -31 12.5 -49t39.5 -28v151zM369 138q52 20 52 79q0 32 -12 49.5t-40 26.5v-155z" />
    <glyph glyph-name="percent" unicode="%" horiz-adv-x="975" 
d="M367.5 372.5q-55.5 -47.5 -140.5 -47.5t-140 47t-55 135v75q0 59 26 101.5t70.5 64.5t98.5 22q55 0 99.5 -22t70.5 -64.5t26 -101.5v-75q0 -87 -55.5 -134.5zM771 755l-423 -755h-144l424 755h143zM285 644q-19 23 -58 23q-37 0 -56.5 -23.5t-19.5 -60.5v-74
q0 -36 19.5 -59t57.5 -23t57 22.5t19 59.5v74q0 38 -19 61zM887.5 33.5q-55.5 -47.5 -140.5 -47.5t-140 47t-55 135v75q0 59 26 101.5t70.5 64.5t98.5 22q55 0 99.5 -22t70.5 -64.5t26 -101.5v-75q0 -87 -55.5 -134.5zM805 305q-19 23 -58 23q-37 0 -56.5 -23.5t-19.5 -60.5
v-74q0 -36 19.5 -59t57.5 -23q39 0 57.5 22.5t18.5 59.5v74q0 38 -19 61z" />
    <glyph glyph-name="ampersand" unicode="&#x26;" horiz-adv-x="760" 
d="M111.5 493.5q-16.5 37.5 -16.5 78.5q0 63 33.5 107.5t88.5 67t120 22.5q71 0 123 -22.5t79.5 -62.5t27.5 -93q0 -108 -146 -192l-27 -15l136 -145q37 65 38 145h148q0 -64 -24.5 -126t-69.5 -116l134 -142h-190l-49 50q-101 -65 -220 -65q-70 0 -128.5 22.5t-94 68
t-35.5 113.5q0 57 30 104.5t91 81.5l29 16l-20 21q-41 44 -57.5 81.5zM395.5 521.5q17.5 26.5 17.5 57.5q0 37 -21.5 55t-60.5 18q-41 0 -61 -20.5t-20 -50.5q0 -23 12.5 -46t39.5 -53l18 -19l27 15q31 17 48.5 43.5zM430 140l-164 170l-6 -3q-29 -17 -44.5 -42.5
t-15.5 -53.5q0 -41 33.5 -69t90.5 -28t106 26z" />
    <glyph glyph-name="quotesingle" unicode="'" horiz-adv-x="263" 
d="M67 488l-16 267h161l-16 -267h-129z" />
    <glyph glyph-name="parenleft" unicode="(" horiz-adv-x="347" 
d="M71 810.5q20 47.5 61.5 76.5t102.5 29h55v-118h-10q-41 0 -60.5 -27.5t-19.5 -75.5v-666q0 -48 19.5 -75.5t60.5 -27.5h10v-118h-55q-101 0 -142.5 58.5t-41.5 149.5v692q0 55 20 102.5z" />
    <glyph glyph-name="parenright" unicode=")" horiz-adv-x="347" 
d="M-51 16q0 -91 -41.5 -149.5t-142.5 -58.5h-55v118h10q41 0 60.5 27.5t19.5 75.5v666q0 48 -19.5 75.5t-60.5 27.5h-10v118h55q61 0 102.5 -29t61.5 -76.5t20 -102.5v-692z" />
    <glyph glyph-name="asterisk" unicode="*" horiz-adv-x="509" 
d="M194 755h117v-132l122 42l43 -99l-122 -49l88 -114l-92 -67l-98 122l-96 -121l-91 68l90 112l-118 47l41 103l116 -42v130z" />
    <glyph glyph-name="plus" unicode="+" horiz-adv-x="513" 
d="M195 448v156h123v-156h155v-121h-155v-157h-123v157h-156v121h156z" />
    <glyph glyph-name="comma" unicode="," horiz-adv-x="264" 
d="M203 120l-28 -137h-96l22 137h102z" />
    <glyph glyph-name="hyphen" unicode="-" horiz-adv-x="407" 
d="M348 327v-121h-288v121h288z" />
    <glyph glyph-name="period" unicode="." horiz-adv-x="271" 
d="M29 80l100 99l101 -99l-101 -101z" />
    <glyph glyph-name="slash" unicode="/" horiz-adv-x="524" 
d="M502 798l-346 -961h-135l347 961h134z" />
    <glyph glyph-name="zero" unicode="0" horiz-adv-x="645" 
d="M125 696q70 73 204 73q133 0 197 -72.5t64 -221.5v-195q0 -150 -69 -222.5t-200 -72.5q-132 0 -199 71.5t-67 223.5v195q0 148 70 221zM231 190.5q8 -30.5 29.5 -45t62.5 -14.5q57 0 78 31.5t21 110.5v209q0 75 -21.5 108t-80.5 33q-54 0 -75.5 -31t-21.5 -110v-209
q0 -52 8 -82.5z" />
    <glyph glyph-name="one" unicode="1" horiz-adv-x="423" 
d="M208 755h138v-755h-168v567l-151 -78v163z" />
    <glyph glyph-name="two" unicode="2" horiz-adv-x="593" 
d="M52 717q86 53 214 53q124 0 196 -54t72 -159q0 -65 -29.5 -122t-86.5 -117l-164 -176h297v-142h-505v117l251 278q65 71 65 132q0 93 -125 93q-45 0 -89.5 -13.5t-95.5 -42.5v153z" />
    <glyph glyph-name="three" unicode="3" horiz-adv-x="582" 
d="M406 398q61 -21 95.5 -67.5t34.5 -116.5q0 -65 -32.5 -116.5t-98 -82t-160.5 -30.5q-55 0 -106.5 10.5t-89.5 32.5v152q55 -28 95 -38.5t89 -10.5q136 0 136 96q0 52 -33.5 73t-106.5 21h-61v127h60q64 0 99 25t35 69q0 38 -28 60t-91 22q-101 0 -185 -62v151
q44 27 102 41.5t115 14.5q80 0 136 -27t84 -73t28 -103q0 -116 -117 -168z" />
    <glyph glyph-name="four" unicode="4" horiz-adv-x="605" 
d="M27 137v135l211 483h170l-210 -481h149v173h159v-173h73v-137h-73v-137h-159v137h-320z" />
    <glyph glyph-name="five" unicode="5" horiz-adv-x="583" 
d="M144.5 -4.5q-47.5 9.5 -88.5 30.5v148q47 -22 91 -32.5t92 -10.5q139 0 139 105q0 57 -36 80t-100 23q-94 0 -172 -39v455h443v-146h-296v-136q31 6 70 6q127 0 192.5 -63t65.5 -169q0 -87 -39 -145.5t-105.5 -87t-148.5 -28.5q-60 0 -107.5 9.5z" />
    <glyph glyph-name="six" unicode="6" horiz-adv-x="604" 
d="M160 18q-62 33 -94.5 89t-32.5 123q0 52 21 102.5t66 136.5l142 286h180l-144 -279q14 2 41 2q73 -2 127.5 -33.5t84.5 -86t30 -124.5q0 -71 -33.5 -127.5t-96 -89t-145.5 -32.5q-84 0 -146 33zM228.5 317q-26.5 -33 -26.5 -83q0 -51 29.5 -80.5t75.5 -29.5
q50 0 76.5 33.5t26.5 79.5q0 47 -27 80t-77 33q-51 0 -77.5 -33z" />
    <glyph glyph-name="seven" unicode="7" horiz-adv-x="533" 
d="M332 609h-309v146h491v-105l-251 -650h-172z" />
    <glyph glyph-name="eight" unicode="8" horiz-adv-x="633" 
d="M170.5 15q-61.5 30 -93.5 83.5t-32 121.5q0 61 26.5 105t76.5 70q-40 27 -61.5 67t-21.5 91q0 58 27.5 107t84.5 79t141 30t140 -30.5t82.5 -79.5t26.5 -106q0 -51 -22 -91.5t-62 -66.5q105 -55 105 -176q0 -68 -33 -121t-94.5 -83t-144.5 -30q-84 0 -145.5 30z
M249.5 607q-23.5 -24 -23.5 -65q0 -44 26 -67.5t66 -23.5q42 0 66 25t24 67t-25 65t-66 23q-44 0 -67.5 -24zM242 300q-26 -31 -26 -74q0 -46 29 -74t73 -28q49 0 75.5 32.5t26.5 72.5t-27 71t-76 31t-75 -31z" />
    <glyph glyph-name="nine" unicode="9" horiz-adv-x="603" 
d="M443.5 735.5q61.5 -34.5 94.5 -91.5t33 -125q0 -46 -17.5 -90t-53.5 -113l-12 -22l-146 -293h-180l144 278q-26 -2 -39 -2q-74 2 -129 34t-85 86.5t-30 124.5q0 71 33.5 127t96 88.5t145.5 32.5q84 0 145.5 -34.5zM374.5 438.5q26.5 33.5 26.5 82.5q0 52 -29 81t-75 29
q-50 0 -76.5 -33.5t-26.5 -78.5q0 -48 27 -81t77 -33t76.5 33.5z" />
    <glyph glyph-name="colon" unicode=":" horiz-adv-x="313" 
d="M96 88l100 99l101 -99l-101 -101zM96 381l100 99l101 -99l-101 -101z" />
    <glyph glyph-name="semicolon" unicode=";" horiz-adv-x="306" 
d="M243 589v-164h-165v164h165zM239 151l-51 -278h-149l46 278h154z" />
    <glyph glyph-name="less" unicode="&#x3c;" horiz-adv-x="502" 
d="M33 441l401 225v-147l-249 -133l249 -127v-156l-401 220v118z" />
    <glyph glyph-name="equal" unicode="=" horiz-adv-x="580" 
d="M518 578v-121h-455v121h455zM518 328v-121h-455v121h455z" />
    <glyph glyph-name="greater" unicode="&#x3e;" horiz-adv-x="502" 
d="M68 259l248 127l-248 133v147l401 -225v-118l-401 -220v156z" />
    <glyph glyph-name="question" unicode="?" horiz-adv-x="564" 
d="M343 228h-149v30q0 45 14 77.5t34 53.5t52 48q39 32 58 57.5t19 62.5q0 40 -23.5 62t-68.5 22q-52 0 -79.5 -28t-27.5 -77v-18h-143v17q0 113 70 173.5t182 60.5q114 0 183 -56.5t69 -154.5q0 -46 -15.5 -79.5t-37 -55.5t-57.5 -51q-40 -32 -60 -56.5t-20 -60.5v-27z
M348 148v-148h-154v148h154z" />
    <glyph glyph-name="at" unicode="@" horiz-adv-x="777" 
d="M563 149q-21 -32 -53.5 -47.5t-80.5 -15.5q-82 0 -126.5 41.5t-44.5 117.5q0 161 205 161h100v6q0 71 -43.5 102.5t-125.5 31.5q-103 0 -147.5 -40.5t-44.5 -118.5v-234q0 -107 50 -149.5t139 -42.5h101v-122h-125q-137 -2 -225.5 73.5t-88.5 243.5v231q0 84 40 148
t116.5 99.5t183.5 35.5q93 0 165.5 -27t113 -78t40.5 -121v-344h-149v49zM563 311h-70q-49 0 -68 -13.5t-19 -46.5q0 -29 16 -43t52 -14q35 0 58 15t31 52v50z" />
    <glyph glyph-name="A" unicode="A" horiz-adv-x="702" 
d="M444 755l257 -755h-189l-44 146h-259l-47 -146h-171l276 755h177zM429 276l-85 282l-92 -282h177z" />
    <glyph glyph-name="B" unicode="B" horiz-adv-x="695" 
d="M78 755h307q126 0 188.5 -52t62.5 -146q0 -61 -27 -99t-82 -62q58 -18 89.5 -64t31.5 -117q0 -95 -60 -155t-194 -60h-316v755zM242 446h123q50 0 71.5 21.5t21.5 61.5q0 44 -25.5 66t-73.5 22h-117v-171zM242 139h127q109 0 109 85q0 47 -26.5 69.5t-79.5 22.5h-130
v-177z" />
    <glyph glyph-name="C" unicode="C" horiz-adv-x="623" 
d="M501 608q-53 15 -107 15q-177 0 -177 -196v-106q0 -102 47 -146t132 -44q47 0 99 9.5t88 31.5v-148q-36 -20 -92.5 -29.5t-112.5 -9.5q-100 0 -174.5 39t-115 116t-40.5 188v92q0 112 40.5 190.5t115.5 118.5t176 40q61 0 118.5 -12.5t86.5 -31.5v-158q-31 26 -84 41z
" />
    <glyph glyph-name="D" unicode="D" horiz-adv-x="721" 
d="M673 328q0 -164 -84 -246t-229 -82h-282v755h282q144 0 228.5 -85t84.5 -250v-92zM246 146h114q75 0 109.5 39.5t34.5 135.5v106q0 87 -35.5 135t-108.5 48h-114v-464z" />
    <glyph glyph-name="E" unicode="E" horiz-adv-x="641" 
d="M78 0v755h505v-139h-337v-166h301v-138h-301v-173h349v-139h-517z" />
    <glyph glyph-name="F" unicode="F" horiz-adv-x="616" 
d="M246 291v-291h-168v755h505v-139h-337v-187h301v-138h-301z" />
    <glyph glyph-name="G" unicode="G" horiz-adv-x="709" 
d="M535.5 -2q-61.5 -13 -136.5 -13q-155 0 -252.5 83t-97.5 260v92q0 120 47.5 198t127 114.5t178.5 36.5q66 0 120.5 -12t104.5 -36v-152q-48 29 -98.5 42t-111.5 13q-90 0 -145 -47t-55 -150v-106q0 -102 50.5 -146t134.5 -44q49 0 83 7v160h-130v140h298v-401
q-56 -26 -117.5 -39z" />
    <glyph glyph-name="H" unicode="H" horiz-adv-x="786" 
d="M540 0v318h-294v-318h-168v755h168v-290h294v290h168v-755h-168z" />
    <glyph glyph-name="I" unicode="I" horiz-adv-x="324" 
d="M78 0v755h168v-755h-168z" />
    <glyph glyph-name="J" unicode="J" horiz-adv-x="514" 
d="M48 609v146h392v-560q0 -67 -33 -114.5t-88.5 -71.5t-122.5 -24q-42 0 -83.5 9.5t-67.5 22.5v137q24 -11 58 -18.5t68 -7.5q51 0 76 20.5t25 72.5v388h-224z" />
    <glyph glyph-name="K" unicode="K" horiz-adv-x="695" 
d="M321 450l180 305h180l-215 -357l222 -398h-194l-163 312h-85v-312h-168v755h168v-305h75z" />
    <glyph glyph-name="L" unicode="L" horiz-adv-x="558" 
d="M78 0v755h168v-616h299v-139h-467z" />
    <glyph glyph-name="M" unicode="M" horiz-adv-x="869" 
d="M237 246v-246h-159v755h159l198 -390l196 390h160v-755h-160v237l5 237l-137 -284h-133l-134 277z" />
    <glyph glyph-name="N" unicode="N" horiz-adv-x="779" 
d="M237 272v-272h-159v755h159l308 -487l-4 232v255h160v-755h-160l-308 489z" />
    <glyph glyph-name="O" unicode="O" horiz-adv-x="731" 
d="M89 615q40 77 111 115.5t165 38.5t165.5 -39t111.5 -116t40 -187v-106q0 -110 -40 -185.5t-111.5 -113t-165.5 -37.5t-165 37.5t-111 112.5t-40 186v106q0 111 40 188zM251 173.5q33 -50.5 113 -50.5q81 0 115 50.5t34 140.5v120q0 94 -33.5 145.5t-115.5 51.5
q-76 0 -111 -53t-35 -144v-120q0 -90 33 -140.5z" />
    <glyph glyph-name="P" unicode="P" horiz-adv-x="667" 
d="M246 240v-240h-168v755h293q84 0 145 -34t93 -92.5t32 -130.5q0 -75 -32 -133.5t-92.5 -91.5t-141.5 -33h-129zM246 380h94q69 0 100.5 29t31.5 86q0 63 -31.5 91t-103.5 28h-91v-234z" />
    <glyph glyph-name="Q" unicode="Q" horiz-adv-x="731" 
d="M89 615q40 77 111 115.5t165 38.5t165.5 -39t111.5 -116t40 -187v-106q0 -104 -35.5 -177t-100.5 -113l54 -116h-122l-36 77q-42 -7 -77 -7q-94 0 -165 37.5t-111 112.5t-40 186v106q0 111 40 188zM479 174q34 48 34 140v120q0 94 -33.5 145.5t-115.5 51.5
q-76 0 -111 -53t-35 -144v-120q0 -90 33 -140.5t113 -50.5h17l-69 150h121z" />
    <glyph glyph-name="R" unicode="R" horiz-adv-x="692" 
d="M659 0h-186l-109 266h-118v-266h-168v755h307q83 0 140.5 -32t86.5 -86.5t29 -120.5q0 -71 -29.5 -128t-86.5 -89zM246 402h94q70 0 101 26t31 82q0 61 -33.5 84t-109.5 23h-83v-215z" />
    <glyph glyph-name="S" unicode="S" horiz-adv-x="637" 
d="M178.5 147.5q64.5 -18.5 128.5 -18.5q62 0 92.5 21.5t30.5 66.5q0 42 -24 60.5t-82 26.5l-90 12q-188 26 -188 215q0 120 82 178.5t207 58.5q64 0 129 -13t103 -40v-157q-46 33 -105.5 51t-116.5 18q-66 0 -98.5 -20.5t-32.5 -64.5q0 -40 23 -59.5t74 -26.5l82 -11
q103 -13 154 -70.5t51 -148.5q0 -122 -85 -179.5t-217 -57.5q-137 0 -237 55v157q55 -35 119.5 -53.5z" />
    <glyph glyph-name="T" unicode="T" horiz-adv-x="636" 
d="M404 615v-615h-168v615h-222v140h609v-140h-219z" />
    <glyph glyph-name="U" unicode="U" horiz-adv-x="761" 
d="M691 307q0 -164 -83.5 -243t-229.5 -79q-145 0 -226 79t-81 243v448h169v-434q0 -101 31.5 -146t107.5 -45q70 0 107 43t37 148v434h168v-448z" />
    <glyph glyph-name="V" unicode="V" horiz-adv-x="693" 
d="M252 0l-248 755h187l160 -556l171 556h178l-271 -755h-177z" />
    <glyph glyph-name="W" unicode="W" horiz-adv-x="1038" 
d="M661 0l-80 273l-61 242l-66 -239l-84 -276h-170l-192 755h179l110 -549l148 549h162l145 -549l115 549h171l-208 -755h-169z" />
    <glyph glyph-name="X" unicode="X" horiz-adv-x="677" 
d="M16 755h180l147 -255l146 255h175l-228 -368l241 -387h-188l-150 269l-157 -269h-184l245 383z" />
    <glyph glyph-name="Y" unicode="Y" horiz-adv-x="651" 
d="M412 0h-168v271l-249 484h178l160 -334l149 334h167l-237 -483v-272z" />
    <glyph glyph-name="Z" unicode="Z" horiz-adv-x="645" 
d="M225 140h377v-140h-562v140l376 475h-369v140h555v-140z" />
    <glyph glyph-name="bracketleft" unicode="[" horiz-adv-x="345" 
d="M312 916v-118h-90v-872h90v-118h-239v1108h239z" />
    <glyph glyph-name="backslash" unicode="\" horiz-adv-x="524" 
d="M368 -163l-346 961h134l347 -961h-135z" />
    <glyph glyph-name="bracketright" unicode="]" horiz-adv-x="345" 
d="M33 -192v118h90v872h-90v118h239v-1108h-239z" />
    <glyph glyph-name="asciicircum" unicode="^" horiz-adv-x="608" 
d="M299 596l-107 -199h-160l194 358h150l200 -358h-168z" />
    <glyph glyph-name="underscore" unicode="_" horiz-adv-x="496" 
d="M28 -77h440v-101h-440v101z" />
    <glyph glyph-name="grave" unicode="`" horiz-adv-x="500" 
d="M413 622h-127l-99 153h138z" />
    <glyph glyph-name="a" unicode="a" horiz-adv-x="595" 
d="M372 61q-23 -39 -60 -57.5t-92 -18.5q-86 0 -135 44t-49 118q0 89 55 131.5t169 42.5h111q-1 37 -10.5 57.5t-33 30t-68.5 9.5q-54 0 -99.5 -13t-93.5 -45v144q90 59 224 59q125 0 185 -51.5t60 -163.5v-348h-163v61zM292 221q-57 0 -78 -14.5t-21 -49.5q0 -58 75 -58
q48 0 76 25.5t28 89.5v7h-80z" />
    <glyph glyph-name="b" unicode="b" horiz-adv-x="645" 
d="M228 755v-264q51 72 151 72q109 0 165.5 -63.5t56.5 -185.5v-80q0 -249 -222 -249q-99 0 -151 76v-61h-163v755h163zM228 229q0 -55 27.5 -87.5t75.5 -32.5t74 30t26 90v90q0 60 -27 90t-75 30q-44 0 -72 -28.5t-29 -84.5v-97z" />
    <glyph glyph-name="c" unicode="c" horiz-adv-x="534" 
d="M493 392q-72 41 -158 41q-123 0 -123 -124v-74q0 -59 33 -89.5t91 -30.5q83 0 153 41v-128q-62 -43 -174 -43q-136 0 -204 65.5t-68 190.5v66q0 122 72 189t208 67q101 0 170 -37v-134z" />
    <glyph glyph-name="d" unicode="d" horiz-adv-x="644" 
d="M579 755v-755h-163v61q-52 -76 -150 -76q-222 0 -222 249v80q0 122 56.5 185.5t165.5 63.5q98 0 150 -71v263h163zM214 229q0 -60 26 -90t74 -30t75 32.5t27 87.5v112q-5 48 -32 73t-68 25q-48 0 -75 -30t-27 -90v-90z" />
    <glyph glyph-name="e" unicode="e" horiz-adv-x="598" 
d="M248.5 139.5q32.5 -23.5 96.5 -23.5q57 0 102 8t97 34v-121q-52 -29 -103.5 -40.5t-124.5 -11.5q-136 0 -204.5 65t-68.5 191v66q0 122 69 189t186 67q118 0 187.5 -65t69.5 -188v-91h-345q6 -56 38.5 -79.5zM389 322q-2 61 -23.5 89t-67.5 28q-43 0 -65 -29t-24 -88h180
z" />
    <glyph glyph-name="f" unicode="f" horiz-adv-x="396" 
d="M97 549v39q0 88 52.5 135t143.5 47q24 0 51.5 -3t46.5 -8v-118q-37 7 -51 7q-40 0 -60 -16.5t-20 -59.5v-23h119v-123h-119v-426h-163v426h-62v123h62z" />
    <glyph glyph-name="g" unicode="g" horiz-adv-x="644" 
d="M496.5 -165q-82.5 -69 -227.5 -69q-64 0 -106 9.5t-89 27.5v136q44 -20 95 -29.5t101 -9.5q77 0 111.5 35.5t34.5 104.5v38q-52 -75 -150 -75q-222 0 -222 249v62q0 122 56.5 185.5t165.5 63.5q98 0 150 -71v57h163v-512q0 -133 -82.5 -202zM214 247q0 -60 26 -90t74 -30
q46 0 73 30.5t29 83.5v100q-5 48 -32 73t-68 25q-48 0 -75 -30t-27 -90v-72z" />
    <glyph glyph-name="h" unicode="h" horiz-adv-x="646" 
d="M228 755v-279q56 87 169 87q92 0 140 -55.5t48 -160.5v-347h-163v290q0 66 -22.5 97.5t-71.5 31.5q-100 0 -100 -135v-284h-163v755h163z" />
    <glyph glyph-name="i" unicode="i" horiz-adv-x="293" 
d="M229 771v-141h-165v141h165zM228 549v-549h-163v549h163z" />
    <glyph glyph-name="j" unicode="j" horiz-adv-x="301" 
d="M237 771v-141h-165v141h165zM43 -234q-54 0 -87 11v132q32 -7 53 -7q33 0 48.5 18.5t15.5 63.5v565h163v-576q0 -207 -193 -207z" />
    <glyph glyph-name="k" unicode="k" horiz-adv-x="587" 
d="M228 755v-415h60l105 209h185l-166 -250l171 -299h-184l-112 218h-59v-218h-163v755h163z" />
    <glyph glyph-name="l" unicode="l" horiz-adv-x="338" 
d="M225 755v-554q0 -48 10.5 -65.5t41.5 -17.5q29 0 49 9v-130q-45 -12 -95 -12q-169 0 -169 160v610h163z" />
    <glyph glyph-name="m" unicode="m" horiz-adv-x="983" 
d="M228 549v-71q27 41 67 63t99 22q128 0 165 -109q27 52 71 80.5t111 28.5q181 0 181 -216v-347h-163v290q0 68 -19.5 98.5t-67.5 30.5t-71.5 -30.5t-25.5 -91.5v-297h-163v290q0 68 -19.5 98.5t-67.5 30.5t-71.5 -30.5t-25.5 -91.5v-297h-163v549h163z" />
    <glyph glyph-name="n" unicode="n" horiz-adv-x="646" 
d="M228 549v-73q56 87 169 87q92 0 140 -55.5t48 -160.5v-347h-163v290q0 66 -22.5 97.5t-71.5 31.5q-100 0 -100 -135v-284h-163v549h163z" />
    <glyph glyph-name="o" unicode="o" horiz-adv-x="623" 
d="M116 498.5q74 64.5 195 64.5t195.5 -64.5t74.5 -191.5v-66q0 -127 -74.5 -191.5t-195.5 -64.5t-195 64.5t-74 191.5v66q0 127 74 191.5zM236 141q25 -32 75 -32t75.5 32t25.5 102v62q0 70 -25.5 102t-75.5 32t-75 -32t-25 -102v-62q0 -70 25 -102z" />
    <glyph glyph-name="p" unicode="p" horiz-adv-x="645" 
d="M228 549v-58q51 72 151 72q109 0 165.5 -63.5t56.5 -185.5v-80q0 -127 -59.5 -188t-169.5 -61q-94 0 -144 64v-271h-163v771h163zM228 223q2 -53 29 -83.5t74 -30.5q48 0 74 30t26 90v90q0 60 -27 90t-75 30q-44 0 -72 -28.5t-29 -84.5v-103z" />
    <glyph glyph-name="q" unicode="q" horiz-adv-x="644" 
d="M579 549v-771h-163v283q-52 -76 -150 -76q-222 0 -222 249v80q0 122 56.5 185.5t165.5 63.5q98 0 150 -71v57h163zM214 229q0 -60 26 -90t74 -30t75 32.5t27 87.5v112q-5 48 -32 73t-68 25q-48 0 -75 -30t-27 -90v-90z" />
    <glyph glyph-name="r" unicode="r" horiz-adv-x="417" 
d="M228 549v-90q27 48 69.5 76t98.5 28v-165q-15 3 -31 3q-66 0 -101 -47t-36 -129v-225h-163v549h163z" />
    <glyph glyph-name="s" unicode="s" horiz-adv-x="550" 
d="M266 110q44 0 69.5 12.5t25.5 37.5q0 24 -17.5 34.5t-55.5 13.5l-79 9q-168 20 -168 164q0 63 34.5 104t89.5 59.5t117 18.5q57 0 113.5 -11t89.5 -31v-139q-44 26 -97 41.5t-104 15.5q-45 0 -68.5 -12.5t-23.5 -35.5q0 -22 17.5 -31.5t57.5 -13.5l72 -7q85 -8 130 -47
t45 -117q0 -98 -73.5 -143t-178.5 -45q-54 0 -112.5 11t-98.5 32v129q98 -49 215 -49z" />
    <glyph glyph-name="t" unicode="t" horiz-adv-x="427" 
d="M102 549v152h163v-152h126v-123h-126v-230q0 -44 17 -60t54 -16q28 0 59 6v-130q-19 -5 -49 -8t-55 -3q-89 0 -139 47t-50 135v259h-82v123h82z" />
    <glyph glyph-name="u" unicode="u" horiz-adv-x="644" 
d="M416 0v70q-27 -41 -67 -63t-98 -22q-92 0 -141 55.5t-49 160.5v348h163v-294q0 -66 22.5 -95.5t71.5 -29.5q50 0 74 33t24 101v285h163v-549h-163z" />
    <glyph glyph-name="v" unicode="v" horiz-adv-x="589" 
d="M213 0l-209 549h169l126 -382l117 382h167l-204 -549h-166z" />
    <glyph glyph-name="w" unicode="w" horiz-adv-x="856" 
d="M530 0l-100 359l-107 -359h-166l-146 549h158l78 -383l115 383h139l113 -381l77 381h153l-144 -549h-170z" />
    <glyph glyph-name="x" unicode="x" horiz-adv-x="565" 
d="M17 549h169l99 -159l101 159h157l-174 -258l195 -291h-179l-104 170l-108 -170h-169l192 277z" />
    <glyph glyph-name="y" unicode="y" horiz-adv-x="594" 
d="M226 -27l-220 576h171l125 -382l118 382h169l-197 -549h-1l-72 -222h-163z" />
    <glyph glyph-name="z" unicode="z" horiz-adv-x="545" 
d="M241 124h264v-124h-465v109l272 316h-270v124h462v-108z" />
    <glyph glyph-name="braceleft" unicode="{" horiz-adv-x="380" 
d="M91.5 271.5q-19.5 27.5 -60.5 27.5h-10v125h10q41 0 60.5 27.5t19.5 75.5v182q0 87 41.5 143.5t131.5 56.5h66v-111h-10q-41 0 -60.5 -27.5t-19.5 -75.5v-212q0 -35 -18 -66.5t-48 -57.5q30 -28 48 -64.5t18 -78.5v-186q0 -48 19.5 -75.5t60.5 -27.5h10v-111h-67
q-90 0 -131 53.5t-41 140.5v186q0 48 -19.5 75.5z" />
    <glyph glyph-name="bar" unicode="|" horiz-adv-x="283" 
d="M74 -93v891h134v-891h-134z" />
    <glyph glyph-name="braceright" unicode="}" horiz-adv-x="380" 
d="M229 -130.5q-41 -53.5 -131 -53.5h-67v111h10q41 0 60.5 27.5t19.5 75.5v186q0 42 17.5 78.5t47.5 64.5q-30 25 -47.5 57t-17.5 67v212q0 48 -19.5 75.5t-60.5 27.5h-10v111h66q90 0 131.5 -56.5t41.5 -143.5v-182q0 -48 19.5 -75.5t60.5 -27.5h10v-125h-15
q-39 -1 -57 -28.5t-18 -74.5v-186q0 -87 -41 -140.5z" />
    <glyph glyph-name="asciitilde" unicode="~" horiz-adv-x="593" 
d="M64 340q68 61 129 61q24 0 50 -8t63 -24q37 -15 59 -22.5t43 -7.5q28 0 57 13.5t66 37.5v-125q-25 -25 -59.5 -43.5t-68.5 -18.5q-23 0 -49 8.5t-62 23.5q-38 16 -59 23t-40 7q-28 0 -58.5 -14t-70.5 -39v128z" />
    <glyph glyph-name="DEL" horiz-adv-x="252" 
 />
    <glyph glyph-name="exclamdown" unicode="&#xa1;" horiz-adv-x="291" 
d="M223 549v-148h-154v148h154zM221 -206h-152v506h152v-506z" />
    <glyph glyph-name="cent" unicode="&#xa2;" horiz-adv-x="548" 
d="M497 526v-134q-46 26 -100 36v-308q47 7 96 36v-128q-40 -27 -96 -37v-114h-113v109q-118 8 -177.5 73t-59.5 182v66q0 112 60.5 178t176.5 76v97h113v-100q54 -8 100 -32zM284 425q-68 -24 -68 -116v-74q0 -44 17.5 -72t50.5 -39v301z" />
    <glyph glyph-name="sterling" unicode="&#xa3;" horiz-adv-x="629" 
d="M45 0v138h90v179h-90v130h90v86q0 69 34 122.5t94 83.5t134 30q47 0 89.5 -10t69.5 -23v-142q-61 35 -137 35q-63 0 -93 -25.5t-30 -88.5v-68h193v-130h-193v-179h299v-138h-550z" />
    <glyph glyph-name="currency" unicode="&#xa4;" horiz-adv-x="644" 
d="M501 292l99 -112l-88 -77l-89 100q-46 -25 -105 -25q-57 0 -100 22l-86 -97l-87 77l93 106q-15 35 -15 81v38q0 41 14 77l-92 105l87 77l81 -92q47 28 105 28q62 0 110 -31l84 95l88 -77l-98 -111q12 -33 12 -71v-38q0 -39 -13 -75zM360.5 461q-15.5 16 -41.5 16t-42 -16
t-16 -42v-66q0 -25 16 -39t42 -14t41.5 14.5t15.5 38.5v66q0 26 -15.5 42z" />
    <glyph glyph-name="yen" unicode="&#xa5;" horiz-adv-x="712" 
d="M635 389v-114h-189v-62h189v-114h-189v-99h-168v99h-199v114h199v61l-1 1h-198v114h139l-189 366h178l160 -332l149 332h167l-181 -366h133z" />
    <glyph glyph-name="brokenbar" unicode="&#xa6;" horiz-adv-x="279" 
d="M72 441v357h134v-357h-134zM72 -93v357h134v-357h-134z" />
    <glyph glyph-name="section" unicode="&#xa7;" horiz-adv-x="599" 
d="M551 19q0 -66 -36 -111t-96.5 -67.5t-133.5 -22.5q-58 0 -122 12t-103 37v141q46 -31 103.5 -48t121.5 -17q66 0 93.5 19t27.5 57q0 34 -22.5 46.5t-82.5 19.5l-48 6q-95 11 -146 57.5t-51 122.5q0 96 87 141q-44 25 -68 65t-24 91q0 64 36.5 109.5t97.5 69.5t132 24
q54 0 113.5 -11t95.5 -36v-141q-45 31 -99 47t-110 16q-113 0 -113 -75q0 -35 24.5 -52.5t70.5 -23.5l47 -6q105 -14 154.5 -56.5t49.5 -119.5q0 -102 -86 -147q87 -49 87 -147zM305 370q-63 0 -88 -20.5t-25 -59.5q0 -36 24 -55.5t81 -26.5l13 -2q103 6 103 87
q0 37 -24 53.5t-77 23.5h-7z" />
    <glyph glyph-name="dieresis" unicode="&#xa8;" horiz-adv-x="478" 
d="M211 761v-131h-143v131h143zM416 761v-131h-142v131h142z" />
    <glyph glyph-name="copyright" unicode="&#xa9;" horiz-adv-x="865" 
d="M628 716q90 -53 143 -143t53 -196t-53 -196t-143 -142.5t-196 -52.5t-196 52.5t-142.5 142.5t-52.5 196t52.5 196t142.5 143t196 53t196 -53zM592 102.5q71 42.5 111 115t40 157.5q0 86 -38.5 158t-109 114.5t-162.5 42.5q-91 0 -161.5 -42.5t-109.5 -114.5t-39 -158
q0 -85 40 -157.5t110.5 -115t159.5 -42.5q88 0 159 42.5zM507 494q-31 8 -60 8q-47 0 -67.5 -23.5t-20.5 -72.5v-60q0 -52 23 -72t68 -20q22 0 53 5.5t50 16.5v-99q-18 -10 -53.5 -15.5t-64.5 -5.5q-88 0 -138.5 49.5t-50.5 144.5v52q0 95 50.5 146t139.5 51q34 0 69.5 -6.5
t49.5 -16.5v-105q-17 15 -48 23z" />
    <glyph glyph-name="ordfeminine" unicode="&#xaa;" horiz-adv-x="501" 
d="M307 414q-34 -53 -113 -53q-65 0 -102 31.5t-37 87.5q0 119 169 119h83q-2 36 -19 49.5t-65 13.5q-41 0 -75 -9t-70 -31v105q65 42 168 42q94 0 139.5 -36t45.5 -115v-246h-124v42zM247 527q-40 0 -56.5 -10t-16.5 -32q0 -21 13.5 -31t42.5 -10q36 0 56.5 17.5t20.5 61.5
v4h-60zM439 302v-95h-371v95h371z" />
    <glyph glyph-name="guillemotleft" unicode="&#xab;" horiz-adv-x="538" 
d="M290 66h-139l-120 215l123 209h137l-119 -206zM495 66h-139l-120 215l123 209h137l-119 -206z" />
    <glyph glyph-name="logicalnot" unicode="&#xac;" horiz-adv-x="709" 
d="M643 455v-338h-134v203h-459v135h593z" />
    <glyph glyph-name="registered" unicode="&#xae;" horiz-adv-x="661" 
d="M473.5 730.5q65.5 -38.5 103.5 -104t38 -142.5q0 -78 -38 -143.5t-103.5 -103.5t-143.5 -38q-77 0 -142.5 38t-103.5 103.5t-38 143.5q0 77 38 142.5t103.5 104t142.5 38.5q78 0 143.5 -38.5zM444 289.5q50 30.5 78.5 82t28.5 113.5q0 60 -27 111.5t-77.5 82t-115.5 30.5
q-66 0 -116 -30.5t-77 -81.5t-27 -112q0 -62 28 -113.5t78 -82t113 -30.5q64 0 114 30.5zM466 336h-89l-39 98h-36v-98h-81v308h134q50 0 77.5 -29.5t27.5 -72.5q0 -28 -11.5 -52t-32.5 -39zM302 499h27q26 0 38.5 9t12.5 31t-13 31t-42 9h-23v-80z" />
    <glyph glyph-name="macron" unicode="&#xaf;" horiz-adv-x="506" 
d="M384 746v-103h-272v103h272z" />
    <glyph glyph-name="degree" unicode="&#xb0;" horiz-adv-x="473" 
d="M376.5 395.5q-55.5 -47.5 -140.5 -47.5t-140 47t-55 135v52q0 59 26 101.5t70.5 64.5t98.5 22q55 0 99.5 -22t70.5 -64.5t26 -101.5v-52q0 -87 -55.5 -134.5zM294 644q-19 23 -57 23t-57.5 -23.5t-19.5 -60.5v-51q0 -36 19.5 -59t57.5 -23q39 0 57.5 22.5t18.5 59.5v51
q0 38 -19 61z" />
    <glyph glyph-name="plusminus" unicode="&#xb1;" horiz-adv-x="546" 
d="M212 456v148h122v-148h156v-121h-156v-151h-122v151h-156v121h156zM490 121v-121h-434v121h434z" />
    <glyph glyph-name="uni00B2" unicode="&#xb2;" horiz-adv-x="333" 
d="M35 802q45 23 111 23q68 0 108.5 -26.5t40.5 -80.5q0 -32 -15 -59t-46 -55l-77 -74h147l1 -80h-274v67l126 127q31 31 31 56q0 39 -60 39q-49 0 -93 -22v85z" />
    <glyph glyph-name="uni00B3" unicode="&#xb3;" horiz-adv-x="329" 
d="M229 643q69 -21 69 -88q0 -49 -38 -80.5t-119 -31.5q-68 0 -108 22v85q30 -14 50 -19t44 -5q35 0 51 9.5t16 30.5q0 19 -15 26.5t-49 7.5h-32v71h31q32 0 47.5 11t15.5 27q0 14 -13.5 24t-45.5 10q-54 0 -95 -28v85q24 12 57.5 18.5t63.5 6.5q66 0 99.5 -28.5t33.5 -70.5
q0 -58 -63 -83z" />
    <glyph glyph-name="acute" unicode="&#xb4;" horiz-adv-x="500" 
d="M314 622h-127l88 153h138z" />
    <glyph glyph-name="uni00B5" unicode="&#xb5;" horiz-adv-x="664" 
d="M428 0v65q-44 -80 -143 -80q-29 0 -49 7v-214h-163v771h163v-296q1 -64 23 -93.5t70 -29.5q51 0 75 33.5t24 100.5v285h163v-549h-163z" />
    <glyph glyph-name="paragraph" unicode="&#xb6;" horiz-adv-x="723" 
d="M302 0v303h-26q-123 0 -185 58t-62 165q0 64 27.5 116t84 82.5t139.5 30.5h162v-755h-140zM502 0v755h140v-755h-140zM302 417v222h-12q-63 0 -91 -24.5t-28 -84.5q0 -52 24.5 -82.5t84.5 -30.5h22z" />
    <glyph glyph-name="periodcentered" unicode="&#xb7;" horiz-adv-x="286" 
d="M225 479v-164h-165v164h165z" />
    <glyph glyph-name="cedilla" unicode="&#xb8;" horiz-adv-x="442" 
d="M117 -229v92h73q19 0 28 4t8 16q0 11 -7 15.5t-21 4.5h-78v102h95v-43h10q110 0 110 -86q0 -47 -31.5 -76t-89.5 -29h-97z" />
    <glyph glyph-name="uni00B9" unicode="&#xb9;" horiz-adv-x="251" 
d="M111 817h89v-367h-104v262l-75 -36v93z" />
    <glyph glyph-name="ordmasculine" unicode="&#xba;" horiz-adv-x="517" 
d="M110.5 723q55.5 45 147.5 45q91 0 147 -45t56 -135v-47q0 -89 -56.5 -134.5t-146.5 -45.5q-92 0 -147.5 45.5t-55.5 134.5v47q0 90 55.5 135zM201.5 473q18.5 -22 56.5 -22q37 0 56 22t19 70v43q0 48 -19 70t-56 22q-38 0 -56.5 -22t-18.5 -70v-43q0 -48 18.5 -70z
M445 302v-95h-371v95h371z" />
    <glyph glyph-name="guillemotright" unicode="&#xbb;" horiz-adv-x="535" 
d="M179 490l123 -209l-120 -215h-139l118 218l-119 206h137zM381 490l123 -209l-120 -215h-139l118 218l-119 206h137z" />
    <glyph glyph-name="onequarter" unicode="&#xbc;" horiz-adv-x="809" 
d="M120 754h89v-367h-104v262l-75 -36v93zM692 754l-468 -754h-118l468 754h118zM486 64v78l105 225h105l-105 -226h60v76h98v-76h31v-77h-31v-64h-98v64h-165z" />
    <glyph glyph-name="onehalf" unicode="&#xbd;" horiz-adv-x="843" 
d="M119 754h89v-367h-104v262l-75 -36v93zM692 754l-468 -754h-118l468 754h118zM538 352q45 23 111 23q68 0 108.5 -26.5t40.5 -80.5q0 -32 -15 -59t-46 -55l-77 -74h147l1 -80h-274v67l126 127q31 31 31 56q0 39 -60 39q-49 0 -93 -22v85z" />
    <glyph glyph-name="threequarters" unicode="&#xbe;" horiz-adv-x="863" 
d="M236 583q69 -21 69 -88q0 -49 -38 -80.5t-119 -31.5q-68 0 -108 22v85q30 -14 50 -19t44 -5q35 0 51 9.5t16 30.5q0 19 -15 26.5t-49 7.5h-32v71h31q32 0 47.5 11t15.5 27q0 14 -13.5 24t-45.5 10q-54 0 -95 -28v85q24 12 57.5 18.5t63.5 6.5q66 0 99.5 -28.5t33.5 -70.5
q0 -58 -63 -83zM735 754l-468 -754h-118l468 754h118zM540 64v78l105 225h105l-105 -226h60v76h98v-76h31v-77h-31v-64h-98v64h-165z" />
    <glyph glyph-name="questiondown" unicode="&#xbf;" horiz-adv-x="558" 
d="M213 401v148h154v-148h-154zM218 321h149v-30q0 -45 -14 -77.5t-34 -53.5t-52 -48q-39 -32 -58 -57.5t-19 -62.5q0 -40 23.5 -62t68.5 -22q52 0 79.5 28t27.5 77v18h143v-17q0 -113 -70 -173.5t-182 -60.5q-114 0 -183 56.5t-69 154.5q0 46 15.5 79.5t37 55.5t57.5 51
q40 32 60 56.5t20 60.5v27z" />
    <glyph glyph-name="Agrave" unicode="&#xc0;" horiz-adv-x="702" 
d="M421 827h-134l-88 133h145zM444 755l257 -755h-189l-44 146h-259l-47 -146h-171l276 755h177zM429 276l-85 282l-92 -282h177z" />
    <glyph glyph-name="Aacute" unicode="&#xc1;" horiz-adv-x="702" 
d="M430 827h-134l77 133h145zM444 755l257 -755h-189l-44 146h-259l-47 -146h-171l276 755h177zM429 276l-85 282l-92 -282h177z" />
    <glyph glyph-name="Acircumflex" unicode="&#xc2;" horiz-adv-x="702" 
d="M389 828l-41 51l-41 -51h-128l106 132h132l108 -132h-136zM444 755l257 -755h-189l-44 146h-259l-47 -146h-171l276 755h177zM429 276l-85 282l-92 -282h177z" />
    <glyph glyph-name="Atilde" unicode="&#xc3;" horiz-adv-x="702" 
d="M200 942q42 40 80 40q14 0 36.5 -6.5t44.5 -14.5q21 -8 41 -14t33 -6q17 0 35 9t41 25v-106q-15 -17 -36.5 -29t-42.5 -12q-14 0 -36.5 6.5t-44.5 14.5q-20 8 -39.5 14t-31.5 6q-17 0 -36.5 -9.5t-43.5 -25.5v108zM444 755l257 -755h-189l-44 146h-259l-47 -146h-171
l276 755h177zM429 276l-85 282l-92 -282h177z" />
    <glyph glyph-name="Adieresis" unicode="&#xc4;" horiz-adv-x="702" 
d="M324 963v-131h-142v131h142zM527 963v-131h-143v131h143zM444 755l257 -755h-189l-44 146h-259l-47 -146h-171l276 755h177zM429 276l-85 282l-92 -282h177z" />
    <glyph glyph-name="Aring" unicode="&#xc5;" horiz-adv-x="702" 
d="M272 840.5q-35 31.5 -35 87.5t35.5 89.5t87.5 33.5t87.5 -33.5t35.5 -89.5q0 -55 -35 -87t-89 -32q-52 0 -87 31.5zM319.5 967q-12.5 -15 -12.5 -38q0 -22 12.5 -36.5t39.5 -14.5t40 15.5t13 37.5q0 21 -13 36t-40 15t-39.5 -15zM444 755l257 -755h-189l-44 146h-259
l-47 -146h-171l276 755h177zM429 276l-85 282l-92 -282h177z" />
    <glyph glyph-name="AE" unicode="&#xc6;" horiz-adv-x="993" 
d="M934 755v-146h-337v-152h302v-145h-302v-166h349v-146h-517v161h-206l-68 -161h-170l330 755h619zM429 291v318h-17l-134 -318h151z" />
    <glyph glyph-name="Ccedilla" unicode="&#xc7;" horiz-adv-x="623" 
d="M303 -234v92h73q19 0 28 4t8 16q0 11 -7 15.5t-21 4.5h-78v93q-121 19 -189.5 105t-68.5 232v92q0 112 40.5 190.5t115.5 118.5t176 40q61 0 118.5 -12.5t86.5 -31.5v-158q-31 26 -84 41t-107 15q-177 0 -177 -196v-106q0 -102 47 -146t132 -44q47 0 99 9.5t88 31.5v-148
q-32 -18 -81 -27t-101 -11v-29h10q110 0 110 -86q0 -47 -31.5 -76t-89.5 -29h-97z" />
    <glyph glyph-name="Egrave" unicode="&#xc8;" horiz-adv-x="641" 
d="M416 827h-134l-88 133h145zM78 0v755h505v-139h-337v-166h301v-138h-301v-173h349v-139h-517z" />
    <glyph glyph-name="Eacute" unicode="&#xc9;" horiz-adv-x="641" 
d="M393 827h-134l77 133h145zM78 0v755h505v-139h-337v-166h301v-138h-301v-173h349v-139h-517z" />
    <glyph glyph-name="Ecircumflex" unicode="&#xca;" horiz-adv-x="641" 
d="M377 828l-41 51l-41 -51h-128l106 132h132l108 -132h-136zM78 0v755h505v-139h-337v-166h301v-138h-301v-173h349v-139h-517z" />
    <glyph glyph-name="Edieresis" unicode="&#xcb;" horiz-adv-x="641" 
d="M305 963v-131h-142v131h142zM508 963v-131h-143v131h143zM78 0v755h505v-139h-337v-166h301v-138h-301v-173h349v-139h-517z" />
    <glyph glyph-name="Igrave" unicode="&#xcc;" horiz-adv-x="324" 
d="M227 827h-134l-88 133h145zM78 0v755h168v-755h-168z" />
    <glyph glyph-name="Iacute" unicode="&#xcd;" horiz-adv-x="324" 
d="M235 827h-134l77 133h145zM78 0v755h168v-755h-168z" />
    <glyph glyph-name="Icircumflex" unicode="&#xce;" horiz-adv-x="324" 
d="M203 828l-41 51l-41 -51h-128l106 132h132l108 -132h-136zM78 0v755h168v-755h-168z" />
    <glyph glyph-name="Idieresis" unicode="&#xcf;" horiz-adv-x="324" 
d="M134 963v-131h-142v131h142zM337 963v-131h-143v131h143zM78 0v755h168v-755h-168z" />
    <glyph glyph-name="Eth" unicode="&#xd0;" horiz-adv-x="732" 
d="M89 447v308h282q144 0 228.5 -85t84.5 -250v-92q0 -164 -84 -246t-229 -82h-282v325h-68v122h68zM257 146h114q75 0 109.5 39.5t34.5 135.5v106q0 87 -35.5 135t-108.5 48h-114v-163h113v-122h-113v-179z" />
    <glyph glyph-name="Ntilde" unicode="&#xd1;" horiz-adv-x="779" 
d="M242 942q42 40 80 40q14 0 36.5 -6.5t44.5 -14.5q21 -8 41 -14t33 -6q17 0 35 9t41 25v-106q-15 -17 -36.5 -29t-42.5 -12q-14 0 -36.5 6.5t-44.5 14.5q-20 8 -39.5 14t-31.5 6q-17 0 -36.5 -9.5t-43.5 -25.5v108zM237 272v-272h-159v755h159l308 -487l-4 232v255h160
v-755h-160l-308 489z" />
    <glyph glyph-name="Ograve" unicode="&#xd2;" horiz-adv-x="731" 
d="M428 827h-134l-88 133h145zM89 615q40 77 111 115.5t165 38.5t165.5 -39t111.5 -116t40 -187v-106q0 -110 -40 -185.5t-111.5 -113t-165.5 -37.5t-165 37.5t-111 112.5t-40 186v106q0 111 40 188zM251 173.5q33 -50.5 113 -50.5q81 0 115 50.5t34 140.5v120
q0 94 -33.5 145.5t-115.5 51.5q-76 0 -111 -53t-35 -144v-120q0 -90 33 -140.5z" />
    <glyph glyph-name="Oacute" unicode="&#xd3;" horiz-adv-x="731" 
d="M423 827h-134l77 133h145zM89 615q40 77 111 115.5t165 38.5t165.5 -39t111.5 -116t40 -187v-106q0 -110 -40 -185.5t-111.5 -113t-165.5 -37.5t-165 37.5t-111 112.5t-40 186v106q0 111 40 188zM251 173.5q33 -50.5 113 -50.5q81 0 115 50.5t34 140.5v120
q0 94 -33.5 145.5t-115.5 51.5q-76 0 -111 -53t-35 -144v-120q0 -90 33 -140.5z" />
    <glyph glyph-name="Ocircumflex" unicode="&#xd4;" horiz-adv-x="731" 
d="M404 828l-41 51l-41 -51h-128l106 132h132l108 -132h-136zM89 615q40 77 111 115.5t165 38.5t165.5 -39t111.5 -116t40 -187v-106q0 -110 -40 -185.5t-111.5 -113t-165.5 -37.5t-165 37.5t-111 112.5t-40 186v106q0 111 40 188zM251 173.5q33 -50.5 113 -50.5
q81 0 115 50.5t34 140.5v120q0 94 -33.5 145.5t-115.5 51.5q-76 0 -111 -53t-35 -144v-120q0 -90 33 -140.5z" />
    <glyph glyph-name="Otilde" unicode="&#xd5;" horiz-adv-x="731" 
d="M206 942q42 40 80 40q14 0 36.5 -6.5t44.5 -14.5q21 -8 41 -14t33 -6q17 0 35 9t41 25v-106q-15 -17 -36.5 -29t-42.5 -12q-14 0 -36.5 6.5t-44.5 14.5q-20 8 -39.5 14t-31.5 6q-17 0 -36.5 -9.5t-43.5 -25.5v108zM89 615q40 77 111 115.5t165 38.5t165.5 -39t111.5 -116
t40 -187v-106q0 -110 -40 -185.5t-111.5 -113t-165.5 -37.5t-165 37.5t-111 112.5t-40 186v106q0 111 40 188zM251 173.5q33 -50.5 113 -50.5q81 0 115 50.5t34 140.5v120q0 94 -33.5 145.5t-115.5 51.5q-76 0 -111 -53t-35 -144v-120q0 -90 33 -140.5z" />
    <glyph glyph-name="Odieresis" unicode="&#xd6;" horiz-adv-x="731" 
d="M334 963v-131h-142v131h142zM537 963v-131h-143v131h143zM89 615q40 77 111 115.5t165 38.5t165.5 -39t111.5 -116t40 -187v-106q0 -110 -40 -185.5t-111.5 -113t-165.5 -37.5t-165 37.5t-111 112.5t-40 186v106q0 111 40 188zM251 173.5q33 -50.5 113 -50.5
q81 0 115 50.5t34 140.5v120q0 94 -33.5 145.5t-115.5 51.5q-76 0 -111 -53t-35 -144v-120q0 -90 33 -140.5z" />
    <glyph glyph-name="multiply" unicode="&#xd7;" horiz-adv-x="485" 
d="M156 382l-111 111l88 86l109 -110l110 110l86 -85l-111 -111l112 -111l-87 -86l-111 111l-110 -110l-85 85z" />
    <glyph glyph-name="Oslash" unicode="&#xd8;" horiz-adv-x="732" 
d="M90 615q40 77 111 115.5t165 38.5q99 0 173 -44l23 34h121l-68 -101q68 -89 68 -231v-106q0 -110 -40 -185.5t-111.5 -113t-165.5 -37.5q-104 0 -178 44l-23 -33h-115l66 98q-66 85 -66 227v106q0 111 40 188zM223 254l235 349q-36 28 -93 28q-76 0 -111 -53t-35 -144
v-120q0 -36 4 -60zM271 152q34 -29 94 -29q81 0 115.5 51t34.5 140v120q0 34 -5 69z" />
    <glyph glyph-name="Ugrave" unicode="&#xd9;" horiz-adv-x="761" 
d="M455 827h-134l-88 133h145zM691 307q0 -164 -83.5 -243t-229.5 -79q-145 0 -226 79t-81 243v448h169v-434q0 -101 31.5 -146t107.5 -45q70 0 107 43t37 148v434h168v-448z" />
    <glyph glyph-name="Uacute" unicode="&#xda;" horiz-adv-x="761" 
d="M447 827h-134l77 133h145zM691 307q0 -164 -83.5 -243t-229.5 -79q-145 0 -226 79t-81 243v448h169v-434q0 -101 31.5 -146t107.5 -45q70 0 107 43t37 148v434h168v-448z" />
    <glyph glyph-name="Ucircumflex" unicode="&#xdb;" horiz-adv-x="761" 
d="M418 828l-41 51l-41 -51h-128l106 132h132l108 -132h-136zM691 307q0 -164 -83.5 -243t-229.5 -79q-145 0 -226 79t-81 243v448h169v-434q0 -101 31.5 -146t107.5 -45q70 0 107 43t37 148v434h168v-448z" />
    <glyph glyph-name="Udieresis" unicode="&#xdc;" horiz-adv-x="761" 
d="M341 963v-131h-142v131h142zM544 963v-131h-143v131h143zM691 307q0 -164 -83.5 -243t-229.5 -79q-145 0 -226 79t-81 243v448h169v-434q0 -101 31.5 -146t107.5 -45q70 0 107 43t37 148v434h168v-448z" />
    <glyph glyph-name="Yacute" unicode="&#xdd;" horiz-adv-x="651" 
d="M401 827h-134l77 133h145zM412 0h-168v271l-249 484h178l160 -334l149 334h167l-237 -483v-272z" />
    <glyph glyph-name="Thorn" unicode="&#xde;" horiz-adv-x="688" 
d="M399 652q83 0 140.5 -33t86.5 -88.5t29 -121.5q0 -69 -29 -126.5t-86 -91.5t-137 -34h-157v-157h-168v755h168v-103h153zM246 300h108q71 0 101.5 24t30.5 80q0 60 -33 81.5t-110 21.5h-97v-207z" />
    <glyph glyph-name="germandbls" unicode="&#xdf;" horiz-adv-x="647" 
d="M349 125q49 0 71 21t22 68v40q0 52 -22 74.5t-75 22.5h-39v116h34q46 0 64 21.5t18 68.5q0 43 -20.5 66.5t-75.5 23.5q-54 0 -76 -26t-22 -86v-535h-163v535q0 68 33.5 121t95.5 83t146 30q79 0 134 -25t83 -68.5t28 -98.5t-27.5 -88.5t-80.5 -55.5q59 -19 93.5 -63.5
t34.5 -113.5v-40q0 -216 -245 -216h-59v125h48z" />
    <glyph glyph-name="agrave" unicode="&#xe0;" horiz-adv-x="595" 
d="M354 622h-127l-99 153h138zM372 61q-23 -39 -60 -57.5t-92 -18.5q-86 0 -135 44t-49 118q0 89 55 131.5t169 42.5h111q-1 37 -10.5 57.5t-33 30t-68.5 9.5q-54 0 -99.5 -13t-93.5 -45v144q90 59 224 59q125 0 185 -51.5t60 -163.5v-348h-163v61zM372 221h-80
q-57 0 -78 -14.5t-21 -49.5q0 -58 75 -58q46 0 74 24t30 84v14z" />
    <glyph glyph-name="aacute" unicode="&#xe1;" horiz-adv-x="595" 
d="M343 622h-127l88 153h138zM372 61q-23 -39 -60 -57.5t-92 -18.5q-86 0 -135 44t-49 118q0 89 55 131.5t169 42.5h111q-1 37 -10.5 57.5t-33 30t-68.5 9.5q-54 0 -99.5 -13t-93.5 -45v144q90 59 224 59q125 0 185 -51.5t60 -163.5v-348h-163v61zM372 221h-80
q-57 0 -78 -14.5t-21 -49.5q0 -58 75 -58q46 0 74 24t30 84v14z" />
    <glyph glyph-name="acircumflex" unicode="&#xe2;" horiz-adv-x="595" 
d="M318 622l-41 78l-47 -78h-124l106 153h132l108 -153h-134zM372 61q-23 -39 -60 -57.5t-92 -18.5q-86 0 -135 44t-49 118q0 89 55 131.5t169 42.5h111q-1 37 -10.5 57.5t-33 30t-68.5 9.5q-54 0 -99.5 -13t-93.5 -45v144q90 59 224 59q125 0 185 -51.5t60 -163.5v-348
h-163v61zM292 221q-57 0 -78 -14.5t-21 -49.5q0 -58 75 -58q48 0 76 25.5t28 89.5v7h-80z" />
    <glyph glyph-name="atilde" unicode="&#xe3;" horiz-adv-x="595" 
d="M134 740q42 40 80 40q14 0 36.5 -6.5t44.5 -14.5q21 -8 41 -14t33 -6q17 0 35 9t41 25v-106q-15 -17 -36.5 -29t-42.5 -12q-14 0 -36.5 6.5t-44.5 14.5q-20 8 -39.5 14t-31.5 6q-17 0 -36.5 -9.5t-43.5 -25.5v108zM372 61q-23 -39 -60 -57.5t-92 -18.5q-86 0 -135 44
t-49 118q0 89 55 131.5t169 42.5h111q-1 37 -10.5 57.5t-33 30t-68.5 9.5q-54 0 -99.5 -13t-93.5 -45v144q90 59 224 59q125 0 185 -51.5t60 -163.5v-348h-163v61zM292 221q-57 0 -78 -14.5t-21 -49.5q0 -58 75 -58q48 0 76 25.5t28 89.5v7h-80z" />
    <glyph glyph-name="adieresis" unicode="&#xe4;" horiz-adv-x="595" 
d="M259 761v-131h-143v131h143zM464 761v-131h-142v131h142zM372 61q-23 -39 -60 -57.5t-92 -18.5q-86 0 -135 44t-49 118q0 89 55 131.5t169 42.5h111q-1 37 -10.5 57.5t-33 30t-68.5 9.5q-54 0 -99.5 -13t-93.5 -45v144q90 59 224 59q125 0 185 -51.5t60 -163.5v-348h-163
v61zM292 221q-57 0 -78 -14.5t-21 -49.5q0 -58 75 -58q48 0 76 25.5t28 89.5v7h-80z" />
    <glyph glyph-name="aring" unicode="&#xe5;" horiz-adv-x="595" 
d="M207 640.5q-35 32.5 -35 92.5q0 55 35.5 89t87.5 34q53 0 88.5 -33.5t35.5 -89.5q0 -59 -35 -92t-89 -33q-53 0 -88 32.5zM255.5 770.5q-12.5 -16.5 -12.5 -42.5q0 -22 12.5 -37t38.5 -15q27 0 40 17t13 42q0 21 -13 36.5t-39 15.5q-27 0 -39.5 -16.5zM372 61
q-23 -39 -60 -57.5t-92 -18.5q-86 0 -135 44t-49 118q0 89 55 131.5t169 42.5h111q-1 37 -10.5 57.5t-33 30t-68.5 9.5q-54 0 -99.5 -13t-93.5 -45v144q90 59 224 59q125 0 185 -51.5t60 -163.5v-348h-163v61zM292 221q-57 0 -78 -14.5t-21 -49.5q0 -58 75 -58q48 0 76 25.5
t28 89.5v7h-80z" />
    <glyph glyph-name="ae" unicode="&#xe6;" horiz-adv-x="927" 
d="M371 321q-1 37 -10.5 57.5t-33 30t-69.5 9.5q-53 0 -98.5 -13t-93.5 -45v144q42 29 98 44t121 15q113 0 165 -59q68 59 177 59q118 0 187.5 -65t69.5 -188v-91h-346q6 -57 40 -80t102 -23q50 0 95.5 8.5t97.5 33.5v-121q-51 -29 -104.5 -40.5t-116.5 -11.5
q-167 0 -233 87q-53 -87 -180 -87q-100 0 -151.5 44.5t-51.5 123.5q0 168 224 168h111zM718 322q-2 60 -23.5 88.5t-66.5 28.5q-44 0 -66.5 -28.5t-24.5 -88.5h181zM292 221q-56 0 -77.5 -14.5t-21.5 -48.5q0 -30 18 -44.5t57 -14.5q104 0 104 121v1h-80z" />
    <glyph glyph-name="ccedilla" unicode="&#xe7;" horiz-adv-x="534" 
d="M93.5 69.5q-50.5 63.5 -50.5 171.5v66q0 122 72 189t208 67q101 0 170 -37v-134q-72 41 -158 41q-123 0 -123 -124v-74q0 -59 33 -89.5t91 -30.5q83 0 153 41v-128q-53 -37 -148 -42v-24h10q110 0 110 -86q0 -47 -31.5 -76t-89.5 -29h-97v92h73q19 0 28 4t8 16
q0 11 -7 15.5t-21 4.5h-78v87q-102 16 -152.5 79.5z" />
    <glyph glyph-name="egrave" unicode="&#xe8;" horiz-adv-x="598" 
d="M364 622h-127l-99 153h138zM210 219q6 -56 38.5 -79.5t96.5 -23.5q57 0 102 8t97 34v-121q-52 -29 -103.5 -40.5t-124.5 -11.5q-136 0 -204.5 65t-68.5 191v66q0 122 69 189t186 67q118 0 187.5 -65t69.5 -188v-91h-345zM389 322q-2 61 -23.5 89t-67.5 28q-43 0 -65 -29
t-24 -88h180z" />
    <glyph glyph-name="eacute" unicode="&#xe9;" horiz-adv-x="598" 
d="M363 622h-127l88 153h138zM248.5 139.5q32.5 -23.5 96.5 -23.5q57 0 102 8t97 34v-121q-52 -29 -103.5 -40.5t-124.5 -11.5q-136 0 -204.5 65t-68.5 191v66q0 122 69 189t186 67q118 0 187.5 -65t69.5 -188v-91h-345q6 -56 38.5 -79.5zM389 322q-2 61 -23.5 89t-67.5 28
q-43 0 -65 -29t-24 -88h180z" />
    <glyph glyph-name="ecircumflex" unicode="&#xea;" horiz-adv-x="598" 
d="M344 622l-41 78l-47 -78h-124l106 153h132l108 -153h-134zM210 219q6 -56 38.5 -79.5t96.5 -23.5q57 0 102 8t97 34v-121q-52 -29 -103.5 -40.5t-124.5 -11.5q-136 0 -204.5 65t-68.5 191v66q0 122 69 189t186 67q118 0 187.5 -65t69.5 -188v-91h-345zM389 322
q-2 61 -23.5 89t-67.5 28q-43 0 -65 -29t-24 -88h180z" />
    <glyph glyph-name="edieresis" unicode="&#xeb;" horiz-adv-x="598" 
d="M270 761v-131h-143v131h143zM475 761v-131h-142v131h142zM210 219q6 -56 38.5 -79.5t96.5 -23.5q57 0 102 8t97 34v-121q-52 -29 -103.5 -40.5t-124.5 -11.5q-136 0 -204.5 65t-68.5 191v66q0 122 69 189t186 67q118 0 187.5 -65t69.5 -188v-91h-345zM389 322
q-2 61 -23.5 89t-67.5 28q-43 0 -65 -29t-24 -88h180z" />
    <glyph glyph-name="igrave" unicode="&#xec;" horiz-adv-x="293" 
d="M210 622h-127l-99 153h138zM228 549v-549h-163v549h163z" />
    <glyph glyph-name="iacute" unicode="&#xed;" horiz-adv-x="293" 
d="M211 622h-127l88 153h138zM228 549v-549h-163v549h163z" />
    <glyph glyph-name="icircumflex" unicode="&#xee;" horiz-adv-x="293" 
d="M187 622l-41 78l-47 -78h-124l106 153h132l108 -153h-134zM228 549v-549h-163v549h163z" />
    <glyph glyph-name="idieresis" unicode="&#xef;" horiz-adv-x="293" 
d="M111 761v-131h-143v131h143zM316 761v-131h-142v131h142zM228 549v-549h-163v549h163z" />
    <glyph glyph-name="eth" unicode="&#xf0;" horiz-adv-x="627" 
d="M377 707q96 -61 150 -167t54 -233v-73q0 -79 -35 -135t-96 -85t-139 -29t-139 29t-95.5 85t-34.5 135v56q0 118 62.5 185t168.5 67q33 0 64 -11.5t66 -39.5q-35 64 -96 114l-35 -51l-67 45l34 51q-26 14 -39 19l57 91q11 -3 25 -8t21 -7l38 57l68 -48zM235 144.5
q24 -35.5 76 -35.5q51 0 76 35t25 85v52q0 78 -21 114t-79 36q-55 0 -78 -35t-23 -115v-52q0 -49 24 -84.5z" />
    <glyph glyph-name="ntilde" unicode="&#xf1;" horiz-adv-x="646" 
d="M162 740q42 40 80 40q14 0 36.5 -6.5t44.5 -14.5q21 -8 41 -14t33 -6q17 0 35 9t41 25v-106q-15 -17 -36.5 -29t-42.5 -12q-14 0 -36.5 6.5t-44.5 14.5q-20 8 -39.5 14t-31.5 6q-17 0 -36.5 -9.5t-43.5 -25.5v108zM228 549v-73q56 87 169 87q92 0 140 -55.5t48 -160.5
v-347h-163v290q0 66 -22.5 97.5t-71.5 31.5q-100 0 -100 -135v-284h-163v549h163z" />
    <glyph glyph-name="ograve" unicode="&#xf2;" horiz-adv-x="623" 
d="M381 622h-127l-99 153h138zM116 498.5q74 64.5 195 64.5t195.5 -64.5t74.5 -191.5v-66q0 -127 -74.5 -191.5t-195.5 -64.5t-195 64.5t-74 191.5v66q0 127 74 191.5zM236 141q25 -32 75 -32t75.5 32t25.5 102v62q0 70 -25.5 102t-75.5 32t-75 -32t-25 -102v-62
q0 -70 25 -102z" />
    <glyph glyph-name="oacute" unicode="&#xf3;" horiz-adv-x="623" 
d="M368 622h-127l88 153h138zM116 498.5q74 64.5 195 64.5t195.5 -64.5t74.5 -191.5v-66q0 -127 -74.5 -191.5t-195.5 -64.5t-195 64.5t-74 191.5v66q0 127 74 191.5zM236 141q25 -32 75 -32t75.5 32t25.5 102v62q0 70 -25.5 102t-75.5 32t-75 -32t-25 -102v-62
q0 -70 25 -102z" />
    <glyph glyph-name="ocircumflex" unicode="&#xf4;" horiz-adv-x="623" 
d="M349 617l-41 78l-47 -78h-124l106 153h132l108 -153h-134zM116 498.5q74 64.5 195 64.5t195.5 -64.5t74.5 -191.5v-66q0 -127 -74.5 -191.5t-195.5 -64.5t-195 64.5t-74 191.5v66q0 127 74 191.5zM236 141q25 -32 75 -32t75.5 32t25.5 102v62q0 70 -25.5 102t-75.5 32
t-75 -32t-25 -102v-62q0 -70 25 -102z" />
    <glyph glyph-name="otilde" unicode="&#xf5;" horiz-adv-x="623" 
d="M153 740q42 40 80 40q14 0 36.5 -6.5t44.5 -14.5q21 -8 41 -14t33 -6q17 0 35 9t41 25v-106q-15 -17 -36.5 -29t-42.5 -12q-14 0 -36.5 6.5t-44.5 14.5q-20 8 -39.5 14t-31.5 6q-17 0 -36.5 -9.5t-43.5 -25.5v108zM116 498.5q74 64.5 195 64.5t195.5 -64.5t74.5 -191.5
v-66q0 -127 -74.5 -191.5t-195.5 -64.5t-195 64.5t-74 191.5v66q0 127 74 191.5zM236 141q25 -32 75 -32t75.5 32t25.5 102v62q0 70 -25.5 102t-75.5 32t-75 -32t-25 -102v-62q0 -70 25 -102z" />
    <glyph glyph-name="odieresis" unicode="&#xf6;" horiz-adv-x="623" 
d="M279 761v-131h-143v131h143zM484 761v-131h-142v131h142zM116 498.5q74 64.5 195 64.5t195.5 -64.5t74.5 -191.5v-66q0 -127 -74.5 -191.5t-195.5 -64.5t-195 64.5t-74 191.5v66q0 127 74 191.5zM236 141q25 -32 75 -32t75.5 32t25.5 102v62q0 70 -25.5 102t-75.5 32
t-75 -32t-25 -102v-62q0 -70 25 -102z" />
    <glyph glyph-name="divide" unicode="&#xf7;" horiz-adv-x="524" 
d="M334 645v-137h-155v137h155zM479 448v-121h-434v121h434zM334 263v-137h-155v137h155z" />
    <glyph glyph-name="oslash" unicode="&#xf8;" horiz-adv-x="624" 
d="M116 498.5q74 64.5 195 64.5q83 0 144 -30l24 31h104l-62 -81q60 -66 60 -176v-66q0 -127 -74.5 -191.5t-195.5 -64.5q-82 0 -144 30l-22 -30h-103l60 79q-60 66 -60 177v66q0 127 74 191.5zM212 211l159 210q-24 18 -60 18q-50 0 -75 -32t-25 -102v-62q0 -22 1 -32z
M251 126q23 -17 60 -17q50 0 75.5 32t25.5 102v62q0 13 -2 31z" />
    <glyph glyph-name="ugrave" unicode="&#xf9;" horiz-adv-x="644" 
d="M394 622h-127l-99 153h138zM416 0v70q-27 -41 -67 -63t-98 -22q-92 0 -141 55.5t-49 160.5v348h163v-294q0 -66 22.5 -95.5t71.5 -29.5q48 0 72 30t26 91v298h163v-549h-163z" />
    <glyph glyph-name="uacute" unicode="&#xfa;" horiz-adv-x="644" 
d="M390 622h-127l88 153h138zM416 0v70q-27 -41 -67 -63t-98 -22q-92 0 -141 55.5t-49 160.5v348h163v-294q0 -66 22.5 -95.5t71.5 -29.5q50 0 74 33t24 101v285h163v-549h-163z" />
    <glyph glyph-name="ucircumflex" unicode="&#xfb;" horiz-adv-x="644" 
d="M356 622l-41 78l-47 -78h-124l106 153h132l108 -153h-134zM416 0v70q-27 -41 -67 -63t-98 -22q-92 0 -141 55.5t-49 160.5v348h163v-294q0 -66 22.5 -95.5t71.5 -29.5q50 0 74 33t24 101v285h163v-549h-163z" />
    <glyph glyph-name="udieresis" unicode="&#xfc;" horiz-adv-x="644" 
d="M287 761v-131h-143v131h143zM492 761v-131h-142v131h142zM416 0v70q-27 -41 -67 -63t-98 -22q-92 0 -141 55.5t-49 160.5v348h163v-294q0 -66 22.5 -95.5t71.5 -29.5q48 0 72 30t26 91v298h163v-549h-163z" />
    <glyph glyph-name="yacute" unicode="&#xfd;" horiz-adv-x="594" 
d="M369 622h-127l88 153h138zM226 -27l-220 576h171l125 -382l118 382h169l-197 -549h-1l-72 -222h-163z" />
    <glyph glyph-name="thorn" unicode="&#xfe;" horiz-adv-x="645" 
d="M228 755v-264q51 72 151 72q109 0 165.5 -63.5t56.5 -185.5v-80q0 -249 -222 -249q-99 0 -151 76v-283h-163v977h163zM228 229q0 -55 27.5 -87.5t75.5 -32.5t74 30t26 90v90q0 60 -27 90t-75 30q-44 0 -72 -28.5t-29 -84.5v-97z" />
    <glyph glyph-name="ydieresis" unicode="&#xff;" horiz-adv-x="594" 
d="M269 762v-131h-143v131h143zM474 762v-131h-142v131h142zM226 -27l-220 576h171l125 -382l118 382h169l-197 -549h-1l-72 -222h-163z" />
    <glyph glyph-name="dotlessi" unicode="&#x131;" horiz-adv-x="293" 
d="M228 549v-549h-163v549h163z" />
    <glyph glyph-name="Lslash" unicode="&#x141;" horiz-adv-x="577" 
d="M383 560v-132l-118 -67v-222h299v-139h-467v266l-73 -41v131l73 41v358h168v-262z" />
    <glyph glyph-name="lslash" unicode="&#x142;" horiz-adv-x="397" 
d="M32 249v121l68 36v349h163v-264l88 47v-119l-88 -47v-171q0 -48 10.5 -65.5t41.5 -17.5q29 0 49 9v-130q-45 -12 -95 -12q-80 0 -124.5 38.5t-44.5 121.5v140z" />
    <glyph glyph-name="OE" unicode="&#x152;" horiz-adv-x="1072" 
d="M509 0v50q-62 -65 -164 -65q-83 0 -150 37.5t-106.5 113.5t-39.5 185v106q0 110 38.5 187t106 116t153.5 39q99 0 162 -61v47h505v-139h-337v-166h301v-138h-301v-173h349v-139h-517zM251.5 173.5q33.5 -50.5 113.5 -50.5q76 0 109 46t35 129v136q0 93 -31.5 145
t-110.5 52q-149 0 -149 -197v-120q0 -90 33.5 -140.5z" />
    <glyph glyph-name="oe" unicode="&#x153;" horiz-adv-x="971" 
d="M116 498.5q74 64.5 195 64.5q113 0 185 -57q68 57 175 57q118 0 187.5 -65t69.5 -188v-91h-345q6 -56 38.5 -79.5t96.5 -23.5q57 0 102 8t97 34v-121q-52 -29 -103.5 -40.5t-124.5 -11.5q-125 0 -194 55q-70 -55 -184 -55q-121 0 -195 64.5t-74 191.5v66q0 127 74 191.5z
M236 141q25 -32 75 -32t75.5 32t25.5 102v62q0 70 -25.5 102t-75.5 32t-75 -32t-25 -102v-62q0 -70 25 -102zM762 322q-2 61 -23.5 89t-67.5 28q-43 0 -65 -29t-24 -88h180z" />
    <glyph glyph-name="Scaron" unicode="&#x160;" horiz-adv-x="637" 
d="M281 960l41 -52l41 52h128l-106 -132h-132l-108 132h136zM178.5 147.5q64.5 -18.5 128.5 -18.5q62 0 92.5 21.5t30.5 66.5q0 42 -24 60.5t-82 26.5l-90 12q-188 26 -188 215q0 120 82 178.5t207 58.5q64 0 129 -13t103 -40v-157q-46 33 -105.5 51t-116.5 18
q-66 0 -98.5 -20.5t-32.5 -64.5q0 -40 23 -59.5t74 -26.5l82 -11q103 -13 154 -70.5t51 -148.5q0 -122 -85 -179.5t-217 -57.5q-137 0 -237 55v157q55 -35 119.5 -53.5z" />
    <glyph glyph-name="scaron" unicode="&#x161;" horiz-adv-x="550" 
d="M234 775l44 -74l44 74h124l-105 -153h-132l-109 153h134zM266 110q44 0 69.5 12.5t25.5 37.5q0 24 -17.5 34.5t-55.5 13.5l-79 9q-168 20 -168 164q0 63 34.5 104t89.5 59.5t117 18.5q57 0 113.5 -11t89.5 -31v-139q-44 26 -97 41.5t-104 15.5q-45 0 -68.5 -12.5
t-23.5 -35.5q0 -22 17.5 -31.5t57.5 -13.5l72 -7q85 -8 130 -47t45 -117q0 -98 -73.5 -143t-178.5 -45q-54 0 -112.5 11t-98.5 32v129q98 -49 215 -49z" />
    <glyph glyph-name="Ydieresis" unicode="&#x178;" horiz-adv-x="651" 
d="M307 963v-131h-142v131h142zM510 963v-131h-143v131h143zM412 0h-168v271l-249 484h178l160 -334l149 334h167l-237 -483v-272z" />
    <glyph glyph-name="Zcaron" unicode="&#x17d;" horiz-adv-x="645" 
d="M290 960l41 -52l41 52h128l-106 -132h-132l-108 132h136zM225 140h377v-140h-562v140l376 475h-369v140h555v-140z" />
    <glyph glyph-name="zcaron" unicode="&#x17e;" horiz-adv-x="545" 
d="M236 775l44 -74l44 74h124l-105 -153h-132l-109 153h134zM241 124h264v-124h-465v109l272 316h-270v124h462v-108z" />
    <glyph glyph-name="florin" unicode="&#x192;" horiz-adv-x="567" 
d="M510 426v-131h-186v-308q0 -105 -51.5 -163t-161.5 -58q-39 0 -77 7.5t-59 18.5v142q23 -14 53.5 -21t54.5 -7q44 0 62 25t18 69v295h-117v131h117v113q0 68 31.5 120.5t86.5 81t122 28.5q36 0 80 -7.5t67 -18.5v-142q-38 15 -64 21.5t-66 6.5q-47 0 -71.5 -23.5
t-24.5 -86.5v-93h186z" />
    <glyph glyph-name="circumflex" unicode="&#x2c6;" horiz-adv-x="500" 
d="M289 622l-41 78l-47 -78h-124l106 153h132l108 -153h-134z" />
    <glyph glyph-name="caron" unicode="&#x2c7;" horiz-adv-x="563" 
d="M228 775l44 -74l44 74h124l-105 -153h-132l-109 153h134z" />
    <glyph glyph-name="breve" unicode="&#x2d8;" horiz-adv-x="531" 
d="M267 623q-155 0 -155 154h114q0 -36 9 -49.5t30 -13.5q19 0 28 13t9 50h117q0 -154 -152 -154z" />
    <glyph glyph-name="dotaccent" unicode="&#x2d9;" horiz-adv-x="427" 
d="M308 768v-138h-163v138h163z" />
    <glyph glyph-name="ring" unicode="&#x2da;" horiz-adv-x="475" 
d="M165 632.5q-35 32.5 -35 92.5q0 55 35.5 89t87.5 34q53 0 88.5 -33.5t35.5 -89.5q0 -59 -35 -92t-89 -33q-53 0 -88 32.5zM213.5 762.5q-12.5 -16.5 -12.5 -42.5q0 -22 12.5 -37t38.5 -15q27 0 40 17t13 42q0 21 -13 36.5t-39 15.5q-27 0 -39.5 -16.5z" />
    <glyph glyph-name="ogonek" unicode="&#x2db;" horiz-adv-x="442" 
d="M405 4q-47 -17 -64 -37.5t-17 -44.5q0 -25 15 -34.5t47 -9.5h35v-107h-67q-61 0 -96.5 29.5t-35.5 84.5q0 60 41 101t102 58z" />
    <glyph glyph-name="tilde" unicode="&#x2dc;" horiz-adv-x="493" 
d="M98 740q42 40 80 40q14 0 36.5 -6.5t44.5 -14.5q21 -8 41 -14t33 -6q17 0 35 9t41 25v-106q-15 -17 -36.5 -29t-42.5 -12q-14 0 -36.5 6.5t-44.5 14.5q-20 8 -39.5 14t-31.5 6q-17 0 -36.5 -9.5t-43.5 -25.5v108z" />
    <glyph glyph-name="hungarumlaut" unicode="&#x2dd;" horiz-adv-x="574" 
d="M215 630h-127l88 153h138zM394 630h-127l91 153h138z" />
    <glyph glyph-name="pi" unicode="&#x3c0;" horiz-adv-x="640" 
d="M228 426v-426h-163v549h510v-549h-163v426h-184z" />
    <glyph glyph-name="uni060C" unicode="&#x60c;" horiz-adv-x="254" 
d="M46 0l39 270h125l-39 -270h-125z" />
    <glyph glyph-name="uni060D" unicode="&#x60d;" horiz-adv-x="392" 
d="M0 -86l259 809h138l-261 -809h-136z" />
    <glyph glyph-name="uni061B" unicode="&#x61b;" horiz-adv-x="240" 
d="M44 282l39 270h125l-39 -270h-125zM13 82l100 99l101 -99l-101 -101z" />
    <glyph glyph-name="uni061E" unicode="&#x61e;" horiz-adv-x="707" 
d="M36 -67l100 99l101 -99l-101 -101zM259 393l100 99l101 -99l-101 -101zM470 -67l100 99l101 -99l-101 -101z" />
    <glyph glyph-name="uni061F" unicode="&#x61f;" horiz-adv-x="432" 
d="M236 222q0 19 -8 33t-28 28.5t-61 37.5q-49 28 -73.5 56.5t-33.5 63.5t-9 88q0 104 62 164t174 60q45 0 85.5 -10t68.5 -24v-157q-30 12 -64 19.5t-83 7.5q-73 0 -105.5 -18t-32.5 -44q0 -19 18 -34t63 -40l33 -19q54 -32 78.5 -56.5t32.5 -56t8 -90.5v-36h-125v27z
M205 63l90 89l91 -89l-91 -91z" />
    <glyph glyph-name="uni0621" unicode="&#x621;" horiz-adv-x="447" 
d="M345 192.5q46 3.5 74 7.5v-175q-169 -23 -397 -37v172l23 2l30 3q-15 32 -15 81q0 93 51.5 147t145.5 54q28 0 51 -6t37 -13t17 -9v-148q-3 1 -16 5t-34.5 7.5t-47.5 3.5q-53 0 -76.5 -12.5t-23.5 -39.5q0 -23 21 -34.5t75 -11.5q39 0 85 3.5z" />
    <glyph glyph-name="uni0622" unicode="&#x622;" horiz-adv-x="263" 
d="M63 703h137v-703h-137v703zM126 775q-27 9 -46 9q-22 0 -36.5 -4t-21.5 -8.5t-8 -5.5v89q12 7 29 13t32 6q18 0 50 -8q3 -1 20 -5t40 -4q20 0 34.5 3.5t21.5 7l9 4.5v-89q-2 -1 -9 -5.5t-22.5 -8.5t-37.5 -4q-23 0 -55 10z" />
    <glyph glyph-name="uni0623" unicode="&#x623;" horiz-adv-x="263" 
d="M63 703h137v-703h-137v703zM198 853q31 3 37 3v-76q-61 -8 -213 -19v75l28 2q-11 17 -11 41q0 47 30 73.5t74 26.5q20 0 42.5 -7t22.5 -8v-74q-5 2 -24.5 6.5t-40.5 4.5q-48 0 -48 -26q0 -15 8.5 -20t33.5 -5q30 0 61 3z" />
    <glyph glyph-name="uni0624" unicode="&#x624;" horiz-adv-x="496" 
d="M408 367.5q52 -80.5 52 -204.5v-43q0 -110 -35 -193.5t-101 -130t-156 -46.5q-55 0 -96 14.5t-56 32.5v158q21 -12 58.5 -22t82.5 -10q103 0 154.5 45t54.5 142v2q-13 -41 -50 -71t-96 -30q-90 0 -133.5 49t-43.5 137q0 67 24 124.5t71 92t115 34.5q103 0 155 -80.5z
M316 186q24 6 33 18q-3 31 -29.5 55t-77.5 24q-46 0 -73 -17.5t-27 -44.5q0 -23 20.5 -32t76.5 -9q53 0 77 6zM312 591q31 3 37 3v-76q-61 -8 -213 -19v75l28 2q-11 17 -11 41q0 47 30 73.5t74 26.5q20 0 42.5 -7t22.5 -8v-74q-5 2 -24.5 6.5t-40.5 4.5q-48 0 -48 -26
q0 -15 8.5 -20t33.5 -5q30 0 61 3z" />
    <glyph glyph-name="uni0625" unicode="&#x625;" horiz-adv-x="263" 
d="M63 748h137v-748h-137v748zM201 -185q31 3 37 3v-76q-61 -8 -213 -19v75l28 2q-11 17 -11 41q0 47 30 73.5t74 26.5q20 0 42.5 -7t22.5 -8v-74q-5 2 -24.5 6.5t-40.5 4.5q-48 0 -48 -26q0 -15 8.5 -20t33.5 -5q30 0 61 3z" />
    <glyph glyph-name="uni0626" unicode="&#x626;" horiz-adv-x="799" 
d="M689 508q25 -6 38 -12.5t16 -8.5l-1 -164q-4 2 -21 7.5t-46.5 10.5t-64.5 5q-42 0 -79 -9.5t-59.5 -24.5t-22.5 -32q0 -18 25.5 -27.5t90.5 -24.5l66 -16q67 -17 99.5 -59.5t32.5 -119.5q0 -127 -95 -200.5t-280 -73.5q-186 0 -273.5 79.5t-87.5 248.5q0 47 7.5 92
t15.5 74t11 37h129q-3 -7 -11 -34.5t-15.5 -66t-7.5 -74.5q0 -65 23.5 -102.5t76.5 -54t146 -16.5q85 0 143 11t85.5 29.5t27.5 39.5q0 12 -11.5 19t-38 13.5t-86.5 18.5q-71 14 -109.5 38.5t-53.5 61.5t-15 96q0 65 38 121t104 90t145 34q33 0 58 -6zM192 440q31 3 37 3
v-76q-61 -8 -213 -19v75l28 2q-11 17 -11 41q0 47 30 73.5t74 26.5q20 0 42.5 -7t22.5 -8v-74q-5 2 -24.5 6.5t-40.5 4.5q-48 0 -48 -26q0 -15 8.5 -20t33.5 -5q30 0 61 3z" />
    <glyph glyph-name="uni0627" unicode="&#x627;" horiz-adv-x="263" 
d="M63 748h137v-748h-137v748z" />
    <glyph glyph-name="uni0628" unicode="&#x628;" horiz-adv-x="885" 
d="M812 118.5q-37 -62.5 -129 -90.5t-262 -28q-158 0 -242 25t-118 82t-34 160q0 37 5 70.5t10 54t7 25.5h125q-2 -4 -7 -19.5t-9.5 -40t-4.5 -51.5q0 -50 24 -76t83.5 -36.5t176.5 -10.5t176.5 10t83.5 34.5t24 71.5q0 59 -12 135h126q14 -70 14 -142q0 -111 -37 -173.5z
M352 -144l90 86l89 -86l-89 -88z" />
    <glyph glyph-name="uni0629" unicode="&#x629;" horiz-adv-x="501" 
d="M78.5 53q51.5 -53 160.5 -53q116 0 171 53t55 165q0 133 -57.5 207.5t-159.5 74.5q-104 0 -162.5 -74.5t-58.5 -207.5q0 -112 51.5 -165zM167 306.5q28 24.5 79 24.5q50 0 78 -24.5t28 -69.5q0 -29 -23.5 -41.5t-82.5 -12.5t-83 12t-24 42q0 45 28 69.5zM313 560l-66 65
l-65 -65l-79 80l79 80l65 -65l66 65l78 -80z" />
    <glyph glyph-name="uni062A" unicode="&#x62a;" horiz-adv-x="885" 
d="M812 118.5q-37 -62.5 -129 -90.5t-262 -28q-158 0 -242 25t-118 82t-34 160q0 37 5 70.5t10 54t7 25.5h125q-2 -4 -7 -19.5t-9.5 -40t-4.5 -51.5q0 -50 24 -76t83.5 -36.5t176.5 -10.5t176.5 10t83.5 34.5t24 71.5q0 59 -12 135h126q14 -70 14 -142q0 -111 -37 -173.5z
M501 424l-66 65l-65 -65l-79 80l79 80l65 -65l66 65l78 -80z" />
    <glyph glyph-name="uni062B" unicode="&#x62b;" horiz-adv-x="885" 
d="M812 118.5q-37 -62.5 -129 -90.5t-262 -28q-158 0 -242 25t-118 82t-34 160q0 37 5 70.5t10 54t7 25.5h125q-2 -4 -7 -19.5t-9.5 -40t-4.5 -51.5q0 -50 24 -76t83.5 -36.5t176.5 -10.5t176.5 10t83.5 34.5t24 71.5q0 59 -12 135h126q14 -70 14 -142q0 -111 -37 -173.5z
M436 555l-68 69l68 70l70 -70zM500 423l-65 66l-65 -66l-78 81l78 79l65 -64l65 64l79 -79z" />
    <glyph glyph-name="uni062C" unicode="&#x62c;" horiz-adv-x="673" 
d="M343.5 106q-102.5 -40 -153 -79t-50.5 -88q0 -58 51 -84.5t168 -26.5q80 0 143 10t102.5 22t39.5 14l1 -173q-43 -17 -61.5 -23.5t-83.5 -18t-152 -11.5q-166 0 -243.5 72.5t-77.5 209.5v9q0 83 41.5 143t128.5 106.5t232 89.5q-139 38 -217 38q-41 0 -75.5 -11
t-56.5 -24t-22 -15v161q0 2 19.5 17t54.5 27.5t84 12.5q47 0 92 -11.5t118 -35.5q74 -25 124.5 -38.5t108.5 -18.5l-10 -168q-203 -66 -305.5 -106zM299 -22l90 86l89 -86l-89 -88z" />
    <glyph glyph-name="uni062D" unicode="&#x62d;" horiz-adv-x="673" 
d="M343.5 106q-102.5 -40 -153 -79t-50.5 -88q0 -58 51 -84.5t168 -26.5q80 0 143 10t102.5 22t39.5 14l1 -173q-43 -17 -61.5 -23.5t-83.5 -18t-152 -11.5q-166 0 -243.5 72.5t-77.5 209.5v9q0 83 41.5 143t128.5 106.5t232 89.5q-139 38 -217 38q-41 0 -75.5 -11
t-56.5 -24t-22 -15v161q0 2 19.5 17t54.5 27.5t84 12.5q47 0 92 -11.5t118 -35.5q74 -25 124.5 -38.5t108.5 -18.5l-10 -168q-203 -66 -305.5 -106z" />
    <glyph glyph-name="uni062E" unicode="&#x62e;" horiz-adv-x="673" 
d="M343.5 106q-102.5 -40 -153 -79t-50.5 -88q0 -58 51 -84.5t168 -26.5q80 0 143 10t102.5 22t39.5 14l1 -173q-43 -17 -61.5 -23.5t-83.5 -18t-152 -11.5q-166 0 -243.5 72.5t-77.5 209.5v9q0 83 41.5 143t128.5 106.5t232 89.5q-139 38 -217 38q-41 0 -75.5 -11
t-56.5 -24t-22 -15v161q0 2 19.5 17t54.5 27.5t84 12.5q47 0 92 -11.5t118 -35.5q74 -25 124.5 -38.5t108.5 -18.5l-10 -168q-203 -66 -305.5 -106zM261 644l89 86l89 -86l-89 -88z" />
    <glyph glyph-name="uni062F" unicode="&#x62f;" horiz-adv-x="494" 
d="M105 3.5q-37 7.5 -57.5 16t-20.5 9.5l1 178q23 -10 67.5 -17t110.5 -7q71 0 105.5 10.5t34.5 37.5q0 39 -49.5 73.5t-173.5 81.5l56 160q153 -54 216 -134t63 -185q0 -231 -264 -231q-52 0 -89 7.5z" />
    <glyph glyph-name="uni0630" unicode="&#x630;" horiz-adv-x="494" 
d="M105 3.5q-37 7.5 -57.5 16t-20.5 9.5l1 178q23 -10 67.5 -17t110.5 -7q71 0 105.5 10.5t34.5 37.5q0 39 -49.5 73.5t-173.5 81.5l56 160q153 -54 216 -134t63 -185q0 -231 -264 -231q-52 0 -89 7.5zM147 689l89 86l89 -86l-89 -88z" />
    <glyph glyph-name="uni0631" unicode="&#x631;" horiz-adv-x="333" 
d="M263.5 -64.5q-33.5 -86.5 -94.5 -134t-139 -47.5q-30 0 -51.5 5.5t-32.5 11.5t-13 8v171q33 -13 83 -13q69 0 111.5 51t42.5 151q0 54 -7 100t-20 100h130q24 -89 24 -204q0 -113 -33.5 -199.5z" />
    <glyph glyph-name="uni0632" unicode="&#x632;" horiz-adv-x="333" 
d="M263.5 -64.5q-33.5 -86.5 -94.5 -134t-139 -47.5q-30 0 -51.5 5.5t-32.5 11.5t-13 8v171q33 -13 83 -13q69 0 111.5 51t42.5 151q0 54 -7 100t-20 100h130q24 -89 24 -204q0 -113 -33.5 -199.5zM120 497l89 86l89 -86l-89 -88z" />
    <glyph glyph-name="uni0633" unicode="&#x633;" horiz-adv-x="1245" 
d="M1201.5 318.5q7.5 -42.5 7.5 -89.5q0 -114 -50 -171.5t-138 -57.5q-56 0 -90.5 21.5t-49.5 67.5q-28 -89 -139 -89q-53 0 -81 23q-18 -128 -96.5 -191t-224.5 -63q-111 0 -180 33.5t-101 104t-32 184.5q0 55 8.5 101.5t19 78.5t10.5 29h129q-3 -7 -12 -34.5t-17.5 -69
t-8.5 -84.5q0 -60 18.5 -94.5t61 -50t115.5 -15.5t114.5 17.5t59.5 53.5t18 95q-1 54 -7 103t-20 128h130q8 -47 12 -73l6 -37q5 -33 21.5 -44.5t59.5 -11.5q44 0 62 15.5t18 54.5v96h127v-98q0 -38 14.5 -53t51.5 -15q35 0 49 16.5t14 55.5q0 22 -4 49t-9 47t-6 26h125
q7 -16 14.5 -58.5z" />
    <glyph glyph-name="uni0634" unicode="&#x634;" horiz-adv-x="1245" 
d="M1201.5 318.5q7.5 -42.5 7.5 -89.5q0 -114 -50 -171.5t-138 -57.5q-56 0 -90.5 21.5t-49.5 67.5q-28 -89 -139 -89q-53 0 -81 23q-18 -128 -96.5 -191t-224.5 -63q-111 0 -180 33.5t-101 104t-32 184.5q0 55 8.5 101.5t19 78.5t10.5 29h129q-3 -7 -12 -34.5t-17.5 -69
t-8.5 -84.5q0 -60 18.5 -94.5t61 -50t115.5 -15.5t114.5 17.5t59.5 53.5t18 95q-1 54 -7 103t-20 128h130q8 -47 12 -73l6 -37q5 -33 21.5 -44.5t59.5 -11.5q44 0 62 15.5t18 54.5v96h127v-98q0 -38 14.5 -53t51.5 -15q35 0 49 16.5t14 55.5q0 22 -4 49t-9 47t-6 26h125
q7 -16 14.5 -58.5zM888 539l-68 69l68 70l70 -70zM952 407l-65 66l-65 -66l-78 81l78 79l65 -64l65 64l79 -79z" />
    <glyph glyph-name="uni0635" unicode="&#x635;" horiz-adv-x="1352" 
d="M1206.5 475.5q52.5 -34.5 81 -97t28.5 -144.5q0 -113 -64 -173.5t-184 -60.5h-304q-70 0 -102 32q-16 -132 -95 -197.5t-227 -65.5q-111 0 -180 33.5t-101 104t-32 184.5q0 55 8.5 101.5t19 78.5t10.5 29h129q-3 -7 -12 -34.5t-17.5 -69t-8.5 -84.5q0 -60 18.5 -94.5
t61 -50t115.5 -15.5t114.5 17.5t59.5 53.5t18 95q-1 53 -7 101t-20 127h130q9 -52 12 -71l6 -36q3 -22 9 -33.5t20 -17.5q71 119 133 189.5t123.5 101.5t133.5 31q71 0 123.5 -34.5zM1174.5 196q28.5 13 28.5 46q0 41 -33.5 70t-93.5 29q-84 0 -149.5 -38t-126.5 -120h274
q72 0 100.5 13z" />
    <glyph glyph-name="uni0636" unicode="&#x636;" horiz-adv-x="1352" 
d="M1206.5 475.5q52.5 -34.5 81 -97t28.5 -144.5q0 -113 -64 -173.5t-184 -60.5h-304q-70 0 -102 32q-16 -132 -95 -197.5t-227 -65.5q-111 0 -180 33.5t-101 104t-32 184.5q0 55 8.5 101.5t19 78.5t10.5 29h129q-3 -7 -12 -34.5t-17.5 -69t-8.5 -84.5q0 -60 18.5 -94.5
t61 -50t115.5 -15.5t114.5 17.5t59.5 53.5t18 95q-1 53 -7 101t-20 127h130q9 -52 12 -71l6 -36q3 -22 9 -33.5t20 -17.5q71 119 133 189.5t123.5 101.5t133.5 31q71 0 123.5 -34.5zM1174.5 196q28.5 13 28.5 46q0 41 -33.5 70t-93.5 29q-84 0 -149.5 -38t-126.5 -120h274
q72 0 100.5 13zM1001 661l89 86l89 -86l-89 -88z" />
    <glyph glyph-name="uni0637" unicode="&#x637;" horiz-adv-x="775" 
d="M676.5 435q62.5 -75 62.5 -201q0 -114 -63 -174t-184 -60h-231q-107 0 -160.5 8.5t-90.5 25.5v178q39 -19 104 -24q37 62 49 79v481h137v-249q0 -40 -21 -86q53 51 107.5 74t117.5 23q110 0 172.5 -75zM596.5 195.5q30.5 12.5 30.5 46.5q0 41 -33 70t-95 29
q-86 0 -150 -37t-126 -121h23h252q68 0 98.5 12.5z" />
    <glyph glyph-name="uni0638" unicode="&#x638;" horiz-adv-x="775" 
d="M676.5 435q62.5 -75 62.5 -201q0 -114 -63 -174t-184 -60h-231q-107 0 -160.5 8.5t-90.5 25.5v178q39 -19 104 -24q37 62 49 79v481h137v-249q0 -40 -21 -86q53 51 107.5 74t117.5 23q110 0 172.5 -75zM596.5 195.5q30.5 12.5 30.5 46.5q0 41 -33 70t-95 29
q-86 0 -150 -37t-126 -121h23h252q68 0 98.5 12.5zM406 659l89 86l89 -86l-89 -88z" />
    <glyph glyph-name="uni0639" unicode="&#x639;" horiz-adv-x="573" 
d="M593 -306q-1 0 -27 -11.5t-93.5 -23t-144.5 -11.5q-153 0 -227 66.5t-74 199.5q0 88 35.5 149t120.5 107q-49 18 -78.5 64t-29.5 119q0 118 63 180t177 62q35 0 65 -8.5t49.5 -19t19.5 -11.5l-1 -160q-5 3 -25 11t-51.5 16t-66.5 8q-56 0 -90 -22t-34 -60
q0 -41 34.5 -60.5t114.5 -19.5q31 0 86 7.5t106 16.5v-179q-164 -33 -249 -64t-112.5 -60t-27.5 -64q0 -49 49.5 -72t155.5 -23q74 0 130.5 8.5t90 19t33.5 11.5z" />
    <glyph glyph-name="uni063A" unicode="&#x63a;" horiz-adv-x="573" 
d="M593 -306q-1 0 -27 -11.5t-93.5 -23t-144.5 -11.5q-153 0 -227 66.5t-74 199.5q0 88 35.5 149t120.5 107q-49 18 -78.5 64t-29.5 119q0 118 63 180t177 62q35 0 65 -8.5t49.5 -19t19.5 -11.5l-1 -160q-5 3 -25 11t-51.5 16t-66.5 8q-56 0 -90 -22t-34 -60
q0 -41 34.5 -60.5t114.5 -19.5q31 0 86 7.5t106 16.5v-179q-164 -33 -249 -64t-112.5 -60t-27.5 -64q0 -49 49.5 -72t155.5 -23q74 0 130.5 8.5t90 19t33.5 11.5zM207 747l89 86l89 -86l-89 -88z" />
    <glyph glyph-name="uni0640" unicode="&#x640;" horiz-adv-x="310" 
d="M-17 180l17 3h310l17 -3v-177l-17 -3h-310l-17 3v177z" />
    <glyph glyph-name="uni0641" unicode="&#x641;" horiz-adv-x="912" 
d="M826.5 542q49.5 -75 49.5 -190v-50q0 -119 -37.5 -183t-131 -91.5t-272.5 -27.5q-154 0 -242 26.5t-127 86.5t-39 164q0 39 4.5 75t9.5 59t7 29h126q-1 -5 -5.5 -23t-8.5 -45.5t-4 -55.5q0 -50 27.5 -78.5t90 -41.5t171.5 -13q133 0 199.5 6.5t94.5 25.5t28 58v25
q-32 -63 -126 -63q-83 0 -122.5 43t-39.5 114q0 61 22.5 112t68 82t109.5 31q98 0 147.5 -75zM735 363.5q23 3.5 31 12.5q-1 31 -25.5 54t-72.5 23q-40 0 -65 -16t-25 -40q0 -21 18.5 -29t69.5 -8q46 0 69 3.5zM590 765l89 86l89 -86l-89 -88z" />
    <glyph glyph-name="uni0642" unicode="&#x642;" horiz-adv-x="788" 
d="M700 365.5q52 -82.5 52 -209.5v-37q0 -124 -36 -202t-116.5 -116.5t-215.5 -38.5q-136 0 -213.5 34.5t-110.5 106.5t-33 193q0 52 8 98t16.5 74t11.5 35h130q-3 -7 -12 -34t-17 -66.5t-8 -77.5q0 -68 22.5 -106.5t75 -56t147.5 -17.5q103 0 155 17t69.5 52.5t17.5 101.5
v5q-29 -95 -140 -95q-84 0 -125.5 48.5t-41.5 129.5q0 65 24 121t71.5 89.5t114.5 33.5q102 0 154 -82.5zM609 188q24 5 33 15q-2 32 -28.5 56t-78.5 24q-45 0 -72 -17.5t-27 -44.5q0 -21 20.5 -29.5t76.5 -8.5q52 0 76 5zM604 508l-66 65l-65 -65l-79 80l79 80l65 -65
l66 65l78 -80z" />
    <glyph glyph-name="uni0643" unicode="&#x643;" horiz-adv-x="858" 
d="M795 283q0 -107 -37 -168t-122 -88t-235 -27q-148 0 -228.5 25t-113 82t-32.5 160q0 34 4 64t8.5 48.5t6.5 23.5h125q-1 -4 -5.5 -17.5t-8.5 -35t-4 -44.5q0 -50 22 -76t77.5 -36.5t162.5 -10.5q100 0 151 7t71.5 25t20.5 52v481h137v-465zM530 561q-78 -22 -103 -31.5
t-25 -16.5q0 -3 13.5 -6t27 -5.5t20.5 -3.5q45 -7 63 -27t18 -60q0 -55 -34 -82.5t-115 -27.5q-35 0 -58 3.5t-46 12.5v91q21 -6 44 -8.5t59 -2.5q85 0 85 12q0 3 -10.5 6t-19.5 4.5t-13 2.5l-51 11q-27 7 -38 27.5t-11 56.5q0 43 43 73.5t151 63.5v-93z" />
    <glyph glyph-name="uni0644" unicode="&#x644;" horiz-adv-x="675" 
d="M612 131q0 -166 -74.5 -249t-228.5 -83q-148 0 -215 73.5t-67 234.5q0 53 8.5 98t19 76t10.5 28h129q-3 -7 -12 -33t-17.5 -65t-8.5 -76q0 -84 36.5 -118t126.5 -34q59 0 93 15.5t48.5 48t14.5 87.5v614h137v-617z" />
    <glyph glyph-name="uni0645" unicode="&#x645;" horiz-adv-x="608" 
d="M516 400q53 -61 56 -176q0 -116 -60.5 -170t-170.5 -54h-142q-28 0 -37 -6.5t-9 -29.5l1 -296h-131v336q0 88 38.5 130t110.5 48q-10 28 -10 60q0 64 27.5 113.5t75.5 77.5t109 28q89 0 142 -61zM444.5 192q22.5 9 22.5 32q-1 32 -29 49.5t-70 17.5q-44 0 -72.5 -20
t-28.5 -55q0 -19 9 -33h83q63 0 85.5 9z" />
    <glyph glyph-name="uni0646" unicode="&#x646;" horiz-adv-x="702" 
d="M528 281.5q-9 56.5 -28 128.5h133q33 -126 33 -254q0 -170 -79 -253.5t-247 -83.5q-111 0 -180 34.5t-101 106.5t-32 188q0 53 8.5 98t19 76t10.5 28h129q-3 -7 -12 -34.5t-17.5 -69t-8.5 -84.5q0 -60 18.5 -94.5t61 -50t115.5 -15.5q103 0 144.5 38t41.5 123
q0 62 -9 118.5zM249 526l89 86l89 -86l-89 -88z" />
    <glyph glyph-name="uni0647" unicode="&#x647;" horiz-adv-x="501" 
d="M78.5 53q51.5 -53 160.5 -53q116 0 171 53t55 165q0 133 -57.5 207.5t-159.5 74.5q-104 0 -162.5 -74.5t-58.5 -207.5q0 -112 51.5 -165zM167 306.5q28 24.5 79 24.5q50 0 78 -24.5t28 -69.5q0 -29 -23.5 -41.5t-82.5 -12.5t-83 12t-24 42q0 45 28 69.5z" />
    <glyph glyph-name="uni0648" unicode="&#x648;" horiz-adv-x="496" 
d="M408 367.5q52 -80.5 52 -204.5v-43q0 -110 -35 -193.5t-101 -130t-156 -46.5q-55 0 -96 14.5t-56 32.5v158q21 -12 58.5 -22t82.5 -10q103 0 154.5 45t54.5 142v2q-13 -41 -50 -71t-96 -30q-90 0 -133.5 49t-43.5 137q0 67 24 124.5t71 92t115 34.5q103 0 155 -80.5z
M316 186q24 6 33 18q-3 31 -29.5 55t-77.5 24q-46 0 -73 -17.5t-27 -44.5q0 -23 20.5 -32t76.5 -9q53 0 77 6z" />
    <glyph glyph-name="uni0649" unicode="&#x649;" horiz-adv-x="799" 
d="M689 508q25 -6 38 -12.5t16 -8.5l-1 -164q-4 2 -21 7.5t-46.5 10.5t-64.5 5q-42 0 -79 -9.5t-59.5 -24.5t-22.5 -32q0 -18 25.5 -27.5t90.5 -24.5l66 -16q67 -17 99.5 -59.5t32.5 -119.5q0 -127 -95 -200.5t-280 -73.5q-186 0 -273.5 79.5t-87.5 248.5q0 47 7.5 92
t15.5 74t11 37h129q-3 -7 -11 -34.5t-15.5 -66t-7.5 -74.5q0 -65 23.5 -102.5t76.5 -54t146 -16.5q85 0 143 11t85.5 29.5t27.5 39.5q0 12 -11.5 19t-38 13.5t-86.5 18.5q-71 14 -109.5 38.5t-53.5 61.5t-15 96q0 65 38 121t104 90t145 34q33 0 58 -6z" />
    <glyph glyph-name="uni064A" unicode="&#x64a;" horiz-adv-x="799" 
d="M689 508q25 -6 38 -12.5t16 -8.5l-1 -164q-4 2 -21 7.5t-46.5 10.5t-64.5 5q-42 0 -79 -9.5t-59.5 -24.5t-22.5 -32q0 -18 25.5 -27.5t90.5 -24.5l66 -16q67 -17 99.5 -59.5t32.5 -119.5q0 -127 -95 -200.5t-280 -73.5q-186 0 -273.5 79.5t-87.5 248.5q0 47 7.5 92
t15.5 74t11 37h129q-3 -7 -11 -34.5t-15.5 -66t-7.5 -74.5q0 -65 23.5 -102.5t76.5 -54t146 -16.5q85 0 143 11t85.5 29.5t27.5 39.5q0 12 -11.5 19t-38 13.5t-86.5 18.5q-71 14 -109.5 38.5t-53.5 61.5t-15 96q0 65 38 121t104 90t145 34q33 0 58 -6zM449 -449l-63 63
l-63 -63l-74 77l74 76l63 -62l63 62l75 -76z" />
    <glyph glyph-name="uni064B" unicode="&#x64b;" 
d="M-10 589l238 15v-65l-238 -17v67zM-10 692l238 15v-65l-238 -17v67z" />
    <glyph glyph-name="uni064C" unicode="&#x64c;" 
d="M305 648q0 -66 -30 -99.5t-93 -33.5q-52 0 -78 20.5t-26 71.5q0 8 -2 11t-7 3q-10 0 -17.5 -1t-10.5 -1l1 55q3 2 15.5 5.5t27.5 3.5q19 0 28 -6.5t9 -30.5q0 -27 3.5 -39.5t17 -19t44.5 -6.5q37 0 52 8t19 29q-16 -14 -48 -14t-49 13.5t-17 45.5q0 46 21 69.5t60 23.5
q80 0 80 -108zM192 658.5q6 -3.5 26 -3.5q31 0 41 5q-2 16 -10 24t-28 8q-35 0 -35 -22q0 -8 6 -11.5z" />
    <glyph glyph-name="uni064D" unicode="&#x64d;" 
d="M35 -203l238 15v-65l-238 -17v67zM33 -100l238 15v-65l-238 -17v67z" />
    <glyph glyph-name="uni064E" unicode="&#x64e;" 
d="M-19 496l238 15v-65l-238 -17v67z" />
    <glyph glyph-name="uni064F" unicode="&#x64f;" 
d="M237 397q0 -70 -38 -97t-128 -32v57q53 5 74.5 8t32 11t13.5 24q-15 -15 -48 -15q-66 0 -66 58q0 46 21 69t60 23q79 0 79 -106zM191 408q-2 16 -10 24t-26 8q-35 0 -35 -21q0 -9 6 -12.5t26 -3.5q26 0 39 5z" />
    <glyph glyph-name="uni0650" unicode="&#x650;" 
d="M-1 96l238 15v-65l-238 -17v67z" />
    <glyph glyph-name="uni0651" unicode="&#x651;" 
d="M265.5 533.5q2.5 -19.5 2.5 -38.5q0 -45 -16.5 -74t-66.5 -29q-19 0 -32.5 8.5t-20.5 23.5q-16 -32 -57 -32q-32 0 -49.5 19.5t-17.5 70.5q0 17 3 34t5.5 26.5t3.5 12.5h56q-2 -6 -7.5 -24.5t-5.5 -35.5q0 -16 5 -21.5t18 -5.5q23 0 23 20v43h57v-41q0 -14 5 -18t18 -4
t17.5 9t4.5 25t-2 32t-3 20l56 5q1 -6 3.5 -25.5z" />
    <glyph glyph-name="uni0652" unicode="&#x652;" 
d="M66.5 391q-20.5 21 -20.5 69q0 37 20 62.5t62 25.5q41 0 61.5 -22.5t20.5 -64.5q0 -43 -20.5 -67t-63.5 -24q-39 0 -59.5 21zM154.5 445.5q8.5 4.5 8.5 14.5q0 13 -9 18.5t-26 5.5q-23 0 -30 -6t-7 -19q0 -9 7.5 -13.5t27.5 -4.5t28.5 4.5z" />
    <glyph glyph-name="uni0653" unicode="&#x653;" 
d="M108 421q-27 9 -46 9q-22 0 -36.5 -4t-21.5 -8.5t-8 -5.5v89q12 7 29 13t32 6q18 0 50 -8q3 -1 20 -5t40 -4q20 0 34.5 3.5t21.5 7l9 4.5v-89q-2 -1 -9 -5.5t-22.5 -8.5t-37.5 -4q-23 0 -55 10z" />
    <glyph glyph-name="uni0654" unicode="&#x654;" 
d="M184 488q31 3 37 3v-76q-61 -8 -213 -19v75l28 2q-11 17 -11 41q0 47 30 73.5t74 26.5q20 0 42.5 -7t22.5 -8v-74q-5 2 -24.5 6.5t-40.5 4.5q-48 0 -48 -26q0 -15 8.5 -20t33.5 -5q30 0 61 3z" />
    <glyph glyph-name="uni0655" unicode="&#x655;" 
d="M184 104q31 3 37 3v-76q-61 -8 -213 -19v75l28 2q-11 17 -11 41q0 47 30 73.5t74 26.5q20 0 42.5 -7t22.5 -8v-74q-5 2 -24.5 6.5t-40.5 4.5q-48 0 -48 -26q0 -15 8.5 -20t33.5 -5q30 0 61 3z" />
    <glyph glyph-name="uni0656" unicode="&#x656;" 
d="M27 117h65v-145h-65v145z" />
    <glyph glyph-name="uni0657" unicode="&#x657;" 
d="M162.5 760q-21.5 -3 -32 -11t-13.5 -24q15 15 48 15q66 0 66 -58q0 -46 -21 -69t-60 -23q-79 0 -79 106q0 70 38 97t128 32v-57q-53 -5 -74.5 -8zM117 685q2 -16 10 -24t26 -8q35 0 35 21q0 9 -6 12.5t-26 3.5q-27 0 -39 -5z" />
    <glyph glyph-name="uni0660" unicode="&#x660;" horiz-adv-x="347" 
d="M48 260l125 124l126 -124l-126 -126z" />
    <glyph glyph-name="uni0661" unicode="&#x661;" horiz-adv-x="254" 
d="M63 626h129v-626h-129v626z" />
    <glyph glyph-name="uni0662" unicode="&#x662;" horiz-adv-x="450" 
d="M104 157q-32 149 -41.5 200t-9.5 83q0 88 63 138.5t175 50.5q70 0 133 -20v-161q-39 10 -67.5 14.5t-63.5 4.5q-58 0 -84.5 -13.5t-26.5 -39.5q0 -27 11.5 -83t55.5 -246l20 -85h-132z" />
    <glyph glyph-name="uni0663" unicode="&#x663;" horiz-adv-x="631" 
d="M598.5 575.5q6.5 -38.5 6.5 -68.5q0 -98 -39 -153t-106 -55q-76 0 -103 64q-23 -64 -92 -64q-13 0 -29 4l51 -302l-133 -1l-101 626h129l17 -101v1q5 -35 15.5 -46.5t37.5 -11.5q26 0 37 14t11 50v62h98l1 -62q0 -36 10 -50t33 -14q46 0 46 58q0 24 -6 57t-8 43h115
q3 -12 9.5 -50.5z" />
    <glyph glyph-name="uni0664" unicode="&#x664;" horiz-adv-x="505" 
d="M358.5 173q42.5 4 71 8t36.5 5v-160q-25 -11 -78 -18.5t-121 -7.5q-80 0 -126.5 17.5t-67 55t-20.5 101.5q0 49 21.5 82.5t67.5 56.5q-74 31 -74 113q0 59 31 98.5t106.5 65.5t207.5 40v-152q-102 -12 -149 -19.5t-65.5 -17t-18.5 -24.5q0 -14 14 -21t55 -10t127 -3v-114
q-84 -11 -128.5 -20.5t-63.5 -20t-19 -26.5q0 -17 23.5 -25t86.5 -8q41 0 83.5 4z" />
    <glyph glyph-name="uni0665" unicode="&#x665;" horiz-adv-x="510" 
d="M125.5 20.5q-48.5 23.5 -70 73.5t-21.5 133q0 146 58.5 227.5t164.5 81.5q104 0 162 -82t58 -227q0 -83 -21.5 -133t-69 -73.5t-129.5 -23.5q-83 0 -131.5 23.5zM327.5 172.5q24.5 6.5 34.5 21t10 40.5q0 62 -30.5 97.5t-84.5 35.5q-58 0 -88 -34t-30 -99q0 -26 10 -40.5
t35.5 -21t72.5 -6.5q46 0 70.5 6.5z" />
    <glyph glyph-name="uni0666" unicode="&#x666;" horiz-adv-x="441" 
d="M270 0q-2 36 -10 264l-8 223q-32 -39 -114 -39q-34 0 -58.5 3t-36.5 6t-15 4l-2 164q3 -1 17.5 -3.5t44 -5t69.5 -2.5q56 0 103 3.5t75 7t35 4.5l22 -629h-122z" />
    <glyph glyph-name="uni0667" unicode="&#x667;" horiz-adv-x="558" 
d="M537 626l-182 -626h-151l-182 626h132l128 -471l122 471h133z" />
    <glyph glyph-name="uni0668" unicode="&#x668;" horiz-adv-x="558" 
d="M404 0l-122 471l-128 -471h-132l182 626h151l182 -626h-133z" />
    <glyph glyph-name="uni0669" unicode="&#x669;" horiz-adv-x="495" 
d="M313 0l-9 306q-13 -30 -43 -49t-82 -19q-84 0 -118.5 52t-34.5 127q0 60 23 109t67 77.5t105 28.5q103 0 148.5 -65.5t50.5 -186.5l15 -379zM297 416q-8 37 -29.5 54t-61.5 17q-42 0 -63.5 -15t-21.5 -39q0 -20 18 -27t60 -7q64 0 98 17z" />
    <glyph glyph-name="uni066A" unicode="&#x66a;" horiz-adv-x="715" 
d="M607 666l-364 -666h-151l365 666h150zM17 486l125 124l126 -124l-126 -126zM432 169l125 124l126 -124l-126 -126z" />
    <glyph glyph-name="uni066B" unicode="&#x66b;" horiz-adv-x="312" 
d="M74 0l39 270h125l-39 -270h-125z" />
    <glyph glyph-name="uni066C" unicode="&#x66c;" horiz-adv-x="312" 
d="M74 0l39 270h125l-39 -270h-125z" />
    <glyph glyph-name="uni066D" unicode="&#x66d;" horiz-adv-x="440" 
d="M159 482l-125 80l149 -5l36 140l39 -140l149 5l-126 -80l55 -140l-117 94l-115 -94z" />
    <glyph glyph-name="uni066E" unicode="&#x66e;" horiz-adv-x="885" 
d="M812 118.5q-37 -62.5 -129 -90.5t-262 -28q-158 0 -242 25t-118 82t-34 160q0 37 5 70.5t10 54t7 25.5h125q-2 -4 -7 -19.5t-9.5 -40t-4.5 -51.5q0 -50 24 -76t83.5 -36.5t176.5 -10.5t176.5 10t83.5 34.5t24 71.5q0 59 -12 135h126q14 -70 14 -142q0 -111 -37 -173.5z
" />
    <glyph glyph-name="uni066F" unicode="&#x66f;" horiz-adv-x="788" 
d="M700 365.5q52 -82.5 52 -209.5v-37q0 -124 -36 -202t-116.5 -116.5t-215.5 -38.5q-136 0 -213.5 34.5t-110.5 106.5t-33 193q0 52 8 98t16.5 74t11.5 35h130q-3 -7 -12 -34t-17 -66.5t-8 -77.5q0 -68 22.5 -106.5t75 -56t147.5 -17.5q103 0 155 17t69.5 52.5t17.5 101.5
v5q-29 -95 -140 -95q-84 0 -125.5 48.5t-41.5 129.5q0 65 24 121t71.5 89.5t114.5 33.5q102 0 154 -82.5zM609 188q24 5 33 15q-2 32 -28.5 56t-78.5 24q-45 0 -72 -17.5t-27 -44.5q0 -21 20.5 -29.5t76.5 -8.5q52 0 76 5z" />
    <glyph glyph-name="uni0670" unicode="&#x670;" 
d="M27 936h65v-145h-65v145z" />
    <glyph glyph-name="uni067E" unicode="&#x67e;" horiz-adv-x="885" 
d="M812 118.5q-37 -62.5 -129 -90.5t-262 -28q-158 0 -242 25t-118 82t-34 160q0 37 5 70.5t10 54t7 25.5h125q-2 -4 -7 -19.5t-9.5 -40t-4.5 -51.5q0 -50 24 -76t83.5 -36.5t176.5 -10.5t176.5 10t83.5 34.5t24 71.5q0 59 -12 135h126q14 -70 14 -142q0 -111 -37 -173.5z
M376 -215l-79 80l79 80l65 -65l65 65l79 -80l-79 -80l-65 65zM441 -184l70 -69l-70 -69l-68 69z" />
    <glyph glyph-name="uni0686" unicode="&#x686;" horiz-adv-x="673" 
d="M649 212q-203 -66 -305.5 -106t-153 -79t-50.5 -88q0 -58 51 -84.5t168 -26.5q80 0 143 10t102.5 22t39.5 14l1 -173q-43 -17 -61.5 -23.5t-83.5 -18t-152 -11.5q-166 0 -243.5 72.5t-77.5 209.5v9q0 83 41.5 143t128.5 106.5t232 89.5q-139 38 -217 38q-41 0 -75.5 -11
t-56.5 -24t-22 -15v161q0 2 19.5 17t54.5 27.5t84 12.5q47 0 92 -11.5t118 -35.5q74 -25 124.5 -38.5t108.5 -18.5zM516 13l-61 -61l-49 50l-50 -50l-61 61l61 61l50 -49l49 49zM406 -24l53 -53l-53 -53l-53 53z" />
    <glyph glyph-name="uni0698" unicode="&#x698;" horiz-adv-x="333" 
d="M263.5 -64.5q-33.5 -86.5 -94.5 -134t-139 -47.5q-30 0 -51.5 5.5t-32.5 11.5t-13 8v171q33 -13 83 -13q69 0 111.5 51t42.5 151q0 54 -7 100t-20 100h130q24 -89 24 -204q0 -113 -33.5 -199.5zM209 537l-68 69l68 70l70 -70zM273 405l-65 66l-65 -66l-78 81l78 79
l65 -64l65 64l79 -79z" />
    <glyph glyph-name="uni06A1" unicode="&#x6a1;" horiz-adv-x="912" 
d="M826.5 542q49.5 -75 49.5 -190v-50q0 -119 -37.5 -183t-131 -91.5t-272.5 -27.5q-154 0 -242 26.5t-127 86.5t-39 164q0 39 4.5 75t9.5 59t7 29h126q-1 -5 -5.5 -23t-8.5 -45.5t-4 -55.5q0 -50 27.5 -78.5t90 -41.5t171.5 -13q133 0 199.5 6.5t94.5 25.5t28 58v25
q-32 -63 -126 -63q-83 0 -122.5 43t-39.5 114q0 61 22.5 112t68 82t109.5 31q98 0 147.5 -75zM735 363.5q23 3.5 31 12.5q-1 31 -25.5 54t-72.5 23q-40 0 -65 -16t-25 -40q0 -21 18.5 -29t69.5 -8q46 0 69 3.5z" />
    <glyph glyph-name="uni06A4" unicode="&#x6a4;" horiz-adv-x="912" 
d="M826.5 542q49.5 -75 49.5 -190v-50q0 -119 -37.5 -183t-131 -91.5t-272.5 -27.5q-154 0 -242 26.5t-127 86.5t-39 164q0 39 4.5 75t9.5 59t7 29h126q-1 -5 -5.5 -23t-8.5 -45.5t-4 -55.5q0 -50 27.5 -78.5t90 -41.5t171.5 -13q133 0 199.5 6.5t94.5 25.5t28 58v25
q-32 -63 -126 -63q-83 0 -122.5 43t-39.5 114q0 61 22.5 112t68 82t109.5 31q98 0 147.5 -75zM735 363.5q23 3.5 31 12.5q-1 31 -25.5 54t-72.5 23q-40 0 -65 -16t-25 -40q0 -21 18.5 -29t69.5 -8q46 0 69 3.5zM679 805l-68 69l68 70l70 -70zM743 673l-65 66l-65 -66l-78 81
l78 79l65 -64l65 64l79 -79z" />
    <glyph glyph-name="uni06A9" unicode="&#x6a9;" horiz-adv-x="771" 
d="M773 598l-261 -134q118 -38 169.5 -92.5t51.5 -143.5q0 -112 -74.5 -170t-206.5 -58h-109q-124 0 -192.5 25t-96 79t-27.5 147q0 29 4 55.5t8.5 43.5t5.5 21h125l-5 -15t-8 -30.5t-4 -38.5q0 -43 17.5 -64.5t61 -30.5t128.5 -9h108q63 0 109.5 9.5t46.5 33.5q0 23 -22 43
t-80.5 41.5t-166.5 47.5v168l418 234v-162z" />
    <glyph glyph-name="uni06AF" unicode="&#x6af;" horiz-adv-x="771" 
d="M773 598l-261 -134q118 -38 169.5 -92.5t51.5 -143.5q0 -112 -74.5 -170t-206.5 -58h-109q-124 0 -192.5 25t-96 79t-27.5 147q0 29 4 55.5t8.5 43.5t5.5 21h125l-5 -15t-8 -30.5t-4 -38.5q0 -43 17.5 -64.5t61 -30.5t128.5 -9h108q63 0 109.5 9.5t46.5 33.5q0 23 -22 43
t-80.5 41.5t-166.5 47.5v168l418 234v-162zM334 651l409 231v-66l-409 -230v65z" />
    <glyph glyph-name="uni06BA" unicode="&#x6ba;" horiz-adv-x="702" 
d="M528 281.5q-9 56.5 -28 128.5h133q33 -126 33 -254q0 -170 -79 -253.5t-247 -83.5q-111 0 -180 34.5t-101 106.5t-32 188q0 53 8.5 98t19 76t10.5 28h129q-3 -7 -12 -34.5t-17.5 -69t-8.5 -84.5q0 -60 18.5 -94.5t61 -50t115.5 -15.5q103 0 144.5 38t41.5 123
q0 62 -9 118.5z" />
    <glyph glyph-name="uni06CC" unicode="&#x6cc;" horiz-adv-x="799" 
d="M689 508q25 -6 38 -12.5t16 -8.5l-1 -164q-4 2 -21 7.5t-46.5 10.5t-64.5 5q-42 0 -79 -9.5t-59.5 -24.5t-22.5 -32q0 -18 25.5 -27.5t90.5 -24.5l66 -16q67 -17 99.5 -59.5t32.5 -119.5q0 -127 -95 -200.5t-280 -73.5q-186 0 -273.5 79.5t-87.5 248.5q0 47 7.5 92
t15.5 74t11 37h129q-3 -7 -11 -34.5t-15.5 -66t-7.5 -74.5q0 -65 23.5 -102.5t76.5 -54t146 -16.5q85 0 143 11t85.5 29.5t27.5 39.5q0 12 -11.5 19t-38 13.5t-86.5 18.5q-71 14 -109.5 38.5t-53.5 61.5t-15 96q0 65 38 121t104 90t145 34q33 0 58 -6z" />
    <glyph glyph-name="uni06D4" unicode="&#x6d4;" horiz-adv-x="287" 
d="M43 88l100 99l101 -99l-101 -101z" />
    <glyph glyph-name="uni06F0" unicode="&#x6f0;" horiz-adv-x="347" 
d="M48 260l125 124l126 -124l-126 -126z" />
    <glyph glyph-name="uni06F1" unicode="&#x6f1;" horiz-adv-x="254" 
d="M63 626h129v-626h-129v626z" />
    <glyph glyph-name="uni06F2" unicode="&#x6f2;" horiz-adv-x="450" 
d="M104 157q-32 149 -41.5 200t-9.5 83q0 88 63 138.5t175 50.5q70 0 133 -20v-161q-39 10 -67.5 14.5t-63.5 4.5q-58 0 -84.5 -13.5t-26.5 -39.5q0 -27 11.5 -83t55.5 -246l20 -85h-132z" />
    <glyph glyph-name="uni06F3" unicode="&#x6f3;" horiz-adv-x="631" 
d="M598.5 575.5q6.5 -38.5 6.5 -68.5q0 -98 -39 -153t-106 -55q-76 0 -103 64q-23 -64 -92 -64q-13 0 -29 4l51 -302l-133 -1l-101 626h129l17 -101v1q5 -35 15.5 -46.5t37.5 -11.5q26 0 37 14t11 50v62h98l1 -62q0 -36 10 -50t33 -14q46 0 46 58q0 24 -6 57t-8 43h115
q3 -12 9.5 -50.5z" />
    <glyph glyph-name="uni06F4" unicode="&#x6f4;" horiz-adv-x="581" 
d="M534 446v-137q-39 -13 -87 -19t-92 -6q-46 0 -74 5.5t-45 17.5l51 -306l-133 -1l-101 626h129l27 -162q7 -14 26 -22t57 -11q-14 22 -14 59q0 73 39.5 107t127.5 34q35 0 67 -8v-118q-29 5 -60 5q-43 0 -59.5 -11t-16.5 -30q0 -17 10.5 -27t43.5 -10q42 0 104 14z" />
    <glyph glyph-name="uni06F5" unicode="&#x6f5;" horiz-adv-x="538" 
d="M458.5 462q46.5 -97 46.5 -217q0 -245 -145 -245q-34 0 -56.5 17t-34.5 44q-11 -27 -34.5 -44t-57.5 -17q-74 0 -108.5 62.5t-34.5 182.5t47.5 217t114.5 164h149q67 -67 113.5 -164zM385 199q11 16 11 49q0 66 -34.5 122t-91.5 106q-58 -50 -92.5 -106t-34.5 -122
q0 -33 11 -49t36 -16q30 0 38.5 17.5t8.5 65.5h65q0 -48 8.5 -65.5t37.5 -17.5q26 0 37 16z" />
    <glyph glyph-name="uni06F6" unicode="&#x6f6;" horiz-adv-x="431" 
d="M155 0q28 99 53 141.5t63 59t123 29.5v159q-67 -10 -111 -10q-65 0 -86 16t-21 41q0 21 24.5 38.5t81.5 17.5q47 0 90 -10v136q-46 13 -97 13q-105 0 -154.5 -47t-49.5 -144q0 -63 26 -100t77 -53q-48 -28 -83 -93.5t-65 -193.5h129z" />
    <glyph glyph-name="uni06F7" unicode="&#x6f7;" horiz-adv-x="558" 
d="M537 626l-182 -626h-151l-182 626h132l128 -471l122 471h133z" />
    <glyph glyph-name="uni06F8" unicode="&#x6f8;" horiz-adv-x="558" 
d="M404 0l-122 471l-128 -471h-132l182 626h151l182 -626h-133z" />
    <glyph glyph-name="uni06F9" unicode="&#x6f9;" horiz-adv-x="495" 
d="M313 0l-9 306q-13 -30 -43 -49t-82 -19q-84 0 -118.5 52t-34.5 127q0 60 23 109t67 77.5t105 28.5q103 0 148.5 -65.5t50.5 -186.5l15 -379zM297 416q-8 37 -29.5 54t-61.5 17q-42 0 -63.5 -15t-21.5 -39q0 -20 18 -27t60 -7q64 0 98 17z" />
    <glyph glyph-name="uni200C" unicode="&#x200c;" 
d="M-92 1043l62 64l-61 59l27 30l64 -62l63 61l28 -28l-65 -60l65 -64l-28 -27l-63 59l-64 -60z" />
    <glyph glyph-name="uni200D" unicode="&#x200d;" 
d="M-117 1121h235v-94h-39v55h-157v-55h-39v94z" />
    <glyph glyph-name="uni200E" unicode="&#x200e;" 
d="M26 1034l51 51h-174v37h174l-51 47l29 28l92 -91l-94 -96z" />
    <glyph glyph-name="uni200F" unicode="&#x200f;" 
d="M-144 1106l93 91l28 -28l-51 -47h175v-37h-175l51 -51l-26 -24z" />
    <glyph glyph-name="uni2012" unicode="&#x2012;" horiz-adv-x="526" 
d="M0 456h526v-142h-526v142z" />
    <glyph glyph-name="endash" unicode="&#x2013;" horiz-adv-x="500" 
d="M30 332h440v-101h-440v101z" />
    <glyph glyph-name="emdash" unicode="&#x2014;" horiz-adv-x="1000" 
d="M51 332h897v-101h-897v101z" />
    <glyph glyph-name="quoteleft" unicode="&#x2018;" horiz-adv-x="261" 
d="M225 755l-46 -256h-135l46 256h135z" />
    <glyph glyph-name="quoteright" unicode="&#x2019;" horiz-adv-x="261" 
d="M225 755l-46 -256h-135l46 256h135z" />
    <glyph glyph-name="quotesinglbase" unicode="&#x201a;" horiz-adv-x="256" 
d="M203 118l-46 -256h-135l46 256h135z" />
    <glyph glyph-name="quotedblleft" unicode="&#x201c;" horiz-adv-x="461" 
d="M225 755l-46 -256h-135l46 256h135zM425 755l-46 -256h-135l46 256h135z" />
    <glyph glyph-name="quotedblright" unicode="&#x201d;" horiz-adv-x="461" 
d="M225 755l-46 -256h-135l46 256h135zM425 755l-46 -256h-135l46 256h135z" />
    <glyph glyph-name="quotedblbase" unicode="&#x201e;" horiz-adv-x="456" 
d="M203 115l-46 -256h-135l46 256h135zM403 115l-46 -256h-135l46 256h135z" />
    <glyph glyph-name="dagger" unicode="&#x2020;" horiz-adv-x="629" 
d="M245 552l-8 203h150l-9 -203l201 8v-129l-201 7l9 -438h-150l8 438l-194 -7v129z" />
    <glyph glyph-name="daggerdbl" unicode="&#x2021;" horiz-adv-x="629" 
d="M245 574l-7 181h150l-8 -181l198 8v-129l-201 7v-166l201 8v-129l-198 7l8 -180h-150l7 180l-195 -7v129l198 -8v166l-198 -7v129z" />
    <glyph glyph-name="bullet" unicode="&#x2022;" horiz-adv-x="437" 
d="M295.5 436.5q35.5 -20.5 56 -56t20.5 -77.5t-20.5 -77t-56 -55.5t-77.5 -20.5t-77 20.5t-55.5 55.5t-20.5 77t20.5 77.5t55.5 56t77 20.5t77.5 -20.5z" />
    <glyph glyph-name="ellipsis" unicode="&#x2026;" horiz-adv-x="692" 
d="M54 88l100 99l101 -99l-101 -101zM294 88l100 99l101 -99l-101 -101zM524 88l100 99l101 -99l-101 -101z" />
    <glyph glyph-name="uni202A" unicode="&#x202a;" 
d="M35 1034l49 51h-84v37h84l-49 47l29 28l88 -91l-90 -96zM-91 1122h46v-37h-46v37z" />
    <glyph glyph-name="uni202B" unicode="&#x202b;" 
d="M-152 1106l88 91l29 -28l-50 -47h85v-37h-85l50 -51l-27 -24zM45 1122h46v-37h-46v37z" />
    <glyph glyph-name="uni202C" unicode="&#x202c;" 
d="M-17 1177l-52 -47l-26 25l96 92l95 -90l-29 -27l-50 47v-172h-34v172z" />
    <glyph glyph-name="uni202D" unicode="&#x202d;" 
d="M-34 1034l48 51h-170v37h170l-48 47l30 28l91 -91l-93 -96zM66 1034l64 72l-64 63l29 28l89 -91l-92 -96z" />
    <glyph glyph-name="uni202E" unicode="&#x202e;" 
d="M-165 1106l88 91l30 -28l-69 -63l69 -72l-28 -24zM-69 1106l89 91l28 -28l-47 -47h173v-37h-173l47 -51l-26 -24z" />
    <glyph glyph-name="perthousand" unicode="&#x2030;" horiz-adv-x="1395" 
d="M367.5 372.5q-55.5 -47.5 -140.5 -47.5t-140 47t-55 135v75q0 59 26 101.5t70.5 64.5t98.5 22q55 0 99.5 -22t70.5 -64.5t26 -101.5v-75q0 -87 -55.5 -134.5zM771 755l-423 -755h-144l424 755h143zM170.5 450q19.5 -23 57.5 -23t57 22.5t19 59.5v74q0 38 -19 61t-58 23
q-37 0 -56.5 -23.5t-19.5 -60.5v-74q0 -36 19.5 -59zM887.5 33.5q-55.5 -47.5 -140.5 -47.5t-140 47t-55 135v75q0 59 26 101.5t70.5 64.5t98.5 22q55 0 99.5 -22t70.5 -64.5t26 -101.5v-75q0 -87 -55.5 -134.5zM1308.5 33.5q-55.5 -47.5 -140.5 -47.5t-140 47t-55 135v75
q0 59 26 101.5t70.5 64.5t98.5 22q55 0 99.5 -22t70.5 -64.5t26 -101.5v-75q0 -87 -55.5 -134.5zM690.5 111q19.5 -23 57.5 -23q39 0 57.5 22.5t18.5 59.5v74q0 38 -19 61t-58 23q-37 0 -56.5 -23.5t-19.5 -60.5v-74q0 -36 19.5 -59zM1111 110.5q19 -22.5 57 -22.5
q39 0 58 22.5t19 59.5v74q0 38 -19.5 61t-57.5 23t-57 -23.5t-19 -60.5v-74q0 -37 19 -59.5z" />
    <glyph glyph-name="guilsinglleft" unicode="&#x2039;" horiz-adv-x="333" 
d="M290 66h-139l-120 215l123 209h137l-119 -206z" />
    <glyph glyph-name="guilsinglright" unicode="&#x203a;" horiz-adv-x="333" 
d="M179 490l123 -209l-120 -215h-139l118 218l-119 206h137z" />
    <glyph glyph-name="fraction" unicode="&#x2044;" horiz-adv-x="161" 
d="M373 754l-468 -754h-118l468 754h118z" />
    <glyph glyph-name="Euro" unicode="&#x20ac;" horiz-adv-x="663" 
d="M528 608q-53 15 -107 15q-65 0 -96 -24t-41 -78h188v-114h-193v-56h193v-114h-188q9 -60 41.5 -83t98.5 -23q47 0 98.5 9.5t87.5 31.5v-148q-36 -20 -92.5 -29.5t-112.5 -9.5q-130 0 -201.5 62t-87.5 190h-78v114h73v56h-73v114h79q18 124 90 186t200 62q61 0 119 -12.5
t86 -31.5v-158q-31 26 -84 41z" />
    <glyph glyph-name="trademark" unicode="&#x2122;" horiz-adv-x="785" 
d="M228 677v-284h-95v284h-101v78h297v-78h-101zM454 489v-97h-91v362h91l86 -173l85 173h91v-362h-91v93l2 108l-51 -110h-76l-49 106z" />
    <glyph glyph-name="uni2126" unicode="&#x2126;" horiz-adv-x="752" 
d="M427 0v121q37 31 66.5 84.5t29.5 118.5v110q0 92 -33 144.5t-113 52.5q-149 0 -149 -197v-110q0 -62 28 -117.5t70 -85.5v-121h-273v139h113q-107 94 -107 213v75q0 111 40 188t111 115.5t165 38.5t165.5 -39t111.5 -116t40 -187v-75q0 -122 -100 -213h109v-139h-274z
" />
    <glyph glyph-name="arrowleft" unicode="&#x2190;" horiz-adv-x="800" 
d="M800 456v-142h-512l146 -160h-178l-221 235l223 235h178l-155 -168h519z" />
    <glyph glyph-name="arrowup" unicode="&#x2191;" horiz-adv-x="550" 
d="M358 10h-163v443l-160 -146v205l240 227l239 -227v-206l-156 143v-439z" />
    <glyph glyph-name="arrowright" unicode="&#x2192;" horiz-adv-x="800" 
d="M518 456l-154 168h178l223 -235l-221 -235h-178l145 160h-511v142h518z" />
    <glyph glyph-name="arrowdown" unicode="&#x2193;" horiz-adv-x="549" 
d="M514 439v-207l-239 -227l-240 227v206l160 -147v443h163v-440z" />
    <glyph glyph-name="uni2196" unicode="&#x2196;" horiz-adv-x="690" 
d="M193 189l-145 146l9 330l329 11l145 -146l-209 -10l338 -337l-115 -115l-342 341z" />
    <glyph glyph-name="uni2197" unicode="&#x2197;" horiz-adv-x="690" 
d="M145 68l-115 115l338 338l-49 2q-94 3 -161 7l146 146l329 -11l9 -330l-146 -146l-10 220z" />
    <glyph glyph-name="uni2198" unicode="&#x2198;" horiz-adv-x="693" 
d="M489 341l9 221l146 -146l-9 -330l-329 -10l-146 145l211 9l-338 339l114 114z" />
    <glyph glyph-name="uni2199" unicode="&#x2199;" horiz-adv-x="693" 
d="M546 683l115 -114l-338 -338q152 -6 209 -10l-145 -145l-329 10l-9 330l145 146l10 -220z" />
    <glyph glyph-name="partialdiff" unicode="&#x2202;" horiz-adv-x="627" 
d="M104.5 475q62.5 67 168.5 67q68 0 129 -51q-32 61 -87.5 108t-115.5 70l57 91q98 -26 171.5 -91t113.5 -159t40 -203v-73q0 -79 -35 -135t-96 -85t-139 -29t-139 29t-95.5 85t-34.5 135v56q0 118 62.5 185zM235 144.5q24 -35.5 76 -35.5q51 0 76 35t25 85v52
q0 78 -21 114t-79 36q-55 0 -78 -35t-23 -115v-52q0 -49 24 -84.5z" />
    <glyph glyph-name="uni2206" unicode="&#x2206;" horiz-adv-x="758" 
d="M476 755l257 -755h-710l276 755h177zM502 139l-126 419l-137 -419h263z" />
    <glyph glyph-name="product" unicode="&#x220f;" horiz-adv-x="731" 
d="M638 608v-830h-168v830h-207v-830h-168v830h-51v147h641v-147h-47z" />
    <glyph glyph-name="summation" unicode="&#x2211;" horiz-adv-x="621" 
d="M34 -106l214 382l-214 364v115h550v-136h-363l203 -341l-207 -363h367v-136h-550v115z" />
    <glyph glyph-name="minus" unicode="&#x2212;" horiz-adv-x="559" 
d="M497 448v-121h-434v121h434z" />
    <glyph glyph-name="radical" unicode="&#x221a;" horiz-adv-x="603" 
d="M163 536l128 -302l165 545h145l-249 -779h-110l-233 536h154z" />
    <glyph glyph-name="infinity" unicode="&#x221e;" horiz-adv-x="788" 
d="M310.5 244.5q-42.5 -27.5 -99.5 -27.5q-79 0 -123.5 50t-44.5 128q0 79 47 129t131 50q58 0 100 -25t78 -69q35 44 75 69t97 25q54 0 93.5 -23.5t60.5 -63.5t21 -88q0 -50 -22 -91t-62 -65t-92 -24q-56 0 -97.5 27t-79.5 74q-40 -48 -82.5 -75.5zM283.5 451.5
q-25.5 19.5 -56.5 19.5q-28 0 -48 -18t-20 -57q0 -34 16 -55t50 -21t59.5 19.5t52.5 56.5q-28 36 -53.5 55.5zM510 342q25 -20 57 -20q26 0 44.5 16t18.5 55q0 37 -18 55t-48 18t-55 -17t-51 -48q27 -39 52 -59z" />
    <glyph glyph-name="integral" unicode="&#x222b;" horiz-adv-x="373" 
d="M81 -84q22 10 29 34.5t7 76.5v598q0 84 32 130.5t85.5 63t130.5 16.5v-104q-48 0 -71.5 -9t-32.5 -33t-9 -73v-605q0 -88 -28.5 -134.5t-80 -63t-132.5 -16.5v109q48 0 70 10z" />
    <glyph glyph-name="approxequal" unicode="&#x2248;" horiz-adv-x="601" 
d="M68 550q68 61 129 61q24 0 50 -8t63 -24q37 -15 59 -22.5t43 -7.5q28 0 57 13.5t66 37.5v-125q-25 -25 -59.5 -43.5t-68.5 -18.5q-23 0 -49 8.5t-62 23.5q-38 16 -59 23t-40 7q-28 0 -58.5 -14t-70.5 -39v128zM68 320q68 61 129 61q24 0 50 -8t63 -24q37 -15 59 -22.5
t43 -7.5q28 0 57 13.5t66 37.5v-125q-25 -25 -59.5 -43.5t-68.5 -18.5q-23 0 -49 8.5t-62 23.5q-38 16 -59 23t-40 7q-28 0 -58.5 -14t-70.5 -39v128z" />
    <glyph glyph-name="notequal" unicode="&#x2260;" horiz-adv-x="580" 
d="M328 578l59 119h122l-59 -119h75v-121h-134l-64 -129h198v-121h-257l-60 -122h-123l60 122h-90v121h150l63 129h-213v121h273z" />
    <glyph glyph-name="lessequal" unicode="&#x2264;" horiz-adv-x="519" 
d="M51 441l401 198v-147l-242 -106l242 -100v-156l-401 193v118zM452 121v-121h-401v121h401z" />
    <glyph glyph-name="greaterequal" unicode="&#x2265;" horiz-adv-x="519" 
d="M67 286l242 100l-242 106v147l401 -198v-118l-401 -193v156zM67 0v121h401v-121h-401z" />
    <glyph glyph-name="filledbox" unicode="&#x25a0;" horiz-adv-x="920" 
d="M840 756v-756h-760v756h760z" />
    <glyph glyph-name="uni25A1" unicode="&#x25a1;" horiz-adv-x="920" 
d="M840 756v-756h-760v756h760zM753 670h-585v-583h585v583z" />
    <glyph glyph-name="uni25A2" unicode="&#x25a2;" horiz-adv-x="919" 
d="M80 619q0 71 33 103.5t103 32.5h487q71 0 103.5 -32.5t32.5 -103.5v-483q0 -74 -32 -105t-104 -31h-487q-74 0 -105 32t-31 104v483zM692 87q27 0 39.5 4t16.5 16.5t4 39.5v452q0 41 -11 55.5t-49 14.5h-464q-38 0 -49 -14.5t-11 -55.5v-452q0 -27 4 -39.5t16.5 -16.5
t39.5 -4h464z" />
    <glyph glyph-name="triagup" unicode="&#x25b2;" horiz-adv-x="711" 
d="M355 561l335 -535h-670z" />
    <glyph glyph-name="uni25B6" unicode="&#x25b6;" horiz-adv-x="644" 
d="M606 294l-535 -335v670z" />
    <glyph glyph-name="uni25B8" unicode="&#x25b8;" horiz-adv-x="446" 
d="M72 608l334 -335l-334 -335v670z" />
    <glyph glyph-name="triagrt" unicode="&#x25ba;" horiz-adv-x="1012" 
d="M71 608l903 -335l-903 -335v670z" />
    <glyph glyph-name="triagdn" unicode="&#x25bc;" horiz-adv-x="709" 
d="M354 25l-335 535h670z" />
    <glyph glyph-name="uni25C0" unicode="&#x25c0;" horiz-adv-x="644" 
d="M573 629v-670l-535 335z" />
    <glyph glyph-name="uni25C2" unicode="&#x25c2;" horiz-adv-x="445" 
d="M373 608v-670l-334 336z" />
    <glyph glyph-name="triaglf" unicode="&#x25c4;" horiz-adv-x="1015" 
d="M944 608v-670l-903 334z" />
    <glyph glyph-name="lozenge" unicode="&#x25ca;" horiz-adv-x="651" 
d="M388 755l239 -375l-249 -380h-118l-236 381l246 374h118zM167 381l156 -260l160 259l-155 249z" />
    <glyph glyph-name="uni2610" unicode="&#x2610;" horiz-adv-x="920" 
d="M840 755v-755h-760v755h760zM725 641h-529v-526h529v526z" />
    <glyph glyph-name="uni2611" unicode="&#x2611;" horiz-adv-x="970" 
d="M840 755v-755h-760v755h760zM725 641h-529v-526h529v526zM702 556l-251 -380h-67l-154 162l82 81l106 -106l193 299z" />
    <glyph glyph-name="uni2615" unicode="&#x2615;" horiz-adv-x="1166" 
d="M902 565q65 0 103 -33.5t38 -95.5q0 -61 -36 -94t-93 -33h-42v-15q0 -62 -14 -96.5t-46.5 -49t-89.5 -14.5h-278q-57 0 -89.5 14.5t-46.5 49t-14 96.5v341h579l-1 -70h30zM872 363h43q37 0 55.5 22.5t18.5 55.5q0 31 -21 50.5t-57 19.5h-39v-148zM1051.5 26
q-29.5 -32 -64.5 -32h-765q-54 0 -89.5 29t-40.5 73h992q-3 -38 -32.5 -70z" />
    <glyph glyph-name="uni261A" unicode="&#x261a;" horiz-adv-x="1017" 
d="M709 93q-40 -18 -96 -18h-250q-47 0 -65.5 26t-18.5 76q-34 0 -50.5 24t-16.5 68v99h-97q-36 0 -60.5 18.5t-24.5 57.5q0 36 24 55t60 19h377l-27 31q-26 27 -26 64q0 29 16.5 56t46.5 46h32l164 -184h276l1 -321z" />
    <glyph glyph-name="uni261B" unicode="&#x261b;" horiz-adv-x="1017" 
d="M320 531l164 184h32q30 -19 46.5 -46t16.5 -56q0 -37 -26 -64l-27 -31h377q36 0 60 -19t24 -55q0 -39 -24.5 -57.5t-60.5 -18.5h-97v-99q0 -44 -16.5 -68t-50.5 -24q0 -50 -18.5 -76t-65.5 -26h-250q-56 0 -96 18l-265 117l1 321h276z" />
    <glyph glyph-name="uni261C" unicode="&#x261c;" horiz-adv-x="1015" 
d="M519 651q-25 -18 -25 -39q0 -23 25 -53l43 -51l-33 -44h-401q-14 0 -21.5 -6.5t-7.5 -14.5q0 -9 7 -15t21 -6h408v-54h-268v-42h268v-59h-268q0 -20 6 -29.5t29 -9.5h233v-52h-201q0 -31 7 -39.5t33 -8.5h228q51 0 89 16l283 123v-57l-265 -117q-40 -18 -96 -18h-250
q-47 0 -65.5 26t-18.5 76q-34 0 -50.5 24t-16.5 68v99h-97q-36 0 -60.5 18.5t-24.5 57.5q0 36 24 55t60 19h377l-27 31q-26 27 -26 64q0 29 16.5 56t46.5 46h32l164 -184h276v-56h-305z" />
    <glyph glyph-name="uni261D" unicode="&#x261d;" horiz-adv-x="709" 
d="M617 261q-18 25 -39 25q-22 0 -52 -25l-52 -43l-44 33v401q0 13 -6.5 21t-14.5 8q-9 0 -15 -7.5t-6 -20.5v-408h-54v268h-42v-268h-59v268q-20 0 -29.5 -6t-9.5 -29v-233h-52v201q-31 0 -39.5 -7t-8.5 -33v-228q0 -51 16 -89l123 -283h-57l-117 265q-18 40 -18 96v250
q0 47 26 65.5t76 18.5q0 34 24 50.5t68 16.5h99v97q0 36 18.5 60.5t57.5 24.5q36 0 55 -24t19 -60v-377l31 27q27 26 64 26q29 0 56 -16.5t46 -46.5v-32l-184 -164v-276h-56v305z" />
    </font>
</defs>
</svg>
