<?xml version="1.0" standalone="no"?>
<!DOCTYPE svg PUBLIC "-//W3C//DTD SVG 1.1//EN" "http://www.w3.org/Graphics/SVG/1.1/DTD/svg11.dtd" >
<svg xmlns="http://www.w3.org/2000/svg" xmlns:xlink="http://www.w3.org/1999/xlink" version="1.1">
<metadata>
Created by FontForge 20170731 at Thu Apr  6 12:13:52 2017
 By Aleksey,,,
Copyright, 2017 tptq-arabic.com All rights reserved. For exclusive use on TPTQ Arabic Web Font servers.
</metadata>
<defs>
<font id="KanunAR+LT-Bold" horiz-adv-x="0" >
  <font-face 
    font-family="Kanun AR+LT Bold"
    font-weight="700"
    font-stretch="normal"
    units-per-em="1000"
    panose-1="2 0 0 0 0 0 0 0 0 0"
    ascent="780"
    descent="-220"
    x-height="544"
    cap-height="755"
    bbox="-280 -503 2421 1247"
    underline-thickness="50"
    underline-position="-200"
    unicode-range="U+000D-1F6CF"
  />
<missing-glyph horiz-adv-x="306" 
 />
    <glyph glyph-name="fi" unicode="fi" horiz-adv-x="656" 
d="M98 544v41q0 88 51.5 136t144.5 48q49 0 80 -9v-106q-28 8 -50 8q-44 0 -66.5 -20.5t-22.5 -69.5v-28h126v-107h-126v-437h-137v437h-60v107h60zM588 765v-129h-140v129h140zM586 544v-544h-137v544h137z" />
    <glyph glyph-name="fl" unicode="fl" horiz-adv-x="699" 
d="M98 544v41q0 88 51.5 136t144.5 48q49 0 80 -9v-106q-28 8 -50 8q-44 0 -66.5 -20.5t-22.5 -69.5v-28h126v-107h-126v-437h-137v437h-60v107h60zM585 755v-573q0 -47 10.5 -64.5t41.5 -17.5t49 8v-111q-36 -12 -82 -12q-79 0 -117.5 38.5t-38.5 121.5v610h137z" />
    <glyph glyph-name="uniFC43" unicode="&#xfedf;&#xfef0;" horiz-adv-x="819" arabic-form="isolated" 
d="M751 744v-471q0 -92 -23.5 -147.5t-71.5 -81.5q35 -37 35 -93q0 -72 -39.5 -126.5t-115 -84.5t-179.5 -30q-167 0 -247.5 73t-81.5 227q0 47 8 89.5t17 69.5t12 34h111q-3 -7 -12 -34t-17 -66.5t-8 -77.5q1 -61 23 -96.5t71 -51t135 -15.5q111 0 171 24t60 65
q0 28 -31 40.5t-103 18.5v145q18 -3 55 -3q48 0 73 7t35 24t10 51v509z" />
    <glyph glyph-name="uniFC86" unicode="&#xfee0;&#xfef0;" horiz-adv-x="863" arabic-form="final" 
d="M880 149v-146l-17 -3q-124 0 -154 91q-22 -32 -53 -47q35 -37 35 -93q0 -72 -39.5 -126.5t-115 -84.5t-179.5 -30q-167 0 -247.5 73t-81.5 227q0 47 8 89.5t17 69.5t12 34h111q-3 -7 -12 -34t-17 -66.5t-8 -77.5q1 -61 23 -96.5t71 -51t135 -15.5q111 0 171 24t60 65
q0 28 -31 40.5t-103 18.5v145q18 -3 55 -3q48 0 73 7t35 24t10 51v509l113 1v-470q0 -49 11 -75t35 -36.5t66 -10.5z" />
    <glyph glyph-name="uniFDF2" unicode="&#x627;&#xfedf;&#xfee0;&#xfeea;" horiz-adv-x="1400" arabic-form="isolated" 
d="M962 743l116 1v-471q0 -100 -24 -160t-72.5 -86.5t-125.5 -26.5h-2q-119 0 -151 83q-26 -43 -71 -63t-112 -20h-1q-96 1 -144.5 43.5t-60.5 126.5q-26 -81 -128 -81q-83 0 -120.5 46t-37.5 131q0 58 25 100.5t86.5 78t169.5 64.5v62h106v-305q0 -47 8.5 -71t30.5 -33.5
t65 -9.5h1q43 0 65.5 7t31.5 25.5t9 53.5v505l116 1v-470q0 -49 11 -75t35 -36.5t66 -10.5h2q43 0 65.5 7t31.5 25.5t9 53.5v505zM1332 743v-743h-117v743h117zM309 260v127q-106 -28 -148.5 -50t-42.5 -50q0 -46 94 -46q74 0 97 19z" />
    <glyph glyph-name="uniFEF5" unicode="&#xfedf;&#xfe82;" horiz-adv-x="578" arabic-form="isolated" 
d="M497 437.5q-19 -45.5 -64 -86.5q46 -41 64.5 -80t18.5 -90q0 -94 -51.5 -137.5t-170.5 -43.5q-108 0 -161.5 5.5t-77.5 22.5l9 139l80 67q24 21 68 57.5t66 56.5q-72 60 -266 203l53 110q155 -114 298 -237q18 20 27 44.5t9 63.5v212h117v-193q0 -68 -19 -113.5z
M406.5 244q-15.5 22 -51.5 48q-73 -62 -173 -139q24 -1 117 -1q60 0 91.5 9.5t31.5 36.5q0 24 -15.5 46zM157 726q-27 9 -45 9q-21 0 -35.5 -4t-21.5 -8.5t-8 -5.5v79q12 7 29.5 13t32.5 6q18 0 48 -8q12 -3 27 -6t31 -3q20 0 34.5 3.5t21.5 7l9 4.5v-79q-1 -1 -8.5 -5.5
t-22.5 -8.5t-37 -4q-23 0 -55 10z" />
    <glyph glyph-name="uniFEF6" unicode="&#xfee0;&#xfe82;" horiz-adv-x="661" arabic-form="final" 
d="M678 149v-146l-17 -3q-86 0 -135.5 30.5t-69.5 93.5q-26 -64 -126.5 -94t-303.5 -30v152q110 0 195 8q-3 92 -30 189.5t-98 212.5l99 67q51 -91 79 -157.5t41 -134.5t15 -160q60 15 86 41t26 63v462h117v-472q0 -49 9 -74t31 -35t65 -10zM184 708q-27 9 -45 9
q-21 0 -35.5 -4t-21.5 -8.5t-8 -5.5v79q12 7 29.5 13t32.5 6q18 0 48 -8q12 -3 27 -6t31 -3q20 0 34.5 3.5t21.5 7l9 4.5v-79q-1 -1 -8.5 -5.5t-22.5 -8.5t-37 -4q-23 0 -55 10z" />
    <glyph glyph-name="uniFEF7" unicode="&#xfedf;&#xfe84;" horiz-adv-x="578" arabic-form="isolated" 
d="M497 437.5q-19 -45.5 -64 -86.5q46 -41 64.5 -80t18.5 -90q0 -94 -51.5 -137.5t-170.5 -43.5q-108 0 -161.5 5.5t-77.5 22.5l9 139l80 67q24 21 68 57.5t66 56.5q-72 60 -266 203l53 110q155 -114 298 -237q18 20 27 44.5t9 63.5v212h117v-193q0 -68 -19 -113.5z
M406.5 244q-15.5 22 -51.5 48q-73 -62 -173 -139q24 -1 117 -1q60 0 91.5 9.5t31.5 36.5q0 24 -15.5 46zM224.5 803q29.5 3 36.5 3v-69q-77 -11 -203 -20v69l25 2q-12 14 -12 40q0 47 29 72.5t72 25.5q19 0 41.5 -7t22.5 -8v-69q-5 2 -24 6.5t-40 4.5q-23 0 -35 -5.5
t-12 -21.5t8 -21t32 -5q30 0 59.5 3z" />
    <glyph glyph-name="uniFEF8" unicode="&#xfee0;&#xfe84;" horiz-adv-x="661" arabic-form="final" 
d="M678 149v-146l-17 -3q-86 0 -135.5 30.5t-69.5 93.5q-26 -64 -126.5 -94t-303.5 -30v152q110 0 195 8q-3 92 -30 189.5t-98 212.5l99 67q51 -91 79 -157.5t41 -134.5t15 -160q60 15 86 41t26 63v462h117v-472q0 -49 9 -74t31 -35t65 -10zM251.5 785q29.5 3 36.5 3v-69
q-77 -11 -203 -20v69l25 2q-12 14 -12 40q0 47 29 72.5t72 25.5q19 0 41.5 -7t22.5 -8v-69q-5 2 -24 6.5t-40 4.5q-23 0 -35 -5.5t-12 -21.5t8 -21t32 -5q30 0 59.5 3z" />
    <glyph glyph-name="uniFEF9" unicode="&#xfedf;&#xfe88;" horiz-adv-x="578" arabic-form="isolated" 
d="M497 437.5q-19 -45.5 -64 -86.5q46 -41 64.5 -80t18.5 -90q0 -94 -51.5 -137.5t-170.5 -43.5q-108 0 -161.5 5.5t-77.5 22.5l9 139l80 67q24 21 68 57.5t66 56.5q-72 60 -266 203l53 110q155 -114 298 -237q18 20 27 44.5t9 63.5v212h117v-193q0 -68 -19 -113.5z
M406.5 244q-15.5 22 -51.5 48q-73 -62 -173 -139q24 -1 117 -1q60 0 91.5 9.5t31.5 36.5q0 24 -15.5 46zM224.5 -190q29.5 3 36.5 3v-69q-77 -11 -203 -20v69l25 2q-12 14 -12 40q0 47 29 72.5t72 25.5q19 0 41.5 -7t22.5 -8v-69q-5 2 -24 6.5t-40 4.5q-23 0 -35 -5.5
t-12 -21.5t8 -21t32 -5q30 0 59.5 3z" />
    <glyph glyph-name="uniFEFA" unicode="&#xfee0;&#xfe88;" horiz-adv-x="661" arabic-form="final" 
d="M678 149v-146l-17 -3q-86 0 -135.5 30.5t-69.5 93.5q-26 -64 -126.5 -94t-303.5 -30v152q110 0 195 8q-3 92 -30 189.5t-98 212.5l99 67q51 -91 79 -157.5t41 -134.5t15 -160q60 15 86 41t26 63v462h117v-472q0 -49 9 -74t31 -35t65 -10zM300.5 -190q29.5 3 36.5 3v-69
q-77 -11 -203 -20v69l25 2q-12 14 -12 40q0 47 29 72.5t72 25.5q19 0 41.5 -7t22.5 -8v-69q-5 2 -24 6.5t-40 4.5q-23 0 -35 -5.5t-12 -21.5t8 -21t32 -5q30 0 59.5 3z" />
    <glyph glyph-name="uniFEFB" unicode="&#xfedf;&#xfe8e;" horiz-adv-x="578" arabic-form="isolated" 
d="M497 437.5q-19 -45.5 -64 -86.5q46 -41 64.5 -80t18.5 -90q0 -94 -51.5 -137.5t-170.5 -43.5q-108 0 -161.5 5.5t-77.5 22.5l9 139l80 67q24 21 68 57.5t66 56.5q-72 60 -266 203l53 110q155 -114 298 -237q18 20 27 44.5t9 63.5v212h117v-193q0 -68 -19 -113.5z
M406.5 244q-15.5 22 -51.5 48q-73 -62 -173 -139q24 -1 117 -1q60 0 91.5 9.5t31.5 36.5q0 24 -15.5 46z" />
    <glyph glyph-name="uniFEFC" unicode="&#xfee0;&#xfe8e;" horiz-adv-x="661" arabic-form="final" 
d="M678 149v-146l-17 -3q-86 0 -135.5 30.5t-69.5 93.5q-26 -64 -126.5 -94t-303.5 -30v152q110 0 195 8q-3 92 -30 189.5t-98 212.5l99 67q51 -91 79 -157.5t41 -134.5t15 -160q60 15 86 41t26 63v462h117v-472q0 -49 9 -74t31 -35t65 -10z" />
    <glyph glyph-name="uni066E.init" unicode="&#x66e;" horiz-adv-x="264" 
d="M-17 3v146l17 3q64 0 90.5 29.5t26.5 97.5q0 55 -16 137h106q16 -80 16 -151q0 -124 -58.5 -194.5t-164.5 -70.5z" />
    <glyph glyph-name="uni066E.medi" unicode="&#x66e;" horiz-adv-x="354" 
d="M371 149v-146l-17 -3q-77 0 -120.5 24.5t-57.5 76.5q-14 -52 -57 -76.5t-119 -24.5l-17 3v146l17 3q49 0 75 9.5t38 33.5t12 71v99h107v-99q0 -47 11.5 -71t37 -33.5t73.5 -9.5z" />
    <glyph glyph-name="uni066E.fina" unicode="&#x66e;" horiz-adv-x="950" 
d="M967 149v-146l-17 -3q-76 0 -119.5 26.5t-57.5 81.5q-30 -58 -112.5 -83t-244.5 -25q-153 0 -236.5 24t-117.5 78.5t-34 151.5q0 36 5 67.5t10 50.5t7 24h105q-2 -5 -7 -21.5t-9.5 -42t-4.5 -49.5q0 -54 25 -81.5t86.5 -38.5t182.5 -11q123 0 184.5 9.5t86 35.5t24.5 79
v89h107v-96q0 -48 11 -73t36.5 -34.5t72.5 -9.5z" />
    <glyph glyph-name="uni066F.fina" unicode="&#x66f;" horiz-adv-x="793" 
d="M810 146v-143l-17 -3h-71q-18 -125 -100.5 -181t-251.5 -56q-127 0 -201.5 32.5t-107.5 100.5t-33 179q0 50 8 95.5t16.5 74t11.5 35.5h112q-3 -7 -12 -34.5t-17 -67.5t-8 -76q0 -71 22.5 -111.5t75.5 -58.5t146 -18t146.5 9.5t78 29.5t29.5 54h-130q-85 0 -126 45.5
t-41 126.5q0 63 23.5 116t68.5 84t106 31q92 0 139.5 -72t50.5 -186h65zM450 154q21 -10 76 -10h112v17q0 41 -26 75t-82 34q-45 0 -73 -23t-28 -59q0 -24 21 -34z" />
    <glyph glyph-name="uni06A1.init" unicode="&#x6a1;" horiz-adv-x="455" 
d="M367 516.5q47 -72.5 47 -184.5v-59q0 -140 -67.5 -206.5t-209.5 -66.5h-137l-17 3v146l17 3h145q95 0 135 23t40 78v29q-32 -64 -127 -64q-78 0 -117.5 42.5t-39.5 117.5q0 58 22.5 106t65.5 76.5t102 28.5q94 0 141 -72.5zM284 337q25 5 35 15v2q0 37 -24.5 67t-76.5 30
q-42 0 -68 -20t-26 -50q0 -27 19.5 -38t70.5 -11q45 0 70 5z" />
    <glyph glyph-name="uni06A1.medi" unicode="&#x6a1;" horiz-adv-x="501" 
d="M518 149v-146l-18 -3q-162 0 -254 50q-90 -50 -245 -50l-18 3v146l18 3q82 0 124 5q-32 24 -46 58.5t-14 81.5q0 100 50 156t136 56t136 -55.5t50 -156.5q0 -47 -14 -81.5t-46 -59.5q45 -4 123 -4zM181.5 344.5q-24.5 -21.5 -24.5 -63.5q0 -33 21 -53.5t73 -38.5
q53 18 73.5 39t20.5 53q0 42 -24.5 63.5t-69.5 21.5t-69.5 -21.5z" />
    <glyph glyph-name="uni06A1.fina" unicode="&#x6a1;" horiz-adv-x="937" 
d="M954 149v-146l-18 -3q-164 0 -256 51q-55 -29 -131 -40t-178 -11q-132 0 -207 31t-105.5 88.5t-30.5 145.5q0 36 4.5 70.5t9.5 57t7 28.5h108q-1 -5 -5.5 -24t-8.5 -47t-4 -55q0 -48 21.5 -79t76 -47.5t152.5 -16.5q104 0 174 3q-33 25 -47.5 60t-14.5 82q0 100 49.5 156
t135.5 56q87 0 136.5 -55.5t49.5 -156.5q0 -47 -14.5 -81.5t-46.5 -58.5q44 -5 125 -5zM616.5 344.5q-24.5 -21.5 -24.5 -63.5q0 -32 21 -52.5t74 -39.5q52 18 73 39.5t21 52.5q0 42 -24.5 63.5t-70.5 21.5q-45 0 -69.5 -21.5z" />
    <glyph glyph-name="uniFB57" unicode="&#x67e;" horiz-adv-x="950" arabic-form="final" 
d="M967 149v-146l-17 -3q-76 0 -119.5 26.5t-57.5 81.5q-30 -58 -112.5 -83t-244.5 -25q-153 0 -236.5 24t-117.5 78.5t-34 151.5q0 36 5 67.5t10 50.5t7 24h105q-2 -5 -7 -21.5t-9.5 -42t-4.5 -49.5q0 -54 25 -81.5t86.5 -38.5t182.5 -11q123 0 184.5 9.5t86 35.5t24.5 79
v89h107v-96q0 -48 11 -73t36.5 -34.5t72.5 -9.5zM376 -213l-73 74l73 73l62 -61l62 61l72 -73l-72 -74l-62 62zM439 -187l66 -65l-66 -66l-66 66z" />
    <glyph glyph-name="uniFB58" unicode="&#x67e;" horiz-adv-x="264" arabic-form="initial" 
d="M-17 3v146l17 3q64 0 90.5 29.5t26.5 97.5q0 55 -16 137h106q16 -80 16 -151q0 -124 -58.5 -194.5t-164.5 -70.5zM13 -218l-73 74l73 73l62 -61l62 61l72 -73l-72 -74l-62 62zM76 -192l66 -65l-66 -66l-66 66z" />
    <glyph glyph-name="uniFB59" unicode="&#x67e;" horiz-adv-x="354" arabic-form="medial" 
d="M371 149v-146l-17 -3q-77 0 -120.5 24.5t-57.5 76.5q-14 -52 -57 -76.5t-119 -24.5l-17 3v146l17 3q49 0 75 9.5t38 33.5t12 71v99h107v-99q0 -47 11.5 -71t37 -33.5t73.5 -9.5zM115 -217l-73 74l73 73l62 -61l62 61l72 -73l-72 -74l-62 62zM178 -191l66 -65l-66 -66
l-66 66z" />
    <glyph glyph-name="uniFB6B" unicode="&#x6a4;" horiz-adv-x="937" arabic-form="final" 
d="M954 149v-146l-18 -3q-164 0 -256 51q-55 -29 -131 -40t-178 -11q-132 0 -207 31t-105.5 88.5t-30.5 145.5q0 36 4.5 70.5t9.5 57t7 28.5h108q-1 -5 -5.5 -24t-8.5 -47t-4 -55q0 -48 21.5 -79t76 -47.5t152.5 -16.5q104 0 174 3q-33 25 -47.5 60t-14.5 82q0 100 49.5 156
t135.5 56q87 0 136.5 -55.5t49.5 -156.5q0 -47 -14.5 -81.5t-46.5 -58.5q44 -5 125 -5zM616.5 344.5q-24.5 -21.5 -24.5 -63.5q0 -32 21 -52.5t74 -39.5q52 18 73 39.5t21 52.5q0 42 -24.5 63.5t-70.5 21.5q-45 0 -69.5 -21.5zM686 704l-65 66l65 65l67 -65zM747 580l-62 62
l-62 -62l-72 74l72 73l62 -61l62 61l73 -73z" />
    <glyph glyph-name="uniFB6C" unicode="&#x6a4;" horiz-adv-x="455" arabic-form="initial" 
d="M367 516.5q47 -72.5 47 -184.5v-59q0 -140 -67.5 -206.5t-209.5 -66.5h-137l-17 3v146l17 3h145q95 0 135 23t40 78v29q-32 -64 -127 -64q-78 0 -117.5 42.5t-39.5 117.5q0 58 22.5 106t65.5 76.5t102 28.5q94 0 141 -72.5zM284 337q25 5 35 15v2q0 37 -24.5 67t-76.5 30
q-42 0 -68 -20t-26 -50q0 -27 19.5 -38t70.5 -11q45 0 70 5zM222 783l-65 66l65 65l67 -65zM283 659l-62 62l-62 -62l-72 74l72 73l62 -61l62 61l73 -73z" />
    <glyph glyph-name="uniFB6D" unicode="&#x6a4;" horiz-adv-x="501" arabic-form="medial" 
d="M518 149v-146l-18 -3q-162 0 -254 50q-90 -50 -245 -50l-18 3v146l18 3q82 0 124 5q-32 24 -46 58.5t-14 81.5q0 100 50 156t136 56t136 -55.5t50 -156.5q0 -47 -14 -81.5t-46 -59.5q45 -4 123 -4zM181.5 344.5q-24.5 -21.5 -24.5 -63.5q0 -33 21 -53.5t73 -38.5
q53 18 73.5 39t20.5 53q0 42 -24.5 63.5t-69.5 21.5t-69.5 -21.5zM251 704l-65 66l65 65l67 -65zM312 580l-62 62l-62 -62l-72 74l72 73l62 -61l62 61l73 -73z" />
    <glyph glyph-name="uniFB7B" unicode="&#x686;" horiz-adv-x="689" arabic-form="final" 
d="M706 149v-146l-17 -3q-70 0 -107.5 18.5t-53 57t-18.5 105.5q-146 -49 -227 -85t-119.5 -74.5t-38.5 -88.5q0 -70 53 -103t171 -33q80 0 143 10.5t102.5 23t39.5 14.5l1 -142q-62 -25 -71 -28t-74 -15t-152 -12q-310 0 -310 277v9q0 85 44 146t136 107t247 91
q-79 23 -140.5 36.5t-109.5 13.5q-40 0 -73 -11t-54.5 -24t-21.5 -14v136q0 2 19 15.5t53 25.5t81 12t92.5 -11.5t116.5 -36.5q68 -25 120 -39t109 -19l-10 -140l-27 -9q-15 -4 -35 -11q10 -29 35.5 -39.5t78.5 -10.5zM492 2l-61 -63l-53 53l-53 -53l-62 63l62 62l53 -52
l53 52zM379 -39l56 -55l-56 -57l-56 57z" />
    <glyph glyph-name="uniFB7C" unicode="&#x686;" horiz-adv-x="684" arabic-form="initial" 
d="M323.5 433.5q45.5 -13.5 112.5 -42.5q65 -28 113 -44t108 -23l-2 -129q-37 -15 -156 -67q-80 -36 -143 -61q-97 -39 -177.5 -53t-176.5 -14l-18 3l-1 146l19 3q116 0 189.5 8.5t150.5 29.5q62 18 111 35l42 14q-32 11 -67 24q-69 25 -113.5 37t-98.5 12q-41 0 -74.5 -11
t-55.5 -24t-22 -15v128q0 2 21 17t56.5 27.5t81.5 12.5q55 0 100.5 -13.5zM350 -144l-73 74l73 73l62 -61l62 61l72 -73l-72 -74l-62 62zM413 -118l66 -65l-66 -66l-66 66z" />
    <glyph glyph-name="uniFB7D" unicode="&#x686;" horiz-adv-x="729" arabic-form="medial" 
d="M746 149v-146l-17 -3q-69 0 -108.5 15t-58 46t-24.5 84l-61 -27q-82 -36 -121 -51q-97 -39 -177.5 -53t-176.5 -14l-18 3l-1 146l19 3q116 0 189.5 8.5t150.5 29.5q62 18 111 35l42 14q-32 11 -67 24q-69 25 -113.5 37t-98.5 12q-41 0 -74.5 -11t-55.5 -24t-22 -15v128
q0 2 21 17t56.5 27.5t81.5 12.5q55 0 100.5 -13.5t112.5 -42.5q65 -28 113 -44t108 -23l-2 -129l-42 -17q15 -15 42 -20.5t74 -5.5zM474 3l72 -73l-72 -74l-62 62l-62 -62l-73 74l73 73l62 -61zM413 -118l66 -65l-66 -66l-66 66z" />
    <glyph glyph-name="uniFB8B" unicode="&#x698;" horiz-adv-x="382" arabic-form="final" 
d="M399 149v-146l-17 -3q-68 0 -103 37q-11 -83 -45 -146.5t-86 -98.5t-115 -35q-30 0 -51.5 5.5t-32.5 11.5t-13 8v140q35 -14 85 -14q69 0 112 55t43 155q0 43 -4.5 86t-13.5 107h113q7 -71 10 -109q5 -24 28.5 -37t72.5 -13zM215 506l-65 66l65 65l67 -65zM276 382
l-62 62l-62 -62l-72 74l72 73l62 -61l62 61l73 -73z" />
    <glyph glyph-name="uniFB8F" unicode="&#x6a9;" horiz-adv-x="888" arabic-form="final" 
d="M905 149v-146l-17 -3q-59 0 -99.5 11t-75 37.5t-76.5 75.5q-12 -60 -60 -92t-144 -32h-93q-122 0 -189 23t-95 73t-28 138q0 26 4 50.5t8.5 40t5.5 19.5h106q-1 -3 -5 -16t-8 -32t-4 -39q0 -43 18.5 -65t65 -31t136.5 -9h89q74 0 102 9.5t32 33.5l-105 124q-30 34 -70 81
l1 112l424 241v-139l-308 -168q14 -16 31 -37q22 -24 56.5 -64t59.5 -68q48 -54 78 -79.5t62 -35.5t81 -10z" />
    <glyph glyph-name="uniFB90" unicode="&#x6a9;" horiz-adv-x="439" arabic-form="initial" 
d="M443 614l-285 -158q127 -46 183.5 -101.5t56.5 -142.5q0 -104 -62 -158t-170 -54h-165l-18 3v146l18 3h173q52 0 90.5 11.5t38.5 42.5q0 29 -22.5 52.5t-82.5 49.5t-171 58v142l416 245v-139z" />
    <glyph glyph-name="uniFB91" unicode="&#x6a9;" horiz-adv-x="555" arabic-form="medial" 
d="M572 149v-146l-17 -3q-59 0 -99.5 11t-75 37t-75.5 76q-12 -61 -57.5 -92.5t-138.5 -31.5h-108l-18 3v146l18 3h106q77 0 106 10t32 34q-43 52 -91 106q-20 24 -41 48.5t-42 49.5v112l425 241v-139l-308 -167q76 -90 146 -170q48 -54 78.5 -79.5t62 -35.5t80.5 -10z" />
    <glyph glyph-name="uniFB93" unicode="&#x6af;" horiz-adv-x="888" arabic-form="final" 
d="M905 149v-146l-17 -3q-59 0 -99.5 11t-75 37.5t-76.5 75.5q-12 -60 -60 -92t-144 -32h-93q-122 0 -189 23t-95 73t-28 138q0 26 4 50.5t8.5 40t5.5 19.5h106q-1 -3 -5 -16t-8 -32t-4 -39q0 -43 18.5 -65t65 -31t136.5 -9h89q74 0 102 9.5t32 33.5l-105 124q-30 34 -70 81
l1 112l424 241v-139l-308 -168q14 -16 31 -37q22 -24 56.5 -64t59.5 -68q48 -54 78 -79.5t62 -35.5t81 -10zM372 643l408 235v-66l-408 -234v65z" />
    <glyph glyph-name="uniFB94" unicode="&#x6af;" horiz-adv-x="439" arabic-form="initial" 
d="M443 614l-285 -158q127 -46 183.5 -101.5t56.5 -142.5q0 -104 -62 -158t-170 -54h-165l-18 3v146l18 3h173q52 0 90.5 11.5t38.5 42.5q0 29 -22.5 52.5t-82.5 49.5t-171 58v142l416 245v-139zM-14 634l403 239v-66l-403 -238v65z" />
    <glyph glyph-name="uniFB95" unicode="&#x6af;" horiz-adv-x="555" arabic-form="medial" 
d="M572 149v-146l-17 -3q-59 0 -99.5 11t-75 37t-75.5 76q-12 -61 -57.5 -92.5t-138.5 -31.5h-108l-18 3v146l18 3h106q77 0 106 10t32 34q-43 52 -91 106q-20 24 -41 48.5t-42 49.5v112l425 241v-139l-308 -167q76 -90 146 -170q48 -54 78.5 -79.5t62 -35.5t80.5 -10z
M56 641l408 235v-66l-408 -234v65z" />
    <glyph glyph-name="uniFB9F" unicode="&#x6ba;" horiz-adv-x="758" arabic-form="final" 
d="M775 149v-146l-17 -3q-72 0 -106 31q-14 -129 -92 -194t-227 -65q-161 0 -233 75t-72 236q0 52 9 96t20 75t11 28h110q-3 -7 -12.5 -34.5t-18 -70t-8.5 -85.5q0 -63 19.5 -99.5t64 -53t121.5 -16.5q75 0 118.5 18t62.5 55.5t19 98.5q0 99 -15 216h112q6 -48 9 -93
q3 -29 11 -42t29.5 -18.5t67.5 -5.5z" />
    <glyph glyph-name="uniFBE8" unicode="&#x649;" horiz-adv-x="264" arabic-form="initial" 
d="M-17 3v146l17 3q64 0 90.5 29.5t26.5 97.5q0 55 -16 137h106q16 -80 16 -151q0 -124 -58.5 -194.5t-164.5 -70.5z" />
    <glyph glyph-name="uniFBE9" unicode="&#x649;" horiz-adv-x="354" arabic-form="medial" 
d="M371 149v-146l-17 -3q-77 0 -120.5 24.5t-57.5 76.5q-14 -52 -57 -76.5t-119 -24.5l-17 3v146l17 3q49 0 75 9.5t38 33.5t12 71v99h107v-99q0 -47 11.5 -71t37 -33.5t73.5 -9.5z" />
    <glyph glyph-name="uniFBFD" unicode="&#x6cc;" horiz-adv-x="735" arabic-form="final" 
d="M752 149v-146l-17 -3h-54q10 -28 10 -58q0 -69 -39.5 -121.5t-115 -81.5t-179.5 -29q-167 0 -247.5 73t-81.5 227q0 47 8 89.5t17 69.5t12 34h111q-3 -7 -12 -34t-17 -66.5t-8 -77.5q1 -61 23.5 -96.5t71.5 -51t135 -15.5q110 0 169 23.5t59 63.5q0 29 -31 42.5
t-101 20.5v147q74 -7 225 -7h45z" />
    <glyph glyph-name="uniFBFE" unicode="&#x6cc;" horiz-adv-x="264" arabic-form="initial" 
d="M164.5 70.5q-58.5 -70.5 -164.5 -70.5l-17 3v146l17 3q64 0 90.5 29.5t26.5 97.5q0 55 -16 137h106q16 -80 16 -151q0 -124 -58.5 -194.5zM132 -66l68 -67l-68 -69l-58 58l-58 -58l-66 69l66 67l58 -57z" />
    <glyph glyph-name="uniFBFF" unicode="&#x6cc;" horiz-adv-x="354" arabic-form="medial" 
d="M371 149v-146l-17 -3q-77 0 -120.5 24.5t-57.5 76.5q-14 -52 -57 -76.5t-119 -24.5l-17 3v146l17 3q49 0 75 9.5t38 33.5t12 71v99h107v-99q0 -47 11.5 -71t37 -33.5t73.5 -9.5zM237 -211l-61 61l-61 -61l-70 72l70 71l61 -60l61 60l71 -71z" />
    <glyph glyph-name="uniFC03" unicode="&#xfc03;" horiz-adv-x="799" arabic-form="isolated" 
d="M731.5 129.5q-26.5 -54.5 -77.5 -83.5q37 -35 37 -95q0 -74 -39.5 -128t-115 -83.5t-179.5 -29.5q-167 0 -247.5 73t-81.5 227q0 47 8 89.5t17 69.5t12 34h111q-3 -7 -12 -34.5t-17 -67.5t-8 -78q1 -60 23 -95t71 -50.5t135 -15.5q110 0 169.5 23.5t59.5 63.5
q0 28 -31 41.5t-101 19.5v145q18 -3 62 -3q69 0 97 28.5t28 93.5q0 57 -16 142h106q16 -82 16 -156q0 -76 -26.5 -130.5zM749.5 563q29.5 3 36.5 3v-69q-77 -11 -203 -20v69l25 2q-12 14 -12 40q0 47 29 72.5t72 25.5q19 0 41.5 -7t22.5 -8v-69q-5 2 -24 6.5t-40 4.5
q-23 0 -35 -5.5t-12 -21.5t8 -21t32 -5q30 0 59.5 3z" />
    <glyph glyph-name="uniFC04" unicode="&#xfc04;" horiz-adv-x="799" arabic-form="isolated" 
d="M731.5 129.5q-26.5 -54.5 -77.5 -83.5q37 -35 37 -95q0 -74 -39.5 -128t-115 -83.5t-179.5 -29.5q-167 0 -247.5 73t-81.5 227q0 47 8 89.5t17 69.5t12 34h111q-3 -7 -12 -34.5t-17 -67.5t-8 -78q1 -60 23 -95t71 -50.5t135 -15.5q110 0 169.5 23.5t59.5 63.5
q0 28 -31 41.5t-101 19.5v145q18 -3 62 -3q69 0 97 28.5t28 93.5q0 57 -16 142h106q16 -82 16 -156q0 -76 -26.5 -130.5zM749.5 563q29.5 3 36.5 3v-69q-77 -11 -203 -20v69l25 2q-12 14 -12 40q0 47 29 72.5t72 25.5q19 0 41.5 -7t22.5 -8v-69q-5 2 -24 6.5t-40 4.5
q-23 0 -35 -5.5t-12 -21.5t8 -21t32 -5q30 0 59.5 3zM417 -494l-61 61l-61 -61l-70 72l70 71l61 -60l61 60l71 -71z" />
    <glyph glyph-name="uniFC09" unicode="&#xfc09;" horiz-adv-x="799" arabic-form="isolated" 
d="M731.5 129.5q-26.5 -54.5 -77.5 -83.5q37 -35 37 -95q0 -74 -39.5 -128t-115 -83.5t-179.5 -29.5q-167 0 -247.5 73t-81.5 227q0 47 8 89.5t17 69.5t12 34h111q-3 -7 -12 -34.5t-17 -67.5t-8 -78q1 -60 23 -95t71 -50.5t135 -15.5q110 0 169.5 23.5t59.5 63.5
q0 28 -31 41.5t-101 19.5v145q18 -3 62 -3q69 0 97 28.5t28 93.5q0 57 -16 142h106q16 -82 16 -156q0 -76 -26.5 -130.5zM578 -374l81 79l82 -79l-82 -80z" />
    <glyph glyph-name="uniFC0A" unicode="&#xfc0a;" horiz-adv-x="799" arabic-form="isolated" 
d="M731.5 129.5q-26.5 -54.5 -77.5 -83.5q37 -35 37 -95q0 -74 -39.5 -128t-115 -83.5t-179.5 -29.5q-167 0 -247.5 73t-81.5 227q0 47 8 89.5t17 69.5t12 34h111q-3 -7 -12 -34.5t-17 -67.5t-8 -78q1 -60 23 -95t71 -50.5t135 -15.5q110 0 169.5 23.5t59.5 63.5
q0 28 -31 41.5t-101 19.5v145q18 -3 62 -3q69 0 97 28.5t28 93.5q0 57 -16 142h106q16 -82 16 -156q0 -76 -26.5 -130.5zM578 -374l81 79l82 -79l-82 -80zM417 -494l-61 61l-61 -61l-70 72l70 71l61 -60l61 60l71 -71z" />
    <glyph glyph-name="uniFC0F" unicode="&#xfc0f;" horiz-adv-x="799" arabic-form="isolated" 
d="M731.5 129.5q-26.5 -54.5 -77.5 -83.5q37 -35 37 -95q0 -74 -39.5 -128t-115 -83.5t-179.5 -29.5q-167 0 -247.5 73t-81.5 227q0 47 8 89.5t17 69.5t12 34h111q-3 -7 -12 -34.5t-17 -67.5t-8 -78q1 -60 23 -95t71 -50.5t135 -15.5q110 0 169.5 23.5t59.5 63.5
q0 28 -31 41.5t-101 19.5v145q18 -3 62 -3q69 0 97 28.5t28 93.5q0 57 -16 142h106q16 -82 16 -156q0 -76 -26.5 -130.5zM750 488l-62 63l-63 -63l-73 74l73 73l63 -62l62 62l73 -73z" />
    <glyph glyph-name="uniFC10" unicode="&#xfc10;" horiz-adv-x="799" arabic-form="isolated" 
d="M731.5 129.5q-26.5 -54.5 -77.5 -83.5q37 -35 37 -95q0 -74 -39.5 -128t-115 -83.5t-179.5 -29.5q-167 0 -247.5 73t-81.5 227q0 47 8 89.5t17 69.5t12 34h111q-3 -7 -12 -34.5t-17 -67.5t-8 -78q1 -60 23 -95t71 -50.5t135 -15.5q110 0 169.5 23.5t59.5 63.5
q0 28 -31 41.5t-101 19.5v145q18 -3 62 -3q69 0 97 28.5t28 93.5q0 57 -16 142h106q16 -82 16 -156q0 -76 -26.5 -130.5zM750 488l-62 63l-63 -63l-73 74l73 73l63 -62l62 62l73 -73zM417 -494l-61 61l-61 -61l-70 72l70 71l61 -60l61 60l71 -71z" />
    <glyph glyph-name="uniFC13" unicode="&#xfc13;" horiz-adv-x="799" arabic-form="isolated" 
d="M731.5 129.5q-26.5 -54.5 -77.5 -83.5q37 -35 37 -95q0 -74 -39.5 -128t-115 -83.5t-179.5 -29.5q-167 0 -247.5 73t-81.5 227q0 47 8 89.5t17 69.5t12 34h111q-3 -7 -12 -34.5t-17 -67.5t-8 -78q1 -60 23 -95t71 -50.5t135 -15.5q110 0 169.5 23.5t59.5 63.5
q0 28 -31 41.5t-101 19.5v145q18 -3 62 -3q69 0 97 28.5t28 93.5q0 57 -16 142h106q16 -82 16 -156q0 -76 -26.5 -130.5zM689 611l-65 66l65 65l67 -65zM750 487l-62 62l-62 -62l-72 74l72 73l62 -61l62 61l73 -73z" />
    <glyph glyph-name="uniFC14" unicode="&#xfc14;" horiz-adv-x="799" arabic-form="isolated" 
d="M731.5 129.5q-26.5 -54.5 -77.5 -83.5q37 -35 37 -95q0 -74 -39.5 -128t-115 -83.5t-179.5 -29.5q-167 0 -247.5 73t-81.5 227q0 47 8 89.5t17 69.5t12 34h111q-3 -7 -12 -34.5t-17 -67.5t-8 -78q1 -60 23 -95t71 -50.5t135 -15.5q110 0 169.5 23.5t59.5 63.5
q0 28 -31 41.5t-101 19.5v145q18 -3 62 -3q69 0 97 28.5t28 93.5q0 57 -16 142h106q16 -82 16 -156q0 -76 -26.5 -130.5zM689 611l-65 66l65 65l67 -65zM750 487l-62 62l-62 -62l-72 74l72 73l62 -61l62 61l73 -73zM417 -494l-61 61l-61 -61l-70 72l70 71l61 -60l61 60
l71 -71z" />
    <glyph glyph-name="uniFC31" unicode="&#xfc31;" horiz-adv-x="844" arabic-form="isolated" 
d="M757.5 511.5q45.5 -70.5 45.5 -179.5v-61q0 -94 -33 -151.5t-107 -80.5q28 -36 28 -88q0 -72 -39.5 -126.5t-115 -84.5t-179.5 -30q-168 0 -248.5 73t-80.5 227q0 47 8 89.5t17 69.5t12 34h111q-3 -7 -12 -34t-17 -66.5t-8 -77.5q1 -61 23 -96.5t71 -51t135 -15.5
q111 0 171 23t60 62q0 22 -17.5 34t-52 18t-97.5 11v136q31 -4 86 -4q99 0 146.5 24.5t47.5 83.5v35q-30 -69 -126 -69q-76 0 -112.5 41t-36.5 116q0 57 22 105t64 76t99 28q90 0 135.5 -70.5zM678.5 331.5q23.5 5.5 32.5 17.5v1q0 36 -23.5 65t-73.5 29q-40 0 -64.5 -19
t-24.5 -48t18.5 -40t67.5 -11q44 0 67.5 5.5zM541 739l81 78l81 -78l-81 -80z" />
    <glyph glyph-name="uniFC32" unicode="&#xfc32;" horiz-adv-x="844" arabic-form="isolated" 
d="M757.5 511.5q45.5 -70.5 45.5 -179.5v-61q0 -94 -33 -151.5t-107 -80.5q28 -36 28 -88q0 -72 -39.5 -126.5t-115 -84.5t-179.5 -30q-168 0 -248.5 73t-80.5 227q0 47 8 89.5t17 69.5t12 34h111q-3 -7 -12 -34t-17 -66.5t-8 -77.5q1 -61 23 -96.5t71 -51t135 -15.5
q111 0 171 23t60 62q0 22 -17.5 34t-52 18t-97.5 11v136q31 -4 86 -4q99 0 146.5 24.5t47.5 83.5v35q-30 -69 -126 -69q-76 0 -112.5 41t-36.5 116q0 57 22 105t64 76t99 28q90 0 135.5 -70.5zM678.5 331.5q23.5 5.5 32.5 17.5v1q0 36 -23.5 65t-73.5 29q-40 0 -64.5 -19
t-24.5 -48t18.5 -40t67.5 -11q44 0 67.5 5.5zM417 -494l-61 61l-61 -61l-70 72l70 71l61 -60l61 60l71 -71zM541 739l81 78l81 -78l-81 -80z" />
    <glyph glyph-name="uniFC35" unicode="&#xfc35;" horiz-adv-x="844" arabic-form="isolated" 
d="M757.5 511.5q45.5 -70.5 45.5 -179.5v-61q0 -94 -33 -151.5t-107 -80.5q28 -36 28 -88q0 -72 -39.5 -126.5t-115 -84.5t-179.5 -30q-168 0 -248.5 73t-80.5 227q0 47 8 89.5t17 69.5t12 34h111q-3 -7 -12 -34t-17 -66.5t-8 -77.5q1 -61 23 -96.5t71 -51t135 -15.5
q111 0 171 23t60 62q0 22 -17.5 34t-52 18t-97.5 11v136q31 -4 86 -4q99 0 146.5 24.5t47.5 83.5v35q-30 -69 -126 -69q-76 0 -112.5 41t-36.5 116q0 57 22 105t64 76t99 28q90 0 135.5 -70.5zM678.5 331.5q23.5 5.5 32.5 17.5v1q0 36 -23.5 65t-73.5 29q-40 0 -64.5 -19
t-24.5 -48t18.5 -40t67.5 -11q44 0 67.5 5.5zM683 653l-62 63l-63 -63l-73 74l73 73l63 -62l62 62l73 -73z" />
    <glyph glyph-name="uniFC36" unicode="&#xfc36;" horiz-adv-x="844" arabic-form="isolated" 
d="M757.5 511.5q45.5 -70.5 45.5 -179.5v-61q0 -94 -33 -151.5t-107 -80.5q28 -36 28 -88q0 -72 -39.5 -126.5t-115 -84.5t-179.5 -30q-168 0 -248.5 73t-80.5 227q0 47 8 89.5t17 69.5t12 34h111q-3 -7 -12 -34t-17 -66.5t-8 -77.5q1 -61 23 -96.5t71 -51t135 -15.5
q111 0 171 23t60 62q0 22 -17.5 34t-52 18t-97.5 11v136q31 -4 86 -4q99 0 146.5 24.5t47.5 83.5v35q-30 -69 -126 -69q-76 0 -112.5 41t-36.5 116q0 57 22 105t64 76t99 28q90 0 135.5 -70.5zM678.5 331.5q23.5 5.5 32.5 17.5v1q0 36 -23.5 65t-73.5 29q-40 0 -64.5 -19
t-24.5 -48t18.5 -40t67.5 -11q44 0 67.5 5.5zM683 653l-62 63l-63 -63l-73 74l73 73l63 -62l62 62l73 -73zM417 -494l-61 61l-61 -61l-70 72l70 71l61 -60l61 60l71 -71z" />
    <glyph glyph-name="uniFC3D" unicode="&#xfc3d;" horiz-adv-x="857" arabic-form="isolated" 
d="M860 614l-281 -157q125 -45 180.5 -101.5t55.5 -143.5q0 -73 -38 -119.5t-108 -64.5q22 -31 22 -77q0 -72 -39.5 -126.5t-115 -84.5t-179.5 -30q-167 0 -247.5 73t-81.5 227q0 47 8 89.5t17 69.5t12 34h111q-3 -7 -12 -34t-17 -66.5t-8 -77.5q1 -61 23 -96.5t71 -51
t135 -15.5q111 0 171 24t60 65q0 28 -31 40.5t-103 18.5v145q21 -3 87 -3q83 0 126 11t43 43q0 29 -22.5 52.5t-82.5 49.5t-171 58v142l415 245v-139z" />
    <glyph glyph-name="uniFC3E" unicode="&#xfc3e;" horiz-adv-x="857" arabic-form="isolated" 
d="M860 614l-281 -157q125 -45 180.5 -101.5t55.5 -143.5q0 -73 -38 -119.5t-108 -64.5q22 -31 22 -77q0 -72 -39.5 -126.5t-115 -84.5t-179.5 -30q-167 0 -247.5 73t-81.5 227q0 47 8 89.5t17 69.5t12 34h111q-3 -7 -12 -34t-17 -66.5t-8 -77.5q1 -61 23 -96.5t71 -51
t135 -15.5q111 0 171 24t60 65q0 28 -31 40.5t-103 18.5v145q21 -3 87 -3q83 0 126 11t43 43q0 29 -22.5 52.5t-82.5 49.5t-171 58v142l415 245v-139zM417 -494l-61 61l-61 -61l-70 72l70 71l61 -60l61 60l71 -71z" />
    <glyph glyph-name="uniFC44" unicode="&#xfc44;" horiz-adv-x="819" arabic-form="isolated" 
d="M751 744v-471q0 -92 -23.5 -147.5t-71.5 -81.5q35 -37 35 -93q0 -72 -39.5 -126.5t-115 -84.5t-179.5 -30q-167 0 -247.5 73t-81.5 227q0 47 8 89.5t17 69.5t12 34h111q-3 -7 -12 -34t-17 -66.5t-8 -77.5q1 -61 23 -96.5t71 -51t135 -15.5q111 0 171 24t60 65
q0 28 -31 40.5t-103 18.5v145q18 -3 55 -3q48 0 73 7t35 24t10 51v509zM417 -494l-61 61l-61 -61l-70 72l70 71l61 -60l61 60l71 -71z" />
    <glyph glyph-name="uniFC4F" unicode="&#xfc4f;" horiz-adv-x="799" arabic-form="isolated" 
d="M731.5 129.5q-26.5 -54.5 -77.5 -83.5q37 -35 37 -95q0 -74 -39.5 -128t-115 -83.5t-179.5 -29.5q-167 0 -247.5 73t-81.5 227q0 47 8 89.5t17 69.5t12 34h111q-3 -7 -12 -34.5t-17 -67.5t-8 -78q1 -60 23 -95t71 -50.5t135 -15.5q110 0 169.5 23.5t59.5 63.5
q0 28 -31 41.5t-101 19.5v145q18 -3 62 -3q69 0 97 28.5t28 93.5q0 57 -16 142h106q16 -82 16 -156q0 -76 -26.5 -130.5zM608 574l81 78l81 -78l-81 -80z" />
    <glyph glyph-name="uniFC50" unicode="&#xfc50;" horiz-adv-x="799" arabic-form="isolated" 
d="M731.5 129.5q-26.5 -54.5 -77.5 -83.5q37 -35 37 -95q0 -74 -39.5 -128t-115 -83.5t-179.5 -29.5q-167 0 -247.5 73t-81.5 227q0 47 8 89.5t17 69.5t12 34h111q-3 -7 -12 -34.5t-17 -67.5t-8 -78q1 -60 23 -95t71 -50.5t135 -15.5q110 0 169.5 23.5t59.5 63.5
q0 28 -31 41.5t-101 19.5v145q18 -3 62 -3q69 0 97 28.5t28 93.5q0 57 -16 142h106q16 -82 16 -156q0 -76 -26.5 -130.5zM608 574l81 78l81 -78l-81 -80zM417 -494l-61 61l-61 -61l-70 72l70 71l61 -60l61 60l71 -71z" />
    <glyph glyph-name="uniFC59" unicode="&#xfc59;" horiz-adv-x="799" arabic-form="isolated" 
d="M731.5 129.5q-26.5 -54.5 -77.5 -83.5q37 -35 37 -95q0 -74 -39.5 -128t-115 -83.5t-179.5 -29.5q-167 0 -247.5 73t-81.5 227q0 47 8 89.5t17 69.5t12 34h111q-3 -7 -12 -34.5t-17 -67.5t-8 -78q1 -60 23 -95t71 -50.5t135 -15.5q110 0 169.5 23.5t59.5 63.5
q0 28 -31 41.5t-101 19.5v145q18 -3 62 -3q69 0 97 28.5t28 93.5q0 57 -16 142h106q16 -82 16 -156q0 -76 -26.5 -130.5zM719 -432l-61 61l-61 -61l-70 72l70 71l61 -60l61 60l71 -71z" />
    <glyph glyph-name="uniFC5A" unicode="&#xfc5a;" horiz-adv-x="799" arabic-form="isolated" 
d="M731.5 129.5q-26.5 -54.5 -77.5 -83.5q37 -35 37 -95q0 -74 -39.5 -128t-115 -83.5t-179.5 -29.5q-167 0 -247.5 73t-81.5 227q0 47 8 89.5t17 69.5t12 34h111q-3 -7 -12 -34.5t-17 -67.5t-8 -78q1 -60 23 -95t71 -50.5t135 -15.5q110 0 169.5 23.5t59.5 63.5
q0 28 -31 41.5t-101 19.5v145q18 -3 62 -3q69 0 97 28.5t28 93.5q0 57 -16 142h106q16 -82 16 -156q0 -76 -26.5 -130.5zM719 -432l-61 61l-61 -61l-70 72l70 71l61 -60l61 60l71 -71zM417 -494l-61 61l-61 -61l-70 72l70 71l61 -60l61 60l71 -71z" />
    <glyph glyph-name="uniFC64" unicode="&#xfc64;" horiz-adv-x="682" arabic-form="final" 
d="M699 149v-146l-17 -3q-96 0 -148.5 42t-65.5 130q-31 -56 -111 -56q-53 0 -75 33v-32q0 -104 -31.5 -186t-88 -128t-129.5 -46q-30 0 -51.5 5.5t-32.5 11.5t-13 8v140q35 -14 85 -14q69 0 112 55t43 155q0 77 -19 197h111q4 -26 21.5 -39t66.5 -13q41 0 64 8t33.5 29.5
t10.5 61.5v-1h105v-101q0 -60 25 -84t88 -24zM578.5 508q29.5 3 36.5 3v-69q-77 -11 -203 -20v69l25 2q-12 14 -12 40q0 47 29 72.5t72 25.5q19 0 41.5 -7t22.5 -8v-69q-5 2 -24 6.5t-40 4.5q-23 0 -35 -5.5t-12 -21.5t8 -21t32 -5q30 0 59.5 3z" />
    <glyph glyph-name="uniFC65" unicode="&#xfc65;" horiz-adv-x="682" arabic-form="final" 
d="M699 149v-146l-17 -3q-96 0 -148.5 42t-65.5 130q-31 -56 -111 -56q-53 0 -75 33v-32q0 -104 -31.5 -186t-88 -128t-129.5 -46q-30 0 -51.5 5.5t-32.5 11.5t-13 8v140q35 -14 85 -14q69 0 112 55t43 155q0 77 -19 197h111q4 -26 21.5 -39t66.5 -13q41 0 64 8t33.5 29.5
t10.5 61.5v-1h105v-101q0 -60 25 -84t88 -24zM578.5 508q29.5 3 36.5 3v-69q-77 -11 -203 -20v69l25 2q-12 14 -12 40q0 47 29 72.5t72 25.5q19 0 41.5 -7t22.5 -8v-69q-5 2 -24 6.5t-40 4.5q-23 0 -35 -5.5t-12 -21.5t8 -21t32 -5q30 0 59.5 3zM130 473l81 78l81 -78
l-81 -80z" />
    <glyph glyph-name="uniFC67" unicode="&#xfc67;" horiz-adv-x="1046" arabic-form="final" 
d="M1063 149v-146l-17 -3q-97 0 -150 42t-64 130q-33 -56 -111 -56q-51 0 -75 32q2 -44 2 -69q0 -160 -76.5 -238.5t-240.5 -78.5q-160 0 -231.5 74t-71.5 237q0 52 9 96t20 75t11 28h106q-3 -7 -12.5 -34.5t-18.5 -70t-9 -85.5q0 -63 20 -99.5t65 -53t123 -16.5
q75 0 118.5 18t62.5 55.5t19 98.5q-2 99 -19 231h108q4 -26 22 -39.5t67 -13.5q41 0 64 8t33.5 29t10.5 61h104v-101q0 -60 25 -84t89 -24zM253 453l81 78l81 -78l-81 -80zM942.5 508q29.5 3 36.5 3v-69q-77 -11 -203 -20v69l25 2q-12 14 -12 40q0 47 29 72.5t72 25.5
q19 0 41.5 -7t22.5 -8v-69q-5 2 -24 6.5t-40 4.5q-23 0 -35 -5.5t-12 -21.5t8 -21t32 -5q30 0 59.5 3z" />
    <glyph glyph-name="uniFC68" unicode="&#xfc68;" horiz-adv-x="944" arabic-form="final" 
d="M692.5 404q42.5 -21 68.5 -53t53 -83l21 -39q23 -43 45.5 -60t63.5 -17l17 -3v-146l-17 -3q-69 0 -107 27t-68 86l-25 45q-23 44 -43 69t-49.5 38t-74.5 13q-36 0 -68.5 -10t-52 -26t-19.5 -34q0 -23 24 -34t89 -27l56 -14q69 -18 101.5 -57.5t32.5 -109.5
q0 -120 -92.5 -188t-271.5 -68t-263.5 75.5t-84.5 235.5q0 47 8.5 91.5t17.5 73.5t12 37h110q-3 -8 -12 -36t-17 -68.5t-8 -77.5q0 -67 24 -106t77.5 -56t146.5 -17q129 0 194 23t65 64q0 15 -11.5 24t-39 16t-87.5 19q-65 13 -100 36t-49 58.5t-14 90.5q0 61 33 114.5
t88.5 85.5t120.5 32q63 0 105.5 -21zM647.5 572q29.5 3 36.5 3v-69q-77 -11 -203 -20v69l25 2q-12 14 -12 40q0 47 29 72.5t72 25.5q19 0 41.5 -7t22.5 -8v-69q-5 2 -24 6.5t-40 4.5q-23 0 -35 -5.5t-12 -21.5t8 -21t32 -5q30 0 59.5 3z" />
    <glyph glyph-name="uniFC69" unicode="&#xfc69;" horiz-adv-x="944" arabic-form="final" 
d="M692.5 404q42.5 -21 68.5 -53t53 -83l21 -39q23 -43 45.5 -60t63.5 -17l17 -3v-146l-17 -3q-69 0 -107 27t-68 86l-25 45q-23 44 -43 69t-49.5 38t-74.5 13q-36 0 -68.5 -10t-52 -26t-19.5 -34q0 -23 24 -34t89 -27l56 -14q69 -18 101.5 -57.5t32.5 -109.5
q0 -120 -92.5 -188t-271.5 -68t-263.5 75.5t-84.5 235.5q0 47 8.5 91.5t17.5 73.5t12 37h110q-3 -8 -12 -36t-17 -68.5t-8 -77.5q0 -67 24 -106t77.5 -56t146.5 -17q129 0 194 23t65 64q0 15 -11.5 24t-39 16t-87.5 19q-65 13 -100 36t-49 58.5t-14 90.5q0 61 33 114.5
t88.5 85.5t120.5 32q63 0 105.5 -21zM647.5 572q29.5 3 36.5 3v-69q-77 -11 -203 -20v69l25 2q-12 14 -12 40q0 47 29 72.5t72 25.5q19 0 41.5 -7t22.5 -8v-69q-5 2 -24 6.5t-40 4.5q-23 0 -35 -5.5t-12 -21.5t8 -21t32 -5q30 0 59.5 3zM445 -497l-61 61l-61 -61l-70 72
l70 71l61 -60l61 60l71 -71z" />
    <glyph glyph-name="uniFC6A" unicode="&#xfc6a;" horiz-adv-x="682" arabic-form="final" 
d="M699 149v-146l-17 -3q-96 0 -148.5 42t-65.5 130q-31 -56 -111 -56q-53 0 -75 33v-32q0 -104 -31.5 -186t-88 -128t-129.5 -46q-30 0 -51.5 5.5t-32.5 11.5t-13 8v140q35 -14 85 -14q69 0 112 55t43 155q0 77 -19 197h111q4 -26 21.5 -39t66.5 -13q41 0 64 8t33.5 29.5
t10.5 61.5v-1h105v-101q0 -60 25 -84t88 -24zM430 -131l81 79l82 -79l-82 -80z" />
    <glyph glyph-name="uniFC6B" unicode="&#xfc6b;" horiz-adv-x="682" arabic-form="final" 
d="M699 149v-146l-17 -3q-96 0 -148.5 42t-65.5 130q-31 -56 -111 -56q-53 0 -75 33v-32q0 -104 -31.5 -186t-88 -128t-129.5 -46q-30 0 -51.5 5.5t-32.5 11.5t-13 8v140q35 -14 85 -14q69 0 112 55t43 155q0 77 -19 197h111q4 -26 21.5 -39t66.5 -13q41 0 64 8t33.5 29.5
t10.5 61.5v-1h105v-101q0 -60 25 -84t88 -24zM430 -131l81 79l82 -79l-82 -80zM130 473l81 78l81 -78l-81 -80z" />
    <glyph glyph-name="uniFC6D" unicode="&#xfc6d;" horiz-adv-x="1046" arabic-form="final" 
d="M1063 149v-146l-17 -3q-97 0 -150 42t-64 130q-33 -56 -111 -56q-51 0 -75 32q2 -44 2 -69q0 -160 -76.5 -238.5t-240.5 -78.5q-160 0 -231.5 74t-71.5 237q0 52 9 96t20 75t11 28h106q-3 -7 -12.5 -34.5t-18.5 -70t-9 -85.5q0 -63 20 -99.5t65 -53t123 -16.5
q75 0 118.5 18t62.5 55.5t19 98.5q-2 99 -19 231h108q4 -26 22 -39.5t67 -13.5q41 0 64 8t33.5 29t10.5 61h104v-101q0 -60 25 -84t89 -24zM794 -129l81 79l82 -79l-82 -80zM253 453l81 78l81 -78l-81 -80z" />
    <glyph glyph-name="uniFC6E" unicode="&#xfc6e;" horiz-adv-x="944" arabic-form="final" 
d="M692.5 404q42.5 -21 68.5 -53t53 -83l21 -39q23 -43 45.5 -60t63.5 -17l17 -3v-146l-17 -3q-69 0 -107 27t-68 86l-25 45q-23 44 -43 69t-49.5 38t-74.5 13q-36 0 -68.5 -10t-52 -26t-19.5 -34q0 -23 24 -34t89 -27l56 -14q69 -18 101.5 -57.5t32.5 -109.5
q0 -120 -92.5 -188t-271.5 -68t-263.5 75.5t-84.5 235.5q0 47 8.5 91.5t17.5 73.5t12 37h110q-3 -8 -12 -36t-17 -68.5t-8 -77.5q0 -67 24 -106t77.5 -56t146.5 -17q129 0 194 23t65 64q0 15 -11.5 24t-39 16t-87.5 19q-65 13 -100 36t-49 58.5t-14 90.5q0 61 33 114.5
t88.5 85.5t120.5 32q63 0 105.5 -21zM803 -154l81 79l82 -79l-82 -80z" />
    <glyph glyph-name="uniFC6F" unicode="&#xfc6f;" horiz-adv-x="944" arabic-form="final" 
d="M692.5 404q42.5 -21 68.5 -53t53 -83l21 -39q23 -43 45.5 -60t63.5 -17l17 -3v-146l-17 -3q-69 0 -107 27t-68 86l-25 45q-23 44 -43 69t-49.5 38t-74.5 13q-36 0 -68.5 -10t-52 -26t-19.5 -34q0 -23 24 -34t89 -27l56 -14q69 -18 101.5 -57.5t32.5 -109.5
q0 -120 -92.5 -188t-271.5 -68t-263.5 75.5t-84.5 235.5q0 47 8.5 91.5t17.5 73.5t12 37h110q-3 -8 -12 -36t-17 -68.5t-8 -77.5q0 -67 24 -106t77.5 -56t146.5 -17q129 0 194 23t65 64q0 15 -11.5 24t-39 16t-87.5 19q-65 13 -100 36t-49 58.5t-14 90.5q0 61 33 114.5
t88.5 85.5t120.5 32q63 0 105.5 -21zM803 -154l81 79l82 -79l-82 -80zM445 -497l-61 61l-61 -61l-70 72l70 71l61 -60l61 60l71 -71z" />
    <glyph glyph-name="uniFC70" unicode="&#xfc70;" horiz-adv-x="682" arabic-form="final" 
d="M699 149v-146l-17 -3q-96 0 -148.5 42t-65.5 130q-31 -56 -111 -56q-53 0 -75 33v-32q0 -104 -31.5 -186t-88 -128t-129.5 -46q-30 0 -51.5 5.5t-32.5 11.5t-13 8v140q35 -14 85 -14q69 0 112 55t43 155q0 77 -19 197h111q4 -26 21.5 -39t66.5 -13q41 0 64 8t33.5 29.5
t10.5 61.5v-1h105v-101q0 -60 25 -84t88 -24zM579 433l-62 63l-63 -63l-73 74l73 73l63 -62l62 62l73 -73z" />
    <glyph glyph-name="uniFC71" unicode="&#xfc71;" horiz-adv-x="682" arabic-form="final" 
d="M699 149v-146l-17 -3q-96 0 -148.5 42t-65.5 130q-31 -56 -111 -56q-53 0 -75 33v-32q0 -104 -31.5 -186t-88 -128t-129.5 -46q-30 0 -51.5 5.5t-32.5 11.5t-13 8v140q35 -14 85 -14q69 0 112 55t43 155q0 77 -19 197h111q4 -26 21.5 -39t66.5 -13q41 0 64 8t33.5 29.5
t10.5 61.5v-1h105v-101q0 -60 25 -84t88 -24zM130 473l81 78l81 -78l-81 -80zM579 433l-62 63l-63 -63l-73 74l73 73l63 -62l62 62l73 -73z" />
    <glyph glyph-name="uniFC73" unicode="&#xfc73;" horiz-adv-x="1046" arabic-form="final" 
d="M1063 149v-146l-17 -3q-97 0 -150 42t-64 130q-33 -56 -111 -56q-51 0 -75 32q2 -44 2 -69q0 -160 -76.5 -238.5t-240.5 -78.5q-160 0 -231.5 74t-71.5 237q0 52 9 96t20 75t11 28h106q-3 -7 -12.5 -34.5t-18.5 -70t-9 -85.5q0 -63 20 -99.5t65 -53t123 -16.5
q75 0 118.5 18t62.5 55.5t19 98.5q-2 99 -19 231h108q4 -26 22 -39.5t67 -13.5q41 0 64 8t33.5 29t10.5 61h104v-101q0 -60 25 -84t89 -24zM253 453l81 78l81 -78l-81 -80zM943 433l-62 63l-63 -63l-73 74l73 73l63 -62l62 62l73 -73z" />
    <glyph glyph-name="uniFC74" unicode="&#xfc74;" horiz-adv-x="944" arabic-form="final" 
d="M692.5 404q42.5 -21 68.5 -53t53 -83l21 -39q23 -43 45.5 -60t63.5 -17l17 -3v-146l-17 -3q-69 0 -107 27t-68 86l-25 45q-23 44 -43 69t-49.5 38t-74.5 13q-36 0 -68.5 -10t-52 -26t-19.5 -34q0 -23 24 -34t89 -27l56 -14q69 -18 101.5 -57.5t32.5 -109.5
q0 -120 -92.5 -188t-271.5 -68t-263.5 75.5t-84.5 235.5q0 47 8.5 91.5t17.5 73.5t12 37h110q-3 -8 -12 -36t-17 -68.5t-8 -77.5q0 -67 24 -106t77.5 -56t146.5 -17q129 0 194 23t65 64q0 15 -11.5 24t-39 16t-87.5 19q-65 13 -100 36t-49 58.5t-14 90.5q0 61 33 114.5
t88.5 85.5t120.5 32q63 0 105.5 -21zM648 497l-62 63l-63 -63l-73 74l73 73l63 -62l62 62l73 -73z" />
    <glyph glyph-name="uniFC75" unicode="&#xfc75;" horiz-adv-x="944" arabic-form="final" 
d="M692.5 404q42.5 -21 68.5 -53t53 -83l21 -39q23 -43 45.5 -60t63.5 -17l17 -3v-146l-17 -3q-69 0 -107 27t-68 86l-25 45q-23 44 -43 69t-49.5 38t-74.5 13q-36 0 -68.5 -10t-52 -26t-19.5 -34q0 -23 24 -34t89 -27l56 -14q69 -18 101.5 -57.5t32.5 -109.5
q0 -120 -92.5 -188t-271.5 -68t-263.5 75.5t-84.5 235.5q0 47 8.5 91.5t17.5 73.5t12 37h110q-3 -8 -12 -36t-17 -68.5t-8 -77.5q0 -67 24 -106t77.5 -56t146.5 -17q129 0 194 23t65 64q0 15 -11.5 24t-39 16t-87.5 19q-65 13 -100 36t-49 58.5t-14 90.5q0 61 33 114.5
t88.5 85.5t120.5 32q63 0 105.5 -21zM648 497l-62 63l-63 -63l-73 74l73 73l63 -62l62 62l73 -73zM445 -497l-61 61l-61 -61l-70 72l70 71l61 -60l61 60l71 -71z" />
    <glyph glyph-name="uniFC76" unicode="&#xfc76;" horiz-adv-x="682" arabic-form="final" 
d="M699 149v-146l-17 -3q-96 0 -148.5 42t-65.5 130q-31 -56 -111 -56q-53 0 -75 33v-32q0 -104 -31.5 -186t-88 -128t-129.5 -46q-30 0 -51.5 5.5t-32.5 11.5t-13 8v140q35 -14 85 -14q69 0 112 55t43 155q0 77 -19 197h111q4 -26 21.5 -39t66.5 -13q41 0 64 8t33.5 29.5
t10.5 61.5v-1h105v-101q0 -60 25 -84t88 -24zM518 556l-65 66l65 65l67 -65zM579 432l-62 62l-62 -62l-72 74l72 73l62 -61l62 61l73 -73z" />
    <glyph glyph-name="uniFC77" unicode="&#xfc77;" horiz-adv-x="682" arabic-form="final" 
d="M699 149v-146l-17 -3q-96 0 -148.5 42t-65.5 130q-31 -56 -111 -56q-53 0 -75 33v-32q0 -104 -31.5 -186t-88 -128t-129.5 -46q-30 0 -51.5 5.5t-32.5 11.5t-13 8v140q35 -14 85 -14q69 0 112 55t43 155q0 77 -19 197h111q4 -26 21.5 -39t66.5 -13q41 0 64 8t33.5 29.5
t10.5 61.5v-1h105v-101q0 -60 25 -84t88 -24zM130 473l81 78l81 -78l-81 -80zM518 556l-65 66l65 65l67 -65zM579 432l-62 62l-62 -62l-72 74l72 73l62 -61l62 61l73 -73z" />
    <glyph glyph-name="uniFC79" unicode="&#xfc79;" horiz-adv-x="1046" arabic-form="final" 
d="M1063 149v-146l-17 -3q-97 0 -150 42t-64 130q-33 -56 -111 -56q-51 0 -75 32q2 -44 2 -69q0 -160 -76.5 -238.5t-240.5 -78.5q-160 0 -231.5 74t-71.5 237q0 52 9 96t20 75t11 28h106q-3 -7 -12.5 -34.5t-18.5 -70t-9 -85.5q0 -63 20 -99.5t65 -53t123 -16.5
q75 0 118.5 18t62.5 55.5t19 98.5q-2 99 -19 231h108q4 -26 22 -39.5t67 -13.5q41 0 64 8t33.5 29t10.5 61h104v-101q0 -60 25 -84t89 -24zM253 453l81 78l81 -78l-81 -80zM882 556l-65 66l65 65l67 -65zM943 432l-62 62l-62 -62l-72 74l72 73l62 -61l62 61l73 -73z" />
    <glyph glyph-name="uniFC7A" unicode="&#xfc7a;" horiz-adv-x="944" arabic-form="final" 
d="M692.5 404q42.5 -21 68.5 -53t53 -83l21 -39q23 -43 45.5 -60t63.5 -17l17 -3v-146l-17 -3q-69 0 -107 27t-68 86l-25 45q-23 44 -43 69t-49.5 38t-74.5 13q-36 0 -68.5 -10t-52 -26t-19.5 -34q0 -23 24 -34t89 -27l56 -14q69 -18 101.5 -57.5t32.5 -109.5
q0 -120 -92.5 -188t-271.5 -68t-263.5 75.5t-84.5 235.5q0 47 8.5 91.5t17.5 73.5t12 37h110q-3 -8 -12 -36t-17 -68.5t-8 -77.5q0 -67 24 -106t77.5 -56t146.5 -17q129 0 194 23t65 64q0 15 -11.5 24t-39 16t-87.5 19q-65 13 -100 36t-49 58.5t-14 90.5q0 61 33 114.5
t88.5 85.5t120.5 32q63 0 105.5 -21zM587 620l-65 66l65 65l67 -65zM648 496l-62 62l-62 -62l-72 74l72 73l62 -61l62 61l73 -73z" />
    <glyph glyph-name="uniFC7B" unicode="&#xfc7b;" horiz-adv-x="944" arabic-form="final" 
d="M692.5 404q42.5 -21 68.5 -53t53 -83l21 -39q23 -43 45.5 -60t63.5 -17l17 -3v-146l-17 -3q-69 0 -107 27t-68 86l-25 45q-23 44 -43 69t-49.5 38t-74.5 13q-36 0 -68.5 -10t-52 -26t-19.5 -34q0 -23 24 -34t89 -27l56 -14q69 -18 101.5 -57.5t32.5 -109.5
q0 -120 -92.5 -188t-271.5 -68t-263.5 75.5t-84.5 235.5q0 47 8.5 91.5t17.5 73.5t12 37h110q-3 -8 -12 -36t-17 -68.5t-8 -77.5q0 -67 24 -106t77.5 -56t146.5 -17q129 0 194 23t65 64q0 15 -11.5 24t-39 16t-87.5 19q-65 13 -100 36t-49 58.5t-14 90.5q0 61 33 114.5
t88.5 85.5t120.5 32q63 0 105.5 -21zM587 620l-65 66l65 65l67 -65zM648 496l-62 62l-62 -62l-72 74l72 73l62 -61l62 61l73 -73zM445 -497l-61 61l-61 -61l-70 72l70 71l61 -60l61 60l71 -71z" />
    <glyph glyph-name="uniFC83" unicode="&#xfc83;" horiz-adv-x="1083" arabic-form="final" 
d="M1100 149v-146l-17 -3q-65 0 -105 10.5t-73 36.5t-75 79q-13 -43 -52 -70t-104 -35q17 -29 17 -70q0 -72 -39.5 -126.5t-115 -84.5t-179.5 -30q-168 0 -248.5 73t-80.5 227q0 47 8 89.5t17 69.5t12 34h111q-3 -7 -12 -34t-17 -66.5t-8 -77.5q1 -61 23 -96.5t71 -51
t135 -15.5q111 0 171 24t60 65q0 28 -31 40.5t-103 18.5v145q37 -3 135 -3q66 0 102.5 4.5t52 14t18.5 25.5q-43 52 -91 106q-20 24 -41 48.5t-42 49.5v112l425 241v-139l-309 -168q14 -16 31 -37q22 -24 56.5 -64t59.5 -68q52 -58 78 -81.5t57.5 -33.5t85.5 -10z" />
    <glyph glyph-name="uniFC84" unicode="&#xfc84;" horiz-adv-x="1083" arabic-form="final" 
d="M1100 149v-146l-17 -3q-65 0 -105 10.5t-73 36.5t-75 79q-13 -43 -52 -70t-104 -35q17 -29 17 -70q0 -72 -39.5 -126.5t-115 -84.5t-179.5 -30q-168 0 -248.5 73t-80.5 227q0 47 8 89.5t17 69.5t12 34h111q-3 -7 -12 -34t-17 -66.5t-8 -77.5q1 -61 23 -96.5t71 -51
t135 -15.5q111 0 171 24t60 65q0 28 -31 40.5t-103 18.5v145q37 -3 135 -3q66 0 102.5 4.5t52 14t18.5 25.5q-43 52 -91 106q-20 24 -41 48.5t-42 49.5v112l425 241v-139l-309 -168q14 -16 31 -37q22 -24 56.5 -64t59.5 -68q52 -58 78 -81.5t57.5 -33.5t85.5 -10zM417 -497
l-61 61l-61 -61l-70 72l70 71l61 -60l61 60l71 -71z" />
    <glyph glyph-name="uniFC87" unicode="&#xfc87;" horiz-adv-x="863" arabic-form="final" 
d="M880 149v-146l-17 -3q-124 0 -154 91q-22 -32 -53 -47q35 -37 35 -93q0 -72 -39.5 -126.5t-115 -84.5t-179.5 -30q-167 0 -247.5 73t-81.5 227q0 47 8 89.5t17 69.5t12 34h111q-3 -7 -12 -34t-17 -66.5t-8 -77.5q1 -61 23 -96.5t71 -51t135 -15.5q111 0 171 24t60 65
q0 28 -31 40.5t-103 18.5v145q18 -3 55 -3q48 0 73 7t35 24t10 51v509l113 1v-470q0 -49 11 -75t35 -36.5t66 -10.5zM417 -494l-61 61l-61 -61l-70 72l70 71l61 -60l61 60l71 -71z" />
    <glyph glyph-name="uniFC8A" unicode="&#xfc8a;" horiz-adv-x="682" arabic-form="final" 
d="M699 149v-146l-17 -3q-96 0 -148.5 42t-65.5 130q-31 -56 -111 -56q-53 0 -75 33v-32q0 -104 -31.5 -186t-88 -128t-129.5 -46q-30 0 -51.5 5.5t-32.5 11.5t-13 8v140q35 -14 85 -14q69 0 112 55t43 155q0 77 -19 197h111q4 -26 21.5 -39t66.5 -13q41 0 64 8t33.5 29.5
t10.5 61.5v-1h105v-101q0 -60 25 -84t88 -24zM437 519l81 78l81 -78l-81 -80z" />
    <glyph glyph-name="uniFC8B" unicode="&#xfc8b;" horiz-adv-x="682" arabic-form="final" 
d="M699 149v-146l-17 -3q-96 0 -148.5 42t-65.5 130q-31 -56 -111 -56q-53 0 -75 33v-32q0 -104 -31.5 -186t-88 -128t-129.5 -46q-30 0 -51.5 5.5t-32.5 11.5t-13 8v140q35 -14 85 -14q69 0 112 55t43 155q0 77 -19 197h111q4 -26 21.5 -39t66.5 -13q41 0 64 8t33.5 29.5
t10.5 61.5v-1h105v-101q0 -60 25 -84t88 -24zM437 519l81 78l81 -78l-81 -80zM130 473l81 78l81 -78l-81 -80z" />
    <glyph glyph-name="uniFC8D" unicode="&#xfc8d;" horiz-adv-x="1046" arabic-form="final" 
d="M1063 149v-146l-17 -3q-97 0 -150 42t-64 130q-33 -56 -111 -56q-51 0 -75 32q2 -44 2 -69q0 -160 -76.5 -238.5t-240.5 -78.5q-160 0 -231.5 74t-71.5 237q0 52 9 96t20 75t11 28h106q-3 -7 -12.5 -34.5t-18.5 -70t-9 -85.5q0 -63 20 -99.5t65 -53t123 -16.5
q75 0 118.5 18t62.5 55.5t19 98.5q-2 99 -19 231h108q4 -26 22 -39.5t67 -13.5q41 0 64 8t33.5 29t10.5 61h104v-101q0 -60 25 -84t89 -24zM253 453l81 78l81 -78l-81 -80zM801 519l81 78l81 -78l-81 -80z" />
    <glyph glyph-name="uniFC8E" unicode="&#xfc8e;" horiz-adv-x="944" arabic-form="final" 
d="M692.5 404q42.5 -21 68.5 -53t53 -83l21 -39q23 -43 45.5 -60t63.5 -17l17 -3v-146l-17 -3q-69 0 -107 27t-68 86l-25 45q-23 44 -43 69t-49.5 38t-74.5 13q-36 0 -68.5 -10t-52 -26t-19.5 -34q0 -23 24 -34t89 -27l56 -14q69 -18 101.5 -57.5t32.5 -109.5
q0 -120 -92.5 -188t-271.5 -68t-263.5 75.5t-84.5 235.5q0 47 8.5 91.5t17.5 73.5t12 37h110q-3 -8 -12 -36t-17 -68.5t-8 -77.5q0 -67 24 -106t77.5 -56t146.5 -17q129 0 194 23t65 64q0 15 -11.5 24t-39 16t-87.5 19q-65 13 -100 36t-49 58.5t-14 90.5q0 61 33 114.5
t88.5 85.5t120.5 32q63 0 105.5 -21zM506 583l81 78l81 -78l-81 -80z" />
    <glyph glyph-name="uniFC8F" unicode="&#xfc8f;" horiz-adv-x="944" arabic-form="final" 
d="M692.5 404q42.5 -21 68.5 -53t53 -83l21 -39q23 -43 45.5 -60t63.5 -17l17 -3v-146l-17 -3q-69 0 -107 27t-68 86l-25 45q-23 44 -43 69t-49.5 38t-74.5 13q-36 0 -68.5 -10t-52 -26t-19.5 -34q0 -23 24 -34t89 -27l56 -14q69 -18 101.5 -57.5t32.5 -109.5
q0 -120 -92.5 -188t-271.5 -68t-263.5 75.5t-84.5 235.5q0 47 8.5 91.5t17.5 73.5t12 37h110q-3 -8 -12 -36t-17 -68.5t-8 -77.5q0 -67 24 -106t77.5 -56t146.5 -17q129 0 194 23t65 64q0 15 -11.5 24t-39 16t-87.5 19q-65 13 -100 36t-49 58.5t-14 90.5q0 61 33 114.5
t88.5 85.5t120.5 32q63 0 105.5 -21zM506 583l81 78l81 -78l-81 -80zM445 -497l-61 61l-61 -61l-70 72l70 71l61 -60l61 60l71 -71z" />
    <glyph glyph-name="uniFC91" unicode="&#xfc91;" horiz-adv-x="682" arabic-form="final" 
d="M699 149v-146l-17 -3q-96 0 -148.5 42t-65.5 130q-31 -56 -111 -56q-53 0 -75 33v-32q0 -104 -31.5 -186t-88 -128t-129.5 -46q-30 0 -51.5 5.5t-32.5 11.5t-13 8v140q35 -14 85 -14q69 0 112 55t43 155q0 77 -19 197h111q4 -26 21.5 -39t66.5 -13q41 0 64 8t33.5 29.5
t10.5 61.5v-1h105v-101q0 -60 25 -84t88 -24zM571 -189l-61 61l-61 -61l-70 72l70 71l61 -60l61 60l71 -71z" />
    <glyph glyph-name="uniFC92" unicode="&#xfc92;" horiz-adv-x="682" arabic-form="final" 
d="M699 149v-146l-17 -3q-96 0 -148.5 42t-65.5 130q-31 -56 -111 -56q-53 0 -75 33v-32q0 -104 -31.5 -186t-88 -128t-129.5 -46q-30 0 -51.5 5.5t-32.5 11.5t-13 8v140q35 -14 85 -14q69 0 112 55t43 155q0 77 -19 197h111q4 -26 21.5 -39t66.5 -13q41 0 64 8t33.5 29.5
t10.5 61.5v-1h105v-101q0 -60 25 -84t88 -24zM571 -189l-61 61l-61 -61l-70 72l70 71l61 -60l61 60l71 -71zM130 473l81 78l81 -78l-81 -80z" />
    <glyph glyph-name="uniFC94" unicode="&#xfc94;" horiz-adv-x="1046" arabic-form="final" 
d="M1063 149v-146l-17 -3q-97 0 -150 42t-64 130q-33 -56 -111 -56q-51 0 -75 32q2 -44 2 -69q0 -160 -76.5 -238.5t-240.5 -78.5q-160 0 -231.5 74t-71.5 237q0 52 9 96t20 75t11 28h106q-3 -7 -12.5 -34.5t-18.5 -70t-9 -85.5q0 -63 20 -99.5t65 -53t123 -16.5
q75 0 118.5 18t62.5 55.5t19 98.5q-2 99 -19 231h108q4 -26 22 -39.5t67 -13.5q41 0 64 8t33.5 29t10.5 61h104v-101q0 -60 25 -84t89 -24zM253 453l81 78l81 -78l-81 -80zM935 -187l-61 61l-61 -61l-70 72l70 71l61 -60l61 60l71 -71z" />
    <glyph glyph-name="uniFC95" unicode="&#xfc95;" horiz-adv-x="944" arabic-form="final" 
d="M692.5 404q42.5 -21 68.5 -53t53 -83l21 -39q23 -43 45.5 -60t63.5 -17l17 -3v-146l-17 -3q-69 0 -107 27t-68 86l-25 45q-23 44 -43 69t-49.5 38t-74.5 13q-36 0 -68.5 -10t-52 -26t-19.5 -34q0 -23 24 -34t89 -27l56 -14q69 -18 101.5 -57.5t32.5 -109.5
q0 -120 -92.5 -188t-271.5 -68t-263.5 75.5t-84.5 235.5q0 47 8.5 91.5t17.5 73.5t12 37h110q-3 -8 -12 -36t-17 -68.5t-8 -77.5q0 -67 24 -106t77.5 -56t146.5 -17q129 0 194 23t65 64q0 15 -11.5 24t-39 16t-87.5 19q-65 13 -100 36t-49 58.5t-14 90.5q0 61 33 114.5
t88.5 85.5t120.5 32q63 0 105.5 -21zM944 -212l-61 61l-61 -61l-70 72l70 71l61 -60l61 60l71 -71z" />
    <glyph glyph-name="uniFC96" unicode="&#xfc96;" horiz-adv-x="944" arabic-form="final" 
d="M692.5 404q42.5 -21 68.5 -53t53 -83l21 -39q23 -43 45.5 -60t63.5 -17l17 -3v-146l-17 -3q-69 0 -107 27t-68 86l-25 45q-23 44 -43 69t-49.5 38t-74.5 13q-36 0 -68.5 -10t-52 -26t-19.5 -34q0 -23 24 -34t89 -27l56 -14q69 -18 101.5 -57.5t32.5 -109.5
q0 -120 -92.5 -188t-271.5 -68t-263.5 75.5t-84.5 235.5q0 47 8.5 91.5t17.5 73.5t12 37h110q-3 -8 -12 -36t-17 -68.5t-8 -77.5q0 -67 24 -106t77.5 -56t146.5 -17q129 0 194 23t65 64q0 15 -11.5 24t-39 16t-87.5 19q-65 13 -100 36t-49 58.5t-14 90.5q0 61 33 114.5
t88.5 85.5t120.5 32q63 0 105.5 -21zM944 -212l-61 61l-61 -61l-70 72l70 71l61 -60l61 60l71 -71zM445 -497l-61 61l-61 -61l-70 72l70 71l61 -60l61 60l71 -71z" />
    <glyph glyph-name="uniFCFB" unicode="&#xfcfb;" horiz-adv-x="1434" arabic-form="isolated" 
d="M1385.5 302.5q7.5 -41.5 7.5 -86.5q0 -107 -48 -161.5t-133 -54.5q-112 0 -140 86q-13 -42 -48 -64t-90 -22q-44 0 -73.5 13t-50 37t-41.5 63l-25 45q-23 44 -43 69t-49.5 38t-74.5 13q-36 0 -68.5 -10t-52 -26t-19.5 -34q0 -23 25 -34.5t94 -28.5q24 -5 50 -12
q69 -18 101.5 -57.5t32.5 -109.5q0 -118 -93 -187t-271 -69q-179 0 -263.5 75.5t-84.5 235.5q0 47 8.5 91.5t17.5 73.5t12 37h110q-3 -8 -12 -36t-17 -68.5t-8 -77.5q0 -67 24 -106t77.5 -56t146.5 -17q129 0 194 23t65 64q0 15 -11.5 23.5t-38 16t-88.5 19.5
q-65 13 -100 36t-49 58.5t-14 90.5q0 61 33 114.5t88.5 85.5t120.5 32q63 0 105.5 -20.5t68.5 -53t53 -83.5l21 -39q24 -45 44.5 -61t60.5 -16q49 0 68.5 17.5t19.5 63.5v98h104v-100q0 -44 17 -61.5t62 -17.5q41 0 57.5 17.5t16.5 60.5q0 23 -4 51.5t-9 50t-6 27.5h105
q7 -15 14.5 -56.5z" />
    <glyph glyph-name="uniFCFC" unicode="&#xfcfc;" horiz-adv-x="1434" arabic-form="isolated" 
d="M1385.5 302.5q7.5 -41.5 7.5 -86.5q0 -107 -48 -161.5t-133 -54.5q-112 0 -140 86q-13 -42 -48 -64t-90 -22q-44 0 -73.5 13t-50 37t-41.5 63l-25 45q-23 44 -43 69t-49.5 38t-74.5 13q-36 0 -68.5 -10t-52 -26t-19.5 -34q0 -23 25 -34.5t94 -28.5q24 -5 50 -12
q69 -18 101.5 -57.5t32.5 -109.5q0 -118 -93 -187t-271 -69q-179 0 -263.5 75.5t-84.5 235.5q0 47 8.5 91.5t17.5 73.5t12 37h110q-3 -8 -12 -36t-17 -68.5t-8 -77.5q0 -67 24 -106t77.5 -56t146.5 -17q129 0 194 23t65 64q0 15 -11.5 23.5t-38 16t-88.5 19.5
q-65 13 -100 36t-49 58.5t-14 90.5q0 61 33 114.5t88.5 85.5t120.5 32q63 0 105.5 -20.5t68.5 -53t53 -83.5l21 -39q24 -45 44.5 -61t60.5 -16q49 0 68.5 17.5t19.5 63.5v98h104v-100q0 -44 17 -61.5t62 -17.5q41 0 57.5 17.5t16.5 60.5q0 23 -4 51.5t-9 50t-6 27.5h105
q7 -15 14.5 -56.5zM436 -503l-61 61l-61 -61l-70 72l70 71l61 -60l61 60l71 -71z" />
    <glyph glyph-name="uniFCFD" unicode="&#xfcfd;" horiz-adv-x="1434" arabic-form="isolated" 
d="M1385.5 302.5q7.5 -41.5 7.5 -86.5q0 -107 -48 -161.5t-133 -54.5q-112 0 -140 86q-13 -42 -48 -64t-90 -22q-44 0 -73.5 13t-50 37t-41.5 63l-25 45q-23 44 -43 69t-49.5 38t-74.5 13q-36 0 -68.5 -10t-52 -26t-19.5 -34q0 -23 25 -34.5t94 -28.5q24 -5 50 -12
q69 -18 101.5 -57.5t32.5 -109.5q0 -118 -93 -187t-271 -69q-179 0 -263.5 75.5t-84.5 235.5q0 47 8.5 91.5t17.5 73.5t12 37h110q-3 -8 -12 -36t-17 -68.5t-8 -77.5q0 -67 24 -106t77.5 -56t146.5 -17q129 0 194 23t65 64q0 15 -11.5 23.5t-38 16t-88.5 19.5
q-65 13 -100 36t-49 58.5t-14 90.5q0 61 33 114.5t88.5 85.5t120.5 32q63 0 105.5 -20.5t68.5 -53t53 -83.5l21 -39q24 -45 44.5 -61t60.5 -16q49 0 68.5 17.5t19.5 63.5v98h104v-100q0 -44 17 -61.5t62 -17.5q41 0 57.5 17.5t16.5 60.5q0 23 -4 51.5t-9 50t-6 27.5h105
q7 -15 14.5 -56.5zM1078 526l-65 66l65 65l67 -65zM1139 402l-62 62l-62 -62l-72 74l72 73l62 -61l62 61l73 -73z" />
    <glyph glyph-name="uniFCFE" unicode="&#xfcfe;" horiz-adv-x="1434" arabic-form="isolated" 
d="M1385.5 302.5q7.5 -41.5 7.5 -86.5q0 -107 -48 -161.5t-133 -54.5q-112 0 -140 86q-13 -42 -48 -64t-90 -22q-44 0 -73.5 13t-50 37t-41.5 63l-25 45q-23 44 -43 69t-49.5 38t-74.5 13q-36 0 -68.5 -10t-52 -26t-19.5 -34q0 -23 25 -34.5t94 -28.5q24 -5 50 -12
q69 -18 101.5 -57.5t32.5 -109.5q0 -118 -93 -187t-271 -69q-179 0 -263.5 75.5t-84.5 235.5q0 47 8.5 91.5t17.5 73.5t12 37h110q-3 -8 -12 -36t-17 -68.5t-8 -77.5q0 -67 24 -106t77.5 -56t146.5 -17q129 0 194 23t65 64q0 15 -11.5 23.5t-38 16t-88.5 19.5
q-65 13 -100 36t-49 58.5t-14 90.5q0 61 33 114.5t88.5 85.5t120.5 32q63 0 105.5 -20.5t68.5 -53t53 -83.5l21 -39q24 -45 44.5 -61t60.5 -16q49 0 68.5 17.5t19.5 63.5v98h104v-100q0 -44 17 -61.5t62 -17.5q41 0 57.5 17.5t16.5 60.5q0 23 -4 51.5t-9 50t-6 27.5h105
q7 -15 14.5 -56.5zM1078 526l-65 66l65 65l67 -65zM1139 402l-62 62l-62 -62l-72 74l72 73l62 -61l62 61l73 -73zM436 -503l-61 61l-61 -61l-70 72l70 71l61 -60l61 60l71 -71z" />
    <glyph glyph-name="uniFD05" unicode="&#xfd05;" horiz-adv-x="1520" arabic-form="isolated" 
d="M1373 449.5q51 -32.5 78.5 -91.5t27.5 -137q0 -109 -63 -165t-186 -56h-276q-50 0 -82.5 14t-52.5 37t-43 62l-28 51q-24 43 -45 68t-51 38.5t-75 13.5q-37 0 -71 -11t-54.5 -28.5t-20.5 -36.5q0 -23 25 -34t92 -27l58 -14q69 -18 101.5 -57.5t32.5 -109.5
q0 -118 -93 -187t-271 -69q-179 0 -263.5 75.5t-84.5 235.5q0 47 8.5 91.5t17.5 73.5t12 37h110q-3 -8 -12 -36t-17 -68.5t-8 -77.5q0 -67 24 -106t77.5 -56t146.5 -17q129 0 194 23t65 64q0 15 -11.5 24t-39 16t-87.5 19q-67 13 -103.5 36t-51 58.5t-14.5 90.5
q0 62 33.5 117t91 88t123.5 33q63 0 106 -21t70 -53.5t55 -82.5l25 -45q24 -43 35 -55q69 113 129.5 180.5t120 97.5t127.5 30q67 0 118 -32.5zM1351.5 167q31.5 15 31.5 55q0 49 -36.5 83t-98.5 34q-82 0 -150 -45t-134 -142h275q81 0 112.5 15z" />
    <glyph glyph-name="uniFD06" unicode="&#xfd06;" horiz-adv-x="1520" arabic-form="isolated" 
d="M1373 449.5q51 -32.5 78.5 -91.5t27.5 -137q0 -109 -63 -165t-186 -56h-276q-50 0 -82.5 14t-52.5 37t-43 62l-28 51q-24 43 -45 68t-51 38.5t-75 13.5q-37 0 -71 -11t-54.5 -28.5t-20.5 -36.5q0 -23 25 -34t92 -27l58 -14q69 -18 101.5 -57.5t32.5 -109.5
q0 -118 -93 -187t-271 -69q-179 0 -263.5 75.5t-84.5 235.5q0 47 8.5 91.5t17.5 73.5t12 37h110q-3 -8 -12 -36t-17 -68.5t-8 -77.5q0 -67 24 -106t77.5 -56t146.5 -17q129 0 194 23t65 64q0 15 -11.5 24t-39 16t-87.5 19q-67 13 -103.5 36t-51 58.5t-14.5 90.5
q0 62 33.5 117t91 88t123.5 33q63 0 106 -21t70 -53.5t55 -82.5l25 -45q24 -43 35 -55q69 113 129.5 180.5t120 97.5t127.5 30q67 0 118 -32.5zM1351.5 167q31.5 15 31.5 55q0 49 -36.5 83t-98.5 34q-82 0 -150 -45t-134 -142h275q81 0 112.5 15zM445 -497l-61 61l-61 -61
l-70 72l70 71l61 -60l61 60l71 -71z" />
    <glyph glyph-name="uniFD07" unicode="&#xfd07;" horiz-adv-x="1520" arabic-form="isolated" 
d="M1373 449.5q51 -32.5 78.5 -91.5t27.5 -137q0 -109 -63 -165t-186 -56h-276q-50 0 -82.5 14t-52.5 37t-43 62l-28 51q-24 43 -45 68t-51 38.5t-75 13.5q-37 0 -71 -11t-54.5 -28.5t-20.5 -36.5q0 -23 25 -34t92 -27l58 -14q69 -18 101.5 -57.5t32.5 -109.5
q0 -118 -93 -187t-271 -69q-179 0 -263.5 75.5t-84.5 235.5q0 47 8.5 91.5t17.5 73.5t12 37h110q-3 -8 -12 -36t-17 -68.5t-8 -77.5q0 -67 24 -106t77.5 -56t146.5 -17q129 0 194 23t65 64q0 15 -11.5 24t-39 16t-87.5 19q-67 13 -103.5 36t-51 58.5t-14.5 90.5
q0 62 33.5 117t91 88t123.5 33q63 0 106 -21t70 -53.5t55 -82.5l25 -45q24 -43 35 -55q69 113 129.5 180.5t120 97.5t127.5 30q67 0 118 -32.5zM1351.5 167q31.5 15 31.5 55q0 49 -36.5 83t-98.5 34q-82 0 -150 -45t-134 -142h275q81 0 112.5 15zM1174 640l81 78l81 -78
l-81 -80z" />
    <glyph glyph-name="uniFD08" unicode="&#xfd08;" horiz-adv-x="1520" arabic-form="isolated" 
d="M1373 449.5q51 -32.5 78.5 -91.5t27.5 -137q0 -109 -63 -165t-186 -56h-276q-50 0 -82.5 14t-52.5 37t-43 62l-28 51q-24 43 -45 68t-51 38.5t-75 13.5q-37 0 -71 -11t-54.5 -28.5t-20.5 -36.5q0 -23 25 -34t92 -27l58 -14q69 -18 101.5 -57.5t32.5 -109.5
q0 -118 -93 -187t-271 -69q-179 0 -263.5 75.5t-84.5 235.5q0 47 8.5 91.5t17.5 73.5t12 37h110q-3 -8 -12 -36t-17 -68.5t-8 -77.5q0 -67 24 -106t77.5 -56t146.5 -17q129 0 194 23t65 64q0 15 -11.5 24t-39 16t-87.5 19q-67 13 -103.5 36t-51 58.5t-14.5 90.5
q0 62 33.5 117t91 88t123.5 33q63 0 106 -21t70 -53.5t55 -82.5l25 -45q24 -43 35 -55q69 113 129.5 180.5t120 97.5t127.5 30q67 0 118 -32.5zM1351.5 167q31.5 15 31.5 55q0 49 -36.5 83t-98.5 34q-82 0 -150 -45t-134 -142h275q81 0 112.5 15zM445 -497l-61 61l-61 -61
l-70 72l70 71l61 -60l61 60l71 -71zM1174 640l81 78l81 -78l-81 -80z" />
    <glyph glyph-name="uniFD0D" unicode="&#xfd0d;" horiz-adv-x="1149" arabic-form="isolated" 
d="M1100.5 302.5q7.5 -41.5 7.5 -86.5q0 -107 -46.5 -161.5t-128.5 -54.5q-56 0 -90.5 21t-48.5 65q-14 -42 -51 -64t-97 -22q-83 0 -126.5 43t-50.5 131q-31 -58 -112 -58q-52 0 -75 29v-28q0 -104 -31.5 -186t-88 -128t-129.5 -46q-30 0 -51.5 5.5t-32.5 11.5t-13 8v140
q35 -14 85 -14q69 0 112 55t43 155q0 77 -19 197h111q4 -26 21.5 -39t66.5 -13q41 0 64 8t33.5 29t10.5 61h103v-112q0 -54 20 -75.5t70 -21.5q52 0 73 17.5t21 62.5v99h103v-100q0 -44 16.5 -61.5t59.5 -17.5q42 0 58.5 17.5t16.5 60.5q0 23 -4.5 51.5t-9 50t-6.5 27.5h101
q7 -15 14.5 -56.5zM801 526l-65 66l65 65l67 -65zM862 402l-62 62l-62 -62l-72 74l72 73l62 -61l62 61l73 -73z" />
    <glyph glyph-name="uniFD0E" unicode="&#xfd0e;" horiz-adv-x="1149" arabic-form="isolated" 
d="M1100.5 302.5q7.5 -41.5 7.5 -86.5q0 -107 -46.5 -161.5t-128.5 -54.5q-56 0 -90.5 21t-48.5 65q-14 -42 -51 -64t-97 -22q-83 0 -126.5 43t-50.5 131q-31 -58 -112 -58q-52 0 -75 29v-28q0 -104 -31.5 -186t-88 -128t-129.5 -46q-30 0 -51.5 5.5t-32.5 11.5t-13 8v140
q35 -14 85 -14q69 0 112 55t43 155q0 77 -19 197h111q4 -26 21.5 -39t66.5 -13q41 0 64 8t33.5 29t10.5 61h103v-112q0 -54 20 -75.5t70 -21.5q52 0 73 17.5t21 62.5v99h103v-100q0 -44 16.5 -61.5t59.5 -17.5q42 0 58.5 17.5t16.5 60.5q0 23 -4.5 51.5t-9 50t-6.5 27.5h101
q7 -15 14.5 -56.5z" />
    <glyph glyph-name="uniFD0F" unicode="&#xfd0f;" horiz-adv-x="1269" arabic-form="isolated" 
d="M1121 449.5q51 -32.5 79 -91.5t28 -137q0 -109 -63 -165t-186 -56h-329q-84 0 -128.5 41.5t-54.5 129.5q-31 -55 -110 -55q-52 0 -75 29v-28q0 -104 -31.5 -186t-88 -128t-129.5 -46q-30 0 -51.5 5.5t-32.5 11.5t-13 8v142q11 -6 33 -11t52 -5q69 0 112 55t43 155
q0 77 -19 197h111q4 -26 21.5 -39t66.5 -13q41 0 64 8t33.5 29t10.5 61h104v-116q0 -40 11 -61t37 -28q72 121 133.5 192t122.5 102.5t131 31.5q67 0 118 -32.5zM1099.5 167q31.5 15 31.5 55q0 49 -36.5 83t-98.5 34q-82 0 -150 -45t-134 -142h275q81 0 112.5 15z" />
    <glyph glyph-name="uniFD10" unicode="&#xfd10;" horiz-adv-x="1269" arabic-form="isolated" 
d="M1121 449.5q51 -32.5 79 -91.5t28 -137q0 -109 -63 -165t-186 -56h-329q-84 0 -128.5 41.5t-54.5 129.5q-31 -55 -110 -55q-52 0 -75 29v-28q0 -104 -31.5 -186t-88 -128t-129.5 -46q-30 0 -51.5 5.5t-32.5 11.5t-13 8v142q11 -6 33 -11t52 -5q69 0 112 55t43 155
q0 77 -19 197h111q4 -26 21.5 -39t66.5 -13q41 0 64 8t33.5 29t10.5 61h104v-116q0 -40 11 -61t37 -28q72 121 133.5 192t122.5 102.5t131 31.5q67 0 118 -32.5zM1099.5 167q31.5 15 31.5 55q0 49 -36.5 83t-98.5 34q-82 0 -150 -45t-134 -142h275q81 0 112.5 15zM922 640
l81 78l81 -78l-81 -80z" />
    <glyph glyph-name="uniFD17" unicode="&#xfd17;" horiz-adv-x="1513" arabic-form="final" 
d="M1530 149v-146l-17 -3q-70 0 -113 21.5t-59 67.5q-14 -43 -49.5 -66t-87.5 -23q-53 0 -86 21t-46 64q-14 -41 -48.5 -63t-89.5 -22q-44 0 -73.5 13t-50 37t-41.5 63l-25 45q-23 44 -43 69t-49.5 38t-74.5 13q-36 0 -68.5 -10t-52 -26t-19.5 -34q0 -23 25 -34.5t94 -28.5
q24 -5 50 -12q69 -18 101.5 -57.5t32.5 -109.5q0 -77 -40.5 -134.5t-122.5 -89.5t-201 -32q-179 0 -263.5 75.5t-84.5 235.5q0 47 8.5 91.5t17.5 73.5t12 37h110q-3 -8 -12 -36t-17 -68.5t-8 -77.5q0 -67 24 -106t77.5 -56t146.5 -17q129 0 194 23t65 64q0 15 -11.5 23.5
t-38 16t-88.5 19.5q-65 13 -100 36t-49 58.5t-14 90.5q0 61 33 114.5t88.5 85.5t120.5 32q63 0 105.5 -20.5t68.5 -53t53 -83.5l21 -39q24 -45 44 -61t61 -16q49 0 68.5 17.5t19.5 63.5v98h104v-100q0 -44 17 -61.5t62 -17.5q41 0 57.5 17t16.5 60v102h105v-102
q0 -42 26.5 -59.5t96.5 -17.5z" />
    <glyph glyph-name="uniFD18" unicode="&#xfd18;" horiz-adv-x="1513" arabic-form="final" 
d="M1530 149v-146l-17 -3q-70 0 -113 21.5t-59 67.5q-14 -43 -49.5 -66t-87.5 -23q-53 0 -86 21t-46 64q-14 -41 -48.5 -63t-89.5 -22q-44 0 -73.5 13t-50 37t-41.5 63l-25 45q-23 44 -43 69t-49.5 38t-74.5 13q-36 0 -68.5 -10t-52 -26t-19.5 -34q0 -23 25 -34.5t94 -28.5
q24 -5 50 -12q69 -18 101.5 -57.5t32.5 -109.5q0 -77 -40.5 -134.5t-122.5 -89.5t-201 -32q-179 0 -263.5 75.5t-84.5 235.5q0 47 8.5 91.5t17.5 73.5t12 37h110q-3 -8 -12 -36t-17 -68.5t-8 -77.5q0 -67 24 -106t77.5 -56t146.5 -17q129 0 194 23t65 64q0 15 -11.5 23.5
t-38 16t-88.5 19.5q-65 13 -100 36t-49 58.5t-14 90.5q0 61 33 114.5t88.5 85.5t120.5 32q63 0 105.5 -20.5t68.5 -53t53 -83.5l21 -39q24 -45 44 -61t61 -16q49 0 68.5 17.5t19.5 63.5v98h104v-100q0 -44 17 -61.5t62 -17.5q41 0 57.5 17t16.5 60v102h105v-102
q0 -42 26.5 -59.5t96.5 -17.5zM436 -503l-61 61l-61 -61l-70 72l70 71l61 -60l61 60l71 -71z" />
    <glyph glyph-name="uniFD19" unicode="&#xfd19;" horiz-adv-x="1513" arabic-form="final" 
d="M1530 149v-146l-17 -3q-70 0 -113 21.5t-59 67.5q-14 -43 -49.5 -66t-87.5 -23q-53 0 -86 21t-46 64q-14 -41 -48.5 -63t-89.5 -22q-44 0 -73.5 13t-50 37t-41.5 63l-25 45q-23 44 -43 69t-49.5 38t-74.5 13q-36 0 -68.5 -10t-52 -26t-19.5 -34q0 -23 25 -34.5t94 -28.5
q24 -5 50 -12q69 -18 101.5 -57.5t32.5 -109.5q0 -77 -40.5 -134.5t-122.5 -89.5t-201 -32q-179 0 -263.5 75.5t-84.5 235.5q0 47 8.5 91.5t17.5 73.5t12 37h110q-3 -8 -12 -36t-17 -68.5t-8 -77.5q0 -67 24 -106t77.5 -56t146.5 -17q129 0 194 23t65 64q0 15 -11.5 23.5
t-38 16t-88.5 19.5q-65 13 -100 36t-49 58.5t-14 90.5q0 61 33 114.5t88.5 85.5t120.5 32q63 0 105.5 -20.5t68.5 -53t53 -83.5l21 -39q24 -45 44 -61t61 -16q49 0 68.5 17.5t19.5 63.5v98h104v-100q0 -44 17 -61.5t62 -17.5q41 0 57.5 17t16.5 60v102h105v-102
q0 -42 26.5 -59.5t96.5 -17.5zM1078 526l-65 66l65 65l67 -65zM1139 402l-62 62l-62 -62l-72 74l72 73l62 -61l62 61l73 -73z" />
    <glyph glyph-name="uniFD1A" unicode="&#xfd1a;" horiz-adv-x="1513" arabic-form="final" 
d="M1530 149v-146l-17 -3q-70 0 -113 21.5t-59 67.5q-14 -43 -49.5 -66t-87.5 -23q-53 0 -86 21t-46 64q-14 -41 -48.5 -63t-89.5 -22q-44 0 -73.5 13t-50 37t-41.5 63l-25 45q-23 44 -43 69t-49.5 38t-74.5 13q-36 0 -68.5 -10t-52 -26t-19.5 -34q0 -23 25 -34.5t94 -28.5
q24 -5 50 -12q69 -18 101.5 -57.5t32.5 -109.5q0 -77 -40.5 -134.5t-122.5 -89.5t-201 -32q-179 0 -263.5 75.5t-84.5 235.5q0 47 8.5 91.5t17.5 73.5t12 37h110q-3 -8 -12 -36t-17 -68.5t-8 -77.5q0 -67 24 -106t77.5 -56t146.5 -17q129 0 194 23t65 64q0 15 -11.5 23.5
t-38 16t-88.5 19.5q-65 13 -100 36t-49 58.5t-14 90.5q0 61 33 114.5t88.5 85.5t120.5 32q63 0 105.5 -20.5t68.5 -53t53 -83.5l21 -39q24 -45 44 -61t61 -16q49 0 68.5 17.5t19.5 63.5v98h104v-100q0 -44 17 -61.5t62 -17.5q41 0 57.5 17t16.5 60v102h105v-102
q0 -42 26.5 -59.5t96.5 -17.5zM1078 526l-65 66l65 65l67 -65zM1139 402l-62 62l-62 -62l-72 74l72 73l62 -61l62 61l73 -73zM436 -503l-61 61l-61 -61l-70 72l70 71l61 -60l61 60l71 -71z" />
    <glyph glyph-name="uniFD21" unicode="&#xfd21;" horiz-adv-x="1545" arabic-form="final" 
d="M1562 149v-146l-17 -3q-60 0 -92 12t-45 37q-62 -49 -178 -49h-276q-50 0 -82.5 14t-52.5 37t-43 62l-28 51q-24 43 -45 68t-51 38.5t-75 13.5q-37 0 -71 -11t-54.5 -28.5t-20.5 -36.5q0 -23 25 -34t92 -27l58 -14q69 -18 101.5 -57.5t32.5 -109.5q0 -118 -93 -187
t-271 -69q-179 0 -263.5 75.5t-84.5 235.5q0 47 8.5 91.5t17.5 73.5t12 37h110q-3 -8 -12 -36t-17 -68.5t-8 -77.5q0 -67 24 -106t77.5 -56t146.5 -17q129 0 194 23t65 64q0 15 -11.5 24t-39 16t-87.5 19q-67 13 -103.5 36t-51 58.5t-14.5 90.5q0 62 33.5 117t91 88
t123.5 33q63 0 106 -21t70 -53.5t55 -82.5l25 -45q24 -43 35 -55q69 113 129.5 180.5t120 97.5t127.5 30q67 0 118 -32.5t78.5 -91.5t27.5 -137q0 -33 -6 -63q24 -6 72 -6zM1351.5 167q31.5 15 31.5 55q0 49 -36.5 83t-98.5 34q-82 0 -150 -45t-134 -142h275q81 0 112.5 15z
" />
    <glyph glyph-name="uniFD22" unicode="&#xfd22;" horiz-adv-x="1545" arabic-form="final" 
d="M1562 149v-146l-17 -3q-60 0 -92 12t-45 37q-62 -49 -178 -49h-276q-50 0 -82.5 14t-52.5 37t-43 62l-28 51q-24 43 -45 68t-51 38.5t-75 13.5q-37 0 -71 -11t-54.5 -28.5t-20.5 -36.5q0 -23 25 -34t92 -27l58 -14q69 -18 101.5 -57.5t32.5 -109.5q0 -118 -93 -187
t-271 -69q-179 0 -263.5 75.5t-84.5 235.5q0 47 8.5 91.5t17.5 73.5t12 37h110q-3 -8 -12 -36t-17 -68.5t-8 -77.5q0 -67 24 -106t77.5 -56t146.5 -17q129 0 194 23t65 64q0 15 -11.5 24t-39 16t-87.5 19q-67 13 -103.5 36t-51 58.5t-14.5 90.5q0 62 33.5 117t91 88
t123.5 33q63 0 106 -21t70 -53.5t55 -82.5l25 -45q24 -43 35 -55q69 113 129.5 180.5t120 97.5t127.5 30q67 0 118 -32.5t78.5 -91.5t27.5 -137q0 -33 -6 -63q24 -6 72 -6zM1351.5 167q31.5 15 31.5 55q0 49 -36.5 83t-98.5 34q-82 0 -150 -45t-134 -142h275q81 0 112.5 15z
M445 -497l-61 61l-61 -61l-70 72l70 71l61 -60l61 60l71 -71z" />
    <glyph glyph-name="uniFD23" unicode="&#xfd23;" horiz-adv-x="1545" arabic-form="final" 
d="M1562 149v-146l-17 -3q-60 0 -92 12t-45 37q-62 -49 -178 -49h-276q-50 0 -82.5 14t-52.5 37t-43 62l-28 51q-24 43 -45 68t-51 38.5t-75 13.5q-37 0 -71 -11t-54.5 -28.5t-20.5 -36.5q0 -23 25 -34t92 -27l58 -14q69 -18 101.5 -57.5t32.5 -109.5q0 -118 -93 -187
t-271 -69q-179 0 -263.5 75.5t-84.5 235.5q0 47 8.5 91.5t17.5 73.5t12 37h110q-3 -8 -12 -36t-17 -68.5t-8 -77.5q0 -67 24 -106t77.5 -56t146.5 -17q129 0 194 23t65 64q0 15 -11.5 24t-39 16t-87.5 19q-67 13 -103.5 36t-51 58.5t-14.5 90.5q0 62 33.5 117t91 88
t123.5 33q63 0 106 -21t70 -53.5t55 -82.5l25 -45q24 -43 35 -55q69 113 129.5 180.5t120 97.5t127.5 30q67 0 118 -32.5t78.5 -91.5t27.5 -137q0 -33 -6 -63q24 -6 72 -6zM1351.5 167q31.5 15 31.5 55q0 49 -36.5 83t-98.5 34q-82 0 -150 -45t-134 -142h275q81 0 112.5 15z
M1174 640l81 78l81 -78l-81 -80z" />
    <glyph glyph-name="uniFD24" unicode="&#xfd24;" horiz-adv-x="1545" arabic-form="final" 
d="M1562 149v-146l-17 -3q-60 0 -92 12t-45 37q-62 -49 -178 -49h-276q-50 0 -82.5 14t-52.5 37t-43 62l-28 51q-24 43 -45 68t-51 38.5t-75 13.5q-37 0 -71 -11t-54.5 -28.5t-20.5 -36.5q0 -23 25 -34t92 -27l58 -14q69 -18 101.5 -57.5t32.5 -109.5q0 -118 -93 -187
t-271 -69q-179 0 -263.5 75.5t-84.5 235.5q0 47 8.5 91.5t17.5 73.5t12 37h110q-3 -8 -12 -36t-17 -68.5t-8 -77.5q0 -67 24 -106t77.5 -56t146.5 -17q129 0 194 23t65 64q0 15 -11.5 24t-39 16t-87.5 19q-67 13 -103.5 36t-51 58.5t-14.5 90.5q0 62 33.5 117t91 88
t123.5 33q63 0 106 -21t70 -53.5t55 -82.5l25 -45q24 -43 35 -55q69 113 129.5 180.5t120 97.5t127.5 30q67 0 118 -32.5t78.5 -91.5t27.5 -137q0 -33 -6 -63q24 -6 72 -6zM1351.5 167q31.5 15 31.5 55q0 49 -36.5 83t-98.5 34q-82 0 -150 -45t-134 -142h275q81 0 112.5 15z
M445 -497l-61 61l-61 -61l-70 72l70 71l61 -60l61 60l71 -71zM1174 640l81 78l81 -78l-81 -80z" />
    <glyph glyph-name="uniFD29" unicode="&#xfd29;" horiz-adv-x="1232" arabic-form="final" 
d="M1249 149v-146l-17 -3q-71 0 -113.5 21.5t-57.5 67.5q-14 -43 -48.5 -66t-84.5 -23q-107 0 -134 86q-30 -86 -148 -86q-83 0 -126.5 43t-50.5 131q-31 -58 -112 -58q-52 0 -75 29v-28q0 -104 -31.5 -186t-88 -128t-129.5 -46q-30 0 -51.5 5.5t-32.5 11.5t-13 8v140
q35 -14 85 -14q69 0 112 55t43 155q0 77 -19 197h111q4 -26 21.5 -39t66.5 -13q41 0 64 8t33.5 29t10.5 61h103v-112q0 -54 20 -75.5t70 -21.5q52 0 73 17.5t21 62.5v99h103v-100q0 -44 16.5 -61.5t59.5 -17.5q42 0 58.5 17t16.5 60v102h103v-102q0 -42 26.5 -59.5
t97.5 -17.5zM801 526l-65 66l65 65l67 -65zM862 402l-62 62l-62 -62l-72 74l72 73l62 -61l62 61l73 -73z" />
    <glyph glyph-name="uniFD2A" unicode="&#xfd2a;" horiz-adv-x="1232" arabic-form="final" 
d="M1249 149v-146l-17 -3q-71 0 -113.5 21.5t-57.5 67.5q-14 -43 -48.5 -66t-84.5 -23q-107 0 -134 86q-30 -86 -148 -86q-83 0 -126.5 43t-50.5 131q-31 -58 -112 -58q-52 0 -75 29v-28q0 -104 -31.5 -186t-88 -128t-129.5 -46q-30 0 -51.5 5.5t-32.5 11.5t-13 8v140
q35 -14 85 -14q69 0 112 55t43 155q0 77 -19 197h111q4 -26 21.5 -39t66.5 -13q41 0 64 8t33.5 29t10.5 61h103v-112q0 -54 20 -75.5t70 -21.5q52 0 73 17.5t21 62.5v99h103v-100q0 -44 16.5 -61.5t59.5 -17.5q42 0 58.5 17t16.5 60v102h103v-102q0 -42 26.5 -59.5
t97.5 -17.5z" />
    <glyph glyph-name="uniFD2B" unicode="&#xfd2b;" horiz-adv-x="1289" arabic-form="final" 
d="M1306 149v-146l-17 -3q-58 0 -90 11.5t-46 34.5q-63 -46 -174 -46h-329q-84 0 -128.5 41.5t-54.5 129.5q-31 -55 -110 -55q-52 0 -75 29v-28q0 -104 -31.5 -186t-88 -128t-129.5 -46q-30 0 -51.5 5.5t-32.5 11.5t-13 8v142q11 -6 33 -11t52 -5q69 0 112 55t43 155
q0 77 -19 197h111q4 -26 21.5 -39t66.5 -13q41 0 64 8t33.5 29t10.5 61h104v-116q0 -40 11 -61t37 -28q72 121 133.5 192t122.5 102.5t131 31.5q67 0 118 -32.5t79 -91.5t28 -137q0 -34 -6 -64q25 -5 67 -5zM1099.5 167q31.5 15 31.5 55q0 49 -36.5 83t-98.5 34
q-82 0 -150 -45t-134 -142h275q81 0 112.5 15z" />
    <glyph glyph-name="uniFD2C" unicode="&#xfd2c;" horiz-adv-x="1289" arabic-form="final" 
d="M1306 149v-146l-17 -3q-58 0 -90 11.5t-46 34.5q-63 -46 -174 -46h-329q-84 0 -128.5 41.5t-54.5 129.5q-31 -55 -110 -55q-52 0 -75 29v-28q0 -104 -31.5 -186t-88 -128t-129.5 -46q-30 0 -51.5 5.5t-32.5 11.5t-13 8v142q11 -6 33 -11t52 -5q69 0 112 55t43 155
q0 77 -19 197h111q4 -26 21.5 -39t66.5 -13q41 0 64 8t33.5 29t10.5 61h104v-116q0 -40 11 -61t37 -28q72 121 133.5 192t122.5 102.5t131 31.5q67 0 118 -32.5t79 -91.5t28 -137q0 -34 -6 -64q25 -5 67 -5zM1099.5 167q31.5 15 31.5 55q0 49 -36.5 83t-98.5 34
q-82 0 -150 -45t-134 -142h275q81 0 112.5 15zM922 640l81 78l81 -78l-81 -80z" />
    <glyph glyph-name="uniFE82" unicode="&#x622;" horiz-adv-x="294" arabic-form="final" 
d="M119.5 61q-51.5 61 -51.5 194v443h113v-423q0 -51 9.5 -77t33 -36t70.5 -10l17 -3v-146l-17 -3q-123 0 -174.5 61zM118 772q-27 9 -45 9q-21 0 -35.5 -4t-21.5 -8.5t-8 -5.5v79q12 7 29.5 13t32.5 6q18 0 48 -8q12 -3 27 -6t31 -3q20 0 34.5 3.5t21.5 7l9 4.5v-79
q-1 -1 -8.5 -5.5t-22.5 -8.5t-37 -4q-23 0 -55 10z" />
    <glyph glyph-name="uniFE84" unicode="&#x623;" horiz-adv-x="294" arabic-form="final" 
d="M119.5 61q-51.5 61 -51.5 194v443h113v-423q0 -51 9.5 -77t33 -36t70.5 -10l17 -3v-146l-17 -3q-123 0 -174.5 61zM185.5 849q29.5 3 36.5 3v-69q-77 -11 -203 -20v69l25 2q-12 14 -12 40q0 47 29 72.5t72 25.5q19 0 41.5 -7t22.5 -8v-69q-5 2 -24 6.5t-40 4.5
q-23 0 -35 -5.5t-12 -21.5t8 -21t32 -5q30 0 59.5 3z" />
    <glyph glyph-name="uniFE86" unicode="&#x624;" horiz-adv-x="504" arabic-form="final" 
d="M521 146v-143l-17 -3h-74q-22 -114 -91 -180t-174 -66q-56 0 -94.5 13.5t-49.5 27.5v133q16 -9 53 -19t81 -10q77 0 126 27t65 83h-126q-86 0 -127.5 45t-41.5 128q0 64 23.5 116.5t68.5 84t106 31.5q93 0 141 -73t50 -189h64zM161 157.5q21 -10.5 76 -10.5h112v14
q0 43 -26 78.5t-82 35.5q-46 0 -73.5 -23t-27.5 -57q0 -27 21 -37.5zM305.5 561q29.5 3 36.5 3v-69q-77 -11 -203 -20v69l25 2q-12 14 -12 40q0 47 29 72.5t72 25.5q19 0 41.5 -7t22.5 -8v-69q-5 2 -24 6.5t-40 4.5q-23 0 -35 -5.5t-12 -21.5t8 -21t32 -5q30 0 59.5 3z" />
    <glyph glyph-name="uniFE88" unicode="&#x625;" horiz-adv-x="292" arabic-form="final" 
d="M119 61q-51 61 -51 194v488h117v-468q0 -47 7.5 -72.5t30.5 -38t69 -12.5l17 -3v-146l-17 -3q-122 0 -173 61zM213.5 -184q29.5 3 36.5 3v-69q-77 -11 -203 -20v69l25 2q-12 14 -12 40q0 47 29 72.5t72 25.5q19 0 41.5 -7t22.5 -8v-69q-5 2 -24 6.5t-40 4.5
q-23 0 -35 -5.5t-12 -21.5t8 -21t32 -5q30 0 59.5 3z" />
    <glyph glyph-name="uniFE8A" unicode="&#x626;" horiz-adv-x="735" arabic-form="final" 
d="M752 149v-146l-17 -3h-54q10 -28 10 -58q0 -69 -39.5 -121.5t-115 -81.5t-179.5 -29q-167 0 -247.5 73t-81.5 227q0 47 8 89.5t17 69.5t12 34h111q-3 -7 -12 -34t-17 -66.5t-8 -77.5q1 -61 23.5 -96.5t71.5 -51t135 -15.5q110 0 169 23.5t59 63.5q0 29 -31 42.5
t-101 20.5v147q74 -7 225 -7h45zM181.5 355q29.5 3 36.5 3v-69q-77 -11 -203 -20v69l25 2q-12 14 -12 40q0 47 29 72.5t72 25.5q19 0 41.5 -7t22.5 -8v-69q-5 2 -24 6.5t-40 4.5q-23 0 -35 -5.5t-12 -21.5t8 -21t32 -5q30 0 59.5 3z" />
    <glyph glyph-name="uniFE8B" unicode="&#x626;" horiz-adv-x="264" arabic-form="initial" 
d="M-17 3v146l17 3q64 0 90.5 29.5t26.5 97.5q0 55 -16 137h106q16 -80 16 -151q0 -124 -58.5 -194.5t-164.5 -70.5zM217.5 569q29.5 3 36.5 3v-69q-77 -11 -203 -20v69l25 2q-12 14 -12 40q0 47 29 72.5t72 25.5q19 0 41.5 -7t22.5 -8v-69q-5 2 -24 6.5t-40 4.5
q-23 0 -35 -5.5t-12 -21.5t8 -21t32 -5q30 0 59.5 3z" />
    <glyph glyph-name="uniFE8C" unicode="&#x626;" horiz-adv-x="354" arabic-form="medial" 
d="M371 149v-146l-17 -3q-77 0 -120.5 24.5t-57.5 76.5q-14 -52 -57 -76.5t-119 -24.5l-17 3v146l17 3q49 0 75 9.5t38 33.5t12 71v99h107v-99q0 -47 11.5 -71t37 -33.5t73.5 -9.5zM239.5 521q29.5 3 36.5 3v-69q-77 -11 -203 -20v69l25 2q-12 14 -12 40q0 47 29 72.5
t72 25.5q19 0 41.5 -7t22.5 -8v-69q-5 2 -24 6.5t-40 4.5q-23 0 -35 -5.5t-12 -21.5t8 -21t32 -5q30 0 59.5 3z" />
    <glyph glyph-name="uniFE8E" unicode="&#x627;" horiz-adv-x="292" arabic-form="final" 
d="M119 61q-51 61 -51 194v488h117v-468q0 -47 7.5 -72.5t30.5 -38t69 -12.5l17 -3v-146l-17 -3q-122 0 -173 61z" />
    <glyph glyph-name="uniFE90" unicode="&#x628;" horiz-adv-x="950" arabic-form="final" 
d="M967 149v-146l-17 -3q-76 0 -119.5 26.5t-57.5 81.5q-30 -58 -112.5 -83t-244.5 -25q-153 0 -236.5 24t-117.5 78.5t-34 151.5q0 36 5 67.5t10 50.5t7 24h105q-2 -5 -7 -21.5t-9.5 -42t-4.5 -49.5q0 -54 25 -81.5t86.5 -38.5t182.5 -11q123 0 184.5 9.5t86 35.5t24.5 79
v89h107v-96q0 -48 11 -73t36.5 -34.5t72.5 -9.5zM357 -149l81 79l82 -79l-82 -80z" />
    <glyph glyph-name="uniFE91" unicode="&#x628;" horiz-adv-x="264" arabic-form="initial" 
d="M-17 3v146l17 3q64 0 90.5 29.5t26.5 97.5q0 55 -16 137h106q16 -80 16 -151q0 -124 -58.5 -194.5t-164.5 -70.5zM-6 -154l81 79l82 -79l-82 -80z" />
    <glyph glyph-name="uniFE92" unicode="&#x628;" horiz-adv-x="354" arabic-form="medial" 
d="M371 149v-146l-17 -3q-77 0 -120.5 24.5t-57.5 76.5q-14 -52 -57 -76.5t-119 -24.5l-17 3v146l17 3q49 0 75 9.5t38 33.5t12 71v99h107v-99q0 -47 11.5 -71t37 -33.5t73.5 -9.5zM96 -153l81 79l82 -79l-82 -80z" />
    <glyph glyph-name="uniFE94" unicode="&#x629;" horiz-adv-x="519" arabic-form="final" 
d="M536 149v-146l-17 -3q-96 1 -144.5 43.5t-60.5 126.5q-26 -81 -128 -81q-83 0 -120.5 46t-37.5 131q0 58 25 100.5t86.5 78t169.5 64.5v62h106v-305q0 -47 8.5 -71t30.5 -33.5t65 -9.5zM309 260v127q-106 -28 -148.5 -50t-42.5 -50q0 -46 94 -46q74 0 97 19zM303 627
l-62 63l-63 -63l-73 74l73 73l63 -62l62 62l73 -73z" />
    <glyph glyph-name="uniFE96" unicode="&#x62a;" horiz-adv-x="950" arabic-form="final" 
d="M967 149v-146l-17 -3q-76 0 -119.5 26.5t-57.5 81.5q-30 -58 -112.5 -83t-244.5 -25q-153 0 -236.5 24t-117.5 78.5t-34 151.5q0 36 5 67.5t10 50.5t7 24h105q-2 -5 -7 -21.5t-9.5 -42t-4.5 -49.5q0 -54 25 -81.5t86.5 -38.5t182.5 -11q123 0 184.5 9.5t86 35.5t24.5 79
v89h107v-96q0 -48 11 -73t36.5 -34.5t72.5 -9.5zM496 410l-62 63l-63 -63l-73 74l73 73l63 -62l62 62l73 -73z" />
    <glyph glyph-name="uniFE97" unicode="&#x62a;" horiz-adv-x="264" arabic-form="initial" 
d="M-17 3v146l17 3q64 0 90.5 29.5t26.5 97.5q0 55 -16 137h106q16 -80 16 -151q0 -124 -58.5 -194.5t-164.5 -70.5zM218 494l-62 63l-63 -63l-73 74l73 73l63 -62l62 62l73 -73z" />
    <glyph glyph-name="uniFE98" unicode="&#x62a;" horiz-adv-x="354" arabic-form="medial" 
d="M371 149v-146l-17 -3q-77 0 -120.5 24.5t-57.5 76.5q-14 -52 -57 -76.5t-119 -24.5l-17 3v146l17 3q49 0 75 9.5t38 33.5t12 71v99h107v-99q0 -47 11.5 -71t37 -33.5t73.5 -9.5zM240 446l-62 63l-63 -63l-73 74l73 73l63 -62l62 62l73 -73z" />
    <glyph glyph-name="uniFE9A" unicode="&#x62b;" horiz-adv-x="950" arabic-form="final" 
d="M967 149v-146l-17 -3q-76 0 -119.5 26.5t-57.5 81.5q-30 -58 -112.5 -83t-244.5 -25q-153 0 -236.5 24t-117.5 78.5t-34 151.5q0 36 5 67.5t10 50.5t7 24h105q-2 -5 -7 -21.5t-9.5 -42t-4.5 -49.5q0 -54 25 -81.5t86.5 -38.5t182.5 -11q123 0 184.5 9.5t86 35.5t24.5 79
v89h107v-96q0 -48 11 -73t36.5 -34.5t72.5 -9.5zM435 533l-65 66l65 65l67 -65zM496 409l-62 62l-62 -62l-72 74l72 73l62 -61l62 61l73 -73z" />
    <glyph glyph-name="uniFE9B" unicode="&#x62b;" horiz-adv-x="264" arabic-form="initial" 
d="M-17 3v146l17 3q64 0 90.5 29.5t26.5 97.5q0 55 -16 137h106q16 -80 16 -151q0 -124 -58.5 -194.5t-164.5 -70.5zM157 617l-65 66l65 65l67 -65zM218 493l-62 62l-62 -62l-72 74l72 73l62 -61l62 61l73 -73z" />
    <glyph glyph-name="uniFE9C" unicode="&#x62b;" horiz-adv-x="354" arabic-form="medial" 
d="M371 149v-146l-17 -3q-77 0 -120.5 24.5t-57.5 76.5q-14 -52 -57 -76.5t-119 -24.5l-17 3v146l17 3q49 0 75 9.5t38 33.5t12 71v99h107v-99q0 -47 11.5 -71t37 -33.5t73.5 -9.5zM179 569l-65 66l65 65l67 -65zM240 445l-62 62l-62 -62l-72 74l72 73l62 -61l62 61l73 -73z
" />
    <glyph glyph-name="uniFE9E" unicode="&#x62c;" horiz-adv-x="689" arabic-form="final" 
d="M706 149v-146l-17 -3q-70 0 -107.5 18.5t-53 57t-18.5 105.5q-146 -49 -227 -85t-119.5 -74.5t-38.5 -88.5q0 -70 53 -103t171 -33q80 0 143 10.5t102.5 23t39.5 14.5l1 -142q-62 -25 -71 -28t-74 -15t-152 -12q-310 0 -310 277v9q0 85 44 146t136 107t247 91
q-79 23 -140.5 36.5t-109.5 13.5q-40 0 -73 -11t-54.5 -24t-21.5 -14v136q0 2 19 15.5t53 25.5t81 12t92.5 -11.5t116.5 -36.5q68 -25 120 -39t109 -19l-10 -140l-27 -9q-15 -4 -35 -11q10 -29 35.5 -39.5t78.5 -10.5zM293 -28l81 79l82 -79l-82 -80z" />
    <glyph glyph-name="uniFE9F" unicode="&#x62c;" horiz-adv-x="684" arabic-form="initial" 
d="M323.5 433.5q45.5 -13.5 112.5 -42.5q65 -28 113 -44t108 -23l-2 -129q-37 -15 -156 -67q-80 -36 -143 -61q-97 -39 -177.5 -53t-176.5 -14l-18 3l-1 146l19 3q116 0 189.5 8.5t150.5 29.5q62 18 111 35l42 14q-32 11 -67 24q-69 25 -113.5 37t-98.5 12q-41 0 -74.5 -11
t-55.5 -24t-22 -15v128q0 2 21 17t56.5 27.5t81.5 12.5q55 0 100.5 -13.5zM331 -80l81 79l82 -79l-82 -80z" />
    <glyph glyph-name="uniFEA0" unicode="&#x62c;" horiz-adv-x="729" arabic-form="medial" 
d="M746 149v-146l-17 -3q-69 0 -108.5 15t-58 46t-24.5 84l-61 -27q-82 -36 -121 -51q-97 -39 -177.5 -53t-176.5 -14l-18 3l-1 146l19 3q116 0 189.5 8.5t150.5 29.5q62 18 111 35l42 14q-32 11 -67 24q-69 25 -113.5 37t-98.5 12q-41 0 -74.5 -11t-55.5 -24t-22 -15v128
q0 2 21 17t56.5 27.5t81.5 12.5q55 0 100.5 -13.5t112.5 -42.5q65 -28 113 -44t108 -23l-2 -129l-42 -17q15 -15 42 -20.5t74 -5.5zM412 -1l82 -79l-82 -80l-81 80z" />
    <glyph glyph-name="uniFEA2" unicode="&#x62d;" horiz-adv-x="689" arabic-form="final" 
d="M706 149v-146l-17 -3q-70 0 -107.5 18.5t-53 57t-18.5 105.5q-146 -49 -227 -85t-119.5 -74.5t-38.5 -88.5q0 -70 53 -103t171 -33q80 0 143 10.5t102.5 23t39.5 14.5l1 -142q-62 -25 -71 -28t-74 -15t-152 -12q-310 0 -310 277v9q0 85 44 146t136 107t247 91
q-79 23 -140.5 36.5t-109.5 13.5q-40 0 -73 -11t-54.5 -24t-21.5 -14v136q0 2 19 15.5t53 25.5t81 12t92.5 -11.5t116.5 -36.5q68 -25 120 -39t109 -19l-10 -140l-27 -9q-15 -4 -35 -11q10 -29 35.5 -39.5t78.5 -10.5z" />
    <glyph glyph-name="uniFEA3" unicode="&#x62d;" horiz-adv-x="684" arabic-form="initial" 
d="M323.5 433.5q45.5 -13.5 112.5 -42.5q65 -28 113 -44t108 -23l-2 -129q-37 -15 -156 -67q-80 -36 -143 -61q-97 -39 -177.5 -53t-176.5 -14l-18 3l-1 146l19 3q116 0 189.5 8.5t150.5 29.5q62 18 111 35l42 14q-32 11 -67 24q-69 25 -113.5 37t-98.5 12q-41 0 -74.5 -11
t-55.5 -24t-22 -15v128q0 2 21 17t56.5 27.5t81.5 12.5q55 0 100.5 -13.5z" />
    <glyph glyph-name="uniFEA4" unicode="&#x62d;" horiz-adv-x="729" arabic-form="medial" 
d="M746 149v-146l-17 -3q-69 0 -108.5 15t-58 46t-24.5 84l-61 -27q-82 -36 -121 -51q-97 -39 -177.5 -53t-176.5 -14l-18 3l-1 146l19 3q116 0 189.5 8.5t150.5 29.5q62 18 111 35l42 14q-32 11 -67 24q-69 25 -113.5 37t-98.5 12q-41 0 -74.5 -11t-55.5 -24t-22 -15v128
q0 2 21 17t56.5 27.5t81.5 12.5q55 0 100.5 -13.5t112.5 -42.5q65 -28 113 -44t108 -23l-2 -129l-42 -17q15 -15 42 -20.5t74 -5.5z" />
    <glyph glyph-name="uniFEA6" unicode="&#x62e;" horiz-adv-x="689" arabic-form="final" 
d="M706 149v-146l-17 -3q-70 0 -107.5 18.5t-53 57t-18.5 105.5q-146 -49 -227 -85t-119.5 -74.5t-38.5 -88.5q0 -70 53 -103t171 -33q80 0 143 10.5t102.5 23t39.5 14.5l1 -142q-62 -25 -71 -28t-74 -15t-152 -12q-310 0 -310 277v9q0 85 44 146t136 107t247 91
q-79 23 -140.5 36.5t-109.5 13.5q-40 0 -73 -11t-54.5 -24t-21.5 -14v136q0 2 19 15.5t53 25.5t81 12t92.5 -11.5t116.5 -36.5q68 -25 120 -39t109 -19l-10 -140l-27 -9q-15 -4 -35 -11q10 -29 35.5 -39.5t78.5 -10.5zM259 643l81 78l81 -78l-81 -80z" />
    <glyph glyph-name="uniFEA7" unicode="&#x62e;" horiz-adv-x="684" arabic-form="initial" 
d="M323.5 433.5q45.5 -13.5 112.5 -42.5q65 -28 113 -44t108 -23l-2 -129q-37 -15 -156 -67q-80 -36 -143 -61q-97 -39 -177.5 -53t-176.5 -14l-18 3l-1 146l19 3q116 0 189.5 8.5t150.5 29.5q62 18 111 35l42 14q-32 11 -67 24q-69 25 -113.5 37t-98.5 12q-41 0 -74.5 -11
t-55.5 -24t-22 -15v128q0 2 21 17t56.5 27.5t81.5 12.5q55 0 100.5 -13.5zM245 604l81 78l81 -78l-81 -80z" />
    <glyph glyph-name="uniFEA8" unicode="&#x62e;" horiz-adv-x="729" arabic-form="medial" 
d="M746 149v-146l-17 -3q-69 0 -108.5 15t-58 46t-24.5 84l-61 -27q-82 -36 -121 -51q-97 -39 -177.5 -53t-176.5 -14l-18 3l-1 146l19 3q116 0 189.5 8.5t150.5 29.5q62 18 111 35l42 14q-32 11 -67 24q-69 25 -113.5 37t-98.5 12q-41 0 -74.5 -11t-55.5 -24t-22 -15v128
q0 2 21 17t56.5 27.5t81.5 12.5q55 0 100.5 -13.5t112.5 -42.5q65 -28 113 -44t108 -23l-2 -129l-42 -17q15 -15 42 -20.5t74 -5.5zM245 604l81 78l81 -78l-81 -80z" />
    <glyph glyph-name="uniFEAA" unicode="&#x62f;" horiz-adv-x="566" arabic-form="final" 
d="M583 149v-146l-17 -3q-72 0 -114 22.5t-70 73.5q-18 -49 -63 -74.5t-124 -25.5q-52 0 -89 7.5t-57.5 16.5t-20.5 10l1 146q0 -1 21 -8t60.5 -13t96.5 -6q108 0 137 38q-4 10 -17 52l-94 296h125l80 -259q16 -56 30 -81t35 -34t63 -9z" />
    <glyph glyph-name="uniFEAC" unicode="&#x630;" horiz-adv-x="566" arabic-form="final" 
d="M583 149v-146l-17 -3q-72 0 -114 22.5t-70 73.5q-18 -49 -63 -74.5t-124 -25.5q-52 0 -89 7.5t-57.5 16.5t-20.5 10l1 146q0 -1 21 -8t60.5 -13t96.5 -6q108 0 137 38q-4 10 -17 52l-94 296h125l80 -259q16 -56 30 -81t35 -34t63 -9zM215 693l81 78l81 -78l-81 -80z" />
    <glyph glyph-name="uniFEAE" unicode="&#x631;" horiz-adv-x="382" arabic-form="final" 
d="M399 149v-146l-17 -3q-68 0 -103 37q-11 -83 -45 -146.5t-86 -98.5t-115 -35q-30 0 -51.5 5.5t-32.5 11.5t-13 8v140q35 -14 85 -14q69 0 112 55t43 155q0 43 -4.5 86t-13.5 107h113q7 -71 10 -109q5 -24 28.5 -37t72.5 -13z" />
    <glyph glyph-name="uniFEB0" unicode="&#x632;" horiz-adv-x="382" arabic-form="final" 
d="M399 149v-146l-17 -3q-68 0 -103 37q-11 -83 -45 -146.5t-86 -98.5t-115 -35q-30 0 -51.5 5.5t-32.5 11.5t-13 8v140q35 -14 85 -14q69 0 112 55t43 155q0 43 -4.5 86t-13.5 107h113q7 -71 10 -109q5 -24 28.5 -37t72.5 -13zM134 469l81 78l81 -78l-81 -80z" />
    <glyph glyph-name="uniFEB2" unicode="&#x633;" horiz-adv-x="1310" arabic-form="final" 
d="M1327 149v-146l-17 -3q-68 0 -110 19.5t-59 61.5q-15 -39 -48.5 -60t-82.5 -21q-104 0 -132 80q-31 -80 -141 -80q-61 0 -88 24q-14 -127 -91.5 -189.5t-224.5 -62.5q-162 0 -233.5 73t-71.5 234q0 53 9 98t20 76.5t11 28.5h110q-3 -7 -12.5 -34.5t-18 -70t-8.5 -85.5
q0 -63 19.5 -99.5t64 -53t121.5 -16.5q75 0 119 18t63 55.5t19 98.5q-1 53 -7 101t-20 135h112q7 -41 18 -118q6 -37 24.5 -49t67.5 -12q51 0 71 17.5t20 62.5v99h107v-100q0 -44 16 -61.5t58 -17.5q41 0 57 17t16 60v102h107v-102q0 -42 25.5 -59.5t92.5 -17.5z" />
    <glyph glyph-name="uniFEB3" unicode="&#x633;" horiz-adv-x="816" arabic-form="initial" 
d="M767.5 302.5q7.5 -41.5 7.5 -86.5q0 -107 -47.5 -161.5t-131.5 -54.5q-56 0 -89.5 19.5t-47.5 59.5q-15 -38 -51.5 -58.5t-92.5 -20.5q-60 0 -96 19.5t-50 60.5q-16 -41 -57.5 -60.5t-110.5 -19.5l-18 3v146l18 3q51 0 77 6.5t36 22.5t10 48v102h108v-99q0 -45 20 -62.5
t70 -17.5q51 0 71 17.5t20 62.5v99h107v-100q0 -44 16 -61.5t59 -17.5q40 0 56 17.5t16 60.5q0 23 -4.5 51.5t-9.5 50t-7 27.5h107q7 -15 14.5 -56.5z" />
    <glyph glyph-name="uniFEB4" unicode="&#x633;" horiz-adv-x="892" arabic-form="medial" 
d="M909 149v-146l-17 -3q-69 0 -111 19.5t-58 62.5q-15 -39 -49 -60.5t-82 -21.5q-54 0 -87 19.5t-46 59.5q-33 -79 -144 -79q-60 0 -96 19.5t-50 60.5q-16 -41 -57.5 -60.5t-110.5 -19.5l-18 3v146l18 3q51 0 77 6.5t36 22.5t10 48v102h108v-99q0 -45 20 -62.5t70 -17.5
q51 0 71 17.5t20 62.5v99h107v-100q0 -44 16 -61.5t58 -17.5q41 0 57 17t16 60v102h107v-102q0 -42 25.5 -59.5t92.5 -17.5z" />
    <glyph glyph-name="uniFEB6" unicode="&#x634;" horiz-adv-x="1310" arabic-form="final" 
d="M1327 149v-146l-17 -3q-68 0 -110 19.5t-59 61.5q-15 -39 -48.5 -60t-82.5 -21q-104 0 -132 80q-31 -80 -141 -80q-61 0 -88 24q-14 -127 -91.5 -189.5t-224.5 -62.5q-162 0 -233.5 73t-71.5 234q0 53 9 98t20 76.5t11 28.5h110q-3 -7 -12.5 -34.5t-18 -70t-8.5 -85.5
q0 -63 19.5 -99.5t64 -53t121.5 -16.5q75 0 119 18t63 55.5t19 98.5q-1 53 -7 101t-20 135h112q7 -41 18 -118q6 -37 24.5 -49t67.5 -12q51 0 71 17.5t20 62.5v99h107v-100q0 -44 16 -61.5t58 -17.5q41 0 57 17t16 60v102h107v-102q0 -42 25.5 -59.5t92.5 -17.5zM885 526
l-65 66l65 65l67 -65zM946 402l-62 62l-62 -62l-72 74l72 73l62 -61l62 61l73 -73z" />
    <glyph glyph-name="uniFEB7" unicode="&#x634;" horiz-adv-x="816" arabic-form="initial" 
d="M767.5 302.5q7.5 -41.5 7.5 -86.5q0 -107 -47.5 -161.5t-131.5 -54.5q-56 0 -89.5 19.5t-47.5 59.5q-15 -38 -51.5 -58.5t-92.5 -20.5q-60 0 -96 19.5t-50 60.5q-16 -41 -57.5 -60.5t-110.5 -19.5l-18 3v146l18 3q51 0 77 6.5t36 22.5t10 48v102h108v-99q0 -45 20 -62.5
t70 -17.5q51 0 71 17.5t20 62.5v99h107v-100q0 -44 16 -61.5t59 -17.5q40 0 56 17.5t16 60.5q0 23 -4.5 51.5t-9.5 50t-7 27.5h107q7 -15 14.5 -56.5zM466 526l-65 66l65 65l67 -65zM527 402l-62 62l-62 -62l-72 74l72 73l62 -61l62 61l73 -73z" />
    <glyph glyph-name="uniFEB8" unicode="&#x634;" horiz-adv-x="892" arabic-form="medial" 
d="M909 149v-146l-17 -3q-69 0 -111 19.5t-58 62.5q-15 -39 -49 -60.5t-82 -21.5q-54 0 -87 19.5t-46 59.5q-33 -79 -144 -79q-60 0 -96 19.5t-50 60.5q-16 -41 -57.5 -60.5t-110.5 -19.5l-18 3v146l18 3q51 0 77 6.5t36 22.5t10 48v102h108v-99q0 -45 20 -62.5t70 -17.5
q51 0 71 17.5t20 62.5v99h107v-100q0 -44 16 -61.5t58 -17.5q41 0 57 17t16 60v102h107v-102q0 -42 25.5 -59.5t92.5 -17.5zM466 526l-65 66l65 65l67 -65zM527 402l-62 62l-62 -62l-72 74l72 73l62 -61l62 61l73 -73z" />
    <glyph glyph-name="uniFEBA" unicode="&#x635;" horiz-adv-x="1368" arabic-form="final" 
d="M1385 149v-146l-17 -3q-64 0 -96 13.5t-44 41.5q-62 -55 -185 -55h-283q-78 0 -111 33q-12 -131 -89.5 -196t-226.5 -65q-161 0 -233 73t-72 234q0 53 9 98t20 76.5t11 28.5h110q-3 -7 -12.5 -34.5t-18 -70t-8.5 -85.5q0 -63 19.5 -99.5t64 -53t121.5 -16.5q75 0 119 18
t63 55.5t19 98.5q-1 51 -7 98.5t-20 131.5h112q6 -34 18 -112q4 -23 11 -35.5t23 -18.5q71 119 132.5 189.5t122 102t130.5 31.5q67 0 117.5 -33t78.5 -92.5t28 -137.5q0 -29 -5 -57q27 -10 82 -10zM1162 167q31 15 31 55q0 49 -36 83t-97 34q-82 0 -150 -45t-134 -142h275
q80 0 111 15z" />
    <glyph glyph-name="uniFEBB" unicode="&#x635;" horiz-adv-x="921" arabic-form="initial" 
d="M774 449.5q51 -32.5 78.5 -92.5t27.5 -138q0 -108 -62.5 -163.5t-185.5 -55.5h-311q-67 0 -105.5 21t-53.5 62q-33 -83 -161 -83l-18 3v146l18 3q47 0 71.5 7t34.5 25.5t10 53.5v93h107v-92q0 -41 8.5 -59.5t35.5 -24.5q72 121 134 192t123 103t131 32q67 0 118 -32.5z
M751 167q31 15 31 55q0 49 -36 83t-96 34q-82 0 -150 -45t-134 -142h274q80 0 111 15z" />
    <glyph glyph-name="uniFEBC" unicode="&#x635;" horiz-adv-x="958" arabic-form="medial" 
d="M975 149v-146l-17 -3q-64 0 -96 14t-45 41q-63 -55 -185 -55h-311q-67 0 -105.5 21t-53.5 62q-33 -83 -161 -83l-18 3v146l18 3q47 0 71.5 7t34.5 25.5t10 53.5v93h107v-92q0 -41 8.5 -59.5t35.5 -24.5q72 121 134 192t123 103t131 32q67 0 118 -32.5t78.5 -92.5
t27.5 -138q0 -27 -5 -57q27 -10 83 -10zM751 167q31 15 31 55q0 49 -36 83t-96 34q-82 0 -150 -45t-134 -142h274q80 0 111 15z" />
    <glyph glyph-name="uniFEBE" unicode="&#x636;" horiz-adv-x="1368" arabic-form="final" 
d="M1385 149v-146l-17 -3q-64 0 -96 13.5t-44 41.5q-62 -55 -185 -55h-283q-78 0 -111 33q-12 -131 -89.5 -196t-226.5 -65q-161 0 -233 73t-72 234q0 53 9 98t20 76.5t11 28.5h110q-3 -7 -12.5 -34.5t-18 -70t-8.5 -85.5q0 -63 19.5 -99.5t64 -53t121.5 -16.5q75 0 119 18
t63 55.5t19 98.5q-1 51 -7 98.5t-20 131.5h112q6 -34 18 -112q4 -23 11 -35.5t23 -18.5q71 119 132.5 189.5t122 102t130.5 31.5q67 0 117.5 -33t78.5 -92.5t28 -137.5q0 -29 -5 -57q27 -10 82 -10zM1162 167q31 15 31 55q0 49 -36 83t-97 34q-82 0 -150 -45t-134 -142h275
q80 0 111 15zM990 640l81 78l81 -78l-81 -80z" />
    <glyph glyph-name="uniFEBF" unicode="&#x636;" horiz-adv-x="921" arabic-form="initial" 
d="M774 449.5q51 -32.5 78.5 -92.5t27.5 -138q0 -108 -62.5 -163.5t-185.5 -55.5h-311q-67 0 -105.5 21t-53.5 62q-33 -83 -161 -83l-18 3v146l18 3q47 0 71.5 7t34.5 25.5t10 53.5v93h107v-92q0 -41 8.5 -59.5t35.5 -24.5q72 121 134 192t123 103t131 32q67 0 118 -32.5z
M751 167q31 15 31 55q0 49 -36 83t-96 34q-82 0 -150 -45t-134 -142h274q80 0 111 15zM580 640l81 78l81 -78l-81 -80z" />
    <glyph glyph-name="uniFEC0" unicode="&#x636;" horiz-adv-x="958" arabic-form="medial" 
d="M975 149v-146l-17 -3q-64 0 -96 14t-45 41q-63 -55 -185 -55h-311q-67 0 -105.5 21t-53.5 62q-33 -83 -161 -83l-18 3v146l18 3q47 0 71.5 7t34.5 25.5t10 53.5v93h107v-92q0 -41 8.5 -59.5t35.5 -24.5q72 121 134 192t123 103t131 32q67 0 118 -32.5t78.5 -92.5
t27.5 -138q0 -27 -5 -57q27 -10 83 -10zM751 167q31 15 31 55q0 49 -36 83t-96 34q-82 0 -150 -45t-134 -142h274q80 0 111 15zM580 640l81 78l81 -78l-81 -80z" />
    <glyph glyph-name="uniFEC2" unicode="&#x637;" horiz-adv-x="786" arabic-form="final" 
d="M803 149v-146l-17 -3q-58 0 -89.5 11.5t-45.5 33.5q-61 -45 -176 -45h-214q-107 0 -160.5 8.5t-90.5 25.5v147q39 -17 102 -24q30 50 46 74v512h118v-289q0 -45 -25 -97q59 67 117.5 96t127.5 29q106 0 166.5 -71.5t60.5 -191.5q0 -34 -6 -61q24 -6 69 -6zM591 166
q34 14 34 56q0 50 -35.5 83.5t-97.5 33.5q-87 0 -151.5 -42.5t-132.5 -144.5h50h225q74 0 108 14z" />
    <glyph glyph-name="uniFEC3" unicode="&#x637;" horiz-adv-x="692" arabic-form="initial" 
d="M590.5 411.5q60.5 -70.5 60.5 -190.5q0 -111 -61 -166t-187 -55h-403l-17 4v145l17 3h37q27 46 49 79v512h118v-289q0 -43 -24 -97q58 67 116.5 96t127.5 29q106 0 166.5 -70.5zM519 166q34 14 34 56q0 50 -35 83.5t-97 33.5q-88 0 -151.5 -42t-132.5 -145h274
q74 0 108 14z" />
    <glyph glyph-name="uniFEC4" unicode="&#x637;" horiz-adv-x="716" arabic-form="medial" 
d="M733 149v-146l-17 -3q-59 0 -90.5 11.5t-45.5 35.5q-62 -47 -177 -47h-403l-17 4v145l17 3h37q27 46 49 79v512h118v-289q0 -43 -24 -97q58 67 116.5 96t127.5 29q106 0 166.5 -70.5t60.5 -190.5q0 -34 -6 -63q24 -6 71 -6zM519 166q34 14 34 56q0 50 -35 83.5t-97 33.5
q-88 0 -151.5 -42t-132.5 -145h274q74 0 108 14z" />
    <glyph glyph-name="uniFEC6" unicode="&#x638;" horiz-adv-x="786" arabic-form="final" 
d="M803 149v-146l-17 -3q-58 0 -89.5 11.5t-45.5 33.5q-61 -45 -176 -45h-214q-107 0 -160.5 8.5t-90.5 25.5v147q39 -17 102 -24q30 50 46 74v512h118v-289q0 -45 -25 -97q59 67 117.5 96t127.5 29q106 0 166.5 -71.5t60.5 -191.5q0 -34 -6 -61q24 -6 69 -6zM591 166
q34 14 34 56q0 50 -35.5 83.5t-97.5 33.5q-87 0 -151.5 -42.5t-132.5 -144.5h50h225q74 0 108 14zM409 639l81 78l81 -78l-81 -80z" />
    <glyph glyph-name="uniFEC7" unicode="&#x638;" horiz-adv-x="692" arabic-form="initial" 
d="M590.5 411.5q60.5 -70.5 60.5 -190.5q0 -111 -61 -166t-187 -55h-403l-17 4v145l17 3h37q27 46 49 79v512h118v-289q0 -43 -24 -97q58 67 116.5 96t127.5 29q106 0 166.5 -70.5zM519 166q34 14 34 56q0 50 -35 83.5t-97 33.5q-88 0 -151.5 -42t-132.5 -145h274
q74 0 108 14zM339 637l81 78l81 -78l-81 -80z" />
    <glyph glyph-name="uniFEC8" unicode="&#x638;" horiz-adv-x="716" arabic-form="medial" 
d="M733 149v-146l-17 -3q-59 0 -90.5 11.5t-45.5 35.5q-62 -47 -177 -47h-403l-17 4v145l17 3h37q27 46 49 79v512h118v-289q0 -43 -24 -97q58 67 116.5 96t127.5 29q106 0 166.5 -70.5t60.5 -190.5q0 -34 -6 -63q24 -6 71 -6zM519 166q34 14 34 56q0 50 -35 83.5t-97 33.5
q-88 0 -151.5 -42t-132.5 -145h274q74 0 108 14zM339 637l81 78l81 -78l-81 -80z" />
    <glyph glyph-name="uniFECA" unicode="&#x639;" horiz-adv-x="598" arabic-form="final" 
d="M615 149v-146l-17 -3h-23q-70 0 -114 5t-81.5 21t-71.5 48q-100 -45 -143 -83t-43 -87q0 -50 47.5 -79t166.5 -29q65 0 117 7t84 15.5t32 9.5l1 -141q-32 -11 -51.5 -16.5t-74.5 -13.5t-128 -8q-140 0 -214 60.5t-74 178.5q0 94 45 152t147 110q-41 43 -82 92t-53 71
l28 141q42 23 97.5 33.5t131.5 10.5q102 0 149.5 -39t47.5 -122q0 -57 -24 -100t-86 -83q32 -2 143 -2h26zM421 347q-27 12 -95 12q-95 0 -141 -17q37 -41 80.5 -85t67.5 -63q60 28 87.5 55t27.5 56q0 30 -27 42z" />
    <glyph glyph-name="uniFECB" unicode="&#x639;" horiz-adv-x="521" arabic-form="initial" 
d="M383.5 165q57.5 8 106.5 18v-147q-88 -21 -209 -28.5t-281 -7.5l-17 3v146l17 3h83q-26 47 -26 107q0 112 61.5 170.5t171.5 58.5q34 0 64 -8.5t50 -19t20 -11.5l-1 -135q-5 3 -24.5 11t-51 16t-64.5 8q-59 0 -94 -25.5t-35 -70.5q0 -96 143 -96q29 0 86.5 8z" />
    <glyph glyph-name="uniFECC" unicode="&#x639;" horiz-adv-x="559" arabic-form="medial" 
d="M576 149v-146l-17 -3h-23q-100 0 -155.5 11t-103.5 48q-51 -35 -113 -47t-148 -12h-16l-17 3v146l17 3h25q105 0 139 1q-40 43 -74 84.5t-43 60.5l28 141q41 23 96.5 33.5t131.5 10.5q102 0 149.5 -39t47.5 -122q0 -53 -20.5 -92t-73.5 -77q31 -1 127 -1h26zM382 332
q-27 12 -95 12q-95 0 -141 -17q37 -41 80.5 -85t67.5 -63q60 28 87.5 55t27.5 56q0 30 -27 42z" />
    <glyph glyph-name="uniFECE" unicode="&#x63a;" horiz-adv-x="598" arabic-form="final" 
d="M615 149v-146l-17 -3h-23q-70 0 -114 5t-81.5 21t-71.5 48q-100 -45 -143 -83t-43 -87q0 -50 47.5 -79t166.5 -29q65 0 117 7t84 15.5t32 9.5l1 -141q-32 -11 -51.5 -16.5t-74.5 -13.5t-128 -8q-140 0 -214 60.5t-74 178.5q0 94 45 152t147 110q-41 43 -82 92t-53 71
l28 141q42 23 97.5 33.5t131.5 10.5q102 0 149.5 -39t47.5 -122q0 -57 -24 -100t-86 -83q32 -2 143 -2h26zM421 347q-27 12 -95 12q-95 0 -141 -17q37 -41 80.5 -85t67.5 -63q60 28 87.5 55t27.5 56q0 30 -27 42zM244 656l81 78l81 -78l-81 -80z" />
    <glyph glyph-name="uniFECF" unicode="&#x63a;" horiz-adv-x="521" arabic-form="initial" 
d="M383.5 165q57.5 8 106.5 18v-147q-88 -21 -209 -28.5t-281 -7.5l-17 3v146l17 3h83q-26 47 -26 107q0 112 61.5 170.5t171.5 58.5q34 0 64 -8.5t50 -19t20 -11.5l-1 -135q-5 3 -24.5 11t-51 16t-64.5 8q-59 0 -94 -25.5t-35 -70.5q0 -96 143 -96q29 0 86.5 8zM191 646
l81 78l81 -78l-81 -80z" />
    <glyph glyph-name="uniFED0" unicode="&#x63a;" horiz-adv-x="559" arabic-form="medial" 
d="M576 149v-146l-17 -3h-23q-100 0 -155.5 11t-103.5 48q-51 -35 -113 -47t-148 -12h-16l-17 3v146l17 3h25q105 0 139 1q-40 43 -74 84.5t-43 60.5l28 141q41 23 96.5 33.5t131.5 10.5q102 0 149.5 -39t47.5 -122q0 -53 -20.5 -92t-73.5 -77q31 -1 127 -1h26zM382 332
q-27 12 -95 12q-95 0 -141 -17q37 -41 80.5 -85t67.5 -63q60 28 87.5 55t27.5 56q0 30 -27 42zM211 643l81 78l81 -78l-81 -80z" />
    <glyph glyph-name="uniFED2" unicode="&#x641;" horiz-adv-x="937" arabic-form="final" 
d="M954 149v-146l-18 -3q-164 0 -256 51q-55 -29 -131 -40t-178 -11q-132 0 -207 31t-105.5 88.5t-30.5 145.5q0 36 4.5 70.5t9.5 57t7 28.5h108q-1 -5 -5.5 -24t-8.5 -47t-4 -55q0 -48 21.5 -79t76 -47.5t152.5 -16.5q104 0 174 3q-33 25 -47.5 60t-14.5 82q0 100 49.5 156
t135.5 56q87 0 136.5 -55.5t49.5 -156.5q0 -47 -14.5 -81.5t-46.5 -58.5q44 -5 125 -5zM616.5 344.5q-24.5 -21.5 -24.5 -63.5q0 -32 21 -52.5t74 -39.5q52 18 73 39.5t21 52.5q0 42 -24.5 63.5t-70.5 21.5q-45 0 -69.5 -21.5zM605 667l81 78l81 -78l-81 -80z" />
    <glyph glyph-name="uniFED3" unicode="&#x641;" horiz-adv-x="455" arabic-form="initial" 
d="M367 516.5q47 -72.5 47 -184.5v-59q0 -140 -67.5 -206.5t-209.5 -66.5h-137l-17 3v146l17 3h145q95 0 135 23t40 78v29q-32 -64 -127 -64q-78 0 -117.5 42.5t-39.5 117.5q0 58 22.5 106t65.5 76.5t102 28.5q94 0 141 -72.5zM284 337q25 5 35 15v2q0 37 -24.5 67t-76.5 30
q-42 0 -68 -20t-26 -50q0 -27 19.5 -38t70.5 -11q45 0 70 5zM141 746l81 78l81 -78l-81 -80z" />
    <glyph glyph-name="uniFED4" unicode="&#x641;" horiz-adv-x="501" arabic-form="medial" 
d="M518 149v-146l-18 -3q-162 0 -254 50q-90 -50 -245 -50l-18 3v146l18 3q82 0 124 5q-32 24 -46 58.5t-14 81.5q0 100 50 156t136 56t136 -55.5t50 -156.5q0 -47 -14 -81.5t-46 -59.5q45 -4 123 -4zM181.5 344.5q-24.5 -21.5 -24.5 -63.5q0 -33 21 -53.5t73 -38.5
q53 18 73.5 39t20.5 53q0 42 -24.5 63.5t-69.5 21.5t-69.5 -21.5zM170 667l81 78l81 -78l-81 -80z" />
    <glyph glyph-name="uniFED6" unicode="&#x642;" horiz-adv-x="793" arabic-form="final" 
d="M810 146v-143l-17 -3h-71q-18 -125 -100.5 -181t-251.5 -56q-127 0 -201.5 32.5t-107.5 100.5t-33 179q0 50 8 95.5t16.5 74t11.5 35.5h112q-3 -7 -12 -34.5t-17 -67.5t-8 -76q0 -71 22.5 -111.5t75.5 -58.5t146 -18t146.5 9.5t78 29.5t29.5 54h-130q-85 0 -126 45.5
t-41 126.5q0 63 23.5 116t68.5 84t106 31q92 0 139.5 -72t50.5 -186h65zM450 154q21 -10 76 -10h112v17q0 41 -26 75t-82 34q-45 0 -73 -23t-28 -59q0 -24 21 -34zM595 482l-62 63l-63 -63l-73 74l73 73l63 -62l62 62l73 -73z" />
    <glyph glyph-name="uniFED7" unicode="&#x642;" horiz-adv-x="455" arabic-form="initial" 
d="M367 516.5q47 -72.5 47 -184.5v-59q0 -140 -67.5 -206.5t-209.5 -66.5h-137l-17 3v146l17 3h145q95 0 135 23t40 78v29q-32 -64 -127 -64q-78 0 -117.5 42.5t-39.5 117.5q0 58 22.5 106t65.5 76.5t102 28.5q94 0 141 -72.5zM284 337q25 5 35 15v2q0 37 -24.5 67t-76.5 30
q-42 0 -68 -20t-26 -50q0 -27 19.5 -38t70.5 -11q45 0 70 5zM283 660l-62 63l-63 -63l-73 74l73 73l63 -62l62 62l73 -73z" />
    <glyph glyph-name="uniFED8" unicode="&#x642;" horiz-adv-x="501" arabic-form="medial" 
d="M518 149v-146l-18 -3q-162 0 -254 50q-90 -50 -245 -50l-18 3v146l18 3q82 0 124 5q-32 24 -46 58.5t-14 81.5q0 100 50 156t136 56t136 -55.5t50 -156.5q0 -47 -14 -81.5t-46 -59.5q45 -4 123 -4zM181.5 344.5q-24.5 -21.5 -24.5 -63.5q0 -33 21 -53.5t73 -38.5
q53 18 73.5 39t20.5 53q0 42 -24.5 63.5t-69.5 21.5t-69.5 -21.5zM312 581l-62 63l-63 -63l-73 74l73 73l63 -62l62 62l73 -73z" />
    <glyph glyph-name="uniFEDA" unicode="&#x643;" horiz-adv-x="892" arabic-form="final" 
d="M908 149v-146l-17 -3q-127 0 -155 95q-39 -51 -122 -73t-227 -22q-140 0 -217 24t-109.5 78.5t-32.5 151.5q0 34 4.5 63.5t9 47t6.5 22.5h106q-2 -4 -6.5 -18.5t-8.5 -38t-4 -47.5q0 -54 22 -81.5t77 -38.5t163 -11q109 0 165 7t78.5 24.5t22.5 51.5v508h116v-469
q0 -49 11 -75t35 -36.5t66 -10.5zM496.5 322q-34.5 -26 -113.5 -26q-35 0 -56 3t-41 11v84q18 -6 39 -8t57 -2q49 0 69 3.5t20 11.5q0 5 -10 8.5t-36 9.5q-7 2 -16 4t-20 5q-32 8 -45 27t-13 53q0 43 41 73t145 62v-85q-75 -22 -100 -32t-25 -18q0 -4 10 -7.5t32 -7.5
q-3 1 21 -5q42 -9 59 -28.5t17 -57.5q0 -52 -34.5 -78z" />
    <glyph glyph-name="uniFEDB" unicode="&#x643;" horiz-adv-x="439" arabic-form="initial" 
d="M443 614l-285 -158q127 -46 183.5 -101.5t56.5 -142.5q0 -104 -62 -158t-170 -54h-165l-18 3v146l18 3h173q52 0 90.5 11.5t38.5 42.5q0 29 -22.5 52.5t-82.5 49.5t-171 58v142l416 245v-139z" />
    <glyph glyph-name="uniFEDC" unicode="&#x643;" horiz-adv-x="555" arabic-form="medial" 
d="M572 149v-146l-17 -3q-59 0 -99.5 11t-75 37t-75.5 76q-12 -61 -57.5 -92.5t-138.5 -31.5h-108l-18 3v146l18 3h106q77 0 106 10t32 34q-43 52 -91 106q-20 24 -41 48.5t-42 49.5v112l425 241v-139l-308 -167q76 -90 146 -170q48 -54 78.5 -79.5t62 -35.5t80.5 -10z" />
    <glyph glyph-name="uniFEDE" unicode="&#x644;" horiz-adv-x="705" arabic-form="final" 
d="M722 149v-146l-17 -3q-77 0 -118 35q-35 -233 -285 -233q-141 0 -207.5 69.5t-66.5 219.5q0 52 9 96t20 75t11 28h110q-3 -7 -12.5 -34t-18 -65.5t-8.5 -74.5q0 -90 38.5 -126t132.5 -36q63 0 99 16.5t51.5 51.5t15.5 94v627h117v-469q0 -49 11 -75t35 -36.5t66 -10.5z
" />
    <glyph glyph-name="uniFEDF" unicode="&#x644;" horiz-adv-x="292" arabic-form="initial" 
d="M-17 3v146l18 3q43 0 65.5 7t31.5 25.5t9 53.5v505l116 1v-471q0 -100 -24 -160t-72.5 -86.5t-125.5 -26.5z" />
    <glyph glyph-name="uniFEE0" unicode="&#x644;" horiz-adv-x="336" arabic-form="medial" 
d="M352 149v-146l-17 -3q-119 0 -151 83q-26 -43 -71 -63t-112 -20l-18 3v146l18 3q43 0 65.5 7t31.5 25.5t9 53.5v505l116 1v-470q0 -49 11 -75t35 -36.5t66 -10.5z" />
    <glyph glyph-name="uniFEE2" unicode="&#x645;" horiz-adv-x="693" arabic-form="final" 
d="M710 149v-146l-17 -3q-64 0 -101 25t-59 72q-18 -47 -59.5 -74t-110.5 -27q-86 0 -133 47q-52 -14 -72 -22.5t-20 -18.5l1 -334h-113v333q0 55 21.5 93.5t62.5 55.5q30 14 71 25v12q0 71 28.5 124.5t75.5 82.5t102 29q50 0 85.5 -21.5t58 -53t44.5 -77.5l26 -53
q16 -34 36 -50t56 -16zM498 176v1q-24 54 -51.5 79t-73.5 25q-41 0 -72 -24t-31 -60q0 -28 22 -39t77 -11q102 0 129 29z" />
    <glyph glyph-name="uniFEE3" unicode="&#x645;" horiz-adv-x="539" arabic-form="initial" 
d="M448.5 361.5q49.5 -61.5 49.5 -161.5q0 -97 -51.5 -150.5t-148.5 -53.5q-64 0 -101.5 21.5t-54.5 65.5q-21 -44 -54.5 -63.5t-86.5 -19.5l-18 3v146l18 3q26 0 41.5 4.5t28.5 19t27 44.5l21 48q30 66 76.5 110.5t120.5 44.5q83 0 132.5 -61.5zM378 159q24 12 24 38
q-2 36 -26 60t-69 24q-93 0 -124 -86l-3 -8q9 -20 36.5 -30t79.5 -10q58 0 82 12z" />
    <glyph glyph-name="uniFEE4" unicode="&#x645;" horiz-adv-x="610" arabic-form="medial" 
d="M627 149v-146l-17 -3q-64 0 -100.5 25t-59.5 71q-18 -46 -60 -73t-111 -27q-109 0 -153 75q-12 -35 -41 -53t-84 -18l-18 3v146l18 3q38 0 61 4t36 15v16q0 71 28.5 124.5t75.5 82.5t102 29q50 0 85.5 -21.5t58 -53t44.5 -77.5l26 -53q16 -34 36 -50t56 -16zM415 177
q-24 54 -51.5 79t-73.5 25q-41 0 -72 -24t-31 -60q0 -28 22 -39t77 -11q103 0 129 30z" />
    <glyph glyph-name="uniFEE6" unicode="&#x646;" horiz-adv-x="758" arabic-form="final" 
d="M775 149v-146l-17 -3q-72 0 -106 31q-14 -129 -92 -194t-227 -65q-161 0 -233 75t-72 236q0 52 9 96t20 75t11 28h110q-3 -7 -12.5 -34.5t-18 -70t-8.5 -85.5q0 -63 19.5 -99.5t64 -53t121.5 -16.5q75 0 118.5 18t62.5 55.5t19 98.5q0 99 -15 216h112q6 -48 9 -93
q3 -29 11 -42t29.5 -18.5t67.5 -5.5zM271 483l81 78l81 -78l-81 -80z" />
    <glyph glyph-name="uniFEE7" unicode="&#x646;" horiz-adv-x="264" arabic-form="initial" 
d="M-17 3v146l17 3q64 0 90.5 29.5t26.5 97.5q0 55 -16 137h106q16 -80 16 -151q0 -124 -58.5 -194.5t-164.5 -70.5zM76 580l81 78l81 -78l-81 -80z" />
    <glyph glyph-name="uniFEE8" unicode="&#x646;" horiz-adv-x="354" arabic-form="medial" 
d="M371 149v-146l-17 -3q-77 0 -120.5 24.5t-57.5 76.5q-14 -52 -57 -76.5t-119 -24.5l-17 3v146l17 3q49 0 75 9.5t38 33.5t12 71v99h107v-99q0 -47 11.5 -71t37 -33.5t73.5 -9.5zM98 532l81 78l81 -78l-81 -80z" />
    <glyph glyph-name="uniFEE9" unicode="&#x647;" horiz-adv-x="486" arabic-form="isolated" 
d="M77.5 50q49.5 -50 154.5 -50q109 0 161 50t52 155q0 127 -54.5 198t-152.5 71q-99 0 -154.5 -71t-55.5 -198q0 -105 49.5 -155zM153.5 301q29.5 30 82.5 30t82.5 -30t29.5 -85q0 -35 -24.5 -49.5t-87.5 -14.5q-62 0 -87 14.5t-25 49.5q0 55 29.5 85z" />
    <glyph glyph-name="uniFEEA" unicode="&#x647;" horiz-adv-x="519" arabic-form="final" 
d="M536 149v-146l-17 -3q-96 1 -144.5 43.5t-60.5 126.5q-26 -81 -128 -81q-83 0 -120.5 46t-37.5 131q0 58 25 100.5t86.5 78t169.5 64.5v62h106v-305q0 -47 8.5 -71t30.5 -33.5t65 -9.5zM309 260v127q-106 -28 -148.5 -50t-42.5 -50q0 -46 94 -46q74 0 97 19z" />
    <glyph glyph-name="uniFEEB" unicode="&#x647;" horiz-adv-x="641" arabic-form="initial" 
d="M427.5 455.5q94.5 -48.5 133.5 -108t39 -135.5q0 -105 -49 -158.5t-139 -53.5q-101 0 -194 49q-32 -22 -79.5 -35.5t-138.5 -13.5l-17 3v146l17 3q70 0 94 1q-19 29 -26.5 61.5t-7.5 71.5q0 144 90 181l20 74q163 -37 257.5 -85.5zM229 180q82 31 82 99q0 44 -20 70
t-64 26t-64.5 -25t-20.5 -63q0 -35 18 -60t66 -46zM485.5 167q20.5 15 20.5 47q0 81 -118 127q5 -30 5 -59q0 -74 -47 -126q33 -4 75 -4q44 0 64.5 15z" />
    <glyph glyph-name="uniFEEC" unicode="&#x647;" horiz-adv-x="544" arabic-form="medial" 
d="M561 149v-146l-17 -3h-59q13 -25 13 -60q0 -86 -53 -137t-145 -51q-219 0 -234 248h-65l-18 3v146l18 3h64q3 146 58.5 226.5t150.5 80.5q81 0 124.5 -63.5t43.5 -158.5q0 -51 -13 -85h115zM184 275q-28 -41 -29 -129h47q53 0 82.5 4t47.5 19t18 48q0 45 -20.5 72
t-65.5 27q-52 0 -80 -41zM379 -90q27 16 27 42q0 33 -30.5 48.5t-110.5 15.5h-109q13 -122 149 -122q47 0 74 16z" />
    <glyph glyph-name="uniFEEE" unicode="&#x648;" horiz-adv-x="504" arabic-form="final" 
d="M521 146v-143l-17 -3h-74q-22 -114 -91 -180t-174 -66q-56 0 -94.5 13.5t-49.5 27.5v133q16 -9 53 -19t81 -10q77 0 126 27t65 83h-126q-86 0 -127.5 45t-41.5 128q0 64 23.5 116.5t68.5 84t106 31.5q93 0 141 -73t50 -189h64zM161 157.5q21 -10.5 76 -10.5h112v14
q0 43 -26 78.5t-82 35.5q-46 0 -73.5 -23t-27.5 -57q0 -27 21 -37.5z" />
    <glyph glyph-name="uniFEF0" unicode="&#x649;" horiz-adv-x="735" arabic-form="final" 
d="M752 149v-146l-17 -3h-54q10 -28 10 -58q0 -69 -39.5 -121.5t-115 -81.5t-179.5 -29q-167 0 -247.5 73t-81.5 227q0 47 8 89.5t17 69.5t12 34h111q-3 -7 -12 -34t-17 -66.5t-8 -77.5q1 -61 23.5 -96.5t71.5 -51t135 -15.5q110 0 169 23.5t59 63.5q0 29 -31 42.5
t-101 20.5v147q74 -7 225 -7h45z" />
    <glyph glyph-name="uniFEF2" unicode="&#x64a;" horiz-adv-x="735" arabic-form="final" 
d="M752 149v-146l-17 -3h-54q10 -28 10 -58q0 -69 -39.5 -121.5t-115 -81.5t-179.5 -29q-167 0 -247.5 73t-81.5 227q0 47 8 89.5t17 69.5t12 34h111q-3 -7 -12 -34t-17 -66.5t-8 -77.5q1 -61 23.5 -96.5t71.5 -51t135 -15.5q110 0 169 23.5t59 63.5q0 29 -31 42.5
t-101 20.5v147q74 -7 225 -7h45zM417 -497l-61 61l-61 -61l-70 72l70 71l61 -60l61 60l71 -71z" />
    <glyph glyph-name="uniFEF3" unicode="&#x64a;" horiz-adv-x="264" arabic-form="initial" 
d="M164.5 70.5q-58.5 -70.5 -164.5 -70.5l-17 3v146l17 3q64 0 90.5 29.5t26.5 97.5q0 55 -16 137h106q16 -80 16 -151q0 -124 -58.5 -194.5zM132 -66l68 -67l-68 -69l-58 58l-58 -58l-66 69l66 67l58 -57z" />
    <glyph glyph-name="uniFEF4" unicode="&#x64a;" horiz-adv-x="354" arabic-form="medial" 
d="M371 149v-146l-17 -3q-77 0 -120.5 24.5t-57.5 76.5q-14 -52 -57 -76.5t-119 -24.5l-17 3v146l17 3q49 0 75 9.5t38 33.5t12 71v99h107v-99q0 -47 11.5 -71t37 -33.5t73.5 -9.5zM237 -211l-61 61l-61 -61l-70 72l70 71l61 -60l61 60l71 -71z" />
    <glyph glyph-name=".notdef" horiz-adv-x="306" 
 />
    <glyph glyph-name=".null" 
 />
    <glyph glyph-name="nonmarkingreturn" unicode="&#xd;" horiz-adv-x="261" 
 />
    <glyph glyph-name="space" unicode=" " horiz-adv-x="200" 
 />
    <glyph glyph-name="exclam" unicode="!" horiz-adv-x="264" 
d="M74 743h117v-533h-117v533zM51 67l80 80l81 -80l-81 -81z" />
    <glyph glyph-name="quotedbl" unicode="&#x22;" horiz-adv-x="459" 
d="M71 488l-16 267h140l-16 -267h-108zM280 488l-16 267h140l-16 -267h-108z" />
    <glyph glyph-name="numbersign" unicode="#" horiz-adv-x="633" 
d="M225 163l-21 -163h-110l21 163h-74v105h88l29 224h-80v105h94l21 158h109l-21 -158h126l21 158h108l-21 -158h77v-105h-91l-29 -224h83v-105h-96l-21 -163h-109l21 163h-125zM364 268l29 224h-126l-29 -224h126z" />
    <glyph glyph-name="dollar" unicode="$" horiz-adv-x="607" 
d="M259 110v212l-26 4q-186 25 -186 213q0 97 58 153.5t154 69.5v103h102v-100q110 -7 177 -52v-136q-87 59 -177 68v-207l8 -1q203 -26 203 -215q0 -98 -57 -154.5t-154 -72.5v-123h-102v118q-111 5 -202 55v136q97 -62 202 -71zM259 639q-71 -19 -71 -94q0 -41 16 -61.5
t55 -30.5v186zM361 117q69 23 69 97q0 40 -15.5 61t-53.5 31v-189z" />
    <glyph glyph-name="percent" unicode="%" horiz-adv-x="974" 
d="M400 407q-26 -42 -70.5 -63.5t-99.5 -21.5q-84 0 -139.5 48.5t-55.5 136.5v72q0 59 26 102t70.5 66t98.5 23q55 0 99.5 -23t70.5 -66t26 -102v-72q0 -58 -26 -100zM770 755l-442 -755h-123l442 755h123zM296 648q-23 26 -66 26t-66 -26.5t-23 -67.5v-72q0 -41 23 -66.5
t67 -25.5q43 0 65.5 25t22.5 67v72q0 42 -23 68zM914 71q-26 -42 -70.5 -63.5t-99.5 -21.5q-84 0 -139.5 48.5t-55.5 136.5v72q0 59 26 102t70.5 66t98.5 23q55 0 99.5 -23t70.5 -66t26 -102v-72q0 -58 -26 -100zM810.5 312q-22.5 26 -66.5 26q-43 0 -66 -26.5t-23 -68.5
v-71q0 -41 23 -66.5t67 -25.5q43 0 65.5 25t22.5 67v71q0 43 -22.5 69z" />
    <glyph glyph-name="ampersand" unicode="&#x26;" horiz-adv-x="739" 
d="M112.5 496.5q-17.5 38.5 -17.5 81.5q0 60 32 103.5t84 65.5t113 22q103 0 162.5 -48.5t59.5 -128.5q0 -106 -136 -186l-39 -23l152 -160q36 63 37 148h127q0 -63 -22 -122.5t-62 -110.5l132 -138h-164l-55 56q-49 -34 -105.5 -52.5t-115.5 -18.5q-112 0 -181 52.5
t-69 152.5q0 56 28.5 103.5t85.5 79.5l32 18l-20 21q-41 46 -58.5 84.5zM393.5 522.5q19.5 27.5 19.5 59.5q0 43 -25.5 63t-67.5 20q-44 0 -68.5 -22t-24.5 -59q0 -22 11.5 -46t39.5 -56l25 -27l36 20q35 20 54.5 47.5zM440 134l-179 185l-13 -8q-31 -19 -48.5 -47.5
t-17.5 -61.5q0 -44 35 -74t95 -30q71 0 128 36z" />
    <glyph glyph-name="quotesingle" unicode="'" horiz-adv-x="250" 
d="M71 488l-16 267h140l-16 -267h-108z" />
    <glyph glyph-name="parenleft" unicode="(" horiz-adv-x="337" 
d="M105 847q43 56 133 56h42v-105h-10q-41 0 -60.5 -27.5t-19.5 -75.5v-666q0 -48 19.5 -75.5t60.5 -27.5h10v-105h-42q-176 0 -176 198v686q0 86 43 142z" />
    <glyph glyph-name="parenright" unicode=")" horiz-adv-x="337" 
d="M-62 19q0 -198 -176 -198h-42v105h10q41 0 60.5 27.5t19.5 75.5v666q0 48 -19.5 75.5t-60.5 27.5h-10v105h42q90 0 133 -56t43 -142v-686z" />
    <glyph glyph-name="asterisk" unicode="*" horiz-adv-x="512" 
d="M203 755h103v-145l131 47l38 -88l-131 -52l95 -123l-81 -59l-105 131l-102 -128l-80 59l96 120l-127 51l37 91l126 -46v142z" />
    <glyph glyph-name="plus" unicode="+" horiz-adv-x="518" 
d="M205 440v164h108v-164h163v-105h-163v-165h-108v165h-163v105h163z" />
    <glyph glyph-name="comma" unicode="," horiz-adv-x="264" 
d="M149 76l-3 1h-29l-1 -1h33z" />
    <glyph glyph-name="hyphen" unicode="-" horiz-adv-x="415" 
d="M351 319v-105h-288v105h288z" />
    <glyph glyph-name="period" unicode="." horiz-adv-x="245" 
d="M22 70l89 88l90 -88l-90 -90z" />
    <glyph glyph-name="slash" unicode="/" horiz-adv-x="505" 
d="M482 798l-346 -961h-114l347 961h113z" />
    <glyph glyph-name="zero" unicode="0" horiz-adv-x="630" 
d="M126.5 697.5q65.5 71.5 192.5 71.5q250 0 250 -281v-224q0 -137 -65 -208t-190 -71q-253 0 -253 279v224q0 138 65.5 209.5zM227.5 145q24.5 -35 87.5 -35t87.5 35t24.5 112v238q0 78 -26 113.5t-88 35.5q-59 0 -84.5 -34t-25.5 -115v-238q0 -77 24.5 -112z" />
    <glyph glyph-name="one" unicode="1" horiz-adv-x="410" 
d="M214 755h112v-755h-142v591l-156 -81v139z" />
    <glyph glyph-name="two" unicode="2" horiz-adv-x="581" 
d="M53 711q84 58 213 58q119 0 186.5 -52.5t67.5 -156.5q0 -62 -30 -120t-85 -119l-177 -199h307v-122h-487v97l257 295q70 80 70 144q0 53 -34 79.5t-97 26.5q-49 0 -93 -14.5t-98 -49.5v133z" />
    <glyph glyph-name="three" unicode="3" horiz-adv-x="570" 
d="M474 463.5q-31 -41.5 -83 -65.5q60 -22 94 -69t34 -116q0 -65 -34 -117t-98 -81.5t-150 -29.5q-112 0 -186 41v131q53 -27 91 -37t88 -10q71 0 110 28t39 81q0 62 -38 87t-115 25h-61v112h60q67 0 106 27t39 78q0 47 -32.5 71.5t-97.5 24.5q-97 0 -181 -65v130
q43 29 97 44t109 15q76 0 130 -25.5t82 -71t28 -104.5q0 -62 -31 -103.5z" />
    <glyph glyph-name="four" unicode="4" horiz-adv-x="594" 
d="M29 142v114l217 499h144l-215 -494h175v186h135v-186h82v-119h-82v-142h-135v142h-321z" />
    <glyph glyph-name="five" unicode="5" horiz-adv-x="572" 
d="M58 25v130q47 -22 89.5 -33.5t91.5 -11.5q151 0 151 120q0 119 -141 119q-48 0 -88.5 -10t-86.5 -33v449h424v-125h-298v-170q36 9 80 9q118 0 184.5 -59.5t66.5 -166.5q0 -85 -39 -143t-104 -86t-144 -28q-105 0 -186 39z" />
    <glyph glyph-name="six" unicode="6" horiz-adv-x="588" 
d="M159.5 17q-59.5 32 -91.5 87t-32 122q0 47 18.5 94t50.5 109l10 19l150 307h152l-146 -290q21 4 47 4q72 -1 127 -32.5t85 -85.5t30 -123t-32.5 -124.5t-92 -87t-137.5 -31.5q-79 0 -138.5 32zM209.5 319q-31.5 -36 -31.5 -90q0 -55 33.5 -89t86.5 -34q55 0 86.5 36.5
t31.5 87.5q0 53 -32 89t-87 36q-56 0 -87.5 -36z" />
    <glyph glyph-name="seven" unicode="7" horiz-adv-x="523" 
d="M347 630h-323v125h478v-89l-257 -666h-146z" />
    <glyph glyph-name="eight" unicode="8" horiz-adv-x="614" 
d="M170 15q-58 30 -89 82.5t-31 118.5q0 61 26.5 106t76.5 72q-40 27 -62 68.5t-22 93.5q0 58 27.5 106.5t81.5 77.5t130 29t130 -29t81 -77.5t27 -106.5q0 -52 -22 -93.5t-63 -68.5q49 -27 76.5 -72.5t27.5 -106.5q0 -66 -32 -118.5t-90.5 -82t-136.5 -29.5t-136 30z
M233 622q-28 -29 -28 -74q0 -47 29.5 -75.5t75.5 -28.5q47 0 75 29t28 75t-28.5 74.5t-75.5 28.5q-48 0 -76 -29zM223.5 303q-30.5 -34 -30.5 -83q0 -50 32.5 -82.5t83.5 -32.5q54 0 84.5 35t30.5 82t-31 81t-85 34t-84.5 -34z" />
    <glyph glyph-name="nine" unicode="9" horiz-adv-x="587" 
d="M428 737q59 -33 91 -89t32 -123q0 -43 -16 -85t-45 -99l-10 -19l-158 -322h-152l145 289q-22 -3 -45 -3q-72 1 -127.5 32.5t-85.5 85.5t-30 123t32.5 124.5t92 87t138.5 31.5t138 -33zM377.5 436q31.5 36 31.5 90q0 55 -33.5 89t-86.5 34q-55 0 -86.5 -36.5t-31.5 -87.5
q0 -53 32 -89t87 -36q56 0 87.5 36z" />
    <glyph glyph-name="colon" unicode=":" horiz-adv-x="313" 
d="M89 78l89 88l90 -88l-90 -90zM89 371l89 88l90 -88l-90 -90z" />
    <glyph glyph-name="semicolon" unicode=";" horiz-adv-x="294" 
d="M222 569v-144h-140v144h140zM223 133l-46 -262h-128l43 262h131z" />
    <glyph glyph-name="less" unicode="&#x3c;" horiz-adv-x="507" 
d="M36 438l401 223v-126l-279 -149l279 -145v-133l-401 218v112z" />
    <glyph glyph-name="equal" unicode="=" horiz-adv-x="580" 
d="M514 570v-106h-448v106h448zM514 320v-106h-448v106h448z" />
    <glyph glyph-name="greater" unicode="&#x3e;" horiz-adv-x="507" 
d="M70 241l279 145l-279 149v126l401 -223v-112l-401 -218v133z" />
    <glyph glyph-name="question" unicode="?" horiz-adv-x="541" 
d="M324 220h-129v31q0 44 14 76t33 53.5t52 49.5q40 35 59.5 61t19.5 66q0 49 -27.5 75t-77.5 26q-52 0 -83 -30t-31 -84v-15h-124v14q0 69 30 120.5t84 78.5t125 27q109 0 174 -56.5t65 -153.5q0 -45 -15 -78.5t-36 -56t-55 -51.5q-40 -33 -59 -57.5t-19 -60.5v-35z
M330 133v-133h-134v133h134z" />
    <glyph glyph-name="at" unicode="@" horiz-adv-x="748" 
d="M547 150q-21 -33 -54 -49t-82 -16q-82 0 -124.5 41t-42.5 117q0 83 50.5 123.5t152.5 40.5h100v10q0 137 -172 137q-99 0 -144 -40t-45 -122v-233q0 -119 54.5 -162t147.5 -43h88v-109h-112q-136 -2 -221 73t-85 244v225q0 128 82 201.5t237 73.5q137 0 217.5 -58
t80.5 -165v-339h-128v50zM547 317h-83q-53 0 -72.5 -15t-19.5 -54q0 -33 17 -49t54 -16q91 0 104 87v47z" />
    <glyph glyph-name="A" unicode="A" horiz-adv-x="695" 
d="M427 755l264 -755h-161l-52 162h-281l-55 -162h-146l280 755h151zM442 276l-99 314l-107 -314h206z" />
    <glyph glyph-name="B" unicode="B" horiz-adv-x="688" 
d="M84 755h289q126 0 188.5 -51.5t62.5 -146.5q0 -61 -27 -99.5t-82 -62.5q59 -19 91.5 -64.5t32.5 -115.5q0 -95 -61.5 -155t-195.5 -60h-298v755zM224 440h135q64 0 89.5 24t25.5 72q0 100 -122 100h-128v-196zM224 120h139q131 0 131 99q0 56 -30 81.5t-98 25.5h-142
v-206z" />
    <glyph glyph-name="C" unicode="C" horiz-adv-x="619" 
d="M497 628.5q-52 15.5 -108 15.5q-91 0 -142 -54.5t-51 -162.5v-106q0 -211 195 -211q50 0 100.5 9.5t87.5 31.5v-126q-37 -20 -90.5 -30t-109.5 -10q-98 0 -171.5 39t-114.5 116t-41 188v92q0 111 41 189.5t115 119t172 40.5q64 0 117 -13t84 -33v-137q-32 27 -84 42.5z
" />
    <glyph glyph-name="D" unicode="D" horiz-adv-x="713" 
d="M660 328q0 -164 -84 -246t-229 -82h-263v755h263q144 0 228.5 -85t84.5 -250v-92zM226 125h121q85 0 127.5 45t42.5 151v106q0 100 -44 152t-126 52h-121v-506z" />
    <glyph glyph-name="E" unicode="E" horiz-adv-x="631" 
d="M84 0v755h486v-120h-344v-193h311v-119h-311v-203h355v-120h-497z" />
    <glyph glyph-name="F" unicode="F" horiz-adv-x="606" 
d="M226 310v-310h-142v755h486v-120h-344v-206h311v-119h-311z" />
    <glyph glyph-name="G" unicode="G" horiz-adv-x="699" 
d="M529 -1.5q-59 -13.5 -133 -13.5q-97 0 -175 36.5t-123.5 113.5t-45.5 193v92q0 116 46 194.5t124.5 116.5t175.5 38q122 0 217 -49v-132q-85 57 -208 57q-93 0 -152 -54t-59 -164v-106q0 -110 55.5 -160.5t146.5 -50.5q57 0 100 9v190h-153v121h295v-392
q-52 -26 -111 -39.5z" />
    <glyph glyph-name="H" unicode="H" horiz-adv-x="773" 
d="M547 0v326h-321v-326h-142v755h142v-303h321v303h142v-755h-142z" />
    <glyph glyph-name="I" unicode="I" horiz-adv-x="310" 
d="M84 0v755h142v-755h-142z" />
    <glyph glyph-name="J" unicode="J" horiz-adv-x="504" 
d="M50 630v125h374v-560q0 -68 -31.5 -115t-85.5 -71t-121 -24q-39 0 -77 9t-64 21v120q24 -12 57 -19.5t68 -7.5q55 0 83.5 21.5t28.5 83.5v417h-232z" />
    <glyph glyph-name="K" unicode="K" horiz-adv-x="682" 
d="M316 442l194 313h155l-227 -359l237 -396h-166l-186 323h-97v-323h-142v755h142v-313h90z" />
    <glyph glyph-name="L" unicode="L" horiz-adv-x="544" 
d="M84 0v755h142v-635h305v-120h-447z" />
    <glyph glyph-name="M" unicode="M" horiz-adv-x="863" 
d="M219 282v-282h-135v755h135l212 -412l213 412h135v-755h-135v273l3 239l-162 -322h-112l-158 315z" />
    <glyph glyph-name="N" unicode="N" horiz-adv-x="765" 
d="M219 283v-283h-135v755h135l330 -523l-3 258v265h135v-755h-135l-330 526z" />
    <glyph glyph-name="O" unicode="O" horiz-adv-x="729" 
d="M91.5 612.5q38.5 77.5 109 117t163.5 39.5t163.5 -39.5t109.5 -117t39 -188.5v-100q0 -111 -39 -187t-109 -114t-164 -38q-143 0 -227 86.5t-84 252.5v100q0 111 38.5 188.5zM236.5 159.5q39.5 -54.5 126.5 -54.5q88 0 128.5 54.5t40.5 157.5v114q0 105 -41.5 161.5
t-127.5 56.5q-82 0 -124 -57t-42 -161v-114q0 -103 39.5 -157.5z" />
    <glyph glyph-name="P" unicode="P" horiz-adv-x="655" 
d="M226 256v-256h-142v755h280q83 0 142.5 -33t90 -89t30.5 -125q0 -73 -30.5 -130t-89 -89.5t-139.5 -32.5h-142zM226 376h118q139 0 139 127q0 68 -34.5 99.5t-110.5 31.5h-112v-258z" />
    <glyph glyph-name="Q" unicode="Q" horiz-adv-x="729" 
d="M91.5 612.5q38.5 77.5 109 117t163.5 39.5t163.5 -39.5t109.5 -117t39 -188.5v-100q0 -100 -32 -171.5t-90 -113.5l68 -124h-117l-44 82q-45 -12 -97 -12q-143 0 -227 86.5t-84 252.5v100q0 111 38.5 188.5zM490 158q42 52 42 159v114q0 105 -41.5 161.5t-127.5 56.5
q-82 0 -124 -57t-42 -161v-114q0 -103 39.5 -157.5t126.5 -54.5q20 0 38 3l-80 149h116z" />
    <glyph glyph-name="R" unicode="R" horiz-adv-x="684" 
d="M651 0h-160l-123 287h-142v-287h-142v755h289q83 0 140 -30t85.5 -81.5t28.5 -116.5q0 -73 -31 -129t-91 -85zM226 405h118q75 0 107 28.5t32 86.5q0 66 -35.5 91t-114.5 25h-107v-231z" />
    <glyph glyph-name="S" unicode="S" horiz-adv-x="629" 
d="M304 108q67 0 103.5 27.5t36.5 78.5t-28 72.5t-99 29.5l-75 10q-94 13 -142.5 67t-48.5 146q0 75 37 126.5t100 76.5t140 25q66 0 126 -13.5t99 -40.5v-136q-48 33 -105 51.5t-113 18.5q-142 0 -142 -102q0 -49 25.5 -70t89.5 -29l70 -9q102 -13 155.5 -67t53.5 -148
q0 -116 -82.5 -174.5t-210.5 -58.5q-132 0 -234 56v136q116 -73 244 -73z" />
    <glyph glyph-name="T" unicode="T" horiz-adv-x="628" 
d="M388 633v-633h-142v633h-233v122h602v-122h-227z" />
    <glyph glyph-name="U" unicode="U" horiz-adv-x="760" 
d="M683 315q0 -165 -81 -247.5t-224 -82.5t-222.5 82t-79.5 248v440h143v-434q0 -111 37.5 -161.5t122.5 -50.5q81 0 121.5 49t40.5 163v434h142v-440z" />
    <glyph glyph-name="V" unicode="V" horiz-adv-x="679" 
d="M259 0l-249 755h158l175 -587l186 587h150l-269 -755h-151z" />
    <glyph glyph-name="W" unicode="W" horiz-adv-x="1018" 
d="M661 0l-83 279l-70 266l-73 -264l-86 -281h-146l-187 755h152l118 -576l160 576h138l154 -576l128 576h145l-206 -755h-144z" />
    <glyph glyph-name="X" unicode="X" horiz-adv-x="664" 
d="M19 755h157l160 -272l161 272h150l-232 -366l244 -389h-161l-166 287l-173 -287h-157l249 383z" />
    <glyph glyph-name="Y" unicode="Y" horiz-adv-x="643" 
d="M393 0h-142v278l-246 477h154l167 -347l165 347h144l-242 -479v-276z" />
    <glyph glyph-name="Z" unicode="Z" horiz-adv-x="635" 
d="M198 122h393v-122h-549v122l394 511h-390v122h545v-122z" />
    <glyph glyph-name="bracketleft" unicode="[" horiz-adv-x="332" 
d="M297 903v-105h-90v-872h90v-105h-218v1082h218z" />
    <glyph glyph-name="backslash" unicode="\" horiz-adv-x="505" 
d="M369 -163l-346 961h113l347 -961h-114z" />
    <glyph glyph-name="bracketright" unicode="]" horiz-adv-x="332" 
d="M35 -179v105h90v872h-90v105h218v-1082h-218z" />
    <glyph glyph-name="asciicircum" unicode="^" horiz-adv-x="610" 
d="M300 622l-125 -225h-139l202 358h129l208 -358h-145z" />
    <glyph glyph-name="underscore" unicode="_" horiz-adv-x="509" 
d="M34 -93h440v-93h-440v93z" />
    <glyph glyph-name="grave" unicode="`" horiz-adv-x="500" 
d="M403 622h-109l-99 153h120z" />
    <glyph glyph-name="a" unicode="a" horiz-adv-x="578" 
d="M375 59q-49 -74 -154 -74q-87 0 -134.5 42.5t-47.5 116.5q0 89 55.5 130.5t170.5 41.5h110q-1 44 -10 69t-35 38t-77 13q-54 0 -96.5 -13.5t-87.5 -46.5v124q41 29 90.5 43.5t118.5 14.5q124 0 179 -51t55 -166v-341h-137v59zM282 224q-63 0 -86.5 -15.5t-23.5 -57.5
q0 -65 83 -65q52 0 86 28t34 94v16h-93z" />
    <glyph glyph-name="b" unicode="b" horiz-adv-x="631" 
d="M207 755v-274q54 77 156 77q107 0 164 -66t57 -183v-75q0 -123 -56.5 -186t-164.5 -63q-101 0 -156 83v-68h-137v755h137zM207 229q0 -58 34 -97t87 -39q54 0 84 35t30 101v85q0 66 -30.5 100.5t-85.5 34.5q-49 0 -83.5 -35t-35.5 -93v-92z" />
    <glyph glyph-name="c" unicode="c" horiz-adv-x="522" 
d="M479 401q-74 45 -158 45q-64 0 -98.5 -34.5t-34.5 -103.5v-75q0 -66 35 -101t97 -35q81 0 156 44v-113q-65 -43 -169 -43q-125 0 -192.5 66t-67.5 187v66q0 118 68.5 186t198.5 68q95 0 165 -37v-120z" />
    <glyph glyph-name="d" unicode="d" horiz-adv-x="631" 
d="M561 755v-755h-137v68q-55 -83 -156 -83q-108 0 -164 63t-56 186v75q0 117 56.5 183t163.5 66q101 0 156 -76v273h137zM189 229q0 -66 30 -101t84 -35q52 0 85.5 37t35.5 93v110q-6 53 -39.5 84.5t-79.5 31.5q-54 0 -85 -34.5t-31 -100.5v-85z" />
    <glyph glyph-name="e" unicode="e" horiz-adv-x="585" 
d="M186 222q9 -124 147 -124q57 0 100 8.5t94 35.5v-107q-49 -27 -98.5 -38.5t-117.5 -11.5q-127 0 -195.5 65.5t-68.5 187.5v66q0 79 31 136.5t86 87.5t128 30q113 0 180 -63.5t67 -184.5v-88h-353zM400 316q-1 68 -27.5 100.5t-80.5 32.5q-103 0 -106 -133h214z" />
    <glyph glyph-name="f" unicode="f" horiz-adv-x="380" 
d="M98 544v41q0 88 51.5 136t144.5 48q49 0 80 -9v-106q-28 8 -50 8q-44 0 -66.5 -20.5t-22.5 -69.5v-28h126v-107h-126v-437h-137v437h-60v107h60z" />
    <glyph glyph-name="g" unicode="g" horiz-adv-x="631" 
d="M484 -164.5q-77 -69.5 -216 -69.5q-57 0 -101 9.5t-88 26.5v118q44 -19 94 -29t97 -10q83 0 118.5 39t35.5 114v45q-55 -83 -156 -83q-108 0 -164 63t-56 186v64q0 117 56.5 183t163.5 66q101 0 156 -76v62h137v-514q0 -125 -77 -194.5zM189 240q0 -66 30 -101t84 -35
q53 0 87 39t34 97v93q-6 53 -39.5 84.5t-79.5 31.5q-54 0 -85 -34.5t-31 -100.5v-74z" />
    <glyph glyph-name="h" unicode="h" horiz-adv-x="632" 
d="M207 755v-284q57 87 169 87q94 0 142.5 -56.5t48.5 -162.5v-339h-137v301q0 68 -28 101t-78 33q-54 0 -85.5 -36t-31.5 -104v-295h-137v755h137z" />
    <glyph glyph-name="i" unicode="i" horiz-adv-x="277" 
d="M209 765v-129h-140v129h140zM207 544v-544h-137v544h137z" />
    <glyph glyph-name="j" unicode="j" horiz-adv-x="285" 
d="M217 765v-129h-140v129h140zM167 -186q-48 -48 -139 -48q-43 0 -73 10v114q30 -8 52 -8q38 0 54.5 21.5t16.5 72.5v568h137v-577q0 -105 -48 -153z" />
    <glyph glyph-name="k" unicode="k" horiz-adv-x="565" 
d="M207 755v-422h67l121 211h156l-172 -250l180 -294h-155l-131 228h-66v-228h-137v755h137z" />
    <glyph glyph-name="l" unicode="l" horiz-adv-x="319" 
d="M204 755v-573q0 -47 10.5 -64.5t41.5 -17.5t49 8v-111q-36 -12 -82 -12q-79 0 -117.5 38.5t-38.5 121.5v610h137z" />
    <glyph glyph-name="m" unicode="m" horiz-adv-x="972" 
d="M207 544v-70q56 84 163 84q129 0 169 -107q59 107 181 107q94 0 140 -56t46 -163v-339h-137v301q0 134 -101 134q-52 0 -81 -34t-30 -99v-302h-137v301q0 134 -102 134q-52 0 -81 -34t-30 -99v-302h-137v544h137z" />
    <glyph glyph-name="n" unicode="n" horiz-adv-x="632" 
d="M207 544v-73q57 87 169 87q94 0 142.5 -56.5t48.5 -162.5v-339h-137v301q0 68 -28 101t-78 33q-54 0 -85.5 -36t-31.5 -104v-295h-137v544h137z" />
    <glyph glyph-name="o" unicode="o" horiz-adv-x="609" 
d="M80.5 444q33.5 57 91.5 85.5t132 28.5t132.5 -28.5t92.5 -85.5t34 -140v-66q0 -82 -34 -139t-92.5 -85.5t-132.5 -28.5t-132 28.5t-91.5 85.5t-33.5 139v66q0 83 33.5 140zM217.5 129.5q30.5 -36.5 86.5 -36.5t87 36.5t31 108.5v67q0 72 -31 108t-87 36t-86.5 -36
t-30.5 -108v-67q0 -72 30.5 -108.5z" />
    <glyph glyph-name="p" unicode="p" horiz-adv-x="631" 
d="M207 544v-63q54 77 156 77q107 0 164 -66t57 -183v-75q0 -123 -58.5 -186t-166.5 -63q-97 0 -152 75v-282h-137v766h137zM207 229q0 -58 34 -97t87 -39q54 0 84 35t30 101v85q0 66 -30.5 100.5t-85.5 34.5q-49 0 -83.5 -35t-35.5 -93v-92z" />
    <glyph glyph-name="q" unicode="q" horiz-adv-x="631" 
d="M561 544v-767h-137v291q-55 -83 -156 -83q-108 0 -164 63t-56 186v75q0 117 56.5 183t163.5 66q101 0 156 -76v62h137zM189 229q0 -66 30 -101t84 -35q52 0 85.5 37t35.5 93v110q-6 53 -39.5 84.5t-79.5 31.5q-54 0 -85 -34.5t-31 -100.5v-85z" />
    <glyph glyph-name="r" unicode="r" horiz-adv-x="396" 
d="M207 544v-88q28 47 70.5 74.5t97.5 27.5v-137q-14 3 -28 3q-61 0 -99.5 -46t-40.5 -121v-257h-137v544h137z" />
    <glyph glyph-name="s" unicode="s" horiz-adv-x="538" 
d="M259 94q50 0 79.5 15.5t29.5 46.5q0 30 -22 44t-65 16l-70 8q-166 16 -166 161q0 58 32 97t84 57.5t111 18.5q58 0 111.5 -11t87.5 -31v-121q-43 25 -95 39.5t-99 14.5q-50 0 -77 -15.5t-27 -44.5q0 -28 22 -39.5t67 -15.5l67 -6q81 -7 125 -44.5t44 -115.5
q0 -63 -35.5 -103.5t-90.5 -59t-117 -18.5q-50 0 -107 11.5t-94 30.5v115q100 -50 205 -50z" />
    <glyph glyph-name="t" unicode="t" horiz-adv-x="415" 
d="M108 544v156h137v-156h131v-107h-131v-247q0 -50 17.5 -69.5t58.5 -19.5q38 0 63 7v-112q-18 -5 -44 -8t-49 -3q-89 0 -136 48t-47 137v267h-87v107h87z" />
    <glyph glyph-name="u" unicode="u" horiz-adv-x="630" 
d="M422 0v67q-55 -81 -162 -81q-95 0 -144.5 56t-49.5 162v340h137v-307q0 -67 27 -97.5t78 -30.5q52 0 82.5 34t31.5 98v303h137v-544h-137z" />
    <glyph glyph-name="v" unicode="v" horiz-adv-x="576" 
d="M216 0l-207 544h144l138 -403l133 403h141l-204 -544h-145z" />
    <glyph glyph-name="w" unicode="w" horiz-adv-x="855" 
d="M542 0l-112 375l-118 -375h-144l-152 544h136l94 -402l125 402h121l122 -399l94 399h131l-151 -544h-146z" />
    <glyph glyph-name="x" unicode="x" horiz-adv-x="545" 
d="M22 544h148l105 -169l110 169h136l-177 -257l194 -287h-154l-114 183l-116 -183h-146l192 276z" />
    <glyph glyph-name="y" unicode="y" horiz-adv-x="579" 
d="M228 -25l-217 569h145l137 -405l135 405h141l-200 -544l-73 -222h-139z" />
    <glyph glyph-name="z" unicode="z" horiz-adv-x="533" 
d="M208 108h284v-108h-452v94l286 341h-281v109h445v-92z" />
    <glyph glyph-name="braceleft" unicode="{" horiz-adv-x="365" 
d="M93.5 279.5q-19.5 27.5 -60.5 27.5h-10v109h10q41 0 60.5 27.5t19.5 75.5v187q0 87 39.5 140t129.5 53h49v-101h-10q-41 0 -60.5 -27.5t-19.5 -75.5v-212q0 -35 -17 -66.5t-46 -55.5q63 -60 63 -147v-184q0 -48 19.5 -75.5t60.5 -27.5h10v-101h-49q-90 0 -129.5 51.5
t-39.5 137.5v189q0 48 -19.5 75.5z" />
    <glyph glyph-name="bar" unicode="|" horiz-adv-x="273" 
d="M80 -93v891h113v-891h-113z" />
    <glyph glyph-name="braceright" unicode="}" horiz-adv-x="365" 
d="M212.5 -122.5q-39.5 -51.5 -129.5 -51.5h-49v101h10q41 0 60.5 27.5t19.5 75.5v184q0 87 63 147q-29 24 -46 55.5t-17 66.5v212q0 48 -19.5 75.5t-60.5 27.5h-10v101h49q90 0 129.5 -53t39.5 -140v-187q0 -100 75 -103h15v-109h-10q-41 0 -60.5 -27.5t-19.5 -75.5v-189
q0 -86 -39.5 -137.5z" />
    <glyph glyph-name="asciitilde" unicode="~" horiz-adv-x="601" 
d="M67 327q68 61 129 61q24 0 50 -8t63 -24q37 -15 59 -22.5t43 -7.5q28 0 57 13.5t66 37.5v-104q-25 -25 -59.5 -43.5t-68.5 -18.5q-24 0 -49.5 8.5t-61.5 23.5q-38 16 -59 23t-40 7q-28 0 -58.5 -14t-70.5 -39v107z" />
    <glyph glyph-name="DEL" horiz-adv-x="252" 
 />
    <glyph glyph-name="exclamdown" unicode="&#xa1;" horiz-adv-x="279" 
d="M207 544v-133h-133v133h133zM204 -211h-130v522h130v-522z" />
    <glyph glyph-name="cent" unicode="&#xa2;" horiz-adv-x="535" 
d="M481 521v-120q-55 33 -110 41v-342q57 10 108 41v-113q-43 -28 -108 -39v-112h-100v110q-108 10 -164.5 75t-56.5 176v66q0 107 56.5 173t164.5 78v103h100v-103q60 -8 110 -34zM271 438q-80 -25 -80 -130v-75q0 -50 20.5 -83t59.5 -46v334z" />
    <glyph glyph-name="sterling" unicode="&#xa3;" horiz-adv-x="616" 
d="M47 0v120h90v205h-90v114h90v89q0 69 32.5 124t90 86t130.5 31q82 0 150 -33v-123q-59 35 -136 35q-64 0 -96.5 -30t-32.5 -103v-76h203v-114h-203v-205h304v-120h-532z" />
    <glyph glyph-name="currency" unicode="&#xa4;" horiz-adv-x="637" 
d="M492 281l95 -108l-78 -69l-89 100q-46 -26 -106 -26q-56 0 -100 23l-86 -97l-78 69l89 102q-20 40 -20 92v38q0 49 19 90l-88 101l78 68l81 -92q47 28 105 28q61 0 111 -31l84 95l78 -68l-94 -107q17 -37 17 -84v-38q0 -47 -18 -86zM370 470.5q-20 21.5 -55 21.5
q-36 0 -56.5 -21.5t-20.5 -56.5v-56q0 -34 20.5 -54t56.5 -20t55.5 20t19.5 54v56q0 35 -20 56.5z" />
    <glyph glyph-name="yen" unicode="&#xa5;" horiz-adv-x="689" 
d="M610 383v-101h-191v-70h191v-101h-191v-111h-142v111h-199v101h199v70h-199v101h146l-194 372h155l167 -343l165 343h143l-189 -372h139z" />
    <glyph glyph-name="brokenbar" unicode="&#xa6;" horiz-adv-x="269" 
d="M78 441v357h113v-357h-113zM78 -93v357h113v-357h-113z" />
    <glyph glyph-name="section" unicode="&#xa7;" horiz-adv-x="585" 
d="M533 14q0 -95 -72.5 -145.5t-185.5 -50.5q-55 0 -113 12t-99 36v123q95 -62 215 -62q66 0 97.5 21.5t31.5 64.5q0 27 -13 42t-36.5 21.5t-65.5 11.5l-48 6q-89 11 -137.5 59t-48.5 123q0 49 22.5 84.5t63.5 58.5q-42 24 -65 63.5t-23 90.5q0 62 34 106.5t91.5 68
t127.5 23.5q52 0 107 -11t90 -35v-124q-92 61 -200 61q-119 0 -119 -88q0 -38 25.5 -57.5t77.5 -25.5l47 -6q196 -26 196 -178q0 -101 -87 -148q87 -46 87 -145zM204.5 356q-26.5 -24 -26.5 -68q0 -40 25.5 -61.5t84.5 -28.5l19 -3q56 4 81.5 31t25.5 67q0 43 -29.5 61.5
t-90.5 26.5q-63 -1 -89.5 -25z" />
    <glyph glyph-name="dieresis" unicode="&#xa8;" horiz-adv-x="478" 
d="M199 751v-119h-125v119h125zM408 751v-119h-125v119h125z" />
    <glyph glyph-name="copyright" unicode="&#xa9;" horiz-adv-x="873" 
d="M632 716q90 -53 143 -143t53 -196t-53 -196t-143 -142.5t-196 -52.5t-196 52.5t-142.5 142.5t-52.5 196t52.5 196t142.5 143t196 53t196 -53zM598 100q72 43 112.5 116t40.5 160t-39 160t-110.5 116t-165.5 43q-92 0 -163.5 -43t-111 -116t-39.5 -160t40.5 -160t112 -116
t161.5 -43t162 43zM505.5 499.5q-29.5 8.5 -58.5 8.5q-94 0 -94 -103v-59q0 -54 25 -76.5t71 -22.5q24 0 53 5.5t49 16.5v-87q-19 -10 -52 -15.5t-62 -5.5q-85 0 -134 48.5t-49 140.5v51q0 93 49 143t135 50q34 0 67 -7t47 -17v-93q-17 14 -46.5 22.5z" />
    <glyph glyph-name="ordfeminine" unicode="&#xaa;" horiz-adv-x="506" 
d="M325 399q-38 -56 -124 -56q-68 0 -105 32t-37 90q0 63 44 93.5t134 30.5h88q-1 32 -8.5 50.5t-29 27.5t-61.5 9q-41 0 -74.5 -10t-68.5 -35v95q31 21 70 31.5t93 10.5q98 0 141.5 -37.5t43.5 -122.5v-254h-106v45zM325 520h-75q-48 0 -67.5 -11t-19.5 -39q0 -26 15.5 -38
t48.5 -12q41 0 68.5 19t29.5 65v16zM441 283v-88h-370v88h370z" />
    <glyph glyph-name="guillemotleft" unicode="&#xab;" horiz-adv-x="513" 
d="M274 66h-118l-122 215l125 209h116l-119 -206zM466 66h-118l-122 215l125 209h116l-119 -206z" />
    <glyph glyph-name="logicalnot" unicode="&#xac;" horiz-adv-x="699" 
d="M629 445v-331h-116v216h-459v115h575z" />
    <glyph glyph-name="registered" unicode="&#xae;" horiz-adv-x="664" 
d="M474 731q65 -38 103 -103t38 -141q0 -77 -38 -142t-103 -103t-142 -38t-141.5 38t-102.5 103t-38 142q0 76 38 141t102.5 103t141.5 38t142 -38zM447 289.5q51 30.5 79.5 83t28.5 114.5t-27.5 113.5t-78 82.5t-117.5 31q-66 0 -116.5 -31t-78 -83t-27.5 -113
q0 -62 28 -114.5t79 -83t115 -30.5t115 30.5zM466 336h-81l-43 106h-45v-106h-73v311h129q51 0 78.5 -28.5t27.5 -71.5q0 -29 -12 -53t-35 -37zM297 501h35q29 0 41.5 10.5t12.5 33.5q0 24 -14 33.5t-44 9.5h-31v-87z" />
    <glyph glyph-name="macron" unicode="&#xaf;" horiz-adv-x="506" 
d="M381 739v-90h-269v90h269z" />
    <glyph glyph-name="degree" unicode="&#xb0;" horiz-adv-x="481" 
d="M410 433q-26 -42 -70.5 -63.5t-99.5 -21.5q-84 0 -139.5 48.5t-55.5 136.5v46q0 59 26 102t70.5 66t98.5 23q55 0 99.5 -23t70.5 -66t26 -102v-46q0 -58 -26 -100zM305.5 648q-22.5 26 -65.5 26t-65.5 -26t-22.5 -68v-46q0 -41 23 -66.5t66 -25.5q44 0 65.5 25t21.5 67
v46q0 42 -22.5 68z" />
    <glyph glyph-name="plusminus" unicode="&#xb1;" horiz-adv-x="554" 
d="M223 445v159h108v-159h163v-105h-163v-161h-108v161h-163v105h163zM494 105v-105h-434v105h434z" />
    <glyph glyph-name="uni00B2" unicode="&#xb2;" horiz-adv-x="322" 
d="M37 796q42 24 106 24q63 0 100.5 -26t37.5 -77q0 -32 -14.5 -59t-43.5 -55l-83 -83h150l1 -70h-258v58l126 133q16 17 23.5 31t7.5 29q0 44 -63 44q-46 0 -90 -25v76z" />
    <glyph glyph-name="uni00B3" unicode="&#xb3;" horiz-adv-x="319" 
d="M218 642q31 -10 48.5 -32t17.5 -56q0 -48 -37 -79t-111 -31q-61 0 -100 20v76q26 -13 46 -18t43 -5q71 0 71 46q0 22 -17 30.5t-52 8.5h-30v64h29q32 0 49.5 12t17.5 31q0 17 -15 28t-47 11q-51 0 -91 -29v76q23 12 53.5 18.5t59.5 6.5q61 0 93 -27.5t32 -69.5
q0 -56 -60 -81z" />
    <glyph glyph-name="acute" unicode="&#xb4;" horiz-adv-x="500" 
d="M304 622h-109l88 153h120z" />
    <glyph glyph-name="uni00B5" unicode="&#xb5;" horiz-adv-x="650" 
d="M435 0v67q-47 -81 -148 -81q-44 0 -72 15v-223h-137v766h137v-312q3 -123 106 -123q52 0 82.5 34t31.5 98v303h137v-544h-137z" />
    <glyph glyph-name="paragraph" unicode="&#xb6;" horiz-adv-x="708" 
d="M306 0v303h-29q-123 0 -185 58t-62 165q0 64 27.5 116t84 82.5t139.5 30.5h149v-755h-124zM498 0v755h124v-755h-124zM306 407v242h-14q-71 0 -103 -27.5t-32 -92.5q0 -56 28 -89t97 -33h24z" />
    <glyph glyph-name="periodcentered" unicode="&#xb7;" horiz-adv-x="269" 
d="M205 464v-144h-140v144h140z" />
    <glyph glyph-name="cedilla" unicode="&#xb8;" horiz-adv-x="442" 
d="M215 5v-43h10q110 0 110 -86q0 -46 -31.5 -74t-89.5 -28h-84v81h62q25 0 36.5 4.5t11.5 19.5q-1 12 -7.5 17.5t-20.5 6.5h-79v102h82z" />
    <glyph glyph-name="uni00B9" unicode="&#xb9;" horiz-adv-x="243" 
d="M114 812h73v-362h-88v269l-75 -37v82z" />
    <glyph glyph-name="ordmasculine" unicode="&#xba;" horiz-adv-x="524" 
d="M115 720q56 48 146 48t146.5 -48t56.5 -140v-49q0 -91 -57 -139.5t-146 -48.5q-90 0 -146 48t-56 140v49q0 92 56 140zM192 452q24 -26 69 -26t69 26t24 79v49q0 53 -24 79.5t-69 26.5t-69 -26.5t-24 -79.5v-49q0 -53 24 -79zM449 283v-88h-370v88h370z" />
    <glyph glyph-name="guillemotright" unicode="&#xbb;" horiz-adv-x="507" 
d="M162 490l125 -209l-122 -215h-118l118 218l-119 206h116zM348 490l125 -209l-122 -215h-118l118 218l-119 206h116z" />
    <glyph glyph-name="onequarter" unicode="&#xbc;" horiz-adv-x="785" 
d="M684 755l-481 -755h-105l481 755h105zM121 754h73v-362h-88v269l-75 -37v82zM477 66v68l104 228h89l-104 -228h71v81h84v-81h33v-68h-33v-66h-84v66h-160z" />
    <glyph glyph-name="onehalf" unicode="&#xbd;" horiz-adv-x="818" 
d="M684 755l-481 -755h-105l481 755h105zM121 754h73v-362h-88v269l-75 -37v82zM527 346q42 24 106 24q63 0 100.5 -26t37.5 -77q0 -32 -14.5 -59t-43.5 -55l-83 -83h150l1 -70h-258v58l126 133q16 17 23.5 31t7.5 29q0 44 -63 44q-46 0 -90 -25v76z" />
    <glyph glyph-name="threequarters" unicode="&#xbe;" horiz-adv-x="842" 
d="M226 583q31 -10 48.5 -32t17.5 -56q0 -48 -37 -79t-111 -31q-61 0 -100 20v76q26 -13 46 -18t43 -5q71 0 71 46q0 22 -17 30.5t-52 8.5h-30v64h29q32 0 49.5 12t17.5 31q0 17 -15 28t-47 11q-51 0 -91 -29v76q23 12 53.5 18.5t59.5 6.5q61 0 93 -27.5t32 -69.5
q0 -56 -60 -81zM730 755l-481 -755h-105l481 755h105zM535 66v68l104 228h89l-104 -228h71v81h84v-81h33v-68h-33v-66h-84v66h-160z" />
    <glyph glyph-name="questiondown" unicode="&#xbf;" horiz-adv-x="536" 
d="M209 411v133h134v-133h-134zM215 324h129v-31q0 -44 -14 -76t-33 -53.5t-52 -49.5q-40 -35 -59.5 -61t-19.5 -66q0 -49 27.5 -75t77.5 -26q52 0 83 30t31 84v15h124v-14q0 -69 -30 -120.5t-84 -78.5t-125 -27q-109 0 -174 56.5t-65 153.5q0 45 15 78.5t36 56t55 51.5
q40 33 59 57.5t19 60.5v35z" />
    <glyph glyph-name="Agrave" unicode="&#xc0;" horiz-adv-x="695" 
d="M407 827h-113l-88 133h124zM427 755l264 -755h-161l-52 162h-281l-55 -162h-146l280 755h151zM442 276l-99 314l-107 -314h206z" />
    <glyph glyph-name="Aacute" unicode="&#xc1;" horiz-adv-x="695" 
d="M415 827h-113l77 133h124zM427 755l264 -755h-161l-52 162h-281l-55 -162h-146l280 755h151zM442 276l-99 314l-107 -314h206z" />
    <glyph glyph-name="Acircumflex" unicode="&#xc2;" horiz-adv-x="695" 
d="M396 827l-51 60l-50 -60h-115l112 133h111l113 -133h-120zM427 755l264 -755h-161l-52 162h-281l-55 -162h-146l280 755h151zM442 276l-99 314l-107 -314h206z" />
    <glyph glyph-name="Atilde" unicode="&#xc3;" horiz-adv-x="695" 
d="M200 926q42 40 80 40q15 0 32 -5.5t44 -15.5q19 -8 38 -14t32 -6q17 0 35 9t41 25v-91q-15 -17 -36.5 -29t-42.5 -12q-14 0 -35 6.5t-41 14.5q-18 8 -36.5 14t-30.5 6q-17 0 -36.5 -9.5t-43.5 -25.5v93zM427 755l264 -755h-161l-52 162h-281l-55 -162h-146l280 755h151z
M442 276l-99 314l-107 -314h206z" />
    <glyph glyph-name="Adieresis" unicode="&#xc4;" horiz-adv-x="695" 
d="M309 956v-119h-124v119h124zM512 956v-119h-124v119h124zM427 755l264 -755h-161l-52 162h-281l-55 -162h-146l280 755h151zM442 276l-99 314l-107 -314h206z" />
    <glyph glyph-name="Aring" unicode="&#xc5;" horiz-adv-x="695" 
d="M274 838.5q-33 29.5 -33 81.5t33 83.5t82 31.5q50 0 83 -31t33 -84q0 -52 -33 -81.5t-83 -29.5q-49 0 -82 29.5zM316 959.5q-14 -15.5 -14 -38.5t14 -38t39 -15q26 0 40 15.5t14 38.5t-13.5 38t-39.5 15t-40 -15.5zM427 755l264 -755h-161l-52 162h-281l-55 -162h-146
l280 755h151zM442 276l-99 314l-107 -314h206z" />
    <glyph glyph-name="AE" unicode="&#xc6;" horiz-adv-x="978" 
d="M916 755v-125h-344v-183h312v-124h-312v-198h356v-125h-498v190h-213l-83 -190h-146l344 755h584zM430 304v326h-19l-144 -326h163z" />
    <glyph glyph-name="Ccedilla" unicode="&#xc7;" horiz-adv-x="619" 
d="M122.5 94.5q-70.5 86.5 -70.5 233.5v92q0 111 41 189.5t115 119t172 40.5q64 0 117 -13t84 -33v-137q-32 27 -84 42.5t-108 15.5q-91 0 -142 -54.5t-51 -162.5v-106q0 -211 195 -211q50 0 100.5 9.5t87.5 31.5v-126q-34 -18 -82 -28t-100 -12v-28h10q110 0 110 -86
q0 -46 -31.5 -74t-89.5 -28h-84v81h62q25 0 36.5 4.5t11.5 19.5q-1 12 -7.5 17.5t-20.5 6.5h-79v92q-122 18 -192.5 104.5z" />
    <glyph glyph-name="Egrave" unicode="&#xc8;" horiz-adv-x="631" 
d="M400 827h-113l-88 133h124zM84 0v755h486v-120h-344v-193h311v-119h-311v-203h355v-120h-497z" />
    <glyph glyph-name="Eacute" unicode="&#xc9;" horiz-adv-x="631" 
d="M375 827h-113l77 133h124zM84 0v755h486v-120h-344v-193h311v-119h-311v-203h355v-120h-497z" />
    <glyph glyph-name="Ecircumflex" unicode="&#xca;" horiz-adv-x="631" 
d="M383 827l-51 60l-50 -60h-115l112 133h111l113 -133h-120zM84 0v755h486v-120h-344v-193h311v-119h-311v-203h355v-120h-497z" />
    <glyph glyph-name="Edieresis" unicode="&#xcb;" horiz-adv-x="631" 
d="M292 956v-119h-124v119h124zM495 956v-119h-124v119h124zM84 0v755h486v-120h-344v-193h311v-119h-311v-203h355v-120h-497z" />
    <glyph glyph-name="Igrave" unicode="&#xcc;" horiz-adv-x="310" 
d="M209 827h-113l-88 133h124zM84 0v755h142v-755h-142z" />
    <glyph glyph-name="Iacute" unicode="&#xcd;" horiz-adv-x="310" 
d="M216 827h-113l77 133h124zM84 0v755h142v-755h-142z" />
    <glyph glyph-name="Icircumflex" unicode="&#xce;" horiz-adv-x="310" 
d="M208 827l-51 60l-50 -60h-115l112 133h111l113 -133h-120zM84 0v755h142v-755h-142z" />
    <glyph glyph-name="Idieresis" unicode="&#xcf;" horiz-adv-x="310" 
d="M118 956v-119h-124v119h124zM321 956v-119h-124v119h124zM84 0v755h142v-755h-142z" />
    <glyph glyph-name="Eth" unicode="&#xd0;" horiz-adv-x="721" 
d="M92 439v316h264q144 0 228.5 -85t84.5 -250v-92q0 -164 -84 -246t-229 -82h-264v333h-68v106h68zM234 125h122q85 0 127 45t42 151v106q0 100 -43.5 152t-125.5 52h-122v-192h121v-106h-121v-208z" />
    <glyph glyph-name="Ntilde" unicode="&#xd1;" horiz-adv-x="765" 
d="M240 926q42 40 80 40q15 0 32 -5.5t44 -15.5q19 -8 38 -14t32 -6q17 0 35 9t41 25v-91q-15 -17 -36.5 -29t-42.5 -12q-14 0 -35 6.5t-41 14.5q-18 8 -36.5 14t-30.5 6q-17 0 -36.5 -9.5t-43.5 -25.5v93zM219 283v-283h-135v755h135l330 -523l-3 258v265h135v-755h-135
l-330 526z" />
    <glyph glyph-name="Ograve" unicode="&#xd2;" horiz-adv-x="729" 
d="M416 827h-113l-88 133h124zM91.5 612.5q38.5 77.5 109 117t163.5 39.5t163.5 -39.5t109.5 -117t39 -188.5v-100q0 -111 -39 -187t-109 -114t-164 -38q-143 0 -227 86.5t-84 252.5v100q0 111 38.5 188.5zM236.5 159.5q39.5 -54.5 126.5 -54.5q88 0 128.5 54.5t40.5 157.5
v114q0 105 -41.5 161.5t-127.5 56.5q-82 0 -124 -57t-42 -161v-114q0 -103 39.5 -157.5z" />
    <glyph glyph-name="Oacute" unicode="&#xd3;" horiz-adv-x="729" 
d="M411 827h-113l77 133h124zM91.5 612.5q38.5 77.5 109 117t163.5 39.5t163.5 -39.5t109.5 -117t39 -188.5v-100q0 -111 -39 -187t-109 -114t-164 -38q-143 0 -227 86.5t-84 252.5v100q0 111 38.5 188.5zM236.5 159.5q39.5 -54.5 126.5 -54.5q88 0 128.5 54.5t40.5 157.5
v114q0 105 -41.5 161.5t-127.5 56.5q-82 0 -124 -57t-42 -161v-114q0 -103 39.5 -157.5z" />
    <glyph glyph-name="Ocircumflex" unicode="&#xd4;" horiz-adv-x="729" 
d="M411 827l-51 60l-50 -60h-115l112 133h111l113 -133h-120zM91.5 612.5q38.5 77.5 109 117t163.5 39.5t163.5 -39.5t109.5 -117t39 -188.5v-100q0 -111 -39 -187t-109 -114t-164 -38q-143 0 -227 86.5t-84 252.5v100q0 111 38.5 188.5zM236.5 159.5
q39.5 -54.5 126.5 -54.5q88 0 128.5 54.5t40.5 157.5v114q0 105 -41.5 161.5t-127.5 56.5q-82 0 -124 -57t-42 -161v-114q0 -103 39.5 -157.5z" />
    <glyph glyph-name="Otilde" unicode="&#xd5;" horiz-adv-x="729" 
d="M212 926q42 40 80 40q15 0 32 -5.5t44 -15.5q19 -8 38 -14t32 -6q17 0 35 9t41 25v-91q-15 -17 -36.5 -29t-42.5 -12q-14 0 -35 6.5t-41 14.5q-18 8 -36.5 14t-30.5 6q-17 0 -36.5 -9.5t-43.5 -25.5v93zM91.5 612.5q38.5 77.5 109 117t163.5 39.5t163.5 -39.5t109.5 -117
t39 -188.5v-100q0 -111 -39 -187t-109 -114t-164 -38q-143 0 -227 86.5t-84 252.5v100q0 111 38.5 188.5zM236.5 159.5q39.5 -54.5 126.5 -54.5q88 0 128.5 54.5t40.5 157.5v114q0 105 -41.5 161.5t-127.5 56.5q-82 0 -124 -57t-42 -161v-114q0 -103 39.5 -157.5z" />
    <glyph glyph-name="Odieresis" unicode="&#xd6;" horiz-adv-x="729" 
d="M323 956v-119h-124v119h124zM526 956v-119h-124v119h124zM91.5 612.5q38.5 77.5 109 117t163.5 39.5t163.5 -39.5t109.5 -117t39 -188.5v-100q0 -111 -39 -187t-109 -114t-164 -38q-143 0 -227 86.5t-84 252.5v100q0 111 38.5 188.5zM236.5 159.5q39.5 -54.5 126.5 -54.5
q88 0 128.5 54.5t40.5 157.5v114q0 105 -41.5 161.5t-127.5 56.5q-82 0 -124 -57t-42 -161v-114q0 -103 39.5 -157.5z" />
    <glyph glyph-name="multiply" unicode="&#xd7;" horiz-adv-x="485" 
d="M166 381l-116 117l77 76l116 -116l115 116l75 -75l-116 -116l117 -116l-77 -76l-116 116l-115 -115l-74 75z" />
    <glyph glyph-name="Oslash" unicode="&#xd8;" horiz-adv-x="731" 
d="M93.5 612.5q38.5 77.5 108.5 117t163 39.5q104 0 177 -48l28 42h108l-70 -103q69 -89 69 -236v-100q0 -111 -39 -187t-109 -114t-164 -38q-107 0 -179 47l-27 -40h-104l66 99q-66 88 -66 233v100q0 111 38.5 188.5zM208 222l263 393q-40 34 -106 34q-83 0 -125 -57
t-42 -161v-114q0 -56 10 -95zM257 138q39 -33 108 -33q88 0 128.5 54.5t40.5 157.5v114q0 57 -12 100z" />
    <glyph glyph-name="Ugrave" unicode="&#xd9;" horiz-adv-x="760" 
d="M448 827h-113l-88 133h124zM683 315q0 -165 -81 -247.5t-224 -82.5t-222.5 82t-79.5 248v440h143v-434q0 -111 37.5 -161.5t122.5 -50.5q81 0 121.5 49t40.5 163v434h142v-440z" />
    <glyph glyph-name="Uacute" unicode="&#xda;" horiz-adv-x="760" 
d="M437 827h-113l77 133h124zM683 315q0 -165 -81 -247.5t-224 -82.5t-222.5 82t-79.5 248v440h143v-434q0 -111 37.5 -161.5t122.5 -50.5q81 0 121.5 49t40.5 163v434h142v-440z" />
    <glyph glyph-name="Ucircumflex" unicode="&#xdb;" horiz-adv-x="760" 
d="M427 827l-51 60l-50 -60h-115l112 133h111l113 -133h-120zM683 315q0 -165 -81 -247.5t-224 -82.5t-222.5 82t-79.5 248v440h143v-434q0 -111 37.5 -161.5t122.5 -50.5q81 0 121.5 49t40.5 163v434h142v-440z" />
    <glyph glyph-name="Udieresis" unicode="&#xdc;" horiz-adv-x="760" 
d="M335 956v-119h-124v119h124zM538 956v-119h-124v119h124zM683 315q0 -165 -81 -247.5t-224 -82.5t-222.5 82t-79.5 248v440h143v-434q0 -111 37.5 -161.5t122.5 -50.5q81 0 121.5 49t40.5 163v434h142v-440z" />
    <glyph glyph-name="Yacute" unicode="&#xdd;" horiz-adv-x="643" 
d="M381 827h-113l77 133h124zM393 0h-142v278l-246 477h154l167 -347l165 347h144l-242 -479v-276z" />
    <glyph glyph-name="Thorn" unicode="&#xde;" horiz-adv-x="670" 
d="M381 640q83 0 140 -31t85.5 -84.5t28.5 -118.5q0 -70 -28.5 -125.5t-85 -87.5t-136.5 -32h-159v-161h-142v755h142v-115h155zM226 283h127q75 0 107 29t32 87q0 66 -35.5 91.5t-114.5 25.5h-116v-233z" />
    <glyph glyph-name="germandbls" unicode="&#xdf;" horiz-adv-x="630" 
d="M333 109q59 0 86.5 24.5t27.5 78.5v40q0 59 -27.5 85.5t-88.5 26.5h-39v103h34q58 0 79.5 23t21.5 72q0 48 -24.5 74t-83.5 26q-60 0 -86 -29.5t-26 -97.5v-535h-137v535q0 68 29.5 121t88 83t140.5 30q118 0 177 -53t59 -138q0 -56 -26 -89t-78 -56q58 -18 91 -63
t33 -114v-40q0 -99 -53.5 -157.5t-186.5 -58.5h-59v109h48z" />
    <glyph glyph-name="agrave" unicode="&#xe0;" horiz-adv-x="578" 
d="M336 622h-109l-99 153h120zM375 59q-49 -74 -154 -74q-87 0 -134.5 42.5t-47.5 116.5q0 89 55.5 130.5t170.5 41.5h110q-1 44 -10 69t-35 38t-77 13q-54 0 -96.5 -13.5t-87.5 -46.5v124q41 29 90.5 43.5t118.5 14.5q124 0 179 -51t55 -166v-341h-137v59zM282 224
q-63 0 -86.5 -15.5t-23.5 -57.5q0 -65 83 -65q52 0 86 28t34 94v16h-93z" />
    <glyph glyph-name="aacute" unicode="&#xe1;" horiz-adv-x="578" 
d="M323 622h-109l88 153h120zM375 59q-49 -74 -154 -74q-87 0 -134.5 42.5t-47.5 116.5q0 89 55.5 130.5t170.5 41.5h110q-1 44 -10 69t-35 38t-77 13q-54 0 -96.5 -13.5t-87.5 -46.5v124q41 29 90.5 43.5t118.5 14.5q124 0 179 -51t55 -166v-341h-137v59zM282 224
q-63 0 -86.5 -15.5t-23.5 -57.5q0 -65 83 -65q52 0 86 28t34 94v16h-93z" />
    <glyph glyph-name="acircumflex" unicode="&#xe2;" horiz-adv-x="578" 
d="M326 622l-53 86l-58 -86h-109l112 153h111l113 -153h-116zM375 59q-49 -74 -154 -74q-87 0 -134.5 42.5t-47.5 116.5q0 89 55.5 130.5t170.5 41.5h110q-1 44 -10 69t-35 38t-77 13q-54 0 -96.5 -13.5t-87.5 -46.5v124q41 29 90.5 43.5t118.5 14.5q124 0 179 -51t55 -166
v-341h-137v59zM375 224h-93q-63 0 -86.5 -15.5t-23.5 -57.5q0 -65 83 -65q50 0 84 26.5t36 88.5v23z" />
    <glyph glyph-name="atilde" unicode="&#xe3;" horiz-adv-x="578" 
d="M130 728q42 40 80 40q14 0 35.5 -6.5t41.5 -14.5q19 -8 38 -14t32 -6q17 0 35 9t41 25v-90q-15 -17 -36.5 -29t-42.5 -12q-14 0 -35 6.5t-41 14.5q-19 8 -37.5 14t-30.5 6q-17 0 -36.5 -9.5t-43.5 -25.5v92zM375 59q-49 -74 -154 -74q-87 0 -134.5 42.5t-47.5 116.5
q0 89 55.5 130.5t170.5 41.5h110q-1 44 -10 69t-35 38t-77 13q-54 0 -96.5 -13.5t-87.5 -46.5v124q41 29 90.5 43.5t118.5 14.5q124 0 179 -51t55 -166v-341h-137v59zM375 224h-93q-63 0 -86.5 -15.5t-23.5 -57.5q0 -65 83 -65q50 0 84 26.5t36 88.5v23z" />
    <glyph glyph-name="adieresis" unicode="&#xe4;" horiz-adv-x="578" 
d="M239 751v-119h-125v119h125zM448 751v-119h-125v119h125zM375 59q-49 -74 -154 -74q-87 0 -134.5 42.5t-47.5 116.5q0 89 55.5 130.5t170.5 41.5h110q-1 44 -10 69t-35 38t-77 13q-54 0 -96.5 -13.5t-87.5 -46.5v124q41 29 90.5 43.5t118.5 14.5q124 0 179 -51t55 -166
v-341h-137v59zM282 224q-63 0 -86.5 -15.5t-23.5 -57.5q0 -65 83 -65q52 0 86 28t34 94v16h-93z" />
    <glyph glyph-name="aring" unicode="&#xe5;" horiz-adv-x="578" 
d="M203.5 634.5q-32.5 31.5 -32.5 90.5q0 53 33.5 84.5t82.5 31.5t82 -31.5t33 -84.5q0 -59 -32.5 -90.5t-83.5 -31.5q-50 0 -82.5 31.5zM246.5 763q-13.5 -17 -13.5 -48q0 -23 13.5 -38t39.5 -15t39.5 17.5t13.5 47.5q0 23 -13.5 38t-39.5 15t-39.5 -17zM375 59
q-49 -74 -154 -74q-87 0 -134.5 42.5t-47.5 116.5q0 89 55.5 130.5t170.5 41.5h110q-1 44 -10 69t-35 38t-77 13q-54 0 -96.5 -13.5t-87.5 -46.5v124q41 29 90.5 43.5t118.5 14.5q124 0 179 -51t55 -166v-341h-137v59zM282 224q-63 0 -86.5 -15.5t-23.5 -57.5q0 -65 83 -65
q52 0 86 28t34 94v16h-93z" />
    <glyph glyph-name="ae" unicode="&#xe6;" horiz-adv-x="913" 
d="M375 316q-1 44 -10 69t-35.5 38t-77.5 13q-53 0 -95.5 -13.5t-87.5 -46.5v124q81 58 206 58q118 0 169 -66q66 66 177 66q112 0 179 -63.5t67 -184.5v-88h-353q4 -65 42.5 -94.5t108.5 -29.5q53 0 96.5 8.5t93.5 35.5v-107q-48 -28 -98 -39t-113 -11q-161 0 -227 96
q-27 -47 -73.5 -71.5t-107.5 -24.5q-97 0 -147 42.5t-50 120.5q0 85 56 126.5t170 41.5h110zM728 316q-1 68 -27.5 100.5t-79.5 32.5q-51 0 -78.5 -33.5t-28.5 -99.5h214zM282 224q-63 0 -86.5 -15.5t-23.5 -56.5q0 -33 20.5 -49.5t62.5 -16.5q55 0 87.5 33t32.5 101v4h-93z
" />
    <glyph glyph-name="ccedilla" unicode="&#xe7;" horiz-adv-x="522" 
d="M237 -226v81h62q25 0 36.5 4.5t11.5 19.5q-1 12 -7.5 17.5t-20.5 6.5h-79v88q-94 16 -143.5 79.5t-49.5 167.5v66q0 118 68.5 186t198.5 68q95 0 165 -37v-120q-74 45 -158 45q-64 0 -98.5 -34.5t-34.5 -103.5v-75q0 -66 35 -101t97 -35q81 0 156 44v-113
q-61 -40 -154 -43v-23h10q110 0 110 -86q0 -46 -31.5 -74t-89.5 -28h-84z" />
    <glyph glyph-name="egrave" unicode="&#xe8;" horiz-adv-x="585" 
d="M357 622h-109l-99 153h120zM186 222q9 -124 147 -124q57 0 100 8.5t94 35.5v-107q-49 -27 -98.5 -38.5t-117.5 -11.5q-127 0 -195.5 65.5t-68.5 187.5v66q0 79 31 136.5t86 87.5t128 30q113 0 180 -63.5t67 -184.5v-88h-353zM400 316q-1 68 -27.5 100.5t-80.5 32.5
q-103 0 -106 -133h214z" />
    <glyph glyph-name="eacute" unicode="&#xe9;" horiz-adv-x="585" 
d="M348 622h-109l88 153h120zM333 98q57 0 100 8.5t94 35.5v-107q-49 -27 -98.5 -38.5t-117.5 -11.5q-127 0 -195.5 65.5t-68.5 187.5v66q0 79 31 136.5t86 87.5t128 30q113 0 180 -63.5t67 -184.5v-88h-353q9 -124 147 -124zM400 316q-1 68 -27.5 100.5t-80.5 32.5
q-103 0 -106 -133h214z" />
    <glyph glyph-name="ecircumflex" unicode="&#xea;" horiz-adv-x="585" 
d="M352 622l-53 86l-58 -86h-109l112 153h111l113 -153h-116zM333 98q57 0 100 8.5t94 35.5v-107q-49 -27 -98.5 -38.5t-117.5 -11.5q-127 0 -195.5 65.5t-68.5 187.5v66q0 79 31 136.5t86 87.5t128 30q113 0 180 -63.5t67 -184.5v-88h-353q9 -124 147 -124zM400 316
q-1 68 -27.5 100.5t-80.5 32.5q-103 0 -106 -133h214z" />
    <glyph glyph-name="edieresis" unicode="&#xeb;" horiz-adv-x="585" 
d="M256 751v-119h-125v119h125zM465 751v-119h-125v119h125zM333 98q57 0 100 8.5t94 35.5v-107q-49 -27 -98.5 -38.5t-117.5 -11.5q-127 0 -195.5 65.5t-68.5 187.5v66q0 79 31 136.5t86 87.5t128 30q113 0 180 -63.5t67 -184.5v-88h-353q9 -124 147 -124zM400 316
q-1 68 -27.5 100.5t-80.5 32.5q-103 0 -106 -133h214z" />
    <glyph glyph-name="igrave" unicode="&#xec;" horiz-adv-x="277" 
d="M192 622h-109l-99 153h120zM207 544v-544h-137v544h137z" />
    <glyph glyph-name="iacute" unicode="&#xed;" horiz-adv-x="277" 
d="M196 622h-109l88 153h120zM207 544v-544h-137v544h137z" />
    <glyph glyph-name="icircumflex" unicode="&#xee;" horiz-adv-x="277" 
d="M192 622l-53 86l-58 -86h-109l112 153h111l113 -153h-116zM207 544v-544h-137v544h137z" />
    <glyph glyph-name="idieresis" unicode="&#xef;" horiz-adv-x="277" 
d="M92 751v-119h-125v119h125zM301 751v-119h-125v119h125zM207 544v-544h-137v544h137z" />
    <glyph glyph-name="eth" unicode="&#xf0;" horiz-adv-x="614" 
d="M371 705q93 -65 142.5 -167.5t49.5 -230.5v-73q0 -79 -34 -135t-92.5 -85t-132.5 -29t-132 29t-91.5 85t-33.5 135v56q0 78 29.5 134.5t82 86.5t121.5 30q33 0 67 -13t64 -42q-34 70 -101 129l-39 -56l-62 41l40 59q-19 12 -47 25l52 81q31 -12 51 -22l42 62l63 -43z
M217 131.5q30 -38.5 87 -38.5q56 0 87 38t31 98v57q0 76 -28 115.5t-89 39.5q-59 0 -88.5 -38t-29.5 -117v-57q0 -59 30 -97.5z" />
    <glyph glyph-name="ntilde" unicode="&#xf1;" horiz-adv-x="632" 
d="M164 728q42 40 80 40q14 0 35.5 -6.5t41.5 -14.5q19 -8 38 -14t32 -6q17 0 35 9t41 25v-90q-15 -17 -36.5 -29t-42.5 -12q-14 0 -35 6.5t-41 14.5q-19 8 -37.5 14t-30.5 6q-17 0 -36.5 -9.5t-43.5 -25.5v92zM207 544v-73q57 87 169 87q94 0 142.5 -56.5t48.5 -162.5v-339
h-137v301q0 68 -28 101t-78 33q-54 0 -85.5 -36t-31.5 -104v-295h-137v544h137z" />
    <glyph glyph-name="ograve" unicode="&#xf2;" horiz-adv-x="609" 
d="M365 622h-109l-99 153h120zM80.5 444q33.5 57 91.5 85.5t132 28.5t132.5 -28.5t92.5 -85.5t34 -140v-66q0 -82 -34 -139t-92.5 -85.5t-132.5 -28.5t-132 28.5t-91.5 85.5t-33.5 139v66q0 83 33.5 140zM217.5 129.5q30.5 -36.5 86.5 -36.5t87 36.5t31 108.5v67
q0 72 -31 108t-87 36t-86.5 -36t-30.5 -108v-67q0 -72 30.5 -108.5z" />
    <glyph glyph-name="oacute" unicode="&#xf3;" horiz-adv-x="609" 
d="M352 622h-109l88 153h120zM80.5 444q33.5 57 91.5 85.5t132 28.5t132.5 -28.5t92.5 -85.5t34 -140v-66q0 -82 -34 -139t-92.5 -85.5t-132.5 -28.5t-132 28.5t-91.5 85.5t-33.5 139v66q0 83 33.5 140zM217.5 129.5q30.5 -36.5 86.5 -36.5t87 36.5t31 108.5v67
q0 72 -31 108t-87 36t-86.5 -36t-30.5 -108v-67q0 -72 30.5 -108.5z" />
    <glyph glyph-name="ocircumflex" unicode="&#xf4;" horiz-adv-x="609" 
d="M356 617l-53 86l-58 -86h-109l112 153h111l113 -153h-116zM80.5 444q33.5 57 91.5 85.5t132 28.5t132.5 -28.5t92.5 -85.5t34 -140v-66q0 -82 -34 -139t-92.5 -85.5t-132.5 -28.5t-132 28.5t-91.5 85.5t-33.5 139v66q0 83 33.5 140zM217.5 129.5q30.5 -36.5 86.5 -36.5
t87 36.5t31 108.5v67q0 72 -31 108t-87 36t-86.5 -36t-30.5 -108v-67q0 -72 30.5 -108.5z" />
    <glyph glyph-name="otilde" unicode="&#xf5;" horiz-adv-x="609" 
d="M150 728q42 40 80 40q14 0 35.5 -6.5t41.5 -14.5q19 -8 38 -14t32 -6q17 0 35 9t41 25v-90q-15 -17 -36.5 -29t-42.5 -12q-14 0 -35 6.5t-41 14.5q-19 8 -37.5 14t-30.5 6q-17 0 -36.5 -9.5t-43.5 -25.5v92zM80.5 444q33.5 57 91.5 85.5t132 28.5t132.5 -28.5t92.5 -85.5
t34 -140v-66q0 -82 -34 -139t-92.5 -85.5t-132.5 -28.5t-132 28.5t-91.5 85.5t-33.5 139v66q0 83 33.5 140zM217.5 129.5q30.5 -36.5 86.5 -36.5t87 36.5t31 108.5v67q0 72 -31 108t-87 36t-86.5 -36t-30.5 -108v-67q0 -72 30.5 -108.5z" />
    <glyph glyph-name="odieresis" unicode="&#xf6;" horiz-adv-x="609" 
d="M261 751v-119h-125v119h125zM470 751v-119h-125v119h125zM80.5 444q33.5 57 91.5 85.5t132 28.5t132.5 -28.5t92.5 -85.5t34 -140v-66q0 -82 -34 -139t-92.5 -85.5t-132.5 -28.5t-132 28.5t-91.5 85.5t-33.5 139v66q0 83 33.5 140zM217.5 129.5q30.5 -36.5 86.5 -36.5
t87 36.5t31 108.5v67q0 72 -31 108t-87 36t-86.5 -36t-30.5 -108v-67q0 -72 30.5 -108.5z" />
    <glyph glyph-name="divide" unicode="&#xf7;" horiz-adv-x="535" 
d="M329 637v-126h-134v126h134zM484 440v-105h-434v105h434zM329 260v-126h-134v126h134z" />
    <glyph glyph-name="oslash" unicode="&#xf8;" horiz-adv-x="609" 
d="M80.5 444q33.5 57 91.5 85.5t132 28.5q81 0 141 -33l25 33h94l-59 -80q58 -68 58 -174v-66q0 -82 -34 -139t-92.5 -85.5t-132.5 -28.5q-80 0 -141 32l-24 -32h-92l58 79q-58 66 -58 174v66q0 83 33.5 140zM193 182l181 246q-28 21 -70 21q-56 0 -86.5 -36t-30.5 -108v-67
q0 -30 6 -56zM234 113q29 -20 70 -20q56 0 87 36.5t31 108.5v67q0 30 -6 54z" />
    <glyph glyph-name="ugrave" unicode="&#xf9;" horiz-adv-x="630" 
d="M378 622h-109l-99 153h120zM422 0v67q-55 -81 -162 -81q-95 0 -144.5 56t-49.5 162v340h137v-307q0 -67 27 -97.5t78 -30.5q54 0 84 36t30 103v296h137v-544h-137z" />
    <glyph glyph-name="uacute" unicode="&#xfa;" horiz-adv-x="630" 
d="M372 622h-109l88 153h120zM422 0v67q-55 -81 -162 -81q-95 0 -144.5 56t-49.5 162v340h137v-307q0 -67 27 -97.5t78 -30.5q54 0 84 36t30 103v296h137v-544h-137z" />
    <glyph glyph-name="ucircumflex" unicode="&#xfb;" horiz-adv-x="630" 
d="M358 622l-53 86l-58 -86h-109l112 153h111l113 -153h-116zM422 0v67q-55 -81 -162 -81q-95 0 -144.5 56t-49.5 162v340h137v-307q0 -67 27 -97.5t78 -30.5q52 0 82.5 34t31.5 98v303h137v-544h-137z" />
    <glyph glyph-name="udieresis" unicode="&#xfc;" horiz-adv-x="630" 
d="M267 751v-119h-125v119h125zM476 751v-119h-125v119h125zM422 0v67q-55 -81 -162 -81q-95 0 -144.5 56t-49.5 162v340h137v-307q0 -67 27 -97.5t78 -30.5q52 0 82.5 34t31.5 98v303h137v-544h-137z" />
    <glyph glyph-name="yacute" unicode="&#xfd;" horiz-adv-x="579" 
d="M357 622h-109l88 153h120zM228 -25l-217 569h145l137 -405l135 405h141l-200 -544l-73 -222h-139z" />
    <glyph glyph-name="thorn" unicode="&#xfe;" horiz-adv-x="631" 
d="M207 755v-274q54 77 156 77q107 0 164 -66t57 -183v-75q0 -123 -56.5 -186t-164.5 -63q-101 0 -156 83v-290h-137v977h137zM207 229q0 -58 34 -97t87 -39q54 0 84 35t30 101v85q0 66 -30.5 100.5t-85.5 34.5q-49 0 -83.5 -35t-35.5 -93v-92z" />
    <glyph glyph-name="ydieresis" unicode="&#xff;" horiz-adv-x="579" 
d="M252 752v-119h-125v119h125zM461 752v-119h-125v119h125zM228 -25l-217 569h145l137 -405l135 405h141l-200 -544l-73 -222h-139z" />
    <glyph glyph-name="dotlessi" unicode="&#x131;" horiz-adv-x="277" 
d="M207 544v-544h-137v544h137z" />
    <glyph glyph-name="Lslash" unicode="&#x141;" horiz-adv-x="562" 
d="M381 550v-114l-137 -78v-238h306v-120h-448v277l-77 -44v113l77 44v365h142v-284z" />
    <glyph glyph-name="lslash" unicode="&#x142;" horiz-adv-x="380" 
d="M33 254v108l74 41v352h137v-275l89 50v-106l-89 -51v-191q0 -47 10.5 -64.5t40.5 -17.5q32 0 50 8v-111q-36 -12 -83 -12q-79 0 -117 38.5t-38 121.5v151z" />
    <glyph glyph-name="OE" unicode="&#x152;" horiz-adv-x="1071" 
d="M525 0v56q-63 -71 -174 -71q-87 0 -154 38t-105.5 114.5t-38.5 186.5v100q0 111 38 188.5t105.5 117t156.5 39.5q111 0 172 -69v55h486v-120h-344v-193h311v-119h-311v-203h355v-120h-497zM237 159q40 -54 127 -54q85 0 122 51t39 151v124q0 105 -38 161.5t-122 56.5
t-126 -56.5t-42 -161.5v-114q0 -104 40 -158z" />
    <glyph glyph-name="oe" unicode="&#x153;" horiz-adv-x="962" 
d="M710 98q57 0 100 8.5t94 35.5v-107q-49 -27 -98.5 -38.5t-117.5 -11.5q-128 0 -197 66q-35 -33 -83 -49.5t-104 -16.5q-74 0 -132 28.5t-91.5 85.5t-33.5 139v66q0 83 33.5 140t91.5 85.5t132 28.5q56 0 104.5 -17t83.5 -50q65 67 177 67q113 0 180 -63.5t67 -184.5v-88
h-353q9 -124 147 -124zM217.5 129.5q30.5 -36.5 86.5 -36.5t87 36.5t31 108.5v67q0 72 -31 108t-87 36t-86.5 -36t-30.5 -108v-67q0 -72 30.5 -108.5zM777 316q-1 68 -27.5 100.5t-80.5 32.5q-103 0 -106 -133h214z" />
    <glyph glyph-name="Scaron" unicode="&#x160;" horiz-adv-x="629" 
d="M269 960l50 -60l50 60h115l-111 -133h-112l-113 133h121zM304 108q67 0 103.5 27.5t36.5 78.5t-28 72.5t-99 29.5l-75 10q-94 13 -142.5 67t-48.5 146q0 75 37 126.5t100 76.5t140 25q66 0 126 -13.5t99 -40.5v-136q-48 33 -105 51.5t-113 18.5q-142 0 -142 -102
q0 -49 25.5 -70t89.5 -29l70 -9q102 -13 155.5 -67t53.5 -148q0 -116 -82.5 -174.5t-210.5 -58.5q-132 0 -234 56v136q116 -73 244 -73z" />
    <glyph glyph-name="scaron" unicode="&#x161;" horiz-adv-x="538" 
d="M215 775l55 -83l56 83h109l-111 -153h-112l-113 153h116zM259 94q50 0 79.5 15.5t29.5 46.5q0 30 -22 44t-65 16l-70 8q-166 16 -166 161q0 58 32 97t84 57.5t111 18.5q58 0 111.5 -11t87.5 -31v-121q-43 25 -95 39.5t-99 14.5q-50 0 -77 -15.5t-27 -44.5q0 -28 22 -39.5
t67 -15.5l67 -6q81 -7 125 -44.5t44 -115.5q0 -63 -35.5 -103.5t-90.5 -59t-117 -18.5q-50 0 -107 11.5t-94 30.5v115q100 -50 205 -50z" />
    <glyph glyph-name="Ydieresis" unicode="&#x178;" horiz-adv-x="643" 
d="M290 956v-119h-124v119h124zM493 956v-119h-124v119h124zM393 0h-142v278l-246 477h154l167 -347l165 347h144l-242 -479v-276z" />
    <glyph glyph-name="Zcaron" unicode="&#x17d;" horiz-adv-x="635" 
d="M276 960l50 -60l50 60h115l-111 -133h-112l-113 133h121zM198 122h393v-122h-549v122l394 511h-390v122h545v-122z" />
    <glyph glyph-name="zcaron" unicode="&#x17e;" horiz-adv-x="533" 
d="M216 775l55 -83l56 83h109l-111 -153h-112l-113 153h116zM208 108h284v-108h-452v94l286 341h-281v109h445v-92z" />
    <glyph glyph-name="florin" unicode="&#x192;" horiz-adv-x="555" 
d="M500 426v-115h-199v-332q0 -97 -49 -155t-154 -58q-40 0 -75.5 8.5t-57.5 20.5v123q24 -14 56.5 -22.5t58.5 -8.5q46 0 65 27t19 74v323h-119v115h119v113q0 69 28.5 121t81.5 80.5t122 28.5q39 0 78 -8.5t63 -20.5v-123q-34 16 -62.5 23.5t-69.5 7.5q-54 0 -79 -25.5
t-25 -97.5v-99h199z" />
    <glyph glyph-name="circumflex" unicode="&#x2c6;" horiz-adv-x="500" 
d="M302 622l-53 86l-58 -86h-109l112 153h111l113 -153h-116z" />
    <glyph glyph-name="caron" unicode="&#x2c7;" horiz-adv-x="563" 
d="M220 775l55 -83l56 83h109l-111 -153h-112l-113 153h116z" />
    <glyph glyph-name="breve" unicode="&#x2d8;" horiz-adv-x="531" 
d="M373 659q-38 -36 -107 -36q-72 0 -109 37t-37 109h98q0 -35 11.5 -50t35.5 -15q21 0 33 14.5t12 50.5h101q0 -74 -38 -110z" />
    <glyph glyph-name="dotaccent" unicode="&#x2d9;" horiz-adv-x="427" 
d="M295 756v-124h-138v124h138z" />
    <glyph glyph-name="ring" unicode="&#x2da;" horiz-adv-x="475" 
d="M164.5 626.5q-32.5 31.5 -32.5 90.5q0 53 33.5 84.5t82.5 31.5t82 -31.5t33 -84.5q0 -59 -32.5 -90.5t-83.5 -31.5q-50 0 -82.5 31.5zM207.5 755q-13.5 -17 -13.5 -48q0 -23 13.5 -38t39.5 -15t39.5 17.5t13.5 47.5q0 23 -13.5 38t-39.5 15t-39.5 -17z" />
    <glyph glyph-name="ogonek" unicode="&#x2db;" horiz-adv-x="442" 
d="M405 4q-46 -17 -63.5 -39.5t-17.5 -49.5q0 -26 14.5 -36.5t47.5 -10.5h35v-94h-62q-60 0 -93.5 30t-33.5 82q0 59 40 100t101 58z" />
    <glyph glyph-name="tilde" unicode="&#x2dc;" horiz-adv-x="491" 
d="M100 728q42 40 80 40q14 0 35.5 -6.5t41.5 -14.5q19 -8 38 -14t32 -6q17 0 35 9t41 25v-90q-15 -17 -36.5 -29t-42.5 -12q-14 0 -35 6.5t-41 14.5q-19 8 -37.5 14t-30.5 6q-17 0 -36.5 -9.5t-43.5 -25.5v92z" />
    <glyph glyph-name="hungarumlaut" unicode="&#x2dd;" horiz-adv-x="574" 
d="M213 637h-109l88 153h120zM384 637h-109l93 153h120z" />
    <glyph glyph-name="pi" unicode="&#x3c0;" horiz-adv-x="627" 
d="M207 437v-437h-137v544h487v-544h-137v437h-213z" />
    <glyph glyph-name="uni060C" unicode="&#x60c;" horiz-adv-x="246" 
d="M51 0l39 257h109l-39 -257h-109z" />
    <glyph glyph-name="uni060D" unicode="&#x60d;" horiz-adv-x="398" 
d="M0 -86l275 809h117l-277 -809h-115z" />
    <glyph glyph-name="uni061B" unicode="&#x61b;" horiz-adv-x="240" 
d="M51 264l39 257h109l-39 -257h-109zM22 74l89 88l90 -88l-90 -90z" />
    <glyph glyph-name="uni061E" unicode="&#x61e;" horiz-adv-x="695" 
d="M41 -77l89 88l90 -88l-90 -90zM264 383l89 88l90 -88l-90 -90zM475 -77l89 88l90 -88l-90 -90z" />
    <glyph glyph-name="uni061F" unicode="&#x61f;" horiz-adv-x="418" 
d="M233 220q0 25 -7 41t-25 31t-56 38q-49 29 -74 57t-35 61.5t-10 83.5q0 100 59 158t167 58q75 0 148 -34v-134q-33 13 -65.5 20t-78.5 7q-75 0 -106.5 -21.5t-31.5 -53.5q0 -26 18 -43t68 -48q6 -3 11 -6t9 -6q53 -33 77 -57t33 -56t9 -90v-39h-110v33zM204 59l80 80
l81 -80l-81 -81z" />
    <glyph glyph-name="uni0621" unicode="&#x621;" horiz-adv-x="434" 
d="M403 172v-143q-196 -25 -379 -39v140l58 6q-21 34 -21 89q0 91 49 143.5t138 52.5q27 0 49.5 -6.5t36 -13.5t16.5 -9v-125q-3 1 -16 5.5t-34.5 8.5t-47.5 4q-51 0 -75.5 -16t-24.5 -50q0 -29 21 -44t75 -15q71 0 155 12z" />
    <glyph glyph-name="uni0622" unicode="&#x622;" horiz-adv-x="253" 
d="M68 698h117v-698h-117v698zM120 772q-27 9 -45 9q-21 0 -35.5 -4t-21.5 -8.5t-8 -5.5v79q12 7 29.5 13t32.5 6q18 0 48 -8q12 -3 27 -6t31 -3q20 0 34.5 3.5t21.5 7l9 4.5v-79q-1 -1 -8.5 -5.5t-22.5 -8.5t-37 -4q-23 0 -55 10z" />
    <glyph glyph-name="uni0623" unicode="&#x623;" horiz-adv-x="253" 
d="M68 698h117v-698h-117v698zM187.5 849q29.5 3 36.5 3v-69q-77 -11 -203 -20v69l25 2q-12 14 -12 40q0 47 29 72.5t72 25.5q19 0 41.5 -7t22.5 -8v-69q-5 2 -24 6.5t-40 4.5q-23 0 -35 -5.5t-12 -21.5t8 -21t32 -5q30 0 59.5 3z" />
    <glyph glyph-name="uni0624" unicode="&#x624;" horiz-adv-x="484" 
d="M393.5 342.5q49.5 -76.5 49.5 -191.5v-41q0 -106 -33 -186.5t-96 -125t-149 -44.5q-56 0 -94.5 13.5t-49.5 27.5v133q16 -9 53 -19t81 -10q98 0 149.5 47t55.5 150l-1 3q-12 -38 -48 -65t-93 -27q-88 0 -130 46.5t-42 131.5q0 64 23.5 117.5t69 85t107.5 31.5
q98 0 147.5 -76.5zM313 157q25 8 34 24q-2 38 -28.5 68t-80.5 30q-47 0 -75.5 -22t-28.5 -55q0 -30 21.5 -41.5t78.5 -11.5q54 0 79 8zM302.5 566q29.5 3 36.5 3v-69q-77 -11 -203 -20v69l25 2q-12 14 -12 40q0 47 29 72.5t72 25.5q19 0 41.5 -7t22.5 -8v-69q-5 2 -24 6.5
t-40 4.5q-23 0 -35 -5.5t-12 -21.5t8 -21t32 -5q30 0 59.5 3z" />
    <glyph glyph-name="uni0625" unicode="&#x625;" horiz-adv-x="253" 
d="M68 743h117v-743h-117v743zM192.5 -190q29.5 3 36.5 3v-69q-77 -11 -203 -20v69l25 2q-12 14 -12 40q0 47 29 72.5t72 25.5q19 0 41.5 -7t22.5 -8v-69q-5 2 -24 6.5t-40 4.5q-23 0 -35 -5.5t-12 -21.5t8 -21t32 -5q30 0 59.5 3z" />
    <glyph glyph-name="uni0626" unicode="&#x626;" horiz-adv-x="781" 
d="M671.5 482.5q22.5 -5.5 34 -11t14.5 -7.5l-1 -138q-4 2 -19 6.5t-41 9t-57 4.5q-44 0 -83.5 -12t-63.5 -31t-24 -41q0 -24 26 -35.5t98 -28.5q23 -4 51 -12q69 -17 101.5 -58t32.5 -113q0 -118 -92.5 -185.5t-271.5 -67.5t-263.5 76t-84.5 237q0 45 8.5 89t17.5 72.5
t12 35.5h110q-3 -8 -12 -36t-17 -68t-8 -76q0 -67 24 -105.5t77.5 -56t146.5 -17.5q130 0 195.5 25t65.5 69q0 15 -12 24t-39.5 16t-88.5 19q-67 13 -103.5 36t-51 58.5t-14.5 90.5q0 62 38 116.5t102.5 87.5t139.5 33q30 0 52.5 -5.5zM181.5 423q29.5 3 36.5 3v-69
q-77 -11 -203 -20v69l25 2q-12 14 -12 40q0 47 29 72.5t72 25.5q19 0 41.5 -7t22.5 -8v-69q-5 2 -24 6.5t-40 4.5q-23 0 -35 -5.5t-12 -21.5t8 -21t32 -5q30 0 59.5 3z" />
    <glyph glyph-name="uni0627" unicode="&#x627;" horiz-adv-x="253" 
d="M68 743h117v-743h-117v743z" />
    <glyph glyph-name="uni0628" unicode="&#x628;" horiz-adv-x="873" 
d="M795 110q-37 -58 -126 -84t-253 -26q-154 0 -237 24t-117 78t-34 152q0 36 5 67.5t10 50.5t7 24h106q-2 -4 -7 -20t-9.5 -41t-4.5 -52q0 -54 24.5 -81.5t86.5 -38.5t183 -11t183 10.5t86.5 36.5t24.5 77q0 59 -13 140h107q15 -77 15 -144q0 -104 -37 -162zM349 -149
l81 79l82 -79l-82 -80z" />
    <glyph glyph-name="uni0629" unicode="&#x629;" horiz-adv-x="486" 
d="M77.5 50q49.5 -50 154.5 -50q109 0 161 50t52 155q0 127 -54.5 198t-152.5 71q-99 0 -154.5 -71t-55.5 -198q0 -105 49.5 -155zM153.5 301q29.5 30 82.5 30t82.5 -30t29.5 -85q0 -35 -24.5 -49.5t-87.5 -14.5q-62 0 -87 14.5t-25 49.5q0 55 29.5 85zM299 546l-62 63
l-63 -63l-73 74l73 73l63 -62l62 62l73 -73z" />
    <glyph glyph-name="uni062A" unicode="&#x62a;" horiz-adv-x="873" 
d="M795 110q-37 -58 -126 -84t-253 -26q-154 0 -237 24t-117 78t-34 152q0 36 5 67.5t10 50.5t7 24h106q-2 -4 -7 -20t-9.5 -41t-4.5 -52q0 -54 24.5 -81.5t86.5 -38.5t183 -11t183 10.5t86.5 36.5t24.5 77q0 59 -13 140h107q15 -77 15 -144q0 -104 -37 -162zM487 416
l-62 63l-63 -63l-73 74l73 73l63 -62l62 62l73 -73z" />
    <glyph glyph-name="uni062B" unicode="&#x62b;" horiz-adv-x="873" 
d="M795 110q-37 -58 -126 -84t-253 -26q-154 0 -237 24t-117 78t-34 152q0 36 5 67.5t10 50.5t7 24h106q-2 -4 -7 -20t-9.5 -41t-4.5 -52q0 -54 24.5 -81.5t86.5 -38.5t183 -11t183 10.5t86.5 36.5t24.5 77q0 59 -13 140h107q15 -77 15 -144q0 -104 -37 -162zM426 539
l-65 66l65 65l67 -65zM487 415l-62 62l-62 -62l-72 74l72 73l62 -61l62 61l73 -73z" />
    <glyph glyph-name="uni062C" unicode="&#x62c;" horiz-adv-x="656" 
d="M329 116q-104 -41 -154 -83.5t-50 -99.5q0 -70 53 -103t171 -33q80 0 143 10.5t102.5 23t39.5 14.5l1 -142q-62 -25 -71 -28t-74 -15t-152 -12q-310 0 -310 277v9q0 85 44 146t136 107t247 91q-79 23 -140.5 36.5t-109.5 13.5q-40 0 -73 -11t-54.5 -24t-21.5 -14v136
q0 2 19 15.5t53 25.5t81 12t92.5 -11.5t116.5 -36.5q68 -25 120 -39t109 -19l-10 -140q-204 -65 -308 -106zM293 -28l81 79l82 -79l-82 -80z" />
    <glyph glyph-name="uni062D" unicode="&#x62d;" horiz-adv-x="656" 
d="M329 116q-104 -41 -154 -83.5t-50 -99.5q0 -70 53 -103t171 -33q80 0 143 10.5t102.5 23t39.5 14.5l1 -142q-62 -25 -71 -28t-74 -15t-152 -12q-310 0 -310 277v9q0 85 44 146t136 107t247 91q-79 23 -140.5 36.5t-109.5 13.5q-40 0 -73 -11t-54.5 -24t-21.5 -14v136
q0 2 19 15.5t53 25.5t81 12t92.5 -11.5t116.5 -36.5q68 -25 120 -39t109 -19l-10 -140q-204 -65 -308 -106z" />
    <glyph glyph-name="uni062E" unicode="&#x62e;" horiz-adv-x="656" 
d="M329 116q-104 -41 -154 -83.5t-50 -99.5q0 -70 53 -103t171 -33q80 0 143 10.5t102.5 23t39.5 14.5l1 -142q-62 -25 -71 -28t-74 -15t-152 -12q-310 0 -310 277v9q0 85 44 146t136 107t247 91q-79 23 -140.5 36.5t-109.5 13.5q-40 0 -73 -11t-54.5 -24t-21.5 -14v136
q0 2 19 15.5t53 25.5t81 12t92.5 -11.5t116.5 -36.5q68 -25 120 -39t109 -19l-10 -140q-204 -65 -308 -106zM259 643l81 78l81 -78l-81 -80z" />
    <glyph glyph-name="uni062F" unicode="&#x62f;" horiz-adv-x="491" 
d="M106 3.5q-37 7.5 -57.5 16.5t-20.5 10l1 146q19 -9 63.5 -17.5t114.5 -8.5q76 0 111 14.5t35 48.5q0 46 -49 86.5t-170 96.5l50 134q141 -61 203.5 -139.5t62.5 -176.5q0 -111 -63 -164.5t-192 -53.5q-52 0 -89 7.5z" />
    <glyph glyph-name="uni0630" unicode="&#x630;" horiz-adv-x="491" 
d="M106 3.5q-37 7.5 -57.5 16.5t-20.5 10l1 146q19 -9 63.5 -17.5t114.5 -8.5q76 0 111 14.5t35 48.5q0 46 -49 86.5t-170 96.5l50 134q141 -61 203.5 -139.5t62.5 -176.5q0 -111 -63 -164.5t-192 -53.5q-52 0 -89 7.5zM148 684l81 78l81 -78l-81 -80z" />
    <glyph glyph-name="uni0631" unicode="&#x631;" horiz-adv-x="325" 
d="M252 -69q-32 -82 -89 -128t-130 -46q-30 0 -51.5 5.5t-32.5 11.5t-13 8v140q35 -14 85 -14q69 0 112 55t43 155q0 56 -7 102.5t-21 100.5h110q26 -85 26 -204q0 -104 -32 -186z" />
    <glyph glyph-name="uni0632" unicode="&#x632;" horiz-adv-x="325" 
d="M252 -69q-32 -82 -89 -128t-130 -46q-30 0 -51.5 5.5t-32.5 11.5t-13 8v140q35 -14 85 -14q69 0 112 55t43 155q0 56 -7 102.5t-21 100.5h110q26 -85 26 -204q0 -104 -32 -186zM123 483l81 78l81 -78l-81 -80z" />
    <glyph glyph-name="uni0633" unicode="&#x633;" horiz-adv-x="1234" 
d="M1185.5 302q7.5 -41 7.5 -86q0 -107 -47.5 -161.5t-131.5 -54.5q-55 0 -88.5 19.5t-47.5 60.5q-14 -39 -50 -59.5t-91 -20.5q-61 0 -88 24q-14 -127 -91.5 -189.5t-224.5 -62.5q-161 0 -233 73t-72 234q0 53 9 98t20 76.5t11 28.5h110q-3 -7 -12.5 -34.5t-18 -70
t-8.5 -85.5q0 -63 19.5 -99.5t64 -53t121.5 -16.5q75 0 119 18t63 55.5t19 98.5q-1 53 -7 101t-20 135h112q7 -41 18 -118q6 -37 24.5 -49t67.5 -12q51 0 71 17.5t20 62.5v99h107v-100q0 -44 16.5 -61.5t58.5 -17.5q40 0 56 17.5t16 60.5q0 23 -4.5 51.5t-9 50t-6.5 27.5
h106q7 -16 14.5 -57z" />
    <glyph glyph-name="uni0634" unicode="&#x634;" horiz-adv-x="1234" 
d="M1185.5 302q7.5 -41 7.5 -86q0 -107 -47.5 -161.5t-131.5 -54.5q-55 0 -88.5 19.5t-47.5 60.5q-14 -39 -50 -59.5t-91 -20.5q-61 0 -88 24q-14 -127 -91.5 -189.5t-224.5 -62.5q-161 0 -233 73t-72 234q0 53 9 98t20 76.5t11 28.5h110q-3 -7 -12.5 -34.5t-18 -70
t-8.5 -85.5q0 -63 19.5 -99.5t64 -53t121.5 -16.5q75 0 119 18t63 55.5t19 98.5q-1 53 -7 101t-20 135h112q7 -41 18 -118q6 -37 24.5 -49t67.5 -12q51 0 71 17.5t20 62.5v99h107v-100q0 -44 16.5 -61.5t58.5 -17.5q40 0 56 17.5t16 60.5q0 23 -4.5 51.5t-9 50t-6.5 27.5
h106q7 -16 14.5 -57zM885 525l-65 66l65 65l67 -65zM946 401l-62 62l-62 -62l-72 74l72 73l62 -61l62 61l73 -73z" />
    <glyph glyph-name="uni0635" unicode="&#x635;" horiz-adv-x="1332" 
d="M1184.5 449q50.5 -33 78.5 -92.5t28 -137.5q0 -108 -62.5 -163.5t-185.5 -55.5h-283q-78 0 -111 33q-12 -131 -89.5 -196t-226.5 -65q-161 0 -233 73t-72 234q0 53 9 98t20 76.5t11 28.5h110q-3 -7 -12.5 -34.5t-18 -70t-8.5 -85.5q0 -63 19.5 -99.5t64 -53t121.5 -16.5
q75 0 119 18t63 55.5t19 98.5q-1 51 -7 98.5t-20 131.5h112q6 -34 18 -112q4 -23 11 -35.5t23 -18.5q71 119 132.5 189.5t122 102t130.5 31.5q67 0 117.5 -33zM1162 167q31 15 31 55q0 49 -36 83t-97 34q-82 0 -150 -45t-134 -142h275q80 0 111 15z" />
    <glyph glyph-name="uni0636" unicode="&#x636;" horiz-adv-x="1332" 
d="M1184.5 449q50.5 -33 78.5 -92.5t28 -137.5q0 -108 -62.5 -163.5t-185.5 -55.5h-283q-78 0 -111 33q-12 -131 -89.5 -196t-226.5 -65q-161 0 -233 73t-72 234q0 53 9 98t20 76.5t11 28.5h110q-3 -7 -12.5 -34.5t-18 -70t-8.5 -85.5q0 -63 19.5 -99.5t64 -53t121.5 -16.5
q75 0 119 18t63 55.5t19 98.5q-1 51 -7 98.5t-20 131.5h112q6 -34 18 -112q4 -23 11 -35.5t23 -18.5q71 119 132.5 189.5t122 102t130.5 31.5q67 0 117.5 -33zM1162 167q31 15 31 55q0 49 -36 83t-97 34q-82 0 -150 -45t-134 -142h275q80 0 111 15zM990 640l81 78l81 -78
l-81 -80z" />
    <glyph glyph-name="uni0637" unicode="&#x637;" horiz-adv-x="764" 
d="M662.5 410.5q60.5 -71.5 60.5 -191.5q0 -110 -61 -164.5t-187 -54.5h-214q-107 0 -160.5 8.5t-90.5 25.5v147q39 -17 102 -24q30 50 46 74v512h118v-289q0 -45 -25 -97q59 67 117.5 96t127.5 29q106 0 166.5 -71.5zM591 166q34 14 34 56q0 50 -35.5 83.5t-97.5 33.5
q-87 0 -151.5 -42.5t-132.5 -144.5h50h225q74 0 108 14z" />
    <glyph glyph-name="uni0638" unicode="&#x638;" horiz-adv-x="764" 
d="M662.5 410.5q60.5 -71.5 60.5 -191.5q0 -110 -61 -164.5t-187 -54.5h-214q-107 0 -160.5 8.5t-90.5 25.5v147q39 -17 102 -24q30 50 46 74v512h118v-289q0 -45 -25 -97q59 67 117.5 96t127.5 29q106 0 166.5 -71.5zM591 166q34 14 34 56q0 50 -35.5 83.5t-97.5 33.5
q-87 0 -151.5 -42.5t-132.5 -144.5h50h225q74 0 108 14zM409 639l81 78l81 -78l-81 -80z" />
    <glyph glyph-name="uni0639" unicode="&#x639;" horiz-adv-x="563" 
d="M583 -306q-1 0 -27 -11.5t-93.5 -23t-144.5 -11.5q-147 0 -218.5 64t-71.5 191q0 87 38 146.5t129 106.5q-53 13 -86 58t-33 121q0 116 60 176.5t169 60.5q34 0 64 -8.5t50 -19t20 -11.5l-1 -135q-5 3 -24.5 11t-51 16t-64.5 8q-59 0 -94 -25.5t-35 -70.5q0 -97 149 -97
q47 0 191 27v-146q-163 -35 -248 -70t-112.5 -67.5t-27.5 -70.5q0 -58 50 -85.5t157 -27.5q74 0 130.5 8.5t90 19t33.5 11.5z" />
    <glyph glyph-name="uni063A" unicode="&#x63a;" horiz-adv-x="563" 
d="M583 -306q-1 0 -27 -11.5t-93.5 -23t-144.5 -11.5q-147 0 -218.5 64t-71.5 191q0 87 38 146.5t129 106.5q-53 13 -86 58t-33 121q0 116 60 176.5t169 60.5q34 0 64 -8.5t50 -19t20 -11.5l-1 -135q-5 3 -24.5 11t-51 16t-64.5 8q-59 0 -94 -25.5t-35 -70.5q0 -97 149 -97
q47 0 191 27v-146q-163 -35 -248 -70t-112.5 -67.5t-27.5 -70.5q0 -58 50 -85.5t157 -27.5q74 0 130.5 8.5t90 19t33.5 11.5zM207 731l81 78l81 -78l-81 -80z" />
    <glyph glyph-name="uni0640" unicode="&#x640;" horiz-adv-x="290" 
d="M-17 149l17 3h290l17 -3v-146l-17 -3h-290l-17 3v146z" />
    <glyph glyph-name="uni0641" unicode="&#x641;" horiz-adv-x="902" 
d="M814 515q47 -72 47 -183v-48q0 -112 -36.5 -172t-127 -86t-263.5 -26q-153 0 -240.5 25.5t-126.5 83t-39 156.5q0 36 4.5 70.5t9.5 57t7 28.5h108q-1 -5 -5.5 -24t-8.5 -47t-4 -55q0 -54 28.5 -85t93 -44.5t176.5 -13.5q131 0 200.5 8.5t99 30t29.5 62.5v28
q-31 -64 -125 -64q-80 0 -119 41t-39 116q0 58 22.5 107t65.5 77.5t102 28.5q94 0 141 -72zM732 333q25 5 34 17q0 38 -24.5 67.5t-77.5 29.5q-42 0 -67.5 -19.5t-25.5 -49.5q0 -28 19.5 -39t70.5 -11q46 0 71 5zM592 743l81 78l81 -78l-81 -80z" />
    <glyph glyph-name="uni0642" unicode="&#x642;" horiz-adv-x="772" 
d="M681.5 341.5q49.5 -77.5 49.5 -195.5v-43q0 -118 -35 -191.5t-114 -109t-212 -35.5q-127 0 -201.5 32.5t-107.5 101t-33 179.5q0 49 8 94.5t16.5 74.5t11.5 36h112q-3 -8 -12 -35.5t-17 -67t-8 -75.5q0 -71 22.5 -111.5t75 -58.5t146.5 -18q103 0 157.5 17t75 53
t20.5 102v15q-29 -90 -136 -90q-83 0 -124 46t-41 127q0 63 23.5 115.5t69 83.5t107.5 31q97 0 146.5 -77.5zM600 159q25 7 35 21q-1 38 -27 68.5t-81 30.5q-47 0 -75.5 -22t-28.5 -55q0 -28 21.5 -39t78.5 -11q52 0 77 7zM592 491l-62 63l-63 -63l-73 74l73 73l63 -62
l62 62l73 -73z" />
    <glyph glyph-name="uni0643" unicode="&#x643;" horiz-adv-x="848" 
d="M779 256q0 -97 -36.5 -152t-121 -79.5t-234.5 -24.5q-140 0 -217 24t-109.5 78.5t-32.5 151.5q0 34 4.5 63.5t9 47t6.5 22.5h106q-2 -4 -6.5 -18.5t-8.5 -38t-4 -47.5q0 -54 22 -81.5t77 -38.5t163 -11q109 0 165 7t78.5 24.5t22.5 51.5v508h116v-487zM517 556
q-75 -22 -100 -32t-25 -18q0 -4 10 -7.5t32 -7.5q-3 1 21 -5q42 -9 59 -28.5t17 -57.5q0 -52 -34.5 -78t-113.5 -26q-35 0 -56 3t-41 11v84q18 -6 39 -8t57 -2q49 0 69 3.5t20 11.5q0 5 -10 8.5t-36 9.5q-7 2 -16 4t-20 5q-32 8 -45 27t-13 53q0 43 41 73t145 62v-85z" />
    <glyph glyph-name="uni0644" unicode="&#x644;" horiz-adv-x="661" 
d="M593 118q0 -155 -72.5 -235.5t-218.5 -80.5q-141 0 -207.5 69.5t-66.5 219.5q0 52 9 96t20 75t11 28h110q-3 -7 -12.5 -34t-18 -65.5t-8.5 -74.5q0 -90 38.5 -126t132.5 -36q63 0 99 16.5t51.5 51.5t15.5 94v627h117v-625z" />
    <glyph glyph-name="uni0645" unicode="&#x645;" horiz-adv-x="590" 
d="M494.5 372q51.5 -58 54.5 -166q0 -107 -57 -156.5t-161 -49.5h-141q-24 -1 -34.5 -3t-14 -8.5t-3.5 -21.5l1 -299h-113v328q0 80 37.5 116.5t107.5 39.5q-14 28 -14 66q0 60 26 108.5t72.5 76t104.5 27.5q83 0 134.5 -58zM433.5 163.5q23.5 11.5 23.5 41.5
q-1 39 -30.5 59.5t-72.5 20.5q-45 0 -75 -23t-30 -64q0 -28 13 -46h85q63 0 86.5 11.5z" />
    <glyph glyph-name="uni0646" unicode="&#x646;" horiz-adv-x="694" 
d="M533 259.5q-9 58.5 -29 132.5h113q35 -122 35 -253q0 -160 -77 -238.5t-242 -78.5q-161 0 -233 74t-72 237q0 52 9 96t20 75t11 28h110q-3 -7 -12.5 -34.5t-18 -70t-8.5 -85.5q0 -63 19.5 -99.5t64 -53t121.5 -16.5q109 0 153.5 39.5t44.5 129.5q0 59 -9 117.5zM250 533
l81 78l81 -78l-81 -80z" />
    <glyph glyph-name="uni0647" unicode="&#x647;" horiz-adv-x="486" 
d="M77.5 50q49.5 -50 154.5 -50q109 0 161 50t52 155q0 127 -54.5 198t-152.5 71q-99 0 -154.5 -71t-55.5 -198q0 -105 49.5 -155zM153.5 301q29.5 30 82.5 30t82.5 -30t29.5 -85q0 -35 -24.5 -49.5t-87.5 -14.5q-62 0 -87 14.5t-25 49.5q0 55 29.5 85z" />
    <glyph glyph-name="uni0648" unicode="&#x648;" horiz-adv-x="484" 
d="M393.5 342.5q49.5 -76.5 49.5 -191.5v-41q0 -106 -33 -186.5t-96 -125t-149 -44.5q-56 0 -94.5 13.5t-49.5 27.5v133q16 -9 53 -19t81 -10q98 0 149.5 47t55.5 150l-1 3q-12 -38 -48 -65t-93 -27q-88 0 -130 46.5t-42 131.5q0 64 23.5 117.5t69 85t107.5 31.5
q98 0 147.5 -76.5zM313 157q25 8 34 24q-2 38 -28.5 68t-80.5 30q-47 0 -75.5 -22t-28.5 -55q0 -30 21.5 -41.5t78.5 -11.5q54 0 79 8z" />
    <glyph glyph-name="uni0649" unicode="&#x649;" horiz-adv-x="781" 
d="M671.5 482.5q22.5 -5.5 34 -11t14.5 -7.5l-1 -138q-4 2 -19 6.5t-41 9t-57 4.5q-44 0 -83.5 -12t-63.5 -31t-24 -41q0 -24 26 -35.5t98 -28.5q23 -4 51 -12q69 -17 101.5 -58t32.5 -113q0 -118 -92.5 -185.5t-271.5 -67.5t-263.5 76t-84.5 237q0 45 8.5 89t17.5 72.5
t12 35.5h110q-3 -8 -12 -36t-17 -68t-8 -76q0 -67 24 -105.5t77.5 -56t146.5 -17.5q130 0 195.5 25t65.5 69q0 15 -12 24t-39.5 16t-88.5 19q-67 13 -103.5 36t-51 58.5t-14.5 90.5q0 62 38 116.5t102.5 87.5t139.5 33q30 0 52.5 -5.5z" />
    <glyph glyph-name="uni064A" unicode="&#x64a;" horiz-adv-x="781" 
d="M671.5 482.5q22.5 -5.5 34 -11t14.5 -7.5l-1 -138q-4 2 -19 6.5t-41 9t-57 4.5q-44 0 -83.5 -12t-63.5 -31t-24 -41q0 -24 26 -35.5t98 -28.5q23 -4 51 -12q69 -17 101.5 -58t32.5 -113q0 -118 -92.5 -185.5t-271.5 -67.5t-263.5 76t-84.5 237q0 45 8.5 89t17.5 72.5
t12 35.5h110q-3 -8 -12 -36t-17 -68t-8 -76q0 -67 24 -105.5t77.5 -56t146.5 -17.5q130 0 195.5 25t65.5 69q0 15 -12 24t-39.5 16t-88.5 19q-67 13 -103.5 36t-51 58.5t-14.5 90.5q0 62 38 116.5t102.5 87.5t139.5 33q30 0 52.5 -5.5zM435 -445l-61 61l-61 -61l-70 72
l70 71l61 -60l61 60l71 -71z" />
    <glyph glyph-name="uni064B" unicode="&#x64b;" 
d="M-1 549l233 15v-59l-233 -17v61zM-1 645l233 15v-59l-233 -17v61z" />
    <glyph glyph-name="uni064C" unicode="&#x64c;" 
d="M285 726.5q19 -27.5 19 -75.5q0 -133 -119 -133q-52 0 -78.5 20t-26.5 69q0 10 -2 13.5t-7 3.5q-9 0 -16.5 -1t-10.5 -1l3 51q3 1 14 4t25 3q19 0 27.5 -6.5t8.5 -30.5q0 -27 3.5 -39.5t17.5 -19t47 -6.5q36 0 51 9t18 33q-16 -14 -48 -14t-49 13.5t-17 45.5
q0 43 21.5 66t58.5 23q41 0 60 -27.5zM193.5 658.5q6.5 -4.5 25.5 -4.5q31 0 42 5q-2 20 -11 29.5t-29 9.5q-34 0 -34 -26q0 -9 6.5 -13.5z" />
    <glyph glyph-name="uni064D" unicode="&#x64d;" 
d="M19 -359l233 15v-59l-233 -17v61zM18 -262l233 15v-59l-233 -17v61z" />
    <glyph glyph-name="uni064E" unicode="&#x64e;" 
d="M-7 478l233 15v-59l-233 -17v61z" />
    <glyph glyph-name="uni064F" unicode="&#x64f;" 
d="M235 397q0 -47 -16.5 -73t-51 -37.5t-93.5 -14.5v53q51 5 72.5 8.5t31.5 10.5t13 23q-15 -15 -47 -15q-31 0 -47.5 13.5t-16.5 45.5q0 42 20.5 64t58.5 22q76 0 76 -100zM191 405q-2 19 -9.5 27.5t-25.5 8.5q-17 0 -26 -6.5t-9 -16.5t6.5 -14t25.5 -4q27 0 38 5z" />
    <glyph glyph-name="uni0650" unicode="&#x650;" 
d="M1 93l233 15v-59l-233 -17v61z" />
    <glyph glyph-name="uni0651" unicode="&#x651;" 
d="M263 595q2 -19 2 -37q0 -43 -16 -70.5t-64 -27.5q-40 0 -54 30q-15 -30 -53 -30q-32 0 -49.5 18t-17.5 67q0 17 3 33.5t5.5 26t3.5 12.5h52q-2 -6 -7.5 -25.5t-5.5 -35.5t5.5 -22t19.5 -6q25 0 25 20v45h52v-43q0 -14 6 -18t20 -4t19 9t5 26q0 16 -2 32.5t-3 21.5l51 3
q1 -6 3 -25z" />
    <glyph glyph-name="uni0652" unicode="&#x652;" 
d="M68.5 458.5q-19.5 20.5 -19.5 66.5q0 36 19 60.5t60 24.5q80 0 80 -84q0 -42 -20 -65t-62 -23q-38 0 -57.5 20.5zM154 508.5q8 5.5 8 17.5q0 14 -8.5 19.5t-25.5 5.5q-23 0 -30 -6.5t-7 -19.5q0 -12 7.5 -17t27.5 -5t28 5.5z" />
    <glyph glyph-name="uni0653" unicode="&#x653;" 
d="M107 450q-27 9 -45 9q-21 0 -35.5 -4t-21.5 -8.5t-8 -5.5v79q12 7 29.5 13t32.5 6q18 0 48 -8q12 -3 27 -6t31 -3q20 0 34.5 3.5t21.5 7l9 4.5v-79q-1 -1 -8.5 -5.5t-22.5 -8.5t-37 -4q-23 0 -55 10z" />
    <glyph glyph-name="uni0654" unicode="&#x654;" 
d="M181.5 485q29.5 3 36.5 3v-69q-77 -11 -203 -20v69l25 2q-12 14 -12 40q0 47 29 72.5t72 25.5q19 0 41.5 -7t22.5 -8v-69q-5 2 -24 6.5t-40 4.5q-23 0 -35 -5.5t-12 -21.5t8 -21t32 -5q30 0 59.5 3z" />
    <glyph glyph-name="uni0655" unicode="&#x655;" 
d="M181.5 101q29.5 3 36.5 3v-69q-77 -11 -203 -20v69l25 2q-12 14 -12 40q0 47 29 72.5t72 25.5q19 0 41.5 -7t22.5 -8v-69q-5 2 -24 6.5t-40 4.5q-23 0 -35 -5.5t-12 -21.5t8 -21t32 -5q30 0 59.5 3z" />
    <glyph glyph-name="uni0656" unicode="&#x656;" 
d="M29 120h62v-145h-62v145z" />
    <glyph glyph-name="uni0657" unicode="&#x657;" 
d="M151.5 659.5q-21.5 -3.5 -31.5 -10.5t-13 -23q15 15 47 15q31 0 47.5 -13.5t16.5 -45.5q0 -42 -20.5 -64t-58.5 -22q-76 0 -76 100q0 47 16.5 73t51 37.5t93.5 14.5v-53q-51 -5 -72.5 -8.5zM107 588q2 -19 9.5 -27.5t25.5 -8.5q17 0 26 6.5t9 16.5t-6.5 14t-25.5 4
q-27 0 -38 -5z" />
    <glyph glyph-name="uni0660" unicode="&#x660;" horiz-adv-x="314" 
d="M47 250l110 109l111 -109l-111 -111z" />
    <glyph glyph-name="uni0661" unicode="&#x661;" horiz-adv-x="249" 
d="M69 623h111v-623h-111v623z" />
    <glyph glyph-name="uni0662" unicode="&#x662;" horiz-adv-x="443" 
d="M99 187q-26 130 -34.5 179.5t-8.5 81.5q0 82 60 130t167 48q69 0 129 -21v-137q-38 11 -67 15.5t-65 4.5q-115 0 -115 -56q0 -24 8.5 -66.5t41.5 -196.5l36 -169h-115z" />
    <glyph glyph-name="uni0663" unicode="&#x663;" horiz-adv-x="615" 
d="M572 599q4 -18 8 -46.5t4 -50.5q0 -90 -38 -141.5t-104 -51.5q-36 0 -61 16t-37 46q-22 -62 -92 -62q-20 0 -34 6l53 -314l-114 -1l-101 623h110l19 -111v2q6 -36 16.5 -49t41.5 -13q29 0 41 13t12 48v71h88l1 -71q0 -34 10.5 -47.5t36.5 -13.5q27 0 39.5 14.5t12.5 45.5
q0 28 -6.5 64t-9.5 47h99q1 -6 5 -24z" />
    <glyph glyph-name="uni0664" unicode="&#x664;" horiz-adv-x="500" 
d="M351 146.5q41 3.5 68.5 7.5t34.5 5v-135q-25 -10 -75 -17t-115 -7q-78 0 -123 17t-65 53.5t-20 98.5q0 49 23 83t72 57q-80 28 -80 114q0 58 29.5 96.5t101.5 64.5t201 42v-130q-98 -14 -147 -24t-69 -22.5t-20 -31.5q0 -18 15 -27t57 -12.5t127 -3.5v-105
q-118 -17 -166 -36t-48 -48q0 -23 24.5 -33t93.5 -10q40 0 81 3.5z" />
    <glyph glyph-name="uni0665" unicode="&#x665;" horiz-adv-x="524" 
d="M134.5 20q-47.5 23 -68.5 72t-21 130q0 148 58 231t161 83q101 0 157.5 -83t56.5 -231q0 -81 -20.5 -130t-67 -72t-126.5 -23q-82 0 -129.5 23zM339 148q26 8 36.5 26.5t10.5 51.5q0 79 -32 123t-90 44q-63 0 -94.5 -41.5t-31.5 -125.5q0 -33 10.5 -51.5t37.5 -26.5
t78 -8q49 0 75 8z" />
    <glyph glyph-name="uni0666" unicode="&#x666;" horiz-adv-x="441" 
d="M278 0q-2 32 -12 293l-8 210q-33 -35 -118 -35q-32 0 -55.5 3t-36 6t-15.5 4l-2 139q3 -1 18 -3.5t42.5 -5t64.5 -2.5q53 0 98.5 3.5t72 7t33.5 4.5l24 -624h-106z" />
    <glyph glyph-name="uni0667" unicode="&#x667;" horiz-adv-x="540" 
d="M517 623l-180 -623h-133l-181 623h113l137 -491l131 491h113z" />
    <glyph glyph-name="uni0668" unicode="&#x668;" horiz-adv-x="540" 
d="M404 0l-131 491l-137 -491h-113l181 623h133l180 -623h-113z" />
    <glyph glyph-name="uni0669" unicode="&#x669;" horiz-adv-x="490" 
d="M321 0l-11 321q-13 -31 -44.5 -52t-83.5 -21q-83 0 -117 50t-34 123q0 59 22.5 106.5t65 75t100.5 27.5q98 0 142 -64t50 -183l16 -382zM306 407q-7 49 -30 72.5t-68 23.5q-44 0 -67.5 -20t-23.5 -51q0 -26 19.5 -36t63.5 -10q66 0 106 21z" />
    <glyph glyph-name="uni066A" unicode="&#x66a;" horiz-adv-x="689" 
d="M578 661l-372 -661h-128l373 661h127zM16 477l110 109l111 -109l-111 -111zM425 180l110 109l111 -109l-111 -111z" />
    <glyph glyph-name="uni066B" unicode="&#x66b;" horiz-adv-x="286" 
d="M69 0l39 257h109l-39 -257h-109z" />
    <glyph glyph-name="uni066C" unicode="&#x66c;" horiz-adv-x="286" 
d="M69 0l39 257h109l-39 -257h-109z" />
    <glyph glyph-name="uni066D" unicode="&#x66d;" horiz-adv-x="440" 
d="M159 482l-125 80l149 -5l36 140l39 -140l149 5l-126 -80l55 -140l-117 94l-115 -94z" />
    <glyph glyph-name="uni066E" unicode="&#x66e;" horiz-adv-x="873" 
d="M795 110q-37 -58 -126 -84t-253 -26q-154 0 -237 24t-117 78t-34 152q0 36 5 67.5t10 50.5t7 24h106q-2 -4 -7 -20t-9.5 -41t-4.5 -52q0 -54 24.5 -81.5t86.5 -38.5t183 -11t183 10.5t86.5 36.5t24.5 77q0 59 -13 140h107q15 -77 15 -144q0 -104 -37 -162z" />
    <glyph glyph-name="uni066F" unicode="&#x66f;" horiz-adv-x="772" 
d="M681.5 341.5q49.5 -77.5 49.5 -195.5v-43q0 -118 -35 -191.5t-114 -109t-212 -35.5q-127 0 -201.5 32.5t-107.5 101t-33 179.5q0 49 8 94.5t16.5 74.5t11.5 36h112q-3 -8 -12 -35.5t-17 -67t-8 -75.5q0 -71 22.5 -111.5t75 -58.5t146.5 -18q103 0 157.5 17t75 53
t20.5 102v15q-29 -90 -136 -90q-83 0 -124 46t-41 127q0 63 23.5 115.5t69 83.5t107.5 31q97 0 146.5 -77.5zM600 159q25 7 35 21q-1 38 -27 68.5t-81 30.5q-47 0 -75.5 -22t-28.5 -55q0 -28 21.5 -39t78.5 -11q52 0 77 7z" />
    <glyph glyph-name="uni0670" unicode="&#x670;" 
d="M29 939h62v-145h-62v145z" />
    <glyph glyph-name="uni067E" unicode="&#x67e;" horiz-adv-x="873" 
d="M795 110q-37 -58 -126 -84t-253 -26q-154 0 -237 24t-117 78t-34 152q0 36 5 67.5t10 50.5t7 24h106q-2 -4 -7 -20t-9.5 -41t-4.5 -52q0 -54 24.5 -81.5t86.5 -38.5t183 -11t183 10.5t86.5 36.5t24.5 77q0 59 -13 140h107q15 -77 15 -144q0 -104 -37 -162zM368 -213
l-73 74l73 73l62 -61l62 61l72 -73l-72 -74l-62 62zM431 -187l66 -65l-66 -66l-66 66z" />
    <glyph glyph-name="uni0686" unicode="&#x686;" horiz-adv-x="656" 
d="M637 222q-204 -65 -308 -106t-154 -83.5t-50 -99.5q0 -70 53 -103t171 -33q80 0 143 10.5t102.5 23t39.5 14.5l1 -142q-62 -25 -71 -28t-74 -15t-152 -12q-310 0 -310 277v9q0 85 44 146t136 107t247 91q-79 23 -140.5 36.5t-109.5 13.5q-40 0 -73 -11t-54.5 -24
t-21.5 -14v136q0 2 19 15.5t53 25.5t81 12t92.5 -11.5t116.5 -36.5q68 -25 120 -39t109 -19zM504 9l-61 -63l-53 53l-53 -53l-62 63l62 62l53 -52l53 52zM391 -32l56 -55l-56 -57l-56 57z" />
    <glyph glyph-name="uni0698" unicode="&#x698;" horiz-adv-x="325" 
d="M252 -69q-32 -82 -89 -128t-130 -46q-30 0 -51.5 5.5t-32.5 11.5t-13 8v140q35 -14 85 -14q69 0 112 55t43 155q0 56 -7 102.5t-21 100.5h110q26 -85 26 -204q0 -104 -32 -186zM204 520l-65 66l65 65l67 -65zM265 396l-62 62l-62 -62l-72 74l72 73l62 -61l62 61l73 -73z
" />
    <glyph glyph-name="uni06A1" unicode="&#x6a1;" horiz-adv-x="902" 
d="M814 515q47 -72 47 -183v-48q0 -112 -36.5 -172t-127 -86t-263.5 -26q-153 0 -240.5 25.5t-126.5 83t-39 156.5q0 36 4.5 70.5t9.5 57t7 28.5h108q-1 -5 -5.5 -24t-8.5 -47t-4 -55q0 -54 28.5 -85t93 -44.5t176.5 -13.5q131 0 200.5 8.5t99 30t29.5 62.5v28
q-31 -64 -125 -64q-80 0 -119 41t-39 116q0 58 22.5 107t65.5 77.5t102 28.5q94 0 141 -72zM732 333q25 5 34 17q0 38 -24.5 67.5t-77.5 29.5q-42 0 -67.5 -19.5t-25.5 -49.5q0 -28 19.5 -39t70.5 -11q46 0 71 5z" />
    <glyph glyph-name="uni06A4" unicode="&#x6a4;" horiz-adv-x="902" 
d="M814 515q47 -72 47 -183v-48q0 -112 -36.5 -172t-127 -86t-263.5 -26q-153 0 -240.5 25.5t-126.5 83t-39 156.5q0 36 4.5 70.5t9.5 57t7 28.5h108q-1 -5 -5.5 -24t-8.5 -47t-4 -55q0 -54 28.5 -85t93 -44.5t176.5 -13.5q131 0 200.5 8.5t99 30t29.5 62.5v28
q-31 -64 -125 -64q-80 0 -119 41t-39 116q0 58 22.5 107t65.5 77.5t102 28.5q94 0 141 -72zM732 333q25 5 34 17q0 38 -24.5 67.5t-77.5 29.5q-42 0 -67.5 -19.5t-25.5 -49.5q0 -28 19.5 -39t70.5 -11q46 0 71 5zM673 780l-65 66l65 65l67 -65zM734 656l-62 62l-62 -62
l-72 74l72 73l62 -61l62 61l73 -73z" />
    <glyph glyph-name="uni06A9" unicode="&#x6a9;" horiz-adv-x="762" 
d="M765 614l-285 -158q127 -46 183.5 -102t56.5 -142q0 -104 -70.5 -158t-196.5 -54h-113q-122 0 -189 23t-95 73t-28 138q0 26 4 50.5t8.5 40t5.5 19.5h106q-1 -3 -5 -16t-8 -32t-4 -39q0 -43 18.5 -65t65 -31t136.5 -9h108q66 0 114.5 11.5t48.5 42.5q0 29 -22.5 52.5
t-82.5 49.5t-171 58v142l415 245v-139z" />
    <glyph glyph-name="uni06AF" unicode="&#x6af;" horiz-adv-x="762" 
d="M765 614l-285 -158q127 -46 183.5 -102t56.5 -142q0 -104 -70.5 -158t-196.5 -54h-113q-122 0 -189 23t-95 73t-28 138q0 26 4 50.5t8.5 40t5.5 19.5h106q-1 -3 -5 -16t-8 -32t-4 -39q0 -43 18.5 -65t65 -31t136.5 -9h108q66 0 114.5 11.5t48.5 42.5q0 29 -22.5 52.5
t-82.5 49.5t-171 58v142l415 245v-139zM313 635l403 239v-66l-403 -238v65z" />
    <glyph glyph-name="uni06BA" unicode="&#x6ba;" horiz-adv-x="694" 
d="M533 259.5q-9 58.5 -29 132.5h113q35 -122 35 -253q0 -160 -77 -238.5t-242 -78.5q-161 0 -233 74t-72 237q0 52 9 96t20 75t11 28h110q-3 -7 -12.5 -34.5t-18 -70t-8.5 -85.5q0 -63 19.5 -99.5t64 -53t121.5 -16.5q109 0 153.5 39.5t44.5 129.5q0 59 -9 117.5z" />
    <glyph glyph-name="uni06CC" unicode="&#x6cc;" horiz-adv-x="781" 
d="M671.5 482.5q22.5 -5.5 34 -11t14.5 -7.5l-1 -138q-4 2 -19 6.5t-41 9t-57 4.5q-44 0 -83.5 -12t-63.5 -31t-24 -41q0 -24 26 -35.5t98 -28.5q23 -4 51 -12q69 -17 101.5 -58t32.5 -113q0 -118 -92.5 -185.5t-271.5 -67.5t-263.5 76t-84.5 237q0 45 8.5 89t17.5 72.5
t12 35.5h110q-3 -8 -12 -36t-17 -68t-8 -76q0 -67 24 -105.5t77.5 -56t146.5 -17.5q130 0 195.5 25t65.5 69q0 15 -12 24t-39.5 16t-88.5 19q-67 13 -103.5 36t-51 58.5t-14.5 90.5q0 62 38 116.5t102.5 87.5t139.5 33q30 0 52.5 -5.5z" />
    <glyph glyph-name="uni06D4" unicode="&#x6d4;" horiz-adv-x="270" 
d="M45 78l89 88l90 -88l-90 -90z" />
    <glyph glyph-name="uni06F0" unicode="&#x6f0;" horiz-adv-x="314" 
d="M47 250l110 109l111 -109l-111 -111z" />
    <glyph glyph-name="uni06F1" unicode="&#x6f1;" horiz-adv-x="249" 
d="M69 623h111v-623h-111v623z" />
    <glyph glyph-name="uni06F2" unicode="&#x6f2;" horiz-adv-x="443" 
d="M99 187q-26 130 -34.5 179.5t-8.5 81.5q0 82 60 130t167 48q69 0 129 -21v-137q-38 11 -67 15.5t-65 4.5q-115 0 -115 -56q0 -24 8.5 -66.5t41.5 -196.5l36 -169h-115z" />
    <glyph glyph-name="uni06F3" unicode="&#x6f3;" horiz-adv-x="615" 
d="M572 599q4 -18 8 -46.5t4 -50.5q0 -90 -38 -141.5t-104 -51.5q-36 0 -61 16t-37 46q-22 -62 -92 -62q-20 0 -34 6l53 -314l-114 -1l-101 623h110l19 -111v2q6 -36 16.5 -49t41.5 -13q29 0 41 13t12 48v71h88l1 -71q0 -34 10.5 -47.5t36.5 -13.5q27 0 39.5 14.5t12.5 45.5
q0 28 -6.5 64t-9.5 47h99q1 -6 5 -24z" />
    <glyph glyph-name="uni06F4" unicode="&#x6f4;" horiz-adv-x="565" 
d="M520 439v-117q-40 -13 -90 -19t-93 -6q-47 0 -75 6t-45 19l54 -321l-114 -1l-101 623h110l27 -159q7 -18 28 -27.5t65 -12.5q-16 24 -16 63q0 73 38 107t123 34q35 0 67 -8v-106q-29 5 -60 5q-81 0 -81 -47q0 -20 11.5 -33.5t47.5 -13.5q42 0 104 14z" />
    <glyph glyph-name="uni06F5" unicode="&#x6f5;" horiz-adv-x="556" 
d="M460 453.5q51 -100.5 51 -224.5q0 -229 -142 -229q-34 0 -56.5 17t-34.5 44q-11 -27 -34.5 -44t-57.5 -17q-141 0 -141 229q0 124 51.5 225t124.5 169h116q72 -69 123 -169.5zM403.5 170.5q12.5 19.5 12.5 60.5q0 138 -138 264q-138 -126 -138 -264q0 -41 12.5 -60.5
t41.5 -19.5q33 0 42.5 19t9.5 71h65q0 -52 9.5 -71t41.5 -19q29 0 41.5 19.5z" />
    <glyph glyph-name="uni06F6" unicode="&#x6f6;" horiz-adv-x="423" 
d="M142 0q28 102 56.5 149t68.5 64.5t122 29.5v133q-66 -10 -109 -10q-70 0 -92 19.5t-22 50.5q0 27 25.5 49.5t85.5 22.5q48 0 90 -10v117q-45 13 -97 13q-102 0 -149 -46t-47 -142q0 -64 25 -101.5t75 -54.5q-46 -29 -80.5 -94.5t-62.5 -189.5h111z" />
    <glyph glyph-name="uni06F7" unicode="&#x6f7;" horiz-adv-x="540" 
d="M517 623l-180 -623h-133l-181 623h113l137 -491l131 491h113z" />
    <glyph glyph-name="uni06F8" unicode="&#x6f8;" horiz-adv-x="540" 
d="M404 0l-131 491l-137 -491h-113l181 623h133l180 -623h-113z" />
    <glyph glyph-name="uni06F9" unicode="&#x6f9;" horiz-adv-x="490" 
d="M321 0l-11 321q-13 -31 -44.5 -52t-83.5 -21q-83 0 -117 50t-34 123q0 59 22.5 106.5t65 75t100.5 27.5q98 0 142 -64t50 -183l16 -382zM306 407q-7 49 -30 72.5t-68 23.5q-44 0 -67.5 -20t-23.5 -51q0 -26 19.5 -36t63.5 -10q66 0 106 21z" />
    <glyph glyph-name="uni200C" unicode="&#x200c;" 
d="M-92 1043l62 64l-61 59l27 30l64 -62l63 61l28 -28l-65 -60l65 -64l-28 -27l-63 59l-64 -60z" />
    <glyph glyph-name="uni200D" unicode="&#x200d;" 
d="M-117 1121h235v-94h-39v55h-157v-55h-39v94z" />
    <glyph glyph-name="uni200E" unicode="&#x200e;" 
d="M26 1034l51 51h-174v37h174l-51 47l29 28l92 -91l-94 -96z" />
    <glyph glyph-name="uni200F" unicode="&#x200f;" 
d="M-144 1106l93 91l28 -28l-51 -47h175v-37h-175l51 -51l-26 -24z" />
    <glyph glyph-name="uni2012" unicode="&#x2012;" horiz-adv-x="526" 
d="M0 446h526v-122h-526v122z" />
    <glyph glyph-name="endash" unicode="&#x2013;" horiz-adv-x="500" 
d="M30 324h440v-93h-440v93z" />
    <glyph glyph-name="emdash" unicode="&#x2014;" horiz-adv-x="1000" 
d="M70 324h860v-93h-860v93z" />
    <glyph glyph-name="quoteleft" unicode="&#x2018;" horiz-adv-x="252" 
d="M211 755l-43 -248h-119l43 248h119z" />
    <glyph glyph-name="quoteright" unicode="&#x2019;" horiz-adv-x="252" 
d="M211 755l-43 -248h-119l43 248h119z" />
    <glyph glyph-name="quotesinglbase" unicode="&#x201a;" horiz-adv-x="250" 
d="M192 118l-43 -248h-119l43 248h119z" />
    <glyph glyph-name="quotedblleft" unicode="&#x201c;" horiz-adv-x="452" 
d="M211 755l-43 -248h-119l43 248h119zM411 755l-43 -248h-119l43 248h119z" />
    <glyph glyph-name="quotedblright" unicode="&#x201d;" horiz-adv-x="452" 
d="M211 755l-43 -248h-119l43 248h119zM411 755l-43 -248h-119l43 248h119z" />
    <glyph glyph-name="quotedblbase" unicode="&#x201e;" horiz-adv-x="449" 
d="M191 112l-43 -248h-119l43 248h119zM391 112l-43 -248h-119l43 248h119z" />
    <glyph glyph-name="dagger" unicode="&#x2020;" horiz-adv-x="614" 
d="M248 552l-8 203h129l-9 -203l201 8v-111l-201 8l9 -457h-129l9 457l-195 -8v111z" />
    <glyph glyph-name="daggerdbl" unicode="&#x2021;" horiz-adv-x="614" 
d="M248 566l-8 189h129l-8 -189l199 8v-111l-201 8l-1 -185l202 8v-111l-200 7l9 -190h-129l8 191l-195 -8v111l197 -8v185l-197 -8v111z" />
    <glyph glyph-name="bullet" unicode="&#x2022;" horiz-adv-x="445" 
d="M299.5 436.5q35.5 -20.5 56 -56t20.5 -77.5t-20.5 -77t-56 -55.5t-77.5 -20.5t-77 20.5t-55.5 55.5t-20.5 77t20.5 77.5t55.5 56t77 20.5t77.5 -20.5z" />
    <glyph glyph-name="ellipsis" unicode="&#x2026;" horiz-adv-x="692" 
d="M47 78l89 88l90 -88l-90 -90zM287 78l89 88l90 -88l-90 -90zM517 78l89 88l90 -88l-90 -90z" />
    <glyph glyph-name="uni202A" unicode="&#x202a;" 
d="M35 1034l49 51h-84v37h84l-49 47l29 28l88 -91l-90 -96zM-91 1122h46v-37h-46v37z" />
    <glyph glyph-name="uni202B" unicode="&#x202b;" 
d="M-152 1106l88 91l29 -28l-50 -47h85v-37h-85l50 -51l-27 -24zM45 1122h46v-37h-46v37z" />
    <glyph glyph-name="uni202C" unicode="&#x202c;" 
d="M-17 1177l-52 -47l-26 25l96 92l95 -90l-29 -27l-50 47v-172h-34v172z" />
    <glyph glyph-name="uni202D" unicode="&#x202d;" 
d="M-34 1034l48 51h-170v37h170l-48 47l30 28l91 -91l-93 -96zM66 1034l64 72l-64 63l29 28l89 -91l-92 -96z" />
    <glyph glyph-name="uni202E" unicode="&#x202e;" 
d="M-165 1106l88 91l30 -28l-69 -63l69 -72l-28 -24zM-69 1106l89 91l28 -28l-47 -47h173v-37h-173l47 -51l-26 -24z" />
    <glyph glyph-name="perthousand" unicode="&#x2030;" horiz-adv-x="1403" 
d="M400 407q-26 -42 -70.5 -63.5t-99.5 -21.5q-84 0 -139.5 48.5t-55.5 136.5v72q0 59 26 102t70.5 66t98.5 23q55 0 99.5 -23t70.5 -66t26 -102v-72q0 -58 -26 -100zM770 755l-442 -755h-123l442 755h123zM164 441.5q23 -25.5 67 -25.5q43 0 65.5 25t22.5 67v72
q0 42 -23 68t-66 26t-66 -26.5t-23 -67.5v-72q0 -41 23 -66.5zM914 71q-26 -42 -70.5 -63.5t-99.5 -21.5q-84 0 -139.5 48.5t-55.5 136.5v72q0 59 26 102t70.5 66t98.5 23q55 0 99.5 -23t70.5 -66t26 -102v-72q0 -58 -26 -100zM1343 71q-26 -42 -70.5 -63.5t-99.5 -21.5
q-84 0 -139.5 48.5t-55.5 136.5v72q0 59 26 102t70.5 66t98.5 23q55 0 99.5 -23t70.5 -66t26 -102v-72q0 -58 -26 -100zM678 105.5q23 -25.5 67 -25.5q43 0 65.5 25t22.5 67v71q0 43 -22.5 69t-66.5 26q-43 0 -66 -26.5t-23 -68.5v-71q0 -41 23 -66.5zM1107 105.5
q23 -25.5 67 -25.5q43 0 65.5 25t22.5 67v71q0 43 -22.5 69t-66.5 26q-43 0 -66 -26.5t-23 -68.5v-71q0 -41 23 -66.5z" />
    <glyph glyph-name="guilsinglleft" unicode="&#x2039;" horiz-adv-x="321" 
d="M274 66h-118l-122 215l125 209h116l-119 -206z" />
    <glyph glyph-name="guilsinglright" unicode="&#x203a;" horiz-adv-x="321" 
d="M162 490l125 -209l-122 -215h-118l118 218l-119 206h116z" />
    <glyph glyph-name="fraction" unicode="&#x2044;" horiz-adv-x="144" 
d="M365 755l-481 -755h-105l481 755h105z" />
    <glyph glyph-name="Euro" unicode="&#x20ac;" horiz-adv-x="660" 
d="M522.5 628.5q-51.5 15.5 -107.5 15.5q-72 0 -106.5 -29.5t-43.5 -98.5h210v-101h-214v-69h214v-101h-212q5 -53 22.5 -82t48.5 -41t82 -12q121 0 189 41v-126q-37 -20 -90.5 -30t-109.5 -10q-131 0 -200.5 63t-82.5 197h-81v101h78v69h-78v101h82q15 129 84.5 191
t198.5 62q64 0 117 -13t84 -33v-137q-33 27 -84.5 42.5z" />
    <glyph glyph-name="trademark" unicode="&#x2122;" horiz-adv-x="778" 
d="M223 684v-291h-85v291h-105v71h294v-71h-104zM440 503v-110h-81v362h81l92 -183l91 183h82v-362h-82v106l3 112l-62 -127h-67l-59 122z" />
    <glyph glyph-name="uni2126" unicode="&#x2126;" horiz-adv-x="750" 
d="M56 0v120h118q-50 46 -80.5 103.5t-30.5 123.5v77q0 111 38.5 188.5t109 117t163.5 39.5t163.5 -39.5t109.5 -117t39 -188.5v-77q0 -128 -108 -227h118v-120h-266v103q43 40 77.5 96t34.5 128v104q0 104 -41 161t-126 57q-84 0 -126 -56.5t-42 -161.5v-104q0 -66 33 -128
t81 -95l-1 -1h1v-103h-265z" />
    <glyph glyph-name="arrowleft" unicode="&#x2190;" horiz-adv-x="783" 
d="M783 446v-122h-518l162 -170h-157l-232 235l234 235h157l-171 -178h525z" />
    <glyph glyph-name="arrowup" unicode="&#x2191;" horiz-adv-x="547" 
d="M343 13h-134v478l-174 -166v174l238 235l238 -235v-175l-168 161v-472z" />
    <glyph glyph-name="arrowright" unicode="&#x2192;" horiz-adv-x="783" 
d="M525 446l-171 178h157l233 -235l-231 -235h-157l162 170h-518v122h525z" />
    <glyph glyph-name="arrowdown" unicode="&#x2193;" horiz-adv-x="546" 
d="M511 420v-175l-238 -235l-238 236v174l174 -167v478h134v-472z" />
    <glyph glyph-name="uni2196" unicode="&#x2196;" horiz-adv-x="667" 
d="M178 205l-123 124l1 335l334 2l123 -123l-231 -6l351 -351l-94 -94l-356 355z" />
    <glyph glyph-name="uni2197" unicode="&#x2197;" horiz-adv-x="667" 
d="M128 92l-95 94l352 352q-194 2 -232 5l123 123l334 -2l2 -335l-124 -124l-5 242z" />
    <glyph glyph-name="uni2198" unicode="&#x2198;" horiz-adv-x="669" 
d="M485 319l5 243l123 -124l-1 -335l-334 -3l-123 124l231 5l-351 352l94 94z" />
    <glyph glyph-name="uni2199" unicode="&#x2199;" horiz-adv-x="669" 
d="M540 675l94 -94l-351 -353h37q172 -2 194 -4l-123 -124l-334 3l-1 335l123 124l5 -242z" />
    <glyph glyph-name="partialdiff" unicode="&#x2202;" horiz-adv-x="613" 
d="M75.5 424.5q29.5 56.5 82.5 86.5t122 30q72 0 130 -55q-31 66 -89 118.5t-120 79.5l52 81q149 -53 229 -173t80 -285v-73q0 -79 -33.5 -135t-92.5 -85t-133 -29t-132 29t-91.5 85t-33.5 135v56q0 78 29.5 134.5zM217 132q30 -39 86 -39t87 38t31 98v57q0 77 -28 116
t-89 39q-59 0 -88 -38.5t-29 -116.5v-57q0 -58 30 -97z" />
    <glyph glyph-name="uni2206" unicode="&#x2206;" horiz-adv-x="744" 
d="M455 755l264 -755h-695l280 755h151zM520 120l-149 470l-160 -470h309z" />
    <glyph glyph-name="product" unicode="&#x220f;" horiz-adv-x="714" 
d="M618 629v-851h-142v851h-237v-851h-142v851h-49v126h617v-126h-47z" />
    <glyph glyph-name="summation" unicode="&#x2211;" horiz-adv-x="622" 
d="M35 -127l227 403l-227 385v94h550v-115h-393l216 -362l-219 -384h396v-115h-550v94z" />
    <glyph glyph-name="minus" unicode="&#x2212;" horiz-adv-x="567" 
d="M500 440v-105h-434v105h434z" />
    <glyph glyph-name="radical" unicode="&#x221a;" horiz-adv-x="592" 
d="M142 536l149 -337l173 580h121l-244 -779h-89l-239 536h129z" />
    <glyph glyph-name="infinity" unicode="&#x221e;" horiz-adv-x="796" 
d="M315 246.5q-42 -29.5 -101 -29.5q-77 0 -122 50.5t-45 127.5q0 79 47 129t130 50q59 0 101 -26t77 -72q36 46 76.5 72t97.5 26q54 0 93.5 -23.5t60 -63.5t20.5 -88q0 -50 -22 -91t-62 -65t-91 -24q-57 0 -98 28.5t-79 80.5q-41 -52 -83 -81.5zM290.5 459.5
q-28.5 21.5 -64.5 21.5q-35 0 -55.5 -22t-20.5 -64q0 -40 18.5 -62.5t54.5 -22.5q38 0 66 23t58 66q-28 39 -56.5 60.5zM512.5 335q26.5 -23 62.5 -23q29 0 50.5 18t21.5 63q0 43 -21 63t-54 20q-34 0 -61 -19t-56 -54q31 -45 57.5 -68z" />
    <glyph glyph-name="integral" unicode="&#x222b;" horiz-adv-x="377" 
d="M87.5 -99q24.5 11 32.5 38t8 83v593q0 84 31.5 129.5t83.5 61.5t125 16v-91q-49 0 -75.5 -9.5t-38.5 -35.5t-12 -78v-597q0 -89 -26 -135t-75 -62.5t-130 -16.5v93q52 0 76.5 11z" />
    <glyph glyph-name="approxequal" unicode="&#x2248;" horiz-adv-x="607" 
d="M71 537q68 61 129 61q24 0 50 -8t63 -24q37 -15 59 -22.5t43 -7.5q28 0 57 13.5t66 37.5v-104q-25 -25 -59.5 -43.5t-68.5 -18.5q-23 0 -49 8.5t-62 23.5q-38 16 -59 23t-40 7q-28 0 -58.5 -14t-70.5 -39v107zM71 307q68 61 129 61q24 0 50 -8t63 -24q37 -15 59 -22.5
t43 -7.5q28 0 57 13.5t66 37.5v-104q-25 -25 -59.5 -43.5t-68.5 -18.5q-23 0 -49 8.5t-62 23.5q-38 16 -59 23t-40 7q-28 0 -58.5 -14t-70.5 -39v107z" />
    <glyph glyph-name="notequal" unicode="&#x2260;" horiz-adv-x="580" 
d="M331 570l66 127h109l-65 -127h87v-106h-142l-74 -144h216v-106h-270l-66 -129h-110l66 129h-96v106h151l74 144h-225v106h279z" />
    <glyph glyph-name="lessequal" unicode="&#x2264;" horiz-adv-x="527" 
d="M56 438l401 198v-126l-275 -124l275 -121v-132l-401 193v112zM457 105v-105h-401v105h401z" />
    <glyph glyph-name="greaterequal" unicode="&#x2265;" horiz-adv-x="527" 
d="M70 265l275 121l-275 124v126l401 -198v-112l-401 -193v132zM70 0v105h401v-105h-401z" />
    <glyph glyph-name="filledbox" unicode="&#x25a0;" horiz-adv-x="920" 
d="M840 756v-756h-760v756h760z" />
    <glyph glyph-name="uni25A1" unicode="&#x25a1;" horiz-adv-x="920" 
d="M840 756v-756h-760v756h760zM763 680h-605v-603h605v603z" />
    <glyph glyph-name="uni25A2" unicode="&#x25a2;" horiz-adv-x="919" 
d="M80 640q0 59 28.5 87t86.5 28h529q59 0 87 -28t28 -87v-525q0 -61 -28 -88t-87 -27h-529q-61 0 -88 28t-27 87v525zM702 77q27 0 39.5 4t16.5 16.5t4 39.5v472q0 41 -11 55.5t-49 14.5h-484q-38 0 -49 -14.5t-11 -55.5v-472q0 -27 4 -39.5t16.5 -16.5t39.5 -4h484z" />
    <glyph glyph-name="triagup" unicode="&#x25b2;" horiz-adv-x="711" 
d="M356 561l335 -535h-670z" />
    <glyph glyph-name="uni25B6" unicode="&#x25b6;" horiz-adv-x="645" 
d="M607 294l-535 -335v670z" />
    <glyph glyph-name="uni25B8" unicode="&#x25b8;" horiz-adv-x="446" 
d="M72 608l334 -335l-334 -335v670z" />
    <glyph glyph-name="triagrt" unicode="&#x25ba;" horiz-adv-x="1012" 
d="M71 608l903 -335l-903 -335v670z" />
    <glyph glyph-name="triagdn" unicode="&#x25bc;" horiz-adv-x="709" 
d="M355 25l-335 535h670z" />
    <glyph glyph-name="uni25C0" unicode="&#x25c0;" horiz-adv-x="645" 
d="M573 629v-670l-535 335z" />
    <glyph glyph-name="uni25C2" unicode="&#x25c2;" horiz-adv-x="445" 
d="M373 608v-670l-334 336z" />
    <glyph glyph-name="triaglf" unicode="&#x25c4;" horiz-adv-x="1015" 
d="M944 608v-670l-903 334z" />
    <glyph glyph-name="lozenge" unicode="&#x25ca;" horiz-adv-x="635" 
d="M371 756l239 -376l-249 -380h-97l-239 381l249 375h97zM147 381l169 -275l171 274l-166 265z" />
    <glyph glyph-name="uni2610" unicode="&#x2610;" horiz-adv-x="920" 
d="M840 756v-756h-760v756h760zM746 662h-571v-568h571v568z" />
    <glyph glyph-name="uni2611" unicode="&#x2611;" horiz-adv-x="970" 
d="M840 756v-756h-760v756h760zM746 662h-571v-568h571v568zM704 565l-253 -383h-54l-161 165l71 71l115 -114l203 310z" />
    <glyph glyph-name="uni2615" unicode="&#x2615;" horiz-adv-x="1166" 
d="M902 565q65 0 103 -33.5t38 -95.5q0 -61 -36 -94t-93 -33h-42v-15q0 -62 -14 -96.5t-46.5 -49t-89.5 -14.5h-278q-57 0 -89.5 14.5t-46.5 49t-14 96.5v341h579l-1 -70h30zM872 363h43q37 0 55.5 22.5t18.5 55.5q0 31 -21 50.5t-57 19.5h-39v-148zM1051.5 26
q-29.5 -32 -64.5 -32h-765q-54 0 -89.5 29t-40.5 73h992q-3 -38 -32.5 -70z" />
    <glyph glyph-name="uni261A" unicode="&#x261a;" horiz-adv-x="1018" 
d="M710 93q-40 -18 -96 -18h-250q-47 0 -65.5 26t-18.5 76q-34 0 -50.5 24t-16.5 68v99h-97q-36 0 -60.5 18.5t-24.5 57.5q0 36 24 55t60 19h377l-27 31q-26 27 -26 64q0 29 16.5 56t46.5 46h32l164 -184h276l1 -321z" />
    <glyph glyph-name="uni261B" unicode="&#x261b;" horiz-adv-x="1018" 
d="M320 531l164 184h32q30 -19 46.5 -46t16.5 -56q0 -37 -26 -64l-27 -31h377q36 0 60 -19t24 -55q0 -39 -24.5 -57.5t-60.5 -18.5h-97v-99q0 -44 -16.5 -68t-50.5 -24q0 -50 -18.5 -76t-65.5 -26h-250q-56 0 -96 18l-265 117l1 321h276z" />
    <glyph glyph-name="uni261C" unicode="&#x261c;" horiz-adv-x="1015" 
d="M518 659q-28 -19 -28 -46q0 -23 21 -49l46 -56l-28 -39h-406q-16 0 -25 -7.5t-9 -18.5t8.5 -18.5t24.5 -7.5h413v-49h-273v-50h273v-51h-273q0 -22 6 -33t29 -11h238v-47h-206q0 -32 7.5 -42.5t32.5 -10.5h233q51 0 89 16l283 123v-52l-265 -117q-40 -18 -96 -18h-250
q-47 0 -65.5 26t-18.5 76q-34 0 -50.5 24t-16.5 68v99h-97q-36 0 -60.5 18.5t-24.5 57.5q0 36 24 55t60 19h377l-27 31q-26 27 -26 64q0 29 16.5 56t46.5 46h32l164 -184h276v-51h-300z" />
    <glyph glyph-name="uni261D" unicode="&#x261d;" horiz-adv-x="710" 
d="M625 262q-20 29 -46 29q-22 0 -48 -21l-56 -47l-39 28v406q0 16 -8 25t-19 9t-18.5 -8.5t-7.5 -24.5v-413h-48v273h-50v-273h-51v273q-22 0 -33.5 -6t-11.5 -29v-238h-46v206q-32 0 -43 -7.5t-11 -32.5v-233q0 -51 16 -89l123 -283h-51l-117 265q-18 40 -18 96v250
q0 47 26 65.5t76 18.5q0 34 24 50.5t68 16.5h99v97q0 36 18.5 60.5t57.5 24.5q36 0 55 -24t19 -60v-377l31 27q27 26 64 26q29 0 56 -16.5t46 -46.5v-32l-184 -164v-276h-51v300z" />
    </font>
</defs>
</svg>
